<?xml version="1.0" encoding="UTF-8" standalone="no"?>
<!DOCTYPE svg PUBLIC "-//W3C//DTD SVG 1.1//EN"
 "http://www.w3.org/Graphics/SVG/1.1/DTD/svg11.dtd">
<!-- Generated by graphviz version 9.0.0 (20230911.1827)
 -->
<!-- Title: neat Pages: 1 -->
<svg width="145pt" height="98pt"
 viewBox="0.00 0.00 144.50 98.00" xmlns="http://www.w3.org/2000/svg" xmlns:xlink="http://www.w3.org/1999/xlink">
<g id="graph0" class="graph" transform="scale(1 1) rotate(0) translate(4 94)">
<title>neat</title>
<polygon fill="white" stroke="none" points="-4,4 -4,-94 140.5,-94 140.5,4 -4,4"/>
<!-- node0 -->
<g id="node1" class="node">
<title>node0</title>
<ellipse fill="lightblue" stroke="black" cx="18" cy="-72" rx="18" ry="18"/>
<text text-anchor="middle" x="18" y="-66.95" font-family="Times,serif" font-size="14.00">0</text>
</g>
<!-- node2 -->
<g id="node3" class="node">
<title>node2</title>
<ellipse fill="lightgreen" stroke="black" cx="118.5" cy="-45" rx="18" ry="18"/>
<text text-anchor="middle" x="118.5" y="-39.95" font-family="Times,serif" font-size="14.00">2</text>
</g>
<!-- node0&#45;&gt;node2 -->
<g id="edge1" class="edge">
<title>node0&#45;&gt;node2</title>
<path fill="none" stroke="black" d="M35.71,-67.42C50.57,-63.35 72.58,-57.31 90.02,-52.53"/>
<polygon fill="black" stroke="black" points="90.53,-56.02 99.25,-50 88.68,-49.27 90.53,-56.02"/>
<text text-anchor="middle" x="68.25" y="-64.2" font-family="Times,serif" font-size="14.00">&#45;1.08</text>
</g>
<!-- node1 -->
<g id="node2" class="node">
<title>node1</title>
<ellipse fill="lightblue" stroke="black" cx="18" cy="-18" rx="18" ry="18"/>
<text text-anchor="middle" x="18" y="-12.95" font-family="Times,serif" font-size="14.00">1</text>
</g>
<!-- node1&#45;&gt;node2 -->
<g id="edge2" class="edge">
<title>node1&#45;&gt;node2</title>
<path fill="none" stroke="black" d="M35.71,-22.58C50.57,-26.65 72.58,-32.69 90.02,-37.47"/>
<polygon fill="black" stroke="black" points="88.68,-40.73 99.25,-40 90.53,-33.98 88.68,-40.73"/>
<text text-anchor="middle" x="68.25" y="-38.2" font-family="Times,serif" font-size="14.00">&#45;1.89</text>
</g>
</g>
</svg>
