<?xml version="1.0" encoding="UTF-8" standalone="no"?>
<!DOCTYPE svg PUBLIC "-//W3C//DTD SVG 1.1//EN"
 "http://www.w3.org/Graphics/SVG/1.1/DTD/svg11.dtd">
<!-- Generated by graphviz version 9.0.0 (20230911.1827)
 -->
<!-- Title: neat Pages: 1 -->
<svg width="452pt" height="154pt"
 viewBox="0.00 0.00 452.22 153.81" xmlns="http://www.w3.org/2000/svg" xmlns:xlink="http://www.w3.org/1999/xlink">
<g id="graph0" class="graph" transform="scale(1 1) rotate(0) translate(4 149.81)">
<title>neat</title>
<polygon fill="white" stroke="none" points="-4,4 -4,-149.81 448.22,-149.81 448.22,4 -4,4"/>
<!-- node0 -->
<g id="node1" class="node">
<title>node0</title>
<ellipse fill="lightblue" stroke="black" cx="31.9" cy="-113.9" rx="31.9" ry="31.9"/>
<text text-anchor="middle" x="31.9" y="-108.85" font-family="Times,serif" font-size="14.00">0.000</text>
</g>
<!-- node122 -->
<g id="node3" class="node">
<title>node122</title>
<ellipse fill="lightgreen" stroke="black" cx="412.32" cy="-83.9" rx="31.9" ry="31.9"/>
<text text-anchor="middle" x="412.32" y="-78.85" font-family="Times,serif" font-size="14.00">0.958</text>
</g>
<!-- node0&#45;&gt;node122 -->
<g id="edge1" class="edge">
<title>node0&#45;&gt;node122</title>
<path fill="none" stroke="black" d="M63.96,-111.9C116.7,-108.5 227.09,-101.32 320.42,-94.9 339.09,-93.62 343.83,-94.08 362.42,-91.9 364.72,-91.63 367.08,-91.33 369.46,-91.01"/>
<polygon fill="black" stroke="black" points="369.72,-94.51 379.1,-89.59 368.7,-87.58 369.72,-94.51"/>
<text text-anchor="middle" x="224.36" y="-105.1" font-family="Times,serif" font-size="14.00">1.58</text>
</g>
<!-- node242 -->
<g id="node5" class="node">
<title>node242</title>
<ellipse fill="lightgray" stroke="black" cx="160.21" cy="-53.9" rx="31.9" ry="31.9"/>
<text text-anchor="middle" x="160.21" y="-48.85" font-family="Times,serif" font-size="14.00">0.077</text>
</g>
<!-- node0&#45;&gt;node242 -->
<g id="edge5" class="edge">
<title>node0&#45;&gt;node242</title>
<path fill="none" stroke="black" d="M59.02,-96.32C66.24,-91.82 74.19,-87.19 81.81,-83.4 93.54,-77.58 106.73,-72.16 118.84,-67.6"/>
<polygon fill="black" stroke="black" points="119.99,-70.91 128.18,-64.19 117.59,-64.33 119.99,-70.91"/>
<text text-anchor="middle" x="96.06" y="-86.1" font-family="Times,serif" font-size="14.00">&#45;0.40</text>
</g>
<!-- node1 -->
<g id="node2" class="node">
<title>node1</title>
<ellipse fill="lightblue" stroke="black" cx="31.9" cy="-31.9" rx="31.9" ry="31.9"/>
<text text-anchor="middle" x="31.9" y="-26.85" font-family="Times,serif" font-size="14.00">1.000</text>
</g>
<!-- node1&#45;&gt;node242 -->
<g id="edge3" class="edge">
<title>node1&#45;&gt;node242</title>
<path fill="none" stroke="black" d="M64.01,-32.93C78.23,-33.8 95.22,-35.42 110.31,-38.4 113.1,-38.95 115.95,-39.61 118.81,-40.34"/>
<polygon fill="black" stroke="black" points="117.71,-43.66 128.29,-42.99 119.6,-36.92 117.71,-43.66"/>
<text text-anchor="middle" x="96.06" y="-42.1" font-family="Times,serif" font-size="14.00">&#45;0.51</text>
</g>
<!-- node152 -->
<g id="node4" class="node">
<title>node152</title>
<ellipse fill="lightgray" stroke="black" cx="288.51" cy="-53.9" rx="31.9" ry="31.9"/>
<text text-anchor="middle" x="288.51" y="-48.85" font-family="Times,serif" font-size="14.00">0.500</text>
</g>
<!-- node152&#45;&gt;node122 -->
<g id="edge2" class="edge">
<title>node152&#45;&gt;node122</title>
<path fill="none" stroke="black" d="M319.94,-61.4C335.05,-65.12 353.54,-69.67 369.92,-73.71"/>
<polygon fill="black" stroke="black" points="368.85,-77.05 379.39,-76.04 370.52,-70.25 368.85,-77.05"/>
<text text-anchor="middle" x="350.42" y="-74.1" font-family="Times,serif" font-size="14.00">1.28</text>
</g>
<!-- node242&#45;&gt;node152 -->
<g id="edge4" class="edge">
<title>node242&#45;&gt;node152</title>
<path fill="none" stroke="black" d="M192.43,-53.9C208.22,-53.9 227.62,-53.9 244.77,-53.9"/>
<polygon fill="black" stroke="black" points="244.7,-57.4 254.7,-53.9 244.7,-50.4 244.7,-57.4"/>
<text text-anchor="middle" x="224.36" y="-57.1" font-family="Times,serif" font-size="14.00">&#45;1.87</text>
</g>
</g>
</svg>
