<?xml version="1.0" encoding="UTF-8" standalone="no"?>
<!DOCTYPE svg PUBLIC "-//W3C//DTD SVG 1.1//EN"
 "http://www.w3.org/Graphics/SVG/1.1/DTD/svg11.dtd">
<!-- Generated by graphviz version 9.0.0 (20230911.1827)
 -->
<!-- Title: neat Pages: 1 -->
<svg width="272pt" height="131pt"
 viewBox="0.00 0.00 271.95 130.74" xmlns="http://www.w3.org/2000/svg" xmlns:xlink="http://www.w3.org/1999/xlink">
<g id="graph0" class="graph" transform="scale(1 1) rotate(0) translate(4 126.74)">
<title>neat</title>
<polygon fill="white" stroke="none" points="-4,4 -4,-126.74 267.95,-126.74 267.95,4 -4,4"/>
<!-- node0 -->
<g id="node1" class="node">
<title>node0</title>
<ellipse fill="lightblue" stroke="black" cx="18" cy="-104.74" rx="18" ry="18"/>
<text text-anchor="middle" x="18" y="-99.69" font-family="Times,serif" font-size="14.00">0</text>
</g>
<!-- node201 -->
<g id="node5" class="node">
<title>node201</title>
<ellipse fill="lightgray" stroke="black" cx="125.24" cy="-97.74" rx="24.74" ry="24.74"/>
<text text-anchor="middle" x="125.24" y="-92.69" font-family="Times,serif" font-size="14.00">201</text>
</g>
<!-- node0&#45;&gt;node201 -->
<g id="edge3" class="edge">
<title>node0&#45;&gt;node201</title>
<path fill="none" stroke="black" d="M36.38,-103.58C50.58,-102.64 71.12,-101.27 88.77,-100.1"/>
<polygon fill="black" stroke="black" points="88.88,-103.6 98.63,-99.44 88.42,-96.61 88.88,-103.6"/>
<text text-anchor="middle" x="68.25" y="-104.94" font-family="Times,serif" font-size="14.00">0.00</text>
</g>
<!-- node1 -->
<g id="node2" class="node">
<title>node1</title>
<ellipse fill="lightblue" stroke="black" cx="18" cy="-37.74" rx="18" ry="18"/>
<text text-anchor="middle" x="18" y="-32.69" font-family="Times,serif" font-size="14.00">1</text>
</g>
<!-- node161 -->
<g id="node4" class="node">
<title>node161</title>
<ellipse fill="lightgray" stroke="black" cx="125.24" cy="-24.74" rx="24.74" ry="24.74"/>
<text text-anchor="middle" x="125.24" y="-19.69" font-family="Times,serif" font-size="14.00">161</text>
</g>
<!-- node1&#45;&gt;node161 -->
<g id="edge1" class="edge">
<title>node1&#45;&gt;node161</title>
<path fill="none" stroke="black" d="M35.13,-31.33C40.98,-29.31 47.7,-27.32 54,-26.24 65.33,-24.3 77.84,-23.58 89.12,-23.46"/>
<polygon fill="black" stroke="black" points="88.81,-26.95 98.82,-23.5 88.84,-19.95 88.81,-26.95"/>
<text text-anchor="middle" x="68.25" y="-29.94" font-family="Times,serif" font-size="14.00">1.75</text>
</g>
<!-- node1&#45;&gt;node201 -->
<g id="edge4" class="edge">
<title>node1&#45;&gt;node201</title>
<path fill="none" stroke="black" d="M34.08,-46.33C49.49,-55.12 73.88,-69.03 93.41,-80.16"/>
<polygon fill="black" stroke="black" points="91.65,-83.19 102.07,-85.1 95.11,-77.1 91.65,-83.19"/>
<text text-anchor="middle" x="68.25" y="-75.94" font-family="Times,serif" font-size="14.00">&#45;1.14</text>
</g>
<!-- node105 -->
<g id="node3" class="node">
<title>node105</title>
<ellipse fill="lightgreen" stroke="black" cx="239.21" cy="-24.74" rx="24.74" ry="24.74"/>
<text text-anchor="middle" x="239.21" y="-19.69" font-family="Times,serif" font-size="14.00">105</text>
</g>
<!-- node161&#45;&gt;node105 -->
<g id="edge2" class="edge">
<title>node161&#45;&gt;node105</title>
<path fill="none" stroke="black" d="M150.26,-24.74C165.61,-24.74 185.78,-24.74 202.93,-24.74"/>
<polygon fill="black" stroke="black" points="202.72,-28.24 212.72,-24.74 202.72,-21.24 202.72,-28.24"/>
<text text-anchor="middle" x="182.22" y="-27.94" font-family="Times,serif" font-size="14.00">&#45;1.43</text>
</g>
</g>
</svg>
