<?xml version="1.0" encoding="UTF-8" standalone="no"?>
<!DOCTYPE svg PUBLIC "-//W3C//DTD SVG 1.1//EN"
 "http://www.w3.org/Graphics/SVG/1.1/DTD/svg11.dtd">
<!-- Generated by graphviz version 9.0.0 (20230911.1827)
 -->
<!-- Title: neat Pages: 1 -->
<svg width="258pt" height="105pt"
 viewBox="0.00 0.00 258.24 104.74" xmlns="http://www.w3.org/2000/svg" xmlns:xlink="http://www.w3.org/1999/xlink">
<g id="graph0" class="graph" transform="scale(1 1) rotate(0) translate(4 100.74)">
<title>neat</title>
<polygon fill="white" stroke="none" points="-4,4 -4,-100.74 254.24,-100.74 254.24,4 -4,4"/>
<!-- node0 -->
<g id="node1" class="node">
<title>node0</title>
<ellipse fill="lightblue" stroke="black" cx="18" cy="-24.74" rx="18" ry="18"/>
<text text-anchor="middle" x="18" y="-19.69" font-family="Times,serif" font-size="14.00">0</text>
</g>
<!-- node188 -->
<g id="node4" class="node">
<title>node188</title>
<ellipse fill="lightgray" stroke="black" cx="125.24" cy="-24.74" rx="24.74" ry="24.74"/>
<text text-anchor="middle" x="125.24" y="-19.69" font-family="Times,serif" font-size="14.00">188</text>
</g>
<!-- node0&#45;&gt;node188 -->
<g id="edge1" class="edge">
<title>node0&#45;&gt;node188</title>
<path fill="none" stroke="black" d="M36.38,-24.74C50.58,-24.74 71.12,-24.74 88.77,-24.74"/>
<polygon fill="black" stroke="black" points="88.63,-28.24 98.63,-24.74 88.63,-21.24 88.63,-28.24"/>
<text text-anchor="middle" x="68.25" y="-27.94" font-family="Times,serif" font-size="14.00">&#45;1.40</text>
</g>
<!-- node1 -->
<g id="node2" class="node">
<title>node1</title>
<ellipse fill="lightblue" stroke="black" cx="18" cy="-78.74" rx="18" ry="18"/>
<text text-anchor="middle" x="18" y="-73.69" font-family="Times,serif" font-size="14.00">1</text>
</g>
<!-- node36 -->
<g id="node3" class="node">
<title>node36</title>
<ellipse fill="lightgreen" stroke="black" cx="230.11" cy="-24.74" rx="20.13" ry="20.13"/>
<text text-anchor="middle" x="230.11" y="-19.69" font-family="Times,serif" font-size="14.00">36</text>
</g>
<!-- node188&#45;&gt;node36 -->
<g id="edge2" class="edge">
<title>node188&#45;&gt;node36</title>
<path fill="none" stroke="black" d="M150.36,-24.74C164.74,-24.74 183.14,-24.74 198.54,-24.74"/>
<polygon fill="black" stroke="black" points="198.1,-28.24 208.1,-24.74 198.1,-21.24 198.1,-28.24"/>
<text text-anchor="middle" x="179.97" y="-27.94" font-family="Times,serif" font-size="14.00">0.02</text>
</g>
</g>
</svg>
