<?xml version="1.0" encoding="UTF-8" standalone="no"?>
<!DOCTYPE svg PUBLIC "-//W3C//DTD SVG 1.1//EN"
 "http://www.w3.org/Graphics/SVG/1.1/DTD/svg11.dtd">
<!-- Generated by graphviz version 9.0.0 (20230911.1827)
 -->
<!-- Title: neat Pages: 1 -->
<svg width="267pt" height="182pt"
 viewBox="0.00 0.00 267.45 182.47" xmlns="http://www.w3.org/2000/svg" xmlns:xlink="http://www.w3.org/1999/xlink">
<g id="graph0" class="graph" transform="scale(1 1) rotate(0) translate(4 178.47)">
<title>neat</title>
<polygon fill="white" stroke="none" points="-4,4 -4,-178.47 263.45,-178.47 263.45,4 -4,4"/>
<!-- node0 -->
<g id="node1" class="node">
<title>node0</title>
<ellipse fill="lightblue" stroke="black" cx="18" cy="-106.74" rx="18" ry="18"/>
<text text-anchor="middle" x="18" y="-101.69" font-family="Times,serif" font-size="14.00">0</text>
</g>
<!-- node148 -->
<g id="node3" class="node">
<title>node148</title>
<ellipse fill="lightgreen" stroke="black" cx="234.71" cy="-37.74" rx="24.74" ry="24.74"/>
<text text-anchor="middle" x="234.71" y="-32.69" font-family="Times,serif" font-size="14.00">148</text>
</g>
<!-- node0&#45;&gt;node148 -->
<g id="edge1" class="edge">
<title>node0&#45;&gt;node148</title>
<path fill="none" stroke="black" d="M36.29,-105.01C74.46,-100.99 164.69,-90.31 191.97,-76.74 198.38,-73.55 204.5,-69.06 209.97,-64.25"/>
<polygon fill="black" stroke="black" points="212.09,-67.07 216.91,-57.63 207.26,-62 212.09,-67.07"/>
<text text-anchor="middle" x="120.74" y="-99.94" font-family="Times,serif" font-size="14.00">1.40</text>
</g>
<!-- node276 -->
<g id="node6" class="node">
<title>node276</title>
<ellipse fill="lightgray" stroke="black" cx="120.74" cy="-149.74" rx="24.74" ry="24.74"/>
<text text-anchor="middle" x="120.74" y="-144.69" font-family="Times,serif" font-size="14.00">276</text>
</g>
<!-- node0&#45;&gt;node276 -->
<g id="edge4" class="edge">
<title>node0&#45;&gt;node276</title>
<path fill="none" stroke="black" d="M34.74,-113.46C48.67,-119.4 69.45,-128.27 86.98,-135.75"/>
<polygon fill="black" stroke="black" points="85.42,-138.89 95.99,-139.6 88.17,-132.46 85.42,-138.89"/>
<text text-anchor="middle" x="66" y="-133.94" font-family="Times,serif" font-size="14.00">1.00</text>
</g>
<!-- node1 -->
<g id="node2" class="node">
<title>node1</title>
<ellipse fill="lightblue" stroke="black" cx="18" cy="-24.74" rx="18" ry="18"/>
<text text-anchor="middle" x="18" y="-19.69" font-family="Times,serif" font-size="14.00">1</text>
</g>
<!-- node218 -->
<g id="node5" class="node">
<title>node218</title>
<ellipse fill="lightgray" stroke="black" cx="120.74" cy="-24.74" rx="24.74" ry="24.74"/>
<text text-anchor="middle" x="120.74" y="-19.69" font-family="Times,serif" font-size="14.00">218</text>
</g>
<!-- node1&#45;&gt;node218 -->
<g id="edge2" class="edge">
<title>node1&#45;&gt;node218</title>
<path fill="none" stroke="black" d="M36.09,-24.74C49.28,-24.74 67.98,-24.74 84.36,-24.74"/>
<polygon fill="black" stroke="black" points="84.24,-28.24 94.24,-24.74 84.24,-21.24 84.24,-28.24"/>
<text text-anchor="middle" x="66" y="-27.94" font-family="Times,serif" font-size="14.00">1.00</text>
</g>
<!-- node179 -->
<g id="node4" class="node">
<title>node179</title>
<ellipse fill="lightgray" stroke="black" cx="234.71" cy="-113.74" rx="24.74" ry="24.74"/>
<text text-anchor="middle" x="234.71" y="-108.69" font-family="Times,serif" font-size="14.00">179</text>
</g>
<!-- node218&#45;&gt;node148 -->
<g id="edge6" class="edge">
<title>node218&#45;&gt;node148</title>
<path fill="none" stroke="black" d="M145.36,-20.17C159.08,-18.28 176.64,-17.15 191.97,-20.24 195.15,-20.88 198.39,-21.76 201.58,-22.8"/>
<polygon fill="black" stroke="black" points="200.13,-26 210.72,-26.25 202.6,-19.45 200.13,-26"/>
<text text-anchor="middle" x="177.72" y="-23.94" font-family="Times,serif" font-size="14.00">&#45;1.45</text>
</g>
<!-- node218&#45;&gt;node179 -->
<g id="edge3" class="edge">
<title>node218&#45;&gt;node179</title>
<path fill="none" stroke="black" d="M140.73,-39.84C158.59,-54.03 185.53,-75.44 205.82,-91.57"/>
<polygon fill="black" stroke="black" points="203.43,-94.14 213.44,-97.62 207.79,-88.66 203.43,-94.14"/>
<text text-anchor="middle" x="177.72" y="-83.94" font-family="Times,serif" font-size="14.00">&#45;2.60</text>
</g>
<!-- node276&#45;&gt;node179 -->
<g id="edge5" class="edge">
<title>node276&#45;&gt;node179</title>
<path fill="none" stroke="black" d="M144.67,-142.37C160.59,-137.25 182.08,-130.34 199.96,-124.59"/>
<polygon fill="black" stroke="black" points="200.92,-127.96 209.37,-121.56 198.78,-121.29 200.92,-127.96"/>
<text text-anchor="middle" x="177.72" y="-138.94" font-family="Times,serif" font-size="14.00">&#45;0.05</text>
</g>
</g>
</svg>
