<?xml version="1.0" encoding="UTF-8" standalone="no"?>
<!DOCTYPE svg PUBLIC "-//W3C//DTD SVG 1.1//EN"
 "http://www.w3.org/Graphics/SVG/1.1/DTD/svg11.dtd">
<!-- Generated by graphviz version 9.0.0 (20230911.1827)
 -->
<!-- Title: neat Pages: 1 -->
<svg width="162pt" height="367pt"
 viewBox="0.00 0.00 162.24 366.74" xmlns="http://www.w3.org/2000/svg" xmlns:xlink="http://www.w3.org/1999/xlink">
<g id="graph0" class="graph" transform="scale(1 1) rotate(0) translate(4 362.74)">
<title>neat</title>
<polygon fill="white" stroke="none" points="-4,4 -4,-362.74 158.24,-362.74 158.24,4 -4,4"/>
<!-- node0 -->
<g id="node1" class="node">
<title>node0</title>
<ellipse fill="lightblue" stroke="black" cx="24.74" cy="-18" rx="18" ry="18"/>
<text text-anchor="middle" x="24.74" y="-12.95" font-family="Times,serif" font-size="14.00">0</text>
</g>
<!-- node1 -->
<g id="node2" class="node">
<title>node1</title>
<ellipse fill="lightblue" stroke="black" cx="24.74" cy="-72" rx="18" ry="18"/>
<text text-anchor="middle" x="24.74" y="-66.95" font-family="Times,serif" font-size="14.00">1</text>
</g>
<!-- node45 -->
<g id="node3" class="node">
<title>node45</title>
<ellipse fill="lightgreen" stroke="black" cx="134.11" cy="-166" rx="20.13" ry="20.13"/>
<text text-anchor="middle" x="134.11" y="-160.95" font-family="Times,serif" font-size="14.00">45</text>
</g>
<!-- node163 -->
<g id="node4" class="node">
<title>node163</title>
<ellipse fill="lightgray" stroke="black" cx="24.74" cy="-267" rx="24.74" ry="24.74"/>
<text text-anchor="middle" x="24.74" y="-261.95" font-family="Times,serif" font-size="14.00">163</text>
</g>
<!-- node217 -->
<g id="node5" class="node">
<title>node217</title>
<ellipse fill="lightgray" stroke="black" cx="24.74" cy="-200" rx="24.74" ry="24.74"/>
<text text-anchor="middle" x="24.74" y="-194.95" font-family="Times,serif" font-size="14.00">217</text>
</g>
<!-- node217&#45;&gt;node45 -->
<g id="edge1" class="edge">
<title>node217&#45;&gt;node45</title>
<path fill="none" stroke="black" d="M48.77,-192.71C64.84,-187.62 86.43,-180.78 103.74,-175.3"/>
<polygon fill="black" stroke="black" points="104.48,-178.74 112.95,-172.38 102.36,-172.06 104.48,-178.74"/>
<text text-anchor="middle" x="81.72" y="-189.2" font-family="Times,serif" font-size="14.00">&#45;0.18</text>
</g>
<!-- node262 -->
<g id="node6" class="node">
<title>node262</title>
<ellipse fill="lightgray" stroke="black" cx="24.74" cy="-334" rx="24.74" ry="24.74"/>
<text text-anchor="middle" x="24.74" y="-328.95" font-family="Times,serif" font-size="14.00">262</text>
</g>
<!-- node298 -->
<g id="node7" class="node">
<title>node298</title>
<ellipse fill="lightgray" stroke="black" cx="24.74" cy="-133" rx="24.74" ry="24.74"/>
<text text-anchor="middle" x="24.74" y="-127.95" font-family="Times,serif" font-size="14.00">298</text>
</g>
<!-- node298&#45;&gt;node45 -->
<g id="edge2" class="edge">
<title>node298&#45;&gt;node45</title>
<path fill="none" stroke="black" d="M48.77,-140.08C64.84,-145.02 86.43,-151.65 103.74,-156.97"/>
<polygon fill="black" stroke="black" points="102.36,-160.21 112.95,-159.81 104.42,-153.52 102.36,-160.21"/>
<text text-anchor="middle" x="81.72" y="-158.2" font-family="Times,serif" font-size="14.00">1.28</text>
</g>
</g>
</svg>
