<?xml version="1.0" encoding="UTF-8" standalone="no"?>
<!DOCTYPE svg PUBLIC "-//W3C//DTD SVG 1.1//EN"
 "http://www.w3.org/Graphics/SVG/1.1/DTD/svg11.dtd">
<!-- Generated by graphviz version 9.0.0 (20230911.1827)
 -->
<!-- Title: neat Pages: 1 -->
<svg width="281pt" height="179pt"
 viewBox="0.00 0.00 280.92 178.74" xmlns="http://www.w3.org/2000/svg" xmlns:xlink="http://www.w3.org/1999/xlink">
<g id="graph0" class="graph" transform="scale(1 1) rotate(0) translate(4 174.74)">
<title>neat</title>
<polygon fill="white" stroke="none" points="-4,4 -4,-174.74 276.92,-174.74 276.92,4 -4,4"/>
<!-- node0 -->
<g id="node1" class="node">
<title>node0</title>
<ellipse fill="lightblue" stroke="black" cx="134.21" cy="-152.74" rx="18" ry="18"/>
<text text-anchor="middle" x="134.21" y="-147.69" font-family="Times,serif" font-size="14.00">0</text>
</g>
<!-- node171 -->
<g id="node4" class="node">
<title>node171</title>
<ellipse fill="lightgray" stroke="black" cx="248.19" cy="-88.74" rx="24.74" ry="24.74"/>
<text text-anchor="middle" x="248.19" y="-83.69" font-family="Times,serif" font-size="14.00">171</text>
</g>
<!-- node0&#45;&gt;node171 -->
<g id="edge2" class="edge">
<title>node0&#45;&gt;node171</title>
<path fill="none" stroke="black" d="M150.31,-144.11C167.14,-134.49 194.8,-118.68 216.27,-106.41"/>
<polygon fill="black" stroke="black" points="217.97,-109.47 224.92,-101.47 214.5,-103.39 217.97,-109.47"/>
<text text-anchor="middle" x="191.2" y="-130.94" font-family="Times,serif" font-size="14.00">&#45;2.93</text>
</g>
<!-- node1 -->
<g id="node2" class="node">
<title>node1</title>
<ellipse fill="lightblue" stroke="black" cx="24.74" cy="-58.74" rx="18" ry="18"/>
<text text-anchor="middle" x="24.74" y="-53.69" font-family="Times,serif" font-size="14.00">1</text>
</g>
<!-- node136 -->
<g id="node3" class="node">
<title>node136</title>
<ellipse fill="lightgreen" stroke="black" cx="134.21" cy="-91.74" rx="24.74" ry="24.74"/>
<text text-anchor="middle" x="134.21" y="-86.69" font-family="Times,serif" font-size="14.00">136</text>
</g>
<!-- node1&#45;&gt;node136 -->
<g id="edge1" class="edge">
<title>node1&#45;&gt;node136</title>
<path fill="none" stroke="black" d="M42.06,-63.75C57.21,-68.4 80.23,-75.47 99.34,-81.34"/>
<polygon fill="black" stroke="black" points="98.31,-84.68 108.9,-84.27 100.36,-77.99 98.31,-84.68"/>
<text text-anchor="middle" x="79.47" y="-80.94" font-family="Times,serif" font-size="14.00">0.92</text>
</g>
<!-- node284 -->
<g id="node6" class="node">
<title>node284</title>
<ellipse fill="lightgray" stroke="black" cx="134.21" cy="-24.74" rx="24.74" ry="24.74"/>
<text text-anchor="middle" x="134.21" y="-19.69" font-family="Times,serif" font-size="14.00">284</text>
</g>
<!-- node1&#45;&gt;node284 -->
<g id="edge3" class="edge">
<title>node1&#45;&gt;node284</title>
<path fill="none" stroke="black" d="M42.06,-53.57C57.28,-48.76 80.44,-41.43 99.61,-35.37"/>
<polygon fill="black" stroke="black" points="100.42,-38.78 108.9,-32.43 98.31,-32.11 100.42,-38.78"/>
<text text-anchor="middle" x="79.47" y="-48.94" font-family="Times,serif" font-size="14.00">2.09</text>
</g>
<!-- node222 -->
<g id="node5" class="node">
<title>node222</title>
<ellipse fill="lightgray" stroke="black" cx="24.74" cy="-119.74" rx="24.74" ry="24.74"/>
<text text-anchor="middle" x="24.74" y="-114.69" font-family="Times,serif" font-size="14.00">222</text>
</g>
<!-- node284&#45;&gt;node171 -->
<g id="edge4" class="edge">
<title>node284&#45;&gt;node171</title>
<path fill="none" stroke="black" d="M156.27,-36.78C173.24,-46.47 197.34,-60.25 216.46,-71.18"/>
<polygon fill="black" stroke="black" points="214.49,-74.08 224.91,-76 217.96,-68 214.49,-74.08"/>
<text text-anchor="middle" x="191.2" y="-66.94" font-family="Times,serif" font-size="14.00">&#45;2.73</text>
</g>
</g>
</svg>
