<?xml version="1.0" encoding="UTF-8" standalone="no"?>
<!DOCTYPE svg PUBLIC "-//W3C//DTD SVG 1.1//EN"
 "http://www.w3.org/Graphics/SVG/1.1/DTD/svg11.dtd">
<!-- Generated by graphviz version 9.0.0 (20230911.1827)
 -->
<!-- Title: neat Pages: 1 -->
<svg width="272pt" height="131pt"
 viewBox="0.00 0.00 271.95 130.74" xmlns="http://www.w3.org/2000/svg" xmlns:xlink="http://www.w3.org/1999/xlink">
<g id="graph0" class="graph" transform="scale(1 1) rotate(0) translate(4 126.74)">
<title>neat</title>
<polygon fill="white" stroke="none" points="-4,4 -4,-126.74 267.95,-126.74 267.95,4 -4,4"/>
<!-- node0 -->
<g id="node1" class="node">
<title>node0</title>
<ellipse fill="lightblue" stroke="black" cx="18" cy="-85" rx="18" ry="18"/>
<text text-anchor="middle" x="18" y="-79.95" font-family="Times,serif" font-size="14.00">0</text>
</g>
<!-- node161 -->
<g id="node4" class="node">
<title>node161</title>
<ellipse fill="lightgray" stroke="black" cx="125.24" cy="-25" rx="24.74" ry="24.74"/>
<text text-anchor="middle" x="125.24" y="-19.95" font-family="Times,serif" font-size="14.00">161</text>
</g>
<!-- node0&#45;&gt;node161 -->
<g id="edge4" class="edge">
<title>node0&#45;&gt;node161</title>
<path fill="none" stroke="black" d="M34.08,-76.4C49.49,-67.61 73.88,-53.71 93.41,-42.58"/>
<polygon fill="black" stroke="black" points="95.11,-45.63 102.07,-37.64 91.65,-39.55 95.11,-45.63"/>
<text text-anchor="middle" x="68.25" y="-66.2" font-family="Times,serif" font-size="14.00">0.25</text>
</g>
<!-- node192 -->
<g id="node5" class="node">
<title>node192</title>
<ellipse fill="lightgray" stroke="black" cx="125.24" cy="-98" rx="24.74" ry="24.74"/>
<text text-anchor="middle" x="125.24" y="-92.95" font-family="Times,serif" font-size="14.00">192</text>
</g>
<!-- node0&#45;&gt;node192 -->
<g id="edge3" class="edge">
<title>node0&#45;&gt;node192</title>
<path fill="none" stroke="black" d="M35.91,-87.09C50.21,-88.85 71.17,-91.44 89.08,-93.66"/>
<polygon fill="black" stroke="black" points="88.46,-97.11 98.81,-94.86 89.31,-90.16 88.46,-97.11"/>
<text text-anchor="middle" x="68.25" y="-95.2" font-family="Times,serif" font-size="14.00">&#45;0.84</text>
</g>
<!-- node1 -->
<g id="node2" class="node">
<title>node1</title>
<ellipse fill="lightblue" stroke="black" cx="18" cy="-18" rx="18" ry="18"/>
<text text-anchor="middle" x="18" y="-12.95" font-family="Times,serif" font-size="14.00">1</text>
</g>
<!-- node1&#45;&gt;node161 -->
<g id="edge1" class="edge">
<title>node1&#45;&gt;node161</title>
<path fill="none" stroke="black" d="M36.27,-17.91C49.06,-17.96 66.89,-18.29 82.5,-19.5 84.69,-19.67 86.93,-19.87 89.2,-20.1"/>
<polygon fill="black" stroke="black" points="88.61,-23.56 98.94,-21.24 89.42,-16.61 88.61,-23.56"/>
<text text-anchor="middle" x="68.25" y="-23.2" font-family="Times,serif" font-size="14.00">&#45;3.95</text>
</g>
<!-- node105 -->
<g id="node3" class="node">
<title>node105</title>
<ellipse fill="lightgreen" stroke="black" cx="239.21" cy="-25" rx="24.74" ry="24.74"/>
<text text-anchor="middle" x="239.21" y="-19.95" font-family="Times,serif" font-size="14.00">105</text>
</g>
<!-- node161&#45;&gt;node105 -->
<g id="edge2" class="edge">
<title>node161&#45;&gt;node105</title>
<path fill="none" stroke="black" d="M150.26,-25C165.61,-25 185.78,-25 202.93,-25"/>
<polygon fill="black" stroke="black" points="202.72,-28.5 212.72,-25 202.72,-21.5 202.72,-28.5"/>
<text text-anchor="middle" x="182.22" y="-28.2" font-family="Times,serif" font-size="14.00">&#45;6.84</text>
</g>
</g>
</svg>
