<?xml version="1.0" encoding="UTF-8" standalone="no"?>
<!DOCTYPE svg PUBLIC "-//W3C//DTD SVG 1.1//EN"
 "http://www.w3.org/Graphics/SVG/1.1/DTD/svg11.dtd">
<!-- Generated by graphviz version 9.0.0 (20230911.1827)
 -->
<!-- Title: neat Pages: 1 -->
<svg width="281pt" height="185pt"
 viewBox="0.00 0.00 280.92 185.47" xmlns="http://www.w3.org/2000/svg" xmlns:xlink="http://www.w3.org/1999/xlink">
<g id="graph0" class="graph" transform="scale(1 1) rotate(0) translate(4 181.47)">
<title>neat</title>
<polygon fill="white" stroke="none" points="-4,4 -4,-181.47 276.92,-181.47 276.92,4 -4,4"/>
<!-- node0 -->
<g id="node1" class="node">
<title>node0</title>
<ellipse fill="lightblue" stroke="black" cx="24.74" cy="-24.74" rx="18" ry="18"/>
<text text-anchor="middle" x="24.74" y="-19.69" font-family="Times,serif" font-size="14.00">0</text>
</g>
<!-- node148 -->
<g id="node3" class="node">
<title>node148</title>
<ellipse fill="lightgreen" stroke="black" cx="138.71" cy="-24.74" rx="24.74" ry="24.74"/>
<text text-anchor="middle" x="138.71" y="-19.69" font-family="Times,serif" font-size="14.00">148</text>
</g>
<!-- node0&#45;&gt;node148 -->
<g id="edge1" class="edge">
<title>node0&#45;&gt;node148</title>
<path fill="none" stroke="black" d="M43.23,-24.74C59,-24.74 82.65,-24.74 102.34,-24.74"/>
<polygon fill="black" stroke="black" points="102.18,-28.24 112.18,-24.74 102.18,-21.24 102.18,-28.24"/>
<text text-anchor="middle" x="81.72" y="-27.94" font-family="Times,serif" font-size="14.00">&#45;0.31</text>
</g>
<!-- node1 -->
<g id="node2" class="node">
<title>node1</title>
<ellipse fill="lightblue" stroke="black" cx="24.74" cy="-91.74" rx="18" ry="18"/>
<text text-anchor="middle" x="24.74" y="-86.69" font-family="Times,serif" font-size="14.00">1</text>
</g>
<!-- node272 -->
<g id="node6" class="node">
<title>node272</title>
<ellipse fill="lightgray" stroke="black" cx="138.71" cy="-91.74" rx="24.74" ry="24.74"/>
<text text-anchor="middle" x="138.71" y="-86.69" font-family="Times,serif" font-size="14.00">272</text>
</g>
<!-- node1&#45;&gt;node272 -->
<g id="edge2" class="edge">
<title>node1&#45;&gt;node272</title>
<path fill="none" stroke="black" d="M43.23,-91.74C59,-91.74 82.65,-91.74 102.34,-91.74"/>
<polygon fill="black" stroke="black" points="102.18,-95.24 112.18,-91.74 102.18,-88.24 102.18,-95.24"/>
<text text-anchor="middle" x="81.72" y="-94.94" font-family="Times,serif" font-size="14.00">1.00</text>
</g>
<!-- node179 -->
<g id="node4" class="node">
<title>node179</title>
<ellipse fill="lightgray" stroke="black" cx="248.19" cy="-91.74" rx="24.74" ry="24.74"/>
<text text-anchor="middle" x="248.19" y="-86.69" font-family="Times,serif" font-size="14.00">179</text>
</g>
<!-- node194 -->
<g id="node5" class="node">
<title>node194</title>
<ellipse fill="lightgray" stroke="black" cx="24.74" cy="-152.74" rx="24.74" ry="24.74"/>
<text text-anchor="middle" x="24.74" y="-147.69" font-family="Times,serif" font-size="14.00">194</text>
</g>
<!-- node272&#45;&gt;node179 -->
<g id="edge3" class="edge">
<title>node272&#45;&gt;node179</title>
<path fill="none" stroke="black" d="M163.83,-91.74C177.94,-91.74 196,-91.74 211.7,-91.74"/>
<polygon fill="black" stroke="black" points="211.63,-95.24 221.63,-91.74 211.63,-88.24 211.63,-95.24"/>
<text text-anchor="middle" x="193.45" y="-94.94" font-family="Times,serif" font-size="14.00">6.04</text>
</g>
</g>
</svg>
