<?xml version="1.0" encoding="UTF-8" standalone="no"?>
<!DOCTYPE svg PUBLIC "-//W3C//DTD SVG 1.1//EN"
 "http://www.w3.org/Graphics/SVG/1.1/DTD/svg11.dtd">
<!-- Generated by graphviz version 9.0.0 (20230911.1827)
 -->
<!-- Title: neat Pages: 1 -->
<svg width="196pt" height="195pt"
 viewBox="0.00 0.00 195.61 194.81" xmlns="http://www.w3.org/2000/svg" xmlns:xlink="http://www.w3.org/1999/xlink">
<g id="graph0" class="graph" transform="scale(1 1) rotate(0) translate(4 190.81)">
<title>neat</title>
<polygon fill="white" stroke="none" points="-4,4 -4,-190.81 191.61,-190.81 191.61,4 -4,4"/>
<!-- node0 -->
<g id="node1" class="node">
<title>node0</title>
<ellipse fill="lightblue" stroke="black" cx="31.9" cy="-31.9" rx="31.9" ry="31.9"/>
<text text-anchor="middle" x="31.9" y="-26.85" font-family="Times,serif" font-size="14.00">0.000</text>
</g>
<!-- node1 -->
<g id="node2" class="node">
<title>node1</title>
<ellipse fill="lightblue" stroke="black" cx="31.9" cy="-113.9" rx="31.9" ry="31.9"/>
<text text-anchor="middle" x="31.9" y="-108.85" font-family="Times,serif" font-size="14.00">1.000</text>
</g>
<!-- node118 -->
<g id="node3" class="node">
<title>node118</title>
<ellipse fill="lightgreen" stroke="black" cx="155.71" cy="-154.9" rx="31.9" ry="31.9"/>
<text text-anchor="middle" x="155.71" y="-149.85" font-family="Times,serif" font-size="14.00">0.999</text>
</g>
<!-- node1&#45;&gt;node118 -->
<g id="edge1" class="edge">
<title>node1&#45;&gt;node118</title>
<path fill="none" stroke="black" d="M62.7,-123.93C78.3,-129.18 97.62,-135.69 114.52,-141.38"/>
<polygon fill="black" stroke="black" points="113.19,-144.62 123.78,-144.49 115.42,-137.99 113.19,-144.62"/>
<text text-anchor="middle" x="93.81" y="-141.1" font-family="Times,serif" font-size="14.00">1.38</text>
</g>
<!-- node169 -->
<g id="node4" class="node">
<title>node169</title>
<ellipse fill="lightgray" stroke="black" cx="155.71" cy="-72.9" rx="31.9" ry="31.9"/>
<text text-anchor="middle" x="155.71" y="-67.85" font-family="Times,serif" font-size="14.00">1.000</text>
</g>
<!-- node1&#45;&gt;node169 -->
<g id="edge2" class="edge">
<title>node1&#45;&gt;node169</title>
<path fill="none" stroke="black" d="M62.7,-103.87C78.3,-98.62 97.62,-92.12 114.52,-86.43"/>
<polygon fill="black" stroke="black" points="115.42,-89.82 123.78,-83.31 113.19,-83.18 115.42,-89.82"/>
<text text-anchor="middle" x="93.81" y="-101.1" font-family="Times,serif" font-size="14.00">3.23</text>
</g>
</g>
</svg>
