<?xml version="1.0" encoding="UTF-8" standalone="no"?>
<!DOCTYPE svg PUBLIC "-//W3C//DTD SVG 1.1//EN"
 "http://www.w3.org/Graphics/SVG/1.1/DTD/svg11.dtd">
<!-- Generated by graphviz version 9.0.0 (20230911.1827)
 -->
<!-- Title: neat Pages: 1 -->
<svg width="267pt" height="179pt"
 viewBox="0.00 0.00 267.45 178.74" xmlns="http://www.w3.org/2000/svg" xmlns:xlink="http://www.w3.org/1999/xlink">
<g id="graph0" class="graph" transform="scale(1 1) rotate(0) translate(4 174.74)">
<title>neat</title>
<polygon fill="white" stroke="none" points="-4,4 -4,-174.74 263.45,-174.74 263.45,4 -4,4"/>
<!-- node0 -->
<g id="node1" class="node">
<title>node0</title>
<ellipse fill="lightblue" stroke="black" cx="120.74" cy="-152.74" rx="18" ry="18"/>
<text text-anchor="middle" x="120.74" y="-147.69" font-family="Times,serif" font-size="14.00">0</text>
</g>
<!-- node141 -->
<g id="node3" class="node">
<title>node141</title>
<ellipse fill="lightgreen" stroke="black" cx="234.71" cy="-91.74" rx="24.74" ry="24.74"/>
<text text-anchor="middle" x="234.71" y="-86.69" font-family="Times,serif" font-size="14.00">141</text>
</g>
<!-- node0&#45;&gt;node141 -->
<g id="edge1" class="edge">
<title>node0&#45;&gt;node141</title>
<path fill="none" stroke="black" d="M136.84,-144.51C153.56,-135.4 180.99,-120.46 202.4,-108.8"/>
<polygon fill="black" stroke="black" points="203.92,-111.96 211.02,-104.1 200.57,-105.81 203.92,-111.96"/>
<text text-anchor="middle" x="177.72" y="-131.94" font-family="Times,serif" font-size="14.00">&#45;1.23</text>
</g>
<!-- node1 -->
<g id="node2" class="node">
<title>node1</title>
<ellipse fill="lightblue" stroke="black" cx="18" cy="-57.74" rx="18" ry="18"/>
<text text-anchor="middle" x="18" y="-52.69" font-family="Times,serif" font-size="14.00">1</text>
</g>
<!-- node159 -->
<g id="node4" class="node">
<title>node159</title>
<ellipse fill="lightgray" stroke="black" cx="120.74" cy="-91.74" rx="24.74" ry="24.74"/>
<text text-anchor="middle" x="120.74" y="-86.69" font-family="Times,serif" font-size="14.00">159</text>
</g>
<!-- node1&#45;&gt;node159 -->
<g id="edge2" class="edge">
<title>node1&#45;&gt;node159</title>
<path fill="none" stroke="black" d="M35.19,-63.2C48.87,-67.82 68.94,-74.59 86.08,-80.38"/>
<polygon fill="black" stroke="black" points="84.81,-83.64 95.4,-83.52 87.05,-77.01 84.81,-83.64"/>
<text text-anchor="middle" x="66" y="-80.94" font-family="Times,serif" font-size="14.00">3.21</text>
</g>
<!-- node211 -->
<g id="node5" class="node">
<title>node211</title>
<ellipse fill="lightgray" stroke="black" cx="120.74" cy="-24.74" rx="24.74" ry="24.74"/>
<text text-anchor="middle" x="120.74" y="-19.69" font-family="Times,serif" font-size="14.00">211</text>
</g>
<!-- node1&#45;&gt;node211 -->
<g id="edge4" class="edge">
<title>node1&#45;&gt;node211</title>
<path fill="none" stroke="black" d="M35.38,-52.35C41.25,-50.42 47.92,-48.23 54,-46.24 64.47,-42.8 75.89,-39.07 86.22,-35.69"/>
<polygon fill="black" stroke="black" points="87.06,-39.1 95.48,-32.66 84.89,-32.44 87.06,-39.1"/>
<text text-anchor="middle" x="66" y="-49.94" font-family="Times,serif" font-size="14.00">1.00</text>
</g>
<!-- node159&#45;&gt;node141 -->
<g id="edge3" class="edge">
<title>node159&#45;&gt;node141</title>
<path fill="none" stroke="black" d="M145.76,-91.74C161.11,-91.74 181.28,-91.74 198.43,-91.74"/>
<polygon fill="black" stroke="black" points="198.22,-95.24 208.22,-91.74 198.22,-88.24 198.22,-95.24"/>
<text text-anchor="middle" x="177.72" y="-94.94" font-family="Times,serif" font-size="14.00">&#45;3.89</text>
</g>
<!-- node211&#45;&gt;node141 -->
<g id="edge5" class="edge">
<title>node211&#45;&gt;node141</title>
<path fill="none" stroke="black" d="M142.54,-37.18C159.58,-47.38 183.95,-61.96 203.21,-73.49"/>
<polygon fill="black" stroke="black" points="201.35,-76.45 211.73,-78.58 204.94,-70.44 201.35,-76.45"/>
<text text-anchor="middle" x="177.72" y="-69.94" font-family="Times,serif" font-size="14.00">&#45;2.19</text>
</g>
</g>
</svg>
