<?xml version="1.0" encoding="UTF-8" standalone="no"?>
<!DOCTYPE svg PUBLIC "-//W3C//DTD SVG 1.1//EN"
 "http://www.w3.org/Graphics/SVG/1.1/DTD/svg11.dtd">
<!-- Generated by graphviz version 9.0.0 (20230911.1827)
 -->
<!-- Title: neat Pages: 1 -->
<svg width="167pt" height="248pt"
 viewBox="0.00 0.00 166.95 248.47" xmlns="http://www.w3.org/2000/svg" xmlns:xlink="http://www.w3.org/1999/xlink">
<g id="graph0" class="graph" transform="scale(1 1) rotate(0) translate(4 244.47)">
<title>neat</title>
<polygon fill="white" stroke="none" points="-4,4 -4,-244.47 162.95,-244.47 162.95,4 -4,4"/>
<!-- node0 -->
<g id="node1" class="node">
<title>node0</title>
<ellipse fill="lightblue" stroke="black" cx="24.74" cy="-24.74" rx="18" ry="18"/>
<text text-anchor="middle" x="24.74" y="-19.69" font-family="Times,serif" font-size="14.00">0</text>
</g>
<!-- node278 -->
<g id="node6" class="node">
<title>node278</title>
<ellipse fill="lightgray" stroke="black" cx="134.21" cy="-24.74" rx="24.74" ry="24.74"/>
<text text-anchor="middle" x="134.21" y="-19.69" font-family="Times,serif" font-size="14.00">278</text>
</g>
<!-- node0&#45;&gt;node278 -->
<g id="edge1" class="edge">
<title>node0&#45;&gt;node278</title>
<path fill="none" stroke="black" d="M43.01,-24.74C57.7,-24.74 79.3,-24.74 97.67,-24.74"/>
<polygon fill="black" stroke="black" points="97.66,-28.24 107.66,-24.74 97.66,-21.24 97.66,-28.24"/>
<text text-anchor="middle" x="79.47" y="-27.94" font-family="Times,serif" font-size="14.00">1.00</text>
</g>
<!-- node1 -->
<g id="node2" class="node">
<title>node1</title>
<ellipse fill="lightblue" stroke="black" cx="24.74" cy="-87.74" rx="18" ry="18"/>
<text text-anchor="middle" x="24.74" y="-82.69" font-family="Times,serif" font-size="14.00">1</text>
</g>
<!-- node45 -->
<g id="node3" class="node">
<title>node45</title>
<ellipse fill="lightgreen" stroke="black" cx="134.21" cy="-87.74" rx="20.13" ry="20.13"/>
<text text-anchor="middle" x="134.21" y="-82.69" font-family="Times,serif" font-size="14.00">45</text>
</g>
<!-- node1&#45;&gt;node45 -->
<g id="edge2" class="edge">
<title>node1&#45;&gt;node45</title>
<path fill="none" stroke="black" d="M43.01,-87.74C59.02,-87.74 83.23,-87.74 102.54,-87.74"/>
<polygon fill="black" stroke="black" points="102.29,-91.24 112.29,-87.74 102.29,-84.24 102.29,-91.24"/>
<text text-anchor="middle" x="79.47" y="-90.94" font-family="Times,serif" font-size="14.00">0.03</text>
</g>
<!-- node163 -->
<g id="node4" class="node">
<title>node163</title>
<ellipse fill="lightgray" stroke="black" cx="24.74" cy="-148.74" rx="24.74" ry="24.74"/>
<text text-anchor="middle" x="24.74" y="-143.69" font-family="Times,serif" font-size="14.00">163</text>
</g>
<!-- node213 -->
<g id="node5" class="node">
<title>node213</title>
<ellipse fill="lightgray" stroke="black" cx="24.74" cy="-215.74" rx="24.74" ry="24.74"/>
<text text-anchor="middle" x="24.74" y="-210.69" font-family="Times,serif" font-size="14.00">213</text>
</g>
</g>
</svg>
