<?xml version="1.0" encoding="UTF-8" standalone="no"?>
<!DOCTYPE svg PUBLIC "-//W3C//DTD SVG 1.1//EN"
 "http://www.w3.org/Graphics/SVG/1.1/DTD/svg11.dtd">
<!-- Generated by graphviz version 9.0.0 (20230911.1827)
 -->
<!-- Title: neat Pages: 1 -->
<svg width="381pt" height="144pt"
 viewBox="0.00 0.00 381.42 143.50" xmlns="http://www.w3.org/2000/svg" xmlns:xlink="http://www.w3.org/1999/xlink">
<g id="graph0" class="graph" transform="scale(1 1) rotate(0) translate(4 139.5)">
<title>neat</title>
<polygon fill="white" stroke="none" points="-4,4 -4,-139.5 377.42,-139.5 377.42,4 -4,4"/>
<!-- node0 -->
<g id="node1" class="node">
<title>node0</title>
<ellipse fill="lightblue" stroke="black" cx="18" cy="-18" rx="18" ry="18"/>
<text text-anchor="middle" x="18" y="-12.95" font-family="Times,serif" font-size="14.00">0</text>
</g>
<!-- node233 -->
<g id="node5" class="node">
<title>node233</title>
<ellipse fill="lightgray" stroke="black" cx="125.24" cy="-26" rx="24.74" ry="24.74"/>
<text text-anchor="middle" x="125.24" y="-20.95" font-family="Times,serif" font-size="14.00">233</text>
</g>
<!-- node0&#45;&gt;node233 -->
<g id="edge4" class="edge">
<title>node0&#45;&gt;node233</title>
<path fill="none" stroke="black" d="M36.28,-17.8C49.07,-17.8 66.9,-18.11 82.5,-19.5 84.69,-19.7 86.94,-19.93 89.21,-20.2"/>
<polygon fill="black" stroke="black" points="88.58,-23.65 98.97,-21.54 89.53,-16.72 88.58,-23.65"/>
<text text-anchor="middle" x="68.25" y="-23.2" font-family="Times,serif" font-size="14.00">&#45;0.64</text>
</g>
<!-- node1 -->
<g id="node2" class="node">
<title>node1</title>
<ellipse fill="lightblue" stroke="black" cx="18" cy="-90" rx="18" ry="18"/>
<text text-anchor="middle" x="18" y="-84.95" font-family="Times,serif" font-size="14.00">1</text>
</g>
<!-- node136 -->
<g id="node3" class="node">
<title>node136</title>
<ellipse fill="lightgreen" stroke="black" cx="348.69" cy="-82" rx="24.74" ry="24.74"/>
<text text-anchor="middle" x="348.69" y="-76.95" font-family="Times,serif" font-size="14.00">136</text>
</g>
<!-- node1&#45;&gt;node136 -->
<g id="edge1" class="edge">
<title>node1&#45;&gt;node136</title>
<path fill="none" stroke="black" d="M35.17,-96.38C41.02,-98.47 47.73,-100.61 54,-102 74.29,-106.51 79.8,-105.07 100.5,-107 172.94,-113.75 192.01,-126.88 263.95,-116 282.1,-113.26 301.15,-105.92 316.49,-98.76"/>
<polygon fill="black" stroke="black" points="317.65,-102.09 325.1,-94.55 314.57,-95.8 317.65,-102.09"/>
<text text-anchor="middle" x="182.22" y="-122.2" font-family="Times,serif" font-size="14.00">2.47</text>
</g>
<!-- node171 -->
<g id="node4" class="node">
<title>node171</title>
<ellipse fill="lightgray" stroke="black" cx="239.21" cy="-82" rx="24.74" ry="24.74"/>
<text text-anchor="middle" x="239.21" y="-76.95" font-family="Times,serif" font-size="14.00">171</text>
</g>
<!-- node1&#45;&gt;node171 -->
<g id="edge3" class="edge">
<title>node1&#45;&gt;node171</title>
<path fill="none" stroke="black" d="M36.2,-89.37C72.02,-88.06 155.26,-85.03 202.95,-83.29"/>
<polygon fill="black" stroke="black" points="202.89,-86.79 212.75,-82.93 202.63,-79.8 202.89,-86.79"/>
<text text-anchor="middle" x="125.24" y="-89.2" font-family="Times,serif" font-size="14.00">2.49</text>
</g>
<!-- node1&#45;&gt;node233 -->
<g id="edge7" class="edge">
<title>node1&#45;&gt;node233</title>
<path fill="none" stroke="black" d="M31.62,-77.52C37.99,-71.61 46.05,-64.72 54,-59.5 65.7,-51.82 79.44,-44.86 91.65,-39.31"/>
<polygon fill="black" stroke="black" points="92.77,-42.64 100.51,-35.41 89.95,-36.23 92.77,-42.64"/>
<text text-anchor="middle" x="68.25" y="-62.2" font-family="Times,serif" font-size="14.00">&#45;0.53</text>
</g>
<!-- node171&#45;&gt;node136 -->
<g id="edge2" class="edge">
<title>node171&#45;&gt;node136</title>
<path fill="none" stroke="black" d="M264.33,-82C278.44,-82 296.5,-82 312.2,-82"/>
<polygon fill="black" stroke="black" points="312.13,-85.5 322.13,-82 312.13,-78.5 312.13,-85.5"/>
<text text-anchor="middle" x="293.95" y="-85.2" font-family="Times,serif" font-size="14.00">1.22</text>
</g>
<!-- node233&#45;&gt;node136 -->
<g id="edge6" class="edge">
<title>node233&#45;&gt;node136</title>
<path fill="none" stroke="black" d="M150.22,-23.41C178.17,-21.19 225.44,-19.96 263.95,-31.5 284.01,-37.52 304.19,-49.46 319.71,-60.23"/>
<polygon fill="black" stroke="black" points="317.34,-62.83 327.5,-65.83 321.42,-57.15 317.34,-62.83"/>
<text text-anchor="middle" x="239.21" y="-35.2" font-family="Times,serif" font-size="14.00">1.30</text>
</g>
<!-- node233&#45;&gt;node171 -->
<g id="edge5" class="edge">
<title>node233&#45;&gt;node171</title>
<path fill="none" stroke="black" d="M148.2,-36.14C162.12,-42.64 180.45,-51.37 196.47,-59.5 199.96,-61.27 203.58,-63.15 207.18,-65.05"/>
<polygon fill="black" stroke="black" points="205.28,-68.01 215.75,-69.64 208.58,-61.83 205.28,-68.01"/>
<text text-anchor="middle" x="182.22" y="-62.2" font-family="Times,serif" font-size="14.00">&#45;1.62</text>
</g>
</g>
</svg>
