<?xml version="1.0" encoding="UTF-8" standalone="no"?>
<!DOCTYPE svg PUBLIC "-//W3C//DTD SVG 1.1//EN"
 "http://www.w3.org/Graphics/SVG/1.1/DTD/svg11.dtd">
<!-- Generated by graphviz version 9.0.0 (20230911.1827)
 -->
<!-- Title: neat Pages: 1 -->
<svg width="267pt" height="179pt"
 viewBox="0.00 0.00 267.45 178.74" xmlns="http://www.w3.org/2000/svg" xmlns:xlink="http://www.w3.org/1999/xlink">
<g id="graph0" class="graph" transform="scale(1 1) rotate(0) translate(4 174.74)">
<title>neat</title>
<polygon fill="white" stroke="none" points="-4,4 -4,-174.74 263.45,-174.74 263.45,4 -4,4"/>
<!-- node0 -->
<g id="node1" class="node">
<title>node0</title>
<ellipse fill="lightblue" stroke="black" cx="120.74" cy="-152.74" rx="18" ry="18"/>
<text text-anchor="middle" x="120.74" y="-147.69" font-family="Times,serif" font-size="14.00">0</text>
</g>
<!-- node141 -->
<g id="node3" class="node">
<title>node141</title>
<ellipse fill="lightgreen" stroke="black" cx="234.71" cy="-122.74" rx="24.74" ry="24.74"/>
<text text-anchor="middle" x="234.71" y="-117.69" font-family="Times,serif" font-size="14.00">141</text>
</g>
<!-- node0&#45;&gt;node141 -->
<g id="edge4" class="edge">
<title>node0&#45;&gt;node141</title>
<path fill="none" stroke="black" d="M138.26,-148.31C154.3,-144.01 179.14,-137.36 199.46,-131.91"/>
<polygon fill="black" stroke="black" points="200.28,-135.32 209.04,-129.35 198.47,-128.56 200.28,-135.32"/>
<text text-anchor="middle" x="177.72" y="-143.94" font-family="Times,serif" font-size="14.00">0.21</text>
</g>
<!-- node1 -->
<g id="node2" class="node">
<title>node1</title>
<ellipse fill="lightblue" stroke="black" cx="18" cy="-44.74" rx="18" ry="18"/>
<text text-anchor="middle" x="18" y="-39.69" font-family="Times,serif" font-size="14.00">1</text>
</g>
<!-- node159 -->
<g id="node4" class="node">
<title>node159</title>
<ellipse fill="lightgray" stroke="black" cx="120.74" cy="-91.74" rx="24.74" ry="24.74"/>
<text text-anchor="middle" x="120.74" y="-86.69" font-family="Times,serif" font-size="14.00">159</text>
</g>
<!-- node1&#45;&gt;node159 -->
<g id="edge1" class="edge">
<title>node1&#45;&gt;node159</title>
<path fill="none" stroke="black" d="M34.74,-52.08C48.76,-58.62 69.73,-68.4 87.32,-76.61"/>
<polygon fill="black" stroke="black" points="85.84,-79.78 96.38,-80.84 88.8,-73.44 85.84,-79.78"/>
<text text-anchor="middle" x="66" y="-73.94" font-family="Times,serif" font-size="14.00">4.16</text>
</g>
<!-- node211 -->
<g id="node5" class="node">
<title>node211</title>
<ellipse fill="lightgray" stroke="black" cx="120.74" cy="-24.74" rx="24.74" ry="24.74"/>
<text text-anchor="middle" x="120.74" y="-19.69" font-family="Times,serif" font-size="14.00">211</text>
</g>
<!-- node1&#45;&gt;node211 -->
<g id="edge3" class="edge">
<title>node1&#45;&gt;node211</title>
<path fill="none" stroke="black" d="M36.09,-41.34C49.5,-38.68 68.6,-34.89 85.17,-31.6"/>
<polygon fill="black" stroke="black" points="85.52,-35.1 94.65,-29.72 84.16,-28.23 85.52,-35.1"/>
<text text-anchor="middle" x="66" y="-40.94" font-family="Times,serif" font-size="14.00">0.41</text>
</g>
<!-- node159&#45;&gt;node141 -->
<g id="edge2" class="edge">
<title>node159&#45;&gt;node141</title>
<path fill="none" stroke="black" d="M144.94,-98.16C160.7,-102.52 181.82,-108.37 199.51,-113.27"/>
<polygon fill="black" stroke="black" points="198.51,-116.62 209.08,-115.92 200.38,-109.88 198.51,-116.62"/>
<text text-anchor="middle" x="177.72" y="-113.94" font-family="Times,serif" font-size="14.00">&#45;5.84</text>
</g>
</g>
</svg>
