<?xml version="1.0" encoding="UTF-8" standalone="no"?>
<!DOCTYPE svg PUBLIC "-//W3C//DTD SVG 1.1//EN"
 "http://www.w3.org/Graphics/SVG/1.1/DTD/svg11.dtd">
<!-- Generated by graphviz version 9.0.0 (20230911.1827)
 -->
<!-- Title: neat Pages: 1 -->
<svg width="324pt" height="154pt"
 viewBox="0.00 0.00 323.92 153.81" xmlns="http://www.w3.org/2000/svg" xmlns:xlink="http://www.w3.org/1999/xlink">
<g id="graph0" class="graph" transform="scale(1 1) rotate(0) translate(4 149.81)">
<title>neat</title>
<polygon fill="white" stroke="none" points="-4,4 -4,-149.81 319.92,-149.81 319.92,4 -4,4"/>
<!-- node0 -->
<g id="node1" class="node">
<title>node0</title>
<ellipse fill="lightblue" stroke="black" cx="31.9" cy="-113.9" rx="31.9" ry="31.9"/>
<text text-anchor="middle" x="31.9" y="-108.85" font-family="Times,serif" font-size="14.00">0.000</text>
</g>
<!-- node166 -->
<g id="node4" class="node">
<title>node166</title>
<ellipse fill="lightgray" stroke="black" cx="160.21" cy="-113.9" rx="31.9" ry="31.9"/>
<text text-anchor="middle" x="160.21" y="-108.85" font-family="Times,serif" font-size="14.00">0.500</text>
</g>
<!-- node0&#45;&gt;node166 -->
<g id="edge1" class="edge">
<title>node0&#45;&gt;node166</title>
<path fill="none" stroke="black" d="M64.12,-113.9C79.91,-113.9 99.31,-113.9 116.47,-113.9"/>
<polygon fill="black" stroke="black" points="116.39,-117.4 126.39,-113.9 116.39,-110.4 116.39,-117.4"/>
<text text-anchor="middle" x="96.06" y="-117.1" font-family="Times,serif" font-size="14.00">&#45;0.05</text>
</g>
<!-- node1 -->
<g id="node2" class="node">
<title>node1</title>
<ellipse fill="lightblue" stroke="black" cx="31.9" cy="-31.9" rx="31.9" ry="31.9"/>
<text text-anchor="middle" x="31.9" y="-26.85" font-family="Times,serif" font-size="14.00">1.000</text>
</g>
<!-- node191 -->
<g id="node5" class="node">
<title>node191</title>
<ellipse fill="lightgray" stroke="black" cx="160.21" cy="-31.9" rx="31.9" ry="31.9"/>
<text text-anchor="middle" x="160.21" y="-26.85" font-family="Times,serif" font-size="14.00">0.993</text>
</g>
<!-- node1&#45;&gt;node191 -->
<g id="edge3" class="edge">
<title>node1&#45;&gt;node191</title>
<path fill="none" stroke="black" d="M64.12,-31.9C79.91,-31.9 99.31,-31.9 116.47,-31.9"/>
<polygon fill="black" stroke="black" points="116.39,-35.4 126.39,-31.9 116.39,-28.4 116.39,-35.4"/>
<text text-anchor="middle" x="96.06" y="-35.1" font-family="Times,serif" font-size="14.00">1.00</text>
</g>
<!-- node73 -->
<g id="node3" class="node">
<title>node73</title>
<ellipse fill="lightgreen" stroke="black" cx="284.01" cy="-72.9" rx="31.9" ry="31.9"/>
<text text-anchor="middle" x="284.01" y="-67.85" font-family="Times,serif" font-size="14.00">1.000</text>
</g>
<!-- node166&#45;&gt;node73 -->
<g id="edge2" class="edge">
<title>node166&#45;&gt;node73</title>
<path fill="none" stroke="black" d="M191.01,-103.87C206.6,-98.62 225.93,-92.12 242.83,-86.43"/>
<polygon fill="black" stroke="black" points="243.73,-89.82 252.09,-83.31 241.5,-83.18 243.73,-89.82"/>
<text text-anchor="middle" x="222.11" y="-100.1" font-family="Times,serif" font-size="14.00">3.37</text>
</g>
<!-- node191&#45;&gt;node73 -->
<g id="edge4" class="edge">
<title>node191&#45;&gt;node73</title>
<path fill="none" stroke="black" d="M191.01,-41.93C206.6,-47.18 225.93,-53.69 242.83,-59.38"/>
<polygon fill="black" stroke="black" points="241.5,-62.62 252.09,-62.49 243.73,-55.99 241.5,-62.62"/>
<text text-anchor="middle" x="222.11" y="-60.1" font-family="Times,serif" font-size="14.00">0.77</text>
</g>
</g>
</svg>
