<?xml version="1.0" encoding="UTF-8" standalone="no"?>
<!DOCTYPE svg PUBLIC "-//W3C//DTD SVG 1.1//EN"
 "http://www.w3.org/Graphics/SVG/1.1/DTD/svg11.dtd">
<!-- Generated by graphviz version 9.0.0 (20230911.1827)
 -->
<!-- Title: neat Pages: 1 -->
<svg width="340pt" height="1264pt"
 viewBox="0.00 0.00 340.11 1264.00" xmlns="http://www.w3.org/2000/svg" xmlns:xlink="http://www.w3.org/1999/xlink">
<g id="graph0" class="graph" transform="scale(1 1) rotate(0) translate(4 1260)">
<title>neat</title>
<polygon fill="white" stroke="none" points="-4,4 -4,-1260 336.11,-1260 336.11,4 -4,4"/>
<g id="clust1" class="cluster">
<title>cluster_0</title>
<path fill="none" stroke="gray" d="M20,-8C20,-8 312.11,-8 312.11,-8 318.11,-8 324.11,-14 324.11,-20 324.11,-20 324.11,-300 324.11,-300 324.11,-306 318.11,-312 312.11,-312 312.11,-312 20,-312 20,-312 14,-312 8,-306 8,-300 8,-300 8,-20 8,-20 8,-14 14,-8 20,-8"/>
<text text-anchor="middle" x="166.06" y="-294.7" font-family="Times,serif" font-size="14.00">Test 0,0 → 0</text>
</g>
<g id="clust2" class="cluster">
<title>cluster_1</title>
<path fill="none" stroke="gray" d="M20,-320C20,-320 312.11,-320 312.11,-320 318.11,-320 324.11,-326 324.11,-332 324.11,-332 324.11,-612 324.11,-612 324.11,-618 318.11,-624 312.11,-624 312.11,-624 20,-624 20,-624 14,-624 8,-618 8,-612 8,-612 8,-332 8,-332 8,-326 14,-320 20,-320"/>
<text text-anchor="middle" x="166.06" y="-606.7" font-family="Times,serif" font-size="14.00">Test 0,1 → 1</text>
</g>
<g id="clust3" class="cluster">
<title>cluster_2</title>
<path fill="none" stroke="gray" d="M20,-632C20,-632 312.11,-632 312.11,-632 318.11,-632 324.11,-638 324.11,-644 324.11,-644 324.11,-924 324.11,-924 324.11,-930 318.11,-936 312.11,-936 312.11,-936 20,-936 20,-936 14,-936 8,-930 8,-924 8,-924 8,-644 8,-644 8,-638 14,-632 20,-632"/>
<text text-anchor="middle" x="166.06" y="-918.7" font-family="Times,serif" font-size="14.00">Test 1,0 → 1</text>
</g>
<g id="clust4" class="cluster">
<title>cluster_3</title>
<path fill="none" stroke="gray" d="M20,-944C20,-944 312.11,-944 312.11,-944 318.11,-944 324.11,-950 324.11,-956 324.11,-956 324.11,-1236 324.11,-1236 324.11,-1242 318.11,-1248 312.11,-1248 312.11,-1248 20,-1248 20,-1248 14,-1248 8,-1242 8,-1236 8,-1236 8,-956 8,-956 8,-950 14,-944 20,-944"/>
<text text-anchor="middle" x="166.06" y="-1230.7" font-family="Times,serif" font-size="14.00">Test 1,1 → 0</text>
</g>
<!-- node0_0 -->
<g id="node1" class="node">
<title>node0_0</title>
<ellipse fill="lightblue" stroke="black" cx="47.9" cy="-248" rx="31.9" ry="31.9"/>
<text text-anchor="middle" x="47.9" y="-242.95" font-family="Times,serif" font-size="14.00">0.000</text>
</g>
<!-- node39_0 -->
<g id="node3" class="node">
<title>node39_0</title>
<ellipse fill="lightgreen" stroke="black" cx="284.21" cy="-240" rx="31.9" ry="31.9"/>
<text text-anchor="middle" x="284.21" y="-234.95" font-family="Times,serif" font-size="14.00">0.500</text>
</g>
<!-- node0_0&#45;&gt;node39_0 -->
<g id="edge1" class="edge">
<title>node0_0&#45;&gt;node39_0</title>
<path fill="none" stroke="black" d="M80.02,-246.94C121.24,-245.53 194.15,-243.04 240.5,-241.46"/>
<polygon fill="black" stroke="black" points="240.58,-244.96 250.45,-241.12 240.34,-237.96 240.58,-244.96"/>
<text text-anchor="middle" x="166.06" y="-247.2" font-family="Times,serif" font-size="14.00">&#45;0.21</text>
</g>
<!-- node1_0 -->
<g id="node2" class="node">
<title>node1_0</title>
<ellipse fill="lightblue" stroke="black" cx="47.9" cy="-148" rx="31.9" ry="31.9"/>
<text text-anchor="middle" x="47.9" y="-142.95" font-family="Times,serif" font-size="14.00">0.000</text>
</g>
<!-- node1_0&#45;&gt;node39_0 -->
<g id="edge3" class="edge">
<title>node1_0&#45;&gt;node39_0</title>
<path fill="none" stroke="black" d="M78.1,-159.47C119.78,-175.83 196.47,-205.94 243.34,-224.35"/>
<polygon fill="black" stroke="black" points="242.01,-227.58 252.6,-227.98 244.57,-221.07 242.01,-227.58"/>
<text text-anchor="middle" x="166.06" y="-202.2" font-family="Times,serif" font-size="14.00">&#45;1.65</text>
</g>
<!-- node181_0 -->
<g id="node5" class="node">
<title>node181_0</title>
<ellipse fill="lightgray" stroke="black" cx="284.21" cy="-132" rx="31.9" ry="31.9"/>
<text text-anchor="middle" x="284.21" y="-126.95" font-family="Times,serif" font-size="14.00">0.500</text>
</g>
<!-- node1_0&#45;&gt;node181_0 -->
<g id="edge2" class="edge">
<title>node1_0&#45;&gt;node181_0</title>
<path fill="none" stroke="black" d="M79.31,-140.69C99.68,-136.17 127.18,-130.81 151.81,-128.5 181.46,-125.72 215.03,-126.68 240.82,-128.29"/>
<polygon fill="black" stroke="black" points="240.35,-131.77 250.56,-128.97 240.83,-124.79 240.35,-131.77"/>
<text text-anchor="middle" x="166.06" y="-131.2" font-family="Times,serif" font-size="14.00">1.00</text>
</g>
<!-- node161_0 -->
<g id="node4" class="node">
<title>node161_0</title>
<ellipse fill="lightgray" stroke="black" cx="47.9" cy="-48" rx="31.9" ry="31.9"/>
<text text-anchor="middle" x="47.9" y="-42.95" font-family="Times,serif" font-size="14.00">0.500</text>
</g>
<!-- node0_1 -->
<g id="node6" class="node">
<title>node0_1</title>
<ellipse fill="lightblue" stroke="black" cx="47.9" cy="-560" rx="31.9" ry="31.9"/>
<text text-anchor="middle" x="47.9" y="-554.95" font-family="Times,serif" font-size="14.00">0.000</text>
</g>
<!-- node39_1 -->
<g id="node8" class="node">
<title>node39_1</title>
<ellipse fill="lightgreen" stroke="black" cx="284.21" cy="-552" rx="31.9" ry="31.9"/>
<text text-anchor="middle" x="284.21" y="-546.95" font-family="Times,serif" font-size="14.00">0.000</text>
</g>
<!-- node0_1&#45;&gt;node39_1 -->
<g id="edge4" class="edge">
<title>node0_1&#45;&gt;node39_1</title>
<path fill="none" stroke="black" d="M80.02,-558.94C121.24,-557.53 194.15,-555.04 240.5,-553.46"/>
<polygon fill="black" stroke="black" points="240.58,-556.96 250.45,-553.12 240.34,-549.96 240.58,-556.96"/>
<text text-anchor="middle" x="166.06" y="-559.2" font-family="Times,serif" font-size="14.00">&#45;0.21</text>
</g>
<!-- node1_1 -->
<g id="node7" class="node">
<title>node1_1</title>
<ellipse fill="lightblue" stroke="black" cx="47.9" cy="-460" rx="31.9" ry="31.9"/>
<text text-anchor="middle" x="47.9" y="-454.95" font-family="Times,serif" font-size="14.00">1.000</text>
</g>
<!-- node1_1&#45;&gt;node39_1 -->
<g id="edge6" class="edge">
<title>node1_1&#45;&gt;node39_1</title>
<path fill="none" stroke="black" d="M78.1,-471.47C119.78,-487.83 196.47,-517.94 243.34,-536.35"/>
<polygon fill="black" stroke="black" points="242.01,-539.58 252.6,-539.98 244.57,-533.07 242.01,-539.58"/>
<text text-anchor="middle" x="166.06" y="-514.2" font-family="Times,serif" font-size="14.00">&#45;1.65</text>
</g>
<!-- node181_1 -->
<g id="node10" class="node">
<title>node181_1</title>
<ellipse fill="lightgray" stroke="black" cx="284.21" cy="-444" rx="31.9" ry="31.9"/>
<text text-anchor="middle" x="284.21" y="-438.95" font-family="Times,serif" font-size="14.00">0.993</text>
</g>
<!-- node1_1&#45;&gt;node181_1 -->
<g id="edge5" class="edge">
<title>node1_1&#45;&gt;node181_1</title>
<path fill="none" stroke="black" d="M79.31,-452.69C99.68,-448.17 127.18,-442.81 151.81,-440.5 181.46,-437.72 215.03,-438.68 240.82,-440.29"/>
<polygon fill="black" stroke="black" points="240.35,-443.77 250.56,-440.97 240.83,-436.79 240.35,-443.77"/>
<text text-anchor="middle" x="166.06" y="-443.2" font-family="Times,serif" font-size="14.00">1.00</text>
</g>
<!-- node161_1 -->
<g id="node9" class="node">
<title>node161_1</title>
<ellipse fill="lightgray" stroke="black" cx="47.9" cy="-360" rx="31.9" ry="31.9"/>
<text text-anchor="middle" x="47.9" y="-354.95" font-family="Times,serif" font-size="14.00">0.500</text>
</g>
<!-- node0_2 -->
<g id="node11" class="node">
<title>node0_2</title>
<ellipse fill="lightblue" stroke="black" cx="47.9" cy="-872" rx="31.9" ry="31.9"/>
<text text-anchor="middle" x="47.9" y="-866.95" font-family="Times,serif" font-size="14.00">1.000</text>
</g>
<!-- node39_2 -->
<g id="node13" class="node">
<title>node39_2</title>
<ellipse fill="lightgreen" stroke="black" cx="284.21" cy="-864" rx="31.9" ry="31.9"/>
<text text-anchor="middle" x="284.21" y="-858.95" font-family="Times,serif" font-size="14.00">0.261</text>
</g>
<!-- node0_2&#45;&gt;node39_2 -->
<g id="edge7" class="edge">
<title>node0_2&#45;&gt;node39_2</title>
<path fill="none" stroke="black" d="M80.02,-870.94C121.24,-869.53 194.15,-867.04 240.5,-865.46"/>
<polygon fill="black" stroke="black" points="240.58,-868.96 250.45,-865.12 240.34,-861.96 240.58,-868.96"/>
<text text-anchor="middle" x="166.06" y="-871.2" font-family="Times,serif" font-size="14.00">&#45;0.21</text>
</g>
<!-- node1_2 -->
<g id="node12" class="node">
<title>node1_2</title>
<ellipse fill="lightblue" stroke="black" cx="47.9" cy="-772" rx="31.9" ry="31.9"/>
<text text-anchor="middle" x="47.9" y="-766.95" font-family="Times,serif" font-size="14.00">0.000</text>
</g>
<!-- node1_2&#45;&gt;node39_2 -->
<g id="edge9" class="edge">
<title>node1_2&#45;&gt;node39_2</title>
<path fill="none" stroke="black" d="M78.1,-783.47C119.78,-799.83 196.47,-829.94 243.34,-848.35"/>
<polygon fill="black" stroke="black" points="242.01,-851.58 252.6,-851.98 244.57,-845.07 242.01,-851.58"/>
<text text-anchor="middle" x="166.06" y="-826.2" font-family="Times,serif" font-size="14.00">&#45;1.65</text>
</g>
<!-- node181_2 -->
<g id="node15" class="node">
<title>node181_2</title>
<ellipse fill="lightgray" stroke="black" cx="284.21" cy="-756" rx="31.9" ry="31.9"/>
<text text-anchor="middle" x="284.21" y="-750.95" font-family="Times,serif" font-size="14.00">0.500</text>
</g>
<!-- node1_2&#45;&gt;node181_2 -->
<g id="edge8" class="edge">
<title>node1_2&#45;&gt;node181_2</title>
<path fill="none" stroke="black" d="M79.31,-764.69C99.68,-760.17 127.18,-754.81 151.81,-752.5 181.46,-749.72 215.03,-750.68 240.82,-752.29"/>
<polygon fill="black" stroke="black" points="240.35,-755.77 250.56,-752.97 240.83,-748.79 240.35,-755.77"/>
<text text-anchor="middle" x="166.06" y="-755.2" font-family="Times,serif" font-size="14.00">1.00</text>
</g>
<!-- node161_2 -->
<g id="node14" class="node">
<title>node161_2</title>
<ellipse fill="lightgray" stroke="black" cx="47.9" cy="-672" rx="31.9" ry="31.9"/>
<text text-anchor="middle" x="47.9" y="-666.95" font-family="Times,serif" font-size="14.00">0.500</text>
</g>
<!-- node0_3 -->
<g id="node16" class="node">
<title>node0_3</title>
<ellipse fill="lightblue" stroke="black" cx="47.9" cy="-1184" rx="31.9" ry="31.9"/>
<text text-anchor="middle" x="47.9" y="-1178.95" font-family="Times,serif" font-size="14.00">1.000</text>
</g>
<!-- node39_3 -->
<g id="node18" class="node">
<title>node39_3</title>
<ellipse fill="lightgreen" stroke="black" cx="284.21" cy="-1176" rx="31.9" ry="31.9"/>
<text text-anchor="middle" x="284.21" y="-1170.95" font-family="Times,serif" font-size="14.00">0.000</text>
</g>
<!-- node0_3&#45;&gt;node39_3 -->
<g id="edge10" class="edge">
<title>node0_3&#45;&gt;node39_3</title>
<path fill="none" stroke="black" d="M80.02,-1182.94C121.24,-1181.53 194.15,-1179.04 240.5,-1177.46"/>
<polygon fill="black" stroke="black" points="240.58,-1180.96 250.45,-1177.12 240.34,-1173.96 240.58,-1180.96"/>
<text text-anchor="middle" x="166.06" y="-1183.2" font-family="Times,serif" font-size="14.00">&#45;0.21</text>
</g>
<!-- node1_3 -->
<g id="node17" class="node">
<title>node1_3</title>
<ellipse fill="lightblue" stroke="black" cx="47.9" cy="-1084" rx="31.9" ry="31.9"/>
<text text-anchor="middle" x="47.9" y="-1078.95" font-family="Times,serif" font-size="14.00">1.000</text>
</g>
<!-- node1_3&#45;&gt;node39_3 -->
<g id="edge12" class="edge">
<title>node1_3&#45;&gt;node39_3</title>
<path fill="none" stroke="black" d="M78.1,-1095.47C119.78,-1111.83 196.47,-1141.94 243.34,-1160.35"/>
<polygon fill="black" stroke="black" points="242.01,-1163.58 252.6,-1163.98 244.57,-1157.07 242.01,-1163.58"/>
<text text-anchor="middle" x="166.06" y="-1138.2" font-family="Times,serif" font-size="14.00">&#45;1.65</text>
</g>
<!-- node181_3 -->
<g id="node20" class="node">
<title>node181_3</title>
<ellipse fill="lightgray" stroke="black" cx="284.21" cy="-1068" rx="31.9" ry="31.9"/>
<text text-anchor="middle" x="284.21" y="-1062.95" font-family="Times,serif" font-size="14.00">0.993</text>
</g>
<!-- node1_3&#45;&gt;node181_3 -->
<g id="edge11" class="edge">
<title>node1_3&#45;&gt;node181_3</title>
<path fill="none" stroke="black" d="M79.31,-1076.69C99.68,-1072.17 127.18,-1066.81 151.81,-1064.5 181.46,-1061.72 215.03,-1062.68 240.82,-1064.29"/>
<polygon fill="black" stroke="black" points="240.35,-1067.77 250.56,-1064.97 240.83,-1060.79 240.35,-1067.77"/>
<text text-anchor="middle" x="166.06" y="-1067.2" font-family="Times,serif" font-size="14.00">1.00</text>
</g>
<!-- node161_3 -->
<g id="node19" class="node">
<title>node161_3</title>
<ellipse fill="lightgray" stroke="black" cx="47.9" cy="-984" rx="31.9" ry="31.9"/>
<text text-anchor="middle" x="47.9" y="-978.95" font-family="Times,serif" font-size="14.00">0.500</text>
</g>
</g>
</svg>
