<?xml version="1.0" encoding="UTF-8" standalone="no"?>
<!DOCTYPE svg PUBLIC "-//W3C//DTD SVG 1.1//EN"
 "http://www.w3.org/Graphics/SVG/1.1/DTD/svg11.dtd">
<!-- Generated by graphviz version 9.0.0 (20230911.1827)
 -->
<!-- Title: neat Pages: 1 -->
<svg width="368pt" height="126pt"
 viewBox="0.00 0.00 367.71 126.24" xmlns="http://www.w3.org/2000/svg" xmlns:xlink="http://www.w3.org/1999/xlink">
<g id="graph0" class="graph" transform="scale(1 1) rotate(0) translate(4 122.24)">
<title>neat</title>
<polygon fill="white" stroke="none" points="-4,4 -4,-122.24 363.71,-122.24 363.71,4 -4,4"/>
<!-- node0 -->
<g id="node1" class="node">
<title>node0</title>
<ellipse fill="lightblue" stroke="black" cx="120.74" cy="-96.74" rx="18" ry="18"/>
<text text-anchor="middle" x="120.74" y="-91.69" font-family="Times,serif" font-size="14.00">0</text>
</g>
<!-- node21 -->
<g id="node3" class="node">
<title>node21</title>
<ellipse fill="lightgreen" stroke="black" cx="339.58" cy="-57.74" rx="20.13" ry="20.13"/>
<text text-anchor="middle" x="339.58" y="-52.69" font-family="Times,serif" font-size="14.00">21</text>
</g>
<!-- node0&#45;&gt;node21 -->
<g id="edge1" class="edge">
<title>node0&#45;&gt;node21</title>
<path fill="none" stroke="black" d="M138.77,-98.74C146.32,-99.53 155.33,-100.35 163.47,-100.74 225.5,-103.7 244.1,-102.56 301.45,-78.74 304.94,-77.29 308.51,-75.58 311.99,-73.78"/>
<polygon fill="black" stroke="black" points="313.63,-76.88 320.69,-68.98 310.24,-70.75 313.63,-76.88"/>
<text text-anchor="middle" x="230.21" y="-104.94" font-family="Times,serif" font-size="14.00">&#45;4.68</text>
</g>
<!-- node185 -->
<g id="node4" class="node">
<title>node185</title>
<ellipse fill="lightgray" stroke="black" cx="230.21" cy="-57.74" rx="24.74" ry="24.74"/>
<text text-anchor="middle" x="230.21" y="-52.69" font-family="Times,serif" font-size="14.00">185</text>
</g>
<!-- node0&#45;&gt;node185 -->
<g id="edge3" class="edge">
<title>node0&#45;&gt;node185</title>
<path fill="none" stroke="black" d="M138.06,-90.81C153.38,-85.26 176.74,-76.78 195.98,-69.8"/>
<polygon fill="black" stroke="black" points="197.11,-73.11 205.32,-66.41 194.72,-66.53 197.11,-73.11"/>
<text text-anchor="middle" x="175.47" y="-82.94" font-family="Times,serif" font-size="14.00">0.85</text>
</g>
<!-- node1 -->
<g id="node2" class="node">
<title>node1</title>
<ellipse fill="lightblue" stroke="black" cx="18" cy="-24.74" rx="18" ry="18"/>
<text text-anchor="middle" x="18" y="-19.69" font-family="Times,serif" font-size="14.00">1</text>
</g>
<!-- node207 -->
<g id="node5" class="node">
<title>node207</title>
<ellipse fill="lightgray" stroke="black" cx="120.74" cy="-24.74" rx="24.74" ry="24.74"/>
<text text-anchor="middle" x="120.74" y="-19.69" font-family="Times,serif" font-size="14.00">207</text>
</g>
<!-- node1&#45;&gt;node207 -->
<g id="edge4" class="edge">
<title>node1&#45;&gt;node207</title>
<path fill="none" stroke="black" d="M36.09,-24.74C49.28,-24.74 67.98,-24.74 84.36,-24.74"/>
<polygon fill="black" stroke="black" points="84.24,-28.24 94.24,-24.74 84.24,-21.24 84.24,-28.24"/>
<text text-anchor="middle" x="66" y="-27.94" font-family="Times,serif" font-size="14.00">1.00</text>
</g>
<!-- node185&#45;&gt;node21 -->
<g id="edge2" class="edge">
<title>node185&#45;&gt;node21</title>
<path fill="none" stroke="black" d="M255.31,-57.74C270.83,-57.74 291.15,-57.74 307.84,-57.74"/>
<polygon fill="black" stroke="black" points="307.71,-61.24 317.71,-57.74 307.71,-54.24 307.71,-61.24"/>
<text text-anchor="middle" x="287.2" y="-60.94" font-family="Times,serif" font-size="14.00">&#45;0.96</text>
</g>
<!-- node207&#45;&gt;node21 -->
<g id="edge6" class="edge">
<title>node207&#45;&gt;node21</title>
<path fill="none" stroke="black" d="M144.28,-16.38C171.08,-7.68 216.97,3.34 254.95,-7.24 276.73,-13.3 298.51,-26.75 314.38,-38.24"/>
<polygon fill="black" stroke="black" points="312.14,-40.94 322.24,-44.15 316.35,-35.34 312.14,-40.94"/>
<text text-anchor="middle" x="230.21" y="-10.94" font-family="Times,serif" font-size="14.00">1.48</text>
</g>
<!-- node207&#45;&gt;node185 -->
<g id="edge5" class="edge">
<title>node207&#45;&gt;node185</title>
<path fill="none" stroke="black" d="M144.9,-31.46C157.51,-35.16 173.38,-39.87 187.47,-44.24 190.05,-45.04 192.72,-45.87 195.39,-46.72"/>
<polygon fill="black" stroke="black" points="194.25,-50.03 204.84,-49.75 196.38,-43.36 194.25,-50.03"/>
<text text-anchor="middle" x="175.47" y="-47.94" font-family="Times,serif" font-size="14.00">1.00</text>
</g>
</g>
</svg>
