<?xml version="1.0" encoding="UTF-8" standalone="no"?>
<!DOCTYPE svg PUBLIC "-//W3C//DTD SVG 1.1//EN"
 "http://www.w3.org/Graphics/SVG/1.1/DTD/svg11.dtd">
<!-- Generated by graphviz version 9.0.0 (20230911.1827)
 -->
<!-- Title: neat Pages: 1 -->
<svg width="386pt" height="179pt"
 viewBox="0.00 0.00 385.92 178.74" xmlns="http://www.w3.org/2000/svg" xmlns:xlink="http://www.w3.org/1999/xlink">
<g id="graph0" class="graph" transform="scale(1 1) rotate(0) translate(4 174.74)">
<title>neat</title>
<polygon fill="white" stroke="none" points="-4,4 -4,-174.74 381.92,-174.74 381.92,4 -4,4"/>
<!-- node0 -->
<g id="node1" class="node">
<title>node0</title>
<ellipse fill="lightblue" stroke="black" cx="125.24" cy="-152.74" rx="18" ry="18"/>
<text text-anchor="middle" x="125.24" y="-147.69" font-family="Times,serif" font-size="14.00">0</text>
</g>
<!-- node171 -->
<g id="node4" class="node">
<title>node171</title>
<ellipse fill="lightgray" stroke="black" cx="239.21" cy="-88.74" rx="24.74" ry="24.74"/>
<text text-anchor="middle" x="239.21" y="-83.69" font-family="Times,serif" font-size="14.00">171</text>
</g>
<!-- node0&#45;&gt;node171 -->
<g id="edge2" class="edge">
<title>node0&#45;&gt;node171</title>
<path fill="none" stroke="black" d="M141.34,-144.11C158.17,-134.49 185.83,-118.68 207.29,-106.41"/>
<polygon fill="black" stroke="black" points="209,-109.47 215.94,-101.47 205.52,-103.39 209,-109.47"/>
<text text-anchor="middle" x="182.22" y="-130.94" font-family="Times,serif" font-size="14.00">&#45;1.85</text>
</g>
<!-- node1 -->
<g id="node2" class="node">
<title>node1</title>
<ellipse fill="lightblue" stroke="black" cx="18" cy="-58.74" rx="18" ry="18"/>
<text text-anchor="middle" x="18" y="-53.69" font-family="Times,serif" font-size="14.00">1</text>
</g>
<!-- node136 -->
<g id="node3" class="node">
<title>node136</title>
<ellipse fill="lightgreen" stroke="black" cx="125.24" cy="-91.74" rx="24.74" ry="24.74"/>
<text text-anchor="middle" x="125.24" y="-86.69" font-family="Times,serif" font-size="14.00">136</text>
</g>
<!-- node1&#45;&gt;node136 -->
<g id="edge1" class="edge">
<title>node1&#45;&gt;node136</title>
<path fill="none" stroke="black" d="M35.44,-63.89C50.09,-68.49 71.99,-75.35 90.38,-81.12"/>
<polygon fill="black" stroke="black" points="89.24,-84.43 99.83,-84.08 91.33,-77.75 89.24,-84.43"/>
<text text-anchor="middle" x="68.25" y="-80.94" font-family="Times,serif" font-size="14.00">&#45;0.86</text>
</g>
<!-- node284 -->
<g id="node6" class="node">
<title>node284</title>
<ellipse fill="lightgray" stroke="black" cx="125.24" cy="-24.74" rx="24.74" ry="24.74"/>
<text text-anchor="middle" x="125.24" y="-19.69" font-family="Times,serif" font-size="14.00">284</text>
</g>
<!-- node1&#45;&gt;node284 -->
<g id="edge4" class="edge">
<title>node1&#45;&gt;node284</title>
<path fill="none" stroke="black" d="M35.44,-53.42C50.09,-48.69 71.99,-41.62 90.38,-35.68"/>
<polygon fill="black" stroke="black" points="91.39,-39.03 99.83,-32.62 89.24,-32.37 91.39,-39.03"/>
<text text-anchor="middle" x="68.25" y="-50.94" font-family="Times,serif" font-size="14.00">1.00</text>
</g>
<!-- node222 -->
<g id="node5" class="node">
<title>node222</title>
<ellipse fill="lightgray" stroke="black" cx="353.19" cy="-88.74" rx="24.74" ry="24.74"/>
<text text-anchor="middle" x="353.19" y="-83.69" font-family="Times,serif" font-size="14.00">222</text>
</g>
<!-- node171&#45;&gt;node222 -->
<g id="edge3" class="edge">
<title>node171&#45;&gt;node222</title>
<path fill="none" stroke="black" d="M264.23,-88.74C279.58,-88.74 299.76,-88.74 316.91,-88.74"/>
<polygon fill="black" stroke="black" points="316.69,-92.24 326.69,-88.74 316.69,-85.24 316.69,-92.24"/>
<text text-anchor="middle" x="296.2" y="-91.94" font-family="Times,serif" font-size="14.00">&#45;0.66</text>
</g>
<!-- node284&#45;&gt;node171 -->
<g id="edge5" class="edge">
<title>node284&#45;&gt;node171</title>
<path fill="none" stroke="black" d="M147.3,-36.78C164.27,-46.47 188.37,-60.25 207.49,-71.18"/>
<polygon fill="black" stroke="black" points="205.51,-74.08 215.93,-76 208.99,-68 205.51,-74.08"/>
<text text-anchor="middle" x="182.22" y="-66.94" font-family="Times,serif" font-size="14.00">&#45;1.43</text>
</g>
</g>
</svg>
