<?xml version="1.0" encoding="UTF-8" standalone="no"?>
<!DOCTYPE svg PUBLIC "-//W3C//DTD SVG 1.1//EN"
 "http://www.w3.org/Graphics/SVG/1.1/DTD/svg11.dtd">
<!-- Generated by graphviz version 9.0.0 (20230911.1827)
 -->
<!-- Title: neat Pages: 1 -->
<svg width="799pt" height="864pt"
 viewBox="0.00 0.00 799.22 864.00" xmlns="http://www.w3.org/2000/svg" xmlns:xlink="http://www.w3.org/1999/xlink">
<g id="graph0" class="graph" transform="scale(1 1) rotate(0) translate(4 860)">
<title>neat</title>
<polygon fill="white" stroke="none" points="-4,4 -4,-860 795.22,-860 795.22,4 -4,4"/>
<g id="clust1" class="cluster">
<title>cluster_0</title>
<path fill="none" stroke="gray" d="M20,-8C20,-8 771.22,-8 771.22,-8 777.22,-8 783.22,-14 783.22,-20 783.22,-20 783.22,-200 783.22,-200 783.22,-206 777.22,-212 771.22,-212 771.22,-212 20,-212 20,-212 14,-212 8,-206 8,-200 8,-200 8,-20 8,-20 8,-14 14,-8 20,-8"/>
<text text-anchor="middle" x="395.61" y="-194.7" font-family="Times,serif" font-size="14.00">Test 0,0 → 0</text>
</g>
<g id="clust2" class="cluster">
<title>cluster_1</title>
<path fill="none" stroke="gray" d="M20,-220C20,-220 771.22,-220 771.22,-220 777.22,-220 783.22,-226 783.22,-232 783.22,-232 783.22,-412 783.22,-412 783.22,-418 777.22,-424 771.22,-424 771.22,-424 20,-424 20,-424 14,-424 8,-418 8,-412 8,-412 8,-232 8,-232 8,-226 14,-220 20,-220"/>
<text text-anchor="middle" x="395.61" y="-406.7" font-family="Times,serif" font-size="14.00">Test 0,1 → 1</text>
</g>
<g id="clust3" class="cluster">
<title>cluster_2</title>
<path fill="none" stroke="gray" d="M20,-432C20,-432 771.22,-432 771.22,-432 777.22,-432 783.22,-438 783.22,-444 783.22,-444 783.22,-624 783.22,-624 783.22,-630 777.22,-636 771.22,-636 771.22,-636 20,-636 20,-636 14,-636 8,-630 8,-624 8,-624 8,-444 8,-444 8,-438 14,-432 20,-432"/>
<text text-anchor="middle" x="395.61" y="-618.7" font-family="Times,serif" font-size="14.00">Test 1,0 → 1</text>
</g>
<g id="clust4" class="cluster">
<title>cluster_3</title>
<path fill="none" stroke="gray" d="M20,-644C20,-644 771.22,-644 771.22,-644 777.22,-644 783.22,-650 783.22,-656 783.22,-656 783.22,-836 783.22,-836 783.22,-842 777.22,-848 771.22,-848 771.22,-848 20,-848 20,-848 14,-848 8,-842 8,-836 8,-836 8,-656 8,-656 8,-650 14,-644 20,-644"/>
<text text-anchor="middle" x="395.61" y="-830.7" font-family="Times,serif" font-size="14.00">Test 1,1 → 0</text>
</g>
<!-- node0_0 -->
<g id="node1" class="node">
<title>node0_0</title>
<ellipse fill="lightblue" stroke="black" cx="47.9" cy="-148" rx="31.9" ry="31.9"/>
<text text-anchor="middle" x="47.9" y="-142.95" font-family="Times,serif" font-size="14.00">0.000</text>
</g>
<!-- node1_0 -->
<g id="node2" class="node">
<title>node1_0</title>
<ellipse fill="lightblue" stroke="black" cx="47.9" cy="-48" rx="31.9" ry="31.9"/>
<text text-anchor="middle" x="47.9" y="-42.95" font-family="Times,serif" font-size="14.00">0.000</text>
</g>
<!-- node162_0 -->
<g id="node4" class="node">
<title>node162_0</title>
<ellipse fill="lightgray" stroke="black" cx="279.71" cy="-52" rx="31.9" ry="31.9"/>
<text text-anchor="middle" x="279.71" y="-46.95" font-family="Times,serif" font-size="14.00">0.500</text>
</g>
<!-- node1_0&#45;&gt;node162_0 -->
<g id="edge1" class="edge">
<title>node1_0&#45;&gt;node162_0</title>
<path fill="none" stroke="black" d="M79.9,-48.54C120.16,-49.24 190.64,-50.47 235.96,-51.26"/>
<polygon fill="black" stroke="black" points="235.9,-54.76 245.96,-51.43 236.02,-47.76 235.9,-54.76"/>
<text text-anchor="middle" x="163.81" y="-53.2" font-family="Times,serif" font-size="14.00">0.09</text>
</g>
<!-- node79_0 -->
<g id="node3" class="node">
<title>node79_0</title>
<ellipse fill="lightgreen" stroke="black" cx="743.32" cy="-52" rx="31.9" ry="31.9"/>
<text text-anchor="middle" x="743.32" y="-46.95" font-family="Times,serif" font-size="14.00">1.000</text>
</g>
<!-- node193_0 -->
<g id="node5" class="node">
<title>node193_0</title>
<ellipse fill="lightgray" stroke="black" cx="511.51" cy="-52" rx="31.9" ry="31.9"/>
<text text-anchor="middle" x="511.51" y="-46.95" font-family="Times,serif" font-size="14.00">0.921</text>
</g>
<!-- node162_0&#45;&gt;node193_0 -->
<g id="edge2" class="edge">
<title>node162_0&#45;&gt;node193_0</title>
<path fill="none" stroke="black" d="M311.7,-52C351.96,-52 422.45,-52 467.77,-52"/>
<polygon fill="black" stroke="black" points="467.76,-55.5 477.76,-52 467.76,-48.5 467.76,-55.5"/>
<text text-anchor="middle" x="395.61" y="-55.2" font-family="Times,serif" font-size="14.00">1.00</text>
</g>
<!-- node193_0&#45;&gt;node79_0 -->
<g id="edge3" class="edge">
<title>node193_0&#45;&gt;node79_0</title>
<path fill="none" stroke="black" d="M543.51,-52C583.77,-52 654.25,-52 699.58,-52"/>
<polygon fill="black" stroke="black" points="699.57,-55.5 709.57,-52 699.57,-48.5 699.57,-55.5"/>
<text text-anchor="middle" x="627.42" y="-55.2" font-family="Times,serif" font-size="14.00">3.37</text>
</g>
<!-- node0_1 -->
<g id="node6" class="node">
<title>node0_1</title>
<ellipse fill="lightblue" stroke="black" cx="47.9" cy="-360" rx="31.9" ry="31.9"/>
<text text-anchor="middle" x="47.9" y="-354.95" font-family="Times,serif" font-size="14.00">0.000</text>
</g>
<!-- node1_1 -->
<g id="node7" class="node">
<title>node1_1</title>
<ellipse fill="lightblue" stroke="black" cx="47.9" cy="-260" rx="31.9" ry="31.9"/>
<text text-anchor="middle" x="47.9" y="-254.95" font-family="Times,serif" font-size="14.00">1.000</text>
</g>
<!-- node162_1 -->
<g id="node9" class="node">
<title>node162_1</title>
<ellipse fill="lightgray" stroke="black" cx="279.71" cy="-264" rx="31.9" ry="31.9"/>
<text text-anchor="middle" x="279.71" y="-258.95" font-family="Times,serif" font-size="14.00">0.606</text>
</g>
<!-- node1_1&#45;&gt;node162_1 -->
<g id="edge4" class="edge">
<title>node1_1&#45;&gt;node162_1</title>
<path fill="none" stroke="black" d="M79.9,-260.54C120.16,-261.24 190.64,-262.47 235.96,-263.26"/>
<polygon fill="black" stroke="black" points="235.9,-266.76 245.96,-263.43 236.02,-259.76 235.9,-266.76"/>
<text text-anchor="middle" x="163.81" y="-265.2" font-family="Times,serif" font-size="14.00">0.09</text>
</g>
<!-- node79_1 -->
<g id="node8" class="node">
<title>node79_1</title>
<ellipse fill="lightgreen" stroke="black" cx="743.32" cy="-264" rx="31.9" ry="31.9"/>
<text text-anchor="middle" x="743.32" y="-258.95" font-family="Times,serif" font-size="14.00">1.000</text>
</g>
<!-- node193_1 -->
<g id="node10" class="node">
<title>node193_1</title>
<ellipse fill="lightgray" stroke="black" cx="511.51" cy="-264" rx="31.9" ry="31.9"/>
<text text-anchor="middle" x="511.51" y="-258.95" font-family="Times,serif" font-size="14.00">0.951</text>
</g>
<!-- node162_1&#45;&gt;node193_1 -->
<g id="edge5" class="edge">
<title>node162_1&#45;&gt;node193_1</title>
<path fill="none" stroke="black" d="M311.7,-264C351.96,-264 422.45,-264 467.77,-264"/>
<polygon fill="black" stroke="black" points="467.76,-267.5 477.76,-264 467.76,-260.5 467.76,-267.5"/>
<text text-anchor="middle" x="395.61" y="-267.2" font-family="Times,serif" font-size="14.00">1.00</text>
</g>
<!-- node193_1&#45;&gt;node79_1 -->
<g id="edge6" class="edge">
<title>node193_1&#45;&gt;node79_1</title>
<path fill="none" stroke="black" d="M543.51,-264C583.77,-264 654.25,-264 699.58,-264"/>
<polygon fill="black" stroke="black" points="699.57,-267.5 709.57,-264 699.57,-260.5 699.57,-267.5"/>
<text text-anchor="middle" x="627.42" y="-267.2" font-family="Times,serif" font-size="14.00">3.37</text>
</g>
<!-- node0_2 -->
<g id="node11" class="node">
<title>node0_2</title>
<ellipse fill="lightblue" stroke="black" cx="47.9" cy="-572" rx="31.9" ry="31.9"/>
<text text-anchor="middle" x="47.9" y="-566.95" font-family="Times,serif" font-size="14.00">1.000</text>
</g>
<!-- node1_2 -->
<g id="node12" class="node">
<title>node1_2</title>
<ellipse fill="lightblue" stroke="black" cx="47.9" cy="-472" rx="31.9" ry="31.9"/>
<text text-anchor="middle" x="47.9" y="-466.95" font-family="Times,serif" font-size="14.00">0.000</text>
</g>
<!-- node162_2 -->
<g id="node14" class="node">
<title>node162_2</title>
<ellipse fill="lightgray" stroke="black" cx="279.71" cy="-476" rx="31.9" ry="31.9"/>
<text text-anchor="middle" x="279.71" y="-470.95" font-family="Times,serif" font-size="14.00">0.500</text>
</g>
<!-- node1_2&#45;&gt;node162_2 -->
<g id="edge7" class="edge">
<title>node1_2&#45;&gt;node162_2</title>
<path fill="none" stroke="black" d="M79.9,-472.54C120.16,-473.24 190.64,-474.47 235.96,-475.26"/>
<polygon fill="black" stroke="black" points="235.9,-478.76 245.96,-475.43 236.02,-471.76 235.9,-478.76"/>
<text text-anchor="middle" x="163.81" y="-477.2" font-family="Times,serif" font-size="14.00">0.09</text>
</g>
<!-- node79_2 -->
<g id="node13" class="node">
<title>node79_2</title>
<ellipse fill="lightgreen" stroke="black" cx="743.32" cy="-476" rx="31.9" ry="31.9"/>
<text text-anchor="middle" x="743.32" y="-470.95" font-family="Times,serif" font-size="14.00">1.000</text>
</g>
<!-- node193_2 -->
<g id="node15" class="node">
<title>node193_2</title>
<ellipse fill="lightgray" stroke="black" cx="511.51" cy="-476" rx="31.9" ry="31.9"/>
<text text-anchor="middle" x="511.51" y="-470.95" font-family="Times,serif" font-size="14.00">0.921</text>
</g>
<!-- node162_2&#45;&gt;node193_2 -->
<g id="edge8" class="edge">
<title>node162_2&#45;&gt;node193_2</title>
<path fill="none" stroke="black" d="M311.7,-476C351.96,-476 422.45,-476 467.77,-476"/>
<polygon fill="black" stroke="black" points="467.76,-479.5 477.76,-476 467.76,-472.5 467.76,-479.5"/>
<text text-anchor="middle" x="395.61" y="-479.2" font-family="Times,serif" font-size="14.00">1.00</text>
</g>
<!-- node193_2&#45;&gt;node79_2 -->
<g id="edge9" class="edge">
<title>node193_2&#45;&gt;node79_2</title>
<path fill="none" stroke="black" d="M543.51,-476C583.77,-476 654.25,-476 699.58,-476"/>
<polygon fill="black" stroke="black" points="699.57,-479.5 709.57,-476 699.57,-472.5 699.57,-479.5"/>
<text text-anchor="middle" x="627.42" y="-479.2" font-family="Times,serif" font-size="14.00">3.37</text>
</g>
<!-- node0_3 -->
<g id="node16" class="node">
<title>node0_3</title>
<ellipse fill="lightblue" stroke="black" cx="47.9" cy="-784" rx="31.9" ry="31.9"/>
<text text-anchor="middle" x="47.9" y="-778.95" font-family="Times,serif" font-size="14.00">1.000</text>
</g>
<!-- node1_3 -->
<g id="node17" class="node">
<title>node1_3</title>
<ellipse fill="lightblue" stroke="black" cx="47.9" cy="-684" rx="31.9" ry="31.9"/>
<text text-anchor="middle" x="47.9" y="-678.95" font-family="Times,serif" font-size="14.00">1.000</text>
</g>
<!-- node162_3 -->
<g id="node19" class="node">
<title>node162_3</title>
<ellipse fill="lightgray" stroke="black" cx="279.71" cy="-688" rx="31.9" ry="31.9"/>
<text text-anchor="middle" x="279.71" y="-682.95" font-family="Times,serif" font-size="14.00">0.606</text>
</g>
<!-- node1_3&#45;&gt;node162_3 -->
<g id="edge10" class="edge">
<title>node1_3&#45;&gt;node162_3</title>
<path fill="none" stroke="black" d="M79.9,-684.54C120.16,-685.24 190.64,-686.47 235.96,-687.26"/>
<polygon fill="black" stroke="black" points="235.9,-690.76 245.96,-687.43 236.02,-683.76 235.9,-690.76"/>
<text text-anchor="middle" x="163.81" y="-689.2" font-family="Times,serif" font-size="14.00">0.09</text>
</g>
<!-- node79_3 -->
<g id="node18" class="node">
<title>node79_3</title>
<ellipse fill="lightgreen" stroke="black" cx="743.32" cy="-688" rx="31.9" ry="31.9"/>
<text text-anchor="middle" x="743.32" y="-682.95" font-family="Times,serif" font-size="14.00">1.000</text>
</g>
<!-- node193_3 -->
<g id="node20" class="node">
<title>node193_3</title>
<ellipse fill="lightgray" stroke="black" cx="511.51" cy="-688" rx="31.9" ry="31.9"/>
<text text-anchor="middle" x="511.51" y="-682.95" font-family="Times,serif" font-size="14.00">0.951</text>
</g>
<!-- node162_3&#45;&gt;node193_3 -->
<g id="edge11" class="edge">
<title>node162_3&#45;&gt;node193_3</title>
<path fill="none" stroke="black" d="M311.7,-688C351.96,-688 422.45,-688 467.77,-688"/>
<polygon fill="black" stroke="black" points="467.76,-691.5 477.76,-688 467.76,-684.5 467.76,-691.5"/>
<text text-anchor="middle" x="395.61" y="-691.2" font-family="Times,serif" font-size="14.00">1.00</text>
</g>
<!-- node193_3&#45;&gt;node79_3 -->
<g id="edge12" class="edge">
<title>node193_3&#45;&gt;node79_3</title>
<path fill="none" stroke="black" d="M543.51,-688C583.77,-688 654.25,-688 699.58,-688"/>
<polygon fill="black" stroke="black" points="699.57,-691.5 709.57,-688 699.57,-684.5 699.57,-691.5"/>
<text text-anchor="middle" x="627.42" y="-691.2" font-family="Times,serif" font-size="14.00">3.37</text>
</g>
</g>
</svg>
