<?xml version="1.0" encoding="UTF-8" standalone="no"?>
<!DOCTYPE svg PUBLIC "-//W3C//DTD SVG 1.1//EN"
 "http://www.w3.org/Graphics/SVG/1.1/DTD/svg11.dtd">
<!-- Generated by graphviz version 9.0.0 (20230911.1827)
 -->
<!-- Title: neat Pages: 1 -->
<svg width="368pt" height="118pt"
 viewBox="0.00 0.00 367.71 117.74" xmlns="http://www.w3.org/2000/svg" xmlns:xlink="http://www.w3.org/1999/xlink">
<g id="graph0" class="graph" transform="scale(1 1) rotate(0) translate(4 113.74)">
<title>neat</title>
<polygon fill="white" stroke="none" points="-4,4 -4,-113.74 363.71,-113.74 363.71,4 -4,4"/>
<!-- node0 -->
<g id="node1" class="node">
<title>node0</title>
<ellipse fill="lightblue" stroke="black" cx="18" cy="-85" rx="18" ry="18"/>
<text text-anchor="middle" x="18" y="-79.95" font-family="Times,serif" font-size="14.00">0</text>
</g>
<!-- node254 -->
<g id="node5" class="node">
<title>node254</title>
<ellipse fill="lightgray" stroke="black" cx="120.74" cy="-85" rx="24.74" ry="24.74"/>
<text text-anchor="middle" x="120.74" y="-79.95" font-family="Times,serif" font-size="14.00">254</text>
</g>
<!-- node0&#45;&gt;node254 -->
<g id="edge4" class="edge">
<title>node0&#45;&gt;node254</title>
<path fill="none" stroke="black" d="M36.09,-85C49.28,-85 67.98,-85 84.36,-85"/>
<polygon fill="black" stroke="black" points="84.24,-88.5 94.24,-85 84.24,-81.5 84.24,-88.5"/>
<text text-anchor="middle" x="66" y="-88.2" font-family="Times,serif" font-size="14.00">1.00</text>
</g>
<!-- node1 -->
<g id="node2" class="node">
<title>node1</title>
<ellipse fill="lightblue" stroke="black" cx="120.74" cy="-18" rx="18" ry="18"/>
<text text-anchor="middle" x="120.74" y="-12.95" font-family="Times,serif" font-size="14.00">1</text>
</g>
<!-- node71 -->
<g id="node3" class="node">
<title>node71</title>
<ellipse fill="lightgreen" stroke="black" cx="339.58" cy="-28" rx="20.13" ry="20.13"/>
<text text-anchor="middle" x="339.58" y="-22.95" font-family="Times,serif" font-size="14.00">71</text>
</g>
<!-- node1&#45;&gt;node71 -->
<g id="edge1" class="edge">
<title>node1&#45;&gt;node71</title>
<path fill="none" stroke="black" d="M139.14,-17.89C165.29,-17.82 216.24,-18.06 259.45,-20.5 275.38,-21.4 293.06,-23.02 307.67,-24.52"/>
<polygon fill="black" stroke="black" points="307.28,-28 317.6,-25.58 308.02,-21.04 307.28,-28"/>
<text text-anchor="middle" x="234.71" y="-23.2" font-family="Times,serif" font-size="14.00">0.52</text>
</g>
<!-- node182 -->
<g id="node4" class="node">
<title>node182</title>
<ellipse fill="lightgray" stroke="black" cx="234.71" cy="-71" rx="24.74" ry="24.74"/>
<text text-anchor="middle" x="234.71" y="-65.95" font-family="Times,serif" font-size="14.00">182</text>
</g>
<!-- node1&#45;&gt;node182 -->
<g id="edge3" class="edge">
<title>node1&#45;&gt;node182</title>
<path fill="none" stroke="black" d="M137.31,-25.37C153.86,-33.2 180.51,-45.82 201.59,-55.8"/>
<polygon fill="black" stroke="black" points="199.83,-58.83 210.36,-59.95 202.82,-52.51 199.83,-58.83"/>
<text text-anchor="middle" x="177.72" y="-53.2" font-family="Times,serif" font-size="14.00">&#45;1.32</text>
</g>
<!-- node182&#45;&gt;node71 -->
<g id="edge2" class="edge">
<title>node182&#45;&gt;node71</title>
<path fill="none" stroke="black" d="M258.03,-61.67C273.2,-55.33 293.42,-46.88 309.8,-40.03"/>
<polygon fill="black" stroke="black" points="311.14,-43.26 319.02,-36.18 308.44,-36.8 311.14,-43.26"/>
<text text-anchor="middle" x="289.45" y="-56.2" font-family="Times,serif" font-size="14.00">0.95</text>
</g>
<!-- node254&#45;&gt;node182 -->
<g id="edge5" class="edge">
<title>node254&#45;&gt;node182</title>
<path fill="none" stroke="black" d="M145.76,-82C161.11,-80.08 181.28,-77.56 198.43,-75.41"/>
<polygon fill="black" stroke="black" points="198.74,-78.9 208.23,-74.19 197.87,-71.95 198.74,-78.9"/>
<text text-anchor="middle" x="177.72" y="-82.2" font-family="Times,serif" font-size="14.00">1.00</text>
</g>
</g>
</svg>
