<?xml version="1.0" encoding="UTF-8" standalone="no"?>
<!DOCTYPE svg PUBLIC "-//W3C//DTD SVG 1.1//EN"
 "http://www.w3.org/Graphics/SVG/1.1/DTD/svg11.dtd">
<!-- Generated by graphviz version 9.0.0 (20230911.1827)
 -->
<!-- Title: neat Pages: 1 -->
<svg width="324pt" height="154pt"
 viewBox="0.00 0.00 323.92 153.81" xmlns="http://www.w3.org/2000/svg" xmlns:xlink="http://www.w3.org/1999/xlink">
<g id="graph0" class="graph" transform="scale(1 1) rotate(0) translate(4 149.81)">
<title>neat</title>
<polygon fill="white" stroke="none" points="-4,4 -4,-149.81 319.92,-149.81 319.92,4 -4,4"/>
<!-- node0 -->
<g id="node1" class="node">
<title>node0</title>
<ellipse fill="lightblue" stroke="black" cx="31.9" cy="-31.9" rx="31.9" ry="31.9"/>
<text text-anchor="middle" x="31.9" y="-26.85" font-family="Times,serif" font-size="14.00">0.000</text>
</g>
<!-- node1 -->
<g id="node2" class="node">
<title>node1</title>
<ellipse fill="lightblue" stroke="black" cx="31.9" cy="-113.9" rx="31.9" ry="31.9"/>
<text text-anchor="middle" x="31.9" y="-108.85" font-family="Times,serif" font-size="14.00">1.000</text>
</g>
<!-- node42 -->
<g id="node3" class="node">
<title>node42</title>
<ellipse fill="lightgreen" stroke="black" cx="284.01" cy="-104.9" rx="31.9" ry="31.9"/>
<text text-anchor="middle" x="284.01" y="-99.85" font-family="Times,serif" font-size="14.00">0.000</text>
</g>
<!-- node1&#45;&gt;node42 -->
<g id="edge1" class="edge">
<title>node1&#45;&gt;node42</title>
<path fill="none" stroke="black" d="M63.92,-116.82C69.85,-117.27 76.02,-117.67 81.81,-117.9 130.63,-119.9 219.46,-114.39 234.11,-112.9 236.42,-112.67 238.78,-112.39 241.16,-112.09"/>
<polygon fill="black" stroke="black" points="241.4,-115.59 250.81,-110.72 240.42,-108.66 241.4,-115.59"/>
<text text-anchor="middle" x="160.21" y="-121.1" font-family="Times,serif" font-size="14.00">&#45;2.48</text>
</g>
<!-- node186 -->
<g id="node4" class="node">
<title>node186</title>
<ellipse fill="lightgray" stroke="black" cx="160.21" cy="-70.9" rx="31.9" ry="31.9"/>
<text text-anchor="middle" x="160.21" y="-65.85" font-family="Times,serif" font-size="14.00">0.000</text>
</g>
<!-- node1&#45;&gt;node186 -->
<g id="edge3" class="edge">
<title>node1&#45;&gt;node186</title>
<path fill="none" stroke="black" d="M62.52,-103.82C79.38,-98.08 100.74,-90.81 119.1,-84.56"/>
<polygon fill="black" stroke="black" points="120.01,-87.95 128.35,-81.41 117.75,-81.32 120.01,-87.95"/>
<text text-anchor="middle" x="96.06" y="-100.1" font-family="Times,serif" font-size="14.00">&#45;2.44</text>
</g>
<!-- node186&#45;&gt;node42 -->
<g id="edge2" class="edge">
<title>node186&#45;&gt;node42</title>
<path fill="none" stroke="black" d="M191.32,-79.31C206.54,-83.56 225.25,-88.78 241.79,-93.4"/>
<polygon fill="black" stroke="black" points="240.8,-96.75 251.37,-96.07 242.68,-90.01 240.8,-96.75"/>
<text text-anchor="middle" x="222.11" y="-95.1" font-family="Times,serif" font-size="14.00">0.47</text>
</g>
</g>
</svg>
