<?xml version="1.0" encoding="UTF-8" standalone="no"?>
<!DOCTYPE svg PUBLIC "-//W3C//DTD SVG 1.1//EN"
 "http://www.w3.org/Graphics/SVG/1.1/DTD/svg11.dtd">
<!-- Generated by graphviz version 9.0.0 (20230911.1827)
 -->
<!-- Title: neat Pages: 1 -->
<svg width="267pt" height="124pt"
 viewBox="0.00 0.00 267.45 124.47" xmlns="http://www.w3.org/2000/svg" xmlns:xlink="http://www.w3.org/1999/xlink">
<g id="graph0" class="graph" transform="scale(1 1) rotate(0) translate(4 120.47)">
<title>neat</title>
<polygon fill="white" stroke="none" points="-4,4 -4,-120.47 263.45,-120.47 263.45,4 -4,4"/>
<!-- node0 -->
<g id="node1" class="node">
<title>node0</title>
<ellipse fill="lightblue" stroke="black" cx="18" cy="-24.74" rx="18" ry="18"/>
<text text-anchor="middle" x="18" y="-19.69" font-family="Times,serif" font-size="14.00">0</text>
</g>
<!-- node171 -->
<g id="node4" class="node">
<title>node171</title>
<ellipse fill="lightgray" stroke="black" cx="120.74" cy="-24.74" rx="24.74" ry="24.74"/>
<text text-anchor="middle" x="120.74" y="-19.69" font-family="Times,serif" font-size="14.00">171</text>
</g>
<!-- node0&#45;&gt;node171 -->
<g id="edge1" class="edge">
<title>node0&#45;&gt;node171</title>
<path fill="none" stroke="black" d="M36.09,-24.74C49.28,-24.74 67.98,-24.74 84.36,-24.74"/>
<polygon fill="black" stroke="black" points="84.24,-28.24 94.24,-24.74 84.24,-21.24 84.24,-28.24"/>
<text text-anchor="middle" x="66" y="-27.94" font-family="Times,serif" font-size="14.00">0.67</text>
</g>
<!-- node1 -->
<g id="node2" class="node">
<title>node1</title>
<ellipse fill="lightblue" stroke="black" cx="18" cy="-91.74" rx="18" ry="18"/>
<text text-anchor="middle" x="18" y="-86.69" font-family="Times,serif" font-size="14.00">1</text>
</g>
<!-- node242 -->
<g id="node5" class="node">
<title>node242</title>
<ellipse fill="lightgray" stroke="black" cx="120.74" cy="-91.74" rx="24.74" ry="24.74"/>
<text text-anchor="middle" x="120.74" y="-86.69" font-family="Times,serif" font-size="14.00">242</text>
</g>
<!-- node1&#45;&gt;node242 -->
<g id="edge2" class="edge">
<title>node1&#45;&gt;node242</title>
<path fill="none" stroke="black" d="M36.09,-91.74C49.28,-91.74 67.98,-91.74 84.36,-91.74"/>
<polygon fill="black" stroke="black" points="84.24,-95.24 94.24,-91.74 84.24,-88.24 84.24,-95.24"/>
<text text-anchor="middle" x="66" y="-94.94" font-family="Times,serif" font-size="14.00">1.00</text>
</g>
<!-- node136 -->
<g id="node3" class="node">
<title>node136</title>
<ellipse fill="lightgreen" stroke="black" cx="234.71" cy="-24.74" rx="24.74" ry="24.74"/>
<text text-anchor="middle" x="234.71" y="-19.69" font-family="Times,serif" font-size="14.00">136</text>
</g>
<!-- node171&#45;&gt;node136 -->
<g id="edge3" class="edge">
<title>node171&#45;&gt;node136</title>
<path fill="none" stroke="black" d="M145.76,-24.74C161.11,-24.74 181.28,-24.74 198.43,-24.74"/>
<polygon fill="black" stroke="black" points="198.22,-28.24 208.22,-24.74 198.22,-21.24 198.22,-28.24"/>
<text text-anchor="middle" x="177.72" y="-27.94" font-family="Times,serif" font-size="14.00">&#45;1.22</text>
</g>
</g>
</svg>
