<?xml version="1.0" encoding="UTF-8" standalone="no"?>
<!DOCTYPE svg PUBLIC "-//W3C//DTD SVG 1.1//EN"
 "http://www.w3.org/Graphics/SVG/1.1/DTD/svg11.dtd">
<!-- Generated by graphviz version 9.0.0 (20230911.1827)
 -->
<!-- Title: neat Pages: 1 -->
<svg width="171pt" height="172pt"
 viewBox="0.00 0.00 171.45 171.74" xmlns="http://www.w3.org/2000/svg" xmlns:xlink="http://www.w3.org/1999/xlink">
<g id="graph0" class="graph" transform="scale(1 1) rotate(0) translate(4 167.74)">
<title>neat</title>
<polygon fill="white" stroke="none" points="-4,4 -4,-167.74 167.45,-167.74 167.45,4 -4,4"/>
<!-- node0 -->
<g id="node1" class="node">
<title>node0</title>
<ellipse fill="lightblue" stroke="black" cx="24.74" cy="-18" rx="18" ry="18"/>
<text text-anchor="middle" x="24.74" y="-12.95" font-family="Times,serif" font-size="14.00">0</text>
</g>
<!-- node1 -->
<g id="node2" class="node">
<title>node1</title>
<ellipse fill="lightblue" stroke="black" cx="24.74" cy="-72" rx="18" ry="18"/>
<text text-anchor="middle" x="24.74" y="-66.95" font-family="Times,serif" font-size="14.00">1</text>
</g>
<!-- node197 -->
<g id="node5" class="node">
<title>node197</title>
<ellipse fill="lightgray" stroke="black" cx="138.71" cy="-72" rx="24.74" ry="24.74"/>
<text text-anchor="middle" x="138.71" y="-66.95" font-family="Times,serif" font-size="14.00">197</text>
</g>
<!-- node1&#45;&gt;node197 -->
<g id="edge2" class="edge">
<title>node1&#45;&gt;node197</title>
<path fill="none" stroke="black" d="M43.23,-72C59,-72 82.65,-72 102.34,-72"/>
<polygon fill="black" stroke="black" points="102.18,-75.5 112.18,-72 102.18,-68.5 102.18,-75.5"/>
<text text-anchor="middle" x="81.72" y="-75.2" font-family="Times,serif" font-size="14.00">1.00</text>
</g>
<!-- node105 -->
<g id="node3" class="node">
<title>node105</title>
<ellipse fill="lightgreen" stroke="black" cx="138.71" cy="-139" rx="24.74" ry="24.74"/>
<text text-anchor="middle" x="138.71" y="-133.95" font-family="Times,serif" font-size="14.00">105</text>
</g>
<!-- node161 -->
<g id="node4" class="node">
<title>node161</title>
<ellipse fill="lightgray" stroke="black" cx="24.74" cy="-139" rx="24.74" ry="24.74"/>
<text text-anchor="middle" x="24.74" y="-133.95" font-family="Times,serif" font-size="14.00">161</text>
</g>
<!-- node161&#45;&gt;node105 -->
<g id="edge1" class="edge">
<title>node161&#45;&gt;node105</title>
<path fill="none" stroke="black" d="M49.76,-139C65.11,-139 85.28,-139 102.43,-139"/>
<polygon fill="black" stroke="black" points="102.22,-142.5 112.22,-139 102.22,-135.5 102.22,-142.5"/>
<text text-anchor="middle" x="81.72" y="-142.2" font-family="Times,serif" font-size="14.00">&#45;0.06</text>
</g>
</g>
</svg>
