<?xml version="1.0" encoding="UTF-8" standalone="no"?>
<!DOCTYPE svg PUBLIC "-//W3C//DTD SVG 1.1//EN"
 "http://www.w3.org/Graphics/SVG/1.1/DTD/svg11.dtd">
<!-- Generated by graphviz version 9.0.0 (20230911.1827)
 -->
<!-- Title: neat Pages: 1 -->
<svg width="319pt" height="154pt"
 viewBox="0.00 0.00 319.42 153.81" xmlns="http://www.w3.org/2000/svg" xmlns:xlink="http://www.w3.org/1999/xlink">
<g id="graph0" class="graph" transform="scale(1 1) rotate(0) translate(4 149.81)">
<title>neat</title>
<polygon fill="white" stroke="none" points="-4,4 -4,-149.81 315.42,-149.81 315.42,4 -4,4"/>
<!-- node0 -->
<g id="node1" class="node">
<title>node0</title>
<ellipse fill="lightblue" stroke="black" cx="155.71" cy="-113.9" rx="31.9" ry="31.9"/>
<text text-anchor="middle" x="155.71" y="-108.85" font-family="Times,serif" font-size="14.00">0.000</text>
</g>
<!-- node105 -->
<g id="node3" class="node">
<title>node105</title>
<ellipse fill="lightgreen" stroke="black" cx="279.51" cy="-72.9" rx="31.9" ry="31.9"/>
<text text-anchor="middle" x="279.51" y="-67.85" font-family="Times,serif" font-size="14.00">1.000</text>
</g>
<!-- node0&#45;&gt;node105 -->
<g id="edge1" class="edge">
<title>node0&#45;&gt;node105</title>
<path fill="none" stroke="black" d="M186.51,-103.87C202.1,-98.62 221.43,-92.12 238.33,-86.43"/>
<polygon fill="black" stroke="black" points="239.23,-89.82 247.59,-83.31 237,-83.18 239.23,-89.82"/>
<text text-anchor="middle" x="217.61" y="-100.1" font-family="Times,serif" font-size="14.00">1.77</text>
</g>
<!-- node1 -->
<g id="node2" class="node">
<title>node1</title>
<ellipse fill="lightblue" stroke="black" cx="31.9" cy="-31.9" rx="31.9" ry="31.9"/>
<text text-anchor="middle" x="31.9" y="-26.85" font-family="Times,serif" font-size="14.00">1.000</text>
</g>
<!-- node178 -->
<g id="node4" class="node">
<title>node178</title>
<ellipse fill="lightgray" stroke="black" cx="155.71" cy="-31.9" rx="31.9" ry="31.9"/>
<text text-anchor="middle" x="155.71" y="-26.85" font-family="Times,serif" font-size="14.00">0.993</text>
</g>
<!-- node1&#45;&gt;node178 -->
<g id="edge2" class="edge">
<title>node1&#45;&gt;node178</title>
<path fill="none" stroke="black" d="M64.27,-31.9C78.9,-31.9 96.54,-31.9 112.34,-31.9"/>
<polygon fill="black" stroke="black" points="111.93,-35.4 121.93,-31.9 111.93,-28.4 111.93,-35.4"/>
<text text-anchor="middle" x="93.81" y="-35.1" font-family="Times,serif" font-size="14.00">1.00</text>
</g>
<!-- node178&#45;&gt;node105 -->
<g id="edge3" class="edge">
<title>node178&#45;&gt;node105</title>
<path fill="none" stroke="black" d="M186.51,-41.93C202.1,-47.18 221.43,-53.69 238.33,-59.38"/>
<polygon fill="black" stroke="black" points="237,-62.62 247.59,-62.49 239.23,-55.99 237,-62.62"/>
<text text-anchor="middle" x="217.61" y="-60.1" font-family="Times,serif" font-size="14.00">1.95</text>
</g>
</g>
</svg>
