<?xml version="1.0" encoding="UTF-8" standalone="no"?>
<!DOCTYPE svg PUBLIC "-//W3C//DTD SVG 1.1//EN"
 "http://www.w3.org/Graphics/SVG/1.1/DTD/svg11.dtd">
<!-- Generated by graphviz version 9.0.0 (20230911.1827)
 -->
<!-- Title: neat Pages: 1 -->
<svg width="158pt" height="116pt"
 viewBox="0.00 0.00 157.97 115.87" xmlns="http://www.w3.org/2000/svg" xmlns:xlink="http://www.w3.org/1999/xlink">
<g id="graph0" class="graph" transform="scale(1 1) rotate(0) translate(4 111.87)">
<title>neat</title>
<polygon fill="white" stroke="none" points="-4,4 -4,-111.87 153.97,-111.87 153.97,4 -4,4"/>
<!-- node0 -->
<g id="node1" class="node">
<title>node0</title>
<ellipse fill="lightblue" stroke="black" cx="18" cy="-24.74" rx="18" ry="18"/>
<text text-anchor="middle" x="18" y="-19.69" font-family="Times,serif" font-size="14.00">0</text>
</g>
<!-- node152 -->
<g id="node4" class="node">
<title>node152</title>
<ellipse fill="lightgray" stroke="black" cx="125.24" cy="-24.74" rx="24.74" ry="24.74"/>
<text text-anchor="middle" x="125.24" y="-19.69" font-family="Times,serif" font-size="14.00">152</text>
</g>
<!-- node0&#45;&gt;node152 -->
<g id="edge2" class="edge">
<title>node0&#45;&gt;node152</title>
<path fill="none" stroke="black" d="M36.38,-24.74C50.58,-24.74 71.12,-24.74 88.77,-24.74"/>
<polygon fill="black" stroke="black" points="88.63,-28.24 98.63,-24.74 88.63,-21.24 88.63,-28.24"/>
<text text-anchor="middle" x="68.25" y="-27.94" font-family="Times,serif" font-size="14.00">&#45;0.76</text>
</g>
<!-- node1 -->
<g id="node2" class="node">
<title>node1</title>
<ellipse fill="lightblue" stroke="black" cx="18" cy="-87.74" rx="18" ry="18"/>
<text text-anchor="middle" x="18" y="-82.69" font-family="Times,serif" font-size="14.00">1</text>
</g>
<!-- node81 -->
<g id="node3" class="node">
<title>node81</title>
<ellipse fill="lightgreen" stroke="black" cx="125.24" cy="-87.74" rx="20.13" ry="20.13"/>
<text text-anchor="middle" x="125.24" y="-82.69" font-family="Times,serif" font-size="14.00">81</text>
</g>
<!-- node1&#45;&gt;node81 -->
<g id="edge1" class="edge">
<title>node1&#45;&gt;node81</title>
<path fill="none" stroke="black" d="M36.38,-87.74C51.8,-87.74 74.69,-87.74 93.24,-87.74"/>
<polygon fill="black" stroke="black" points="93.17,-91.24 103.17,-87.74 93.17,-84.24 93.17,-91.24"/>
<text text-anchor="middle" x="68.25" y="-90.94" font-family="Times,serif" font-size="14.00">&#45;2.43</text>
</g>
</g>
</svg>
