<?xml version="1.0" encoding="UTF-8" standalone="no"?>
<!DOCTYPE svg PUBLIC "-//W3C//DTD SVG 1.1//EN"
 "http://www.w3.org/Graphics/SVG/1.1/DTD/svg11.dtd">
<!-- Generated by graphviz version 9.0.0 (20230911.1827)
 -->
<!-- Title: neat Pages: 1 -->
<svg width="272pt" height="159pt"
 viewBox="0.00 0.00 271.95 159.24" xmlns="http://www.w3.org/2000/svg" xmlns:xlink="http://www.w3.org/1999/xlink">
<g id="graph0" class="graph" transform="scale(1 1) rotate(0) translate(4 155.24)">
<title>neat</title>
<polygon fill="white" stroke="none" points="-4,4 -4,-155.24 267.95,-155.24 267.95,4 -4,4"/>
<!-- node0 -->
<g id="node1" class="node">
<title>node0</title>
<ellipse fill="lightblue" stroke="black" cx="18" cy="-129.74" rx="18" ry="18"/>
<text text-anchor="middle" x="18" y="-124.69" font-family="Times,serif" font-size="14.00">0</text>
</g>
<!-- node141 -->
<g id="node3" class="node">
<title>node141</title>
<ellipse fill="lightgreen" stroke="black" cx="239.21" cy="-91.74" rx="24.74" ry="24.74"/>
<text text-anchor="middle" x="239.21" y="-86.69" font-family="Times,serif" font-size="14.00">141</text>
</g>
<!-- node0&#45;&gt;node141 -->
<g id="edge1" class="edge">
<title>node0&#45;&gt;node141</title>
<path fill="none" stroke="black" d="M35.99,-133.84C41.68,-135.02 48.08,-136.15 54,-136.74 66.61,-137.99 69.87,-137.76 82.5,-136.74 134.1,-132.56 148.2,-131.43 196.47,-112.74 199.88,-111.42 203.38,-109.92 206.83,-108.33"/>
<polygon fill="black" stroke="black" points="208.07,-111.62 215.55,-104.11 205.02,-105.32 208.07,-111.62"/>
<text text-anchor="middle" x="125.24" y="-137.94" font-family="Times,serif" font-size="14.00">1.12</text>
</g>
<!-- node159 -->
<g id="node4" class="node">
<title>node159</title>
<ellipse fill="lightgray" stroke="black" cx="125.24" cy="-91.74" rx="24.74" ry="24.74"/>
<text text-anchor="middle" x="125.24" y="-86.69" font-family="Times,serif" font-size="14.00">159</text>
</g>
<!-- node0&#45;&gt;node159 -->
<g id="edge6" class="edge">
<title>node0&#45;&gt;node159</title>
<path fill="none" stroke="black" d="M35.44,-123.8C50.26,-118.45 72.49,-110.42 91,-103.74"/>
<polygon fill="black" stroke="black" points="92.02,-107.09 100.24,-100.4 89.64,-100.51 92.02,-107.09"/>
<text text-anchor="middle" x="68.25" y="-118.94" font-family="Times,serif" font-size="14.00">&#45;0.64</text>
</g>
<!-- node1 -->
<g id="node2" class="node">
<title>node1</title>
<ellipse fill="lightblue" stroke="black" cx="18" cy="-62.74" rx="18" ry="18"/>
<text text-anchor="middle" x="18" y="-57.69" font-family="Times,serif" font-size="14.00">1</text>
</g>
<!-- node1&#45;&gt;node159 -->
<g id="edge2" class="edge">
<title>node1&#45;&gt;node159</title>
<path fill="none" stroke="black" d="M35.44,-67.27C50,-71.28 71.71,-77.26 90.02,-82.31"/>
<polygon fill="black" stroke="black" points="88.85,-85.62 99.42,-84.9 90.71,-78.87 88.85,-85.62"/>
<text text-anchor="middle" x="68.25" y="-82.94" font-family="Times,serif" font-size="14.00">0.66</text>
</g>
<!-- node211 -->
<g id="node5" class="node">
<title>node211</title>
<ellipse fill="lightgray" stroke="black" cx="125.24" cy="-24.74" rx="24.74" ry="24.74"/>
<text text-anchor="middle" x="125.24" y="-19.69" font-family="Times,serif" font-size="14.00">211</text>
</g>
<!-- node1&#45;&gt;node211 -->
<g id="edge4" class="edge">
<title>node1&#45;&gt;node211</title>
<path fill="none" stroke="black" d="M35.44,-56.8C50.26,-51.45 72.49,-43.42 91,-36.74"/>
<polygon fill="black" stroke="black" points="92.02,-40.09 100.24,-33.4 89.64,-33.51 92.02,-40.09"/>
<text text-anchor="middle" x="68.25" y="-52.94" font-family="Times,serif" font-size="14.00">3.20</text>
</g>
<!-- node159&#45;&gt;node141 -->
<g id="edge3" class="edge">
<title>node159&#45;&gt;node141</title>
<path fill="none" stroke="black" d="M150.26,-91.74C165.61,-91.74 185.78,-91.74 202.93,-91.74"/>
<polygon fill="black" stroke="black" points="202.72,-95.24 212.72,-91.74 202.72,-88.24 202.72,-95.24"/>
<text text-anchor="middle" x="182.22" y="-94.94" font-family="Times,serif" font-size="14.00">&#45;2.55</text>
</g>
<!-- node211&#45;&gt;node141 -->
<g id="edge5" class="edge">
<title>node211&#45;&gt;node141</title>
<path fill="none" stroke="black" d="M147.04,-37.18C164.08,-47.38 188.45,-61.96 207.71,-73.49"/>
<polygon fill="black" stroke="black" points="205.85,-76.45 216.23,-78.58 209.44,-70.44 205.85,-76.45"/>
<text text-anchor="middle" x="182.22" y="-69.94" font-family="Times,serif" font-size="14.00">&#45;2.68</text>
</g>
</g>
</svg>
