<?xml version="1.0" encoding="UTF-8" standalone="no"?>
<!DOCTYPE svg PUBLIC "-//W3C//DTD SVG 1.1//EN"
 "http://www.w3.org/Graphics/SVG/1.1/DTD/svg11.dtd">
<!-- Generated by graphviz version 9.0.0 (20230911.1827)
 -->
<!-- Title: neat Pages: 1 -->
<svg width="267pt" height="98pt"
 viewBox="0.00 0.00 267.45 98.00" xmlns="http://www.w3.org/2000/svg" xmlns:xlink="http://www.w3.org/1999/xlink">
<g id="graph0" class="graph" transform="scale(1 1) rotate(0) translate(4 94)">
<title>neat</title>
<polygon fill="white" stroke="none" points="-4,4 -4,-94 263.45,-94 263.45,4 -4,4"/>
<!-- node0 -->
<g id="node1" class="node">
<title>node0</title>
<ellipse fill="lightblue" stroke="black" cx="18" cy="-72" rx="18" ry="18"/>
<text text-anchor="middle" x="18" y="-66.95" font-family="Times,serif" font-size="14.00">0</text>
</g>
<!-- node161 -->
<g id="node4" class="node">
<title>node161</title>
<ellipse fill="lightgray" stroke="black" cx="120.74" cy="-45" rx="24.74" ry="24.74"/>
<text text-anchor="middle" x="120.74" y="-39.95" font-family="Times,serif" font-size="14.00">161</text>
</g>
<!-- node0&#45;&gt;node161 -->
<g id="edge3" class="edge">
<title>node0&#45;&gt;node161</title>
<path fill="none" stroke="black" d="M35.63,-67.54C49.3,-63.88 69.08,-58.58 86.03,-54.03"/>
<polygon fill="black" stroke="black" points="86.45,-57.54 95.21,-51.57 84.64,-50.78 86.45,-57.54"/>
<text text-anchor="middle" x="66" y="-65.2" font-family="Times,serif" font-size="14.00">1.82</text>
</g>
<!-- node1 -->
<g id="node2" class="node">
<title>node1</title>
<ellipse fill="lightblue" stroke="black" cx="18" cy="-18" rx="18" ry="18"/>
<text text-anchor="middle" x="18" y="-12.95" font-family="Times,serif" font-size="14.00">1</text>
</g>
<!-- node1&#45;&gt;node161 -->
<g id="edge1" class="edge">
<title>node1&#45;&gt;node161</title>
<path fill="none" stroke="black" d="M35.8,-22.36C47.61,-25.43 63.78,-29.67 78,-33.5 80.42,-34.15 82.91,-34.83 85.42,-35.51"/>
<polygon fill="black" stroke="black" points="84.32,-38.84 94.89,-38.1 86.17,-32.09 84.32,-38.84"/>
<text text-anchor="middle" x="66" y="-37.2" font-family="Times,serif" font-size="14.00">1.00</text>
</g>
<!-- node105 -->
<g id="node3" class="node">
<title>node105</title>
<ellipse fill="lightgreen" stroke="black" cx="234.71" cy="-45" rx="24.74" ry="24.74"/>
<text text-anchor="middle" x="234.71" y="-39.95" font-family="Times,serif" font-size="14.00">105</text>
</g>
<!-- node161&#45;&gt;node105 -->
<g id="edge2" class="edge">
<title>node161&#45;&gt;node105</title>
<path fill="none" stroke="black" d="M145.76,-45C161.11,-45 181.28,-45 198.43,-45"/>
<polygon fill="black" stroke="black" points="198.22,-48.5 208.22,-45 198.22,-41.5 198.22,-48.5"/>
<text text-anchor="middle" x="177.72" y="-48.2" font-family="Times,serif" font-size="14.00">&#45;0.99</text>
</g>
</g>
</svg>
