<?xml version="1.0" encoding="UTF-8" standalone="no"?>
<!DOCTYPE svg PUBLIC "-//W3C//DTD SVG 1.1//EN"
 "http://www.w3.org/Graphics/SVG/1.1/DTD/svg11.dtd">
<!-- Generated by graphviz version 9.0.0 (20230911.1827)
 -->
<!-- Title: neat Pages: 1 -->
<svg width="153pt" height="131pt"
 viewBox="0.00 0.00 153.47 130.74" xmlns="http://www.w3.org/2000/svg" xmlns:xlink="http://www.w3.org/1999/xlink">
<g id="graph0" class="graph" transform="scale(1 1) rotate(0) translate(4 126.74)">
<title>neat</title>
<polygon fill="white" stroke="none" points="-4,4 -4,-126.74 149.47,-126.74 149.47,4 -4,4"/>
<!-- node0 -->
<g id="node1" class="node">
<title>node0</title>
<ellipse fill="lightblue" stroke="black" cx="18" cy="-104.74" rx="18" ry="18"/>
<text text-anchor="middle" x="18" y="-99.69" font-family="Times,serif" font-size="14.00">0</text>
</g>
<!-- node171 -->
<g id="node4" class="node">
<title>node171</title>
<ellipse fill="lightgray" stroke="black" cx="120.74" cy="-97.74" rx="24.74" ry="24.74"/>
<text text-anchor="middle" x="120.74" y="-92.69" font-family="Times,serif" font-size="14.00">171</text>
</g>
<!-- node0&#45;&gt;node171 -->
<g id="edge2" class="edge">
<title>node0&#45;&gt;node171</title>
<path fill="none" stroke="black" d="M36.09,-103.55C49.28,-102.63 67.98,-101.33 84.36,-100.2"/>
<polygon fill="black" stroke="black" points="84.51,-103.69 94.25,-99.51 84.03,-96.71 84.51,-103.69"/>
<text text-anchor="middle" x="66" y="-104.94" font-family="Times,serif" font-size="14.00">0.05</text>
</g>
<!-- node1 -->
<g id="node2" class="node">
<title>node1</title>
<ellipse fill="lightblue" stroke="black" cx="18" cy="-37.74" rx="18" ry="18"/>
<text text-anchor="middle" x="18" y="-32.69" font-family="Times,serif" font-size="14.00">1</text>
</g>
<!-- node136 -->
<g id="node3" class="node">
<title>node136</title>
<ellipse fill="lightgreen" stroke="black" cx="120.74" cy="-24.74" rx="24.74" ry="24.74"/>
<text text-anchor="middle" x="120.74" y="-19.69" font-family="Times,serif" font-size="14.00">136</text>
</g>
<!-- node1&#45;&gt;node136 -->
<g id="edge1" class="edge">
<title>node1&#45;&gt;node136</title>
<path fill="none" stroke="black" d="M35.13,-31.34C40.98,-29.31 47.7,-27.32 54,-26.24 63.68,-24.57 74.28,-23.86 84.08,-23.64"/>
<polygon fill="black" stroke="black" points="84.03,-27.14 94.02,-23.6 84,-20.14 84.03,-27.14"/>
<text text-anchor="middle" x="66" y="-29.94" font-family="Times,serif" font-size="14.00">4.11</text>
</g>
<!-- node1&#45;&gt;node171 -->
<g id="edge3" class="edge">
<title>node1&#45;&gt;node171</title>
<path fill="none" stroke="black" d="M33.86,-46.59C48.36,-55.23 70.85,-68.62 89.18,-79.54"/>
<polygon fill="black" stroke="black" points="87.17,-82.41 97.55,-84.52 90.75,-76.4 87.17,-82.41"/>
<text text-anchor="middle" x="66" y="-73.94" font-family="Times,serif" font-size="14.00">0.25</text>
</g>
</g>
</svg>
