<?xml version="1.0" encoding="UTF-8" standalone="no"?>
<!DOCTYPE svg PUBLIC "-//W3C//DTD SVG 1.1//EN"
 "http://www.w3.org/Graphics/SVG/1.1/DTD/svg11.dtd">
<!-- Generated by graphviz version 9.0.0 (20230911.1827)
 -->
<!-- Title: neat Pages: 1 -->
<svg width="258pt" height="105pt"
 viewBox="0.00 0.00 258.24 104.74" xmlns="http://www.w3.org/2000/svg" xmlns:xlink="http://www.w3.org/1999/xlink">
<g id="graph0" class="graph" transform="scale(1 1) rotate(0) translate(4 100.74)">
<title>neat</title>
<polygon fill="white" stroke="none" points="-4,4 -4,-100.74 254.24,-100.74 254.24,4 -4,4"/>
<!-- node0 -->
<g id="node1" class="node">
<title>node0</title>
<ellipse fill="lightblue" stroke="black" cx="18" cy="-18" rx="18" ry="18"/>
<text text-anchor="middle" x="18" y="-12.95" font-family="Times,serif" font-size="14.00">0</text>
</g>
<!-- node1 -->
<g id="node2" class="node">
<title>node1</title>
<ellipse fill="lightblue" stroke="black" cx="18" cy="-72" rx="18" ry="18"/>
<text text-anchor="middle" x="18" y="-66.95" font-family="Times,serif" font-size="14.00">1</text>
</g>
<!-- node216 -->
<g id="node4" class="node">
<title>node216</title>
<ellipse fill="lightgray" stroke="black" cx="120.74" cy="-72" rx="24.74" ry="24.74"/>
<text text-anchor="middle" x="120.74" y="-66.95" font-family="Times,serif" font-size="14.00">216</text>
</g>
<!-- node1&#45;&gt;node216 -->
<g id="edge1" class="edge">
<title>node1&#45;&gt;node216</title>
<path fill="none" stroke="black" d="M36.09,-72C49.28,-72 67.98,-72 84.36,-72"/>
<polygon fill="black" stroke="black" points="84.24,-75.5 94.24,-72 84.24,-68.5 84.24,-75.5"/>
<text text-anchor="middle" x="66" y="-75.2" font-family="Times,serif" font-size="14.00">2.98</text>
</g>
<!-- node16 -->
<g id="node3" class="node">
<title>node16</title>
<ellipse fill="lightgreen" stroke="black" cx="230.11" cy="-72" rx="20.13" ry="20.13"/>
<text text-anchor="middle" x="230.11" y="-66.95" font-family="Times,serif" font-size="14.00">16</text>
</g>
<!-- node216&#45;&gt;node16 -->
<g id="edge2" class="edge">
<title>node216&#45;&gt;node16</title>
<path fill="none" stroke="black" d="M145.83,-72C161.36,-72 181.68,-72 198.36,-72"/>
<polygon fill="black" stroke="black" points="198.23,-75.5 208.23,-72 198.23,-68.5 198.23,-75.5"/>
<text text-anchor="middle" x="177.72" y="-75.2" font-family="Times,serif" font-size="14.00">&#45;1.18</text>
</g>
</g>
</svg>
