<?xml version="1.0" encoding="UTF-8" standalone="no"?>
<!DOCTYPE svg PUBLIC "-//W3C//DTD SVG 1.1//EN"
 "http://www.w3.org/Graphics/SVG/1.1/DTD/svg11.dtd">
<!-- Generated by graphviz version 9.0.0 (20230911.1827)
 -->
<!-- Title: neat Pages: 1 -->
<svg width="567pt" height="864pt"
 viewBox="0.00 0.00 567.42 864.00" xmlns="http://www.w3.org/2000/svg" xmlns:xlink="http://www.w3.org/1999/xlink">
<g id="graph0" class="graph" transform="scale(1 1) rotate(0) translate(4 860)">
<title>neat</title>
<polygon fill="white" stroke="none" points="-4,4 -4,-860 563.42,-860 563.42,4 -4,4"/>
<g id="clust1" class="cluster">
<title>cluster_0</title>
<path fill="none" stroke="gray" d="M20,-8C20,-8 539.42,-8 539.42,-8 545.42,-8 551.42,-14 551.42,-20 551.42,-20 551.42,-200 551.42,-200 551.42,-206 545.42,-212 539.42,-212 539.42,-212 20,-212 20,-212 14,-212 8,-206 8,-200 8,-200 8,-20 8,-20 8,-14 14,-8 20,-8"/>
<text text-anchor="middle" x="279.71" y="-194.7" font-family="Times,serif" font-size="14.00">Test 0,0 → 0</text>
</g>
<g id="clust2" class="cluster">
<title>cluster_1</title>
<path fill="none" stroke="gray" d="M20,-220C20,-220 539.42,-220 539.42,-220 545.42,-220 551.42,-226 551.42,-232 551.42,-232 551.42,-412 551.42,-412 551.42,-418 545.42,-424 539.42,-424 539.42,-424 20,-424 20,-424 14,-424 8,-418 8,-412 8,-412 8,-232 8,-232 8,-226 14,-220 20,-220"/>
<text text-anchor="middle" x="279.71" y="-406.7" font-family="Times,serif" font-size="14.00">Test 0,1 → 1</text>
</g>
<g id="clust3" class="cluster">
<title>cluster_2</title>
<path fill="none" stroke="gray" d="M20,-432C20,-432 539.42,-432 539.42,-432 545.42,-432 551.42,-438 551.42,-444 551.42,-444 551.42,-624 551.42,-624 551.42,-630 545.42,-636 539.42,-636 539.42,-636 20,-636 20,-636 14,-636 8,-630 8,-624 8,-624 8,-444 8,-444 8,-438 14,-432 20,-432"/>
<text text-anchor="middle" x="279.71" y="-618.7" font-family="Times,serif" font-size="14.00">Test 1,0 → 1</text>
</g>
<g id="clust4" class="cluster">
<title>cluster_3</title>
<path fill="none" stroke="gray" d="M20,-644C20,-644 539.42,-644 539.42,-644 545.42,-644 551.42,-650 551.42,-656 551.42,-656 551.42,-836 551.42,-836 551.42,-842 545.42,-848 539.42,-848 539.42,-848 20,-848 20,-848 14,-848 8,-842 8,-836 8,-836 8,-656 8,-656 8,-650 14,-644 20,-644"/>
<text text-anchor="middle" x="279.71" y="-830.7" font-family="Times,serif" font-size="14.00">Test 1,1 → 0</text>
</g>
<!-- node0_0 -->
<g id="node1" class="node">
<title>node0_0</title>
<ellipse fill="lightblue" stroke="black" cx="279.71" cy="-148" rx="31.9" ry="31.9"/>
<text text-anchor="middle" x="279.71" y="-142.95" font-family="Times,serif" font-size="14.00">0.000</text>
</g>
<!-- node39_0 -->
<g id="node3" class="node">
<title>node39_0</title>
<ellipse fill="lightgreen" stroke="black" cx="511.51" cy="-104" rx="31.9" ry="31.9"/>
<text text-anchor="middle" x="511.51" y="-98.95" font-family="Times,serif" font-size="14.00">0.998</text>
</g>
<!-- node0_0&#45;&gt;node39_0 -->
<g id="edge1" class="edge">
<title>node0_0&#45;&gt;node39_0</title>
<path fill="none" stroke="black" d="M311.22,-142.16C351.66,-134.42 423.16,-120.72 468.63,-112.02"/>
<polygon fill="black" stroke="black" points="469.22,-115.47 478.38,-110.15 467.9,-108.59 469.22,-115.47"/>
<text text-anchor="middle" x="395.61" y="-130.2" font-family="Times,serif" font-size="14.00">1.49</text>
</g>
<!-- node1_0 -->
<g id="node2" class="node">
<title>node1_0</title>
<ellipse fill="lightblue" stroke="black" cx="47.9" cy="-52" rx="31.9" ry="31.9"/>
<text text-anchor="middle" x="47.9" y="-46.95" font-family="Times,serif" font-size="14.00">0.000</text>
</g>
<!-- node161_0 -->
<g id="node4" class="node">
<title>node161_0</title>
<ellipse fill="lightgray" stroke="black" cx="279.71" cy="-48" rx="31.9" ry="31.9"/>
<text text-anchor="middle" x="279.71" y="-42.95" font-family="Times,serif" font-size="14.00">0.500</text>
</g>
<!-- node1_0&#45;&gt;node161_0 -->
<g id="edge2" class="edge">
<title>node1_0&#45;&gt;node161_0</title>
<path fill="none" stroke="black" d="M79.9,-51.46C120.16,-50.76 190.64,-49.53 235.96,-48.74"/>
<polygon fill="black" stroke="black" points="236.02,-52.24 245.96,-48.57 235.9,-45.24 236.02,-52.24"/>
<text text-anchor="middle" x="163.81" y="-53.2" font-family="Times,serif" font-size="14.00">1.00</text>
</g>
<!-- node161_0&#45;&gt;node39_0 -->
<g id="edge3" class="edge">
<title>node161_0&#45;&gt;node39_0</title>
<path fill="none" stroke="black" d="M311.22,-55.44C351.86,-65.34 423.87,-82.89 469.3,-93.96"/>
<polygon fill="black" stroke="black" points="468.22,-97.3 478.77,-96.26 469.88,-90.5 468.22,-97.3"/>
<text text-anchor="middle" x="395.61" y="-80.2" font-family="Times,serif" font-size="14.00">2.51</text>
</g>
<!-- node0_1 -->
<g id="node5" class="node">
<title>node0_1</title>
<ellipse fill="lightblue" stroke="black" cx="279.71" cy="-360" rx="31.9" ry="31.9"/>
<text text-anchor="middle" x="279.71" y="-354.95" font-family="Times,serif" font-size="14.00">0.000</text>
</g>
<!-- node39_1 -->
<g id="node7" class="node">
<title>node39_1</title>
<ellipse fill="lightgreen" stroke="black" cx="511.51" cy="-316" rx="31.9" ry="31.9"/>
<text text-anchor="middle" x="511.51" y="-310.95" font-family="Times,serif" font-size="14.00">1.000</text>
</g>
<!-- node0_1&#45;&gt;node39_1 -->
<g id="edge4" class="edge">
<title>node0_1&#45;&gt;node39_1</title>
<path fill="none" stroke="black" d="M311.22,-354.16C351.66,-346.42 423.16,-332.72 468.63,-324.02"/>
<polygon fill="black" stroke="black" points="469.22,-327.47 478.38,-322.15 467.9,-320.59 469.22,-327.47"/>
<text text-anchor="middle" x="395.61" y="-342.2" font-family="Times,serif" font-size="14.00">1.49</text>
</g>
<!-- node1_1 -->
<g id="node6" class="node">
<title>node1_1</title>
<ellipse fill="lightblue" stroke="black" cx="47.9" cy="-264" rx="31.9" ry="31.9"/>
<text text-anchor="middle" x="47.9" y="-258.95" font-family="Times,serif" font-size="14.00">1.000</text>
</g>
<!-- node161_1 -->
<g id="node8" class="node">
<title>node161_1</title>
<ellipse fill="lightgray" stroke="black" cx="279.71" cy="-260" rx="31.9" ry="31.9"/>
<text text-anchor="middle" x="279.71" y="-254.95" font-family="Times,serif" font-size="14.00">0.993</text>
</g>
<!-- node1_1&#45;&gt;node161_1 -->
<g id="edge5" class="edge">
<title>node1_1&#45;&gt;node161_1</title>
<path fill="none" stroke="black" d="M79.9,-263.46C120.16,-262.76 190.64,-261.53 235.96,-260.74"/>
<polygon fill="black" stroke="black" points="236.02,-264.24 245.96,-260.57 235.9,-257.24 236.02,-264.24"/>
<text text-anchor="middle" x="163.81" y="-265.2" font-family="Times,serif" font-size="14.00">1.00</text>
</g>
<!-- node161_1&#45;&gt;node39_1 -->
<g id="edge6" class="edge">
<title>node161_1&#45;&gt;node39_1</title>
<path fill="none" stroke="black" d="M311.22,-267.44C351.86,-277.34 423.87,-294.89 469.3,-305.96"/>
<polygon fill="black" stroke="black" points="468.22,-309.3 478.77,-308.26 469.88,-302.5 468.22,-309.3"/>
<text text-anchor="middle" x="395.61" y="-292.2" font-family="Times,serif" font-size="14.00">2.51</text>
</g>
<!-- node0_2 -->
<g id="node9" class="node">
<title>node0_2</title>
<ellipse fill="lightblue" stroke="black" cx="279.71" cy="-572" rx="31.9" ry="31.9"/>
<text text-anchor="middle" x="279.71" y="-566.95" font-family="Times,serif" font-size="14.00">1.000</text>
</g>
<!-- node39_2 -->
<g id="node11" class="node">
<title>node39_2</title>
<ellipse fill="lightgreen" stroke="black" cx="511.51" cy="-528" rx="31.9" ry="31.9"/>
<text text-anchor="middle" x="511.51" y="-522.95" font-family="Times,serif" font-size="14.00">1.000</text>
</g>
<!-- node0_2&#45;&gt;node39_2 -->
<g id="edge7" class="edge">
<title>node0_2&#45;&gt;node39_2</title>
<path fill="none" stroke="black" d="M311.22,-566.16C351.66,-558.42 423.16,-544.72 468.63,-536.02"/>
<polygon fill="black" stroke="black" points="469.22,-539.47 478.38,-534.15 467.9,-532.59 469.22,-539.47"/>
<text text-anchor="middle" x="395.61" y="-554.2" font-family="Times,serif" font-size="14.00">1.49</text>
</g>
<!-- node1_2 -->
<g id="node10" class="node">
<title>node1_2</title>
<ellipse fill="lightblue" stroke="black" cx="47.9" cy="-476" rx="31.9" ry="31.9"/>
<text text-anchor="middle" x="47.9" y="-470.95" font-family="Times,serif" font-size="14.00">0.000</text>
</g>
<!-- node161_2 -->
<g id="node12" class="node">
<title>node161_2</title>
<ellipse fill="lightgray" stroke="black" cx="279.71" cy="-472" rx="31.9" ry="31.9"/>
<text text-anchor="middle" x="279.71" y="-466.95" font-family="Times,serif" font-size="14.00">0.500</text>
</g>
<!-- node1_2&#45;&gt;node161_2 -->
<g id="edge8" class="edge">
<title>node1_2&#45;&gt;node161_2</title>
<path fill="none" stroke="black" d="M79.9,-475.46C120.16,-474.76 190.64,-473.53 235.96,-472.74"/>
<polygon fill="black" stroke="black" points="236.02,-476.24 245.96,-472.57 235.9,-469.24 236.02,-476.24"/>
<text text-anchor="middle" x="163.81" y="-477.2" font-family="Times,serif" font-size="14.00">1.00</text>
</g>
<!-- node161_2&#45;&gt;node39_2 -->
<g id="edge9" class="edge">
<title>node161_2&#45;&gt;node39_2</title>
<path fill="none" stroke="black" d="M311.22,-479.44C351.86,-489.34 423.87,-506.89 469.3,-517.96"/>
<polygon fill="black" stroke="black" points="468.22,-521.3 478.77,-520.26 469.88,-514.5 468.22,-521.3"/>
<text text-anchor="middle" x="395.61" y="-504.2" font-family="Times,serif" font-size="14.00">2.51</text>
</g>
<!-- node0_3 -->
<g id="node13" class="node">
<title>node0_3</title>
<ellipse fill="lightblue" stroke="black" cx="279.71" cy="-784" rx="31.9" ry="31.9"/>
<text text-anchor="middle" x="279.71" y="-778.95" font-family="Times,serif" font-size="14.00">1.000</text>
</g>
<!-- node39_3 -->
<g id="node15" class="node">
<title>node39_3</title>
<ellipse fill="lightgreen" stroke="black" cx="511.51" cy="-740" rx="31.9" ry="31.9"/>
<text text-anchor="middle" x="511.51" y="-734.95" font-family="Times,serif" font-size="14.00">1.000</text>
</g>
<!-- node0_3&#45;&gt;node39_3 -->
<g id="edge10" class="edge">
<title>node0_3&#45;&gt;node39_3</title>
<path fill="none" stroke="black" d="M311.22,-778.16C351.66,-770.42 423.16,-756.72 468.63,-748.02"/>
<polygon fill="black" stroke="black" points="469.22,-751.47 478.38,-746.15 467.9,-744.59 469.22,-751.47"/>
<text text-anchor="middle" x="395.61" y="-766.2" font-family="Times,serif" font-size="14.00">1.49</text>
</g>
<!-- node1_3 -->
<g id="node14" class="node">
<title>node1_3</title>
<ellipse fill="lightblue" stroke="black" cx="47.9" cy="-688" rx="31.9" ry="31.9"/>
<text text-anchor="middle" x="47.9" y="-682.95" font-family="Times,serif" font-size="14.00">1.000</text>
</g>
<!-- node161_3 -->
<g id="node16" class="node">
<title>node161_3</title>
<ellipse fill="lightgray" stroke="black" cx="279.71" cy="-684" rx="31.9" ry="31.9"/>
<text text-anchor="middle" x="279.71" y="-678.95" font-family="Times,serif" font-size="14.00">0.993</text>
</g>
<!-- node1_3&#45;&gt;node161_3 -->
<g id="edge11" class="edge">
<title>node1_3&#45;&gt;node161_3</title>
<path fill="none" stroke="black" d="M79.9,-687.46C120.16,-686.76 190.64,-685.53 235.96,-684.74"/>
<polygon fill="black" stroke="black" points="236.02,-688.24 245.96,-684.57 235.9,-681.24 236.02,-688.24"/>
<text text-anchor="middle" x="163.81" y="-689.2" font-family="Times,serif" font-size="14.00">1.00</text>
</g>
<!-- node161_3&#45;&gt;node39_3 -->
<g id="edge12" class="edge">
<title>node161_3&#45;&gt;node39_3</title>
<path fill="none" stroke="black" d="M311.22,-691.44C351.86,-701.34 423.87,-718.89 469.3,-729.96"/>
<polygon fill="black" stroke="black" points="468.22,-733.3 478.77,-732.26 469.88,-726.5 468.22,-733.3"/>
<text text-anchor="middle" x="395.61" y="-716.2" font-family="Times,serif" font-size="14.00">2.51</text>
</g>
</g>
</svg>
