<?xml version="1.0" encoding="UTF-8" standalone="no"?>
<!DOCTYPE svg PUBLIC "-//W3C//DTD SVG 1.1//EN"
 "http://www.w3.org/Graphics/SVG/1.1/DTD/svg11.dtd">
<!-- Generated by graphviz version 9.0.0 (20230911.1827)
 -->
<!-- Title: neat Pages: 1 -->
<svg width="377pt" height="117pt"
 viewBox="0.00 0.00 376.92 116.74" xmlns="http://www.w3.org/2000/svg" xmlns:xlink="http://www.w3.org/1999/xlink">
<g id="graph0" class="graph" transform="scale(1 1) rotate(0) translate(4 112.74)">
<title>neat</title>
<polygon fill="white" stroke="none" points="-4,4 -4,-112.74 372.92,-112.74 372.92,4 -4,4"/>
<!-- node0 -->
<g id="node1" class="node">
<title>node0</title>
<ellipse fill="lightblue" stroke="black" cx="120.74" cy="-90.74" rx="18" ry="18"/>
<text text-anchor="middle" x="120.74" y="-85.69" font-family="Times,serif" font-size="14.00">0</text>
</g>
<!-- node138 -->
<g id="node3" class="node">
<title>node138</title>
<ellipse fill="lightgreen" stroke="black" cx="344.19" cy="-66.74" rx="24.74" ry="24.74"/>
<text text-anchor="middle" x="344.19" y="-61.69" font-family="Times,serif" font-size="14.00">138</text>
</g>
<!-- node0&#45;&gt;node138 -->
<g id="edge1" class="edge">
<title>node0&#45;&gt;node138</title>
<path fill="none" stroke="black" d="M139.17,-90.03C171.38,-88.56 242.3,-84.55 301.45,-75.74 303.8,-75.39 306.21,-74.98 308.64,-74.55"/>
<polygon fill="black" stroke="black" points="309.27,-77.99 318.4,-72.61 307.91,-71.12 309.27,-77.99"/>
<text text-anchor="middle" x="234.71" y="-87.94" font-family="Times,serif" font-size="14.00">&#45;1.53</text>
</g>
<!-- node166 -->
<g id="node4" class="node">
<title>node166</title>
<ellipse fill="lightgray" stroke="black" cx="234.71" cy="-35.74" rx="24.74" ry="24.74"/>
<text text-anchor="middle" x="234.71" y="-30.69" font-family="Times,serif" font-size="14.00">166</text>
</g>
<!-- node0&#45;&gt;node166 -->
<g id="edge5" class="edge">
<title>node0&#45;&gt;node166</title>
<path fill="none" stroke="black" d="M136.56,-81.44C144.43,-76.66 154.34,-70.88 163.47,-66.24 175.45,-60.15 188.92,-54.12 200.83,-49.04"/>
<polygon fill="black" stroke="black" points="201.98,-52.35 209.85,-45.26 199.28,-45.9 201.98,-52.35"/>
<text text-anchor="middle" x="177.72" y="-68.94" font-family="Times,serif" font-size="14.00">0.78</text>
</g>
<!-- node1 -->
<g id="node2" class="node">
<title>node1</title>
<ellipse fill="lightblue" stroke="black" cx="18" cy="-24.74" rx="18" ry="18"/>
<text text-anchor="middle" x="18" y="-19.69" font-family="Times,serif" font-size="14.00">1</text>
</g>
<!-- node251 -->
<g id="node5" class="node">
<title>node251</title>
<ellipse fill="lightgray" stroke="black" cx="120.74" cy="-24.74" rx="24.74" ry="24.74"/>
<text text-anchor="middle" x="120.74" y="-19.69" font-family="Times,serif" font-size="14.00">251</text>
</g>
<!-- node1&#45;&gt;node251 -->
<g id="edge3" class="edge">
<title>node1&#45;&gt;node251</title>
<path fill="none" stroke="black" d="M36.09,-24.74C49.28,-24.74 67.98,-24.74 84.36,-24.74"/>
<polygon fill="black" stroke="black" points="84.24,-28.24 94.24,-24.74 84.24,-21.24 84.24,-28.24"/>
<text text-anchor="middle" x="66" y="-27.94" font-family="Times,serif" font-size="14.00">1.00</text>
</g>
<!-- node166&#45;&gt;node138 -->
<g id="edge2" class="edge">
<title>node166&#45;&gt;node138</title>
<path fill="none" stroke="black" d="M259.03,-42.46C273.68,-46.69 292.82,-52.21 309.15,-56.92"/>
<polygon fill="black" stroke="black" points="307.88,-60.2 318.46,-59.6 309.82,-53.47 307.88,-60.2"/>
<text text-anchor="middle" x="289.45" y="-57.94" font-family="Times,serif" font-size="14.00">4.07</text>
</g>
<!-- node251&#45;&gt;node166 -->
<g id="edge4" class="edge">
<title>node251&#45;&gt;node166</title>
<path fill="none" stroke="black" d="M145.88,-24.05C159.47,-23.97 176.72,-24.36 191.97,-26.24 194.34,-26.53 196.76,-26.9 199.2,-27.31"/>
<polygon fill="black" stroke="black" points="198.48,-30.74 208.98,-29.27 199.86,-23.88 198.48,-30.74"/>
<text text-anchor="middle" x="177.72" y="-29.94" font-family="Times,serif" font-size="14.00">&#45;3.88</text>
</g>
</g>
</svg>
