<?xml version="1.0" encoding="UTF-8" standalone="no"?>
<!DOCTYPE svg PUBLIC "-//W3C//DTD SVG 1.1//EN"
 "http://www.w3.org/Graphics/SVG/1.1/DTD/svg11.dtd">
<!-- Generated by graphviz version 9.0.0 (20230911.1827)
 -->
<!-- Title: neat Pages: 1 -->
<svg width="368pt" height="112pt"
 viewBox="0.00 0.00 367.71 111.74" xmlns="http://www.w3.org/2000/svg" xmlns:xlink="http://www.w3.org/1999/xlink">
<g id="graph0" class="graph" transform="scale(1 1) rotate(0) translate(4 107.74)">
<title>neat</title>
<polygon fill="white" stroke="none" points="-4,4 -4,-107.74 363.71,-107.74 363.71,4 -4,4"/>
<!-- node0 -->
<g id="node1" class="node">
<title>node0</title>
<ellipse fill="lightblue" stroke="black" cx="230.21" cy="-85.74" rx="18" ry="18"/>
<text text-anchor="middle" x="230.21" y="-80.69" font-family="Times,serif" font-size="14.00">0</text>
</g>
<!-- node45 -->
<g id="node3" class="node">
<title>node45</title>
<ellipse fill="lightgreen" stroke="black" cx="339.58" cy="-55.74" rx="20.13" ry="20.13"/>
<text text-anchor="middle" x="339.58" y="-50.69" font-family="Times,serif" font-size="14.00">45</text>
</g>
<!-- node0&#45;&gt;node45 -->
<g id="edge1" class="edge">
<title>node0&#45;&gt;node45</title>
<path fill="none" stroke="black" d="M247.99,-81.05C264.26,-76.5 289.29,-69.51 308.93,-64.02"/>
<polygon fill="black" stroke="black" points="309.61,-67.47 318.3,-61.4 307.72,-60.72 309.61,-67.47"/>
<text text-anchor="middle" x="287.2" y="-75.94" font-family="Times,serif" font-size="14.00">2.43</text>
</g>
<!-- node1 -->
<g id="node2" class="node">
<title>node1</title>
<ellipse fill="lightblue" stroke="black" cx="18" cy="-24.74" rx="18" ry="18"/>
<text text-anchor="middle" x="18" y="-19.69" font-family="Times,serif" font-size="14.00">1</text>
</g>
<!-- node167 -->
<g id="node4" class="node">
<title>node167</title>
<ellipse fill="lightgray" stroke="black" cx="120.74" cy="-24.74" rx="24.74" ry="24.74"/>
<text text-anchor="middle" x="120.74" y="-19.69" font-family="Times,serif" font-size="14.00">167</text>
</g>
<!-- node1&#45;&gt;node167 -->
<g id="edge2" class="edge">
<title>node1&#45;&gt;node167</title>
<path fill="none" stroke="black" d="M36.09,-24.74C49.28,-24.74 67.98,-24.74 84.36,-24.74"/>
<polygon fill="black" stroke="black" points="84.24,-28.24 94.24,-24.74 84.24,-21.24 84.24,-28.24"/>
<text text-anchor="middle" x="66" y="-27.94" font-family="Times,serif" font-size="14.00">3.05</text>
</g>
<!-- node199 -->
<g id="node5" class="node">
<title>node199</title>
<ellipse fill="lightgray" stroke="black" cx="230.21" cy="-24.74" rx="24.74" ry="24.74"/>
<text text-anchor="middle" x="230.21" y="-19.69" font-family="Times,serif" font-size="14.00">199</text>
</g>
<!-- node167&#45;&gt;node199 -->
<g id="edge3" class="edge">
<title>node167&#45;&gt;node199</title>
<path fill="none" stroke="black" d="M145.86,-24.74C159.96,-24.74 178.03,-24.74 193.73,-24.74"/>
<polygon fill="black" stroke="black" points="193.66,-28.24 203.66,-24.74 193.66,-21.24 193.66,-28.24"/>
<text text-anchor="middle" x="175.47" y="-27.94" font-family="Times,serif" font-size="14.00">1.00</text>
</g>
<!-- node199&#45;&gt;node45 -->
<g id="edge4" class="edge">
<title>node199&#45;&gt;node45</title>
<path fill="none" stroke="black" d="M254.51,-31.46C270.6,-36.11 292.12,-42.32 309.35,-47.3"/>
<polygon fill="black" stroke="black" points="307.93,-50.53 318.51,-49.94 309.87,-43.81 307.93,-50.53"/>
<text text-anchor="middle" x="287.2" y="-48.94" font-family="Times,serif" font-size="14.00">&#45;0.93</text>
</g>
</g>
</svg>
