<?xml version="1.0" encoding="UTF-8" standalone="no"?>
<!DOCTYPE svg PUBLIC "-//W3C//DTD SVG 1.1//EN"
 "http://www.w3.org/Graphics/SVG/1.1/DTD/svg11.dtd">
<!-- Generated by graphviz version 9.0.0 (20230911.1827)
 -->
<!-- Title: neat Pages: 1 -->
<svg width="263pt" height="116pt"
 viewBox="0.00 0.00 262.95 115.87" xmlns="http://www.w3.org/2000/svg" xmlns:xlink="http://www.w3.org/1999/xlink">
<g id="graph0" class="graph" transform="scale(1 1) rotate(0) translate(4 111.87)">
<title>neat</title>
<polygon fill="white" stroke="none" points="-4,4 -4,-111.87 258.95,-111.87 258.95,4 -4,4"/>
<!-- node0 -->
<g id="node1" class="node">
<title>node0</title>
<ellipse fill="lightblue" stroke="black" cx="18" cy="-20.13" rx="18" ry="18"/>
<text text-anchor="middle" x="18" y="-15.08" font-family="Times,serif" font-size="14.00">0</text>
</g>
<!-- node45 -->
<g id="node3" class="node">
<title>node45</title>
<ellipse fill="lightgreen" stroke="black" cx="120.74" cy="-20.13" rx="20.13" ry="20.13"/>
<text text-anchor="middle" x="120.74" y="-15.08" font-family="Times,serif" font-size="14.00">45</text>
</g>
<!-- node0&#45;&gt;node45 -->
<g id="edge1" class="edge">
<title>node0&#45;&gt;node45</title>
<path fill="none" stroke="black" d="M36.09,-20.13C50.5,-20.13 71.49,-20.13 88.84,-20.13"/>
<polygon fill="black" stroke="black" points="88.63,-23.63 98.63,-20.13 88.63,-16.63 88.63,-23.63"/>
<text text-anchor="middle" x="66" y="-23.33" font-family="Times,serif" font-size="14.00">1.19</text>
</g>
<!-- node1 -->
<g id="node2" class="node">
<title>node1</title>
<ellipse fill="lightblue" stroke="black" cx="18" cy="-83.13" rx="18" ry="18"/>
<text text-anchor="middle" x="18" y="-78.08" font-family="Times,serif" font-size="14.00">1</text>
</g>
<!-- node167 -->
<g id="node4" class="node">
<title>node167</title>
<ellipse fill="lightgray" stroke="black" cx="120.74" cy="-83.13" rx="24.74" ry="24.74"/>
<text text-anchor="middle" x="120.74" y="-78.08" font-family="Times,serif" font-size="14.00">167</text>
</g>
<!-- node1&#45;&gt;node167 -->
<g id="edge2" class="edge">
<title>node1&#45;&gt;node167</title>
<path fill="none" stroke="black" d="M36.09,-83.13C49.28,-83.13 67.98,-83.13 84.36,-83.13"/>
<polygon fill="black" stroke="black" points="84.24,-86.63 94.24,-83.13 84.24,-79.63 84.24,-86.63"/>
<text text-anchor="middle" x="66" y="-86.33" font-family="Times,serif" font-size="14.00">4.47</text>
</g>
<!-- node199 -->
<g id="node5" class="node">
<title>node199</title>
<ellipse fill="lightgray" stroke="black" cx="230.21" cy="-83.13" rx="24.74" ry="24.74"/>
<text text-anchor="middle" x="230.21" y="-78.08" font-family="Times,serif" font-size="14.00">199</text>
</g>
<!-- node167&#45;&gt;node199 -->
<g id="edge3" class="edge">
<title>node167&#45;&gt;node199</title>
<path fill="none" stroke="black" d="M145.86,-83.13C159.96,-83.13 178.03,-83.13 193.73,-83.13"/>
<polygon fill="black" stroke="black" points="193.66,-86.63 203.66,-83.13 193.66,-79.63 193.66,-86.63"/>
<text text-anchor="middle" x="175.47" y="-86.33" font-family="Times,serif" font-size="14.00">1.00</text>
</g>
</g>
</svg>
