<?xml version="1.0" encoding="UTF-8" standalone="no"?>
<!DOCTYPE svg PUBLIC "-//W3C//DTD SVG 1.1//EN"
 "http://www.w3.org/Graphics/SVG/1.1/DTD/svg11.dtd">
<!-- Generated by graphviz version 9.0.0 (20230911.1827)
 -->
<!-- Title: neat Pages: 1 -->
<svg width="319pt" height="154pt"
 viewBox="0.00 0.00 319.42 153.81" xmlns="http://www.w3.org/2000/svg" xmlns:xlink="http://www.w3.org/1999/xlink">
<g id="graph0" class="graph" transform="scale(1 1) rotate(0) translate(4 149.81)">
<title>neat</title>
<polygon fill="white" stroke="none" points="-4,4 -4,-149.81 315.42,-149.81 315.42,4 -4,4"/>
<!-- node0 -->
<g id="node1" class="node">
<title>node0</title>
<ellipse fill="lightblue" stroke="black" cx="31.9" cy="-113.9" rx="31.9" ry="31.9"/>
<text text-anchor="middle" x="31.9" y="-108.85" font-family="Times,serif" font-size="14.00">0.000</text>
</g>
<!-- node122 -->
<g id="node3" class="node">
<title>node122</title>
<ellipse fill="lightgreen" stroke="black" cx="279.51" cy="-79.9" rx="31.9" ry="31.9"/>
<text text-anchor="middle" x="279.51" y="-74.85" font-family="Times,serif" font-size="14.00">0.999</text>
</g>
<!-- node0&#45;&gt;node122 -->
<g id="edge1" class="edge">
<title>node0&#45;&gt;node122</title>
<path fill="none" stroke="black" d="M63.91,-109.7C102.68,-104.44 171.07,-95.11 229.61,-86.9 231.78,-86.6 234,-86.29 236.24,-85.97"/>
<polygon fill="black" stroke="black" points="236.57,-89.46 245.97,-84.59 235.58,-82.53 236.57,-89.46"/>
<text text-anchor="middle" x="155.71" y="-104.1" font-family="Times,serif" font-size="14.00">0.05</text>
</g>
<!-- node152 -->
<g id="node4" class="node">
<title>node152</title>
<ellipse fill="lightgray" stroke="black" cx="155.71" cy="-45.9" rx="31.9" ry="31.9"/>
<text text-anchor="middle" x="155.71" y="-40.85" font-family="Times,serif" font-size="14.00">0.996</text>
</g>
<!-- node0&#45;&gt;node152 -->
<g id="edge4" class="edge">
<title>node0&#45;&gt;node152</title>
<path fill="none" stroke="black" d="M59.31,-96.88C66.53,-92.38 74.41,-87.6 81.81,-83.4 92.99,-77.05 105.36,-70.52 116.68,-64.71"/>
<polygon fill="black" stroke="black" points="118.04,-67.95 125.38,-60.3 114.87,-61.71 118.04,-67.95"/>
<text text-anchor="middle" x="93.81" y="-86.1" font-family="Times,serif" font-size="14.00">1.07</text>
</g>
<!-- node1 -->
<g id="node2" class="node">
<title>node1</title>
<ellipse fill="lightblue" stroke="black" cx="31.9" cy="-31.9" rx="31.9" ry="31.9"/>
<text text-anchor="middle" x="31.9" y="-26.85" font-family="Times,serif" font-size="14.00">1.000</text>
</g>
<!-- node1&#45;&gt;node152 -->
<g id="edge2" class="edge">
<title>node1&#45;&gt;node152</title>
<path fill="none" stroke="black" d="M64.17,-34.25C77.08,-35.34 92.18,-36.75 105.81,-38.4 107.98,-38.67 110.21,-38.95 112.45,-39.25"/>
<polygon fill="black" stroke="black" points="111.81,-42.7 122.21,-40.63 112.8,-35.77 111.81,-42.7"/>
<text text-anchor="middle" x="93.81" y="-42.1" font-family="Times,serif" font-size="14.00">1.13</text>
</g>
<!-- node152&#45;&gt;node122 -->
<g id="edge3" class="edge">
<title>node152&#45;&gt;node122</title>
<path fill="none" stroke="black" d="M186.82,-54.31C202.04,-58.56 220.75,-63.78 237.29,-68.4"/>
<polygon fill="black" stroke="black" points="236.3,-71.75 246.87,-71.07 238.18,-65.01 236.3,-71.75"/>
<text text-anchor="middle" x="217.61" y="-69.1" font-family="Times,serif" font-size="14.00">1.52</text>
</g>
</g>
</svg>
