<?xml version="1.0" encoding="UTF-8" standalone="no"?>
<!DOCTYPE svg PUBLIC "-//W3C//DTD SVG 1.1//EN"
 "http://www.w3.org/Graphics/SVG/1.1/DTD/svg11.dtd">
<!-- Generated by graphviz version 9.0.0 (20230911.1827)
 -->
<!-- Title: neat Pages: 1 -->
<svg width="267pt" height="135pt"
 viewBox="0.00 0.00 267.45 134.74" xmlns="http://www.w3.org/2000/svg" xmlns:xlink="http://www.w3.org/1999/xlink">
<g id="graph0" class="graph" transform="scale(1 1) rotate(0) translate(4 130.74)">
<title>neat</title>
<polygon fill="white" stroke="none" points="-4,4 -4,-130.74 263.45,-130.74 263.45,4 -4,4"/>
<!-- node0 -->
<g id="node1" class="node">
<title>node0</title>
<ellipse fill="lightblue" stroke="black" cx="18" cy="-18" rx="18" ry="18"/>
<text text-anchor="middle" x="18" y="-12.95" font-family="Times,serif" font-size="14.00">0</text>
</g>
<!-- node1 -->
<g id="node2" class="node">
<title>node1</title>
<ellipse fill="lightblue" stroke="black" cx="18" cy="-72" rx="18" ry="18"/>
<text text-anchor="middle" x="18" y="-66.95" font-family="Times,serif" font-size="14.00">1</text>
</g>
<!-- node159 -->
<g id="node4" class="node">
<title>node159</title>
<ellipse fill="lightgray" stroke="black" cx="120.74" cy="-102" rx="24.74" ry="24.74"/>
<text text-anchor="middle" x="120.74" y="-96.95" font-family="Times,serif" font-size="14.00">159</text>
</g>
<!-- node1&#45;&gt;node159 -->
<g id="edge1" class="edge">
<title>node1&#45;&gt;node159</title>
<path fill="none" stroke="black" d="M35.63,-76.95C49.3,-81.02 69.08,-86.92 86.03,-91.96"/>
<polygon fill="black" stroke="black" points="84.64,-95.2 95.22,-94.7 86.63,-88.49 84.64,-95.2"/>
<text text-anchor="middle" x="66" y="-91.2" font-family="Times,serif" font-size="14.00">4.16</text>
</g>
<!-- node211 -->
<g id="node5" class="node">
<title>node211</title>
<ellipse fill="lightgray" stroke="black" cx="120.74" cy="-35" rx="24.74" ry="24.74"/>
<text text-anchor="middle" x="120.74" y="-29.95" font-family="Times,serif" font-size="14.00">211</text>
</g>
<!-- node1&#45;&gt;node211 -->
<g id="edge3" class="edge">
<title>node1&#45;&gt;node211</title>
<path fill="none" stroke="black" d="M35.19,-66.06C48.96,-60.99 69.2,-53.56 86.43,-47.23"/>
<polygon fill="black" stroke="black" points="87.61,-50.53 95.79,-43.8 85.2,-43.96 87.61,-50.53"/>
<text text-anchor="middle" x="66" y="-62.2" font-family="Times,serif" font-size="14.00">0.41</text>
</g>
<!-- node141 -->
<g id="node3" class="node">
<title>node141</title>
<ellipse fill="lightgreen" stroke="black" cx="234.71" cy="-68" rx="24.74" ry="24.74"/>
<text text-anchor="middle" x="234.71" y="-62.95" font-family="Times,serif" font-size="14.00">141</text>
</g>
<!-- node159&#45;&gt;node141 -->
<g id="edge2" class="edge">
<title>node159&#45;&gt;node141</title>
<path fill="none" stroke="black" d="M144.94,-94.96C160.78,-90.15 182.02,-83.69 199.76,-78.31"/>
<polygon fill="black" stroke="black" points="200.54,-81.73 209.09,-75.48 198.51,-75.03 200.54,-81.73"/>
<text text-anchor="middle" x="177.72" y="-92.2" font-family="Times,serif" font-size="14.00">&#45;5.84</text>
</g>
<!-- node211&#45;&gt;node141 -->
<g id="edge4" class="edge">
<title>node211&#45;&gt;node141</title>
<path fill="none" stroke="black" d="M144.94,-41.84C160.7,-46.48 181.82,-52.71 199.51,-57.92"/>
<polygon fill="black" stroke="black" points="198.51,-61.27 209.09,-60.74 200.49,-54.56 198.51,-61.27"/>
<text text-anchor="middle" x="177.72" y="-59.2" font-family="Times,serif" font-size="14.00">&#45;0.70</text>
</g>
</g>
</svg>
