<?xml version="1.0" encoding="UTF-8" standalone="no"?>
<!DOCTYPE svg PUBLIC "-//W3C//DTD SVG 1.1//EN"
 "http://www.w3.org/Graphics/SVG/1.1/DTD/svg11.dtd">
<!-- Generated by graphviz version 9.0.0 (20230911.1827)
 -->
<!-- Title: neat Pages: 1 -->
<svg width="267pt" height="131pt"
 viewBox="0.00 0.00 267.45 130.74" xmlns="http://www.w3.org/2000/svg" xmlns:xlink="http://www.w3.org/1999/xlink">
<g id="graph0" class="graph" transform="scale(1 1) rotate(0) translate(4 126.74)">
<title>neat</title>
<polygon fill="white" stroke="none" points="-4,4 -4,-126.74 263.45,-126.74 263.45,4 -4,4"/>
<!-- node0 -->
<g id="node1" class="node">
<title>node0</title>
<ellipse fill="lightblue" stroke="black" cx="18" cy="-88" rx="18" ry="18"/>
<text text-anchor="middle" x="18" y="-82.95" font-family="Times,serif" font-size="14.00">0</text>
</g>
<!-- node165 -->
<g id="node4" class="node">
<title>node165</title>
<ellipse fill="lightgray" stroke="black" cx="120.74" cy="-88" rx="24.74" ry="24.74"/>
<text text-anchor="middle" x="120.74" y="-82.95" font-family="Times,serif" font-size="14.00">165</text>
</g>
<!-- node0&#45;&gt;node165 -->
<g id="edge2" class="edge">
<title>node0&#45;&gt;node165</title>
<path fill="none" stroke="black" d="M36.09,-88C49.28,-88 67.98,-88 84.36,-88"/>
<polygon fill="black" stroke="black" points="84.24,-91.5 94.24,-88 84.24,-84.5 84.24,-91.5"/>
<text text-anchor="middle" x="66" y="-91.2" font-family="Times,serif" font-size="14.00">1.94</text>
</g>
<!-- node1 -->
<g id="node2" class="node">
<title>node1</title>
<ellipse fill="lightblue" stroke="black" cx="120.74" cy="-18" rx="18" ry="18"/>
<text text-anchor="middle" x="120.74" y="-12.95" font-family="Times,serif" font-size="14.00">1</text>
</g>
<!-- node91 -->
<g id="node3" class="node">
<title>node91</title>
<ellipse fill="lightgreen" stroke="black" cx="234.71" cy="-27" rx="20.13" ry="20.13"/>
<text text-anchor="middle" x="234.71" y="-21.95" font-family="Times,serif" font-size="14.00">91</text>
</g>
<!-- node1&#45;&gt;node91 -->
<g id="edge1" class="edge">
<title>node1&#45;&gt;node91</title>
<path fill="none" stroke="black" d="M139.1,-17.62C153.34,-17.48 174.01,-17.71 191.97,-19.5 195.71,-19.87 199.61,-20.4 203.47,-20.99"/>
<polygon fill="black" stroke="black" points="202.74,-24.42 213.19,-22.68 203.94,-17.52 202.74,-24.42"/>
<text text-anchor="middle" x="177.72" y="-23.2" font-family="Times,serif" font-size="14.00">&#45;2.35</text>
</g>
<!-- node165&#45;&gt;node91 -->
<g id="edge4" class="edge">
<title>node165&#45;&gt;node91</title>
<path fill="none" stroke="black" d="M143.06,-76.38C161.05,-66.58 186.91,-52.5 206.41,-41.87"/>
<polygon fill="black" stroke="black" points="208.06,-44.96 215.17,-37.1 204.71,-38.81 208.06,-44.96"/>
<text text-anchor="middle" x="177.72" y="-67.2" font-family="Times,serif" font-size="14.00">1.06</text>
</g>
<!-- node190 -->
<g id="node5" class="node">
<title>node190</title>
<ellipse fill="lightgray" stroke="black" cx="234.71" cy="-98" rx="24.74" ry="24.74"/>
<text text-anchor="middle" x="234.71" y="-92.95" font-family="Times,serif" font-size="14.00">190</text>
</g>
<!-- node165&#45;&gt;node190 -->
<g id="edge3" class="edge">
<title>node165&#45;&gt;node190</title>
<path fill="none" stroke="black" d="M145.76,-90.15C161.11,-91.52 181.28,-93.32 198.43,-94.85"/>
<polygon fill="black" stroke="black" points="197.95,-98.32 208.22,-95.72 198.57,-91.35 197.95,-98.32"/>
<text text-anchor="middle" x="177.72" y="-97.2" font-family="Times,serif" font-size="14.00">&#45;1.15</text>
</g>
</g>
</svg>
