<?xml version="1.0" encoding="UTF-8" standalone="no"?>
<!DOCTYPE svg PUBLIC "-//W3C//DTD SVG 1.1//EN"
 "http://www.w3.org/Graphics/SVG/1.1/DTD/svg11.dtd">
<!-- Generated by graphviz version 9.0.0 (20230911.1827)
 -->
<!-- Title: neat Pages: 1 -->
<svg width="267pt" height="131pt"
 viewBox="0.00 0.00 267.45 130.74" xmlns="http://www.w3.org/2000/svg" xmlns:xlink="http://www.w3.org/1999/xlink">
<g id="graph0" class="graph" transform="scale(1 1) rotate(0) translate(4 126.74)">
<title>neat</title>
<polygon fill="white" stroke="none" points="-4,4 -4,-126.74 263.45,-126.74 263.45,4 -4,4"/>
<!-- node0 -->
<g id="node1" class="node">
<title>node0</title>
<ellipse fill="lightblue" stroke="black" cx="18" cy="-85" rx="18" ry="18"/>
<text text-anchor="middle" x="18" y="-79.95" font-family="Times,serif" font-size="14.00">0</text>
</g>
<!-- node194 -->
<g id="node5" class="node">
<title>node194</title>
<ellipse fill="lightgray" stroke="black" cx="120.74" cy="-25" rx="24.74" ry="24.74"/>
<text text-anchor="middle" x="120.74" y="-19.95" font-family="Times,serif" font-size="14.00">194</text>
</g>
<!-- node0&#45;&gt;node194 -->
<g id="edge5" class="edge">
<title>node0&#45;&gt;node194</title>
<path fill="none" stroke="black" d="M33.86,-76.15C48.36,-67.51 70.85,-54.12 89.18,-43.2"/>
<polygon fill="black" stroke="black" points="90.75,-46.34 97.55,-38.21 87.17,-40.32 90.75,-46.34"/>
<text text-anchor="middle" x="66" y="-67.2" font-family="Times,serif" font-size="14.00">0.74</text>
</g>
<!-- node260 -->
<g id="node6" class="node">
<title>node260</title>
<ellipse fill="lightgray" stroke="black" cx="120.74" cy="-98" rx="24.74" ry="24.74"/>
<text text-anchor="middle" x="120.74" y="-92.95" font-family="Times,serif" font-size="14.00">260</text>
</g>
<!-- node0&#45;&gt;node260 -->
<g id="edge3" class="edge">
<title>node0&#45;&gt;node260</title>
<path fill="none" stroke="black" d="M36.09,-87.21C49.28,-88.91 67.98,-91.32 84.36,-93.43"/>
<polygon fill="black" stroke="black" points="83.89,-96.9 94.26,-94.71 84.79,-89.96 83.89,-96.9"/>
<text text-anchor="middle" x="66" y="-96.2" font-family="Times,serif" font-size="14.00">1.43</text>
</g>
<!-- node1 -->
<g id="node2" class="node">
<title>node1</title>
<ellipse fill="lightblue" stroke="black" cx="18" cy="-18" rx="18" ry="18"/>
<text text-anchor="middle" x="18" y="-12.95" font-family="Times,serif" font-size="14.00">1</text>
</g>
<!-- node1&#45;&gt;node194 -->
<g id="edge1" class="edge">
<title>node1&#45;&gt;node194</title>
<path fill="none" stroke="black" d="M36.32,-17.96C48.09,-18.05 64.01,-18.4 78,-19.5 80.19,-19.67 82.43,-19.88 84.7,-20.11"/>
<polygon fill="black" stroke="black" points="84.1,-23.56 94.44,-21.25 84.92,-16.61 84.1,-23.56"/>
<text text-anchor="middle" x="66" y="-23.2" font-family="Times,serif" font-size="14.00">0.02</text>
</g>
<!-- node148 -->
<g id="node3" class="node">
<title>node148</title>
<ellipse fill="lightgreen" stroke="black" cx="234.71" cy="-98" rx="24.74" ry="24.74"/>
<text text-anchor="middle" x="234.71" y="-92.95" font-family="Times,serif" font-size="14.00">148</text>
</g>
<!-- node179 -->
<g id="node4" class="node">
<title>node179</title>
<ellipse fill="lightgray" stroke="black" cx="234.71" cy="-25" rx="24.74" ry="24.74"/>
<text text-anchor="middle" x="234.71" y="-19.95" font-family="Times,serif" font-size="14.00">179</text>
</g>
<!-- node194&#45;&gt;node179 -->
<g id="edge2" class="edge">
<title>node194&#45;&gt;node179</title>
<path fill="none" stroke="black" d="M145.76,-25C161.11,-25 181.28,-25 198.43,-25"/>
<polygon fill="black" stroke="black" points="198.22,-28.5 208.22,-25 198.22,-21.5 198.22,-28.5"/>
<text text-anchor="middle" x="177.72" y="-28.2" font-family="Times,serif" font-size="14.00">4.19</text>
</g>
<!-- node260&#45;&gt;node148 -->
<g id="edge4" class="edge">
<title>node260&#45;&gt;node148</title>
<path fill="none" stroke="black" d="M145.76,-98C161.11,-98 181.28,-98 198.43,-98"/>
<polygon fill="black" stroke="black" points="198.22,-101.5 208.22,-98 198.22,-94.5 198.22,-101.5"/>
<text text-anchor="middle" x="177.72" y="-101.2" font-family="Times,serif" font-size="14.00">&#45;4.06</text>
</g>
</g>
</svg>
