<?xml version="1.0" encoding="UTF-8" standalone="no"?>
<!DOCTYPE svg PUBLIC "-//W3C//DTD SVG 1.1//EN"
 "http://www.w3.org/Graphics/SVG/1.1/DTD/svg11.dtd">
<!-- Generated by graphviz version 9.0.0 (20230911.1827)
 -->
<!-- Title: neat Pages: 1 -->
<svg width="258pt" height="179pt"
 viewBox="0.00 0.00 258.24 178.74" xmlns="http://www.w3.org/2000/svg" xmlns:xlink="http://www.w3.org/1999/xlink">
<g id="graph0" class="graph" transform="scale(1 1) rotate(0) translate(4 174.74)">
<title>neat</title>
<polygon fill="white" stroke="none" points="-4,4 -4,-174.74 254.24,-174.74 254.24,4 -4,4"/>
<!-- node0 -->
<g id="node1" class="node">
<title>node0</title>
<ellipse fill="lightblue" stroke="black" cx="18" cy="-112" rx="18" ry="18"/>
<text text-anchor="middle" x="18" y="-106.95" font-family="Times,serif" font-size="14.00">0</text>
</g>
<!-- node182 -->
<g id="node4" class="node">
<title>node182</title>
<ellipse fill="lightgray" stroke="black" cx="120.74" cy="-146" rx="24.74" ry="24.74"/>
<text text-anchor="middle" x="120.74" y="-140.95" font-family="Times,serif" font-size="14.00">182</text>
</g>
<!-- node0&#45;&gt;node182 -->
<g id="edge2" class="edge">
<title>node0&#45;&gt;node182</title>
<path fill="none" stroke="black" d="M35.19,-117.46C48.87,-122.08 68.94,-128.85 86.08,-134.64"/>
<polygon fill="black" stroke="black" points="84.81,-137.9 95.4,-137.79 87.05,-131.27 84.81,-137.9"/>
<text text-anchor="middle" x="66" y="-134.2" font-family="Times,serif" font-size="14.00">0.17</text>
</g>
<!-- node195 -->
<g id="node5" class="node">
<title>node195</title>
<ellipse fill="lightgray" stroke="black" cx="120.74" cy="-79" rx="24.74" ry="24.74"/>
<text text-anchor="middle" x="120.74" y="-73.95" font-family="Times,serif" font-size="14.00">195</text>
</g>
<!-- node0&#45;&gt;node195 -->
<g id="edge3" class="edge">
<title>node0&#45;&gt;node195</title>
<path fill="none" stroke="black" d="M35.38,-106.61C41.25,-104.68 47.92,-102.49 54,-100.5 64.47,-97.07 75.89,-93.33 86.22,-89.95"/>
<polygon fill="black" stroke="black" points="87.06,-93.36 95.48,-86.93 84.89,-86.71 87.06,-93.36"/>
<text text-anchor="middle" x="66" y="-103.2" font-family="Times,serif" font-size="14.00">1.87</text>
</g>
<!-- node1 -->
<g id="node2" class="node">
<title>node1</title>
<ellipse fill="lightblue" stroke="black" cx="120.74" cy="-18" rx="18" ry="18"/>
<text text-anchor="middle" x="120.74" y="-12.95" font-family="Times,serif" font-size="14.00">1</text>
</g>
<!-- node71 -->
<g id="node3" class="node">
<title>node71</title>
<ellipse fill="lightgreen" stroke="black" cx="230.11" cy="-79" rx="20.13" ry="20.13"/>
<text text-anchor="middle" x="230.11" y="-73.95" font-family="Times,serif" font-size="14.00">71</text>
</g>
<!-- node1&#45;&gt;node71 -->
<g id="edge1" class="edge">
<title>node1&#45;&gt;node71</title>
<path fill="none" stroke="black" d="M136.67,-26.48C153.62,-36.12 181.63,-52.02 202.37,-63.81"/>
<polygon fill="black" stroke="black" points="200.44,-66.74 210.87,-68.64 203.9,-60.65 200.44,-66.74"/>
<text text-anchor="middle" x="177.72" y="-60.2" font-family="Times,serif" font-size="14.00">2.48</text>
</g>
<!-- node182&#45;&gt;node71 -->
<g id="edge5" class="edge">
<title>node182&#45;&gt;node71</title>
<path fill="none" stroke="black" d="M142.19,-133.24C159.43,-122.48 184.23,-107 202.93,-95.34"/>
<polygon fill="black" stroke="black" points="204.69,-98.36 211.32,-90.1 200.98,-92.43 204.69,-98.36"/>
<text text-anchor="middle" x="177.72" y="-121.2" font-family="Times,serif" font-size="14.00">&#45;0.05</text>
</g>
<!-- node195&#45;&gt;node71 -->
<g id="edge4" class="edge">
<title>node195&#45;&gt;node71</title>
<path fill="none" stroke="black" d="M145.83,-79C161.36,-79 181.68,-79 198.36,-79"/>
<polygon fill="black" stroke="black" points="198.23,-82.5 208.23,-79 198.23,-75.5 198.23,-82.5"/>
<text text-anchor="middle" x="177.72" y="-82.2" font-family="Times,serif" font-size="14.00">&#45;0.58</text>
</g>
</g>
</svg>
