<?xml version="1.0" encoding="UTF-8" standalone="no"?>
<!DOCTYPE svg PUBLIC "-//W3C//DTD SVG 1.1//EN"
 "http://www.w3.org/Graphics/SVG/1.1/DTD/svg11.dtd">
<!-- Generated by graphviz version 9.0.0 (20230911.1827)
 -->
<!-- Title: neat Pages: 1 -->
<svg width="263pt" height="179pt"
 viewBox="0.00 0.00 262.74 178.74" xmlns="http://www.w3.org/2000/svg" xmlns:xlink="http://www.w3.org/1999/xlink">
<g id="graph0" class="graph" transform="scale(1 1) rotate(0) translate(4 174.74)">
<title>neat</title>
<polygon fill="white" stroke="none" points="-4,4 -4,-174.74 258.74,-174.74 258.74,4 -4,4"/>
<!-- node0 -->
<g id="node1" class="node">
<title>node0</title>
<ellipse fill="lightblue" stroke="black" cx="18" cy="-112" rx="18" ry="18"/>
<text text-anchor="middle" x="18" y="-106.95" font-family="Times,serif" font-size="14.00">0</text>
</g>
<!-- node182 -->
<g id="node4" class="node">
<title>node182</title>
<ellipse fill="lightgray" stroke="black" cx="125.24" cy="-146" rx="24.74" ry="24.74"/>
<text text-anchor="middle" x="125.24" y="-140.95" font-family="Times,serif" font-size="14.00">182</text>
</g>
<!-- node0&#45;&gt;node182 -->
<g id="edge2" class="edge">
<title>node0&#45;&gt;node182</title>
<path fill="none" stroke="black" d="M35.44,-117.31C50.09,-122.05 71.99,-129.12 90.38,-135.06"/>
<polygon fill="black" stroke="black" points="89.24,-138.37 99.83,-138.12 91.39,-131.71 89.24,-138.37"/>
<text text-anchor="middle" x="68.25" y="-135.2" font-family="Times,serif" font-size="14.00">&#45;0.13</text>
</g>
<!-- node209 -->
<g id="node5" class="node">
<title>node209</title>
<ellipse fill="lightgray" stroke="black" cx="125.24" cy="-79" rx="24.74" ry="24.74"/>
<text text-anchor="middle" x="125.24" y="-73.95" font-family="Times,serif" font-size="14.00">209</text>
</g>
<!-- node0&#45;&gt;node209 -->
<g id="edge3" class="edge">
<title>node0&#45;&gt;node209</title>
<path fill="none" stroke="black" d="M35.36,-106.55C41.23,-104.61 47.9,-102.43 54,-100.5 65.76,-96.77 78.66,-92.79 90.17,-89.28"/>
<polygon fill="black" stroke="black" points="91.11,-92.65 99.66,-86.39 89.07,-85.95 91.11,-92.65"/>
<text text-anchor="middle" x="68.25" y="-103.2" font-family="Times,serif" font-size="14.00">0.80</text>
</g>
<!-- node1 -->
<g id="node2" class="node">
<title>node1</title>
<ellipse fill="lightblue" stroke="black" cx="125.24" cy="-18" rx="18" ry="18"/>
<text text-anchor="middle" x="125.24" y="-12.95" font-family="Times,serif" font-size="14.00">1</text>
</g>
<!-- node71 -->
<g id="node3" class="node">
<title>node71</title>
<ellipse fill="lightgreen" stroke="black" cx="234.61" cy="-79" rx="20.13" ry="20.13"/>
<text text-anchor="middle" x="234.61" y="-73.95" font-family="Times,serif" font-size="14.00">71</text>
</g>
<!-- node1&#45;&gt;node71 -->
<g id="edge1" class="edge">
<title>node1&#45;&gt;node71</title>
<path fill="none" stroke="black" d="M141.17,-26.48C158.12,-36.12 186.13,-52.02 206.87,-63.81"/>
<polygon fill="black" stroke="black" points="204.94,-66.74 215.37,-68.64 208.4,-60.65 204.94,-66.74"/>
<text text-anchor="middle" x="182.22" y="-60.2" font-family="Times,serif" font-size="14.00">1.42</text>
</g>
<!-- node182&#45;&gt;node71 -->
<g id="edge5" class="edge">
<title>node182&#45;&gt;node71</title>
<path fill="none" stroke="black" d="M146.69,-133.24C163.93,-122.48 188.73,-107 207.43,-95.34"/>
<polygon fill="black" stroke="black" points="209.19,-98.36 215.82,-90.1 205.48,-92.43 209.19,-98.36"/>
<text text-anchor="middle" x="182.22" y="-121.2" font-family="Times,serif" font-size="14.00">&#45;1.41</text>
</g>
<!-- node209&#45;&gt;node71 -->
<g id="edge4" class="edge">
<title>node209&#45;&gt;node71</title>
<path fill="none" stroke="black" d="M150.33,-79C165.86,-79 186.18,-79 202.86,-79"/>
<polygon fill="black" stroke="black" points="202.73,-82.5 212.73,-79 202.73,-75.5 202.73,-82.5"/>
<text text-anchor="middle" x="182.22" y="-82.2" font-family="Times,serif" font-size="14.00">3.08</text>
</g>
</g>
</svg>
