<?xml version="1.0" encoding="UTF-8" standalone="no"?>
<!DOCTYPE svg PUBLIC "-//W3C//DTD SVG 1.1//EN"
 "http://www.w3.org/Graphics/SVG/1.1/DTD/svg11.dtd">
<!-- Generated by graphviz version 9.0.0 (20230911.1827)
 -->
<!-- Title: neat Pages: 1 -->
<svg width="272pt" height="179pt"
 viewBox="0.00 0.00 271.95 178.74" xmlns="http://www.w3.org/2000/svg" xmlns:xlink="http://www.w3.org/1999/xlink">
<g id="graph0" class="graph" transform="scale(1 1) rotate(0) translate(4 174.74)">
<title>neat</title>
<polygon fill="white" stroke="none" points="-4,4 -4,-174.74 267.95,-174.74 267.95,4 -4,4"/>
<!-- node0 -->
<g id="node1" class="node">
<title>node0</title>
<ellipse fill="lightblue" stroke="black" cx="125.24" cy="-152.74" rx="18" ry="18"/>
<text text-anchor="middle" x="125.24" y="-147.69" font-family="Times,serif" font-size="14.00">0</text>
</g>
<!-- node141 -->
<g id="node3" class="node">
<title>node141</title>
<ellipse fill="lightgreen" stroke="black" cx="239.21" cy="-91.74" rx="24.74" ry="24.74"/>
<text text-anchor="middle" x="239.21" y="-86.69" font-family="Times,serif" font-size="14.00">141</text>
</g>
<!-- node0&#45;&gt;node141 -->
<g id="edge1" class="edge">
<title>node0&#45;&gt;node141</title>
<path fill="none" stroke="black" d="M141.34,-144.51C158.06,-135.4 185.49,-120.46 206.9,-108.8"/>
<polygon fill="black" stroke="black" points="208.42,-111.96 215.52,-104.1 205.07,-105.81 208.42,-111.96"/>
<text text-anchor="middle" x="182.22" y="-131.94" font-family="Times,serif" font-size="14.00">3.63</text>
</g>
<!-- node1 -->
<g id="node2" class="node">
<title>node1</title>
<ellipse fill="lightblue" stroke="black" cx="18" cy="-57.74" rx="18" ry="18"/>
<text text-anchor="middle" x="18" y="-52.69" font-family="Times,serif" font-size="14.00">1</text>
</g>
<!-- node159 -->
<g id="node4" class="node">
<title>node159</title>
<ellipse fill="lightgray" stroke="black" cx="125.24" cy="-91.74" rx="24.74" ry="24.74"/>
<text text-anchor="middle" x="125.24" y="-86.69" font-family="Times,serif" font-size="14.00">159</text>
</g>
<!-- node1&#45;&gt;node159 -->
<g id="edge2" class="edge">
<title>node1&#45;&gt;node159</title>
<path fill="none" stroke="black" d="M35.44,-63.05C50.09,-67.78 71.99,-74.86 90.38,-80.8"/>
<polygon fill="black" stroke="black" points="89.24,-84.11 99.83,-83.85 91.39,-77.45 89.24,-84.11"/>
<text text-anchor="middle" x="68.25" y="-80.94" font-family="Times,serif" font-size="14.00">&#45;0.33</text>
</g>
<!-- node275 -->
<g id="node5" class="node">
<title>node275</title>
<ellipse fill="lightgray" stroke="black" cx="125.24" cy="-24.74" rx="24.74" ry="24.74"/>
<text text-anchor="middle" x="125.24" y="-19.69" font-family="Times,serif" font-size="14.00">275</text>
</g>
<!-- node1&#45;&gt;node275 -->
<g id="edge4" class="edge">
<title>node1&#45;&gt;node275</title>
<path fill="none" stroke="black" d="M35.36,-52.29C41.23,-50.35 47.9,-48.17 54,-46.24 65.76,-42.51 78.66,-38.52 90.17,-35.01"/>
<polygon fill="black" stroke="black" points="91.11,-38.39 99.66,-32.13 89.07,-31.69 91.11,-38.39"/>
<text text-anchor="middle" x="68.25" y="-49.94" font-family="Times,serif" font-size="14.00">1.00</text>
</g>
<!-- node159&#45;&gt;node141 -->
<g id="edge3" class="edge">
<title>node159&#45;&gt;node141</title>
<path fill="none" stroke="black" d="M150.26,-91.74C165.61,-91.74 185.78,-91.74 202.93,-91.74"/>
<polygon fill="black" stroke="black" points="202.72,-95.24 212.72,-91.74 202.72,-88.24 202.72,-95.24"/>
<text text-anchor="middle" x="182.22" y="-94.94" font-family="Times,serif" font-size="14.00">&#45;3.12</text>
</g>
<!-- node275&#45;&gt;node141 -->
<g id="edge5" class="edge">
<title>node275&#45;&gt;node141</title>
<path fill="none" stroke="black" d="M147.04,-37.18C164.08,-47.38 188.45,-61.96 207.71,-73.49"/>
<polygon fill="black" stroke="black" points="205.85,-76.45 216.23,-78.58 209.44,-70.44 205.85,-76.45"/>
<text text-anchor="middle" x="182.22" y="-69.94" font-family="Times,serif" font-size="14.00">&#45;2.19</text>
</g>
</g>
</svg>
