<?xml version="1.0" encoding="UTF-8" standalone="no"?>
<!DOCTYPE svg PUBLIC "-//W3C//DTD SVG 1.1//EN"
 "http://www.w3.org/Graphics/SVG/1.1/DTD/svg11.dtd">
<!-- Generated by graphviz version 9.0.0 (20230911.1827)
 -->
<!-- Title: neat Pages: 1 -->
<svg width="258pt" height="179pt"
 viewBox="0.00 0.00 258.24 178.74" xmlns="http://www.w3.org/2000/svg" xmlns:xlink="http://www.w3.org/1999/xlink">
<g id="graph0" class="graph" transform="scale(1 1) rotate(0) translate(4 174.74)">
<title>neat</title>
<polygon fill="white" stroke="none" points="-4,4 -4,-174.74 254.24,-174.74 254.24,4 -4,4"/>
<!-- node0 -->
<g id="node1" class="node">
<title>node0</title>
<ellipse fill="lightblue" stroke="black" cx="18" cy="-113" rx="18" ry="18"/>
<text text-anchor="middle" x="18" y="-107.95" font-family="Times,serif" font-size="14.00">0</text>
</g>
<!-- node182 -->
<g id="node4" class="node">
<title>node182</title>
<ellipse fill="lightgray" stroke="black" cx="120.74" cy="-146" rx="24.74" ry="24.74"/>
<text text-anchor="middle" x="120.74" y="-140.95" font-family="Times,serif" font-size="14.00">182</text>
</g>
<!-- node0&#45;&gt;node182 -->
<g id="edge2" class="edge">
<title>node0&#45;&gt;node182</title>
<path fill="none" stroke="black" d="M35.63,-118.45C49.3,-122.92 69.08,-129.41 86.03,-134.96"/>
<polygon fill="black" stroke="black" points="84.64,-138.19 95.23,-137.97 86.82,-131.53 84.64,-138.19"/>
<text text-anchor="middle" x="66" y="-134.2" font-family="Times,serif" font-size="14.00">0.17</text>
</g>
<!-- node195 -->
<g id="node5" class="node">
<title>node195</title>
<ellipse fill="lightgray" stroke="black" cx="120.74" cy="-79" rx="24.74" ry="24.74"/>
<text text-anchor="middle" x="120.74" y="-73.95" font-family="Times,serif" font-size="14.00">195</text>
</g>
<!-- node0&#45;&gt;node195 -->
<g id="edge3" class="edge">
<title>node0&#45;&gt;node195</title>
<path fill="none" stroke="black" d="M35.19,-107.54C48.87,-102.92 68.94,-96.15 86.08,-90.36"/>
<polygon fill="black" stroke="black" points="87.05,-93.73 95.4,-87.21 84.81,-87.1 87.05,-93.73"/>
<text text-anchor="middle" x="66" y="-104.2" font-family="Times,serif" font-size="14.00">1.00</text>
</g>
<!-- node1 -->
<g id="node2" class="node">
<title>node1</title>
<ellipse fill="lightblue" stroke="black" cx="120.74" cy="-18" rx="18" ry="18"/>
<text text-anchor="middle" x="120.74" y="-12.95" font-family="Times,serif" font-size="14.00">1</text>
</g>
<!-- node71 -->
<g id="node3" class="node">
<title>node71</title>
<ellipse fill="lightgreen" stroke="black" cx="230.11" cy="-38" rx="20.13" ry="20.13"/>
<text text-anchor="middle" x="230.11" y="-32.95" font-family="Times,serif" font-size="14.00">71</text>
</g>
<!-- node1&#45;&gt;node71 -->
<g id="edge1" class="edge">
<title>node1&#45;&gt;node71</title>
<path fill="none" stroke="black" d="M138.82,-20.49C153.08,-22.64 173.91,-25.96 191.97,-29.5 194.31,-29.96 196.72,-30.45 199.13,-30.97"/>
<polygon fill="black" stroke="black" points="198.27,-34.36 208.79,-33.12 199.79,-27.53 198.27,-34.36"/>
<text text-anchor="middle" x="177.72" y="-33.2" font-family="Times,serif" font-size="14.00">4.46</text>
</g>
<!-- node195&#45;&gt;node71 -->
<g id="edge4" class="edge">
<title>node195&#45;&gt;node71</title>
<path fill="none" stroke="black" d="M144.25,-70.41C160.57,-64.17 182.77,-55.69 200.37,-48.97"/>
<polygon fill="black" stroke="black" points="201.39,-52.33 209.49,-45.49 198.9,-45.79 201.39,-52.33"/>
<text text-anchor="middle" x="177.72" y="-65.2" font-family="Times,serif" font-size="14.00">&#45;1.67</text>
</g>
</g>
</svg>
