<?xml version="1.0" encoding="UTF-8" standalone="no"?>
<!DOCTYPE svg PUBLIC "-//W3C//DTD SVG 1.1//EN"
 "http://www.w3.org/Graphics/SVG/1.1/DTD/svg11.dtd">
<!-- Generated by graphviz version 9.0.0 (20230911.1827)
 -->
<!-- Title: neat Pages: 1 -->
<svg width="381pt" height="137pt"
 viewBox="0.00 0.00 381.42 137.47" xmlns="http://www.w3.org/2000/svg" xmlns:xlink="http://www.w3.org/1999/xlink">
<g id="graph0" class="graph" transform="scale(1 1) rotate(0) translate(4 133.47)">
<title>neat</title>
<polygon fill="white" stroke="none" points="-4,4 -4,-133.47 377.42,-133.47 377.42,4 -4,4"/>
<!-- node0 -->
<g id="node1" class="node">
<title>node0</title>
<ellipse fill="lightblue" stroke="black" cx="18" cy="-104.74" rx="18" ry="18"/>
<text text-anchor="middle" x="18" y="-99.69" font-family="Times,serif" font-size="14.00">0</text>
</g>
<!-- node264 -->
<g id="node6" class="node">
<title>node264</title>
<ellipse fill="lightgray" stroke="black" cx="120.74" cy="-104.74" rx="24.74" ry="24.74"/>
<text text-anchor="middle" x="120.74" y="-99.69" font-family="Times,serif" font-size="14.00">264</text>
</g>
<!-- node0&#45;&gt;node264 -->
<g id="edge4" class="edge">
<title>node0&#45;&gt;node264</title>
<path fill="none" stroke="black" d="M36.09,-104.74C49.28,-104.74 67.98,-104.74 84.36,-104.74"/>
<polygon fill="black" stroke="black" points="84.24,-108.24 94.24,-104.74 84.24,-101.24 84.24,-108.24"/>
<text text-anchor="middle" x="66" y="-107.94" font-family="Times,serif" font-size="14.00">1.00</text>
</g>
<!-- node1 -->
<g id="node2" class="node">
<title>node1</title>
<ellipse fill="lightblue" stroke="black" cx="120.74" cy="-34.74" rx="18" ry="18"/>
<text text-anchor="middle" x="120.74" y="-29.69" font-family="Times,serif" font-size="14.00">1</text>
</g>
<!-- node136 -->
<g id="node3" class="node">
<title>node136</title>
<ellipse fill="lightgreen" stroke="black" cx="234.71" cy="-24.74" rx="24.74" ry="24.74"/>
<text text-anchor="middle" x="234.71" y="-19.69" font-family="Times,serif" font-size="14.00">136</text>
</g>
<!-- node1&#45;&gt;node136 -->
<g id="edge1" class="edge">
<title>node1&#45;&gt;node136</title>
<path fill="none" stroke="black" d="M138.69,-30.57C146.23,-28.9 155.24,-27.16 163.47,-26.24 174.69,-24.99 186.98,-24.44 198.09,-24.26"/>
<polygon fill="black" stroke="black" points="198.1,-27.76 208.07,-24.2 198.05,-20.76 198.1,-27.76"/>
<text text-anchor="middle" x="177.72" y="-29.94" font-family="Times,serif" font-size="14.00">0.67</text>
</g>
<!-- node171 -->
<g id="node4" class="node">
<title>node171</title>
<ellipse fill="lightgray" stroke="black" cx="234.71" cy="-97.74" rx="24.74" ry="24.74"/>
<text text-anchor="middle" x="234.71" y="-92.69" font-family="Times,serif" font-size="14.00">171</text>
</g>
<!-- node1&#45;&gt;node171 -->
<g id="edge2" class="edge">
<title>node1&#45;&gt;node171</title>
<path fill="none" stroke="black" d="M136.84,-43.23C153.67,-52.7 181.33,-68.26 202.79,-80.34"/>
<polygon fill="black" stroke="black" points="201.01,-83.35 211.44,-85.21 204.44,-77.25 201.01,-83.35"/>
<text text-anchor="middle" x="177.72" y="-75.94" font-family="Times,serif" font-size="14.00">&#45;2.35</text>
</g>
<!-- node222 -->
<g id="node5" class="node">
<title>node222</title>
<ellipse fill="lightgray" stroke="black" cx="348.69" cy="-97.74" rx="24.74" ry="24.74"/>
<text text-anchor="middle" x="348.69" y="-92.69" font-family="Times,serif" font-size="14.00">222</text>
</g>
<!-- node171&#45;&gt;node222 -->
<g id="edge3" class="edge">
<title>node171&#45;&gt;node222</title>
<path fill="none" stroke="black" d="M259.73,-97.74C275.08,-97.74 295.26,-97.74 312.41,-97.74"/>
<polygon fill="black" stroke="black" points="312.19,-101.24 322.19,-97.74 312.19,-94.24 312.19,-101.24"/>
<text text-anchor="middle" x="291.7" y="-100.94" font-family="Times,serif" font-size="14.00">&#45;0.71</text>
</g>
<!-- node264&#45;&gt;node171 -->
<g id="edge5" class="edge">
<title>node264&#45;&gt;node171</title>
<path fill="none" stroke="black" d="M145.76,-103.24C161.11,-102.28 181.28,-101.02 198.43,-99.94"/>
<polygon fill="black" stroke="black" points="198.46,-103.45 208.22,-99.33 198.02,-96.46 198.46,-103.45"/>
<text text-anchor="middle" x="177.72" y="-104.94" font-family="Times,serif" font-size="14.00">&#45;0.57</text>
</g>
</g>
</svg>
