<?xml version="1.0" encoding="UTF-8" standalone="no"?>
<!DOCTYPE svg PUBLIC "-//W3C//DTD SVG 1.1//EN"
 "http://www.w3.org/Graphics/SVG/1.1/DTD/svg11.dtd">
<!-- Generated by graphviz version 9.0.0 (20230911.1827)
 -->
<!-- Title: neat Pages: 1 -->
<svg width="368pt" height="107pt"
 viewBox="0.00 0.00 367.71 107.00" xmlns="http://www.w3.org/2000/svg" xmlns:xlink="http://www.w3.org/1999/xlink">
<g id="graph0" class="graph" transform="scale(1 1) rotate(0) translate(4 103)">
<title>neat</title>
<polygon fill="white" stroke="none" points="-4,4 -4,-103 363.71,-103 363.71,4 -4,4"/>
<!-- node0 -->
<g id="node1" class="node">
<title>node0</title>
<ellipse fill="lightblue" stroke="black" cx="18" cy="-81" rx="18" ry="18"/>
<text text-anchor="middle" x="18" y="-75.95" font-family="Times,serif" font-size="14.00">0</text>
</g>
<!-- node152 -->
<g id="node4" class="node">
<title>node152</title>
<ellipse fill="lightgray" stroke="black" cx="125.24" cy="-61" rx="24.74" ry="24.74"/>
<text text-anchor="middle" x="125.24" y="-55.95" font-family="Times,serif" font-size="14.00">152</text>
</g>
<!-- node0&#45;&gt;node152 -->
<g id="edge2" class="edge">
<title>node0&#45;&gt;node152</title>
<path fill="none" stroke="black" d="M35.91,-77.79C50.3,-75.05 71.45,-71.03 89.44,-67.61"/>
<polygon fill="black" stroke="black" points="90.05,-71.06 99.22,-65.76 88.74,-64.18 90.05,-71.06"/>
<text text-anchor="middle" x="68.25" y="-76.2" font-family="Times,serif" font-size="14.00">3.03</text>
</g>
<!-- node1 -->
<g id="node2" class="node">
<title>node1</title>
<ellipse fill="lightblue" stroke="black" cx="18" cy="-18" rx="18" ry="18"/>
<text text-anchor="middle" x="18" y="-12.95" font-family="Times,serif" font-size="14.00">1</text>
</g>
<!-- node81 -->
<g id="node3" class="node">
<title>node81</title>
<ellipse fill="lightgreen" stroke="black" cx="339.58" cy="-24" rx="20.13" ry="20.13"/>
<text text-anchor="middle" x="339.58" y="-18.95" font-family="Times,serif" font-size="14.00">81</text>
</g>
<!-- node1&#45;&gt;node81 -->
<g id="edge1" class="edge">
<title>node1&#45;&gt;node81</title>
<path fill="none" stroke="black" d="M36.18,-18.32C87.81,-19.29 242.06,-22.19 308.06,-23.43"/>
<polygon fill="black" stroke="black" points="307.74,-26.92 317.8,-23.61 307.87,-19.92 307.74,-26.92"/>
<text text-anchor="middle" x="179.97" y="-24.2" font-family="Times,serif" font-size="14.00">1.37</text>
</g>
<!-- node1&#45;&gt;node152 -->
<g id="edge5" class="edge">
<title>node1&#45;&gt;node152</title>
<path fill="none" stroke="black" d="M34.98,-24.53C49.88,-30.62 72.57,-39.89 91.33,-47.56"/>
<polygon fill="black" stroke="black" points="89.86,-50.74 100.44,-51.28 92.51,-44.26 89.86,-50.74"/>
<text text-anchor="middle" x="68.25" y="-46.2" font-family="Times,serif" font-size="14.00">&#45;0.01</text>
</g>
<!-- node189 -->
<g id="node5" class="node">
<title>node189</title>
<ellipse fill="lightgray" stroke="black" cx="234.71" cy="-61" rx="24.74" ry="24.74"/>
<text text-anchor="middle" x="234.71" y="-55.95" font-family="Times,serif" font-size="14.00">189</text>
</g>
<!-- node152&#45;&gt;node189 -->
<g id="edge3" class="edge">
<title>node152&#45;&gt;node189</title>
<path fill="none" stroke="black" d="M150.36,-61C164.46,-61 182.53,-61 198.23,-61"/>
<polygon fill="black" stroke="black" points="198.16,-64.5 208.16,-61 198.16,-57.5 198.16,-64.5"/>
<text text-anchor="middle" x="179.97" y="-64.2" font-family="Times,serif" font-size="14.00">2.76</text>
</g>
<!-- node189&#45;&gt;node81 -->
<g id="edge4" class="edge">
<title>node189&#45;&gt;node81</title>
<path fill="none" stroke="black" d="M258.54,-52.79C273.64,-47.36 293.57,-40.19 309.76,-34.37"/>
<polygon fill="black" stroke="black" points="310.62,-37.78 318.84,-31.1 308.25,-31.19 310.62,-37.78"/>
<text text-anchor="middle" x="289.45" y="-48.2" font-family="Times,serif" font-size="14.00">6.09</text>
</g>
</g>
</svg>
