<?xml version="1.0" encoding="UTF-8" standalone="no"?>
<!DOCTYPE svg PUBLIC "-//W3C//DTD SVG 1.1//EN"
 "http://www.w3.org/Graphics/SVG/1.1/DTD/svg11.dtd">
<!-- Generated by graphviz version 9.0.0 (20230911.1827)
 -->
<!-- Title: neat Pages: 1 -->
<svg width="328pt" height="154pt"
 viewBox="0.00 0.00 328.42 153.81" xmlns="http://www.w3.org/2000/svg" xmlns:xlink="http://www.w3.org/1999/xlink">
<g id="graph0" class="graph" transform="scale(1 1) rotate(0) translate(4 149.81)">
<title>neat</title>
<polygon fill="white" stroke="none" points="-4,4 -4,-149.81 324.42,-149.81 324.42,4 -4,4"/>
<!-- node0 -->
<g id="node1" class="node">
<title>node0</title>
<ellipse fill="lightblue" stroke="black" cx="31.9" cy="-113.9" rx="31.9" ry="31.9"/>
<text text-anchor="middle" x="31.9" y="-108.85" font-family="Times,serif" font-size="14.00">0.000</text>
</g>
<!-- node129 -->
<g id="node3" class="node">
<title>node129</title>
<ellipse fill="lightgreen" stroke="black" cx="288.51" cy="-79.9" rx="31.9" ry="31.9"/>
<text text-anchor="middle" x="288.51" y="-74.85" font-family="Times,serif" font-size="14.00">0.497</text>
</g>
<!-- node0&#45;&gt;node129 -->
<g id="edge1" class="edge">
<title>node0&#45;&gt;node129</title>
<path fill="none" stroke="black" d="M63.93,-109.94C104.22,-104.78 176.7,-95.4 238.61,-86.9 240.78,-86.61 243,-86.3 245.24,-85.99"/>
<polygon fill="black" stroke="black" points="245.57,-89.47 254.98,-84.61 244.59,-82.54 245.57,-89.47"/>
<text text-anchor="middle" x="160.21" y="-104.1" font-family="Times,serif" font-size="14.00">&#45;1.07</text>
</g>
<!-- node171 -->
<g id="node4" class="node">
<title>node171</title>
<ellipse fill="lightgray" stroke="black" cx="160.21" cy="-45.9" rx="31.9" ry="31.9"/>
<text text-anchor="middle" x="160.21" y="-40.85" font-family="Times,serif" font-size="14.00">0.000</text>
</g>
<!-- node0&#45;&gt;node171 -->
<g id="edge4" class="edge">
<title>node0&#45;&gt;node171</title>
<path fill="none" stroke="black" d="M59.25,-96.76C66.47,-92.26 74.36,-87.51 81.81,-83.4 94.16,-76.58 107.95,-69.68 120.42,-63.7"/>
<polygon fill="black" stroke="black" points="121.63,-67 129.16,-59.55 118.63,-60.67 121.63,-67"/>
<text text-anchor="middle" x="96.06" y="-86.1" font-family="Times,serif" font-size="14.00">&#45;2.02</text>
</g>
<!-- node1 -->
<g id="node2" class="node">
<title>node1</title>
<ellipse fill="lightblue" stroke="black" cx="31.9" cy="-31.9" rx="31.9" ry="31.9"/>
<text text-anchor="middle" x="31.9" y="-26.85" font-family="Times,serif" font-size="14.00">1.000</text>
</g>
<!-- node1&#45;&gt;node171 -->
<g id="edge2" class="edge">
<title>node1&#45;&gt;node171</title>
<path fill="none" stroke="black" d="M64.21,-34.04C78.32,-35.13 95.17,-36.61 110.31,-38.4 112.48,-38.66 114.71,-38.94 116.95,-39.24"/>
<polygon fill="black" stroke="black" points="116.32,-42.68 126.71,-40.61 117.29,-35.75 116.32,-42.68"/>
<text text-anchor="middle" x="96.06" y="-42.1" font-family="Times,serif" font-size="14.00">&#45;1.63</text>
</g>
<!-- node171&#45;&gt;node129 -->
<g id="edge3" class="edge">
<title>node171&#45;&gt;node129</title>
<path fill="none" stroke="black" d="M191.46,-54.05C207.94,-58.48 228.57,-64.04 246.48,-68.86"/>
<polygon fill="black" stroke="black" points="245.48,-72.21 256.05,-71.43 247.3,-65.45 245.48,-72.21"/>
<text text-anchor="middle" x="224.36" y="-69.1" font-family="Times,serif" font-size="14.00">&#45;6.05</text>
</g>
</g>
</svg>
