<?xml version="1.0" encoding="UTF-8" standalone="no"?>
<!DOCTYPE svg PUBLIC "-//W3C//DTD SVG 1.1//EN"
 "http://www.w3.org/Graphics/SVG/1.1/DTD/svg11.dtd">
<!-- Generated by graphviz version 9.0.0 (20230911.1827)
 -->
<!-- Title: neat Pages: 1 -->
<svg width="572pt" height="864pt"
 viewBox="0.00 0.00 571.92 864.00" xmlns="http://www.w3.org/2000/svg" xmlns:xlink="http://www.w3.org/1999/xlink">
<g id="graph0" class="graph" transform="scale(1 1) rotate(0) translate(4 860)">
<title>neat</title>
<polygon fill="white" stroke="none" points="-4,4 -4,-860 567.92,-860 567.92,4 -4,4"/>
<g id="clust1" class="cluster">
<title>cluster_0</title>
<path fill="none" stroke="gray" d="M20,-8C20,-8 543.92,-8 543.92,-8 549.92,-8 555.92,-14 555.92,-20 555.92,-20 555.92,-200 555.92,-200 555.92,-206 549.92,-212 543.92,-212 543.92,-212 20,-212 20,-212 14,-212 8,-206 8,-200 8,-200 8,-20 8,-20 8,-14 14,-8 20,-8"/>
<text text-anchor="middle" x="281.96" y="-194.7" font-family="Times,serif" font-size="14.00">Test 0,0 → 0</text>
</g>
<g id="clust2" class="cluster">
<title>cluster_1</title>
<path fill="none" stroke="gray" d="M20,-220C20,-220 543.92,-220 543.92,-220 549.92,-220 555.92,-226 555.92,-232 555.92,-232 555.92,-412 555.92,-412 555.92,-418 549.92,-424 543.92,-424 543.92,-424 20,-424 20,-424 14,-424 8,-418 8,-412 8,-412 8,-232 8,-232 8,-226 14,-220 20,-220"/>
<text text-anchor="middle" x="281.96" y="-406.7" font-family="Times,serif" font-size="14.00">Test 0,1 → 1</text>
</g>
<g id="clust3" class="cluster">
<title>cluster_2</title>
<path fill="none" stroke="gray" d="M20,-432C20,-432 543.92,-432 543.92,-432 549.92,-432 555.92,-438 555.92,-444 555.92,-444 555.92,-624 555.92,-624 555.92,-630 549.92,-636 543.92,-636 543.92,-636 20,-636 20,-636 14,-636 8,-630 8,-624 8,-624 8,-444 8,-444 8,-438 14,-432 20,-432"/>
<text text-anchor="middle" x="281.96" y="-618.7" font-family="Times,serif" font-size="14.00">Test 1,0 → 1</text>
</g>
<g id="clust4" class="cluster">
<title>cluster_3</title>
<path fill="none" stroke="gray" d="M20,-644C20,-644 543.92,-644 543.92,-644 549.92,-644 555.92,-650 555.92,-656 555.92,-656 555.92,-836 555.92,-836 555.92,-842 549.92,-848 543.92,-848 543.92,-848 20,-848 20,-848 14,-848 8,-842 8,-836 8,-836 8,-656 8,-656 8,-650 14,-644 20,-644"/>
<text text-anchor="middle" x="281.96" y="-830.7" font-family="Times,serif" font-size="14.00">Test 1,1 → 0</text>
</g>
<!-- node0_0 -->
<g id="node1" class="node">
<title>node0_0</title>
<ellipse fill="lightblue" stroke="black" cx="47.9" cy="-148" rx="31.9" ry="31.9"/>
<text text-anchor="middle" x="47.9" y="-142.95" font-family="Times,serif" font-size="14.00">0.000</text>
</g>
<!-- node105_0 -->
<g id="node3" class="node">
<title>node105_0</title>
<ellipse fill="lightgreen" stroke="black" cx="516.01" cy="-120" rx="31.9" ry="31.9"/>
<text text-anchor="middle" x="516.01" y="-114.95" font-family="Times,serif" font-size="14.00">0.008</text>
</g>
<!-- node0_0&#45;&gt;node105_0 -->
<g id="edge1" class="edge">
<title>node0_0&#45;&gt;node105_0</title>
<path fill="none" stroke="black" d="M80.21,-146.12C161.56,-141.23 379.7,-128.13 472.4,-122.56"/>
<polygon fill="black" stroke="black" points="472.56,-126.06 482.33,-121.96 472.14,-119.07 472.56,-126.06"/>
<text text-anchor="middle" x="279.71" y="-138.2" font-family="Times,serif" font-size="14.00">1.58</text>
</g>
<!-- node166_0 -->
<g id="node4" class="node">
<title>node166_0</title>
<ellipse fill="lightgray" stroke="black" cx="279.71" cy="-52" rx="31.9" ry="31.9"/>
<text text-anchor="middle" x="279.71" y="-46.95" font-family="Times,serif" font-size="14.00">0.500</text>
</g>
<!-- node0_0&#45;&gt;node166_0 -->
<g id="edge4" class="edge">
<title>node0_0&#45;&gt;node166_0</title>
<path fill="none" stroke="black" d="M77.54,-136.04C118.31,-119 193.22,-87.71 239.23,-68.49"/>
<polygon fill="black" stroke="black" points="240.43,-71.78 248.31,-64.7 237.73,-65.32 240.43,-71.78"/>
<text text-anchor="middle" x="163.81" y="-105.2" font-family="Times,serif" font-size="14.00">1.97</text>
</g>
<!-- node1_0 -->
<g id="node2" class="node">
<title>node1_0</title>
<ellipse fill="lightblue" stroke="black" cx="47.9" cy="-48" rx="31.9" ry="31.9"/>
<text text-anchor="middle" x="47.9" y="-42.95" font-family="Times,serif" font-size="14.00">0.000</text>
</g>
<!-- node1_0&#45;&gt;node166_0 -->
<g id="edge2" class="edge">
<title>node1_0&#45;&gt;node166_0</title>
<path fill="none" stroke="black" d="M79.9,-48.54C120.16,-49.24 190.64,-50.47 235.96,-51.26"/>
<polygon fill="black" stroke="black" points="235.9,-54.76 245.96,-51.43 236.02,-47.76 235.9,-54.76"/>
<text text-anchor="middle" x="163.81" y="-53.2" font-family="Times,serif" font-size="14.00">1.00</text>
</g>
<!-- node166_0&#45;&gt;node105_0 -->
<g id="edge3" class="edge">
<title>node166_0&#45;&gt;node105_0</title>
<path fill="none" stroke="black" d="M310.86,-60.75C352.42,-72.81 427.45,-94.59 474.06,-108.12"/>
<polygon fill="black" stroke="black" points="472.94,-111.44 483.52,-110.86 474.9,-104.71 472.94,-111.44"/>
<text text-anchor="middle" x="397.86" y="-93.2" font-family="Times,serif" font-size="14.00">&#45;1.95</text>
</g>
<!-- node0_1 -->
<g id="node5" class="node">
<title>node0_1</title>
<ellipse fill="lightblue" stroke="black" cx="47.9" cy="-360" rx="31.9" ry="31.9"/>
<text text-anchor="middle" x="47.9" y="-354.95" font-family="Times,serif" font-size="14.00">0.000</text>
</g>
<!-- node105_1 -->
<g id="node7" class="node">
<title>node105_1</title>
<ellipse fill="lightgreen" stroke="black" cx="516.01" cy="-332" rx="31.9" ry="31.9"/>
<text text-anchor="middle" x="516.01" y="-326.95" font-family="Times,serif" font-size="14.00">0.000</text>
</g>
<!-- node0_1&#45;&gt;node105_1 -->
<g id="edge5" class="edge">
<title>node0_1&#45;&gt;node105_1</title>
<path fill="none" stroke="black" d="M80.21,-358.12C161.56,-353.23 379.7,-340.13 472.4,-334.56"/>
<polygon fill="black" stroke="black" points="472.56,-338.06 482.33,-333.96 472.14,-331.07 472.56,-338.06"/>
<text text-anchor="middle" x="279.71" y="-350.2" font-family="Times,serif" font-size="14.00">1.58</text>
</g>
<!-- node166_1 -->
<g id="node8" class="node">
<title>node166_1</title>
<ellipse fill="lightgray" stroke="black" cx="279.71" cy="-264" rx="31.9" ry="31.9"/>
<text text-anchor="middle" x="279.71" y="-258.95" font-family="Times,serif" font-size="14.00">0.993</text>
</g>
<!-- node0_1&#45;&gt;node166_1 -->
<g id="edge8" class="edge">
<title>node0_1&#45;&gt;node166_1</title>
<path fill="none" stroke="black" d="M77.54,-348.04C118.31,-331 193.22,-299.71 239.23,-280.49"/>
<polygon fill="black" stroke="black" points="240.43,-283.78 248.31,-276.7 237.73,-277.32 240.43,-283.78"/>
<text text-anchor="middle" x="163.81" y="-317.2" font-family="Times,serif" font-size="14.00">1.97</text>
</g>
<!-- node1_1 -->
<g id="node6" class="node">
<title>node1_1</title>
<ellipse fill="lightblue" stroke="black" cx="47.9" cy="-260" rx="31.9" ry="31.9"/>
<text text-anchor="middle" x="47.9" y="-254.95" font-family="Times,serif" font-size="14.00">1.000</text>
</g>
<!-- node1_1&#45;&gt;node166_1 -->
<g id="edge6" class="edge">
<title>node1_1&#45;&gt;node166_1</title>
<path fill="none" stroke="black" d="M79.9,-260.54C120.16,-261.24 190.64,-262.47 235.96,-263.26"/>
<polygon fill="black" stroke="black" points="235.9,-266.76 245.96,-263.43 236.02,-259.76 235.9,-266.76"/>
<text text-anchor="middle" x="163.81" y="-265.2" font-family="Times,serif" font-size="14.00">1.00</text>
</g>
<!-- node166_1&#45;&gt;node105_1 -->
<g id="edge7" class="edge">
<title>node166_1&#45;&gt;node105_1</title>
<path fill="none" stroke="black" d="M310.86,-272.75C352.42,-284.81 427.45,-306.59 474.06,-320.12"/>
<polygon fill="black" stroke="black" points="472.94,-323.44 483.52,-322.86 474.9,-316.71 472.94,-323.44"/>
<text text-anchor="middle" x="397.86" y="-305.2" font-family="Times,serif" font-size="14.00">&#45;1.95</text>
</g>
<!-- node0_2 -->
<g id="node9" class="node">
<title>node0_2</title>
<ellipse fill="lightblue" stroke="black" cx="47.9" cy="-572" rx="31.9" ry="31.9"/>
<text text-anchor="middle" x="47.9" y="-566.95" font-family="Times,serif" font-size="14.00">1.000</text>
</g>
<!-- node105_2 -->
<g id="node11" class="node">
<title>node105_2</title>
<ellipse fill="lightgreen" stroke="black" cx="516.01" cy="-544" rx="31.9" ry="31.9"/>
<text text-anchor="middle" x="516.01" y="-538.95" font-family="Times,serif" font-size="14.00">0.142</text>
</g>
<!-- node0_2&#45;&gt;node105_2 -->
<g id="edge9" class="edge">
<title>node0_2&#45;&gt;node105_2</title>
<path fill="none" stroke="black" d="M80.21,-570.12C161.56,-565.23 379.7,-552.13 472.4,-546.56"/>
<polygon fill="black" stroke="black" points="472.56,-550.06 482.33,-545.96 472.14,-543.07 472.56,-550.06"/>
<text text-anchor="middle" x="279.71" y="-562.2" font-family="Times,serif" font-size="14.00">1.58</text>
</g>
<!-- node166_2 -->
<g id="node12" class="node">
<title>node166_2</title>
<ellipse fill="lightgray" stroke="black" cx="279.71" cy="-476" rx="31.9" ry="31.9"/>
<text text-anchor="middle" x="279.71" y="-470.95" font-family="Times,serif" font-size="14.00">1.000</text>
</g>
<!-- node0_2&#45;&gt;node166_2 -->
<g id="edge12" class="edge">
<title>node0_2&#45;&gt;node166_2</title>
<path fill="none" stroke="black" d="M77.54,-560.04C118.31,-543 193.22,-511.71 239.23,-492.49"/>
<polygon fill="black" stroke="black" points="240.43,-495.78 248.31,-488.7 237.73,-489.32 240.43,-495.78"/>
<text text-anchor="middle" x="163.81" y="-529.2" font-family="Times,serif" font-size="14.00">1.97</text>
</g>
<!-- node1_2 -->
<g id="node10" class="node">
<title>node1_2</title>
<ellipse fill="lightblue" stroke="black" cx="47.9" cy="-472" rx="31.9" ry="31.9"/>
<text text-anchor="middle" x="47.9" y="-466.95" font-family="Times,serif" font-size="14.00">0.000</text>
</g>
<!-- node1_2&#45;&gt;node166_2 -->
<g id="edge10" class="edge">
<title>node1_2&#45;&gt;node166_2</title>
<path fill="none" stroke="black" d="M79.9,-472.54C120.16,-473.24 190.64,-474.47 235.96,-475.26"/>
<polygon fill="black" stroke="black" points="235.9,-478.76 245.96,-475.43 236.02,-471.76 235.9,-478.76"/>
<text text-anchor="middle" x="163.81" y="-477.2" font-family="Times,serif" font-size="14.00">1.00</text>
</g>
<!-- node166_2&#45;&gt;node105_2 -->
<g id="edge11" class="edge">
<title>node166_2&#45;&gt;node105_2</title>
<path fill="none" stroke="black" d="M310.86,-484.75C352.42,-496.81 427.45,-518.59 474.06,-532.12"/>
<polygon fill="black" stroke="black" points="472.94,-535.44 483.52,-534.86 474.9,-528.71 472.94,-535.44"/>
<text text-anchor="middle" x="397.86" y="-517.2" font-family="Times,serif" font-size="14.00">&#45;1.95</text>
</g>
<!-- node0_3 -->
<g id="node13" class="node">
<title>node0_3</title>
<ellipse fill="lightblue" stroke="black" cx="47.9" cy="-784" rx="31.9" ry="31.9"/>
<text text-anchor="middle" x="47.9" y="-778.95" font-family="Times,serif" font-size="14.00">1.000</text>
</g>
<!-- node105_3 -->
<g id="node15" class="node">
<title>node105_3</title>
<ellipse fill="lightgreen" stroke="black" cx="516.01" cy="-756" rx="31.9" ry="31.9"/>
<text text-anchor="middle" x="516.01" y="-750.95" font-family="Times,serif" font-size="14.00">0.142</text>
</g>
<!-- node0_3&#45;&gt;node105_3 -->
<g id="edge13" class="edge">
<title>node0_3&#45;&gt;node105_3</title>
<path fill="none" stroke="black" d="M80.21,-782.12C161.56,-777.23 379.7,-764.13 472.4,-758.56"/>
<polygon fill="black" stroke="black" points="472.56,-762.06 482.33,-757.96 472.14,-755.07 472.56,-762.06"/>
<text text-anchor="middle" x="279.71" y="-774.2" font-family="Times,serif" font-size="14.00">1.58</text>
</g>
<!-- node166_3 -->
<g id="node16" class="node">
<title>node166_3</title>
<ellipse fill="lightgray" stroke="black" cx="279.71" cy="-688" rx="31.9" ry="31.9"/>
<text text-anchor="middle" x="279.71" y="-682.95" font-family="Times,serif" font-size="14.00">1.000</text>
</g>
<!-- node0_3&#45;&gt;node166_3 -->
<g id="edge16" class="edge">
<title>node0_3&#45;&gt;node166_3</title>
<path fill="none" stroke="black" d="M77.54,-772.04C118.31,-755 193.22,-723.71 239.23,-704.49"/>
<polygon fill="black" stroke="black" points="240.43,-707.78 248.31,-700.7 237.73,-701.32 240.43,-707.78"/>
<text text-anchor="middle" x="163.81" y="-741.2" font-family="Times,serif" font-size="14.00">1.97</text>
</g>
<!-- node1_3 -->
<g id="node14" class="node">
<title>node1_3</title>
<ellipse fill="lightblue" stroke="black" cx="47.9" cy="-684" rx="31.9" ry="31.9"/>
<text text-anchor="middle" x="47.9" y="-678.95" font-family="Times,serif" font-size="14.00">1.000</text>
</g>
<!-- node1_3&#45;&gt;node166_3 -->
<g id="edge14" class="edge">
<title>node1_3&#45;&gt;node166_3</title>
<path fill="none" stroke="black" d="M79.9,-684.54C120.16,-685.24 190.64,-686.47 235.96,-687.26"/>
<polygon fill="black" stroke="black" points="235.9,-690.76 245.96,-687.43 236.02,-683.76 235.9,-690.76"/>
<text text-anchor="middle" x="163.81" y="-689.2" font-family="Times,serif" font-size="14.00">1.00</text>
</g>
<!-- node166_3&#45;&gt;node105_3 -->
<g id="edge15" class="edge">
<title>node166_3&#45;&gt;node105_3</title>
<path fill="none" stroke="black" d="M310.86,-696.75C352.42,-708.81 427.45,-730.59 474.06,-744.12"/>
<polygon fill="black" stroke="black" points="472.94,-747.44 483.52,-746.86 474.9,-740.71 472.94,-747.44"/>
<text text-anchor="middle" x="397.86" y="-729.2" font-family="Times,serif" font-size="14.00">&#45;1.95</text>
</g>
</g>
</svg>
