<?xml version="1.0" encoding="UTF-8" standalone="no"?>
<!DOCTYPE svg PUBLIC "-//W3C//DTD SVG 1.1//EN"
 "http://www.w3.org/Graphics/SVG/1.1/DTD/svg11.dtd">
<!-- Generated by graphviz version 9.0.0 (20230911.1827)
 -->
<!-- Title: neat Pages: 1 -->
<svg width="171pt" height="198pt"
 viewBox="0.00 0.00 171.45 197.74" xmlns="http://www.w3.org/2000/svg" xmlns:xlink="http://www.w3.org/1999/xlink">
<g id="graph0" class="graph" transform="scale(1 1) rotate(0) translate(4 193.74)">
<title>neat</title>
<polygon fill="white" stroke="none" points="-4,4 -4,-193.74 167.45,-193.74 167.45,4 -4,4"/>
<!-- node0 -->
<g id="node1" class="node">
<title>node0</title>
<ellipse fill="lightblue" stroke="black" cx="24.74" cy="-24.74" rx="18" ry="18"/>
<text text-anchor="middle" x="24.74" y="-19.69" font-family="Times,serif" font-size="14.00">0</text>
</g>
<!-- node294 -->
<g id="node6" class="node">
<title>node294</title>
<ellipse fill="lightgray" stroke="black" cx="138.71" cy="-24.74" rx="24.74" ry="24.74"/>
<text text-anchor="middle" x="138.71" y="-19.69" font-family="Times,serif" font-size="14.00">294</text>
</g>
<!-- node0&#45;&gt;node294 -->
<g id="edge3" class="edge">
<title>node0&#45;&gt;node294</title>
<path fill="none" stroke="black" d="M43.23,-24.74C59,-24.74 82.65,-24.74 102.34,-24.74"/>
<polygon fill="black" stroke="black" points="102.18,-28.24 112.18,-24.74 102.18,-21.24 102.18,-28.24"/>
<text text-anchor="middle" x="81.72" y="-27.94" font-family="Times,serif" font-size="14.00">1.00</text>
</g>
<!-- node1 -->
<g id="node2" class="node">
<title>node1</title>
<ellipse fill="lightblue" stroke="black" cx="24.74" cy="-171.74" rx="18" ry="18"/>
<text text-anchor="middle" x="24.74" y="-166.69" font-family="Times,serif" font-size="14.00">1</text>
</g>
<!-- node91 -->
<g id="node3" class="node">
<title>node91</title>
<ellipse fill="lightgreen" stroke="black" cx="138.71" cy="-163.74" rx="20.13" ry="20.13"/>
<text text-anchor="middle" x="138.71" y="-158.69" font-family="Times,serif" font-size="14.00">91</text>
</g>
<!-- node1&#45;&gt;node91 -->
<g id="edge1" class="edge">
<title>node1&#45;&gt;node91</title>
<path fill="none" stroke="black" d="M42.74,-170.52C59.72,-169.31 86.2,-167.42 106.89,-165.94"/>
<polygon fill="black" stroke="black" points="107.05,-169.44 116.77,-165.23 106.55,-162.45 107.05,-169.44"/>
<text text-anchor="middle" x="81.72" y="-170.94" font-family="Times,serif" font-size="14.00">&#45;2.35</text>
</g>
<!-- node165 -->
<g id="node4" class="node">
<title>node165</title>
<ellipse fill="lightgray" stroke="black" cx="24.74" cy="-101.74" rx="24.74" ry="24.74"/>
<text text-anchor="middle" x="24.74" y="-96.69" font-family="Times,serif" font-size="14.00">165</text>
</g>
<!-- node165&#45;&gt;node91 -->
<g id="edge4" class="edge">
<title>node165&#45;&gt;node91</title>
<path fill="none" stroke="black" d="M46.8,-113.4C64.95,-123.45 91.26,-138.01 110.9,-148.89"/>
<polygon fill="black" stroke="black" points="109,-151.84 119.44,-153.62 112.39,-145.72 109,-151.84"/>
<text text-anchor="middle" x="81.72" y="-142.94" font-family="Times,serif" font-size="14.00">&#45;1.56</text>
</g>
<!-- node190 -->
<g id="node5" class="node">
<title>node190</title>
<ellipse fill="lightgray" stroke="black" cx="138.71" cy="-91.74" rx="24.74" ry="24.74"/>
<text text-anchor="middle" x="138.71" y="-86.69" font-family="Times,serif" font-size="14.00">190</text>
</g>
<!-- node165&#45;&gt;node190 -->
<g id="edge2" class="edge">
<title>node165&#45;&gt;node190</title>
<path fill="none" stroke="black" d="M49.02,-96.23C55,-95.02 61.45,-93.91 67.47,-93.24 78.69,-91.99 90.98,-91.44 102.09,-91.26"/>
<polygon fill="black" stroke="black" points="102.1,-94.76 112.07,-91.2 102.05,-87.76 102.1,-94.76"/>
<text text-anchor="middle" x="81.72" y="-95.94" font-family="Times,serif" font-size="14.00">&#45;2.49</text>
</g>
</g>
</svg>
