<?xml version="1.0" encoding="UTF-8" standalone="no"?>
<!DOCTYPE svg PUBLIC "-//W3C//DTD SVG 1.1//EN"
 "http://www.w3.org/Graphics/SVG/1.1/DTD/svg11.dtd">
<!-- Generated by graphviz version 9.0.0 (20230911.1827)
 -->
<!-- Title: neat Pages: 1 -->
<svg width="276pt" height="291pt"
 viewBox="0.00 0.00 276.42 290.74" xmlns="http://www.w3.org/2000/svg" xmlns:xlink="http://www.w3.org/1999/xlink">
<g id="graph0" class="graph" transform="scale(1 1) rotate(0) translate(4 286.74)">
<title>neat</title>
<polygon fill="white" stroke="none" points="-4,4 -4,-286.74 272.42,-286.74 272.42,4 -4,4"/>
<!-- node0 -->
<g id="node1" class="node">
<title>node0</title>
<ellipse fill="lightblue" stroke="black" cx="24.74" cy="-18" rx="18" ry="18"/>
<text text-anchor="middle" x="24.74" y="-12.95" font-family="Times,serif" font-size="14.00">0</text>
</g>
<!-- node1 -->
<g id="node2" class="node">
<title>node1</title>
<ellipse fill="lightblue" stroke="black" cx="24.74" cy="-72" rx="18" ry="18"/>
<text text-anchor="middle" x="24.74" y="-66.95" font-family="Times,serif" font-size="14.00">1</text>
</g>
<!-- node91 -->
<g id="node3" class="node">
<title>node91</title>
<ellipse fill="lightgreen" stroke="black" cx="24.74" cy="-128" rx="20.13" ry="20.13"/>
<text text-anchor="middle" x="24.74" y="-122.95" font-family="Times,serif" font-size="14.00">91</text>
</g>
<!-- node165 -->
<g id="node4" class="node">
<title>node165</title>
<ellipse fill="lightgray" stroke="black" cx="24.74" cy="-191" rx="24.74" ry="24.74"/>
<text text-anchor="middle" x="24.74" y="-185.95" font-family="Times,serif" font-size="14.00">165</text>
</g>
<!-- node299 -->
<g id="node7" class="node">
<title>node299</title>
<ellipse fill="lightgray" stroke="black" cx="134.21" cy="-191" rx="24.74" ry="24.74"/>
<text text-anchor="middle" x="134.21" y="-185.95" font-family="Times,serif" font-size="14.00">299</text>
</g>
<!-- node165&#45;&gt;node299 -->
<g id="edge1" class="edge">
<title>node165&#45;&gt;node299</title>
<path fill="none" stroke="black" d="M49.86,-191C63.96,-191 82.03,-191 97.73,-191"/>
<polygon fill="black" stroke="black" points="97.66,-194.5 107.66,-191 97.66,-187.5 97.66,-194.5"/>
<text text-anchor="middle" x="79.47" y="-194.2" font-family="Times,serif" font-size="14.00">1.00</text>
</g>
<!-- node190 -->
<g id="node5" class="node">
<title>node190</title>
<ellipse fill="lightgray" stroke="black" cx="243.69" cy="-191" rx="24.74" ry="24.74"/>
<text text-anchor="middle" x="243.69" y="-185.95" font-family="Times,serif" font-size="14.00">190</text>
</g>
<!-- node293 -->
<g id="node6" class="node">
<title>node293</title>
<ellipse fill="lightgray" stroke="black" cx="24.74" cy="-258" rx="24.74" ry="24.74"/>
<text text-anchor="middle" x="24.74" y="-252.95" font-family="Times,serif" font-size="14.00">293</text>
</g>
<!-- node299&#45;&gt;node190 -->
<g id="edge2" class="edge">
<title>node299&#45;&gt;node190</title>
<path fill="none" stroke="black" d="M159.33,-191C173.44,-191 191.5,-191 207.2,-191"/>
<polygon fill="black" stroke="black" points="207.13,-194.5 217.13,-191 207.13,-187.5 207.13,-194.5"/>
<text text-anchor="middle" x="188.95" y="-194.2" font-family="Times,serif" font-size="14.00">1.21</text>
</g>
</g>
</svg>
