<?xml version="1.0" encoding="UTF-8" standalone="no"?>
<!DOCTYPE svg PUBLIC "-//W3C//DTD SVG 1.1//EN"
 "http://www.w3.org/Graphics/SVG/1.1/DTD/svg11.dtd">
<!-- Generated by graphviz version 9.0.0 (20230911.1827)
 -->
<!-- Title: neat Pages: 1 -->
<svg width="377pt" height="112pt"
 viewBox="0.00 0.00 376.92 111.74" xmlns="http://www.w3.org/2000/svg" xmlns:xlink="http://www.w3.org/1999/xlink">
<g id="graph0" class="graph" transform="scale(1 1) rotate(0) translate(4 107.74)">
<title>neat</title>
<polygon fill="white" stroke="none" points="-4,4 -4,-107.74 372.92,-107.74 372.92,4 -4,4"/>
<!-- node0 -->
<g id="node1" class="node">
<title>node0</title>
<ellipse fill="lightblue" stroke="black" cx="230.21" cy="-85.74" rx="18" ry="18"/>
<text text-anchor="middle" x="230.21" y="-80.69" font-family="Times,serif" font-size="14.00">0</text>
</g>
<!-- node141 -->
<g id="node3" class="node">
<title>node141</title>
<ellipse fill="lightgreen" stroke="black" cx="344.19" cy="-55.74" rx="24.74" ry="24.74"/>
<text text-anchor="middle" x="344.19" y="-50.69" font-family="Times,serif" font-size="14.00">141</text>
</g>
<!-- node0&#45;&gt;node141 -->
<g id="edge1" class="edge">
<title>node0&#45;&gt;node141</title>
<path fill="none" stroke="black" d="M247.73,-81.31C263.78,-77.01 288.62,-70.36 308.93,-64.91"/>
<polygon fill="black" stroke="black" points="309.76,-68.32 318.51,-62.35 307.95,-61.56 309.76,-68.32"/>
<text text-anchor="middle" x="287.2" y="-76.94" font-family="Times,serif" font-size="14.00">3.26</text>
</g>
<!-- node1 -->
<g id="node2" class="node">
<title>node1</title>
<ellipse fill="lightblue" stroke="black" cx="18" cy="-24.74" rx="18" ry="18"/>
<text text-anchor="middle" x="18" y="-19.69" font-family="Times,serif" font-size="14.00">1</text>
</g>
<!-- node159 -->
<g id="node4" class="node">
<title>node159</title>
<ellipse fill="lightgray" stroke="black" cx="120.74" cy="-67.74" rx="24.74" ry="24.74"/>
<text text-anchor="middle" x="120.74" y="-62.69" font-family="Times,serif" font-size="14.00">159</text>
</g>
<!-- node1&#45;&gt;node159 -->
<g id="edge2" class="edge">
<title>node1&#45;&gt;node159</title>
<path fill="none" stroke="black" d="M34.74,-31.46C48.67,-37.4 69.45,-46.27 86.98,-53.75"/>
<polygon fill="black" stroke="black" points="85.42,-56.89 95.99,-57.6 88.17,-50.46 85.42,-56.89"/>
<text text-anchor="middle" x="66" y="-52.94" font-family="Times,serif" font-size="14.00">0.57</text>
</g>
<!-- node191 -->
<g id="node5" class="node">
<title>node191</title>
<ellipse fill="lightgray" stroke="black" cx="230.21" cy="-24.74" rx="24.74" ry="24.74"/>
<text text-anchor="middle" x="230.21" y="-19.69" font-family="Times,serif" font-size="14.00">191</text>
</g>
<!-- node1&#45;&gt;node191 -->
<g id="edge5" class="edge">
<title>node1&#45;&gt;node191</title>
<path fill="none" stroke="black" d="M36.09,-22.59C51.67,-20.75 75.34,-18.24 96,-17.24 117.96,-16.17 123.51,-16.26 145.47,-17.24 161.47,-17.95 179.13,-19.43 194.09,-20.89"/>
<polygon fill="black" stroke="black" points="193.62,-24.36 203.92,-21.88 194.33,-17.39 193.62,-24.36"/>
<text text-anchor="middle" x="120.74" y="-20.94" font-family="Times,serif" font-size="14.00">1.18</text>
</g>
<!-- node159&#45;&gt;node191 -->
<g id="edge3" class="edge">
<title>node159&#45;&gt;node191</title>
<path fill="none" stroke="black" d="M144.27,-58.72C159.31,-52.7 179.36,-44.68 196.19,-37.95"/>
<polygon fill="black" stroke="black" points="197.32,-41.27 205.31,-34.3 194.72,-34.77 197.32,-41.27"/>
<text text-anchor="middle" x="175.47" y="-53.94" font-family="Times,serif" font-size="14.00">1.00</text>
</g>
<!-- node191&#45;&gt;node141 -->
<g id="edge4" class="edge">
<title>node191&#45;&gt;node141</title>
<path fill="none" stroke="black" d="M254.41,-31.16C270.18,-35.52 291.3,-41.37 308.98,-46.27"/>
<polygon fill="black" stroke="black" points="307.99,-49.62 318.56,-48.92 309.85,-42.88 307.99,-49.62"/>
<text text-anchor="middle" x="287.2" y="-47.94" font-family="Times,serif" font-size="14.00">&#45;2.54</text>
</g>
</g>
</svg>
