<?xml version="1.0" encoding="UTF-8" standalone="no"?>
<!DOCTYPE svg PUBLIC "-//W3C//DTD SVG 1.1//EN"
 "http://www.w3.org/Graphics/SVG/1.1/DTD/svg11.dtd">
<!-- Generated by graphviz version 9.0.0 (20230911.1827)
 -->
<!-- Title: neat Pages: 1 -->
<svg width="572pt" height="864pt"
 viewBox="0.00 0.00 571.92 864.00" xmlns="http://www.w3.org/2000/svg" xmlns:xlink="http://www.w3.org/1999/xlink">
<g id="graph0" class="graph" transform="scale(1 1) rotate(0) translate(4 860)">
<title>neat</title>
<polygon fill="white" stroke="none" points="-4,4 -4,-860 567.92,-860 567.92,4 -4,4"/>
<g id="clust1" class="cluster">
<title>cluster_0</title>
<path fill="none" stroke="gray" d="M20,-8C20,-8 543.92,-8 543.92,-8 549.92,-8 555.92,-14 555.92,-20 555.92,-20 555.92,-200 555.92,-200 555.92,-206 549.92,-212 543.92,-212 543.92,-212 20,-212 20,-212 14,-212 8,-206 8,-200 8,-200 8,-20 8,-20 8,-14 14,-8 20,-8"/>
<text text-anchor="middle" x="281.96" y="-194.7" font-family="Times,serif" font-size="14.00">Test 0,0 → 0</text>
</g>
<g id="clust2" class="cluster">
<title>cluster_1</title>
<path fill="none" stroke="gray" d="M20,-220C20,-220 543.92,-220 543.92,-220 549.92,-220 555.92,-226 555.92,-232 555.92,-232 555.92,-412 555.92,-412 555.92,-418 549.92,-424 543.92,-424 543.92,-424 20,-424 20,-424 14,-424 8,-418 8,-412 8,-412 8,-232 8,-232 8,-226 14,-220 20,-220"/>
<text text-anchor="middle" x="281.96" y="-406.7" font-family="Times,serif" font-size="14.00">Test 0,1 → 1</text>
</g>
<g id="clust3" class="cluster">
<title>cluster_2</title>
<path fill="none" stroke="gray" d="M20,-432C20,-432 543.92,-432 543.92,-432 549.92,-432 555.92,-438 555.92,-444 555.92,-444 555.92,-624 555.92,-624 555.92,-630 549.92,-636 543.92,-636 543.92,-636 20,-636 20,-636 14,-636 8,-630 8,-624 8,-624 8,-444 8,-444 8,-438 14,-432 20,-432"/>
<text text-anchor="middle" x="281.96" y="-618.7" font-family="Times,serif" font-size="14.00">Test 1,0 → 1</text>
</g>
<g id="clust4" class="cluster">
<title>cluster_3</title>
<path fill="none" stroke="gray" d="M20,-644C20,-644 543.92,-644 543.92,-644 549.92,-644 555.92,-650 555.92,-656 555.92,-656 555.92,-836 555.92,-836 555.92,-842 549.92,-848 543.92,-848 543.92,-848 20,-848 20,-848 14,-848 8,-842 8,-836 8,-836 8,-656 8,-656 8,-650 14,-644 20,-644"/>
<text text-anchor="middle" x="281.96" y="-830.7" font-family="Times,serif" font-size="14.00">Test 1,1 → 0</text>
</g>
<!-- node0_0 -->
<g id="node1" class="node">
<title>node0_0</title>
<ellipse fill="lightblue" stroke="black" cx="47.9" cy="-148" rx="31.9" ry="31.9"/>
<text text-anchor="middle" x="47.9" y="-142.95" font-family="Times,serif" font-size="14.00">0.000</text>
</g>
<!-- node187_0 -->
<g id="node4" class="node">
<title>node187_0</title>
<ellipse fill="lightgray" stroke="black" cx="279.71" cy="-148" rx="31.9" ry="31.9"/>
<text text-anchor="middle" x="279.71" y="-142.95" font-family="Times,serif" font-size="14.00">0.500</text>
</g>
<!-- node0_0&#45;&gt;node187_0 -->
<g id="edge1" class="edge">
<title>node0_0&#45;&gt;node187_0</title>
<path fill="none" stroke="black" d="M79.9,-148C120.16,-148 190.64,-148 235.96,-148"/>
<polygon fill="black" stroke="black" points="235.96,-151.5 245.96,-148 235.96,-144.5 235.96,-151.5"/>
<text text-anchor="middle" x="163.81" y="-151.2" font-family="Times,serif" font-size="14.00">1.00</text>
</g>
<!-- node1_0 -->
<g id="node2" class="node">
<title>node1_0</title>
<ellipse fill="lightblue" stroke="black" cx="47.9" cy="-48" rx="31.9" ry="31.9"/>
<text text-anchor="middle" x="47.9" y="-42.95" font-family="Times,serif" font-size="14.00">0.000</text>
</g>
<!-- node48_0 -->
<g id="node3" class="node">
<title>node48_0</title>
<ellipse fill="lightgreen" stroke="black" cx="516.01" cy="-148" rx="31.9" ry="31.9"/>
<text text-anchor="middle" x="516.01" y="-142.95" font-family="Times,serif" font-size="14.00">0.100</text>
</g>
<!-- node187_0&#45;&gt;node48_0 -->
<g id="edge2" class="edge">
<title>node187_0&#45;&gt;node48_0</title>
<path fill="none" stroke="black" d="M311.82,-148C353.05,-148 425.95,-148 472.31,-148"/>
<polygon fill="black" stroke="black" points="472.26,-151.5 482.26,-148 472.26,-144.5 472.26,-151.5"/>
<text text-anchor="middle" x="397.86" y="-151.2" font-family="Times,serif" font-size="14.00">&#45;0.89</text>
</g>
<!-- node0_1 -->
<g id="node5" class="node">
<title>node0_1</title>
<ellipse fill="lightblue" stroke="black" cx="47.9" cy="-360" rx="31.9" ry="31.9"/>
<text text-anchor="middle" x="47.9" y="-354.95" font-family="Times,serif" font-size="14.00">0.000</text>
</g>
<!-- node187_1 -->
<g id="node8" class="node">
<title>node187_1</title>
<ellipse fill="lightgray" stroke="black" cx="279.71" cy="-360" rx="31.9" ry="31.9"/>
<text text-anchor="middle" x="279.71" y="-354.95" font-family="Times,serif" font-size="14.00">0.500</text>
</g>
<!-- node0_1&#45;&gt;node187_1 -->
<g id="edge3" class="edge">
<title>node0_1&#45;&gt;node187_1</title>
<path fill="none" stroke="black" d="M79.9,-360C120.16,-360 190.64,-360 235.96,-360"/>
<polygon fill="black" stroke="black" points="235.96,-363.5 245.96,-360 235.96,-356.5 235.96,-363.5"/>
<text text-anchor="middle" x="163.81" y="-363.2" font-family="Times,serif" font-size="14.00">1.00</text>
</g>
<!-- node1_1 -->
<g id="node6" class="node">
<title>node1_1</title>
<ellipse fill="lightblue" stroke="black" cx="47.9" cy="-260" rx="31.9" ry="31.9"/>
<text text-anchor="middle" x="47.9" y="-254.95" font-family="Times,serif" font-size="14.00">1.000</text>
</g>
<!-- node48_1 -->
<g id="node7" class="node">
<title>node48_1</title>
<ellipse fill="lightgreen" stroke="black" cx="516.01" cy="-360" rx="31.9" ry="31.9"/>
<text text-anchor="middle" x="516.01" y="-354.95" font-family="Times,serif" font-size="14.00">0.100</text>
</g>
<!-- node187_1&#45;&gt;node48_1 -->
<g id="edge4" class="edge">
<title>node187_1&#45;&gt;node48_1</title>
<path fill="none" stroke="black" d="M311.82,-360C353.05,-360 425.95,-360 472.31,-360"/>
<polygon fill="black" stroke="black" points="472.26,-363.5 482.26,-360 472.26,-356.5 472.26,-363.5"/>
<text text-anchor="middle" x="397.86" y="-363.2" font-family="Times,serif" font-size="14.00">&#45;0.89</text>
</g>
<!-- node0_2 -->
<g id="node9" class="node">
<title>node0_2</title>
<ellipse fill="lightblue" stroke="black" cx="47.9" cy="-572" rx="31.9" ry="31.9"/>
<text text-anchor="middle" x="47.9" y="-566.95" font-family="Times,serif" font-size="14.00">1.000</text>
</g>
<!-- node187_2 -->
<g id="node12" class="node">
<title>node187_2</title>
<ellipse fill="lightgray" stroke="black" cx="279.71" cy="-572" rx="31.9" ry="31.9"/>
<text text-anchor="middle" x="279.71" y="-566.95" font-family="Times,serif" font-size="14.00">0.993</text>
</g>
<!-- node0_2&#45;&gt;node187_2 -->
<g id="edge5" class="edge">
<title>node0_2&#45;&gt;node187_2</title>
<path fill="none" stroke="black" d="M79.9,-572C120.16,-572 190.64,-572 235.96,-572"/>
<polygon fill="black" stroke="black" points="235.96,-575.5 245.96,-572 235.96,-568.5 235.96,-575.5"/>
<text text-anchor="middle" x="163.81" y="-575.2" font-family="Times,serif" font-size="14.00">1.00</text>
</g>
<!-- node1_2 -->
<g id="node10" class="node">
<title>node1_2</title>
<ellipse fill="lightblue" stroke="black" cx="47.9" cy="-472" rx="31.9" ry="31.9"/>
<text text-anchor="middle" x="47.9" y="-466.95" font-family="Times,serif" font-size="14.00">0.000</text>
</g>
<!-- node48_2 -->
<g id="node11" class="node">
<title>node48_2</title>
<ellipse fill="lightgreen" stroke="black" cx="516.01" cy="-572" rx="31.9" ry="31.9"/>
<text text-anchor="middle" x="516.01" y="-566.95" font-family="Times,serif" font-size="14.00">0.013</text>
</g>
<!-- node187_2&#45;&gt;node48_2 -->
<g id="edge6" class="edge">
<title>node187_2&#45;&gt;node48_2</title>
<path fill="none" stroke="black" d="M311.82,-572C353.05,-572 425.95,-572 472.31,-572"/>
<polygon fill="black" stroke="black" points="472.26,-575.5 482.26,-572 472.26,-568.5 472.26,-575.5"/>
<text text-anchor="middle" x="397.86" y="-575.2" font-family="Times,serif" font-size="14.00">&#45;0.89</text>
</g>
<!-- node0_3 -->
<g id="node13" class="node">
<title>node0_3</title>
<ellipse fill="lightblue" stroke="black" cx="47.9" cy="-784" rx="31.9" ry="31.9"/>
<text text-anchor="middle" x="47.9" y="-778.95" font-family="Times,serif" font-size="14.00">1.000</text>
</g>
<!-- node187_3 -->
<g id="node16" class="node">
<title>node187_3</title>
<ellipse fill="lightgray" stroke="black" cx="279.71" cy="-784" rx="31.9" ry="31.9"/>
<text text-anchor="middle" x="279.71" y="-778.95" font-family="Times,serif" font-size="14.00">0.993</text>
</g>
<!-- node0_3&#45;&gt;node187_3 -->
<g id="edge7" class="edge">
<title>node0_3&#45;&gt;node187_3</title>
<path fill="none" stroke="black" d="M79.9,-784C120.16,-784 190.64,-784 235.96,-784"/>
<polygon fill="black" stroke="black" points="235.96,-787.5 245.96,-784 235.96,-780.5 235.96,-787.5"/>
<text text-anchor="middle" x="163.81" y="-787.2" font-family="Times,serif" font-size="14.00">1.00</text>
</g>
<!-- node1_3 -->
<g id="node14" class="node">
<title>node1_3</title>
<ellipse fill="lightblue" stroke="black" cx="47.9" cy="-684" rx="31.9" ry="31.9"/>
<text text-anchor="middle" x="47.9" y="-678.95" font-family="Times,serif" font-size="14.00">1.000</text>
</g>
<!-- node48_3 -->
<g id="node15" class="node">
<title>node48_3</title>
<ellipse fill="lightgreen" stroke="black" cx="516.01" cy="-784" rx="31.9" ry="31.9"/>
<text text-anchor="middle" x="516.01" y="-778.95" font-family="Times,serif" font-size="14.00">0.013</text>
</g>
<!-- node187_3&#45;&gt;node48_3 -->
<g id="edge8" class="edge">
<title>node187_3&#45;&gt;node48_3</title>
<path fill="none" stroke="black" d="M311.82,-784C353.05,-784 425.95,-784 472.31,-784"/>
<polygon fill="black" stroke="black" points="472.26,-787.5 482.26,-784 472.26,-780.5 472.26,-787.5"/>
<text text-anchor="middle" x="397.86" y="-787.2" font-family="Times,serif" font-size="14.00">&#45;0.89</text>
</g>
</g>
</svg>
