<?xml version="1.0" encoding="UTF-8" standalone="no"?>
<!DOCTYPE svg PUBLIC "-//W3C//DTD SVG 1.1//EN"
 "http://www.w3.org/Graphics/SVG/1.1/DTD/svg11.dtd">
<!-- Generated by graphviz version 9.0.0 (20230911.1827)
 -->
<!-- Title: neat Pages: 1 -->
<svg width="368pt" height="107pt"
 viewBox="0.00 0.00 367.71 107.00" xmlns="http://www.w3.org/2000/svg" xmlns:xlink="http://www.w3.org/1999/xlink">
<g id="graph0" class="graph" transform="scale(1 1) rotate(0) translate(4 103)">
<title>neat</title>
<polygon fill="white" stroke="none" points="-4,4 -4,-103 363.71,-103 363.71,4 -4,4"/>
<!-- node0 -->
<g id="node1" class="node">
<title>node0</title>
<ellipse fill="lightblue" stroke="black" cx="18" cy="-81" rx="18" ry="18"/>
<text text-anchor="middle" x="18" y="-75.95" font-family="Times,serif" font-size="14.00">0</text>
</g>
<!-- node152 -->
<g id="node4" class="node">
<title>node152</title>
<ellipse fill="lightgray" stroke="black" cx="120.74" cy="-61" rx="24.74" ry="24.74"/>
<text text-anchor="middle" x="120.74" y="-55.95" font-family="Times,serif" font-size="14.00">152</text>
</g>
<!-- node0&#45;&gt;node152 -->
<g id="edge2" class="edge">
<title>node0&#45;&gt;node152</title>
<path fill="none" stroke="black" d="M36.09,-77.61C49.5,-74.95 68.6,-71.15 85.17,-67.86"/>
<polygon fill="black" stroke="black" points="85.52,-71.36 94.65,-65.98 84.16,-64.5 85.52,-71.36"/>
<text text-anchor="middle" x="66" y="-76.2" font-family="Times,serif" font-size="14.00">0.51</text>
</g>
<!-- node1 -->
<g id="node2" class="node">
<title>node1</title>
<ellipse fill="lightblue" stroke="black" cx="18" cy="-18" rx="18" ry="18"/>
<text text-anchor="middle" x="18" y="-12.95" font-family="Times,serif" font-size="14.00">1</text>
</g>
<!-- node81 -->
<g id="node3" class="node">
<title>node81</title>
<ellipse fill="lightgreen" stroke="black" cx="339.58" cy="-24" rx="20.13" ry="20.13"/>
<text text-anchor="middle" x="339.58" y="-18.95" font-family="Times,serif" font-size="14.00">81</text>
</g>
<!-- node1&#45;&gt;node81 -->
<g id="edge1" class="edge">
<title>node1&#45;&gt;node81</title>
<path fill="none" stroke="black" d="M36.18,-18.32C87.81,-19.29 242.06,-22.19 308.06,-23.43"/>
<polygon fill="black" stroke="black" points="307.74,-26.92 317.8,-23.61 307.87,-19.92 307.74,-26.92"/>
<text text-anchor="middle" x="177.72" y="-24.2" font-family="Times,serif" font-size="14.00">1.37</text>
</g>
<!-- node1&#45;&gt;node152 -->
<g id="edge5" class="edge">
<title>node1&#45;&gt;node152</title>
<path fill="none" stroke="black" d="M34.74,-24.72C48.67,-30.67 69.45,-39.54 86.98,-47.02"/>
<polygon fill="black" stroke="black" points="85.42,-50.16 95.99,-50.86 88.17,-43.72 85.42,-50.16"/>
<text text-anchor="middle" x="66" y="-45.2" font-family="Times,serif" font-size="14.00">0.43</text>
</g>
<!-- node189 -->
<g id="node5" class="node">
<title>node189</title>
<ellipse fill="lightgray" stroke="black" cx="234.71" cy="-61" rx="24.74" ry="24.74"/>
<text text-anchor="middle" x="234.71" y="-55.95" font-family="Times,serif" font-size="14.00">189</text>
</g>
<!-- node152&#45;&gt;node189 -->
<g id="edge3" class="edge">
<title>node152&#45;&gt;node189</title>
<path fill="none" stroke="black" d="M145.76,-61C161.11,-61 181.28,-61 198.43,-61"/>
<polygon fill="black" stroke="black" points="198.22,-64.5 208.22,-61 198.22,-57.5 198.22,-64.5"/>
<text text-anchor="middle" x="177.72" y="-64.2" font-family="Times,serif" font-size="14.00">&#45;0.12</text>
</g>
<!-- node189&#45;&gt;node81 -->
<g id="edge4" class="edge">
<title>node189&#45;&gt;node81</title>
<path fill="none" stroke="black" d="M258.54,-52.79C273.64,-47.36 293.57,-40.19 309.76,-34.37"/>
<polygon fill="black" stroke="black" points="310.62,-37.78 318.84,-31.1 308.25,-31.19 310.62,-37.78"/>
<text text-anchor="middle" x="289.45" y="-48.2" font-family="Times,serif" font-size="14.00">5.76</text>
</g>
</g>
</svg>
