<?xml version="1.0" encoding="UTF-8" standalone="no"?>
<!DOCTYPE svg PUBLIC "-//W3C//DTD SVG 1.1//EN"
 "http://www.w3.org/Graphics/SVG/1.1/DTD/svg11.dtd">
<!-- Generated by graphviz version 9.0.0 (20230911.1827)
 -->
<!-- Title: neat Pages: 1 -->
<svg width="448pt" height="154pt"
 viewBox="0.00 0.00 447.72 153.81" xmlns="http://www.w3.org/2000/svg" xmlns:xlink="http://www.w3.org/1999/xlink">
<g id="graph0" class="graph" transform="scale(1 1) rotate(0) translate(4 149.81)">
<title>neat</title>
<polygon fill="white" stroke="none" points="-4,4 -4,-149.81 443.72,-149.81 443.72,4 -4,4"/>
<!-- node0 -->
<g id="node1" class="node">
<title>node0</title>
<ellipse fill="lightblue" stroke="black" cx="279.51" cy="-113.9" rx="31.9" ry="31.9"/>
<text text-anchor="middle" x="279.51" y="-108.85" font-family="Times,serif" font-size="14.00">0.000</text>
</g>
<!-- node129 -->
<g id="node3" class="node">
<title>node129</title>
<ellipse fill="lightgreen" stroke="black" cx="407.82" cy="-72.9" rx="31.9" ry="31.9"/>
<text text-anchor="middle" x="407.82" y="-67.85" font-family="Times,serif" font-size="14.00">0.000</text>
</g>
<!-- node0&#45;&gt;node129 -->
<g id="edge1" class="edge">
<title>node0&#45;&gt;node129</title>
<path fill="none" stroke="black" d="M310.13,-104.29C326.79,-98.88 347.85,-92.05 366.05,-86.14"/>
<polygon fill="black" stroke="black" points="367.08,-89.48 375.51,-83.06 364.92,-82.82 367.08,-89.48"/>
<text text-anchor="middle" x="343.67" y="-100.1" font-family="Times,serif" font-size="14.00">0.51</text>
</g>
<!-- node1 -->
<g id="node2" class="node">
<title>node1</title>
<ellipse fill="lightblue" stroke="black" cx="31.9" cy="-31.9" rx="31.9" ry="31.9"/>
<text text-anchor="middle" x="31.9" y="-26.85" font-family="Times,serif" font-size="14.00">1.000</text>
</g>
<!-- node211 -->
<g id="node5" class="node">
<title>node211</title>
<ellipse fill="lightgray" stroke="black" cx="155.71" cy="-31.9" rx="31.9" ry="31.9"/>
<text text-anchor="middle" x="155.71" y="-26.85" font-family="Times,serif" font-size="14.00">0.993</text>
</g>
<!-- node1&#45;&gt;node211 -->
<g id="edge3" class="edge">
<title>node1&#45;&gt;node211</title>
<path fill="none" stroke="black" d="M64.27,-31.9C78.9,-31.9 96.54,-31.9 112.34,-31.9"/>
<polygon fill="black" stroke="black" points="111.93,-35.4 121.93,-31.9 111.93,-28.4 111.93,-35.4"/>
<text text-anchor="middle" x="93.81" y="-35.1" font-family="Times,serif" font-size="14.00">1.00</text>
</g>
<!-- node171 -->
<g id="node4" class="node">
<title>node171</title>
<ellipse fill="lightgray" stroke="black" cx="279.51" cy="-31.9" rx="31.9" ry="31.9"/>
<text text-anchor="middle" x="279.51" y="-26.85" font-family="Times,serif" font-size="14.00">0.500</text>
</g>
<!-- node171&#45;&gt;node129 -->
<g id="edge2" class="edge">
<title>node171&#45;&gt;node129</title>
<path fill="none" stroke="black" d="M310.13,-41.52C326.79,-46.93 347.85,-53.76 366.05,-59.67"/>
<polygon fill="black" stroke="black" points="364.92,-62.98 375.51,-62.74 367.08,-56.32 364.92,-62.98"/>
<text text-anchor="middle" x="343.67" y="-60.1" font-family="Times,serif" font-size="14.00">&#45;3.88</text>
</g>
<!-- node211&#45;&gt;node171 -->
<g id="edge4" class="edge">
<title>node211&#45;&gt;node171</title>
<path fill="none" stroke="black" d="M188.08,-31.9C202.71,-31.9 220.35,-31.9 236.14,-31.9"/>
<polygon fill="black" stroke="black" points="235.74,-35.4 245.74,-31.9 235.74,-28.4 235.74,-35.4"/>
<text text-anchor="middle" x="217.61" y="-35.1" font-family="Times,serif" font-size="14.00">2.42</text>
</g>
</g>
</svg>
