<?xml version="1.0" encoding="UTF-8" standalone="no"?>
<!DOCTYPE svg PUBLIC "-//W3C//DTD SVG 1.1//EN"
 "http://www.w3.org/Graphics/SVG/1.1/DTD/svg11.dtd">
<!-- Generated by graphviz version 9.0.0 (20230911.1827)
 -->
<!-- Title: neat Pages: 1 -->
<svg width="328pt" height="277pt"
 viewBox="0.00 0.00 328.42 276.81" xmlns="http://www.w3.org/2000/svg" xmlns:xlink="http://www.w3.org/1999/xlink">
<g id="graph0" class="graph" transform="scale(1 1) rotate(0) translate(4 272.81)">
<title>neat</title>
<polygon fill="white" stroke="none" points="-4,4 -4,-272.81 324.42,-272.81 324.42,4 -4,4"/>
<!-- node0 -->
<g id="node1" class="node">
<title>node0</title>
<ellipse fill="lightblue" stroke="black" cx="160.21" cy="-195.9" rx="31.9" ry="31.9"/>
<text text-anchor="middle" x="160.21" y="-190.85" font-family="Times,serif" font-size="14.00">0.000</text>
</g>
<!-- node251 -->
<g id="node6" class="node">
<title>node251</title>
<ellipse fill="lightgray" stroke="black" cx="288.51" cy="-113.9" rx="31.9" ry="31.9"/>
<text text-anchor="middle" x="288.51" y="-108.85" font-family="Times,serif" font-size="14.00">0.500</text>
</g>
<!-- node0&#45;&gt;node251 -->
<g id="edge2" class="edge">
<title>node0&#45;&gt;node251</title>
<path fill="none" stroke="black" d="M187.38,-178.91C206.01,-166.82 231.27,-150.42 251.75,-137.12"/>
<polygon fill="black" stroke="black" points="253.63,-140.08 260.11,-131.7 249.81,-134.21 253.63,-140.08"/>
<text text-anchor="middle" x="224.36" y="-165.1" font-family="Times,serif" font-size="14.00">3.00</text>
</g>
<!-- node1 -->
<g id="node2" class="node">
<title>node1</title>
<ellipse fill="lightblue" stroke="black" cx="31.9" cy="-72.9" rx="31.9" ry="31.9"/>
<text text-anchor="middle" x="31.9" y="-67.85" font-family="Times,serif" font-size="14.00">1.000</text>
</g>
<!-- node110 -->
<g id="node3" class="node">
<title>node110</title>
<ellipse fill="lightgreen" stroke="black" cx="160.21" cy="-113.9" rx="31.9" ry="31.9"/>
<text text-anchor="middle" x="160.21" y="-108.85" font-family="Times,serif" font-size="14.00">0.004</text>
</g>
<!-- node1&#45;&gt;node110 -->
<g id="edge1" class="edge">
<title>node1&#45;&gt;node110</title>
<path fill="none" stroke="black" d="M62.52,-82.52C79.18,-87.93 100.24,-94.76 118.44,-100.67"/>
<polygon fill="black" stroke="black" points="117.31,-103.98 127.9,-103.74 119.47,-97.32 117.31,-103.98"/>
<text text-anchor="middle" x="96.06" y="-100.1" font-family="Times,serif" font-size="14.00">&#45;1.15</text>
</g>
<!-- node270 -->
<g id="node7" class="node">
<title>node270</title>
<ellipse fill="lightgray" stroke="black" cx="160.21" cy="-31.9" rx="31.9" ry="31.9"/>
<text text-anchor="middle" x="160.21" y="-26.85" font-family="Times,serif" font-size="14.00">0.993</text>
</g>
<!-- node1&#45;&gt;node270 -->
<g id="edge3" class="edge">
<title>node1&#45;&gt;node270</title>
<path fill="none" stroke="black" d="M62.52,-63.29C79.18,-57.88 100.24,-51.05 118.44,-45.14"/>
<polygon fill="black" stroke="black" points="119.47,-48.48 127.9,-42.06 117.31,-41.82 119.47,-48.48"/>
<text text-anchor="middle" x="96.06" y="-60.1" font-family="Times,serif" font-size="14.00">1.00</text>
</g>
<!-- node156 -->
<g id="node4" class="node">
<title>node156</title>
<ellipse fill="lightgray" stroke="black" cx="31.9" cy="-154.9" rx="31.9" ry="31.9"/>
<text text-anchor="middle" x="31.9" y="-149.85" font-family="Times,serif" font-size="14.00">0.500</text>
</g>
<!-- node184 -->
<g id="node5" class="node">
<title>node184</title>
<ellipse fill="lightgray" stroke="black" cx="31.9" cy="-236.9" rx="31.9" ry="31.9"/>
<text text-anchor="middle" x="31.9" y="-231.85" font-family="Times,serif" font-size="14.00">0.500</text>
</g>
<!-- node270&#45;&gt;node251 -->
<g id="edge4" class="edge">
<title>node270&#45;&gt;node251</title>
<path fill="none" stroke="black" d="M187.38,-48.89C206.01,-60.99 231.27,-77.39 251.75,-90.69"/>
<polygon fill="black" stroke="black" points="249.81,-93.6 260.11,-96.11 253.63,-87.73 249.81,-93.6"/>
<text text-anchor="middle" x="224.36" y="-83.1" font-family="Times,serif" font-size="14.00">&#45;1.14</text>
</g>
</g>
</svg>
