<?xml version="1.0" encoding="UTF-8" standalone="no"?>
<!DOCTYPE svg PUBLIC "-//W3C//DTD SVG 1.1//EN"
 "http://www.w3.org/Graphics/SVG/1.1/DTD/svg11.dtd">
<!-- Generated by graphviz version 9.0.0 (20230911.1827)
 -->
<!-- Title: neat Pages: 1 -->
<svg width="167pt" height="205pt"
 viewBox="0.00 0.00 166.95 205.47" xmlns="http://www.w3.org/2000/svg" xmlns:xlink="http://www.w3.org/1999/xlink">
<g id="graph0" class="graph" transform="scale(1 1) rotate(0) translate(4 201.47)">
<title>neat</title>
<polygon fill="white" stroke="none" points="-4,4 -4,-201.47 162.95,-201.47 162.95,4 -4,4"/>
<!-- node0 -->
<g id="node1" class="node">
<title>node0</title>
<ellipse fill="lightblue" stroke="black" cx="24.74" cy="-57.74" rx="18" ry="18"/>
<text text-anchor="middle" x="24.74" y="-52.69" font-family="Times,serif" font-size="14.00">0</text>
</g>
<!-- node148 -->
<g id="node3" class="node">
<title>node148</title>
<ellipse fill="lightgreen" stroke="black" cx="134.21" cy="-91.74" rx="24.74" ry="24.74"/>
<text text-anchor="middle" x="134.21" y="-86.69" font-family="Times,serif" font-size="14.00">148</text>
</g>
<!-- node0&#45;&gt;node148 -->
<g id="edge1" class="edge">
<title>node0&#45;&gt;node148</title>
<path fill="none" stroke="black" d="M42.06,-62.9C57.28,-67.72 80.44,-75.04 99.61,-81.11"/>
<polygon fill="black" stroke="black" points="98.31,-84.37 108.9,-84.05 100.42,-77.69 98.31,-84.37"/>
<text text-anchor="middle" x="79.47" y="-80.94" font-family="Times,serif" font-size="14.00">2.00</text>
</g>
<!-- node179 -->
<g id="node4" class="node">
<title>node179</title>
<ellipse fill="lightgray" stroke="black" cx="134.21" cy="-24.74" rx="24.74" ry="24.74"/>
<text text-anchor="middle" x="134.21" y="-19.69" font-family="Times,serif" font-size="14.00">179</text>
</g>
<!-- node0&#45;&gt;node179 -->
<g id="edge2" class="edge">
<title>node0&#45;&gt;node179</title>
<path fill="none" stroke="black" d="M42.06,-52.73C57.21,-48.07 80.23,-41.01 99.34,-35.14"/>
<polygon fill="black" stroke="black" points="100.36,-38.48 108.9,-32.2 98.31,-31.79 100.36,-38.48"/>
<text text-anchor="middle" x="79.47" y="-47.94" font-family="Times,serif" font-size="14.00">1.53</text>
</g>
<!-- node1 -->
<g id="node2" class="node">
<title>node1</title>
<ellipse fill="lightblue" stroke="black" cx="24.74" cy="-111.74" rx="18" ry="18"/>
<text text-anchor="middle" x="24.74" y="-106.69" font-family="Times,serif" font-size="14.00">1</text>
</g>
<!-- node194 -->
<g id="node5" class="node">
<title>node194</title>
<ellipse fill="lightgray" stroke="black" cx="24.74" cy="-172.74" rx="24.74" ry="24.74"/>
<text text-anchor="middle" x="24.74" y="-167.69" font-family="Times,serif" font-size="14.00">194</text>
</g>
</g>
</svg>
