<?xml version="1.0" encoding="UTF-8" standalone="no"?>
<!DOCTYPE svg PUBLIC "-//W3C//DTD SVG 1.1//EN"
 "http://www.w3.org/Graphics/SVG/1.1/DTD/svg11.dtd">
<!-- Generated by graphviz version 9.0.0 (20230911.1827)
 -->
<!-- Title: neat Pages: 1 -->
<svg width="258pt" height="163pt"
 viewBox="0.00 0.00 258.24 162.87" xmlns="http://www.w3.org/2000/svg" xmlns:xlink="http://www.w3.org/1999/xlink">
<g id="graph0" class="graph" transform="scale(1 1) rotate(0) translate(4 158.87)">
<title>neat</title>
<polygon fill="white" stroke="none" points="-4,4 -4,-158.87 254.24,-158.87 254.24,4 -4,4"/>
<!-- node0 -->
<g id="node1" class="node">
<title>node0</title>
<ellipse fill="lightblue" stroke="black" cx="18" cy="-98.13" rx="18" ry="18"/>
<text text-anchor="middle" x="18" y="-93.08" font-family="Times,serif" font-size="14.00">0</text>
</g>
<!-- node182 -->
<g id="node4" class="node">
<title>node182</title>
<ellipse fill="lightgray" stroke="black" cx="125.24" cy="-130.13" rx="24.74" ry="24.74"/>
<text text-anchor="middle" x="125.24" y="-125.08" font-family="Times,serif" font-size="14.00">182</text>
</g>
<!-- node0&#45;&gt;node182 -->
<g id="edge2" class="edge">
<title>node0&#45;&gt;node182</title>
<path fill="none" stroke="black" d="M35.44,-103.13C50.09,-107.59 71.99,-114.24 90.38,-119.83"/>
<polygon fill="black" stroke="black" points="89.24,-123.15 99.82,-122.71 91.28,-116.45 89.24,-123.15"/>
<text text-anchor="middle" x="68.25" y="-119.33" font-family="Times,serif" font-size="14.00">&#45;0.20</text>
</g>
<!-- node277 -->
<g id="node5" class="node">
<title>node277</title>
<ellipse fill="lightgray" stroke="black" cx="125.24" cy="-63.13" rx="24.74" ry="24.74"/>
<text text-anchor="middle" x="125.24" y="-58.08" font-family="Times,serif" font-size="14.00">277</text>
</g>
<!-- node0&#45;&gt;node277 -->
<g id="edge3" class="edge">
<title>node0&#45;&gt;node277</title>
<path fill="none" stroke="black" d="M35.44,-92.66C50.09,-87.79 71.99,-80.51 90.38,-74.39"/>
<polygon fill="black" stroke="black" points="91.45,-77.72 99.84,-71.25 89.24,-71.08 91.45,-77.72"/>
<text text-anchor="middle" x="68.25" y="-88.33" font-family="Times,serif" font-size="14.00">1.00</text>
</g>
<!-- node1 -->
<g id="node2" class="node">
<title>node1</title>
<ellipse fill="lightblue" stroke="black" cx="18" cy="-30.13" rx="18" ry="18"/>
<text text-anchor="middle" x="18" y="-25.08" font-family="Times,serif" font-size="14.00">1</text>
</g>
<!-- node71 -->
<g id="node3" class="node">
<title>node71</title>
<ellipse fill="lightgreen" stroke="black" cx="230.11" cy="-20.13" rx="20.13" ry="20.13"/>
<text text-anchor="middle" x="230.11" y="-15.08" font-family="Times,serif" font-size="14.00">71</text>
</g>
<!-- node1&#45;&gt;node71 -->
<g id="edge1" class="edge">
<title>node1&#45;&gt;node71</title>
<path fill="none" stroke="black" d="M35.69,-25.46C52.05,-21.15 77.76,-15.04 100.5,-12.63 133.91,-9.08 172.39,-12.28 198.49,-15.53"/>
<polygon fill="black" stroke="black" points="198.01,-19 208.39,-16.85 198.94,-12.06 198.01,-19"/>
<text text-anchor="middle" x="125.24" y="-15.33" font-family="Times,serif" font-size="14.00">2.98</text>
</g>
<!-- node1&#45;&gt;node277 -->
<g id="edge5" class="edge">
<title>node1&#45;&gt;node277</title>
<path fill="none" stroke="black" d="M35.78,-34.77C48.63,-38.38 66.75,-43.6 82.5,-48.63 85.25,-49.51 88.09,-50.44 90.94,-51.39"/>
<polygon fill="black" stroke="black" points="89.75,-54.69 100.35,-54.61 92.01,-48.06 89.75,-54.69"/>
<text text-anchor="middle" x="68.25" y="-51.33" font-family="Times,serif" font-size="14.00">1.81</text>
</g>
<!-- node277&#45;&gt;node71 -->
<g id="edge4" class="edge">
<title>node277&#45;&gt;node71</title>
<path fill="none" stroke="black" d="M148.56,-53.8C163.73,-47.46 183.94,-39.01 200.32,-32.16"/>
<polygon fill="black" stroke="black" points="201.67,-35.39 209.54,-28.31 198.97,-28.94 201.67,-35.39"/>
<text text-anchor="middle" x="179.97" y="-48.33" font-family="Times,serif" font-size="14.00">1.25</text>
</g>
</g>
</svg>
