<?xml version="1.0" encoding="UTF-8" standalone="no"?>
<!DOCTYPE svg PUBLIC "-//W3C//DTD SVG 1.1//EN"
 "http://www.w3.org/Graphics/SVG/1.1/DTD/svg11.dtd">
<!-- Generated by graphviz version 9.0.0 (20230911.1827)
 -->
<!-- Title: neat Pages: 1 -->
<svg width="272pt" height="112pt"
 viewBox="0.00 0.00 271.95 111.74" xmlns="http://www.w3.org/2000/svg" xmlns:xlink="http://www.w3.org/1999/xlink">
<g id="graph0" class="graph" transform="scale(1 1) rotate(0) translate(4 107.74)">
<title>neat</title>
<polygon fill="white" stroke="none" points="-4,4 -4,-107.74 267.95,-107.74 267.95,4 -4,4"/>
<!-- node0 -->
<g id="node1" class="node">
<title>node0</title>
<ellipse fill="lightblue" stroke="black" cx="125.24" cy="-85.74" rx="18" ry="18"/>
<text text-anchor="middle" x="125.24" y="-80.69" font-family="Times,serif" font-size="14.00">0</text>
</g>
<!-- node105 -->
<g id="node3" class="node">
<title>node105</title>
<ellipse fill="lightgreen" stroke="black" cx="239.21" cy="-55.74" rx="24.74" ry="24.74"/>
<text text-anchor="middle" x="239.21" y="-50.69" font-family="Times,serif" font-size="14.00">105</text>
</g>
<!-- node0&#45;&gt;node105 -->
<g id="edge3" class="edge">
<title>node0&#45;&gt;node105</title>
<path fill="none" stroke="black" d="M142.76,-81.31C158.8,-77.01 183.64,-70.36 203.96,-64.91"/>
<polygon fill="black" stroke="black" points="204.78,-68.32 213.54,-62.35 202.97,-61.56 204.78,-68.32"/>
<text text-anchor="middle" x="182.22" y="-76.94" font-family="Times,serif" font-size="14.00">1.45</text>
</g>
<!-- node1 -->
<g id="node2" class="node">
<title>node1</title>
<ellipse fill="lightblue" stroke="black" cx="18" cy="-24.74" rx="18" ry="18"/>
<text text-anchor="middle" x="18" y="-19.69" font-family="Times,serif" font-size="14.00">1</text>
</g>
<!-- node161 -->
<g id="node4" class="node">
<title>node161</title>
<ellipse fill="lightgray" stroke="black" cx="125.24" cy="-24.74" rx="24.74" ry="24.74"/>
<text text-anchor="middle" x="125.24" y="-19.69" font-family="Times,serif" font-size="14.00">161</text>
</g>
<!-- node1&#45;&gt;node161 -->
<g id="edge1" class="edge">
<title>node1&#45;&gt;node161</title>
<path fill="none" stroke="black" d="M36.38,-24.74C50.58,-24.74 71.12,-24.74 88.77,-24.74"/>
<polygon fill="black" stroke="black" points="88.63,-28.24 98.63,-24.74 88.63,-21.24 88.63,-28.24"/>
<text text-anchor="middle" x="68.25" y="-27.94" font-family="Times,serif" font-size="14.00">&#45;1.06</text>
</g>
<!-- node161&#45;&gt;node105 -->
<g id="edge2" class="edge">
<title>node161&#45;&gt;node105</title>
<path fill="none" stroke="black" d="M149.44,-31.16C165.2,-35.52 186.32,-41.37 204.01,-46.27"/>
<polygon fill="black" stroke="black" points="203.01,-49.62 213.58,-48.92 204.88,-42.88 203.01,-49.62"/>
<text text-anchor="middle" x="182.22" y="-47.94" font-family="Times,serif" font-size="14.00">&#45;0.99</text>
</g>
</g>
</svg>
