<?xml version="1.0" encoding="UTF-8" standalone="no"?>
<!DOCTYPE svg PUBLIC "-//W3C//DTD SVG 1.1//EN"
 "http://www.w3.org/Graphics/SVG/1.1/DTD/svg11.dtd">
<!-- Generated by graphviz version 9.0.0 (20230911.1827)
 -->
<!-- Title: neat Pages: 1 -->
<svg width="167pt" height="185pt"
 viewBox="0.00 0.00 166.95 185.47" xmlns="http://www.w3.org/2000/svg" xmlns:xlink="http://www.w3.org/1999/xlink">
<g id="graph0" class="graph" transform="scale(1 1) rotate(0) translate(4 181.47)">
<title>neat</title>
<polygon fill="white" stroke="none" points="-4,4 -4,-181.47 162.95,-181.47 162.95,4 -4,4"/>
<!-- node0 -->
<g id="node1" class="node">
<title>node0</title>
<ellipse fill="lightblue" stroke="black" cx="24.74" cy="-24.74" rx="18" ry="18"/>
<text text-anchor="middle" x="24.74" y="-19.69" font-family="Times,serif" font-size="14.00">0</text>
</g>
<!-- node171 -->
<g id="node4" class="node">
<title>node171</title>
<ellipse fill="lightgray" stroke="black" cx="134.21" cy="-24.74" rx="24.74" ry="24.74"/>
<text text-anchor="middle" x="134.21" y="-19.69" font-family="Times,serif" font-size="14.00">171</text>
</g>
<!-- node0&#45;&gt;node171 -->
<g id="edge1" class="edge">
<title>node0&#45;&gt;node171</title>
<path fill="none" stroke="black" d="M43.01,-24.74C57.7,-24.74 79.3,-24.74 97.67,-24.74"/>
<polygon fill="black" stroke="black" points="97.66,-28.24 107.66,-24.74 97.66,-21.24 97.66,-28.24"/>
<text text-anchor="middle" x="79.47" y="-27.94" font-family="Times,serif" font-size="14.00">1.60</text>
</g>
<!-- node1 -->
<g id="node2" class="node">
<title>node1</title>
<ellipse fill="lightblue" stroke="black" cx="24.74" cy="-91.74" rx="18" ry="18"/>
<text text-anchor="middle" x="24.74" y="-86.69" font-family="Times,serif" font-size="14.00">1</text>
</g>
<!-- node223 -->
<g id="node5" class="node">
<title>node223</title>
<ellipse fill="lightgray" stroke="black" cx="134.21" cy="-91.74" rx="24.74" ry="24.74"/>
<text text-anchor="middle" x="134.21" y="-86.69" font-family="Times,serif" font-size="14.00">223</text>
</g>
<!-- node1&#45;&gt;node223 -->
<g id="edge2" class="edge">
<title>node1&#45;&gt;node223</title>
<path fill="none" stroke="black" d="M43.01,-91.74C57.7,-91.74 79.3,-91.74 97.67,-91.74"/>
<polygon fill="black" stroke="black" points="97.66,-95.24 107.66,-91.74 97.66,-88.24 97.66,-95.24"/>
<text text-anchor="middle" x="79.47" y="-94.94" font-family="Times,serif" font-size="14.00">1.00</text>
</g>
<!-- node136 -->
<g id="node3" class="node">
<title>node136</title>
<ellipse fill="lightgreen" stroke="black" cx="24.74" cy="-152.74" rx="24.74" ry="24.74"/>
<text text-anchor="middle" x="24.74" y="-147.69" font-family="Times,serif" font-size="14.00">136</text>
</g>
</g>
</svg>
