<?xml version="1.0" encoding="UTF-8" standalone="no"?>
<!DOCTYPE svg PUBLIC "-//W3C//DTD SVG 1.1//EN"
 "http://www.w3.org/Graphics/SVG/1.1/DTD/svg11.dtd">
<!-- Generated by graphviz version 9.0.0 (20230911.1827)
 -->
<!-- Title: neat Pages: 1 -->
<svg width="324pt" height="205pt"
 viewBox="0.00 0.00 323.92 204.81" xmlns="http://www.w3.org/2000/svg" xmlns:xlink="http://www.w3.org/1999/xlink">
<g id="graph0" class="graph" transform="scale(1 1) rotate(0) translate(4 200.81)">
<title>neat</title>
<polygon fill="white" stroke="none" points="-4,4 -4,-200.81 319.92,-200.81 319.92,4 -4,4"/>
<!-- node0 -->
<g id="node1" class="node">
<title>node0</title>
<ellipse fill="lightblue" stroke="black" cx="31.9" cy="-121.9" rx="31.9" ry="31.9"/>
<text text-anchor="middle" x="31.9" y="-116.85" font-family="Times,serif" font-size="14.00">0.000</text>
</g>
<!-- node186 -->
<g id="node4" class="node">
<title>node186</title>
<ellipse fill="lightgray" stroke="black" cx="160.21" cy="-82.9" rx="31.9" ry="31.9"/>
<text text-anchor="middle" x="160.21" y="-77.85" font-family="Times,serif" font-size="14.00">0.001</text>
</g>
<!-- node0&#45;&gt;node186 -->
<g id="edge2" class="edge">
<title>node0&#45;&gt;node186</title>
<path fill="none" stroke="black" d="M62.84,-112.66C79.51,-107.51 100.5,-101.03 118.63,-95.43"/>
<polygon fill="black" stroke="black" points="119.52,-98.82 128.04,-92.53 117.46,-92.13 119.52,-98.82"/>
<text text-anchor="middle" x="96.06" y="-109.1" font-family="Times,serif" font-size="14.00">3.46</text>
</g>
<!-- node230 -->
<g id="node5" class="node">
<title>node230</title>
<ellipse fill="lightgray" stroke="black" cx="160.21" cy="-164.9" rx="31.9" ry="31.9"/>
<text text-anchor="middle" x="160.21" y="-159.85" font-family="Times,serif" font-size="14.00">0.500</text>
</g>
<!-- node0&#45;&gt;node230 -->
<g id="edge4" class="edge">
<title>node0&#45;&gt;node230</title>
<path fill="none" stroke="black" d="M62.52,-131.98C79.38,-137.73 100.74,-145 119.1,-151.25"/>
<polygon fill="black" stroke="black" points="117.75,-154.49 128.35,-154.4 120.01,-147.86 117.75,-154.49"/>
<text text-anchor="middle" x="96.06" y="-150.1" font-family="Times,serif" font-size="14.00">1.00</text>
</g>
<!-- node1 -->
<g id="node2" class="node">
<title>node1</title>
<ellipse fill="lightblue" stroke="black" cx="31.9" cy="-31.9" rx="31.9" ry="31.9"/>
<text text-anchor="middle" x="31.9" y="-26.85" font-family="Times,serif" font-size="14.00">1.000</text>
</g>
<!-- node42 -->
<g id="node3" class="node">
<title>node42</title>
<ellipse fill="lightgreen" stroke="black" cx="284.01" cy="-82.9" rx="31.9" ry="31.9"/>
<text text-anchor="middle" x="284.01" y="-77.85" font-family="Times,serif" font-size="14.00">0.000</text>
</g>
<!-- node1&#45;&gt;node42 -->
<g id="edge1" class="edge">
<title>node1&#45;&gt;node42</title>
<path fill="none" stroke="black" d="M63.52,-24.98C96.1,-18.92 148.8,-12.85 192.11,-25.4 212.95,-31.44 233.6,-43.84 249.94,-55.59"/>
<polygon fill="black" stroke="black" points="247.71,-58.29 257.82,-61.47 251.9,-52.68 247.71,-58.29"/>
<text text-anchor="middle" x="160.21" y="-29.1" font-family="Times,serif" font-size="14.00">&#45;2.35</text>
</g>
<!-- node1&#45;&gt;node186 -->
<g id="edge6" class="edge">
<title>node1&#45;&gt;node186</title>
<path fill="none" stroke="black" d="M61.88,-43.6C79.05,-50.54 101.04,-59.42 119.77,-66.98"/>
<polygon fill="black" stroke="black" points="118.38,-70.19 128.96,-70.69 121,-63.7 118.38,-70.19"/>
<text text-anchor="middle" x="96.06" y="-66.1" font-family="Times,serif" font-size="14.00">&#45;1.47</text>
</g>
<!-- node186&#45;&gt;node42 -->
<g id="edge3" class="edge">
<title>node186&#45;&gt;node42</title>
<path fill="none" stroke="black" d="M192.58,-82.9C207.21,-82.9 224.85,-82.9 240.64,-82.9"/>
<polygon fill="black" stroke="black" points="240.24,-86.4 250.24,-82.9 240.24,-79.4 240.24,-86.4"/>
<text text-anchor="middle" x="222.11" y="-86.1" font-family="Times,serif" font-size="14.00">0.08</text>
</g>
<!-- node230&#45;&gt;node42 -->
<g id="edge5" class="edge">
<title>node230&#45;&gt;node42</title>
<path fill="none" stroke="black" d="M187.34,-147.31C204.92,-135.48 228.31,-119.73 247.57,-106.76"/>
<polygon fill="black" stroke="black" points="249.33,-109.8 255.67,-101.31 245.42,-103.99 249.33,-109.8"/>
<text text-anchor="middle" x="222.11" y="-134.1" font-family="Times,serif" font-size="14.00">0.08</text>
</g>
</g>
</svg>
