<?xml version="1.0" encoding="UTF-8" standalone="no"?>
<!DOCTYPE svg PUBLIC "-//W3C//DTD SVG 1.1//EN"
 "http://www.w3.org/Graphics/SVG/1.1/DTD/svg11.dtd">
<!-- Generated by graphviz version 9.0.0 (20230911.1827)
 -->
<!-- Title: neat Pages: 1 -->
<svg width="448pt" height="154pt"
 viewBox="0.00 0.00 447.72 153.81" xmlns="http://www.w3.org/2000/svg" xmlns:xlink="http://www.w3.org/1999/xlink">
<g id="graph0" class="graph" transform="scale(1 1) rotate(0) translate(4 149.81)">
<title>neat</title>
<polygon fill="white" stroke="none" points="-4,4 -4,-149.81 443.72,-149.81 443.72,4 -4,4"/>
<!-- node0 -->
<g id="node1" class="node">
<title>node0</title>
<ellipse fill="lightblue" stroke="black" cx="31.9" cy="-113.9" rx="31.9" ry="31.9"/>
<text text-anchor="middle" x="31.9" y="-108.85" font-family="Times,serif" font-size="14.00">0.000</text>
</g>
<!-- node194 -->
<g id="node5" class="node">
<title>node194</title>
<ellipse fill="lightgray" stroke="black" cx="155.71" cy="-113.9" rx="31.9" ry="31.9"/>
<text text-anchor="middle" x="155.71" y="-108.85" font-family="Times,serif" font-size="14.00">0.500</text>
</g>
<!-- node0&#45;&gt;node194 -->
<g id="edge4" class="edge">
<title>node0&#45;&gt;node194</title>
<path fill="none" stroke="black" d="M64.27,-113.9C78.9,-113.9 96.54,-113.9 112.34,-113.9"/>
<polygon fill="black" stroke="black" points="111.93,-117.4 121.93,-113.9 111.93,-110.4 111.93,-117.4"/>
<text text-anchor="middle" x="93.81" y="-117.1" font-family="Times,serif" font-size="14.00">1.00</text>
</g>
<!-- node1 -->
<g id="node2" class="node">
<title>node1</title>
<ellipse fill="lightblue" stroke="black" cx="155.71" cy="-31.9" rx="31.9" ry="31.9"/>
<text text-anchor="middle" x="155.71" y="-26.85" font-family="Times,serif" font-size="14.00">1.000</text>
</g>
<!-- node61 -->
<g id="node3" class="node">
<title>node61</title>
<ellipse fill="lightgreen" stroke="black" cx="407.82" cy="-47.9" rx="31.9" ry="31.9"/>
<text text-anchor="middle" x="407.82" y="-42.85" font-family="Times,serif" font-size="14.00">0.003</text>
</g>
<!-- node1&#45;&gt;node61 -->
<g id="edge1" class="edge">
<title>node1&#45;&gt;node61</title>
<path fill="none" stroke="black" d="M187.84,-33.3C219.95,-34.8 271.45,-37.38 315.92,-40.4 331.78,-41.48 349.18,-42.87 364.48,-44.15"/>
<polygon fill="black" stroke="black" points="363.93,-47.62 374.19,-44.98 364.53,-40.64 363.93,-47.62"/>
<text text-anchor="middle" x="284.01" y="-43.1" font-family="Times,serif" font-size="14.00">&#45;1.17</text>
</g>
<!-- node179 -->
<g id="node4" class="node">
<title>node179</title>
<ellipse fill="lightgray" stroke="black" cx="284.01" cy="-97.9" rx="31.9" ry="31.9"/>
<text text-anchor="middle" x="284.01" y="-92.85" font-family="Times,serif" font-size="14.00">0.000</text>
</g>
<!-- node1&#45;&gt;node179 -->
<g id="edge3" class="edge">
<title>node1&#45;&gt;node179</title>
<path fill="none" stroke="black" d="M184.43,-46.39C202.28,-55.71 225.71,-67.96 245.26,-78.17"/>
<polygon fill="black" stroke="black" points="243.53,-81.22 254.02,-82.75 246.78,-75.02 243.53,-81.22"/>
<text text-anchor="middle" x="219.86" y="-73.1" font-family="Times,serif" font-size="14.00">&#45;1.81</text>
</g>
<!-- node179&#45;&gt;node61 -->
<g id="edge2" class="edge">
<title>node179&#45;&gt;node61</title>
<path fill="none" stroke="black" d="M313.88,-86.05C329.84,-79.5 349.91,-71.26 367.31,-64.12"/>
<polygon fill="black" stroke="black" points="368.42,-67.45 376.34,-60.41 365.76,-60.97 368.42,-67.45"/>
<text text-anchor="middle" x="345.92" y="-80.1" font-family="Times,serif" font-size="14.00">2.63</text>
</g>
<!-- node194&#45;&gt;node179 -->
<g id="edge5" class="edge">
<title>node194&#45;&gt;node179</title>
<path fill="none" stroke="black" d="M187.61,-109.99C203.66,-107.95 223.52,-105.44 240.95,-103.23"/>
<polygon fill="black" stroke="black" points="241.01,-106.75 250.5,-102.02 240.13,-99.81 241.01,-106.75"/>
<text text-anchor="middle" x="219.86" y="-110.1" font-family="Times,serif" font-size="14.00">0.10</text>
</g>
</g>
</svg>
