<?xml version="1.0" encoding="UTF-8" standalone="no"?>
<!DOCTYPE svg PUBLIC "-//W3C//DTD SVG 1.1//EN"
 "http://www.w3.org/Graphics/SVG/1.1/DTD/svg11.dtd">
<!-- Generated by graphviz version 9.0.0 (20230911.1827)
 -->
<!-- Title: neat Pages: 1 -->
<svg width="281pt" height="239pt"
 viewBox="0.00 0.00 280.92 238.74" xmlns="http://www.w3.org/2000/svg" xmlns:xlink="http://www.w3.org/1999/xlink">
<g id="graph0" class="graph" transform="scale(1 1) rotate(0) translate(4 234.74)">
<title>neat</title>
<polygon fill="white" stroke="none" points="-4,4 -4,-234.74 276.92,-234.74 276.92,4 -4,4"/>
<!-- node0 -->
<g id="node1" class="node">
<title>node0</title>
<ellipse fill="lightblue" stroke="black" cx="24.74" cy="-18" rx="18" ry="18"/>
<text text-anchor="middle" x="24.74" y="-12.95" font-family="Times,serif" font-size="14.00">0</text>
</g>
<!-- node1 -->
<g id="node2" class="node">
<title>node1</title>
<ellipse fill="lightblue" stroke="black" cx="24.74" cy="-72" rx="18" ry="18"/>
<text text-anchor="middle" x="24.74" y="-66.95" font-family="Times,serif" font-size="14.00">1</text>
</g>
<!-- node196 -->
<g id="node5" class="node">
<title>node196</title>
<ellipse fill="lightgray" stroke="black" cx="134.21" cy="-72" rx="24.74" ry="24.74"/>
<text text-anchor="middle" x="134.21" y="-66.95" font-family="Times,serif" font-size="14.00">196</text>
</g>
<!-- node1&#45;&gt;node196 -->
<g id="edge1" class="edge">
<title>node1&#45;&gt;node196</title>
<path fill="none" stroke="black" d="M43.01,-72C57.7,-72 79.3,-72 97.67,-72"/>
<polygon fill="black" stroke="black" points="97.66,-75.5 107.66,-72 97.66,-68.5 97.66,-75.5"/>
<text text-anchor="middle" x="79.47" y="-75.2" font-family="Times,serif" font-size="14.00">1.86</text>
</g>
<!-- node105 -->
<g id="node3" class="node">
<title>node105</title>
<ellipse fill="lightgreen" stroke="black" cx="248.19" cy="-139" rx="24.74" ry="24.74"/>
<text text-anchor="middle" x="248.19" y="-133.95" font-family="Times,serif" font-size="14.00">105</text>
</g>
<!-- node161 -->
<g id="node4" class="node">
<title>node161</title>
<ellipse fill="lightgray" stroke="black" cx="24.74" cy="-139" rx="24.74" ry="24.74"/>
<text text-anchor="middle" x="24.74" y="-133.95" font-family="Times,serif" font-size="14.00">161</text>
</g>
<!-- node253 -->
<g id="node7" class="node">
<title>node253</title>
<ellipse fill="lightgray" stroke="black" cx="134.21" cy="-139" rx="24.74" ry="24.74"/>
<text text-anchor="middle" x="134.21" y="-133.95" font-family="Times,serif" font-size="14.00">253</text>
</g>
<!-- node161&#45;&gt;node253 -->
<g id="edge3" class="edge">
<title>node161&#45;&gt;node253</title>
<path fill="none" stroke="black" d="M49.86,-139C63.96,-139 82.03,-139 97.73,-139"/>
<polygon fill="black" stroke="black" points="97.66,-142.5 107.66,-139 97.66,-135.5 97.66,-142.5"/>
<text text-anchor="middle" x="79.47" y="-142.2" font-family="Times,serif" font-size="14.00">1.00</text>
</g>
<!-- node236 -->
<g id="node6" class="node">
<title>node236</title>
<ellipse fill="lightgray" stroke="black" cx="24.74" cy="-206" rx="24.74" ry="24.74"/>
<text text-anchor="middle" x="24.74" y="-200.95" font-family="Times,serif" font-size="14.00">236</text>
</g>
<!-- node253&#45;&gt;node105 -->
<g id="edge2" class="edge">
<title>node253&#45;&gt;node105</title>
<path fill="none" stroke="black" d="M159.23,-139C174.58,-139 194.76,-139 211.91,-139"/>
<polygon fill="black" stroke="black" points="211.69,-142.5 221.69,-139 211.69,-135.5 211.69,-142.5"/>
<text text-anchor="middle" x="191.2" y="-142.2" font-family="Times,serif" font-size="14.00">&#45;2.31</text>
</g>
</g>
</svg>
