<?xml version="1.0" encoding="UTF-8" standalone="no"?>
<!DOCTYPE svg PUBLIC "-//W3C//DTD SVG 1.1//EN"
 "http://www.w3.org/Graphics/SVG/1.1/DTD/svg11.dtd">
<!-- Generated by graphviz version 9.0.0 (20230911.1827)
 -->
<!-- Title: neat Pages: 1 -->
<svg width="377pt" height="108pt"
 viewBox="0.00 0.00 376.92 107.74" xmlns="http://www.w3.org/2000/svg" xmlns:xlink="http://www.w3.org/1999/xlink">
<g id="graph0" class="graph" transform="scale(1 1) rotate(0) translate(4 103.74)">
<title>neat</title>
<polygon fill="white" stroke="none" points="-4,4 -4,-103.74 372.92,-103.74 372.92,4 -4,4"/>
<!-- node0 -->
<g id="node1" class="node">
<title>node0</title>
<ellipse fill="lightblue" stroke="black" cx="18" cy="-81.74" rx="18" ry="18"/>
<text text-anchor="middle" x="18" y="-76.69" font-family="Times,serif" font-size="14.00">0</text>
</g>
<!-- node171 -->
<g id="node4" class="node">
<title>node171</title>
<ellipse fill="lightgray" stroke="black" cx="120.74" cy="-61.74" rx="24.74" ry="24.74"/>
<text text-anchor="middle" x="120.74" y="-56.69" font-family="Times,serif" font-size="14.00">171</text>
</g>
<!-- node0&#45;&gt;node171 -->
<g id="edge2" class="edge">
<title>node0&#45;&gt;node171</title>
<path fill="none" stroke="black" d="M36.09,-78.34C49.5,-75.68 68.6,-71.89 85.17,-68.6"/>
<polygon fill="black" stroke="black" points="85.52,-72.1 94.65,-66.72 84.16,-65.23 85.52,-72.1"/>
<text text-anchor="middle" x="66" y="-76.94" font-family="Times,serif" font-size="14.00">0.99</text>
</g>
<!-- node1 -->
<g id="node2" class="node">
<title>node1</title>
<ellipse fill="lightblue" stroke="black" cx="18" cy="-18.74" rx="18" ry="18"/>
<text text-anchor="middle" x="18" y="-13.69" font-family="Times,serif" font-size="14.00">1</text>
</g>
<!-- node136 -->
<g id="node3" class="node">
<title>node136</title>
<ellipse fill="lightgreen" stroke="black" cx="344.19" cy="-24.74" rx="24.74" ry="24.74"/>
<text text-anchor="middle" x="344.19" y="-19.69" font-family="Times,serif" font-size="14.00">136</text>
</g>
<!-- node1&#45;&gt;node136 -->
<g id="edge1" class="edge">
<title>node1&#45;&gt;node136</title>
<path fill="none" stroke="black" d="M36.43,-19.06C87.78,-20.01 239.18,-22.81 308.19,-24.09"/>
<polygon fill="black" stroke="black" points="307.73,-27.58 317.79,-24.27 307.86,-20.58 307.73,-27.58"/>
<text text-anchor="middle" x="177.72" y="-24.94" font-family="Times,serif" font-size="14.00">&#45;0.68</text>
</g>
<!-- node1&#45;&gt;node171 -->
<g id="edge3" class="edge">
<title>node1&#45;&gt;node171</title>
<path fill="none" stroke="black" d="M34.74,-25.46C48.67,-31.4 69.45,-40.27 86.98,-47.75"/>
<polygon fill="black" stroke="black" points="85.42,-50.89 95.99,-51.6 88.17,-44.46 85.42,-50.89"/>
<text text-anchor="middle" x="66" y="-45.94" font-family="Times,serif" font-size="14.00">0.62</text>
</g>
<!-- node222 -->
<g id="node5" class="node">
<title>node222</title>
<ellipse fill="lightgray" stroke="black" cx="234.71" cy="-61.74" rx="24.74" ry="24.74"/>
<text text-anchor="middle" x="234.71" y="-56.69" font-family="Times,serif" font-size="14.00">222</text>
</g>
<!-- node171&#45;&gt;node222 -->
<g id="edge4" class="edge">
<title>node171&#45;&gt;node222</title>
<path fill="none" stroke="black" d="M145.76,-61.74C161.11,-61.74 181.28,-61.74 198.43,-61.74"/>
<polygon fill="black" stroke="black" points="198.22,-65.24 208.22,-61.74 198.22,-58.24 198.22,-65.24"/>
<text text-anchor="middle" x="177.72" y="-64.94" font-family="Times,serif" font-size="14.00">1.00</text>
</g>
<!-- node222&#45;&gt;node136 -->
<g id="edge5" class="edge">
<title>node222&#45;&gt;node136</title>
<path fill="none" stroke="black" d="M258.5,-53.89C273.47,-48.74 293.28,-41.92 309.98,-36.17"/>
<polygon fill="black" stroke="black" points="310.68,-39.63 319,-33.07 308.4,-33.01 310.68,-39.63"/>
<text text-anchor="middle" x="289.45" y="-48.94" font-family="Times,serif" font-size="14.00">3.24</text>
</g>
</g>
</svg>
