<?xml version="1.0" encoding="UTF-8" standalone="no"?>
<!DOCTYPE svg PUBLIC "-//W3C//DTD SVG 1.1//EN"
 "http://www.w3.org/Graphics/SVG/1.1/DTD/svg11.dtd">
<!-- Generated by graphviz version 9.0.0 (20230911.1827)
 -->
<!-- Title: neat Pages: 1 -->
<svg width="328pt" height="154pt"
 viewBox="0.00 0.00 328.42 153.81" xmlns="http://www.w3.org/2000/svg" xmlns:xlink="http://www.w3.org/1999/xlink">
<g id="graph0" class="graph" transform="scale(1 1) rotate(0) translate(4 149.81)">
<title>neat</title>
<polygon fill="white" stroke="none" points="-4,4 -4,-149.81 324.42,-149.81 324.42,4 -4,4"/>
<!-- node0 -->
<g id="node1" class="node">
<title>node0</title>
<ellipse fill="lightblue" stroke="black" cx="31.9" cy="-113.9" rx="31.9" ry="31.9"/>
<text text-anchor="middle" x="31.9" y="-108.85" font-family="Times,serif" font-size="14.00">0.000</text>
</g>
<!-- node156 -->
<g id="node4" class="node">
<title>node156</title>
<ellipse fill="lightgray" stroke="black" cx="160.21" cy="-113.9" rx="31.9" ry="31.9"/>
<text text-anchor="middle" x="160.21" y="-108.85" font-family="Times,serif" font-size="14.00">0.500</text>
</g>
<!-- node0&#45;&gt;node156 -->
<g id="edge3" class="edge">
<title>node0&#45;&gt;node156</title>
<path fill="none" stroke="black" d="M64.12,-113.9C79.91,-113.9 99.31,-113.9 116.47,-113.9"/>
<polygon fill="black" stroke="black" points="116.39,-117.4 126.39,-113.9 116.39,-110.4 116.39,-117.4"/>
<text text-anchor="middle" x="96.06" y="-117.1" font-family="Times,serif" font-size="14.00">&#45;0.80</text>
</g>
<!-- node1 -->
<g id="node2" class="node">
<title>node1</title>
<ellipse fill="lightblue" stroke="black" cx="160.21" cy="-31.9" rx="31.9" ry="31.9"/>
<text text-anchor="middle" x="160.21" y="-26.85" font-family="Times,serif" font-size="14.00">1.000</text>
</g>
<!-- node110 -->
<g id="node3" class="node">
<title>node110</title>
<ellipse fill="lightgreen" stroke="black" cx="288.51" cy="-51.9" rx="31.9" ry="31.9"/>
<text text-anchor="middle" x="288.51" y="-46.85" font-family="Times,serif" font-size="14.00">0.167</text>
</g>
<!-- node1&#45;&gt;node110 -->
<g id="edge1" class="edge">
<title>node1&#45;&gt;node110</title>
<path fill="none" stroke="black" d="M192.11,-36.8C208.16,-39.34 228.02,-42.48 245.45,-45.24"/>
<polygon fill="black" stroke="black" points="244.58,-48.65 255,-46.75 245.67,-41.73 244.58,-48.65"/>
<text text-anchor="middle" x="224.36" y="-47.1" font-family="Times,serif" font-size="14.00">&#45;0.30</text>
</g>
<!-- node156&#45;&gt;node110 -->
<g id="edge2" class="edge">
<title>node156&#45;&gt;node110</title>
<path fill="none" stroke="black" d="M189.24,-100.14C206.9,-91.47 229.93,-80.17 249.26,-70.68"/>
<polygon fill="black" stroke="black" points="250.77,-73.84 258.2,-66.29 247.68,-67.56 250.77,-73.84"/>
<text text-anchor="middle" x="224.36" y="-91.1" font-family="Times,serif" font-size="14.00">&#45;0.05</text>
</g>
</g>
</svg>
