<?xml version="1.0" encoding="UTF-8" standalone="no"?>
<!DOCTYPE svg PUBLIC "-//W3C//DTD SVG 1.1//EN"
 "http://www.w3.org/Graphics/SVG/1.1/DTD/svg11.dtd">
<!-- Generated by graphviz version 9.0.0 (20230911.1827)
 -->
<!-- Title: neat Pages: 1 -->
<svg width="171pt" height="166pt"
 viewBox="0.00 0.00 171.45 165.74" xmlns="http://www.w3.org/2000/svg" xmlns:xlink="http://www.w3.org/1999/xlink">
<g id="graph0" class="graph" transform="scale(1 1) rotate(0) translate(4 161.74)">
<title>neat</title>
<polygon fill="white" stroke="none" points="-4,4 -4,-161.74 167.45,-161.74 167.45,4 -4,4"/>
<!-- node0 -->
<g id="node1" class="node">
<title>node0</title>
<ellipse fill="lightblue" stroke="black" cx="24.74" cy="-72" rx="18" ry="18"/>
<text text-anchor="middle" x="24.74" y="-66.95" font-family="Times,serif" font-size="14.00">0</text>
</g>
<!-- node168 -->
<g id="node4" class="node">
<title>node168</title>
<ellipse fill="lightgray" stroke="black" cx="138.71" cy="-45" rx="24.74" ry="24.74"/>
<text text-anchor="middle" x="138.71" y="-39.95" font-family="Times,serif" font-size="14.00">168</text>
</g>
<!-- node0&#45;&gt;node168 -->
<g id="edge1" class="edge">
<title>node0&#45;&gt;node168</title>
<path fill="none" stroke="black" d="M42.74,-67.9C58.78,-64.03 83.27,-58.13 103.37,-53.28"/>
<polygon fill="black" stroke="black" points="103.93,-56.75 112.83,-51 102.29,-49.94 103.93,-56.75"/>
<text text-anchor="middle" x="81.72" y="-64.2" font-family="Times,serif" font-size="14.00">1.00</text>
</g>
<!-- node1 -->
<g id="node2" class="node">
<title>node1</title>
<ellipse fill="lightblue" stroke="black" cx="24.74" cy="-18" rx="18" ry="18"/>
<text text-anchor="middle" x="24.74" y="-12.95" font-family="Times,serif" font-size="14.00">1</text>
</g>
<!-- node1&#45;&gt;node168 -->
<g id="edge2" class="edge">
<title>node1&#45;&gt;node168</title>
<path fill="none" stroke="black" d="M42.74,-22.1C58.78,-25.97 83.27,-31.87 103.37,-36.72"/>
<polygon fill="black" stroke="black" points="102.29,-40.06 112.83,-39 103.93,-33.25 102.29,-40.06"/>
<text text-anchor="middle" x="81.72" y="-38.2" font-family="Times,serif" font-size="14.00">&#45;0.47</text>
</g>
<!-- node110 -->
<g id="node3" class="node">
<title>node110</title>
<ellipse fill="lightgreen" stroke="black" cx="24.74" cy="-133" rx="24.74" ry="24.74"/>
<text text-anchor="middle" x="24.74" y="-127.95" font-family="Times,serif" font-size="14.00">110</text>
</g>
</g>
</svg>
