<?xml version="1.0" encoding="UTF-8" standalone="no"?>
<!DOCTYPE svg PUBLIC "-//W3C//DTD SVG 1.1//EN"
 "http://www.w3.org/Graphics/SVG/1.1/DTD/svg11.dtd">
<!-- Generated by graphviz version 9.0.0 (20230911.1827)
 -->
<!-- Title: neat Pages: 1 -->
<svg width="448pt" height="154pt"
 viewBox="0.00 0.00 447.72 153.81" xmlns="http://www.w3.org/2000/svg" xmlns:xlink="http://www.w3.org/1999/xlink">
<g id="graph0" class="graph" transform="scale(1 1) rotate(0) translate(4 149.81)">
<title>neat</title>
<polygon fill="white" stroke="none" points="-4,4 -4,-149.81 443.72,-149.81 443.72,4 -4,4"/>
<!-- node0 -->
<g id="node1" class="node">
<title>node0</title>
<ellipse fill="lightblue" stroke="black" cx="31.9" cy="-113.9" rx="31.9" ry="31.9"/>
<text text-anchor="middle" x="31.9" y="-108.85" font-family="Times,serif" font-size="14.00">0.000</text>
</g>
<!-- node197 -->
<g id="node4" class="node">
<title>node197</title>
<ellipse fill="lightgray" stroke="black" cx="155.71" cy="-91.9" rx="31.9" ry="31.9"/>
<text text-anchor="middle" x="155.71" y="-86.85" font-family="Times,serif" font-size="14.00">0.997</text>
</g>
<!-- node0&#45;&gt;node197 -->
<g id="edge1" class="edge">
<title>node0&#45;&gt;node197</title>
<path fill="none" stroke="black" d="M63.64,-108.35C78.5,-105.67 96.56,-102.41 112.67,-99.5"/>
<polygon fill="black" stroke="black" points="113.27,-102.94 122.49,-97.72 112.03,-96.05 113.27,-102.94"/>
<text text-anchor="middle" x="93.81" y="-107.1" font-family="Times,serif" font-size="14.00">0.49</text>
</g>
<!-- node1 -->
<g id="node2" class="node">
<title>node1</title>
<ellipse fill="lightblue" stroke="black" cx="31.9" cy="-31.9" rx="31.9" ry="31.9"/>
<text text-anchor="middle" x="31.9" y="-26.85" font-family="Times,serif" font-size="14.00">1.000</text>
</g>
<!-- node45 -->
<g id="node3" class="node">
<title>node45</title>
<ellipse fill="lightgreen" stroke="black" cx="407.82" cy="-47.9" rx="31.9" ry="31.9"/>
<text text-anchor="middle" x="407.82" y="-42.85" font-family="Times,serif" font-size="14.00">0.026</text>
</g>
<!-- node1&#45;&gt;node45 -->
<g id="edge5" class="edge">
<title>node1&#45;&gt;node45</title>
<path fill="none" stroke="black" d="M64.14,-33.24C131.03,-36.1 288.21,-42.83 364.2,-46.08"/>
<polygon fill="black" stroke="black" points="364.02,-49.57 374.16,-46.51 364.32,-42.58 364.02,-49.57"/>
<text text-anchor="middle" x="217.61" y="-43.1" font-family="Times,serif" font-size="14.00">0.24</text>
</g>
<!-- node1&#45;&gt;node197 -->
<g id="edge2" class="edge">
<title>node1&#45;&gt;node197</title>
<path fill="none" stroke="black" d="M61.15,-45.82C77.6,-53.92 98.56,-64.25 116.47,-73.07"/>
<polygon fill="black" stroke="black" points="114.74,-76.11 125.25,-77.39 117.83,-69.83 114.74,-76.11"/>
<text text-anchor="middle" x="93.81" y="-70.1" font-family="Times,serif" font-size="14.00">1.17</text>
</g>
<!-- node259 -->
<g id="node5" class="node">
<title>node259</title>
<ellipse fill="lightgray" stroke="black" cx="279.51" cy="-91.9" rx="31.9" ry="31.9"/>
<text text-anchor="middle" x="279.51" y="-86.85" font-family="Times,serif" font-size="14.00">0.992</text>
</g>
<!-- node197&#45;&gt;node259 -->
<g id="edge3" class="edge">
<title>node197&#45;&gt;node259</title>
<path fill="none" stroke="black" d="M188.08,-91.9C202.71,-91.9 220.35,-91.9 236.14,-91.9"/>
<polygon fill="black" stroke="black" points="235.74,-95.4 245.74,-91.9 235.74,-88.4 235.74,-95.4"/>
<text text-anchor="middle" x="217.61" y="-95.1" font-family="Times,serif" font-size="14.00">1.00</text>
</g>
<!-- node259&#45;&gt;node45 -->
<g id="edge4" class="edge">
<title>node259&#45;&gt;node45</title>
<path fill="none" stroke="black" d="M310.13,-81.59C326.99,-75.71 348.35,-68.27 366.71,-61.88"/>
<polygon fill="black" stroke="black" points="367.67,-65.25 375.96,-58.65 365.37,-58.64 367.67,-65.25"/>
<text text-anchor="middle" x="343.67" y="-76.1" font-family="Times,serif" font-size="14.00">&#45;0.98</text>
</g>
</g>
</svg>
