<?xml version="1.0" encoding="UTF-8" standalone="no"?>
<!DOCTYPE svg PUBLIC "-//W3C//DTD SVG 1.1//EN"
 "http://www.w3.org/Graphics/SVG/1.1/DTD/svg11.dtd">
<!-- Generated by graphviz version 9.0.0 (20230911.1827)
 -->
<!-- Title: neat Pages: 1 -->
<svg width="272pt" height="127pt"
 viewBox="0.00 0.00 271.95 126.97" xmlns="http://www.w3.org/2000/svg" xmlns:xlink="http://www.w3.org/1999/xlink">
<g id="graph0" class="graph" transform="scale(1 1) rotate(0) translate(4 122.97)">
<title>neat</title>
<polygon fill="white" stroke="none" points="-4,4 -4,-122.97 267.95,-122.97 267.95,4 -4,4"/>
<!-- node0 -->
<g id="node1" class="node">
<title>node0</title>
<ellipse fill="lightblue" stroke="black" cx="18" cy="-94.23" rx="18" ry="18"/>
<text text-anchor="middle" x="18" y="-89.18" font-family="Times,serif" font-size="14.00">0</text>
</g>
<!-- node166 -->
<g id="node4" class="node">
<title>node166</title>
<ellipse fill="lightgray" stroke="black" cx="125.24" cy="-94.23" rx="24.74" ry="24.74"/>
<text text-anchor="middle" x="125.24" y="-89.18" font-family="Times,serif" font-size="14.00">166</text>
</g>
<!-- node0&#45;&gt;node166 -->
<g id="edge5" class="edge">
<title>node0&#45;&gt;node166</title>
<path fill="none" stroke="black" d="M36.04,-97.16C41.73,-98.01 48.12,-98.82 54,-99.23 66.63,-100.13 69.86,-99.99 82.5,-99.23 84.69,-99.1 86.93,-98.94 89.19,-98.74"/>
<polygon fill="black" stroke="black" points="89.35,-102.24 98.94,-97.74 88.63,-95.28 89.35,-102.24"/>
<text text-anchor="middle" x="68.25" y="-102.43" font-family="Times,serif" font-size="14.00">2.56</text>
</g>
<!-- node237 -->
<g id="node5" class="node">
<title>node237</title>
<ellipse fill="lightgray" stroke="black" cx="125.24" cy="-27.23" rx="24.74" ry="24.74"/>
<text text-anchor="middle" x="125.24" y="-22.18" font-family="Times,serif" font-size="14.00">237</text>
</g>
<!-- node0&#45;&gt;node237 -->
<g id="edge3" class="edge">
<title>node0&#45;&gt;node237</title>
<path fill="none" stroke="black" d="M34.52,-86.52C47.61,-79.81 66.69,-69.57 82.5,-59.23 87.13,-56.21 91.9,-52.82 96.5,-49.42"/>
<polygon fill="black" stroke="black" points="98.53,-52.27 104.36,-43.43 94.28,-46.71 98.53,-52.27"/>
<text text-anchor="middle" x="68.25" y="-78.43" font-family="Times,serif" font-size="14.00">1.85</text>
</g>
<!-- node1 -->
<g id="node2" class="node">
<title>node1</title>
<ellipse fill="lightblue" stroke="black" cx="18" cy="-27.23" rx="18" ry="18"/>
<text text-anchor="middle" x="18" y="-22.18" font-family="Times,serif" font-size="14.00">1</text>
</g>
<!-- node1&#45;&gt;node166 -->
<g id="edge1" class="edge">
<title>node1&#45;&gt;node166</title>
<path fill="none" stroke="black" d="M36.34,-28.45C49.82,-30.08 68.5,-33.87 82.5,-42.73 87.64,-45.99 95.64,-55.33 103.27,-65.18"/>
<polygon fill="black" stroke="black" points="100.36,-67.12 109.17,-73 105.95,-62.91 100.36,-67.12"/>
<text text-anchor="middle" x="68.25" y="-45.43" font-family="Times,serif" font-size="14.00">&#45;3.35</text>
</g>
<!-- node1&#45;&gt;node237 -->
<g id="edge6" class="edge">
<title>node1&#45;&gt;node237</title>
<path fill="none" stroke="black" d="M31.92,-15.33C38.11,-10.41 45.94,-5.28 54,-2.73 66.08,1.07 70.28,0.59 82.5,-2.73 86.64,-3.86 90.78,-5.51 94.76,-7.43"/>
<polygon fill="black" stroke="black" points="93.05,-10.48 103.5,-12.24 96.43,-4.35 93.05,-10.48"/>
<text text-anchor="middle" x="68.25" y="-5.43" font-family="Times,serif" font-size="14.00">0.64</text>
</g>
<!-- node138 -->
<g id="node3" class="node">
<title>node138</title>
<ellipse fill="lightgreen" stroke="black" cx="239.21" cy="-60.23" rx="24.74" ry="24.74"/>
<text text-anchor="middle" x="239.21" y="-55.18" font-family="Times,serif" font-size="14.00">138</text>
</g>
<!-- node166&#45;&gt;node138 -->
<g id="edge2" class="edge">
<title>node166&#45;&gt;node138</title>
<path fill="none" stroke="black" d="M149.44,-87.19C165.28,-82.38 186.52,-75.93 204.26,-70.54"/>
<polygon fill="black" stroke="black" points="205.04,-73.96 213.59,-67.71 203.01,-67.27 205.04,-73.96"/>
<text text-anchor="middle" x="182.22" y="-84.43" font-family="Times,serif" font-size="14.00">4.86</text>
</g>
<!-- node237&#45;&gt;node138 -->
<g id="edge4" class="edge">
<title>node237&#45;&gt;node138</title>
<path fill="none" stroke="black" d="M149.44,-34.07C165.2,-38.72 186.32,-44.94 204.01,-50.15"/>
<polygon fill="black" stroke="black" points="203.01,-53.51 213.59,-52.98 204.99,-46.79 203.01,-53.51"/>
<text text-anchor="middle" x="182.22" y="-50.43" font-family="Times,serif" font-size="14.00">&#45;3.02</text>
</g>
</g>
</svg>
