<?xml version="1.0" encoding="UTF-8" standalone="no"?>
<!DOCTYPE svg PUBLIC "-//W3C//DTD SVG 1.1//EN"
 "http://www.w3.org/Graphics/SVG/1.1/DTD/svg11.dtd">
<!-- Generated by graphviz version 9.0.0 (20230911.1827)
 -->
<!-- Title: neat Pages: 1 -->
<svg width="272pt" height="172pt"
 viewBox="0.00 0.00 271.71 172.47" xmlns="http://www.w3.org/2000/svg" xmlns:xlink="http://www.w3.org/1999/xlink">
<g id="graph0" class="graph" transform="scale(1 1) rotate(0) translate(4 168.47)">
<title>neat</title>
<polygon fill="white" stroke="none" points="-4,4 -4,-168.47 267.71,-168.47 267.71,4 -4,4"/>
<!-- node0 -->
<g id="node1" class="node">
<title>node0</title>
<ellipse fill="lightblue" stroke="black" cx="24.74" cy="-24.74" rx="18" ry="18"/>
<text text-anchor="middle" x="24.74" y="-19.69" font-family="Times,serif" font-size="14.00">0</text>
</g>
<!-- node217 -->
<g id="node5" class="node">
<title>node217</title>
<ellipse fill="lightgray" stroke="black" cx="138.71" cy="-24.74" rx="24.74" ry="24.74"/>
<text text-anchor="middle" x="138.71" y="-19.69" font-family="Times,serif" font-size="14.00">217</text>
</g>
<!-- node0&#45;&gt;node217 -->
<g id="edge1" class="edge">
<title>node0&#45;&gt;node217</title>
<path fill="none" stroke="black" d="M43.23,-24.74C59,-24.74 82.65,-24.74 102.34,-24.74"/>
<polygon fill="black" stroke="black" points="102.18,-28.24 112.18,-24.74 102.18,-21.24 102.18,-28.24"/>
<text text-anchor="middle" x="81.72" y="-27.94" font-family="Times,serif" font-size="14.00">&#45;0.29</text>
</g>
<!-- node1 -->
<g id="node2" class="node">
<title>node1</title>
<ellipse fill="lightblue" stroke="black" cx="24.74" cy="-78.74" rx="18" ry="18"/>
<text text-anchor="middle" x="24.74" y="-73.69" font-family="Times,serif" font-size="14.00">1</text>
</g>
<!-- node45 -->
<g id="node3" class="node">
<title>node45</title>
<ellipse fill="lightgreen" stroke="black" cx="243.58" cy="-24.74" rx="20.13" ry="20.13"/>
<text text-anchor="middle" x="243.58" y="-19.69" font-family="Times,serif" font-size="14.00">45</text>
</g>
<!-- node163 -->
<g id="node4" class="node">
<title>node163</title>
<ellipse fill="lightgray" stroke="black" cx="24.74" cy="-139.74" rx="24.74" ry="24.74"/>
<text text-anchor="middle" x="24.74" y="-134.69" font-family="Times,serif" font-size="14.00">163</text>
</g>
<!-- node217&#45;&gt;node45 -->
<g id="edge2" class="edge">
<title>node217&#45;&gt;node45</title>
<path fill="none" stroke="black" d="M163.83,-24.74C178.22,-24.74 196.62,-24.74 212.02,-24.74"/>
<polygon fill="black" stroke="black" points="211.57,-28.24 221.57,-24.74 211.57,-21.24 211.57,-28.24"/>
<text text-anchor="middle" x="193.45" y="-27.94" font-family="Times,serif" font-size="14.00">1.40</text>
</g>
</g>
</svg>
