<?xml version="1.0" encoding="UTF-8" standalone="no"?>
<!DOCTYPE svg PUBLIC "-//W3C//DTD SVG 1.1//EN"
 "http://www.w3.org/Graphics/SVG/1.1/DTD/svg11.dtd">
<!-- Generated by graphviz version 9.0.0 (20230911.1827)
 -->
<!-- Title: neat Pages: 1 -->
<svg width="267pt" height="163pt"
 viewBox="0.00 0.00 267.21 162.87" xmlns="http://www.w3.org/2000/svg" xmlns:xlink="http://www.w3.org/1999/xlink">
<g id="graph0" class="graph" transform="scale(1 1) rotate(0) translate(4 158.87)">
<title>neat</title>
<polygon fill="white" stroke="none" points="-4,4 -4,-158.87 263.21,-158.87 263.21,4 -4,4"/>
<!-- node0 -->
<g id="node1" class="node">
<title>node0</title>
<ellipse fill="lightblue" stroke="black" cx="20.13" cy="-24.74" rx="18" ry="18"/>
<text text-anchor="middle" x="20.13" y="-19.69" font-family="Times,serif" font-size="14.00">0</text>
</g>
<!-- node252 -->
<g id="node5" class="node">
<title>node252</title>
<ellipse fill="lightgray" stroke="black" cx="125" cy="-24.74" rx="24.74" ry="24.74"/>
<text text-anchor="middle" x="125" y="-19.69" font-family="Times,serif" font-size="14.00">252</text>
</g>
<!-- node0&#45;&gt;node252 -->
<g id="edge1" class="edge">
<title>node0&#45;&gt;node252</title>
<path fill="none" stroke="black" d="M38.58,-24.74C52.27,-24.74 71.78,-24.74 88.7,-24.74"/>
<polygon fill="black" stroke="black" points="88.38,-28.24 98.38,-24.74 88.38,-21.24 88.38,-28.24"/>
<text text-anchor="middle" x="70.26" y="-27.94" font-family="Times,serif" font-size="14.00">1.00</text>
</g>
<!-- node1 -->
<g id="node2" class="node">
<title>node1</title>
<ellipse fill="lightblue" stroke="black" cx="20.13" cy="-78.74" rx="18" ry="18"/>
<text text-anchor="middle" x="20.13" y="-73.69" font-family="Times,serif" font-size="14.00">1</text>
</g>
<!-- node71 -->
<g id="node3" class="node">
<title>node71</title>
<ellipse fill="lightgreen" stroke="black" cx="20.13" cy="-134.74" rx="20.13" ry="20.13"/>
<text text-anchor="middle" x="20.13" y="-129.69" font-family="Times,serif" font-size="14.00">71</text>
</g>
<!-- node182 -->
<g id="node4" class="node">
<title>node182</title>
<ellipse fill="lightgray" stroke="black" cx="234.47" cy="-24.74" rx="24.74" ry="24.74"/>
<text text-anchor="middle" x="234.47" y="-19.69" font-family="Times,serif" font-size="14.00">182</text>
</g>
<!-- node252&#45;&gt;node182 -->
<g id="edge2" class="edge">
<title>node252&#45;&gt;node182</title>
<path fill="none" stroke="black" d="M150.12,-24.74C164.22,-24.74 182.29,-24.74 197.99,-24.74"/>
<polygon fill="black" stroke="black" points="197.92,-28.24 207.92,-24.74 197.92,-21.24 197.92,-28.24"/>
<text text-anchor="middle" x="179.74" y="-27.94" font-family="Times,serif" font-size="14.00">3.31</text>
</g>
</g>
</svg>
