<?xml version="1.0" encoding="UTF-8" standalone="no"?>
<!DOCTYPE svg PUBLIC "-//W3C//DTD SVG 1.1//EN"
 "http://www.w3.org/Graphics/SVG/1.1/DTD/svg11.dtd">
<!-- Generated by graphviz version 9.0.0 (20230911.1827)
 -->
<!-- Title: neat Pages: 1 -->
<svg width="272pt" height="206pt"
 viewBox="0.00 0.00 271.71 206.47" xmlns="http://www.w3.org/2000/svg" xmlns:xlink="http://www.w3.org/1999/xlink">
<g id="graph0" class="graph" transform="scale(1 1) rotate(0) translate(4 202.47)">
<title>neat</title>
<polygon fill="white" stroke="none" points="-4,4 -4,-202.47 267.71,-202.47 267.71,4 -4,4"/>
<!-- node0 -->
<g id="node1" class="node">
<title>node0</title>
<ellipse fill="lightblue" stroke="black" cx="24.74" cy="-58.74" rx="18" ry="18"/>
<text text-anchor="middle" x="24.74" y="-53.69" font-family="Times,serif" font-size="14.00">0</text>
</g>
<!-- node252 -->
<g id="node5" class="node">
<title>node252</title>
<ellipse fill="lightgray" stroke="black" cx="134.21" cy="-91.74" rx="24.74" ry="24.74"/>
<text text-anchor="middle" x="134.21" y="-86.69" font-family="Times,serif" font-size="14.00">252</text>
</g>
<!-- node0&#45;&gt;node252 -->
<g id="edge1" class="edge">
<title>node0&#45;&gt;node252</title>
<path fill="none" stroke="black" d="M42.06,-63.75C57.21,-68.4 80.23,-75.47 99.34,-81.34"/>
<polygon fill="black" stroke="black" points="98.31,-84.68 108.9,-84.27 100.36,-77.99 98.31,-84.68"/>
<text text-anchor="middle" x="79.47" y="-80.94" font-family="Times,serif" font-size="14.00">1.00</text>
</g>
<!-- node295 -->
<g id="node6" class="node">
<title>node295</title>
<ellipse fill="lightgray" stroke="black" cx="134.21" cy="-24.74" rx="24.74" ry="24.74"/>
<text text-anchor="middle" x="134.21" y="-19.69" font-family="Times,serif" font-size="14.00">295</text>
</g>
<!-- node0&#45;&gt;node295 -->
<g id="edge2" class="edge">
<title>node0&#45;&gt;node295</title>
<path fill="none" stroke="black" d="M42.06,-53.57C57.28,-48.76 80.44,-41.43 99.61,-35.37"/>
<polygon fill="black" stroke="black" points="100.42,-38.78 108.9,-32.43 98.31,-32.11 100.42,-38.78"/>
<text text-anchor="middle" x="79.47" y="-48.94" font-family="Times,serif" font-size="14.00">1.00</text>
</g>
<!-- node1 -->
<g id="node2" class="node">
<title>node1</title>
<ellipse fill="lightblue" stroke="black" cx="24.74" cy="-112.74" rx="18" ry="18"/>
<text text-anchor="middle" x="24.74" y="-107.69" font-family="Times,serif" font-size="14.00">1</text>
</g>
<!-- node71 -->
<g id="node3" class="node">
<title>node71</title>
<ellipse fill="lightgreen" stroke="black" cx="243.58" cy="-24.74" rx="20.13" ry="20.13"/>
<text text-anchor="middle" x="243.58" y="-19.69" font-family="Times,serif" font-size="14.00">71</text>
</g>
<!-- node182 -->
<g id="node4" class="node">
<title>node182</title>
<ellipse fill="lightgray" stroke="black" cx="24.74" cy="-173.74" rx="24.74" ry="24.74"/>
<text text-anchor="middle" x="24.74" y="-168.69" font-family="Times,serif" font-size="14.00">182</text>
</g>
<!-- node295&#45;&gt;node71 -->
<g id="edge3" class="edge">
<title>node295&#45;&gt;node71</title>
<path fill="none" stroke="black" d="M159.31,-24.74C174.83,-24.74 195.15,-24.74 211.84,-24.74"/>
<polygon fill="black" stroke="black" points="211.71,-28.24 221.71,-24.74 211.71,-21.24 211.71,-28.24"/>
<text text-anchor="middle" x="191.2" y="-27.94" font-family="Times,serif" font-size="14.00">&#45;1.05</text>
</g>
</g>
</svg>
