<?xml version="1.0" encoding="UTF-8" standalone="no"?>
<!DOCTYPE svg PUBLIC "-//W3C//DTD SVG 1.1//EN"
 "http://www.w3.org/Graphics/SVG/1.1/DTD/svg11.dtd">
<!-- Generated by graphviz version 9.0.0 (20230911.1827)
 -->
<!-- Title: neat Pages: 1 -->
<svg width="452pt" height="181pt"
 viewBox="0.00 0.00 452.22 180.81" xmlns="http://www.w3.org/2000/svg" xmlns:xlink="http://www.w3.org/1999/xlink">
<g id="graph0" class="graph" transform="scale(1 1) rotate(0) translate(4 176.81)">
<title>neat</title>
<polygon fill="white" stroke="none" points="-4,4 -4,-176.81 448.22,-176.81 448.22,4 -4,4"/>
<!-- node0 -->
<g id="node1" class="node">
<title>node0</title>
<ellipse fill="lightblue" stroke="black" cx="31.9" cy="-140.9" rx="31.9" ry="31.9"/>
<text text-anchor="middle" x="31.9" y="-135.85" font-family="Times,serif" font-size="14.00">0.000</text>
</g>
<!-- node194 -->
<g id="node5" class="node">
<title>node194</title>
<ellipse fill="lightgray" stroke="black" cx="160.21" cy="-127.9" rx="31.9" ry="31.9"/>
<text text-anchor="middle" x="160.21" y="-122.85" font-family="Times,serif" font-size="14.00">0.000</text>
</g>
<!-- node0&#45;&gt;node194 -->
<g id="edge4" class="edge">
<title>node0&#45;&gt;node194</title>
<path fill="none" stroke="black" d="M64.12,-137.69C80.18,-136.04 99.98,-134 117.35,-132.21"/>
<polygon fill="black" stroke="black" points="117.25,-135.74 126.84,-131.23 116.53,-128.78 117.25,-135.74"/>
<text text-anchor="middle" x="96.06" y="-138.1" font-family="Times,serif" font-size="14.00">1.00</text>
</g>
<!-- node1 -->
<g id="node2" class="node">
<title>node1</title>
<ellipse fill="lightblue" stroke="black" cx="31.9" cy="-58.9" rx="31.9" ry="31.9"/>
<text text-anchor="middle" x="31.9" y="-53.85" font-family="Times,serif" font-size="14.00">1.000</text>
</g>
<!-- node61 -->
<g id="node3" class="node">
<title>node61</title>
<ellipse fill="lightgreen" stroke="black" cx="412.32" cy="-31.9" rx="31.9" ry="31.9"/>
<text text-anchor="middle" x="412.32" y="-26.85" font-family="Times,serif" font-size="14.00">0.000</text>
</g>
<!-- node1&#45;&gt;node61 -->
<g id="edge1" class="edge">
<title>node1&#45;&gt;node61</title>
<path fill="none" stroke="black" d="M63.95,-54.7C107.08,-49.07 187.61,-39.26 256.61,-34.9 294.53,-32.51 337.77,-31.84 368.88,-31.73"/>
<polygon fill="black" stroke="black" points="368.66,-35.23 378.66,-31.71 368.65,-28.23 368.66,-35.23"/>
<text text-anchor="middle" x="224.36" y="-42.1" font-family="Times,serif" font-size="14.00">&#45;1.76</text>
</g>
<!-- node179 -->
<g id="node4" class="node">
<title>node179</title>
<ellipse fill="lightgray" stroke="black" cx="288.51" cy="-75.9" rx="31.9" ry="31.9"/>
<text text-anchor="middle" x="288.51" y="-70.85" font-family="Times,serif" font-size="14.00">0.000</text>
</g>
<!-- node1&#45;&gt;node179 -->
<g id="edge3" class="edge">
<title>node1&#45;&gt;node179</title>
<path fill="none" stroke="black" d="M64.12,-60.99C109.58,-64.02 194.12,-69.67 245.15,-73.07"/>
<polygon fill="black" stroke="black" points="244.72,-76.55 254.93,-73.73 245.18,-69.57 244.72,-76.55"/>
<text text-anchor="middle" x="160.21" y="-73.1" font-family="Times,serif" font-size="14.00">&#45;3.61</text>
</g>
<!-- node1&#45;&gt;node194 -->
<g id="edge6" class="edge">
<title>node1&#45;&gt;node194</title>
<path fill="none" stroke="black" d="M60.31,-73.87C78.35,-83.73 102.19,-96.76 121.95,-107.55"/>
<polygon fill="black" stroke="black" points="120.07,-110.51 130.53,-112.23 123.43,-104.37 120.07,-110.51"/>
<text text-anchor="middle" x="96.06" y="-102.1" font-family="Times,serif" font-size="14.00">&#45;1.61</text>
</g>
<!-- node179&#45;&gt;node61 -->
<g id="edge2" class="edge">
<title>node179&#45;&gt;node61</title>
<path fill="none" stroke="black" d="M319,-65.25C334.71,-59.58 354.26,-52.51 371.32,-46.35"/>
<polygon fill="black" stroke="black" points="372.47,-49.66 380.68,-42.97 370.09,-43.08 372.47,-49.66"/>
<text text-anchor="middle" x="350.42" y="-61.1" font-family="Times,serif" font-size="14.00">2.16</text>
</g>
<!-- node194&#45;&gt;node179 -->
<g id="edge5" class="edge">
<title>node194&#45;&gt;node179</title>
<path fill="none" stroke="black" d="M190.19,-115.97C207.35,-108.9 229.35,-99.85 248.08,-92.14"/>
<polygon fill="black" stroke="black" points="249.36,-95.4 257.27,-88.35 246.69,-88.92 249.36,-95.4"/>
<text text-anchor="middle" x="224.36" y="-109.1" font-family="Times,serif" font-size="14.00">&#45;0.44</text>
</g>
</g>
</svg>
