<?xml version="1.0" encoding="UTF-8" standalone="no"?>
<!DOCTYPE svg PUBLIC "-//W3C//DTD SVG 1.1//EN"
 "http://www.w3.org/Graphics/SVG/1.1/DTD/svg11.dtd">
<!-- Generated by graphviz version 9.0.0 (20230911.1827)
 -->
<!-- Title: neat Pages: 1 -->
<svg width="319pt" height="154pt"
 viewBox="0.00 0.00 319.42 153.81" xmlns="http://www.w3.org/2000/svg" xmlns:xlink="http://www.w3.org/1999/xlink">
<g id="graph0" class="graph" transform="scale(1 1) rotate(0) translate(4 149.81)">
<title>neat</title>
<polygon fill="white" stroke="none" points="-4,4 -4,-149.81 315.42,-149.81 315.42,4 -4,4"/>
<!-- node0 -->
<g id="node1" class="node">
<title>node0</title>
<ellipse fill="lightblue" stroke="black" cx="31.9" cy="-113.9" rx="31.9" ry="31.9"/>
<text text-anchor="middle" x="31.9" y="-108.85" font-family="Times,serif" font-size="14.00">0.000</text>
</g>
<!-- node186 -->
<g id="node4" class="node">
<title>node186</title>
<ellipse fill="lightgray" stroke="black" cx="155.71" cy="-113.9" rx="31.9" ry="31.9"/>
<text text-anchor="middle" x="155.71" y="-108.85" font-family="Times,serif" font-size="14.00">0.500</text>
</g>
<!-- node0&#45;&gt;node186 -->
<g id="edge1" class="edge">
<title>node0&#45;&gt;node186</title>
<path fill="none" stroke="black" d="M64.27,-113.9C78.9,-113.9 96.54,-113.9 112.34,-113.9"/>
<polygon fill="black" stroke="black" points="111.93,-117.4 121.93,-113.9 111.93,-110.4 111.93,-117.4"/>
<text text-anchor="middle" x="93.81" y="-117.1" font-family="Times,serif" font-size="14.00">3.01</text>
</g>
<!-- node1 -->
<g id="node2" class="node">
<title>node1</title>
<ellipse fill="lightblue" stroke="black" cx="155.71" cy="-31.9" rx="31.9" ry="31.9"/>
<text text-anchor="middle" x="155.71" y="-26.85" font-family="Times,serif" font-size="14.00">1.000</text>
</g>
<!-- node42 -->
<g id="node3" class="node">
<title>node42</title>
<ellipse fill="lightgreen" stroke="black" cx="279.51" cy="-51.9" rx="31.9" ry="31.9"/>
<text text-anchor="middle" x="279.51" y="-46.85" font-family="Times,serif" font-size="14.00">1.000</text>
</g>
<!-- node1&#45;&gt;node42 -->
<g id="edge3" class="edge">
<title>node1&#45;&gt;node42</title>
<path fill="none" stroke="black" d="M187.44,-36.95C202.3,-39.39 220.37,-42.36 236.48,-45"/>
<polygon fill="black" stroke="black" points="235.86,-48.45 246.29,-46.61 236.99,-41.54 235.86,-48.45"/>
<text text-anchor="middle" x="217.61" y="-47.1" font-family="Times,serif" font-size="14.00">1.31</text>
</g>
<!-- node186&#45;&gt;node42 -->
<g id="edge2" class="edge">
<title>node186&#45;&gt;node42</title>
<path fill="none" stroke="black" d="M184.65,-99.68C201.21,-91.25 222.42,-80.46 240.48,-71.26"/>
<polygon fill="black" stroke="black" points="242.03,-74.4 249.35,-66.75 238.85,-68.16 242.03,-74.4"/>
<text text-anchor="middle" x="217.61" y="-91.1" font-family="Times,serif" font-size="14.00">0.84</text>
</g>
</g>
</svg>
