<?xml version="1.0" encoding="UTF-8" standalone="no"?>
<!DOCTYPE svg PUBLIC "-//W3C//DTD SVG 1.1//EN"
 "http://www.w3.org/Graphics/SVG/1.1/DTD/svg11.dtd">
<!-- Generated by graphviz version 9.0.0 (20230911.1827)
 -->
<!-- Title: neat Pages: 1 -->
<svg width="452pt" height="154pt"
 viewBox="0.00 0.00 452.22 153.81" xmlns="http://www.w3.org/2000/svg" xmlns:xlink="http://www.w3.org/1999/xlink">
<g id="graph0" class="graph" transform="scale(1 1) rotate(0) translate(4 149.81)">
<title>neat</title>
<polygon fill="white" stroke="none" points="-4,4 -4,-149.81 448.22,-149.81 448.22,4 -4,4"/>
<!-- node0 -->
<g id="node1" class="node">
<title>node0</title>
<ellipse fill="lightblue" stroke="black" cx="31.9" cy="-113.9" rx="31.9" ry="31.9"/>
<text text-anchor="middle" x="31.9" y="-108.85" font-family="Times,serif" font-size="14.00">0.000</text>
</g>
<!-- node194 -->
<g id="node5" class="node">
<title>node194</title>
<ellipse fill="lightgray" stroke="black" cx="155.71" cy="-113.9" rx="31.9" ry="31.9"/>
<text text-anchor="middle" x="155.71" y="-108.85" font-family="Times,serif" font-size="14.00">0.500</text>
</g>
<!-- node0&#45;&gt;node194 -->
<g id="edge4" class="edge">
<title>node0&#45;&gt;node194</title>
<path fill="none" stroke="black" d="M64.27,-113.9C78.9,-113.9 96.54,-113.9 112.34,-113.9"/>
<polygon fill="black" stroke="black" points="111.93,-117.4 121.93,-113.9 111.93,-110.4 111.93,-117.4"/>
<text text-anchor="middle" x="93.81" y="-117.1" font-family="Times,serif" font-size="14.00">0.25</text>
</g>
<!-- node1 -->
<g id="node2" class="node">
<title>node1</title>
<ellipse fill="lightblue" stroke="black" cx="155.71" cy="-31.9" rx="31.9" ry="31.9"/>
<text text-anchor="middle" x="155.71" y="-26.85" font-family="Times,serif" font-size="14.00">1.000</text>
</g>
<!-- node61 -->
<g id="node3" class="node">
<title>node61</title>
<ellipse fill="lightgreen" stroke="black" cx="412.32" cy="-47.9" rx="31.9" ry="31.9"/>
<text text-anchor="middle" x="412.32" y="-42.85" font-family="Times,serif" font-size="14.00">0.003</text>
</g>
<!-- node1&#45;&gt;node61 -->
<g id="edge1" class="edge">
<title>node1&#45;&gt;node61</title>
<path fill="none" stroke="black" d="M187.84,-33.33C219.94,-34.86 271.45,-37.47 315.92,-40.4 333.43,-41.56 352.73,-43.04 369.36,-44.38"/>
<polygon fill="black" stroke="black" points="368.64,-47.83 378.89,-45.15 369.21,-40.85 368.64,-47.83"/>
<text text-anchor="middle" x="284.01" y="-43.1" font-family="Times,serif" font-size="14.00">&#45;1.21</text>
</g>
<!-- node179 -->
<g id="node4" class="node">
<title>node179</title>
<ellipse fill="lightgray" stroke="black" cx="284.01" cy="-97.9" rx="31.9" ry="31.9"/>
<text text-anchor="middle" x="284.01" y="-92.85" font-family="Times,serif" font-size="14.00">0.000</text>
</g>
<!-- node1&#45;&gt;node179 -->
<g id="edge3" class="edge">
<title>node1&#45;&gt;node179</title>
<path fill="none" stroke="black" d="M184.43,-46.39C202.28,-55.71 225.71,-67.96 245.26,-78.17"/>
<polygon fill="black" stroke="black" points="243.53,-81.22 254.02,-82.75 246.78,-75.02 243.53,-81.22"/>
<text text-anchor="middle" x="219.86" y="-73.1" font-family="Times,serif" font-size="14.00">&#45;1.71</text>
</g>
<!-- node179&#45;&gt;node61 -->
<g id="edge2" class="edge">
<title>node179&#45;&gt;node61</title>
<path fill="none" stroke="black" d="M313.99,-86.43C331.16,-79.64 353.15,-70.93 371.88,-63.51"/>
<polygon fill="black" stroke="black" points="373.06,-66.81 381.07,-59.88 370.48,-60.3 373.06,-66.81"/>
<text text-anchor="middle" x="348.17" y="-80.1" font-family="Times,serif" font-size="14.00">&#45;0.89</text>
</g>
<!-- node194&#45;&gt;node179 -->
<g id="edge5" class="edge">
<title>node194&#45;&gt;node179</title>
<path fill="none" stroke="black" d="M187.61,-109.99C203.66,-107.95 223.52,-105.44 240.95,-103.23"/>
<polygon fill="black" stroke="black" points="241.01,-106.75 250.5,-102.02 240.13,-99.81 241.01,-106.75"/>
<text text-anchor="middle" x="219.86" y="-110.1" font-family="Times,serif" font-size="14.00">2.52</text>
</g>
</g>
</svg>
