<?xml version="1.0" encoding="UTF-8" standalone="no"?>
<!DOCTYPE svg PUBLIC "-//W3C//DTD SVG 1.1//EN"
 "http://www.w3.org/Graphics/SVG/1.1/DTD/svg11.dtd">
<!-- Generated by graphviz version 9.0.0 (20230911.1827)
 -->
<!-- Title: neat Pages: 1 -->
<svg width="372pt" height="110pt"
 viewBox="0.00 0.00 372.21 109.50" xmlns="http://www.w3.org/2000/svg" xmlns:xlink="http://www.w3.org/1999/xlink">
<g id="graph0" class="graph" transform="scale(1 1) rotate(0) translate(4 105.5)">
<title>neat</title>
<polygon fill="white" stroke="none" points="-4,4 -4,-105.5 368.21,-105.5 368.21,4 -4,4"/>
<!-- node0 -->
<g id="node1" class="node">
<title>node0</title>
<ellipse fill="lightblue" stroke="black" cx="18" cy="-81" rx="18" ry="18"/>
<text text-anchor="middle" x="18" y="-75.95" font-family="Times,serif" font-size="14.00">0</text>
</g>
<!-- node45 -->
<g id="node3" class="node">
<title>node45</title>
<ellipse fill="lightgreen" stroke="black" cx="344.08" cy="-64" rx="20.13" ry="20.13"/>
<text text-anchor="middle" x="344.08" y="-58.95" font-family="Times,serif" font-size="14.00">45</text>
</g>
<!-- node0&#45;&gt;node45 -->
<g id="edge1" class="edge">
<title>node0&#45;&gt;node45</title>
<path fill="none" stroke="black" d="M36.28,-82.23C81.13,-85.08 204.77,-90.75 305.95,-75 308.49,-74.61 311.09,-74.08 313.69,-73.48"/>
<polygon fill="black" stroke="black" points="314.6,-76.86 323.33,-70.87 312.77,-70.11 314.6,-76.86"/>
<text text-anchor="middle" x="179.97" y="-88.2" font-family="Times,serif" font-size="14.00">0.22</text>
</g>
<!-- node167 -->
<g id="node4" class="node">
<title>node167</title>
<ellipse fill="lightgray" stroke="black" cx="125.24" cy="-37" rx="24.74" ry="24.74"/>
<text text-anchor="middle" x="125.24" y="-31.95" font-family="Times,serif" font-size="14.00">167</text>
</g>
<!-- node0&#45;&gt;node167 -->
<g id="edge3" class="edge">
<title>node0&#45;&gt;node167</title>
<path fill="none" stroke="black" d="M33.21,-71.19C39.41,-67.2 46.87,-62.77 54,-59.5 65.46,-54.24 78.51,-49.69 90.21,-46.09"/>
<polygon fill="black" stroke="black" points="90.88,-49.55 99.48,-43.37 88.9,-42.83 90.88,-49.55"/>
<text text-anchor="middle" x="68.25" y="-62.2" font-family="Times,serif" font-size="14.00">1.21</text>
</g>
<!-- node1 -->
<g id="node2" class="node">
<title>node1</title>
<ellipse fill="lightblue" stroke="black" cx="18" cy="-18" rx="18" ry="18"/>
<text text-anchor="middle" x="18" y="-12.95" font-family="Times,serif" font-size="14.00">1</text>
</g>
<!-- node1&#45;&gt;node167 -->
<g id="edge2" class="edge">
<title>node1&#45;&gt;node167</title>
<path fill="none" stroke="black" d="M36.45,-16.68C49.32,-16.13 67.19,-16.23 82.5,-19.5 85.67,-20.18 88.9,-21.09 92.09,-22.15"/>
<polygon fill="black" stroke="black" points="90.63,-25.34 101.23,-25.61 93.12,-18.79 90.63,-25.34"/>
<text text-anchor="middle" x="68.25" y="-23.2" font-family="Times,serif" font-size="14.00">&#45;3.61</text>
</g>
<!-- node239 -->
<g id="node5" class="node">
<title>node239</title>
<ellipse fill="lightgray" stroke="black" cx="234.71" cy="-37" rx="24.74" ry="24.74"/>
<text text-anchor="middle" x="234.71" y="-31.95" font-family="Times,serif" font-size="14.00">239</text>
</g>
<!-- node167&#45;&gt;node239 -->
<g id="edge4" class="edge">
<title>node167&#45;&gt;node239</title>
<path fill="none" stroke="black" d="M150.36,-37C164.46,-37 182.53,-37 198.23,-37"/>
<polygon fill="black" stroke="black" points="198.16,-40.5 208.16,-37 198.16,-33.5 198.16,-40.5"/>
<text text-anchor="middle" x="179.97" y="-40.2" font-family="Times,serif" font-size="14.00">1.00</text>
</g>
<!-- node239&#45;&gt;node45 -->
<g id="edge5" class="edge">
<title>node239&#45;&gt;node45</title>
<path fill="none" stroke="black" d="M259.01,-42.86C274.84,-46.84 295.94,-52.15 313.04,-56.44"/>
<polygon fill="black" stroke="black" points="312.1,-59.82 322.65,-58.86 313.81,-53.03 312.1,-59.82"/>
<text text-anchor="middle" x="291.7" y="-57.2" font-family="Times,serif" font-size="14.00">&#45;0.03</text>
</g>
</g>
</svg>
