<?xml version="1.0" encoding="UTF-8" standalone="no"?>
<!DOCTYPE svg PUBLIC "-//W3C//DTD SVG 1.1//EN"
 "http://www.w3.org/Graphics/SVG/1.1/DTD/svg11.dtd">
<!-- Generated by graphviz version 9.0.0 (20230911.1827)
 -->
<!-- Title: neat Pages: 1 -->
<svg width="363pt" height="118pt"
 viewBox="0.00 0.00 363.21 117.74" xmlns="http://www.w3.org/2000/svg" xmlns:xlink="http://www.w3.org/1999/xlink">
<g id="graph0" class="graph" transform="scale(1 1) rotate(0) translate(4 113.74)">
<title>neat</title>
<polygon fill="white" stroke="none" points="-4,4 -4,-113.74 359.21,-113.74 359.21,4 -4,4"/>
<!-- node0 -->
<g id="node1" class="node">
<title>node0</title>
<ellipse fill="lightblue" stroke="black" cx="18" cy="-85" rx="18" ry="18"/>
<text text-anchor="middle" x="18" y="-79.95" font-family="Times,serif" font-size="14.00">0</text>
</g>
<!-- node234 -->
<g id="node5" class="node">
<title>node234</title>
<ellipse fill="lightgray" stroke="black" cx="120.74" cy="-85" rx="24.74" ry="24.74"/>
<text text-anchor="middle" x="120.74" y="-79.95" font-family="Times,serif" font-size="14.00">234</text>
</g>
<!-- node0&#45;&gt;node234 -->
<g id="edge3" class="edge">
<title>node0&#45;&gt;node234</title>
<path fill="none" stroke="black" d="M36.09,-85C49.28,-85 67.98,-85 84.36,-85"/>
<polygon fill="black" stroke="black" points="84.24,-88.5 94.24,-85 84.24,-81.5 84.24,-88.5"/>
<text text-anchor="middle" x="66" y="-88.2" font-family="Times,serif" font-size="14.00">1.00</text>
</g>
<!-- node1 -->
<g id="node2" class="node">
<title>node1</title>
<ellipse fill="lightblue" stroke="black" cx="120.74" cy="-18" rx="18" ry="18"/>
<text text-anchor="middle" x="120.74" y="-12.95" font-family="Times,serif" font-size="14.00">1</text>
</g>
<!-- node81 -->
<g id="node3" class="node">
<title>node81</title>
<ellipse fill="lightgreen" stroke="black" cx="335.08" cy="-28" rx="20.13" ry="20.13"/>
<text text-anchor="middle" x="335.08" y="-22.95" font-family="Times,serif" font-size="14.00">81</text>
</g>
<!-- node1&#45;&gt;node81 -->
<g id="edge1" class="edge">
<title>node1&#45;&gt;node81</title>
<path fill="none" stroke="black" d="M139,-17.91C164.41,-17.86 213.38,-18.14 254.95,-20.5 270.88,-21.4 288.56,-23.02 303.16,-24.52"/>
<polygon fill="black" stroke="black" points="302.78,-28 313.1,-25.58 303.52,-21.04 302.78,-28"/>
<text text-anchor="middle" x="230.21" y="-23.2" font-family="Times,serif" font-size="14.00">0.04</text>
</g>
<!-- node152 -->
<g id="node4" class="node">
<title>node152</title>
<ellipse fill="lightgray" stroke="black" cx="230.21" cy="-71" rx="24.74" ry="24.74"/>
<text text-anchor="middle" x="230.21" y="-65.95" font-family="Times,serif" font-size="14.00">152</text>
</g>
<!-- node1&#45;&gt;node152 -->
<g id="edge5" class="edge">
<title>node1&#45;&gt;node152</title>
<path fill="none" stroke="black" d="M137.14,-25.59C152.78,-33.31 177.47,-45.49 197.35,-55.29"/>
<polygon fill="black" stroke="black" points="195.65,-58.35 206.16,-59.63 198.74,-52.07 195.65,-58.35"/>
<text text-anchor="middle" x="175.47" y="-52.2" font-family="Times,serif" font-size="14.00">0.11</text>
</g>
<!-- node152&#45;&gt;node81 -->
<g id="edge2" class="edge">
<title>node152&#45;&gt;node81</title>
<path fill="none" stroke="black" d="M253.53,-61.67C268.7,-55.33 288.92,-46.88 305.3,-40.03"/>
<polygon fill="black" stroke="black" points="306.64,-43.26 314.52,-36.18 303.94,-36.8 306.64,-43.26"/>
<text text-anchor="middle" x="284.95" y="-56.2" font-family="Times,serif" font-size="14.00">3.50</text>
</g>
<!-- node234&#45;&gt;node152 -->
<g id="edge4" class="edge">
<title>node234&#45;&gt;node152</title>
<path fill="none" stroke="black" d="M145.59,-81.89C159.92,-80.03 178.41,-77.62 194.36,-75.54"/>
<polygon fill="black" stroke="black" points="194.46,-79.06 203.93,-74.29 193.56,-72.12 194.46,-79.06"/>
<text text-anchor="middle" x="175.47" y="-82.2" font-family="Times,serif" font-size="14.00">1.08</text>
</g>
</g>
</svg>
