<?xml version="1.0" encoding="UTF-8" standalone="no"?>
<!DOCTYPE svg PUBLIC "-//W3C//DTD SVG 1.1//EN"
 "http://www.w3.org/Graphics/SVG/1.1/DTD/svg11.dtd">
<!-- Generated by graphviz version 9.0.0 (20230911.1827)
 -->
<!-- Title: neat Pages: 1 -->
<svg width="258pt" height="112pt"
 viewBox="0.00 0.00 258.24 111.74" xmlns="http://www.w3.org/2000/svg" xmlns:xlink="http://www.w3.org/1999/xlink">
<g id="graph0" class="graph" transform="scale(1 1) rotate(0) translate(4 107.74)">
<title>neat</title>
<polygon fill="white" stroke="none" points="-4,4 -4,-107.74 254.24,-107.74 254.24,4 -4,4"/>
<!-- node0 -->
<g id="node1" class="node">
<title>node0</title>
<ellipse fill="lightblue" stroke="black" cx="120.74" cy="-85.74" rx="18" ry="18"/>
<text text-anchor="middle" x="120.74" y="-80.69" font-family="Times,serif" font-size="14.00">0</text>
</g>
<!-- node45 -->
<g id="node3" class="node">
<title>node45</title>
<ellipse fill="lightgreen" stroke="black" cx="230.11" cy="-55.74" rx="20.13" ry="20.13"/>
<text text-anchor="middle" x="230.11" y="-50.69" font-family="Times,serif" font-size="14.00">45</text>
</g>
<!-- node0&#45;&gt;node45 -->
<g id="edge1" class="edge">
<title>node0&#45;&gt;node45</title>
<path fill="none" stroke="black" d="M138.51,-81.05C154.78,-76.5 179.82,-69.51 199.45,-64.02"/>
<polygon fill="black" stroke="black" points="200.13,-67.47 208.82,-61.4 198.25,-60.72 200.13,-67.47"/>
<text text-anchor="middle" x="177.72" y="-75.94" font-family="Times,serif" font-size="14.00">0.91</text>
</g>
<!-- node1 -->
<g id="node2" class="node">
<title>node1</title>
<ellipse fill="lightblue" stroke="black" cx="18" cy="-24.74" rx="18" ry="18"/>
<text text-anchor="middle" x="18" y="-19.69" font-family="Times,serif" font-size="14.00">1</text>
</g>
<!-- node167 -->
<g id="node4" class="node">
<title>node167</title>
<ellipse fill="lightgray" stroke="black" cx="120.74" cy="-24.74" rx="24.74" ry="24.74"/>
<text text-anchor="middle" x="120.74" y="-19.69" font-family="Times,serif" font-size="14.00">167</text>
</g>
<!-- node1&#45;&gt;node167 -->
<g id="edge2" class="edge">
<title>node1&#45;&gt;node167</title>
<path fill="none" stroke="black" d="M36.09,-24.74C49.28,-24.74 67.98,-24.74 84.36,-24.74"/>
<polygon fill="black" stroke="black" points="84.24,-28.24 94.24,-24.74 84.24,-21.24 84.24,-28.24"/>
<text text-anchor="middle" x="66" y="-27.94" font-family="Times,serif" font-size="14.00">1.00</text>
</g>
<!-- node167&#45;&gt;node45 -->
<g id="edge3" class="edge">
<title>node167&#45;&gt;node45</title>
<path fill="none" stroke="black" d="M145.03,-31.46C161.12,-36.11 182.64,-42.32 199.88,-47.3"/>
<polygon fill="black" stroke="black" points="198.46,-50.53 209.04,-49.94 200.4,-43.81 198.46,-50.53"/>
<text text-anchor="middle" x="177.72" y="-48.94" font-family="Times,serif" font-size="14.00">&#45;1.26</text>
</g>
</g>
</svg>
