<?xml version="1.0" encoding="UTF-8" standalone="no"?>
<!DOCTYPE svg PUBLIC "-//W3C//DTD SVG 1.1//EN"
 "http://www.w3.org/Graphics/SVG/1.1/DTD/svg11.dtd">
<!-- Generated by graphviz version 9.0.0 (20230911.1827)
 -->
<!-- Title: neat Pages: 1 -->
<svg width="267pt" height="131pt"
 viewBox="0.00 0.00 267.45 130.74" xmlns="http://www.w3.org/2000/svg" xmlns:xlink="http://www.w3.org/1999/xlink">
<g id="graph0" class="graph" transform="scale(1 1) rotate(0) translate(4 126.74)">
<title>neat</title>
<polygon fill="white" stroke="none" points="-4,4 -4,-126.74 263.45,-126.74 263.45,4 -4,4"/>
<!-- node0 -->
<g id="node1" class="node">
<title>node0</title>
<ellipse fill="lightblue" stroke="black" cx="18" cy="-85" rx="18" ry="18"/>
<text text-anchor="middle" x="18" y="-79.95" font-family="Times,serif" font-size="14.00">0</text>
</g>
<!-- node166 -->
<g id="node4" class="node">
<title>node166</title>
<ellipse fill="lightgray" stroke="black" cx="125.24" cy="-31" rx="24.74" ry="24.74"/>
<text text-anchor="middle" x="125.24" y="-25.95" font-family="Times,serif" font-size="14.00">166</text>
</g>
<!-- node0&#45;&gt;node166 -->
<g id="edge5" class="edge">
<title>node0&#45;&gt;node166</title>
<path fill="none" stroke="black" d="M34.53,-77.03C49.77,-69.21 73.47,-57.05 92.68,-47.19"/>
<polygon fill="black" stroke="black" points="94.16,-50.37 101.46,-42.69 90.96,-44.14 94.16,-50.37"/>
<text text-anchor="middle" x="68.25" y="-69.2" font-family="Times,serif" font-size="14.00">1.45</text>
</g>
<!-- node237 -->
<g id="node5" class="node">
<title>node237</title>
<ellipse fill="lightgray" stroke="black" cx="125.24" cy="-98" rx="24.74" ry="24.74"/>
<text text-anchor="middle" x="125.24" y="-92.95" font-family="Times,serif" font-size="14.00">237</text>
</g>
<!-- node0&#45;&gt;node237 -->
<g id="edge3" class="edge">
<title>node0&#45;&gt;node237</title>
<path fill="none" stroke="black" d="M35.91,-87.09C50.21,-88.85 71.17,-91.44 89.08,-93.66"/>
<polygon fill="black" stroke="black" points="88.46,-97.11 98.81,-94.86 89.31,-90.16 88.46,-97.11"/>
<text text-anchor="middle" x="68.25" y="-95.2" font-family="Times,serif" font-size="14.00">1.00</text>
</g>
<!-- node1 -->
<g id="node2" class="node">
<title>node1</title>
<ellipse fill="lightblue" stroke="black" cx="18" cy="-18" rx="18" ry="18"/>
<text text-anchor="middle" x="18" y="-12.95" font-family="Times,serif" font-size="14.00">1</text>
</g>
<!-- node1&#45;&gt;node166 -->
<g id="edge1" class="edge">
<title>node1&#45;&gt;node166</title>
<path fill="none" stroke="black" d="M36.35,-17.27C49.17,-17.01 67.01,-17.22 82.5,-19.5 85.14,-19.89 87.84,-20.39 90.55,-20.96"/>
<polygon fill="black" stroke="black" points="89.48,-24.31 100.02,-23.29 91.14,-17.51 89.48,-24.31"/>
<text text-anchor="middle" x="68.25" y="-23.2" font-family="Times,serif" font-size="14.00">&#45;1.97</text>
</g>
<!-- node138 -->
<g id="node3" class="node">
<title>node138</title>
<ellipse fill="lightgreen" stroke="black" cx="234.71" cy="-64" rx="24.74" ry="24.74"/>
<text text-anchor="middle" x="234.71" y="-58.95" font-family="Times,serif" font-size="14.00">138</text>
</g>
<!-- node166&#45;&gt;node138 -->
<g id="edge2" class="edge">
<title>node166&#45;&gt;node138</title>
<path fill="none" stroke="black" d="M149.29,-38.08C164.03,-42.6 183.39,-48.55 199.85,-53.6"/>
<polygon fill="black" stroke="black" points="198.66,-56.9 209.25,-56.49 200.72,-50.21 198.66,-56.9"/>
<text text-anchor="middle" x="179.97" y="-54.2" font-family="Times,serif" font-size="14.00">3.97</text>
</g>
<!-- node237&#45;&gt;node138 -->
<g id="edge4" class="edge">
<title>node237&#45;&gt;node138</title>
<path fill="none" stroke="black" d="M149.29,-90.71C164.03,-86.05 183.39,-79.92 199.85,-74.71"/>
<polygon fill="black" stroke="black" points="200.77,-78.09 209.25,-71.74 198.66,-71.42 200.77,-78.09"/>
<text text-anchor="middle" x="179.97" y="-87.2" font-family="Times,serif" font-size="14.00">0.23</text>
</g>
</g>
</svg>
