<?xml version="1.0" encoding="UTF-8" standalone="no"?>
<!DOCTYPE svg PUBLIC "-//W3C//DTD SVG 1.1//EN"
 "http://www.w3.org/Graphics/SVG/1.1/DTD/svg11.dtd">
<!-- Generated by graphviz version 9.0.0 (20230911.1827)
 -->
<!-- Title: neat Pages: 1 -->
<svg width="324pt" height="154pt"
 viewBox="0.00 0.00 323.92 153.81" xmlns="http://www.w3.org/2000/svg" xmlns:xlink="http://www.w3.org/1999/xlink">
<g id="graph0" class="graph" transform="scale(1 1) rotate(0) translate(4 149.81)">
<title>neat</title>
<polygon fill="white" stroke="none" points="-4,4 -4,-149.81 319.92,-149.81 319.92,4 -4,4"/>
<!-- node0 -->
<g id="node1" class="node">
<title>node0</title>
<ellipse fill="lightblue" stroke="black" cx="31.9" cy="-113.9" rx="31.9" ry="31.9"/>
<text text-anchor="middle" x="31.9" y="-108.85" font-family="Times,serif" font-size="14.00">0.000</text>
</g>
<!-- node129 -->
<g id="node3" class="node">
<title>node129</title>
<ellipse fill="lightgreen" stroke="black" cx="284.01" cy="-79.9" rx="31.9" ry="31.9"/>
<text text-anchor="middle" x="284.01" y="-74.85" font-family="Times,serif" font-size="14.00">0.243</text>
</g>
<!-- node0&#45;&gt;node129 -->
<g id="edge1" class="edge">
<title>node0&#45;&gt;node129</title>
<path fill="none" stroke="black" d="M63.94,-109.82C103.47,-104.61 173.89,-95.25 234.11,-86.9 236.28,-86.6 238.5,-86.29 240.74,-85.98"/>
<polygon fill="black" stroke="black" points="241.07,-89.47 250.48,-84.6 240.09,-82.54 241.07,-89.47"/>
<text text-anchor="middle" x="155.71" y="-104.1" font-family="Times,serif" font-size="14.00">0.50</text>
</g>
<!-- node171 -->
<g id="node4" class="node">
<title>node171</title>
<ellipse fill="lightgray" stroke="black" cx="155.71" cy="-45.9" rx="31.9" ry="31.9"/>
<text text-anchor="middle" x="155.71" y="-40.85" font-family="Times,serif" font-size="14.00">0.999</text>
</g>
<!-- node0&#45;&gt;node171 -->
<g id="edge4" class="edge">
<title>node0&#45;&gt;node171</title>
<path fill="none" stroke="black" d="M59.31,-96.88C66.53,-92.38 74.41,-87.6 81.81,-83.4 92.99,-77.05 105.36,-70.52 116.68,-64.71"/>
<polygon fill="black" stroke="black" points="118.04,-67.95 125.38,-60.3 114.87,-61.71 118.04,-67.95"/>
<text text-anchor="middle" x="93.81" y="-86.1" font-family="Times,serif" font-size="14.00">1.04</text>
</g>
<!-- node1 -->
<g id="node2" class="node">
<title>node1</title>
<ellipse fill="lightblue" stroke="black" cx="31.9" cy="-31.9" rx="31.9" ry="31.9"/>
<text text-anchor="middle" x="31.9" y="-26.85" font-family="Times,serif" font-size="14.00">1.000</text>
</g>
<!-- node1&#45;&gt;node171 -->
<g id="edge2" class="edge">
<title>node1&#45;&gt;node171</title>
<path fill="none" stroke="black" d="M64.17,-34.25C77.08,-35.34 92.18,-36.75 105.81,-38.4 107.98,-38.67 110.21,-38.95 112.45,-39.25"/>
<polygon fill="black" stroke="black" points="111.81,-42.7 122.21,-40.63 112.8,-35.77 111.81,-42.7"/>
<text text-anchor="middle" x="93.81" y="-42.1" font-family="Times,serif" font-size="14.00">1.40</text>
</g>
<!-- node171&#45;&gt;node129 -->
<g id="edge3" class="edge">
<title>node171&#45;&gt;node129</title>
<path fill="none" stroke="black" d="M186.96,-54.05C203.44,-58.48 224.07,-64.04 241.98,-68.86"/>
<polygon fill="black" stroke="black" points="240.98,-72.21 251.55,-71.43 242.8,-65.45 240.98,-72.21"/>
<text text-anchor="middle" x="219.86" y="-69.1" font-family="Times,serif" font-size="14.00">&#45;0.23</text>
</g>
</g>
</svg>
