<?xml version="1.0" encoding="UTF-8" standalone="no"?>
<!DOCTYPE svg PUBLIC "-//W3C//DTD SVG 1.1//EN"
 "http://www.w3.org/Graphics/SVG/1.1/DTD/svg11.dtd">
<!-- Generated by graphviz version 9.0.0 (20230911.1827)
 -->
<!-- Title: neat Pages: 1 -->
<svg width="572pt" height="864pt"
 viewBox="0.00 0.00 571.92 864.00" xmlns="http://www.w3.org/2000/svg" xmlns:xlink="http://www.w3.org/1999/xlink">
<g id="graph0" class="graph" transform="scale(1 1) rotate(0) translate(4 860)">
<title>neat</title>
<polygon fill="white" stroke="none" points="-4,4 -4,-860 567.92,-860 567.92,4 -4,4"/>
<g id="clust1" class="cluster">
<title>cluster_0</title>
<path fill="none" stroke="gray" d="M20,-8C20,-8 543.92,-8 543.92,-8 549.92,-8 555.92,-14 555.92,-20 555.92,-20 555.92,-200 555.92,-200 555.92,-206 549.92,-212 543.92,-212 543.92,-212 20,-212 20,-212 14,-212 8,-206 8,-200 8,-200 8,-20 8,-20 8,-14 14,-8 20,-8"/>
<text text-anchor="middle" x="281.96" y="-194.7" font-family="Times,serif" font-size="14.00">Test 0,0 → 0</text>
</g>
<g id="clust2" class="cluster">
<title>cluster_1</title>
<path fill="none" stroke="gray" d="M20,-220C20,-220 543.92,-220 543.92,-220 549.92,-220 555.92,-226 555.92,-232 555.92,-232 555.92,-412 555.92,-412 555.92,-418 549.92,-424 543.92,-424 543.92,-424 20,-424 20,-424 14,-424 8,-418 8,-412 8,-412 8,-232 8,-232 8,-226 14,-220 20,-220"/>
<text text-anchor="middle" x="281.96" y="-406.7" font-family="Times,serif" font-size="14.00">Test 0,1 → 1</text>
</g>
<g id="clust3" class="cluster">
<title>cluster_2</title>
<path fill="none" stroke="gray" d="M20,-432C20,-432 543.92,-432 543.92,-432 549.92,-432 555.92,-438 555.92,-444 555.92,-444 555.92,-624 555.92,-624 555.92,-630 549.92,-636 543.92,-636 543.92,-636 20,-636 20,-636 14,-636 8,-630 8,-624 8,-624 8,-444 8,-444 8,-438 14,-432 20,-432"/>
<text text-anchor="middle" x="281.96" y="-618.7" font-family="Times,serif" font-size="14.00">Test 1,0 → 1</text>
</g>
<g id="clust4" class="cluster">
<title>cluster_3</title>
<path fill="none" stroke="gray" d="M20,-644C20,-644 543.92,-644 543.92,-644 549.92,-644 555.92,-650 555.92,-656 555.92,-656 555.92,-836 555.92,-836 555.92,-842 549.92,-848 543.92,-848 543.92,-848 20,-848 20,-848 14,-848 8,-842 8,-836 8,-836 8,-656 8,-656 8,-650 14,-644 20,-644"/>
<text text-anchor="middle" x="281.96" y="-830.7" font-family="Times,serif" font-size="14.00">Test 1,1 → 0</text>
</g>
<!-- node0_0 -->
<g id="node1" class="node">
<title>node0_0</title>
<ellipse fill="lightblue" stroke="black" cx="47.9" cy="-148" rx="31.9" ry="31.9"/>
<text text-anchor="middle" x="47.9" y="-142.95" font-family="Times,serif" font-size="14.00">0.000</text>
</g>
<!-- node174_0 -->
<g id="node4" class="node">
<title>node174_0</title>
<ellipse fill="lightgray" stroke="black" cx="284.21" cy="-136" rx="31.9" ry="31.9"/>
<text text-anchor="middle" x="284.21" y="-130.95" font-family="Times,serif" font-size="14.00">0.500</text>
</g>
<!-- node0_0&#45;&gt;node174_0 -->
<g id="edge2" class="edge">
<title>node0_0&#45;&gt;node174_0</title>
<path fill="none" stroke="black" d="M80.02,-146.41C121.24,-144.3 194.15,-140.56 240.5,-138.19"/>
<polygon fill="black" stroke="black" points="240.65,-141.68 250.45,-137.68 240.29,-134.69 240.65,-141.68"/>
<text text-anchor="middle" x="166.06" y="-145.2" font-family="Times,serif" font-size="14.00">&#45;0.72</text>
</g>
<!-- node1_0 -->
<g id="node2" class="node">
<title>node1_0</title>
<ellipse fill="lightblue" stroke="black" cx="47.9" cy="-48" rx="31.9" ry="31.9"/>
<text text-anchor="middle" x="47.9" y="-42.95" font-family="Times,serif" font-size="14.00">0.000</text>
</g>
<!-- node100_0 -->
<g id="node3" class="node">
<title>node100_0</title>
<ellipse fill="lightgreen" stroke="black" cx="516.01" cy="-73" rx="31.9" ry="31.9"/>
<text text-anchor="middle" x="516.01" y="-67.95" font-family="Times,serif" font-size="14.00">0.904</text>
</g>
<!-- node1_0&#45;&gt;node100_0 -->
<g id="edge1" class="edge">
<title>node1_0&#45;&gt;node100_0</title>
<path fill="none" stroke="black" d="M80.21,-49.68C161.56,-54.04 379.7,-65.74 472.4,-70.71"/>
<polygon fill="black" stroke="black" points="472.16,-74.21 482.33,-71.25 472.53,-67.22 472.16,-74.21"/>
<text text-anchor="middle" x="284.21" y="-65.2" font-family="Times,serif" font-size="14.00">&#45;4.50</text>
</g>
<!-- node1_0&#45;&gt;node174_0 -->
<g id="edge4" class="edge">
<title>node1_0&#45;&gt;node174_0</title>
<path fill="none" stroke="black" d="M78.1,-58.97C119.78,-74.62 196.47,-103.42 243.34,-121.03"/>
<polygon fill="black" stroke="black" points="242,-124.26 252.59,-124.5 244.46,-117.71 242,-124.26"/>
<text text-anchor="middle" x="166.06" y="-100.2" font-family="Times,serif" font-size="14.00">1.91</text>
</g>
<!-- node174_0&#45;&gt;node100_0 -->
<g id="edge3" class="edge">
<title>node174_0&#45;&gt;node100_0</title>
<path fill="none" stroke="black" d="M315.25,-127.76C355.85,-116.63 428.39,-96.75 473.99,-84.25"/>
<polygon fill="black" stroke="black" points="474.78,-87.66 483.5,-81.64 472.93,-80.91 474.78,-87.66"/>
<text text-anchor="middle" x="400.11" y="-109.2" font-family="Times,serif" font-size="14.00">0.92</text>
</g>
<!-- node0_1 -->
<g id="node5" class="node">
<title>node0_1</title>
<ellipse fill="lightblue" stroke="black" cx="47.9" cy="-360" rx="31.9" ry="31.9"/>
<text text-anchor="middle" x="47.9" y="-354.95" font-family="Times,serif" font-size="14.00">0.000</text>
</g>
<!-- node174_1 -->
<g id="node8" class="node">
<title>node174_1</title>
<ellipse fill="lightgray" stroke="black" cx="284.21" cy="-348" rx="31.9" ry="31.9"/>
<text text-anchor="middle" x="284.21" y="-342.95" font-family="Times,serif" font-size="14.00">1.000</text>
</g>
<!-- node0_1&#45;&gt;node174_1 -->
<g id="edge6" class="edge">
<title>node0_1&#45;&gt;node174_1</title>
<path fill="none" stroke="black" d="M80.02,-358.41C121.24,-356.3 194.15,-352.56 240.5,-350.19"/>
<polygon fill="black" stroke="black" points="240.65,-353.68 250.45,-349.68 240.29,-346.69 240.65,-353.68"/>
<text text-anchor="middle" x="166.06" y="-357.2" font-family="Times,serif" font-size="14.00">&#45;0.72</text>
</g>
<!-- node1_1 -->
<g id="node6" class="node">
<title>node1_1</title>
<ellipse fill="lightblue" stroke="black" cx="47.9" cy="-260" rx="31.9" ry="31.9"/>
<text text-anchor="middle" x="47.9" y="-254.95" font-family="Times,serif" font-size="14.00">1.000</text>
</g>
<!-- node100_1 -->
<g id="node7" class="node">
<title>node100_1</title>
<ellipse fill="lightgreen" stroke="black" cx="516.01" cy="-285" rx="31.9" ry="31.9"/>
<text text-anchor="middle" x="516.01" y="-279.95" font-family="Times,serif" font-size="14.00">0.000</text>
</g>
<!-- node1_1&#45;&gt;node100_1 -->
<g id="edge5" class="edge">
<title>node1_1&#45;&gt;node100_1</title>
<path fill="none" stroke="black" d="M80.21,-261.68C161.56,-266.04 379.7,-277.74 472.4,-282.71"/>
<polygon fill="black" stroke="black" points="472.16,-286.21 482.33,-283.25 472.53,-279.22 472.16,-286.21"/>
<text text-anchor="middle" x="284.21" y="-277.2" font-family="Times,serif" font-size="14.00">&#45;4.50</text>
</g>
<!-- node1_1&#45;&gt;node174_1 -->
<g id="edge8" class="edge">
<title>node1_1&#45;&gt;node174_1</title>
<path fill="none" stroke="black" d="M78.1,-270.97C119.78,-286.62 196.47,-315.42 243.34,-333.03"/>
<polygon fill="black" stroke="black" points="242,-336.26 252.59,-336.5 244.46,-329.71 242,-336.26"/>
<text text-anchor="middle" x="166.06" y="-312.2" font-family="Times,serif" font-size="14.00">1.91</text>
</g>
<!-- node174_1&#45;&gt;node100_1 -->
<g id="edge7" class="edge">
<title>node174_1&#45;&gt;node100_1</title>
<path fill="none" stroke="black" d="M315.25,-339.76C355.85,-328.63 428.39,-308.75 473.99,-296.25"/>
<polygon fill="black" stroke="black" points="474.78,-299.66 483.5,-293.64 472.93,-292.91 474.78,-299.66"/>
<text text-anchor="middle" x="400.11" y="-321.2" font-family="Times,serif" font-size="14.00">0.92</text>
</g>
<!-- node0_2 -->
<g id="node9" class="node">
<title>node0_2</title>
<ellipse fill="lightblue" stroke="black" cx="47.9" cy="-572" rx="31.9" ry="31.9"/>
<text text-anchor="middle" x="47.9" y="-566.95" font-family="Times,serif" font-size="14.00">1.000</text>
</g>
<!-- node174_2 -->
<g id="node12" class="node">
<title>node174_2</title>
<ellipse fill="lightgray" stroke="black" cx="284.21" cy="-560" rx="31.9" ry="31.9"/>
<text text-anchor="middle" x="284.21" y="-554.95" font-family="Times,serif" font-size="14.00">0.029</text>
</g>
<!-- node0_2&#45;&gt;node174_2 -->
<g id="edge10" class="edge">
<title>node0_2&#45;&gt;node174_2</title>
<path fill="none" stroke="black" d="M80.02,-570.41C121.24,-568.3 194.15,-564.56 240.5,-562.19"/>
<polygon fill="black" stroke="black" points="240.65,-565.68 250.45,-561.68 240.29,-558.69 240.65,-565.68"/>
<text text-anchor="middle" x="166.06" y="-569.2" font-family="Times,serif" font-size="14.00">&#45;0.72</text>
</g>
<!-- node1_2 -->
<g id="node10" class="node">
<title>node1_2</title>
<ellipse fill="lightblue" stroke="black" cx="47.9" cy="-472" rx="31.9" ry="31.9"/>
<text text-anchor="middle" x="47.9" y="-466.95" font-family="Times,serif" font-size="14.00">0.000</text>
</g>
<!-- node100_2 -->
<g id="node11" class="node">
<title>node100_2</title>
<ellipse fill="lightgreen" stroke="black" cx="516.01" cy="-497" rx="31.9" ry="31.9"/>
<text text-anchor="middle" x="516.01" y="-491.95" font-family="Times,serif" font-size="14.00">0.532</text>
</g>
<!-- node1_2&#45;&gt;node100_2 -->
<g id="edge9" class="edge">
<title>node1_2&#45;&gt;node100_2</title>
<path fill="none" stroke="black" d="M80.21,-473.68C161.56,-478.04 379.7,-489.74 472.4,-494.71"/>
<polygon fill="black" stroke="black" points="472.16,-498.21 482.33,-495.25 472.53,-491.22 472.16,-498.21"/>
<text text-anchor="middle" x="284.21" y="-489.2" font-family="Times,serif" font-size="14.00">&#45;4.50</text>
</g>
<!-- node1_2&#45;&gt;node174_2 -->
<g id="edge12" class="edge">
<title>node1_2&#45;&gt;node174_2</title>
<path fill="none" stroke="black" d="M78.1,-482.97C119.78,-498.62 196.47,-527.42 243.34,-545.03"/>
<polygon fill="black" stroke="black" points="242,-548.26 252.59,-548.5 244.46,-541.71 242,-548.26"/>
<text text-anchor="middle" x="166.06" y="-524.2" font-family="Times,serif" font-size="14.00">1.91</text>
</g>
<!-- node174_2&#45;&gt;node100_2 -->
<g id="edge11" class="edge">
<title>node174_2&#45;&gt;node100_2</title>
<path fill="none" stroke="black" d="M315.25,-551.76C355.85,-540.63 428.39,-520.75 473.99,-508.25"/>
<polygon fill="black" stroke="black" points="474.78,-511.66 483.5,-505.64 472.93,-504.91 474.78,-511.66"/>
<text text-anchor="middle" x="400.11" y="-533.2" font-family="Times,serif" font-size="14.00">0.92</text>
</g>
<!-- node0_3 -->
<g id="node13" class="node">
<title>node0_3</title>
<ellipse fill="lightblue" stroke="black" cx="47.9" cy="-784" rx="31.9" ry="31.9"/>
<text text-anchor="middle" x="47.9" y="-778.95" font-family="Times,serif" font-size="14.00">1.000</text>
</g>
<!-- node174_3 -->
<g id="node16" class="node">
<title>node174_3</title>
<ellipse fill="lightgray" stroke="black" cx="284.21" cy="-772" rx="31.9" ry="31.9"/>
<text text-anchor="middle" x="284.21" y="-766.95" font-family="Times,serif" font-size="14.00">0.997</text>
</g>
<!-- node0_3&#45;&gt;node174_3 -->
<g id="edge14" class="edge">
<title>node0_3&#45;&gt;node174_3</title>
<path fill="none" stroke="black" d="M80.02,-782.41C121.24,-780.3 194.15,-776.56 240.5,-774.19"/>
<polygon fill="black" stroke="black" points="240.65,-777.68 250.45,-773.68 240.29,-770.69 240.65,-777.68"/>
<text text-anchor="middle" x="166.06" y="-781.2" font-family="Times,serif" font-size="14.00">&#45;0.72</text>
</g>
<!-- node1_3 -->
<g id="node14" class="node">
<title>node1_3</title>
<ellipse fill="lightblue" stroke="black" cx="47.9" cy="-684" rx="31.9" ry="31.9"/>
<text text-anchor="middle" x="47.9" y="-678.95" font-family="Times,serif" font-size="14.00">1.000</text>
</g>
<!-- node100_3 -->
<g id="node15" class="node">
<title>node100_3</title>
<ellipse fill="lightgreen" stroke="black" cx="516.01" cy="-709" rx="31.9" ry="31.9"/>
<text text-anchor="middle" x="516.01" y="-703.95" font-family="Times,serif" font-size="14.00">0.000</text>
</g>
<!-- node1_3&#45;&gt;node100_3 -->
<g id="edge13" class="edge">
<title>node1_3&#45;&gt;node100_3</title>
<path fill="none" stroke="black" d="M80.21,-685.68C161.56,-690.04 379.7,-701.74 472.4,-706.71"/>
<polygon fill="black" stroke="black" points="472.16,-710.21 482.33,-707.25 472.53,-703.22 472.16,-710.21"/>
<text text-anchor="middle" x="284.21" y="-701.2" font-family="Times,serif" font-size="14.00">&#45;4.50</text>
</g>
<!-- node1_3&#45;&gt;node174_3 -->
<g id="edge16" class="edge">
<title>node1_3&#45;&gt;node174_3</title>
<path fill="none" stroke="black" d="M78.1,-694.97C119.78,-710.62 196.47,-739.42 243.34,-757.03"/>
<polygon fill="black" stroke="black" points="242,-760.26 252.59,-760.5 244.46,-753.71 242,-760.26"/>
<text text-anchor="middle" x="166.06" y="-736.2" font-family="Times,serif" font-size="14.00">1.91</text>
</g>
<!-- node174_3&#45;&gt;node100_3 -->
<g id="edge15" class="edge">
<title>node174_3&#45;&gt;node100_3</title>
<path fill="none" stroke="black" d="M315.25,-763.76C355.85,-752.63 428.39,-732.75 473.99,-720.25"/>
<polygon fill="black" stroke="black" points="474.78,-723.66 483.5,-717.64 472.93,-716.91 474.78,-723.66"/>
<text text-anchor="middle" x="400.11" y="-745.2" font-family="Times,serif" font-size="14.00">0.92</text>
</g>
</g>
</svg>
