<?xml version="1.0" encoding="UTF-8" standalone="no"?>
<!DOCTYPE svg PUBLIC "-//W3C//DTD SVG 1.1//EN"
 "http://www.w3.org/Graphics/SVG/1.1/DTD/svg11.dtd">
<!-- Generated by graphviz version 9.0.0 (20230911.1827)
 -->
<!-- Title: neat Pages: 1 -->
<svg width="272pt" height="140pt"
 viewBox="0.00 0.00 271.95 139.97" xmlns="http://www.w3.org/2000/svg" xmlns:xlink="http://www.w3.org/1999/xlink">
<g id="graph0" class="graph" transform="scale(1 1) rotate(0) translate(4 135.97)">
<title>neat</title>
<polygon fill="white" stroke="none" points="-4,4 -4,-135.97 267.95,-135.97 267.95,4 -4,4"/>
<!-- node0 -->
<g id="node1" class="node">
<title>node0</title>
<ellipse fill="lightblue" stroke="black" cx="18" cy="-94.23" rx="18" ry="18"/>
<text text-anchor="middle" x="18" y="-89.18" font-family="Times,serif" font-size="14.00">0</text>
</g>
<!-- node194 -->
<g id="node5" class="node">
<title>node194</title>
<ellipse fill="lightgray" stroke="black" cx="125.24" cy="-107.23" rx="24.74" ry="24.74"/>
<text text-anchor="middle" x="125.24" y="-102.18" font-family="Times,serif" font-size="14.00">194</text>
</g>
<!-- node0&#45;&gt;node194 -->
<g id="edge5" class="edge">
<title>node0&#45;&gt;node194</title>
<path fill="none" stroke="black" d="M36.08,-96.77C41.77,-97.59 48.16,-98.48 54,-99.23 65.38,-100.7 77.82,-102.16 89.03,-103.42"/>
<polygon fill="black" stroke="black" points="88.33,-106.87 98.66,-104.5 89.11,-99.91 88.33,-106.87"/>
<text text-anchor="middle" x="68.25" y="-105.43" font-family="Times,serif" font-size="14.00">1.55</text>
</g>
<!-- node260 -->
<g id="node6" class="node">
<title>node260</title>
<ellipse fill="lightgray" stroke="black" cx="125.24" cy="-27.23" rx="24.74" ry="24.74"/>
<text text-anchor="middle" x="125.24" y="-22.18" font-family="Times,serif" font-size="14.00">260</text>
</g>
<!-- node0&#45;&gt;node260 -->
<g id="edge3" class="edge">
<title>node0&#45;&gt;node260</title>
<path fill="none" stroke="black" d="M34.52,-86.52C47.61,-79.81 66.69,-69.57 82.5,-59.23 87.13,-56.21 91.9,-52.82 96.5,-49.42"/>
<polygon fill="black" stroke="black" points="98.53,-52.27 104.36,-43.43 94.28,-46.71 98.53,-52.27"/>
<text text-anchor="middle" x="68.25" y="-78.43" font-family="Times,serif" font-size="14.00">&#45;0.44</text>
</g>
<!-- node1 -->
<g id="node2" class="node">
<title>node1</title>
<ellipse fill="lightblue" stroke="black" cx="18" cy="-27.23" rx="18" ry="18"/>
<text text-anchor="middle" x="18" y="-22.18" font-family="Times,serif" font-size="14.00">1</text>
</g>
<!-- node1&#45;&gt;node194 -->
<g id="edge1" class="edge">
<title>node1&#45;&gt;node194</title>
<path fill="none" stroke="black" d="M36.35,-26.65C50,-27.01 68.92,-29.42 82.5,-38.73 89.61,-43.61 99.61,-59.81 108.04,-75.23"/>
<polygon fill="black" stroke="black" points="104.81,-76.6 112.6,-83.78 110.99,-73.31 104.81,-76.6"/>
<text text-anchor="middle" x="68.25" y="-42.43" font-family="Times,serif" font-size="14.00">2.39</text>
</g>
<!-- node1&#45;&gt;node260 -->
<g id="edge6" class="edge">
<title>node1&#45;&gt;node260</title>
<path fill="none" stroke="black" d="M31.92,-15.33C38.11,-10.41 45.94,-5.28 54,-2.73 66.08,1.07 70.28,0.59 82.5,-2.73 86.64,-3.86 90.78,-5.51 94.76,-7.43"/>
<polygon fill="black" stroke="black" points="93.05,-10.48 103.5,-12.24 96.43,-4.35 93.05,-10.48"/>
<text text-anchor="middle" x="68.25" y="-6.43" font-family="Times,serif" font-size="14.00">&#45;0.12</text>
</g>
<!-- node148 -->
<g id="node3" class="node">
<title>node148</title>
<ellipse fill="lightgreen" stroke="black" cx="239.21" cy="-27.23" rx="24.74" ry="24.74"/>
<text text-anchor="middle" x="239.21" y="-22.18" font-family="Times,serif" font-size="14.00">148</text>
</g>
<!-- node179 -->
<g id="node4" class="node">
<title>node179</title>
<ellipse fill="lightgray" stroke="black" cx="239.21" cy="-107.23" rx="24.74" ry="24.74"/>
<text text-anchor="middle" x="239.21" y="-102.18" font-family="Times,serif" font-size="14.00">179</text>
</g>
<!-- node194&#45;&gt;node179 -->
<g id="edge2" class="edge">
<title>node194&#45;&gt;node179</title>
<path fill="none" stroke="black" d="M150.26,-107.23C165.61,-107.23 185.78,-107.23 202.93,-107.23"/>
<polygon fill="black" stroke="black" points="202.72,-110.73 212.72,-107.23 202.72,-103.73 202.72,-110.73"/>
<text text-anchor="middle" x="182.22" y="-110.43" font-family="Times,serif" font-size="14.00">4.93</text>
</g>
<!-- node260&#45;&gt;node148 -->
<g id="edge4" class="edge">
<title>node260&#45;&gt;node148</title>
<path fill="none" stroke="black" d="M150.26,-27.23C165.61,-27.23 185.78,-27.23 202.93,-27.23"/>
<polygon fill="black" stroke="black" points="202.72,-30.73 212.72,-27.23 202.72,-23.73 202.72,-30.73"/>
<text text-anchor="middle" x="182.22" y="-30.43" font-family="Times,serif" font-size="14.00">&#45;0.70</text>
</g>
</g>
</svg>
