<?xml version="1.0" encoding="UTF-8" standalone="no"?>
<!DOCTYPE svg PUBLIC "-//W3C//DTD SVG 1.1//EN"
 "http://www.w3.org/Graphics/SVG/1.1/DTD/svg11.dtd">
<!-- Generated by graphviz version 9.0.0 (20230911.1827)
 -->
<!-- Title: neat Pages: 1 -->
<svg width="377pt" height="118pt"
 viewBox="0.00 0.00 376.71 117.74" xmlns="http://www.w3.org/2000/svg" xmlns:xlink="http://www.w3.org/1999/xlink">
<g id="graph0" class="graph" transform="scale(1 1) rotate(0) translate(4 113.74)">
<title>neat</title>
<polygon fill="white" stroke="none" points="-4,4 -4,-113.74 372.71,-113.74 372.71,4 -4,4"/>
<!-- node0 -->
<g id="node1" class="node">
<title>node0</title>
<ellipse fill="lightblue" stroke="black" cx="18" cy="-85" rx="18" ry="18"/>
<text text-anchor="middle" x="18" y="-79.95" font-family="Times,serif" font-size="14.00">0</text>
</g>
<!-- node254 -->
<g id="node5" class="node">
<title>node254</title>
<ellipse fill="lightgray" stroke="black" cx="125.24" cy="-85" rx="24.74" ry="24.74"/>
<text text-anchor="middle" x="125.24" y="-79.95" font-family="Times,serif" font-size="14.00">254</text>
</g>
<!-- node0&#45;&gt;node254 -->
<g id="edge4" class="edge">
<title>node0&#45;&gt;node254</title>
<path fill="none" stroke="black" d="M36.38,-85C50.58,-85 71.12,-85 88.77,-85"/>
<polygon fill="black" stroke="black" points="88.63,-88.5 98.63,-85 88.63,-81.5 88.63,-88.5"/>
<text text-anchor="middle" x="68.25" y="-88.2" font-family="Times,serif" font-size="14.00">&#45;1.13</text>
</g>
<!-- node1 -->
<g id="node2" class="node">
<title>node1</title>
<ellipse fill="lightblue" stroke="black" cx="125.24" cy="-18" rx="18" ry="18"/>
<text text-anchor="middle" x="125.24" y="-12.95" font-family="Times,serif" font-size="14.00">1</text>
</g>
<!-- node71 -->
<g id="node3" class="node">
<title>node71</title>
<ellipse fill="lightgreen" stroke="black" cx="348.58" cy="-28" rx="20.13" ry="20.13"/>
<text text-anchor="middle" x="348.58" y="-22.95" font-family="Times,serif" font-size="14.00">71</text>
</g>
<!-- node1&#45;&gt;node71 -->
<g id="edge1" class="edge">
<title>node1&#45;&gt;node71</title>
<path fill="none" stroke="black" d="M143.64,-17.92C169.78,-17.89 220.73,-18.17 263.95,-20.5 281.58,-21.45 301.25,-23.18 317.08,-24.74"/>
<polygon fill="black" stroke="black" points="316.53,-28.2 326.84,-25.73 317.24,-21.24 316.53,-28.2"/>
<text text-anchor="middle" x="239.21" y="-23.2" font-family="Times,serif" font-size="14.00">&#45;1.10</text>
</g>
<!-- node182 -->
<g id="node4" class="node">
<title>node182</title>
<ellipse fill="lightgray" stroke="black" cx="239.21" cy="-71" rx="24.74" ry="24.74"/>
<text text-anchor="middle" x="239.21" y="-65.95" font-family="Times,serif" font-size="14.00">182</text>
</g>
<!-- node1&#45;&gt;node182 -->
<g id="edge3" class="edge">
<title>node1&#45;&gt;node182</title>
<path fill="none" stroke="black" d="M141.81,-25.37C158.36,-33.2 185.01,-45.82 206.09,-55.8"/>
<polygon fill="black" stroke="black" points="204.33,-58.83 214.86,-59.95 207.32,-52.51 204.33,-58.83"/>
<text text-anchor="middle" x="182.22" y="-53.2" font-family="Times,serif" font-size="14.00">&#45;3.13</text>
</g>
<!-- node182&#45;&gt;node71 -->
<g id="edge2" class="edge">
<title>node182&#45;&gt;node71</title>
<path fill="none" stroke="black" d="M262.72,-61.99C279.04,-55.45 301.24,-46.56 318.84,-39.51"/>
<polygon fill="black" stroke="black" points="319.99,-42.82 327.97,-35.85 317.39,-36.32 319.99,-42.82"/>
<text text-anchor="middle" x="296.2" y="-56.2" font-family="Times,serif" font-size="14.00">&#45;1.47</text>
</g>
<!-- node254&#45;&gt;node182 -->
<g id="edge5" class="edge">
<title>node254&#45;&gt;node182</title>
<path fill="none" stroke="black" d="M150.26,-82C165.61,-80.08 185.78,-77.56 202.93,-75.41"/>
<polygon fill="black" stroke="black" points="203.24,-78.9 212.73,-74.19 202.37,-71.95 203.24,-78.9"/>
<text text-anchor="middle" x="182.22" y="-82.2" font-family="Times,serif" font-size="14.00">1.44</text>
</g>
</g>
</svg>
