<?xml version="1.0" encoding="UTF-8" standalone="no"?>
<!DOCTYPE svg PUBLIC "-//W3C//DTD SVG 1.1//EN"
 "http://www.w3.org/Graphics/SVG/1.1/DTD/svg11.dtd">
<!-- Generated by graphviz version 9.0.0 (20230911.1827)
 -->
<!-- Title: neat Pages: 1 -->
<svg width="149pt" height="98pt"
 viewBox="0.00 0.00 148.76 98.00" xmlns="http://www.w3.org/2000/svg" xmlns:xlink="http://www.w3.org/1999/xlink">
<g id="graph0" class="graph" transform="scale(1 1) rotate(0) translate(4 94)">
<title>neat</title>
<polygon fill="white" stroke="none" points="-4,4 -4,-94 144.76,-94 144.76,4 -4,4"/>
<!-- node0 -->
<g id="node1" class="node">
<title>node0</title>
<ellipse fill="lightblue" stroke="black" cx="18" cy="-72" rx="18" ry="18"/>
<text text-anchor="middle" x="18" y="-66.95" font-family="Times,serif" font-size="14.00">0</text>
</g>
<!-- node71 -->
<g id="node3" class="node">
<title>node71</title>
<ellipse fill="lightgreen" stroke="black" cx="120.63" cy="-45" rx="20.13" ry="20.13"/>
<text text-anchor="middle" x="120.63" y="-39.95" font-family="Times,serif" font-size="14.00">71</text>
</g>
<!-- node0&#45;&gt;node71 -->
<g id="edge1" class="edge">
<title>node0&#45;&gt;node71</title>
<path fill="none" stroke="black" d="M35.62,-67.54C50.36,-63.59 72.25,-57.71 89.99,-52.95"/>
<polygon fill="black" stroke="black" points="90.72,-56.38 99.47,-50.41 88.91,-49.62 90.72,-56.38"/>
<text text-anchor="middle" x="68.25" y="-65.2" font-family="Times,serif" font-size="14.00">&#45;1.06</text>
</g>
<!-- node1 -->
<g id="node2" class="node">
<title>node1</title>
<ellipse fill="lightblue" stroke="black" cx="18" cy="-18" rx="18" ry="18"/>
<text text-anchor="middle" x="18" y="-12.95" font-family="Times,serif" font-size="14.00">1</text>
</g>
<!-- node1&#45;&gt;node71 -->
<g id="edge2" class="edge">
<title>node1&#45;&gt;node71</title>
<path fill="none" stroke="black" d="M35.62,-22.46C50.36,-26.41 72.25,-32.29 89.99,-37.05"/>
<polygon fill="black" stroke="black" points="88.91,-40.38 99.47,-39.59 90.72,-33.62 88.91,-40.38"/>
<text text-anchor="middle" x="68.25" y="-38.2" font-family="Times,serif" font-size="14.00">2.01</text>
</g>
</g>
</svg>
