<?xml version="1.0" encoding="UTF-8" standalone="no"?>
<!DOCTYPE svg PUBLIC "-//W3C//DTD SVG 1.1//EN"
 "http://www.w3.org/Graphics/SVG/1.1/DTD/svg11.dtd">
<!-- Generated by graphviz version 9.0.0 (20230911.1827)
 -->
<!-- Title: neat Pages: 1 -->
<svg width="324pt" height="154pt"
 viewBox="0.00 0.00 323.92 153.81" xmlns="http://www.w3.org/2000/svg" xmlns:xlink="http://www.w3.org/1999/xlink">
<g id="graph0" class="graph" transform="scale(1 1) rotate(0) translate(4 149.81)">
<title>neat</title>
<polygon fill="white" stroke="none" points="-4,4 -4,-149.81 319.92,-149.81 319.92,4 -4,4"/>
<!-- node0 -->
<g id="node1" class="node">
<title>node0</title>
<ellipse fill="lightblue" stroke="black" cx="31.9" cy="-113.9" rx="31.9" ry="31.9"/>
<text text-anchor="middle" x="31.9" y="-108.85" font-family="Times,serif" font-size="14.00">0.000</text>
</g>
<!-- node169 -->
<g id="node4" class="node">
<title>node169</title>
<ellipse fill="lightgray" stroke="black" cx="155.71" cy="-113.9" rx="31.9" ry="31.9"/>
<text text-anchor="middle" x="155.71" y="-108.85" font-family="Times,serif" font-size="14.00">0.500</text>
</g>
<!-- node0&#45;&gt;node169 -->
<g id="edge1" class="edge">
<title>node0&#45;&gt;node169</title>
<path fill="none" stroke="black" d="M64.27,-113.9C78.9,-113.9 96.54,-113.9 112.34,-113.9"/>
<polygon fill="black" stroke="black" points="111.93,-117.4 121.93,-113.9 111.93,-110.4 111.93,-117.4"/>
<text text-anchor="middle" x="93.81" y="-117.1" font-family="Times,serif" font-size="14.00">0.43</text>
</g>
<!-- node1 -->
<g id="node2" class="node">
<title>node1</title>
<ellipse fill="lightblue" stroke="black" cx="155.71" cy="-31.9" rx="31.9" ry="31.9"/>
<text text-anchor="middle" x="155.71" y="-26.85" font-family="Times,serif" font-size="14.00">1.000</text>
</g>
<!-- node118 -->
<g id="node3" class="node">
<title>node118</title>
<ellipse fill="lightgreen" stroke="black" cx="284.01" cy="-51.9" rx="31.9" ry="31.9"/>
<text text-anchor="middle" x="284.01" y="-46.85" font-family="Times,serif" font-size="14.00">0.003</text>
</g>
<!-- node1&#45;&gt;node118 -->
<g id="edge3" class="edge">
<title>node1&#45;&gt;node118</title>
<path fill="none" stroke="black" d="M187.61,-36.8C203.66,-39.34 223.52,-42.48 240.95,-45.24"/>
<polygon fill="black" stroke="black" points="240.08,-48.65 250.5,-46.75 241.17,-41.73 240.08,-48.65"/>
<text text-anchor="middle" x="219.86" y="-47.1" font-family="Times,serif" font-size="14.00">&#45;1.02</text>
</g>
<!-- node169&#45;&gt;node118 -->
<g id="edge2" class="edge">
<title>node169&#45;&gt;node118</title>
<path fill="none" stroke="black" d="M184.74,-100.14C202.4,-91.47 225.43,-80.17 244.76,-70.68"/>
<polygon fill="black" stroke="black" points="246.27,-73.84 253.7,-66.29 243.18,-67.56 246.27,-73.84"/>
<text text-anchor="middle" x="219.86" y="-91.1" font-family="Times,serif" font-size="14.00">&#45;0.28</text>
</g>
</g>
</svg>
