<?xml version="1.0" encoding="UTF-8" standalone="no"?>
<!DOCTYPE svg PUBLIC "-//W3C//DTD SVG 1.1//EN"
 "http://www.w3.org/Graphics/SVG/1.1/DTD/svg11.dtd">
<!-- Generated by graphviz version 9.0.0 (20230911.1827)
 -->
<!-- Title: neat Pages: 1 -->
<svg width="363pt" height="112pt"
 viewBox="0.00 0.00 363.21 111.74" xmlns="http://www.w3.org/2000/svg" xmlns:xlink="http://www.w3.org/1999/xlink">
<g id="graph0" class="graph" transform="scale(1 1) rotate(0) translate(4 107.74)">
<title>neat</title>
<polygon fill="white" stroke="none" points="-4,4 -4,-107.74 359.21,-107.74 359.21,4 -4,4"/>
<!-- node0 -->
<g id="node1" class="node">
<title>node0</title>
<ellipse fill="lightblue" stroke="black" cx="18" cy="-79" rx="18" ry="18"/>
<text text-anchor="middle" x="18" y="-73.95" font-family="Times,serif" font-size="14.00">0</text>
</g>
<!-- node152 -->
<g id="node4" class="node">
<title>node152</title>
<ellipse fill="lightgray" stroke="black" cx="120.74" cy="-79" rx="24.74" ry="24.74"/>
<text text-anchor="middle" x="120.74" y="-73.95" font-family="Times,serif" font-size="14.00">152</text>
</g>
<!-- node0&#45;&gt;node152 -->
<g id="edge2" class="edge">
<title>node0&#45;&gt;node152</title>
<path fill="none" stroke="black" d="M36.09,-79C49.28,-79 67.98,-79 84.36,-79"/>
<polygon fill="black" stroke="black" points="84.24,-82.5 94.24,-79 84.24,-75.5 84.24,-82.5"/>
<text text-anchor="middle" x="66" y="-82.2" font-family="Times,serif" font-size="14.00">1.00</text>
</g>
<!-- node1 -->
<g id="node2" class="node">
<title>node1</title>
<ellipse fill="lightblue" stroke="black" cx="230.21" cy="-18" rx="18" ry="18"/>
<text text-anchor="middle" x="230.21" y="-12.95" font-family="Times,serif" font-size="14.00">1</text>
</g>
<!-- node81 -->
<g id="node3" class="node">
<title>node81</title>
<ellipse fill="lightgreen" stroke="black" cx="335.08" cy="-38" rx="20.13" ry="20.13"/>
<text text-anchor="middle" x="335.08" y="-32.95" font-family="Times,serif" font-size="14.00">81</text>
</g>
<!-- node1&#45;&gt;node81 -->
<g id="edge1" class="edge">
<title>node1&#45;&gt;node81</title>
<path fill="none" stroke="black" d="M248.28,-20.74C261.58,-22.93 280.48,-26.18 296.95,-29.5 299.28,-29.97 301.69,-30.48 304.1,-31"/>
<polygon fill="black" stroke="black" points="303.23,-34.39 313.75,-33.16 304.76,-27.56 303.23,-34.39"/>
<text text-anchor="middle" x="284.95" y="-33.2" font-family="Times,serif" font-size="14.00">0.67</text>
</g>
<!-- node189 -->
<g id="node5" class="node">
<title>node189</title>
<ellipse fill="lightgray" stroke="black" cx="230.21" cy="-79" rx="24.74" ry="24.74"/>
<text text-anchor="middle" x="230.21" y="-73.95" font-family="Times,serif" font-size="14.00">189</text>
</g>
<!-- node152&#45;&gt;node189 -->
<g id="edge3" class="edge">
<title>node152&#45;&gt;node189</title>
<path fill="none" stroke="black" d="M145.86,-79C159.96,-79 178.03,-79 193.73,-79"/>
<polygon fill="black" stroke="black" points="193.66,-82.5 203.66,-79 193.66,-75.5 193.66,-82.5"/>
<text text-anchor="middle" x="175.47" y="-82.2" font-family="Times,serif" font-size="14.00">1.00</text>
</g>
<!-- node189&#45;&gt;node81 -->
<g id="edge4" class="edge">
<title>node189&#45;&gt;node81</title>
<path fill="none" stroke="black" d="M253.79,-70C268.97,-63.95 289.12,-55.92 305.43,-49.42"/>
<polygon fill="black" stroke="black" points="306.61,-52.72 314.6,-45.76 304.01,-46.22 306.61,-52.72"/>
<text text-anchor="middle" x="284.95" y="-65.2" font-family="Times,serif" font-size="14.00">4.98</text>
</g>
</g>
</svg>
