<?xml version="1.0" encoding="UTF-8" standalone="no"?>
<!DOCTYPE svg PUBLIC "-//W3C//DTD SVG 1.1//EN"
 "http://www.w3.org/Graphics/SVG/1.1/DTD/svg11.dtd">
<!-- Generated by graphviz version 9.0.0 (20230911.1827)
 -->
<!-- Title: neat Pages: 1 -->
<svg width="171pt" height="168pt"
 viewBox="0.00 0.00 171.45 167.87" xmlns="http://www.w3.org/2000/svg" xmlns:xlink="http://www.w3.org/1999/xlink">
<g id="graph0" class="graph" transform="scale(1 1) rotate(0) translate(4 163.87)">
<title>neat</title>
<polygon fill="white" stroke="none" points="-4,4 -4,-163.87 167.45,-163.87 167.45,4 -4,4"/>
<!-- node0 -->
<g id="node1" class="node">
<title>node0</title>
<ellipse fill="lightblue" stroke="black" cx="24.74" cy="-20.13" rx="18" ry="18"/>
<text text-anchor="middle" x="24.74" y="-15.08" font-family="Times,serif" font-size="14.00">0</text>
</g>
<!-- node91 -->
<g id="node3" class="node">
<title>node91</title>
<ellipse fill="lightgreen" stroke="black" cx="138.71" cy="-20.13" rx="20.13" ry="20.13"/>
<text text-anchor="middle" x="138.71" y="-15.08" font-family="Times,serif" font-size="14.00">91</text>
</g>
<!-- node0&#45;&gt;node91 -->
<g id="edge2" class="edge">
<title>node0&#45;&gt;node91</title>
<path fill="none" stroke="black" d="M43.23,-20.13C60.3,-20.13 86.63,-20.13 107.16,-20.13"/>
<polygon fill="black" stroke="black" points="106.95,-23.63 116.95,-20.13 106.95,-16.63 106.95,-23.63"/>
<text text-anchor="middle" x="81.72" y="-23.33" font-family="Times,serif" font-size="14.00">&#45;0.21</text>
</g>
<!-- node1 -->
<g id="node2" class="node">
<title>node1</title>
<ellipse fill="lightblue" stroke="black" cx="24.74" cy="-74.13" rx="18" ry="18"/>
<text text-anchor="middle" x="24.74" y="-69.08" font-family="Times,serif" font-size="14.00">1</text>
</g>
<!-- node165 -->
<g id="node4" class="node">
<title>node165</title>
<ellipse fill="lightgray" stroke="black" cx="24.74" cy="-135.13" rx="24.74" ry="24.74"/>
<text text-anchor="middle" x="24.74" y="-130.08" font-family="Times,serif" font-size="14.00">165</text>
</g>
<!-- node190 -->
<g id="node5" class="node">
<title>node190</title>
<ellipse fill="lightgray" stroke="black" cx="138.71" cy="-135.13" rx="24.74" ry="24.74"/>
<text text-anchor="middle" x="138.71" y="-130.08" font-family="Times,serif" font-size="14.00">190</text>
</g>
<!-- node165&#45;&gt;node190 -->
<g id="edge1" class="edge">
<title>node165&#45;&gt;node190</title>
<path fill="none" stroke="black" d="M49.76,-135.13C65.11,-135.13 85.28,-135.13 102.43,-135.13"/>
<polygon fill="black" stroke="black" points="102.22,-138.63 112.22,-135.13 102.22,-131.63 102.22,-138.63"/>
<text text-anchor="middle" x="81.72" y="-138.33" font-family="Times,serif" font-size="14.00">&#45;0.74</text>
</g>
</g>
</svg>
