<?xml version="1.0" encoding="UTF-8" standalone="no"?>
<!DOCTYPE svg PUBLIC "-//W3C//DTD SVG 1.1//EN"
 "http://www.w3.org/Graphics/SVG/1.1/DTD/svg11.dtd">
<!-- Generated by graphviz version 9.0.0 (20230911.1827)
 -->
<!-- Title: neat Pages: 1 -->
<svg width="324pt" height="188pt"
 viewBox="0.00 0.00 323.92 187.81" xmlns="http://www.w3.org/2000/svg" xmlns:xlink="http://www.w3.org/1999/xlink">
<g id="graph0" class="graph" transform="scale(1 1) rotate(0) translate(4 183.81)">
<title>neat</title>
<polygon fill="white" stroke="none" points="-4,4 -4,-183.81 319.92,-183.81 319.92,4 -4,4"/>
<!-- node0 -->
<g id="node1" class="node">
<title>node0</title>
<ellipse fill="lightblue" stroke="black" cx="31.9" cy="-147.9" rx="31.9" ry="31.9"/>
<text text-anchor="middle" x="31.9" y="-142.85" font-family="Times,serif" font-size="14.00">0.000</text>
</g>
<!-- node73 -->
<g id="node3" class="node">
<title>node73</title>
<ellipse fill="lightgreen" stroke="black" cx="284.01" cy="-113.9" rx="31.9" ry="31.9"/>
<text text-anchor="middle" x="284.01" y="-108.85" font-family="Times,serif" font-size="14.00">0.987</text>
</g>
<!-- node0&#45;&gt;node73 -->
<g id="edge4" class="edge">
<title>node0&#45;&gt;node73</title>
<path fill="none" stroke="black" d="M63.49,-153.68C94.95,-158.61 145.21,-163.63 187.61,-154.9 207.5,-150.81 228.35,-142.38 245.47,-134.23"/>
<polygon fill="black" stroke="black" points="246.83,-137.46 254.25,-129.9 243.73,-131.18 246.83,-137.46"/>
<text text-anchor="middle" x="155.71" y="-162.1" font-family="Times,serif" font-size="14.00">&#45;0.99</text>
</g>
<!-- node166 -->
<g id="node4" class="node">
<title>node166</title>
<ellipse fill="lightgray" stroke="black" cx="155.71" cy="-113.9" rx="31.9" ry="31.9"/>
<text text-anchor="middle" x="155.71" y="-108.85" font-family="Times,serif" font-size="14.00">0.500</text>
</g>
<!-- node0&#45;&gt;node166 -->
<g id="edge2" class="edge">
<title>node0&#45;&gt;node166</title>
<path fill="none" stroke="black" d="M63.01,-139.5C78.24,-135.25 96.95,-130.03 113.49,-125.41"/>
<polygon fill="black" stroke="black" points="114.37,-128.8 123.07,-122.74 112.49,-122.05 114.37,-128.8"/>
<text text-anchor="middle" x="93.81" y="-137.1" font-family="Times,serif" font-size="14.00">0.11</text>
</g>
<!-- node1 -->
<g id="node2" class="node">
<title>node1</title>
<ellipse fill="lightblue" stroke="black" cx="155.71" cy="-31.9" rx="31.9" ry="31.9"/>
<text text-anchor="middle" x="155.71" y="-26.85" font-family="Times,serif" font-size="14.00">1.000</text>
</g>
<!-- node1&#45;&gt;node73 -->
<g id="edge1" class="edge">
<title>node1&#45;&gt;node73</title>
<path fill="none" stroke="black" d="M182.88,-48.89C201.51,-60.99 226.77,-77.39 247.25,-90.69"/>
<polygon fill="black" stroke="black" points="245.31,-93.6 255.61,-96.11 249.13,-87.73 245.31,-93.6"/>
<text text-anchor="middle" x="219.86" y="-83.1" font-family="Times,serif" font-size="14.00">1.99</text>
</g>
<!-- node166&#45;&gt;node73 -->
<g id="edge3" class="edge">
<title>node166&#45;&gt;node73</title>
<path fill="none" stroke="black" d="M187.93,-113.9C203.72,-113.9 223.12,-113.9 240.27,-113.9"/>
<polygon fill="black" stroke="black" points="240.2,-117.4 250.2,-113.9 240.2,-110.4 240.2,-117.4"/>
<text text-anchor="middle" x="219.86" y="-117.1" font-family="Times,serif" font-size="14.00">&#45;2.22</text>
</g>
</g>
</svg>
