<?xml version="1.0" encoding="UTF-8" standalone="no"?>
<!DOCTYPE svg PUBLIC "-//W3C//DTD SVG 1.1//EN"
 "http://www.w3.org/Graphics/SVG/1.1/DTD/svg11.dtd">
<!-- Generated by graphviz version 9.0.0 (20230911.1827)
 -->
<!-- Title: neat Pages: 1 -->
<svg width="372pt" height="124pt"
 viewBox="0.00 0.00 372.42 124.47" xmlns="http://www.w3.org/2000/svg" xmlns:xlink="http://www.w3.org/1999/xlink">
<g id="graph0" class="graph" transform="scale(1 1) rotate(0) translate(4 120.47)">
<title>neat</title>
<polygon fill="white" stroke="none" points="-4,4 -4,-120.47 368.42,-120.47 368.42,4 -4,4"/>
<!-- node0 -->
<g id="node1" class="node">
<title>node0</title>
<ellipse fill="lightblue" stroke="black" cx="18" cy="-24.74" rx="18" ry="18"/>
<text text-anchor="middle" x="18" y="-19.69" font-family="Times,serif" font-size="14.00">0</text>
</g>
<!-- node292 -->
<g id="node6" class="node">
<title>node292</title>
<ellipse fill="lightgray" stroke="black" cx="120.74" cy="-24.74" rx="24.74" ry="24.74"/>
<text text-anchor="middle" x="120.74" y="-19.69" font-family="Times,serif" font-size="14.00">292</text>
</g>
<!-- node0&#45;&gt;node292 -->
<g id="edge3" class="edge">
<title>node0&#45;&gt;node292</title>
<path fill="none" stroke="black" d="M36.09,-24.74C49.28,-24.74 67.98,-24.74 84.36,-24.74"/>
<polygon fill="black" stroke="black" points="84.24,-28.24 94.24,-24.74 84.24,-21.24 84.24,-28.24"/>
<text text-anchor="middle" x="66" y="-27.94" font-family="Times,serif" font-size="14.00">1.00</text>
</g>
<!-- node1 -->
<g id="node2" class="node">
<title>node1</title>
<ellipse fill="lightblue" stroke="black" cx="18" cy="-91.74" rx="18" ry="18"/>
<text text-anchor="middle" x="18" y="-86.69" font-family="Times,serif" font-size="14.00">1</text>
</g>
<!-- node136 -->
<g id="node3" class="node">
<title>node136</title>
<ellipse fill="lightgreen" stroke="black" cx="120.74" cy="-91.74" rx="24.74" ry="24.74"/>
<text text-anchor="middle" x="120.74" y="-86.69" font-family="Times,serif" font-size="14.00">136</text>
</g>
<!-- node1&#45;&gt;node136 -->
<g id="edge1" class="edge">
<title>node1&#45;&gt;node136</title>
<path fill="none" stroke="black" d="M36.09,-91.74C49.28,-91.74 67.98,-91.74 84.36,-91.74"/>
<polygon fill="black" stroke="black" points="84.24,-95.24 94.24,-91.74 84.24,-88.24 84.24,-95.24"/>
<text text-anchor="middle" x="66" y="-94.94" font-family="Times,serif" font-size="14.00">5.63</text>
</g>
<!-- node171 -->
<g id="node4" class="node">
<title>node171</title>
<ellipse fill="lightgray" stroke="black" cx="230.21" cy="-24.74" rx="24.74" ry="24.74"/>
<text text-anchor="middle" x="230.21" y="-19.69" font-family="Times,serif" font-size="14.00">171</text>
</g>
<!-- node268 -->
<g id="node5" class="node">
<title>node268</title>
<ellipse fill="lightgray" stroke="black" cx="339.69" cy="-24.74" rx="24.74" ry="24.74"/>
<text text-anchor="middle" x="339.69" y="-19.69" font-family="Times,serif" font-size="14.00">268</text>
</g>
<!-- node171&#45;&gt;node268 -->
<g id="edge2" class="edge">
<title>node171&#45;&gt;node268</title>
<path fill="none" stroke="black" d="M255.33,-24.74C269.44,-24.74 287.5,-24.74 303.2,-24.74"/>
<polygon fill="black" stroke="black" points="303.13,-28.24 313.13,-24.74 303.13,-21.24 303.13,-28.24"/>
<text text-anchor="middle" x="284.95" y="-27.94" font-family="Times,serif" font-size="14.00">1.00</text>
</g>
<!-- node292&#45;&gt;node171 -->
<g id="edge4" class="edge">
<title>node292&#45;&gt;node171</title>
<path fill="none" stroke="black" d="M145.86,-24.74C159.96,-24.74 178.03,-24.74 193.73,-24.74"/>
<polygon fill="black" stroke="black" points="193.66,-28.24 203.66,-24.74 193.66,-21.24 193.66,-28.24"/>
<text text-anchor="middle" x="175.47" y="-27.94" font-family="Times,serif" font-size="14.00">0.08</text>
</g>
</g>
</svg>
