<?xml version="1.0" encoding="UTF-8" standalone="no"?>
<!DOCTYPE svg PUBLIC "-//W3C//DTD SVG 1.1//EN"
 "http://www.w3.org/Graphics/SVG/1.1/DTD/svg11.dtd">
<!-- Generated by graphviz version 9.0.0 (20230911.1827)
 -->
<!-- Title: neat Pages: 1 -->
<svg width="263pt" height="112pt"
 viewBox="0.00 0.00 262.95 111.74" xmlns="http://www.w3.org/2000/svg" xmlns:xlink="http://www.w3.org/1999/xlink">
<g id="graph0" class="graph" transform="scale(1 1) rotate(0) translate(4 107.74)">
<title>neat</title>
<polygon fill="white" stroke="none" points="-4,4 -4,-107.74 258.95,-107.74 258.95,4 -4,4"/>
<!-- node0 -->
<g id="node1" class="node">
<title>node0</title>
<ellipse fill="lightblue" stroke="black" cx="120.74" cy="-85.74" rx="18" ry="18"/>
<text text-anchor="middle" x="120.74" y="-80.69" font-family="Times,serif" font-size="14.00">0</text>
</g>
<!-- node138 -->
<g id="node3" class="node">
<title>node138</title>
<ellipse fill="lightgreen" stroke="black" cx="230.21" cy="-55.74" rx="24.74" ry="24.74"/>
<text text-anchor="middle" x="230.21" y="-50.69" font-family="Times,serif" font-size="14.00">138</text>
</g>
<!-- node0&#45;&gt;node138 -->
<g id="edge1" class="edge">
<title>node0&#45;&gt;node138</title>
<path fill="none" stroke="black" d="M138.53,-81.05C153.66,-76.83 176.36,-70.49 195.27,-65.21"/>
<polygon fill="black" stroke="black" points="196.01,-68.64 204.7,-62.58 194.13,-61.9 196.01,-68.64"/>
<text text-anchor="middle" x="175.47" y="-75.94" font-family="Times,serif" font-size="14.00">0.95</text>
</g>
<!-- node1 -->
<g id="node2" class="node">
<title>node1</title>
<ellipse fill="lightblue" stroke="black" cx="18" cy="-24.74" rx="18" ry="18"/>
<text text-anchor="middle" x="18" y="-19.69" font-family="Times,serif" font-size="14.00">1</text>
</g>
<!-- node166 -->
<g id="node4" class="node">
<title>node166</title>
<ellipse fill="lightgray" stroke="black" cx="120.74" cy="-24.74" rx="24.74" ry="24.74"/>
<text text-anchor="middle" x="120.74" y="-19.69" font-family="Times,serif" font-size="14.00">166</text>
</g>
<!-- node1&#45;&gt;node166 -->
<g id="edge2" class="edge">
<title>node1&#45;&gt;node166</title>
<path fill="none" stroke="black" d="M36.09,-24.74C49.28,-24.74 67.98,-24.74 84.36,-24.74"/>
<polygon fill="black" stroke="black" points="84.24,-28.24 94.24,-24.74 84.24,-21.24 84.24,-28.24"/>
<text text-anchor="middle" x="66" y="-27.94" font-family="Times,serif" font-size="14.00">1.00</text>
</g>
<!-- node166&#45;&gt;node138 -->
<g id="edge3" class="edge">
<title>node166&#45;&gt;node138</title>
<path fill="none" stroke="black" d="M145.06,-31.46C159.7,-35.69 178.85,-41.21 195.17,-45.92"/>
<polygon fill="black" stroke="black" points="193.9,-49.2 204.48,-48.6 195.84,-42.47 193.9,-49.2"/>
<text text-anchor="middle" x="175.47" y="-46.94" font-family="Times,serif" font-size="14.00">3.92</text>
</g>
</g>
</svg>
