<?xml version="1.0" encoding="UTF-8" standalone="no"?>
<!DOCTYPE svg PUBLIC "-//W3C//DTD SVG 1.1//EN"
 "http://www.w3.org/Graphics/SVG/1.1/DTD/svg11.dtd">
<!-- Generated by graphviz version 9.0.0 (20230911.1827)
 -->
<!-- Title: neat Pages: 1 -->
<svg width="267pt" height="131pt"
 viewBox="0.00 0.00 267.45 130.74" xmlns="http://www.w3.org/2000/svg" xmlns:xlink="http://www.w3.org/1999/xlink">
<g id="graph0" class="graph" transform="scale(1 1) rotate(0) translate(4 126.74)">
<title>neat</title>
<polygon fill="white" stroke="none" points="-4,4 -4,-126.74 263.45,-126.74 263.45,4 -4,4"/>
<!-- node0 -->
<g id="node1" class="node">
<title>node0</title>
<ellipse fill="lightblue" stroke="black" cx="18" cy="-104.74" rx="18" ry="18"/>
<text text-anchor="middle" x="18" y="-99.69" font-family="Times,serif" font-size="14.00">0</text>
</g>
<!-- node210 -->
<g id="node4" class="node">
<title>node210</title>
<ellipse fill="lightgray" stroke="black" cx="120.74" cy="-91.74" rx="24.74" ry="24.74"/>
<text text-anchor="middle" x="120.74" y="-86.69" font-family="Times,serif" font-size="14.00">210</text>
</g>
<!-- node0&#45;&gt;node210 -->
<g id="edge1" class="edge">
<title>node0&#45;&gt;node210</title>
<path fill="none" stroke="black" d="M36.09,-102.53C49.28,-100.83 67.98,-98.42 84.36,-96.3"/>
<polygon fill="black" stroke="black" points="84.79,-99.78 94.26,-95.03 83.89,-92.83 84.79,-99.78"/>
<text text-anchor="middle" x="66" y="-102.94" font-family="Times,serif" font-size="14.00">1.82</text>
</g>
<!-- node1 -->
<g id="node2" class="node">
<title>node1</title>
<ellipse fill="lightblue" stroke="black" cx="18" cy="-37.74" rx="18" ry="18"/>
<text text-anchor="middle" x="18" y="-32.69" font-family="Times,serif" font-size="14.00">1</text>
</g>
<!-- node1&#45;&gt;node210 -->
<g id="edge5" class="edge">
<title>node1&#45;&gt;node210</title>
<path fill="none" stroke="black" d="M34.3,-45.94C48.56,-53.58 70.27,-65.22 88.24,-74.85"/>
<polygon fill="black" stroke="black" points="86.5,-77.89 96.97,-79.53 89.81,-71.72 86.5,-77.89"/>
<text text-anchor="middle" x="66" y="-70.94" font-family="Times,serif" font-size="14.00">1.99</text>
</g>
<!-- node232 -->
<g id="node5" class="node">
<title>node232</title>
<ellipse fill="lightgray" stroke="black" cx="120.74" cy="-24.74" rx="24.74" ry="24.74"/>
<text text-anchor="middle" x="120.74" y="-19.69" font-family="Times,serif" font-size="14.00">232</text>
</g>
<!-- node1&#45;&gt;node232 -->
<g id="edge3" class="edge">
<title>node1&#45;&gt;node232</title>
<path fill="none" stroke="black" d="M35.13,-31.34C40.98,-29.31 47.7,-27.32 54,-26.24 63.68,-24.57 74.28,-23.86 84.08,-23.64"/>
<polygon fill="black" stroke="black" points="84.03,-27.14 94.02,-23.6 84,-20.14 84.03,-27.14"/>
<text text-anchor="middle" x="66" y="-28.94" font-family="Times,serif" font-size="14.00">1.00</text>
</g>
<!-- node117 -->
<g id="node3" class="node">
<title>node117</title>
<ellipse fill="lightgreen" stroke="black" cx="234.71" cy="-57.74" rx="24.74" ry="24.74"/>
<text text-anchor="middle" x="234.71" y="-52.69" font-family="Times,serif" font-size="14.00">117</text>
</g>
<!-- node210&#45;&gt;node117 -->
<g id="edge2" class="edge">
<title>node210&#45;&gt;node117</title>
<path fill="none" stroke="black" d="M144.94,-84.69C160.78,-79.88 182.02,-73.43 199.76,-68.05"/>
<polygon fill="black" stroke="black" points="200.54,-71.47 209.09,-65.21 198.51,-64.77 200.54,-71.47"/>
<text text-anchor="middle" x="177.72" y="-81.94" font-family="Times,serif" font-size="14.00">1.00</text>
</g>
<!-- node232&#45;&gt;node117 -->
<g id="edge4" class="edge">
<title>node232&#45;&gt;node117</title>
<path fill="none" stroke="black" d="M144.94,-31.58C160.7,-36.22 181.82,-42.44 199.51,-47.66"/>
<polygon fill="black" stroke="black" points="198.51,-51.01 209.09,-50.48 200.49,-44.3 198.51,-51.01"/>
<text text-anchor="middle" x="177.72" y="-47.94" font-family="Times,serif" font-size="14.00">&#45;0.50</text>
</g>
</g>
</svg>
