<?xml version="1.0" encoding="UTF-8" standalone="no"?>
<!DOCTYPE svg PUBLIC "-//W3C//DTD SVG 1.1//EN"
 "http://www.w3.org/Graphics/SVG/1.1/DTD/svg11.dtd">
<!-- Generated by graphviz version 9.0.0 (20230911.1827)
 -->
<!-- Title: neat Pages: 1 -->
<svg width="272pt" height="191pt"
 viewBox="0.00 0.00 271.95 191.47" xmlns="http://www.w3.org/2000/svg" xmlns:xlink="http://www.w3.org/1999/xlink">
<g id="graph0" class="graph" transform="scale(1 1) rotate(0) translate(4 187.47)">
<title>neat</title>
<polygon fill="white" stroke="none" points="-4,4 -4,-187.47 267.95,-187.47 267.95,4 -4,4"/>
<!-- node0 -->
<g id="node1" class="node">
<title>node0</title>
<ellipse fill="lightblue" stroke="black" cx="18" cy="-164.74" rx="18" ry="18"/>
<text text-anchor="middle" x="18" y="-159.69" font-family="Times,serif" font-size="14.00">0</text>
</g>
<!-- node159 -->
<g id="node4" class="node">
<title>node159</title>
<ellipse fill="lightgray" stroke="black" cx="125.24" cy="-91.74" rx="24.74" ry="24.74"/>
<text text-anchor="middle" x="125.24" y="-86.69" font-family="Times,serif" font-size="14.00">159</text>
</g>
<!-- node0&#45;&gt;node159 -->
<g id="edge7" class="edge">
<title>node0&#45;&gt;node159</title>
<path fill="none" stroke="black" d="M33.78,-155.29C46.75,-146.92 66.05,-134.27 82.5,-122.74 86.89,-119.66 91.49,-116.34 95.96,-113.06"/>
<polygon fill="black" stroke="black" points="97.69,-116.13 103.65,-107.37 93.53,-110.51 97.69,-116.13"/>
<text text-anchor="middle" x="68.25" y="-143.94" font-family="Times,serif" font-size="14.00">0.70</text>
</g>
<!-- node297 -->
<g id="node6" class="node">
<title>node297</title>
<ellipse fill="lightgray" stroke="black" cx="125.24" cy="-158.74" rx="24.74" ry="24.74"/>
<text text-anchor="middle" x="125.24" y="-153.69" font-family="Times,serif" font-size="14.00">297</text>
</g>
<!-- node0&#45;&gt;node297 -->
<g id="edge5" class="edge">
<title>node0&#45;&gt;node297</title>
<path fill="none" stroke="black" d="M36.26,-164.49C49.04,-164.24 66.87,-163.73 82.5,-162.74 84.68,-162.6 86.92,-162.44 89.18,-162.26"/>
<polygon fill="black" stroke="black" points="89.25,-165.77 98.91,-161.42 88.65,-158.79 89.25,-165.77"/>
<text text-anchor="middle" x="68.25" y="-166.94" font-family="Times,serif" font-size="14.00">1.00</text>
</g>
<!-- node1 -->
<g id="node2" class="node">
<title>node1</title>
<ellipse fill="lightblue" stroke="black" cx="18" cy="-64.74" rx="18" ry="18"/>
<text text-anchor="middle" x="18" y="-59.69" font-family="Times,serif" font-size="14.00">1</text>
</g>
<!-- node1&#45;&gt;node159 -->
<g id="edge1" class="edge">
<title>node1&#45;&gt;node159</title>
<path fill="none" stroke="black" d="M36.35,-62.76C49.33,-61.84 67.37,-61.79 82.5,-66.24 86.78,-67.5 91.05,-69.31 95.15,-71.4"/>
<polygon fill="black" stroke="black" points="93.15,-74.28 103.56,-76.25 96.64,-68.22 93.15,-74.28"/>
<text text-anchor="middle" x="68.25" y="-68.94" font-family="Times,serif" font-size="14.00">1.76</text>
</g>
<!-- node275 -->
<g id="node5" class="node">
<title>node275</title>
<ellipse fill="lightgray" stroke="black" cx="125.24" cy="-24.74" rx="24.74" ry="24.74"/>
<text text-anchor="middle" x="125.24" y="-19.69" font-family="Times,serif" font-size="14.00">275</text>
</g>
<!-- node1&#45;&gt;node275 -->
<g id="edge3" class="edge">
<title>node1&#45;&gt;node275</title>
<path fill="none" stroke="black" d="M32.63,-53.9C38.85,-49.42 46.49,-44.51 54,-41.24 65.11,-36.4 77.85,-32.86 89.41,-30.33"/>
<polygon fill="black" stroke="black" points="89.86,-33.81 98.98,-28.42 88.49,-26.94 89.86,-33.81"/>
<text text-anchor="middle" x="68.25" y="-43.94" font-family="Times,serif" font-size="14.00">&#45;0.40</text>
</g>
<!-- node1&#45;&gt;node297 -->
<g id="edge8" class="edge">
<title>node1&#45;&gt;node297</title>
<path fill="none" stroke="black" d="M34.39,-72.9C50.55,-81.63 74.66,-95.16 82.5,-102.24 83.89,-103.49 93.53,-116.52 103.2,-129.75"/>
<polygon fill="black" stroke="black" points="100.19,-131.56 108.9,-137.57 105.84,-127.43 100.19,-131.56"/>
<text text-anchor="middle" x="68.25" y="-104.94" font-family="Times,serif" font-size="14.00">1.83</text>
</g>
<!-- node141 -->
<g id="node3" class="node">
<title>node141</title>
<ellipse fill="lightgreen" stroke="black" cx="239.21" cy="-91.74" rx="24.74" ry="24.74"/>
<text text-anchor="middle" x="239.21" y="-86.69" font-family="Times,serif" font-size="14.00">141</text>
</g>
<!-- node159&#45;&gt;node141 -->
<g id="edge2" class="edge">
<title>node159&#45;&gt;node141</title>
<path fill="none" stroke="black" d="M150.26,-91.74C165.61,-91.74 185.78,-91.74 202.93,-91.74"/>
<polygon fill="black" stroke="black" points="202.72,-95.24 212.72,-91.74 202.72,-88.24 202.72,-95.24"/>
<text text-anchor="middle" x="182.22" y="-94.94" font-family="Times,serif" font-size="14.00">&#45;0.42</text>
</g>
<!-- node275&#45;&gt;node141 -->
<g id="edge4" class="edge">
<title>node275&#45;&gt;node141</title>
<path fill="none" stroke="black" d="M147.04,-37.18C164.08,-47.38 188.45,-61.96 207.71,-73.49"/>
<polygon fill="black" stroke="black" points="205.85,-76.45 216.23,-78.58 209.44,-70.44 205.85,-76.45"/>
<text text-anchor="middle" x="182.22" y="-68.94" font-family="Times,serif" font-size="14.00">&#45;1.35</text>
</g>
<!-- node297&#45;&gt;node141 -->
<g id="edge6" class="edge">
<title>node297&#45;&gt;node141</title>
<path fill="none" stroke="black" d="M147.04,-146.29C164.08,-136.09 188.45,-121.51 207.71,-109.99"/>
<polygon fill="black" stroke="black" points="209.44,-113.03 216.23,-104.89 205.85,-107.02 209.44,-113.03"/>
<text text-anchor="middle" x="182.22" y="-135.94" font-family="Times,serif" font-size="14.00">2.74</text>
</g>
</g>
</svg>
