<?xml version="1.0" encoding="UTF-8" standalone="no"?>
<!DOCTYPE svg PUBLIC "-//W3C//DTD SVG 1.1//EN"
 "http://www.w3.org/Graphics/SVG/1.1/DTD/svg11.dtd">
<!-- Generated by graphviz version 9.0.0 (20230911.1827)
 -->
<!-- Title: neat Pages: 1 -->
<svg width="377pt" height="112pt"
 viewBox="0.00 0.00 376.92 111.74" xmlns="http://www.w3.org/2000/svg" xmlns:xlink="http://www.w3.org/1999/xlink">
<g id="graph0" class="graph" transform="scale(1 1) rotate(0) translate(4 107.74)">
<title>neat</title>
<polygon fill="white" stroke="none" points="-4,4 -4,-107.74 372.92,-107.74 372.92,4 -4,4"/>
<!-- node0 -->
<g id="node1" class="node">
<title>node0</title>
<ellipse fill="lightblue" stroke="black" cx="18" cy="-79" rx="18" ry="18"/>
<text text-anchor="middle" x="18" y="-73.95" font-family="Times,serif" font-size="14.00">0</text>
</g>
<!-- node171 -->
<g id="node4" class="node">
<title>node171</title>
<ellipse fill="lightgray" stroke="black" cx="125.24" cy="-79" rx="24.74" ry="24.74"/>
<text text-anchor="middle" x="125.24" y="-73.95" font-family="Times,serif" font-size="14.00">171</text>
</g>
<!-- node0&#45;&gt;node171 -->
<g id="edge2" class="edge">
<title>node0&#45;&gt;node171</title>
<path fill="none" stroke="black" d="M36.38,-79C50.58,-79 71.12,-79 88.77,-79"/>
<polygon fill="black" stroke="black" points="88.63,-82.5 98.63,-79 88.63,-75.5 88.63,-82.5"/>
<text text-anchor="middle" x="68.25" y="-82.2" font-family="Times,serif" font-size="14.00">&#45;0.88</text>
</g>
<!-- node1 -->
<g id="node2" class="node">
<title>node1</title>
<ellipse fill="lightblue" stroke="black" cx="234.71" cy="-18" rx="18" ry="18"/>
<text text-anchor="middle" x="234.71" y="-12.95" font-family="Times,serif" font-size="14.00">1</text>
</g>
<!-- node136 -->
<g id="node3" class="node">
<title>node136</title>
<ellipse fill="lightgreen" stroke="black" cx="344.19" cy="-38" rx="24.74" ry="24.74"/>
<text text-anchor="middle" x="344.19" y="-32.95" font-family="Times,serif" font-size="14.00">136</text>
</g>
<!-- node1&#45;&gt;node136 -->
<g id="edge1" class="edge">
<title>node1&#45;&gt;node136</title>
<path fill="none" stroke="black" d="M252.76,-20.85C266.05,-23.1 284.94,-26.38 301.45,-29.5 303.78,-29.94 306.18,-30.4 308.59,-30.88"/>
<polygon fill="black" stroke="black" points="307.83,-34.3 318.33,-32.82 309.21,-27.43 307.83,-34.3"/>
<text text-anchor="middle" x="289.45" y="-33.2" font-family="Times,serif" font-size="14.00">3.30</text>
</g>
<!-- node268 -->
<g id="node5" class="node">
<title>node268</title>
<ellipse fill="lightgray" stroke="black" cx="234.71" cy="-79" rx="24.74" ry="24.74"/>
<text text-anchor="middle" x="234.71" y="-73.95" font-family="Times,serif" font-size="14.00">268</text>
</g>
<!-- node171&#45;&gt;node268 -->
<g id="edge3" class="edge">
<title>node171&#45;&gt;node268</title>
<path fill="none" stroke="black" d="M150.36,-79C164.46,-79 182.53,-79 198.23,-79"/>
<polygon fill="black" stroke="black" points="198.16,-82.5 208.16,-79 198.16,-75.5 198.16,-82.5"/>
<text text-anchor="middle" x="179.97" y="-82.2" font-family="Times,serif" font-size="14.00">1.00</text>
</g>
<!-- node268&#45;&gt;node136 -->
<g id="edge4" class="edge">
<title>node268&#45;&gt;node136</title>
<path fill="none" stroke="black" d="M258.24,-70.41C273.29,-64.66 293.33,-57.02 310.17,-50.6"/>
<polygon fill="black" stroke="black" points="311.18,-53.96 319.27,-47.12 308.68,-47.42 311.18,-53.96"/>
<text text-anchor="middle" x="289.45" y="-65.2" font-family="Times,serif" font-size="14.00">3.16</text>
</g>
</g>
</svg>
