<?xml version="1.0" encoding="UTF-8" standalone="no"?>
<!DOCTYPE svg PUBLIC "-//W3C//DTD SVG 1.1//EN"
 "http://www.w3.org/Graphics/SVG/1.1/DTD/svg11.dtd">
<!-- Generated by graphviz version 9.0.0 (20230911.1827)
 -->
<!-- Title: neat Pages: 1 -->
<svg width="171pt" height="198pt"
 viewBox="0.00 0.00 171.45 198.47" xmlns="http://www.w3.org/2000/svg" xmlns:xlink="http://www.w3.org/1999/xlink">
<g id="graph0" class="graph" transform="scale(1 1) rotate(0) translate(4 194.47)">
<title>neat</title>
<polygon fill="white" stroke="none" points="-4,4 -4,-194.47 167.45,-194.47 167.45,4 -4,4"/>
<!-- node0 -->
<g id="node1" class="node">
<title>node0</title>
<ellipse fill="lightblue" stroke="black" cx="24.74" cy="-104.74" rx="18" ry="18"/>
<text text-anchor="middle" x="24.74" y="-99.69" font-family="Times,serif" font-size="14.00">0</text>
</g>
<!-- node200 -->
<g id="node5" class="node">
<title>node200</title>
<ellipse fill="lightgray" stroke="black" cx="138.71" cy="-97.74" rx="24.74" ry="24.74"/>
<text text-anchor="middle" x="138.71" y="-92.69" font-family="Times,serif" font-size="14.00">200</text>
</g>
<!-- node0&#45;&gt;node200 -->
<g id="edge2" class="edge">
<title>node0&#45;&gt;node200</title>
<path fill="none" stroke="black" d="M42.74,-103.67C58.52,-102.69 82.51,-101.19 102.42,-99.94"/>
<polygon fill="black" stroke="black" points="102.61,-103.44 112.38,-99.32 102.18,-96.45 102.61,-103.44"/>
<text text-anchor="middle" x="81.72" y="-104.94" font-family="Times,serif" font-size="14.00">1.00</text>
</g>
<!-- node1 -->
<g id="node2" class="node">
<title>node1</title>
<ellipse fill="lightblue" stroke="black" cx="24.74" cy="-37.74" rx="18" ry="18"/>
<text text-anchor="middle" x="24.74" y="-32.69" font-family="Times,serif" font-size="14.00">1</text>
</g>
<!-- node110 -->
<g id="node3" class="node">
<title>node110</title>
<ellipse fill="lightgreen" stroke="black" cx="138.71" cy="-24.74" rx="24.74" ry="24.74"/>
<text text-anchor="middle" x="138.71" y="-19.69" font-family="Times,serif" font-size="14.00">110</text>
</g>
<!-- node1&#45;&gt;node110 -->
<g id="edge1" class="edge">
<title>node1&#45;&gt;node110</title>
<path fill="none" stroke="black" d="M42.19,-32.19C49.79,-29.89 59,-27.48 67.47,-26.24 78.64,-24.61 90.91,-23.96 102.03,-23.79"/>
<polygon fill="black" stroke="black" points="102.02,-27.3 112.02,-23.79 102.02,-20.3 102.02,-27.3"/>
<text text-anchor="middle" x="81.72" y="-29.94" font-family="Times,serif" font-size="14.00">&#45;3.10</text>
</g>
<!-- node1&#45;&gt;node200 -->
<g id="edge3" class="edge">
<title>node1&#45;&gt;node200</title>
<path fill="none" stroke="black" d="M40.84,-45.83C57.56,-54.79 84.99,-69.49 106.4,-80.96"/>
<polygon fill="black" stroke="black" points="104.55,-83.94 115.02,-85.58 107.86,-77.77 104.55,-83.94"/>
<text text-anchor="middle" x="81.72" y="-77.94" font-family="Times,serif" font-size="14.00">1.18</text>
</g>
<!-- node168 -->
<g id="node4" class="node">
<title>node168</title>
<ellipse fill="lightgray" stroke="black" cx="24.74" cy="-165.74" rx="24.74" ry="24.74"/>
<text text-anchor="middle" x="24.74" y="-160.69" font-family="Times,serif" font-size="14.00">168</text>
</g>
</g>
</svg>
