<?xml version="1.0" encoding="UTF-8" standalone="no"?>
<!DOCTYPE svg PUBLIC "-//W3C//DTD SVG 1.1//EN"
 "http://www.w3.org/Graphics/SVG/1.1/DTD/svg11.dtd">
<!-- Generated by graphviz version 9.0.0 (20230911.1827)
 -->
<!-- Title: neat Pages: 1 -->
<svg width="328pt" height="154pt"
 viewBox="0.00 0.00 328.42 153.81" xmlns="http://www.w3.org/2000/svg" xmlns:xlink="http://www.w3.org/1999/xlink">
<g id="graph0" class="graph" transform="scale(1 1) rotate(0) translate(4 149.81)">
<title>neat</title>
<polygon fill="white" stroke="none" points="-4,4 -4,-149.81 324.42,-149.81 324.42,4 -4,4"/>
<!-- node0 -->
<g id="node1" class="node">
<title>node0</title>
<ellipse fill="lightblue" stroke="black" cx="160.21" cy="-113.9" rx="31.9" ry="31.9"/>
<text text-anchor="middle" x="160.21" y="-108.85" font-family="Times,serif" font-size="14.00">0.000</text>
</g>
<!-- node129 -->
<g id="node3" class="node">
<title>node129</title>
<ellipse fill="lightgreen" stroke="black" cx="288.51" cy="-72.9" rx="31.9" ry="31.9"/>
<text text-anchor="middle" x="288.51" y="-67.85" font-family="Times,serif" font-size="14.00">0.463</text>
</g>
<!-- node0&#45;&gt;node129 -->
<g id="edge1" class="edge">
<title>node0&#45;&gt;node129</title>
<path fill="none" stroke="black" d="M190.82,-104.29C207.49,-98.88 228.54,-92.05 246.75,-86.14"/>
<polygon fill="black" stroke="black" points="247.78,-89.48 256.21,-83.06 245.62,-82.82 247.78,-89.48"/>
<text text-anchor="middle" x="224.36" y="-100.1" font-family="Times,serif" font-size="14.00">&#45;1.36</text>
</g>
<!-- node1 -->
<g id="node2" class="node">
<title>node1</title>
<ellipse fill="lightblue" stroke="black" cx="31.9" cy="-31.9" rx="31.9" ry="31.9"/>
<text text-anchor="middle" x="31.9" y="-26.85" font-family="Times,serif" font-size="14.00">1.000</text>
</g>
<!-- node171 -->
<g id="node4" class="node">
<title>node171</title>
<ellipse fill="lightgray" stroke="black" cx="160.21" cy="-31.9" rx="31.9" ry="31.9"/>
<text text-anchor="middle" x="160.21" y="-26.85" font-family="Times,serif" font-size="14.00">0.006</text>
</g>
<!-- node1&#45;&gt;node171 -->
<g id="edge2" class="edge">
<title>node1&#45;&gt;node171</title>
<path fill="none" stroke="black" d="M64.12,-31.9C79.91,-31.9 99.31,-31.9 116.47,-31.9"/>
<polygon fill="black" stroke="black" points="116.39,-35.4 126.39,-31.9 116.39,-28.4 116.39,-35.4"/>
<text text-anchor="middle" x="96.06" y="-35.1" font-family="Times,serif" font-size="14.00">&#45;1.06</text>
</g>
<!-- node171&#45;&gt;node129 -->
<g id="edge3" class="edge">
<title>node171&#45;&gt;node129</title>
<path fill="none" stroke="black" d="M190.82,-41.52C207.49,-46.93 228.54,-53.76 246.75,-59.67"/>
<polygon fill="black" stroke="black" points="245.62,-62.98 256.21,-62.74 247.78,-56.32 245.62,-62.98"/>
<text text-anchor="middle" x="224.36" y="-60.1" font-family="Times,serif" font-size="14.00">&#45;5.47</text>
</g>
</g>
</svg>
