<?xml version="1.0" encoding="UTF-8" standalone="no"?>
<!DOCTYPE svg PUBLIC "-//W3C//DTD SVG 1.1//EN"
 "http://www.w3.org/Graphics/SVG/1.1/DTD/svg11.dtd">
<!-- Generated by graphviz version 9.0.0 (20230911.1827)
 -->
<!-- Title: neat Pages: 1 -->
<svg width="158pt" height="126pt"
 viewBox="0.00 0.00 157.97 126.13" xmlns="http://www.w3.org/2000/svg" xmlns:xlink="http://www.w3.org/1999/xlink">
<g id="graph0" class="graph" transform="scale(1 1) rotate(0) translate(4 122.13)">
<title>neat</title>
<polygon fill="white" stroke="none" points="-4,4 -4,-122.13 153.97,-122.13 153.97,4 -4,4"/>
<!-- node0 -->
<g id="node1" class="node">
<title>node0</title>
<ellipse fill="lightblue" stroke="black" cx="18" cy="-100.13" rx="18" ry="18"/>
<text text-anchor="middle" x="18" y="-95.08" font-family="Times,serif" font-size="14.00">0</text>
</g>
<!-- node182 -->
<g id="node4" class="node">
<title>node182</title>
<ellipse fill="lightgray" stroke="black" cx="125.24" cy="-91.13" rx="24.74" ry="24.74"/>
<text text-anchor="middle" x="125.24" y="-86.08" font-family="Times,serif" font-size="14.00">182</text>
</g>
<!-- node0&#45;&gt;node182 -->
<g id="edge2" class="edge">
<title>node0&#45;&gt;node182</title>
<path fill="none" stroke="black" d="M36.38,-98.64C50.58,-97.43 71.12,-95.67 88.77,-94.16"/>
<polygon fill="black" stroke="black" points="88.97,-97.66 98.63,-93.32 88.37,-90.69 88.97,-97.66"/>
<text text-anchor="middle" x="68.25" y="-99.33" font-family="Times,serif" font-size="14.00">&#45;1.01</text>
</g>
<!-- node1 -->
<g id="node2" class="node">
<title>node1</title>
<ellipse fill="lightblue" stroke="black" cx="18" cy="-33.13" rx="18" ry="18"/>
<text text-anchor="middle" x="18" y="-28.08" font-family="Times,serif" font-size="14.00">1</text>
</g>
<!-- node71 -->
<g id="node3" class="node">
<title>node71</title>
<ellipse fill="lightgreen" stroke="black" cx="125.24" cy="-20.13" rx="20.13" ry="20.13"/>
<text text-anchor="middle" x="125.24" y="-15.08" font-family="Times,serif" font-size="14.00">71</text>
</g>
<!-- node1&#45;&gt;node71 -->
<g id="edge1" class="edge">
<title>node1&#45;&gt;node71</title>
<path fill="none" stroke="black" d="M35.13,-26.73C40.98,-24.7 47.7,-22.71 54,-21.63 66.85,-19.43 81.2,-18.81 93.58,-18.83"/>
<polygon fill="black" stroke="black" points="93.14,-22.32 103.2,-18.99 93.26,-15.32 93.14,-22.32"/>
<text text-anchor="middle" x="68.25" y="-25.33" font-family="Times,serif" font-size="14.00">1.66</text>
</g>
<!-- node1&#45;&gt;node182 -->
<g id="edge3" class="edge">
<title>node1&#45;&gt;node182</title>
<path fill="none" stroke="black" d="M34.08,-41.44C49.4,-49.88 73.58,-63.21 93.04,-73.94"/>
<polygon fill="black" stroke="black" points="91.23,-76.93 101.67,-78.7 94.6,-70.8 91.23,-76.93"/>
<text text-anchor="middle" x="68.25" y="-70.33" font-family="Times,serif" font-size="14.00">&#45;1.72</text>
</g>
</g>
</svg>
