<?xml version="1.0" encoding="UTF-8" standalone="no"?>
<!DOCTYPE svg PUBLIC "-//W3C//DTD SVG 1.1//EN"
 "http://www.w3.org/Graphics/SVG/1.1/DTD/svg11.dtd">
<!-- Generated by graphviz version 9.0.0 (20230911.1827)
 -->
<!-- Title: neat Pages: 1 -->
<svg width="576pt" height="166pt"
 viewBox="0.00 0.00 576.03 165.81" xmlns="http://www.w3.org/2000/svg" xmlns:xlink="http://www.w3.org/1999/xlink">
<g id="graph0" class="graph" transform="scale(1 1) rotate(0) translate(4 161.81)">
<title>neat</title>
<polygon fill="white" stroke="none" points="-4,4 -4,-161.81 572.03,-161.81 572.03,4 -4,4"/>
<!-- node0 -->
<g id="node1" class="node">
<title>node0</title>
<ellipse fill="lightblue" stroke="black" cx="31.9" cy="-125.9" rx="31.9" ry="31.9"/>
<text text-anchor="middle" x="31.9" y="-120.85" font-family="Times,serif" font-size="14.00">0.000</text>
</g>
<!-- node194 -->
<g id="node5" class="node">
<title>node194</title>
<ellipse fill="lightgray" stroke="black" cx="284.01" cy="-85.9" rx="31.9" ry="31.9"/>
<text text-anchor="middle" x="284.01" y="-80.85" font-family="Times,serif" font-size="14.00">0.500</text>
</g>
<!-- node0&#45;&gt;node194 -->
<g id="edge3" class="edge">
<title>node0&#45;&gt;node194</title>
<path fill="none" stroke="black" d="M64.2,-127.37C70.05,-127.59 76.11,-127.79 81.81,-127.9 128.92,-128.87 141.6,-131.09 187.61,-120.9 209.09,-116.15 213.45,-111.48 234.11,-103.9 236.96,-102.86 239.9,-101.78 242.86,-100.69"/>
<polygon fill="black" stroke="black" points="243.94,-104.02 252.12,-97.29 241.52,-97.45 243.94,-104.02"/>
<text text-anchor="middle" x="155.71" y="-131.1" font-family="Times,serif" font-size="14.00">&#45;1.34</text>
</g>
<!-- node244 -->
<g id="node6" class="node">
<title>node244</title>
<ellipse fill="lightgray" stroke="black" cx="155.71" cy="-79.9" rx="31.9" ry="31.9"/>
<text text-anchor="middle" x="155.71" y="-74.85" font-family="Times,serif" font-size="14.00">0.993</text>
</g>
<!-- node0&#45;&gt;node244 -->
<g id="edge7" class="edge">
<title>node0&#45;&gt;node244</title>
<path fill="none" stroke="black" d="M62.08,-114.88C77.93,-108.9 97.76,-101.41 115.01,-94.9"/>
<polygon fill="black" stroke="black" points="115.81,-98.33 123.93,-91.53 113.34,-91.78 115.81,-98.33"/>
<text text-anchor="middle" x="93.81" y="-110.1" font-family="Times,serif" font-size="14.00">1.57</text>
</g>
<!-- node1 -->
<g id="node2" class="node">
<title>node1</title>
<ellipse fill="lightblue" stroke="black" cx="31.9" cy="-31.9" rx="31.9" ry="31.9"/>
<text text-anchor="middle" x="31.9" y="-26.85" font-family="Times,serif" font-size="14.00">1.000</text>
</g>
<!-- node61 -->
<g id="node3" class="node">
<title>node61</title>
<ellipse fill="lightgreen" stroke="black" cx="536.12" cy="-35.9" rx="31.9" ry="31.9"/>
<text text-anchor="middle" x="536.12" y="-30.85" font-family="Times,serif" font-size="14.00">0.003</text>
</g>
<!-- node1&#45;&gt;node61 -->
<g id="edge1" class="edge">
<title>node1&#45;&gt;node61</title>
<path fill="none" stroke="black" d="M63.86,-27.16C88.43,-23.81 123.68,-19.9 154.71,-19.9 154.71,-19.9 154.71,-19.9 413.32,-19.9 440.05,-19.9 469.8,-23.74 493.21,-27.65"/>
<polygon fill="black" stroke="black" points="492.54,-31.09 502.99,-29.36 493.75,-24.19 492.54,-31.09"/>
<text text-anchor="middle" x="284.01" y="-23.1" font-family="Times,serif" font-size="14.00">&#45;4.11</text>
</g>
<!-- node1&#45;&gt;node244 -->
<g id="edge5" class="edge">
<title>node1&#45;&gt;node244</title>
<path fill="none" stroke="black" d="M62.08,-43.4C78.05,-49.69 98.06,-57.58 115.39,-64.41"/>
<polygon fill="black" stroke="black" points="113.78,-67.53 124.36,-67.94 116.34,-61.02 113.78,-67.53"/>
<text text-anchor="middle" x="93.81" y="-63.1" font-family="Times,serif" font-size="14.00">1.00</text>
</g>
<!-- node179 -->
<g id="node4" class="node">
<title>node179</title>
<ellipse fill="lightgray" stroke="black" cx="412.32" cy="-82.9" rx="31.9" ry="31.9"/>
<text text-anchor="middle" x="412.32" y="-77.85" font-family="Times,serif" font-size="14.00">0.500</text>
</g>
<!-- node179&#45;&gt;node61 -->
<g id="edge2" class="edge">
<title>node179&#45;&gt;node61</title>
<path fill="none" stroke="black" d="M442.49,-71.65C458.46,-65.48 478.47,-57.76 495.8,-51.08"/>
<polygon fill="black" stroke="black" points="496.71,-54.48 504.77,-47.61 494.19,-47.95 496.71,-54.48"/>
<text text-anchor="middle" x="474.22" y="-66.1" font-family="Times,serif" font-size="14.00">5.79</text>
</g>
<!-- node194&#45;&gt;node179 -->
<g id="edge4" class="edge">
<title>node194&#45;&gt;node179</title>
<path fill="none" stroke="black" d="M316.24,-85.16C332.02,-84.79 351.43,-84.33 368.58,-83.92"/>
<polygon fill="black" stroke="black" points="368.59,-87.42 378.51,-83.68 368.43,-80.42 368.59,-87.42"/>
<text text-anchor="middle" x="348.17" y="-87.1" font-family="Times,serif" font-size="14.00">&#45;0.10</text>
</g>
<!-- node244&#45;&gt;node194 -->
<g id="edge6" class="edge">
<title>node244&#45;&gt;node194</title>
<path fill="none" stroke="black" d="M187.93,-81.39C203.72,-82.14 223.12,-83.06 240.27,-83.87"/>
<polygon fill="black" stroke="black" points="240.05,-87.37 250.2,-84.34 240.38,-80.37 240.05,-87.37"/>
<text text-anchor="middle" x="219.86" y="-86.1" font-family="Times,serif" font-size="14.00">&#45;1.08</text>
</g>
</g>
</svg>
