<?xml version="1.0" encoding="UTF-8" standalone="no"?>
<!DOCTYPE svg PUBLIC "-//W3C//DTD SVG 1.1//EN"
 "http://www.w3.org/Graphics/SVG/1.1/DTD/svg11.dtd">
<!-- Generated by graphviz version 9.0.0 (20230911.1827)
 -->
<!-- Title: neat Pages: 1 -->
<svg width="254pt" height="105pt"
 viewBox="0.00 0.00 253.74 104.74" xmlns="http://www.w3.org/2000/svg" xmlns:xlink="http://www.w3.org/1999/xlink">
<g id="graph0" class="graph" transform="scale(1 1) rotate(0) translate(4 100.74)">
<title>neat</title>
<polygon fill="white" stroke="none" points="-4,4 -4,-100.74 249.74,-100.74 249.74,4 -4,4"/>
<!-- node0 -->
<g id="node1" class="node">
<title>node0</title>
<ellipse fill="lightblue" stroke="black" cx="18" cy="-24.74" rx="18" ry="18"/>
<text text-anchor="middle" x="18" y="-19.69" font-family="Times,serif" font-size="14.00">0</text>
</g>
<!-- node152 -->
<g id="node4" class="node">
<title>node152</title>
<ellipse fill="lightgray" stroke="black" cx="120.74" cy="-24.74" rx="24.74" ry="24.74"/>
<text text-anchor="middle" x="120.74" y="-19.69" font-family="Times,serif" font-size="14.00">152</text>
</g>
<!-- node0&#45;&gt;node152 -->
<g id="edge1" class="edge">
<title>node0&#45;&gt;node152</title>
<path fill="none" stroke="black" d="M36.09,-24.74C49.28,-24.74 67.98,-24.74 84.36,-24.74"/>
<polygon fill="black" stroke="black" points="84.24,-28.24 94.24,-24.74 84.24,-21.24 84.24,-28.24"/>
<text text-anchor="middle" x="66" y="-27.94" font-family="Times,serif" font-size="14.00">1.94</text>
</g>
<!-- node1 -->
<g id="node2" class="node">
<title>node1</title>
<ellipse fill="lightblue" stroke="black" cx="18" cy="-78.74" rx="18" ry="18"/>
<text text-anchor="middle" x="18" y="-73.69" font-family="Times,serif" font-size="14.00">1</text>
</g>
<!-- node81 -->
<g id="node3" class="node">
<title>node81</title>
<ellipse fill="lightgreen" stroke="black" cx="225.61" cy="-24.74" rx="20.13" ry="20.13"/>
<text text-anchor="middle" x="225.61" y="-19.69" font-family="Times,serif" font-size="14.00">81</text>
</g>
<!-- node152&#45;&gt;node81 -->
<g id="edge2" class="edge">
<title>node152&#45;&gt;node81</title>
<path fill="none" stroke="black" d="M145.86,-24.74C160.24,-24.74 178.64,-24.74 194.04,-24.74"/>
<polygon fill="black" stroke="black" points="193.6,-28.24 203.6,-24.74 193.6,-21.24 193.6,-28.24"/>
<text text-anchor="middle" x="175.47" y="-27.94" font-family="Times,serif" font-size="14.00">1.36</text>
</g>
</g>
</svg>
