<?xml version="1.0" encoding="UTF-8" standalone="no"?>
<!DOCTYPE svg PUBLIC "-//W3C//DTD SVG 1.1//EN"
 "http://www.w3.org/Graphics/SVG/1.1/DTD/svg11.dtd">
<!-- Generated by graphviz version 9.0.0 (20230911.1827)
 -->
<!-- Title: neat Pages: 1 -->
<svg width="258pt" height="107pt"
 viewBox="0.00 0.00 258.24 107.00" xmlns="http://www.w3.org/2000/svg" xmlns:xlink="http://www.w3.org/1999/xlink">
<g id="graph0" class="graph" transform="scale(1 1) rotate(0) translate(4 103)">
<title>neat</title>
<polygon fill="white" stroke="none" points="-4,4 -4,-103 254.24,-103 254.24,4 -4,4"/>
<!-- node0 -->
<g id="node1" class="node">
<title>node0</title>
<ellipse fill="lightblue" stroke="black" cx="18" cy="-81" rx="18" ry="18"/>
<text text-anchor="middle" x="18" y="-75.95" font-family="Times,serif" font-size="14.00">0</text>
</g>
<!-- node182 -->
<g id="node4" class="node">
<title>node182</title>
<ellipse fill="lightgray" stroke="black" cx="125.24" cy="-67" rx="24.74" ry="24.74"/>
<text text-anchor="middle" x="125.24" y="-61.95" font-family="Times,serif" font-size="14.00">182</text>
</g>
<!-- node0&#45;&gt;node182 -->
<g id="edge2" class="edge">
<title>node0&#45;&gt;node182</title>
<path fill="none" stroke="black" d="M35.91,-78.75C50.21,-76.85 71.17,-74.06 89.08,-71.68"/>
<polygon fill="black" stroke="black" points="89.36,-75.17 98.81,-70.38 88.44,-68.23 89.36,-75.17"/>
<text text-anchor="middle" x="68.25" y="-79.2" font-family="Times,serif" font-size="14.00">1.00</text>
</g>
<!-- node1 -->
<g id="node2" class="node">
<title>node1</title>
<ellipse fill="lightblue" stroke="black" cx="18" cy="-18" rx="18" ry="18"/>
<text text-anchor="middle" x="18" y="-12.95" font-family="Times,serif" font-size="14.00">1</text>
</g>
<!-- node71 -->
<g id="node3" class="node">
<title>node71</title>
<ellipse fill="lightgreen" stroke="black" cx="230.11" cy="-24" rx="20.13" ry="20.13"/>
<text text-anchor="middle" x="230.11" y="-18.95" font-family="Times,serif" font-size="14.00">71</text>
</g>
<!-- node1&#45;&gt;node71 -->
<g id="edge1" class="edge">
<title>node1&#45;&gt;node71</title>
<path fill="none" stroke="black" d="M36.38,-17.15C61.48,-16.08 109.32,-14.58 149.97,-16.5 165.91,-17.25 183.6,-18.86 198.2,-20.39"/>
<polygon fill="black" stroke="black" points="197.81,-23.87 208.13,-21.47 198.57,-16.91 197.81,-23.87"/>
<text text-anchor="middle" x="125.24" y="-19.2" font-family="Times,serif" font-size="14.00">2.55</text>
</g>
<!-- node1&#45;&gt;node182 -->
<g id="edge4" class="edge">
<title>node1&#45;&gt;node182</title>
<path fill="none" stroke="black" d="M34.53,-25.23C49.61,-32.25 72.95,-43.12 92.05,-52.01"/>
<polygon fill="black" stroke="black" points="90.51,-55.15 101.05,-56.2 93.46,-48.81 90.51,-55.15"/>
<text text-anchor="middle" x="68.25" y="-49.2" font-family="Times,serif" font-size="14.00">&#45;1.70</text>
</g>
<!-- node182&#45;&gt;node71 -->
<g id="edge3" class="edge">
<title>node182&#45;&gt;node71</title>
<path fill="none" stroke="black" d="M148.56,-57.67C163.73,-51.33 183.94,-42.88 200.32,-36.03"/>
<polygon fill="black" stroke="black" points="201.67,-39.26 209.54,-32.18 198.97,-32.8 201.67,-39.26"/>
<text text-anchor="middle" x="179.97" y="-52.2" font-family="Times,serif" font-size="14.00">1.44</text>
</g>
</g>
</svg>
