<?xml version="1.0" encoding="UTF-8" standalone="no"?>
<!DOCTYPE svg PUBLIC "-//W3C//DTD SVG 1.1//EN"
 "http://www.w3.org/Graphics/SVG/1.1/DTD/svg11.dtd">
<!-- Generated by graphviz version 9.0.0 (20230911.1827)
 -->
<!-- Title: neat Pages: 1 -->
<svg width="258pt" height="107pt"
 viewBox="0.00 0.00 258.24 107.00" xmlns="http://www.w3.org/2000/svg" xmlns:xlink="http://www.w3.org/1999/xlink">
<g id="graph0" class="graph" transform="scale(1 1) rotate(0) translate(4 103)">
<title>neat</title>
<polygon fill="white" stroke="none" points="-4,4 -4,-103 254.24,-103 254.24,4 -4,4"/>
<!-- node0 -->
<g id="node1" class="node">
<title>node0</title>
<ellipse fill="lightblue" stroke="black" cx="18" cy="-81" rx="18" ry="18"/>
<text text-anchor="middle" x="18" y="-75.95" font-family="Times,serif" font-size="14.00">0</text>
</g>
<!-- node16 -->
<g id="node3" class="node">
<title>node16</title>
<ellipse fill="lightgreen" stroke="black" cx="230.11" cy="-60" rx="20.13" ry="20.13"/>
<text text-anchor="middle" x="230.11" y="-54.95" font-family="Times,serif" font-size="14.00">16</text>
</g>
<!-- node0&#45;&gt;node16 -->
<g id="edge1" class="edge">
<title>node0&#45;&gt;node16</title>
<path fill="none" stroke="black" d="M36.31,-81.04C67.61,-80.85 135.56,-79.29 191.97,-70 194.34,-69.61 196.78,-69.13 199.21,-68.6"/>
<polygon fill="black" stroke="black" points="200.05,-72 208.91,-66.19 198.36,-65.21 200.05,-72"/>
<text text-anchor="middle" x="120.74" y="-82.2" font-family="Times,serif" font-size="14.00">&#45;1.29</text>
</g>
<!-- node219 -->
<g id="node4" class="node">
<title>node219</title>
<ellipse fill="lightgray" stroke="black" cx="120.74" cy="-29" rx="24.74" ry="24.74"/>
<text text-anchor="middle" x="120.74" y="-23.95" font-family="Times,serif" font-size="14.00">219</text>
</g>
<!-- node0&#45;&gt;node219 -->
<g id="edge4" class="edge">
<title>node0&#45;&gt;node219</title>
<path fill="none" stroke="black" d="M33.76,-71.4C39.92,-67.54 47.21,-63.14 54,-59.5 64.64,-53.79 76.55,-48.07 87.27,-43.16"/>
<polygon fill="black" stroke="black" points="88.45,-46.46 96.13,-39.16 85.58,-40.08 88.45,-46.46"/>
<text text-anchor="middle" x="66" y="-62.2" font-family="Times,serif" font-size="14.00">0.94</text>
</g>
<!-- node1 -->
<g id="node2" class="node">
<title>node1</title>
<ellipse fill="lightblue" stroke="black" cx="18" cy="-18" rx="18" ry="18"/>
<text text-anchor="middle" x="18" y="-12.95" font-family="Times,serif" font-size="14.00">1</text>
</g>
<!-- node1&#45;&gt;node219 -->
<g id="edge2" class="edge">
<title>node1&#45;&gt;node219</title>
<path fill="none" stroke="black" d="M36.36,-17.54C48.15,-17.45 64.07,-17.76 78,-19.5 80.36,-19.8 82.79,-20.17 85.22,-20.59"/>
<polygon fill="black" stroke="black" points="84.51,-24.01 95,-22.55 85.88,-17.15 84.51,-24.01"/>
<text text-anchor="middle" x="66" y="-23.2" font-family="Times,serif" font-size="14.00">1.00</text>
</g>
<!-- node219&#45;&gt;node16 -->
<g id="edge3" class="edge">
<title>node219&#45;&gt;node16</title>
<path fill="none" stroke="black" d="M145.03,-35.73C161.12,-40.37 182.64,-46.58 199.88,-51.56"/>
<polygon fill="black" stroke="black" points="198.46,-54.79 209.04,-54.21 200.4,-48.07 198.46,-54.79"/>
<text text-anchor="middle" x="177.72" y="-52.2" font-family="Times,serif" font-size="14.00">&#45;2.00</text>
</g>
</g>
</svg>
