<?xml version="1.0" encoding="UTF-8" standalone="no"?>
<!DOCTYPE svg PUBLIC "-//W3C//DTD SVG 1.1//EN"
 "http://www.w3.org/Graphics/SVG/1.1/DTD/svg11.dtd">
<!-- Generated by graphviz version 9.0.0 (20230911.1827)
 -->
<!-- Title: neat Pages: 1 -->
<svg width="258pt" height="107pt"
 viewBox="0.00 0.00 258.24 107.00" xmlns="http://www.w3.org/2000/svg" xmlns:xlink="http://www.w3.org/1999/xlink">
<g id="graph0" class="graph" transform="scale(1 1) rotate(0) translate(4 103)">
<title>neat</title>
<polygon fill="white" stroke="none" points="-4,4 -4,-103 254.24,-103 254.24,4 -4,4"/>
<!-- node0 -->
<g id="node1" class="node">
<title>node0</title>
<ellipse fill="lightblue" stroke="black" cx="18" cy="-81" rx="18" ry="18"/>
<text text-anchor="middle" x="18" y="-75.95" font-family="Times,serif" font-size="14.00">0</text>
</g>
<!-- node152 -->
<g id="node4" class="node">
<title>node152</title>
<ellipse fill="lightgray" stroke="black" cx="120.74" cy="-67" rx="24.74" ry="24.74"/>
<text text-anchor="middle" x="120.74" y="-61.95" font-family="Times,serif" font-size="14.00">152</text>
</g>
<!-- node0&#45;&gt;node152 -->
<g id="edge2" class="edge">
<title>node0&#45;&gt;node152</title>
<path fill="none" stroke="black" d="M36.09,-78.63C49.28,-76.79 67.98,-74.19 84.36,-71.92"/>
<polygon fill="black" stroke="black" points="84.83,-75.38 94.26,-70.54 83.87,-68.45 84.83,-75.38"/>
<text text-anchor="middle" x="66" y="-79.2" font-family="Times,serif" font-size="14.00">3.26</text>
</g>
<!-- node1 -->
<g id="node2" class="node">
<title>node1</title>
<ellipse fill="lightblue" stroke="black" cx="18" cy="-18" rx="18" ry="18"/>
<text text-anchor="middle" x="18" y="-12.95" font-family="Times,serif" font-size="14.00">1</text>
</g>
<!-- node81 -->
<g id="node3" class="node">
<title>node81</title>
<ellipse fill="lightgreen" stroke="black" cx="230.11" cy="-24" rx="20.13" ry="20.13"/>
<text text-anchor="middle" x="230.11" y="-18.95" font-family="Times,serif" font-size="14.00">81</text>
</g>
<!-- node1&#45;&gt;node81 -->
<g id="edge1" class="edge">
<title>node1&#45;&gt;node81</title>
<path fill="none" stroke="black" d="M36.43,-17.56C52.04,-17.2 75.54,-16.7 96,-16.5 117.99,-16.29 123.51,-15.52 145.47,-16.5 163.11,-17.29 182.78,-19.01 198.61,-20.61"/>
<polygon fill="black" stroke="black" points="198.06,-24.07 208.37,-21.63 198.79,-17.1 198.06,-24.07"/>
<text text-anchor="middle" x="120.74" y="-19.2" font-family="Times,serif" font-size="14.00">3.95</text>
</g>
<!-- node1&#45;&gt;node152 -->
<g id="edge4" class="edge">
<title>node1&#45;&gt;node152</title>
<path fill="none" stroke="black" d="M34.74,-25.66C48.99,-32.59 70.4,-43 88.17,-51.64"/>
<polygon fill="black" stroke="black" points="86.24,-54.6 96.77,-55.83 89.3,-48.3 86.24,-54.6"/>
<text text-anchor="middle" x="66" y="-48.2" font-family="Times,serif" font-size="14.00">0.68</text>
</g>
<!-- node152&#45;&gt;node81 -->
<g id="edge3" class="edge">
<title>node152&#45;&gt;node81</title>
<path fill="none" stroke="black" d="M144.25,-57.99C160.57,-51.45 182.77,-42.56 200.37,-35.51"/>
<polygon fill="black" stroke="black" points="201.51,-38.82 209.5,-31.85 198.91,-32.32 201.51,-38.82"/>
<text text-anchor="middle" x="177.72" y="-52.2" font-family="Times,serif" font-size="14.00">&#45;0.86</text>
</g>
</g>
</svg>
