<?xml version="1.0" encoding="UTF-8" standalone="no"?>
<!DOCTYPE svg PUBLIC "-//W3C//DTD SVG 1.1//EN"
 "http://www.w3.org/Graphics/SVG/1.1/DTD/svg11.dtd">
<!-- Generated by graphviz version 9.0.0 (20230911.1827)
 -->
<!-- Title: neat Pages: 1 -->
<svg width="162pt" height="196pt"
 viewBox="0.00 0.00 162.24 195.87" xmlns="http://www.w3.org/2000/svg" xmlns:xlink="http://www.w3.org/1999/xlink">
<g id="graph0" class="graph" transform="scale(1 1) rotate(0) translate(4 191.87)">
<title>neat</title>
<polygon fill="white" stroke="none" points="-4,4 -4,-191.87 158.24,-191.87 158.24,4 -4,4"/>
<!-- node0 -->
<g id="node1" class="node">
<title>node0</title>
<ellipse fill="lightblue" stroke="black" cx="20.13" cy="-57.74" rx="18" ry="18"/>
<text text-anchor="middle" x="20.13" y="-52.69" font-family="Times,serif" font-size="14.00">0</text>
</g>
<!-- node182 -->
<g id="node4" class="node">
<title>node182</title>
<ellipse fill="lightgray" stroke="black" cx="129.5" cy="-91.74" rx="24.74" ry="24.74"/>
<text text-anchor="middle" x="129.5" y="-86.69" font-family="Times,serif" font-size="14.00">182</text>
</g>
<!-- node0&#45;&gt;node182 -->
<g id="edge2" class="edge">
<title>node0&#45;&gt;node182</title>
<path fill="none" stroke="black" d="M37.44,-62.9C52.64,-67.72 75.78,-75.04 94.93,-81.11"/>
<polygon fill="black" stroke="black" points="93.62,-84.36 104.21,-84.05 95.73,-77.69 93.62,-84.36"/>
<text text-anchor="middle" x="72.51" y="-80.94" font-family="Times,serif" font-size="14.00">&#45;1.40</text>
</g>
<!-- node252 -->
<g id="node5" class="node">
<title>node252</title>
<ellipse fill="lightgray" stroke="black" cx="129.5" cy="-24.74" rx="24.74" ry="24.74"/>
<text text-anchor="middle" x="129.5" y="-19.69" font-family="Times,serif" font-size="14.00">252</text>
</g>
<!-- node0&#45;&gt;node252 -->
<g id="edge1" class="edge">
<title>node0&#45;&gt;node252</title>
<path fill="none" stroke="black" d="M37.44,-52.73C52.57,-48.07 75.57,-41.01 94.66,-35.14"/>
<polygon fill="black" stroke="black" points="95.68,-38.49 104.21,-32.2 93.62,-31.8 95.68,-38.49"/>
<text text-anchor="middle" x="72.51" y="-49.94" font-family="Times,serif" font-size="14.00">&#45;1.07</text>
</g>
<!-- node1 -->
<g id="node2" class="node">
<title>node1</title>
<ellipse fill="lightblue" stroke="black" cx="20.13" cy="-111.74" rx="18" ry="18"/>
<text text-anchor="middle" x="20.13" y="-106.69" font-family="Times,serif" font-size="14.00">1</text>
</g>
<!-- node71 -->
<g id="node3" class="node">
<title>node71</title>
<ellipse fill="lightgreen" stroke="black" cx="20.13" cy="-167.74" rx="20.13" ry="20.13"/>
<text text-anchor="middle" x="20.13" y="-162.69" font-family="Times,serif" font-size="14.00">71</text>
</g>
</g>
</svg>
