<?xml version="1.0" encoding="UTF-8" standalone="no"?>
<!DOCTYPE svg PUBLIC "-//W3C//DTD SVG 1.1//EN"
 "http://www.w3.org/Graphics/SVG/1.1/DTD/svg11.dtd">
<!-- Generated by graphviz version 9.0.0 (20230911.1827)
 -->
<!-- Title: neat Pages: 1 -->
<svg width="336pt" height="1264pt"
 viewBox="0.00 0.00 335.61 1264.00" xmlns="http://www.w3.org/2000/svg" xmlns:xlink="http://www.w3.org/1999/xlink">
<g id="graph0" class="graph" transform="scale(1 1) rotate(0) translate(4 1260)">
<title>neat</title>
<polygon fill="white" stroke="none" points="-4,4 -4,-1260 331.61,-1260 331.61,4 -4,4"/>
<g id="clust1" class="cluster">
<title>cluster_0</title>
<path fill="none" stroke="gray" d="M20,-8C20,-8 307.61,-8 307.61,-8 313.61,-8 319.61,-14 319.61,-20 319.61,-20 319.61,-300 319.61,-300 319.61,-306 313.61,-312 307.61,-312 307.61,-312 20,-312 20,-312 14,-312 8,-306 8,-300 8,-300 8,-20 8,-20 8,-14 14,-8 20,-8"/>
<text text-anchor="middle" x="163.81" y="-294.7" font-family="Times,serif" font-size="14.00">Test 0,0 → 0</text>
</g>
<g id="clust2" class="cluster">
<title>cluster_1</title>
<path fill="none" stroke="gray" d="M20,-320C20,-320 307.61,-320 307.61,-320 313.61,-320 319.61,-326 319.61,-332 319.61,-332 319.61,-612 319.61,-612 319.61,-618 313.61,-624 307.61,-624 307.61,-624 20,-624 20,-624 14,-624 8,-618 8,-612 8,-612 8,-332 8,-332 8,-326 14,-320 20,-320"/>
<text text-anchor="middle" x="163.81" y="-606.7" font-family="Times,serif" font-size="14.00">Test 0,1 → 1</text>
</g>
<g id="clust3" class="cluster">
<title>cluster_2</title>
<path fill="none" stroke="gray" d="M20,-632C20,-632 307.61,-632 307.61,-632 313.61,-632 319.61,-638 319.61,-644 319.61,-644 319.61,-924 319.61,-924 319.61,-930 313.61,-936 307.61,-936 307.61,-936 20,-936 20,-936 14,-936 8,-930 8,-924 8,-924 8,-644 8,-644 8,-638 14,-632 20,-632"/>
<text text-anchor="middle" x="163.81" y="-918.7" font-family="Times,serif" font-size="14.00">Test 1,0 → 1</text>
</g>
<g id="clust4" class="cluster">
<title>cluster_3</title>
<path fill="none" stroke="gray" d="M20,-944C20,-944 307.61,-944 307.61,-944 313.61,-944 319.61,-950 319.61,-956 319.61,-956 319.61,-1236 319.61,-1236 319.61,-1242 313.61,-1248 307.61,-1248 307.61,-1248 20,-1248 20,-1248 14,-1248 8,-1242 8,-1236 8,-1236 8,-956 8,-956 8,-950 14,-944 20,-944"/>
<text text-anchor="middle" x="163.81" y="-1230.7" font-family="Times,serif" font-size="14.00">Test 1,1 → 0</text>
</g>
<!-- node0_0 -->
<g id="node1" class="node">
<title>node0_0</title>
<ellipse fill="lightblue" stroke="black" cx="47.9" cy="-248" rx="31.9" ry="31.9"/>
<text text-anchor="middle" x="47.9" y="-242.95" font-family="Times,serif" font-size="14.00">0.000</text>
</g>
<!-- node162_0 -->
<g id="node4" class="node">
<title>node162_0</title>
<ellipse fill="lightgray" stroke="black" cx="279.71" cy="-197" rx="31.9" ry="31.9"/>
<text text-anchor="middle" x="279.71" y="-191.95" font-family="Times,serif" font-size="14.00">0.500</text>
</g>
<!-- node0_0&#45;&gt;node162_0 -->
<g id="edge2" class="edge">
<title>node0_0&#45;&gt;node162_0</title>
<path fill="none" stroke="black" d="M79.42,-241.23C119.94,-232.24 191.66,-216.32 237.11,-206.23"/>
<polygon fill="black" stroke="black" points="237.58,-209.71 246.59,-204.13 236.07,-202.88 237.58,-209.71"/>
<text text-anchor="middle" x="163.81" y="-227.2" font-family="Times,serif" font-size="14.00">1.75</text>
</g>
<!-- node1_0 -->
<g id="node2" class="node">
<title>node1_0</title>
<ellipse fill="lightblue" stroke="black" cx="47.9" cy="-148" rx="31.9" ry="31.9"/>
<text text-anchor="middle" x="47.9" y="-142.95" font-family="Times,serif" font-size="14.00">0.000</text>
</g>
<!-- node1_0&#45;&gt;node162_0 -->
<g id="edge1" class="edge">
<title>node1_0&#45;&gt;node162_0</title>
<path fill="none" stroke="black" d="M79.42,-154.51C119.85,-163.13 191.36,-178.37 236.82,-188.07"/>
<polygon fill="black" stroke="black" points="236.08,-191.49 246.59,-190.15 237.54,-184.64 236.08,-191.49"/>
<text text-anchor="middle" x="163.81" y="-176.2" font-family="Times,serif" font-size="14.00">1.92</text>
</g>
<!-- node79_0 -->
<g id="node3" class="node">
<title>node79_0</title>
<ellipse fill="lightgreen" stroke="black" cx="47.9" cy="-48" rx="31.9" ry="31.9"/>
<text text-anchor="middle" x="47.9" y="-42.95" font-family="Times,serif" font-size="14.00">0.500</text>
</g>
<!-- node0_1 -->
<g id="node5" class="node">
<title>node0_1</title>
<ellipse fill="lightblue" stroke="black" cx="47.9" cy="-560" rx="31.9" ry="31.9"/>
<text text-anchor="middle" x="47.9" y="-554.95" font-family="Times,serif" font-size="14.00">0.000</text>
</g>
<!-- node162_1 -->
<g id="node8" class="node">
<title>node162_1</title>
<ellipse fill="lightgray" stroke="black" cx="279.71" cy="-509" rx="31.9" ry="31.9"/>
<text text-anchor="middle" x="279.71" y="-503.95" font-family="Times,serif" font-size="14.00">1.000</text>
</g>
<!-- node0_1&#45;&gt;node162_1 -->
<g id="edge4" class="edge">
<title>node0_1&#45;&gt;node162_1</title>
<path fill="none" stroke="black" d="M79.42,-553.23C119.94,-544.24 191.66,-528.32 237.11,-518.23"/>
<polygon fill="black" stroke="black" points="237.58,-521.71 246.59,-516.13 236.07,-514.88 237.58,-521.71"/>
<text text-anchor="middle" x="163.81" y="-539.2" font-family="Times,serif" font-size="14.00">1.75</text>
</g>
<!-- node1_1 -->
<g id="node6" class="node">
<title>node1_1</title>
<ellipse fill="lightblue" stroke="black" cx="47.9" cy="-460" rx="31.9" ry="31.9"/>
<text text-anchor="middle" x="47.9" y="-454.95" font-family="Times,serif" font-size="14.00">1.000</text>
</g>
<!-- node1_1&#45;&gt;node162_1 -->
<g id="edge3" class="edge">
<title>node1_1&#45;&gt;node162_1</title>
<path fill="none" stroke="black" d="M79.42,-466.51C119.85,-475.13 191.36,-490.37 236.82,-500.07"/>
<polygon fill="black" stroke="black" points="236.08,-503.49 246.59,-502.15 237.54,-496.64 236.08,-503.49"/>
<text text-anchor="middle" x="163.81" y="-488.2" font-family="Times,serif" font-size="14.00">1.92</text>
</g>
<!-- node79_1 -->
<g id="node7" class="node">
<title>node79_1</title>
<ellipse fill="lightgreen" stroke="black" cx="47.9" cy="-360" rx="31.9" ry="31.9"/>
<text text-anchor="middle" x="47.9" y="-354.95" font-family="Times,serif" font-size="14.00">0.500</text>
</g>
<!-- node0_2 -->
<g id="node9" class="node">
<title>node0_2</title>
<ellipse fill="lightblue" stroke="black" cx="47.9" cy="-872" rx="31.9" ry="31.9"/>
<text text-anchor="middle" x="47.9" y="-866.95" font-family="Times,serif" font-size="14.00">1.000</text>
</g>
<!-- node162_2 -->
<g id="node12" class="node">
<title>node162_2</title>
<ellipse fill="lightgray" stroke="black" cx="279.71" cy="-821" rx="31.9" ry="31.9"/>
<text text-anchor="middle" x="279.71" y="-815.95" font-family="Times,serif" font-size="14.00">1.000</text>
</g>
<!-- node0_2&#45;&gt;node162_2 -->
<g id="edge6" class="edge">
<title>node0_2&#45;&gt;node162_2</title>
<path fill="none" stroke="black" d="M79.42,-865.23C119.94,-856.24 191.66,-840.32 237.11,-830.23"/>
<polygon fill="black" stroke="black" points="237.58,-833.71 246.59,-828.13 236.07,-826.88 237.58,-833.71"/>
<text text-anchor="middle" x="163.81" y="-851.2" font-family="Times,serif" font-size="14.00">1.75</text>
</g>
<!-- node1_2 -->
<g id="node10" class="node">
<title>node1_2</title>
<ellipse fill="lightblue" stroke="black" cx="47.9" cy="-772" rx="31.9" ry="31.9"/>
<text text-anchor="middle" x="47.9" y="-766.95" font-family="Times,serif" font-size="14.00">0.000</text>
</g>
<!-- node1_2&#45;&gt;node162_2 -->
<g id="edge5" class="edge">
<title>node1_2&#45;&gt;node162_2</title>
<path fill="none" stroke="black" d="M79.42,-778.51C119.85,-787.13 191.36,-802.37 236.82,-812.07"/>
<polygon fill="black" stroke="black" points="236.08,-815.49 246.59,-814.15 237.54,-808.64 236.08,-815.49"/>
<text text-anchor="middle" x="163.81" y="-800.2" font-family="Times,serif" font-size="14.00">1.92</text>
</g>
<!-- node79_2 -->
<g id="node11" class="node">
<title>node79_2</title>
<ellipse fill="lightgreen" stroke="black" cx="47.9" cy="-672" rx="31.9" ry="31.9"/>
<text text-anchor="middle" x="47.9" y="-666.95" font-family="Times,serif" font-size="14.00">0.500</text>
</g>
<!-- node0_3 -->
<g id="node13" class="node">
<title>node0_3</title>
<ellipse fill="lightblue" stroke="black" cx="47.9" cy="-1184" rx="31.9" ry="31.9"/>
<text text-anchor="middle" x="47.9" y="-1178.95" font-family="Times,serif" font-size="14.00">1.000</text>
</g>
<!-- node162_3 -->
<g id="node16" class="node">
<title>node162_3</title>
<ellipse fill="lightgray" stroke="black" cx="279.71" cy="-1133" rx="31.9" ry="31.9"/>
<text text-anchor="middle" x="279.71" y="-1127.95" font-family="Times,serif" font-size="14.00">1.000</text>
</g>
<!-- node0_3&#45;&gt;node162_3 -->
<g id="edge8" class="edge">
<title>node0_3&#45;&gt;node162_3</title>
<path fill="none" stroke="black" d="M79.42,-1177.23C119.94,-1168.24 191.66,-1152.32 237.11,-1142.23"/>
<polygon fill="black" stroke="black" points="237.58,-1145.71 246.59,-1140.13 236.07,-1138.88 237.58,-1145.71"/>
<text text-anchor="middle" x="163.81" y="-1163.2" font-family="Times,serif" font-size="14.00">1.75</text>
</g>
<!-- node1_3 -->
<g id="node14" class="node">
<title>node1_3</title>
<ellipse fill="lightblue" stroke="black" cx="47.9" cy="-1084" rx="31.9" ry="31.9"/>
<text text-anchor="middle" x="47.9" y="-1078.95" font-family="Times,serif" font-size="14.00">1.000</text>
</g>
<!-- node1_3&#45;&gt;node162_3 -->
<g id="edge7" class="edge">
<title>node1_3&#45;&gt;node162_3</title>
<path fill="none" stroke="black" d="M79.42,-1090.51C119.85,-1099.13 191.36,-1114.37 236.82,-1124.07"/>
<polygon fill="black" stroke="black" points="236.08,-1127.49 246.59,-1126.15 237.54,-1120.64 236.08,-1127.49"/>
<text text-anchor="middle" x="163.81" y="-1112.2" font-family="Times,serif" font-size="14.00">1.92</text>
</g>
<!-- node79_3 -->
<g id="node15" class="node">
<title>node79_3</title>
<ellipse fill="lightgreen" stroke="black" cx="47.9" cy="-984" rx="31.9" ry="31.9"/>
<text text-anchor="middle" x="47.9" y="-978.95" font-family="Times,serif" font-size="14.00">0.500</text>
</g>
</g>
</svg>
