<?xml version="1.0" encoding="UTF-8" standalone="no"?>
<!DOCTYPE svg PUBLIC "-//W3C//DTD SVG 1.1//EN"
 "http://www.w3.org/Graphics/SVG/1.1/DTD/svg11.dtd">
<!-- Generated by graphviz version 9.0.0 (20230911.1827)
 -->
<!-- Title: neat Pages: 1 -->
<svg width="381pt" height="107pt"
 viewBox="0.00 0.00 381.42 107.00" xmlns="http://www.w3.org/2000/svg" xmlns:xlink="http://www.w3.org/1999/xlink">
<g id="graph0" class="graph" transform="scale(1 1) rotate(0) translate(4 103)">
<title>neat</title>
<polygon fill="white" stroke="none" points="-4,4 -4,-103 377.42,-103 377.42,4 -4,4"/>
<!-- node0 -->
<g id="node1" class="node">
<title>node0</title>
<ellipse fill="lightblue" stroke="black" cx="18" cy="-81" rx="18" ry="18"/>
<text text-anchor="middle" x="18" y="-75.95" font-family="Times,serif" font-size="14.00">0</text>
</g>
<!-- node138 -->
<g id="node3" class="node">
<title>node138</title>
<ellipse fill="lightgreen" stroke="black" cx="348.69" cy="-64" rx="24.74" ry="24.74"/>
<text text-anchor="middle" x="348.69" y="-58.95" font-family="Times,serif" font-size="14.00">138</text>
</g>
<!-- node0&#45;&gt;node138 -->
<g id="edge1" class="edge">
<title>node0&#45;&gt;node138</title>
<path fill="none" stroke="black" d="M36.22,-81.62C80.93,-83 204.27,-85.27 305.95,-73 308.31,-72.72 310.73,-72.36 313.16,-71.96"/>
<polygon fill="black" stroke="black" points="313.76,-75.41 322.93,-70.1 312.45,-68.53 313.76,-75.41"/>
<text text-anchor="middle" x="182.22" y="-84.2" font-family="Times,serif" font-size="14.00">1.50</text>
</g>
<!-- node266 -->
<g id="node5" class="node">
<title>node266</title>
<ellipse fill="lightgray" stroke="black" cx="125.24" cy="-37" rx="24.74" ry="24.74"/>
<text text-anchor="middle" x="125.24" y="-31.95" font-family="Times,serif" font-size="14.00">266</text>
</g>
<!-- node0&#45;&gt;node266 -->
<g id="edge5" class="edge">
<title>node0&#45;&gt;node266</title>
<path fill="none" stroke="black" d="M33.21,-71.19C39.41,-67.2 46.87,-62.77 54,-59.5 65.46,-54.24 78.51,-49.69 90.21,-46.09"/>
<polygon fill="black" stroke="black" points="90.88,-49.55 99.48,-43.37 88.9,-42.83 90.88,-49.55"/>
<text text-anchor="middle" x="68.25" y="-62.2" font-family="Times,serif" font-size="14.00">&#45;0.53</text>
</g>
<!-- node1 -->
<g id="node2" class="node">
<title>node1</title>
<ellipse fill="lightblue" stroke="black" cx="18" cy="-18" rx="18" ry="18"/>
<text text-anchor="middle" x="18" y="-12.95" font-family="Times,serif" font-size="14.00">1</text>
</g>
<!-- node1&#45;&gt;node266 -->
<g id="edge3" class="edge">
<title>node1&#45;&gt;node266</title>
<path fill="none" stroke="black" d="M36.45,-16.68C49.32,-16.13 67.19,-16.23 82.5,-19.5 85.67,-20.18 88.9,-21.09 92.09,-22.15"/>
<polygon fill="black" stroke="black" points="90.63,-25.34 101.23,-25.61 93.12,-18.79 90.63,-25.34"/>
<text text-anchor="middle" x="68.25" y="-23.2" font-family="Times,serif" font-size="14.00">&#45;0.15</text>
</g>
<!-- node166 -->
<g id="node4" class="node">
<title>node166</title>
<ellipse fill="lightgray" stroke="black" cx="239.21" cy="-37" rx="24.74" ry="24.74"/>
<text text-anchor="middle" x="239.21" y="-31.95" font-family="Times,serif" font-size="14.00">166</text>
</g>
<!-- node166&#45;&gt;node138 -->
<g id="edge2" class="edge">
<title>node166&#45;&gt;node138</title>
<path fill="none" stroke="black" d="M263.53,-42.86C278.18,-46.54 297.32,-51.35 313.65,-55.45"/>
<polygon fill="black" stroke="black" points="312.39,-58.74 322.94,-57.78 314.1,-51.95 312.39,-58.74"/>
<text text-anchor="middle" x="293.95" y="-55.2" font-family="Times,serif" font-size="14.00">3.51</text>
</g>
<!-- node266&#45;&gt;node166 -->
<g id="edge4" class="edge">
<title>node266&#45;&gt;node166</title>
<path fill="none" stroke="black" d="M150.26,-37C165.61,-37 185.78,-37 202.93,-37"/>
<polygon fill="black" stroke="black" points="202.72,-40.5 212.72,-37 202.72,-33.5 202.72,-40.5"/>
<text text-anchor="middle" x="182.22" y="-40.2" font-family="Times,serif" font-size="14.00">&#45;1.81</text>
</g>
</g>
</svg>
