<?xml version="1.0" encoding="UTF-8" standalone="no"?>
<!DOCTYPE svg PUBLIC "-//W3C//DTD SVG 1.1//EN"
 "http://www.w3.org/Graphics/SVG/1.1/DTD/svg11.dtd">
<!-- Generated by graphviz version 9.0.0 (20230911.1827)
 -->
<!-- Title: neat Pages: 1 -->
<svg width="171pt" height="191pt"
 viewBox="0.00 0.00 171.45 191.47" xmlns="http://www.w3.org/2000/svg" xmlns:xlink="http://www.w3.org/1999/xlink">
<g id="graph0" class="graph" transform="scale(1 1) rotate(0) translate(4 187.47)">
<title>neat</title>
<polygon fill="white" stroke="none" points="-4,4 -4,-187.47 167.45,-187.47 167.45,4 -4,4"/>
<!-- node0 -->
<g id="node1" class="node">
<title>node0</title>
<ellipse fill="lightblue" stroke="black" cx="24.74" cy="-24.74" rx="18" ry="18"/>
<text text-anchor="middle" x="24.74" y="-19.69" font-family="Times,serif" font-size="14.00">0</text>
</g>
<!-- node236 -->
<g id="node6" class="node">
<title>node236</title>
<ellipse fill="lightgray" stroke="black" cx="138.71" cy="-24.74" rx="24.74" ry="24.74"/>
<text text-anchor="middle" x="138.71" y="-19.69" font-family="Times,serif" font-size="14.00">236</text>
</g>
<!-- node0&#45;&gt;node236 -->
<g id="edge3" class="edge">
<title>node0&#45;&gt;node236</title>
<path fill="none" stroke="black" d="M43.23,-24.74C59,-24.74 82.65,-24.74 102.34,-24.74"/>
<polygon fill="black" stroke="black" points="102.18,-28.24 112.18,-24.74 102.18,-21.24 102.18,-28.24"/>
<text text-anchor="middle" x="81.72" y="-27.94" font-family="Times,serif" font-size="14.00">1.25</text>
</g>
<!-- node1 -->
<g id="node2" class="node">
<title>node1</title>
<ellipse fill="lightblue" stroke="black" cx="24.74" cy="-91.74" rx="18" ry="18"/>
<text text-anchor="middle" x="24.74" y="-86.69" font-family="Times,serif" font-size="14.00">1</text>
</g>
<!-- node196 -->
<g id="node5" class="node">
<title>node196</title>
<ellipse fill="lightgray" stroke="black" cx="138.71" cy="-91.74" rx="24.74" ry="24.74"/>
<text text-anchor="middle" x="138.71" y="-86.69" font-family="Times,serif" font-size="14.00">196</text>
</g>
<!-- node1&#45;&gt;node196 -->
<g id="edge2" class="edge">
<title>node1&#45;&gt;node196</title>
<path fill="none" stroke="black" d="M43.23,-91.74C59,-91.74 82.65,-91.74 102.34,-91.74"/>
<polygon fill="black" stroke="black" points="102.18,-95.24 112.18,-91.74 102.18,-88.24 102.18,-95.24"/>
<text text-anchor="middle" x="81.72" y="-94.94" font-family="Times,serif" font-size="14.00">0.11</text>
</g>
<!-- node105 -->
<g id="node3" class="node">
<title>node105</title>
<ellipse fill="lightgreen" stroke="black" cx="138.71" cy="-158.74" rx="24.74" ry="24.74"/>
<text text-anchor="middle" x="138.71" y="-153.69" font-family="Times,serif" font-size="14.00">105</text>
</g>
<!-- node161 -->
<g id="node4" class="node">
<title>node161</title>
<ellipse fill="lightgray" stroke="black" cx="24.74" cy="-158.74" rx="24.74" ry="24.74"/>
<text text-anchor="middle" x="24.74" y="-153.69" font-family="Times,serif" font-size="14.00">161</text>
</g>
<!-- node161&#45;&gt;node105 -->
<g id="edge1" class="edge">
<title>node161&#45;&gt;node105</title>
<path fill="none" stroke="black" d="M49.76,-158.74C65.11,-158.74 85.28,-158.74 102.43,-158.74"/>
<polygon fill="black" stroke="black" points="102.22,-162.24 112.22,-158.74 102.22,-155.24 102.22,-162.24"/>
<text text-anchor="middle" x="81.72" y="-161.94" font-family="Times,serif" font-size="14.00">&#45;0.63</text>
</g>
</g>
</svg>
