<?xml version="1.0" encoding="UTF-8" standalone="no"?>
<!DOCTYPE svg PUBLIC "-//W3C//DTD SVG 1.1//EN"
 "http://www.w3.org/Graphics/SVG/1.1/DTD/svg11.dtd">
<!-- Generated by graphviz version 9.0.0 (20230911.1827)
 -->
<!-- Title: neat Pages: 1 -->
<svg width="263pt" height="124pt"
 viewBox="0.00 0.00 262.74 124.47" xmlns="http://www.w3.org/2000/svg" xmlns:xlink="http://www.w3.org/1999/xlink">
<g id="graph0" class="graph" transform="scale(1 1) rotate(0) translate(4 120.47)">
<title>neat</title>
<polygon fill="white" stroke="none" points="-4,4 -4,-120.47 258.74,-120.47 258.74,4 -4,4"/>
<!-- node0 -->
<g id="node1" class="node">
<title>node0</title>
<ellipse fill="lightblue" stroke="black" cx="18" cy="-24.74" rx="18" ry="18"/>
<text text-anchor="middle" x="18" y="-19.69" font-family="Times,serif" font-size="14.00">0</text>
</g>
<!-- node152 -->
<g id="node4" class="node">
<title>node152</title>
<ellipse fill="lightgray" stroke="black" cx="125.24" cy="-24.74" rx="24.74" ry="24.74"/>
<text text-anchor="middle" x="125.24" y="-19.69" font-family="Times,serif" font-size="14.00">152</text>
</g>
<!-- node0&#45;&gt;node152 -->
<g id="edge1" class="edge">
<title>node0&#45;&gt;node152</title>
<path fill="none" stroke="black" d="M36.38,-24.74C50.58,-24.74 71.12,-24.74 88.77,-24.74"/>
<polygon fill="black" stroke="black" points="88.63,-28.24 98.63,-24.74 88.63,-21.24 88.63,-28.24"/>
<text text-anchor="middle" x="68.25" y="-27.94" font-family="Times,serif" font-size="14.00">&#45;0.40</text>
</g>
<!-- node1 -->
<g id="node2" class="node">
<title>node1</title>
<ellipse fill="lightblue" stroke="black" cx="18" cy="-91.74" rx="18" ry="18"/>
<text text-anchor="middle" x="18" y="-86.69" font-family="Times,serif" font-size="14.00">1</text>
</g>
<!-- node265 -->
<g id="node5" class="node">
<title>node265</title>
<ellipse fill="lightgray" stroke="black" cx="125.24" cy="-91.74" rx="24.74" ry="24.74"/>
<text text-anchor="middle" x="125.24" y="-86.69" font-family="Times,serif" font-size="14.00">265</text>
</g>
<!-- node1&#45;&gt;node265 -->
<g id="edge2" class="edge">
<title>node1&#45;&gt;node265</title>
<path fill="none" stroke="black" d="M36.38,-91.74C50.58,-91.74 71.12,-91.74 88.77,-91.74"/>
<polygon fill="black" stroke="black" points="88.63,-95.24 98.63,-91.74 88.63,-88.24 88.63,-95.24"/>
<text text-anchor="middle" x="68.25" y="-94.94" font-family="Times,serif" font-size="14.00">1.00</text>
</g>
<!-- node81 -->
<g id="node3" class="node">
<title>node81</title>
<ellipse fill="lightgreen" stroke="black" cx="234.61" cy="-91.74" rx="20.13" ry="20.13"/>
<text text-anchor="middle" x="234.61" y="-86.69" font-family="Times,serif" font-size="14.00">81</text>
</g>
<!-- node265&#45;&gt;node81 -->
<g id="edge3" class="edge">
<title>node265&#45;&gt;node81</title>
<path fill="none" stroke="black" d="M150.33,-91.74C165.86,-91.74 186.18,-91.74 202.86,-91.74"/>
<polygon fill="black" stroke="black" points="202.73,-95.24 212.73,-91.74 202.73,-88.24 202.73,-95.24"/>
<text text-anchor="middle" x="182.22" y="-94.94" font-family="Times,serif" font-size="14.00">&#45;3.09</text>
</g>
</g>
</svg>
