<?xml version="1.0" encoding="UTF-8" standalone="no"?>
<!DOCTYPE svg PUBLIC "-//W3C//DTD SVG 1.1//EN"
 "http://www.w3.org/Graphics/SVG/1.1/DTD/svg11.dtd">
<!-- Generated by graphviz version 9.0.0 (20230911.1827)
 -->
<!-- Title: neat Pages: 1 -->
<svg width="276pt" height="224pt"
 viewBox="0.00 0.00 276.42 223.74" xmlns="http://www.w3.org/2000/svg" xmlns:xlink="http://www.w3.org/1999/xlink">
<g id="graph0" class="graph" transform="scale(1 1) rotate(0) translate(4 219.74)">
<title>neat</title>
<polygon fill="white" stroke="none" points="-4,4 -4,-219.74 272.42,-219.74 272.42,4 -4,4"/>
<!-- node0 -->
<g id="node1" class="node">
<title>node0</title>
<ellipse fill="lightblue" stroke="black" cx="24.74" cy="-18" rx="18" ry="18"/>
<text text-anchor="middle" x="24.74" y="-12.95" font-family="Times,serif" font-size="14.00">0</text>
</g>
<!-- node1 -->
<g id="node2" class="node">
<title>node1</title>
<ellipse fill="lightblue" stroke="black" cx="24.74" cy="-72" rx="18" ry="18"/>
<text text-anchor="middle" x="24.74" y="-66.95" font-family="Times,serif" font-size="14.00">1</text>
</g>
<!-- node259 -->
<g id="node6" class="node">
<title>node259</title>
<ellipse fill="lightgray" stroke="black" cx="134.21" cy="-72" rx="24.74" ry="24.74"/>
<text text-anchor="middle" x="134.21" y="-66.95" font-family="Times,serif" font-size="14.00">259</text>
</g>
<!-- node1&#45;&gt;node259 -->
<g id="edge1" class="edge">
<title>node1&#45;&gt;node259</title>
<path fill="none" stroke="black" d="M43.01,-72C57.7,-72 79.3,-72 97.67,-72"/>
<polygon fill="black" stroke="black" points="97.66,-75.5 107.66,-72 97.66,-68.5 97.66,-75.5"/>
<text text-anchor="middle" x="79.47" y="-75.2" font-family="Times,serif" font-size="14.00">1.00</text>
</g>
<!-- node81 -->
<g id="node3" class="node">
<title>node81</title>
<ellipse fill="lightgreen" stroke="black" cx="24.74" cy="-128" rx="20.13" ry="20.13"/>
<text text-anchor="middle" x="24.74" y="-122.95" font-family="Times,serif" font-size="14.00">81</text>
</g>
<!-- node152 -->
<g id="node4" class="node">
<title>node152</title>
<ellipse fill="lightgray" stroke="black" cx="24.74" cy="-191" rx="24.74" ry="24.74"/>
<text text-anchor="middle" x="24.74" y="-185.95" font-family="Times,serif" font-size="14.00">152</text>
</g>
<!-- node226 -->
<g id="node5" class="node">
<title>node226</title>
<ellipse fill="lightgray" stroke="black" cx="243.69" cy="-72" rx="24.74" ry="24.74"/>
<text text-anchor="middle" x="243.69" y="-66.95" font-family="Times,serif" font-size="14.00">226</text>
</g>
<!-- node259&#45;&gt;node226 -->
<g id="edge2" class="edge">
<title>node259&#45;&gt;node226</title>
<path fill="none" stroke="black" d="M159.33,-72C173.44,-72 191.5,-72 207.2,-72"/>
<polygon fill="black" stroke="black" points="207.13,-75.5 217.13,-72 207.13,-68.5 207.13,-75.5"/>
<text text-anchor="middle" x="188.95" y="-75.2" font-family="Times,serif" font-size="14.00">3.98</text>
</g>
</g>
</svg>
