<?xml version="1.0" encoding="UTF-8" standalone="no"?>
<!DOCTYPE svg PUBLIC "-//W3C//DTD SVG 1.1//EN"
 "http://www.w3.org/Graphics/SVG/1.1/DTD/svg11.dtd">
<!-- Generated by graphviz version 9.0.0 (20230911.1827)
 -->
<!-- Title: neat Pages: 1 -->
<svg width="572pt" height="864pt"
 viewBox="0.00 0.00 571.92 864.00" xmlns="http://www.w3.org/2000/svg" xmlns:xlink="http://www.w3.org/1999/xlink">
<g id="graph0" class="graph" transform="scale(1 1) rotate(0) translate(4 860)">
<title>neat</title>
<polygon fill="white" stroke="none" points="-4,4 -4,-860 567.92,-860 567.92,4 -4,4"/>
<g id="clust1" class="cluster">
<title>cluster_0</title>
<path fill="none" stroke="gray" d="M20,-8C20,-8 543.92,-8 543.92,-8 549.92,-8 555.92,-14 555.92,-20 555.92,-20 555.92,-200 555.92,-200 555.92,-206 549.92,-212 543.92,-212 543.92,-212 20,-212 20,-212 14,-212 8,-206 8,-200 8,-200 8,-20 8,-20 8,-14 14,-8 20,-8"/>
<text text-anchor="middle" x="281.96" y="-194.7" font-family="Times,serif" font-size="14.00">Test 0,0 → 0</text>
</g>
<g id="clust2" class="cluster">
<title>cluster_1</title>
<path fill="none" stroke="gray" d="M20,-220C20,-220 543.92,-220 543.92,-220 549.92,-220 555.92,-226 555.92,-232 555.92,-232 555.92,-412 555.92,-412 555.92,-418 549.92,-424 543.92,-424 543.92,-424 20,-424 20,-424 14,-424 8,-418 8,-412 8,-412 8,-232 8,-232 8,-226 14,-220 20,-220"/>
<text text-anchor="middle" x="281.96" y="-406.7" font-family="Times,serif" font-size="14.00">Test 0,1 → 1</text>
</g>
<g id="clust3" class="cluster">
<title>cluster_2</title>
<path fill="none" stroke="gray" d="M20,-432C20,-432 543.92,-432 543.92,-432 549.92,-432 555.92,-438 555.92,-444 555.92,-444 555.92,-624 555.92,-624 555.92,-630 549.92,-636 543.92,-636 543.92,-636 20,-636 20,-636 14,-636 8,-630 8,-624 8,-624 8,-444 8,-444 8,-438 14,-432 20,-432"/>
<text text-anchor="middle" x="281.96" y="-618.7" font-family="Times,serif" font-size="14.00">Test 1,0 → 1</text>
</g>
<g id="clust4" class="cluster">
<title>cluster_3</title>
<path fill="none" stroke="gray" d="M20,-644C20,-644 543.92,-644 543.92,-644 549.92,-644 555.92,-650 555.92,-656 555.92,-656 555.92,-836 555.92,-836 555.92,-842 549.92,-848 543.92,-848 543.92,-848 20,-848 20,-848 14,-848 8,-842 8,-836 8,-836 8,-656 8,-656 8,-650 14,-644 20,-644"/>
<text text-anchor="middle" x="281.96" y="-830.7" font-family="Times,serif" font-size="14.00">Test 1,1 → 0</text>
</g>
<!-- node0_0 -->
<g id="node1" class="node">
<title>node0_0</title>
<ellipse fill="lightblue" stroke="black" cx="47.9" cy="-148" rx="31.9" ry="31.9"/>
<text text-anchor="middle" x="47.9" y="-142.95" font-family="Times,serif" font-size="14.00">0.000</text>
</g>
<!-- node1_0 -->
<g id="node2" class="node">
<title>node1_0</title>
<ellipse fill="lightblue" stroke="black" cx="47.9" cy="-48" rx="31.9" ry="31.9"/>
<text text-anchor="middle" x="47.9" y="-42.95" font-family="Times,serif" font-size="14.00">0.000</text>
</g>
<!-- node184_0 -->
<g id="node4" class="node">
<title>node184_0</title>
<ellipse fill="lightgray" stroke="black" cx="279.71" cy="-52" rx="31.9" ry="31.9"/>
<text text-anchor="middle" x="279.71" y="-46.95" font-family="Times,serif" font-size="14.00">0.500</text>
</g>
<!-- node1_0&#45;&gt;node184_0 -->
<g id="edge1" class="edge">
<title>node1_0&#45;&gt;node184_0</title>
<path fill="none" stroke="black" d="M79.9,-48.54C120.16,-49.24 190.64,-50.47 235.96,-51.26"/>
<polygon fill="black" stroke="black" points="235.9,-54.76 245.96,-51.43 236.02,-47.76 235.9,-54.76"/>
<text text-anchor="middle" x="163.81" y="-53.2" font-family="Times,serif" font-size="14.00">1.00</text>
</g>
<!-- node4_0 -->
<g id="node3" class="node">
<title>node4_0</title>
<ellipse fill="lightgreen" stroke="black" cx="516.01" cy="-52" rx="31.9" ry="31.9"/>
<text text-anchor="middle" x="516.01" y="-46.95" font-family="Times,serif" font-size="14.00">0.005</text>
</g>
<!-- node184_0&#45;&gt;node4_0 -->
<g id="edge2" class="edge">
<title>node184_0&#45;&gt;node4_0</title>
<path fill="none" stroke="black" d="M311.82,-52C353.05,-52 425.95,-52 472.31,-52"/>
<polygon fill="black" stroke="black" points="472.26,-55.5 482.26,-52 472.26,-48.5 472.26,-55.5"/>
<text text-anchor="middle" x="397.86" y="-55.2" font-family="Times,serif" font-size="14.00">&#45;2.18</text>
</g>
<!-- node0_1 -->
<g id="node5" class="node">
<title>node0_1</title>
<ellipse fill="lightblue" stroke="black" cx="47.9" cy="-360" rx="31.9" ry="31.9"/>
<text text-anchor="middle" x="47.9" y="-354.95" font-family="Times,serif" font-size="14.00">0.000</text>
</g>
<!-- node1_1 -->
<g id="node6" class="node">
<title>node1_1</title>
<ellipse fill="lightblue" stroke="black" cx="47.9" cy="-260" rx="31.9" ry="31.9"/>
<text text-anchor="middle" x="47.9" y="-254.95" font-family="Times,serif" font-size="14.00">1.000</text>
</g>
<!-- node184_1 -->
<g id="node8" class="node">
<title>node184_1</title>
<ellipse fill="lightgray" stroke="black" cx="279.71" cy="-264" rx="31.9" ry="31.9"/>
<text text-anchor="middle" x="279.71" y="-258.95" font-family="Times,serif" font-size="14.00">0.993</text>
</g>
<!-- node1_1&#45;&gt;node184_1 -->
<g id="edge3" class="edge">
<title>node1_1&#45;&gt;node184_1</title>
<path fill="none" stroke="black" d="M79.9,-260.54C120.16,-261.24 190.64,-262.47 235.96,-263.26"/>
<polygon fill="black" stroke="black" points="235.9,-266.76 245.96,-263.43 236.02,-259.76 235.9,-266.76"/>
<text text-anchor="middle" x="163.81" y="-265.2" font-family="Times,serif" font-size="14.00">1.00</text>
</g>
<!-- node4_1 -->
<g id="node7" class="node">
<title>node4_1</title>
<ellipse fill="lightgreen" stroke="black" cx="516.01" cy="-264" rx="31.9" ry="31.9"/>
<text text-anchor="middle" x="516.01" y="-258.95" font-family="Times,serif" font-size="14.00">0.000</text>
</g>
<!-- node184_1&#45;&gt;node4_1 -->
<g id="edge4" class="edge">
<title>node184_1&#45;&gt;node4_1</title>
<path fill="none" stroke="black" d="M311.82,-264C353.05,-264 425.95,-264 472.31,-264"/>
<polygon fill="black" stroke="black" points="472.26,-267.5 482.26,-264 472.26,-260.5 472.26,-267.5"/>
<text text-anchor="middle" x="397.86" y="-267.2" font-family="Times,serif" font-size="14.00">&#45;2.18</text>
</g>
<!-- node0_2 -->
<g id="node9" class="node">
<title>node0_2</title>
<ellipse fill="lightblue" stroke="black" cx="47.9" cy="-572" rx="31.9" ry="31.9"/>
<text text-anchor="middle" x="47.9" y="-566.95" font-family="Times,serif" font-size="14.00">1.000</text>
</g>
<!-- node1_2 -->
<g id="node10" class="node">
<title>node1_2</title>
<ellipse fill="lightblue" stroke="black" cx="47.9" cy="-472" rx="31.9" ry="31.9"/>
<text text-anchor="middle" x="47.9" y="-466.95" font-family="Times,serif" font-size="14.00">0.000</text>
</g>
<!-- node184_2 -->
<g id="node12" class="node">
<title>node184_2</title>
<ellipse fill="lightgray" stroke="black" cx="279.71" cy="-476" rx="31.9" ry="31.9"/>
<text text-anchor="middle" x="279.71" y="-470.95" font-family="Times,serif" font-size="14.00">0.500</text>
</g>
<!-- node1_2&#45;&gt;node184_2 -->
<g id="edge5" class="edge">
<title>node1_2&#45;&gt;node184_2</title>
<path fill="none" stroke="black" d="M79.9,-472.54C120.16,-473.24 190.64,-474.47 235.96,-475.26"/>
<polygon fill="black" stroke="black" points="235.9,-478.76 245.96,-475.43 236.02,-471.76 235.9,-478.76"/>
<text text-anchor="middle" x="163.81" y="-477.2" font-family="Times,serif" font-size="14.00">1.00</text>
</g>
<!-- node4_2 -->
<g id="node11" class="node">
<title>node4_2</title>
<ellipse fill="lightgreen" stroke="black" cx="516.01" cy="-476" rx="31.9" ry="31.9"/>
<text text-anchor="middle" x="516.01" y="-470.95" font-family="Times,serif" font-size="14.00">0.005</text>
</g>
<!-- node184_2&#45;&gt;node4_2 -->
<g id="edge6" class="edge">
<title>node184_2&#45;&gt;node4_2</title>
<path fill="none" stroke="black" d="M311.82,-476C353.05,-476 425.95,-476 472.31,-476"/>
<polygon fill="black" stroke="black" points="472.26,-479.5 482.26,-476 472.26,-472.5 472.26,-479.5"/>
<text text-anchor="middle" x="397.86" y="-479.2" font-family="Times,serif" font-size="14.00">&#45;2.18</text>
</g>
<!-- node0_3 -->
<g id="node13" class="node">
<title>node0_3</title>
<ellipse fill="lightblue" stroke="black" cx="47.9" cy="-784" rx="31.9" ry="31.9"/>
<text text-anchor="middle" x="47.9" y="-778.95" font-family="Times,serif" font-size="14.00">1.000</text>
</g>
<!-- node1_3 -->
<g id="node14" class="node">
<title>node1_3</title>
<ellipse fill="lightblue" stroke="black" cx="47.9" cy="-684" rx="31.9" ry="31.9"/>
<text text-anchor="middle" x="47.9" y="-678.95" font-family="Times,serif" font-size="14.00">1.000</text>
</g>
<!-- node184_3 -->
<g id="node16" class="node">
<title>node184_3</title>
<ellipse fill="lightgray" stroke="black" cx="279.71" cy="-688" rx="31.9" ry="31.9"/>
<text text-anchor="middle" x="279.71" y="-682.95" font-family="Times,serif" font-size="14.00">0.993</text>
</g>
<!-- node1_3&#45;&gt;node184_3 -->
<g id="edge7" class="edge">
<title>node1_3&#45;&gt;node184_3</title>
<path fill="none" stroke="black" d="M79.9,-684.54C120.16,-685.24 190.64,-686.47 235.96,-687.26"/>
<polygon fill="black" stroke="black" points="235.9,-690.76 245.96,-687.43 236.02,-683.76 235.9,-690.76"/>
<text text-anchor="middle" x="163.81" y="-689.2" font-family="Times,serif" font-size="14.00">1.00</text>
</g>
<!-- node4_3 -->
<g id="node15" class="node">
<title>node4_3</title>
<ellipse fill="lightgreen" stroke="black" cx="516.01" cy="-688" rx="31.9" ry="31.9"/>
<text text-anchor="middle" x="516.01" y="-682.95" font-family="Times,serif" font-size="14.00">0.000</text>
</g>
<!-- node184_3&#45;&gt;node4_3 -->
<g id="edge8" class="edge">
<title>node184_3&#45;&gt;node4_3</title>
<path fill="none" stroke="black" d="M311.82,-688C353.05,-688 425.95,-688 472.31,-688"/>
<polygon fill="black" stroke="black" points="472.26,-691.5 482.26,-688 472.26,-684.5 472.26,-691.5"/>
<text text-anchor="middle" x="397.86" y="-691.2" font-family="Times,serif" font-size="14.00">&#45;2.18</text>
</g>
</g>
</svg>
