<?xml version="1.0" encoding="UTF-8" standalone="no"?>
<!DOCTYPE svg PUBLIC "-//W3C//DTD SVG 1.1//EN"
 "http://www.w3.org/Graphics/SVG/1.1/DTD/svg11.dtd">
<!-- Generated by graphviz version 9.0.0 (20230911.1827)
 -->
<!-- Title: neat Pages: 1 -->
<svg width="171pt" height="233pt"
 viewBox="0.00 0.00 171.45 232.74" xmlns="http://www.w3.org/2000/svg" xmlns:xlink="http://www.w3.org/1999/xlink">
<g id="graph0" class="graph" transform="scale(1 1) rotate(0) translate(4 228.74)">
<title>neat</title>
<polygon fill="white" stroke="none" points="-4,4 -4,-228.74 167.45,-228.74 167.45,4 -4,4"/>
<!-- node0 -->
<g id="node1" class="node">
<title>node0</title>
<ellipse fill="lightblue" stroke="black" cx="24.74" cy="-18" rx="18" ry="18"/>
<text text-anchor="middle" x="24.74" y="-12.95" font-family="Times,serif" font-size="14.00">0</text>
</g>
<!-- node1 -->
<g id="node2" class="node">
<title>node1</title>
<ellipse fill="lightblue" stroke="black" cx="24.74" cy="-72" rx="18" ry="18"/>
<text text-anchor="middle" x="24.74" y="-66.95" font-family="Times,serif" font-size="14.00">1</text>
</g>
<!-- node45 -->
<g id="node3" class="node">
<title>node45</title>
<ellipse fill="lightgreen" stroke="black" cx="138.71" cy="-164" rx="20.13" ry="20.13"/>
<text text-anchor="middle" x="138.71" y="-158.95" font-family="Times,serif" font-size="14.00">45</text>
</g>
<!-- node163 -->
<g id="node4" class="node">
<title>node163</title>
<ellipse fill="lightgray" stroke="black" cx="24.74" cy="-200" rx="24.74" ry="24.74"/>
<text text-anchor="middle" x="24.74" y="-194.95" font-family="Times,serif" font-size="14.00">163</text>
</g>
<!-- node217 -->
<g id="node5" class="node">
<title>node217</title>
<ellipse fill="lightgray" stroke="black" cx="138.71" cy="-101" rx="24.74" ry="24.74"/>
<text text-anchor="middle" x="138.71" y="-95.95" font-family="Times,serif" font-size="14.00">217</text>
</g>
<!-- node258 -->
<g id="node6" class="node">
<title>node258</title>
<ellipse fill="lightgray" stroke="black" cx="24.74" cy="-133" rx="24.74" ry="24.74"/>
<text text-anchor="middle" x="24.74" y="-127.95" font-family="Times,serif" font-size="14.00">258</text>
</g>
<!-- node258&#45;&gt;node45 -->
<g id="edge1" class="edge">
<title>node258&#45;&gt;node45</title>
<path fill="none" stroke="black" d="M48.94,-139.42C66.05,-144.16 89.46,-150.64 107.94,-155.76"/>
<polygon fill="black" stroke="black" points="106.96,-159.12 117.53,-158.41 108.83,-152.37 106.96,-159.12"/>
<text text-anchor="middle" x="81.72" y="-155.2" font-family="Times,serif" font-size="14.00">&#45;1.00</text>
</g>
<!-- node258&#45;&gt;node217 -->
<g id="edge2" class="edge">
<title>node258&#45;&gt;node217</title>
<path fill="none" stroke="black" d="M48.94,-126.37C64.7,-121.86 85.82,-115.83 103.51,-110.78"/>
<polygon fill="black" stroke="black" points="104.43,-114.15 113.09,-108.04 102.51,-107.42 104.43,-114.15"/>
<text text-anchor="middle" x="81.72" y="-124.2" font-family="Times,serif" font-size="14.00">0.26</text>
</g>
</g>
</svg>
