<?xml version="1.0" encoding="UTF-8" standalone="no"?>
<!DOCTYPE svg PUBLIC "-//W3C//DTD SVG 1.1//EN"
 "http://www.w3.org/Graphics/SVG/1.1/DTD/svg11.dtd">
<!-- Generated by graphviz version 9.0.0 (20230911.1827)
 -->
<!-- Title: neat Pages: 1 -->
<svg width="372pt" height="158pt"
 viewBox="0.00 0.00 372.21 158.24" xmlns="http://www.w3.org/2000/svg" xmlns:xlink="http://www.w3.org/1999/xlink">
<g id="graph0" class="graph" transform="scale(1 1) rotate(0) translate(4 154.24)">
<title>neat</title>
<polygon fill="white" stroke="none" points="-4,4 -4,-154.24 368.21,-154.24 368.21,4 -4,4"/>
<!-- node0 -->
<g id="node1" class="node">
<title>node0</title>
<ellipse fill="lightblue" stroke="black" cx="18" cy="-117.74" rx="18" ry="18"/>
<text text-anchor="middle" x="18" y="-112.69" font-family="Times,serif" font-size="14.00">0</text>
</g>
<!-- node45 -->
<g id="node3" class="node">
<title>node45</title>
<ellipse fill="lightgreen" stroke="black" cx="344.08" cy="-119.74" rx="20.13" ry="20.13"/>
<text text-anchor="middle" x="344.08" y="-114.69" font-family="Times,serif" font-size="14.00">45</text>
</g>
<!-- node0&#45;&gt;node45 -->
<g id="edge1" class="edge">
<title>node0&#45;&gt;node45</title>
<path fill="none" stroke="black" d="M35.54,-123.45C41.3,-125.18 47.87,-126.85 54,-127.74 154.27,-142.23 180.64,-129.29 281.95,-129.74 292.62,-129.78 295.38,-131.14 305.95,-129.74 308.33,-129.42 310.77,-129 313.21,-128.5"/>
<polygon fill="black" stroke="black" points="314.02,-131.91 322.91,-126.16 312.37,-125.11 314.02,-131.91"/>
<text text-anchor="middle" x="182.22" y="-136.94" font-family="Times,serif" font-size="14.00">&#45;2.04</text>
</g>
<!-- node167 -->
<g id="node4" class="node">
<title>node167</title>
<ellipse fill="lightgray" stroke="black" cx="125.24" cy="-86.74" rx="24.74" ry="24.74"/>
<text text-anchor="middle" x="125.24" y="-81.69" font-family="Times,serif" font-size="14.00">167</text>
</g>
<!-- node0&#45;&gt;node167 -->
<g id="edge3" class="edge">
<title>node0&#45;&gt;node167</title>
<path fill="none" stroke="black" d="M35.44,-112.89C50.09,-108.58 71.99,-102.13 90.38,-96.71"/>
<polygon fill="black" stroke="black" points="91.22,-100.11 99.82,-93.93 89.24,-93.4 91.22,-100.11"/>
<text text-anchor="middle" x="68.25" y="-109.94" font-family="Times,serif" font-size="14.00">3.00</text>
</g>
<!-- node1 -->
<g id="node2" class="node">
<title>node1</title>
<ellipse fill="lightblue" stroke="black" cx="18" cy="-54.74" rx="18" ry="18"/>
<text text-anchor="middle" x="18" y="-49.69" font-family="Times,serif" font-size="14.00">1</text>
</g>
<!-- node1&#45;&gt;node167 -->
<g id="edge2" class="edge">
<title>node1&#45;&gt;node167</title>
<path fill="none" stroke="black" d="M35.44,-59.74C50.09,-64.19 71.99,-70.85 90.38,-76.44"/>
<polygon fill="black" stroke="black" points="89.24,-79.75 99.82,-79.31 91.28,-73.06 89.24,-79.75"/>
<text text-anchor="middle" x="68.25" y="-75.94" font-family="Times,serif" font-size="14.00">&#45;3.61</text>
</g>
<!-- node241 -->
<g id="node6" class="node">
<title>node241</title>
<ellipse fill="lightgray" stroke="black" cx="239.21" cy="-24.74" rx="24.74" ry="24.74"/>
<text text-anchor="middle" x="239.21" y="-19.69" font-family="Times,serif" font-size="14.00">241</text>
</g>
<!-- node1&#45;&gt;node241 -->
<g id="edge7" class="edge">
<title>node1&#45;&gt;node241</title>
<path fill="none" stroke="black" d="M35.73,-50.22C52.11,-45.96 77.84,-39.74 100.5,-36.24 135.15,-30.89 175.11,-27.9 203.03,-26.32"/>
<polygon fill="black" stroke="black" points="202.9,-29.83 212.7,-25.8 202.53,-22.84 202.9,-29.83"/>
<text text-anchor="middle" x="125.24" y="-39.94" font-family="Times,serif" font-size="14.00">&#45;1.73</text>
</g>
<!-- node239 -->
<g id="node5" class="node">
<title>node239</title>
<ellipse fill="lightgray" stroke="black" cx="239.21" cy="-92.74" rx="24.74" ry="24.74"/>
<text text-anchor="middle" x="239.21" y="-87.69" font-family="Times,serif" font-size="14.00">239</text>
</g>
<!-- node167&#45;&gt;node239 -->
<g id="edge4" class="edge">
<title>node167&#45;&gt;node239</title>
<path fill="none" stroke="black" d="M150.26,-88.02C165.61,-88.85 185.78,-89.93 202.93,-90.85"/>
<polygon fill="black" stroke="black" points="202.55,-94.33 212.72,-91.37 202.92,-87.34 202.55,-94.33"/>
<text text-anchor="middle" x="182.22" y="-92.94" font-family="Times,serif" font-size="14.00">0.43</text>
</g>
<!-- node167&#45;&gt;node241 -->
<g id="edge6" class="edge">
<title>node167&#45;&gt;node241</title>
<path fill="none" stroke="black" d="M147.3,-75.08C164.19,-65.72 188.14,-52.46 207.22,-41.9"/>
<polygon fill="black" stroke="black" points="208.87,-44.99 215.92,-37.08 205.48,-38.86 208.87,-44.99"/>
<text text-anchor="middle" x="182.22" y="-65.94" font-family="Times,serif" font-size="14.00">1.00</text>
</g>
<!-- node239&#45;&gt;node45 -->
<g id="edge5" class="edge">
<title>node239&#45;&gt;node45</title>
<path fill="none" stroke="black" d="M263.55,-98.86C278.34,-102.75 297.6,-107.8 313.46,-111.96"/>
<polygon fill="black" stroke="black" points="312.27,-115.27 322.83,-114.42 314.05,-108.5 312.27,-115.27"/>
<text text-anchor="middle" x="293.95" y="-111.94" font-family="Times,serif" font-size="14.00">1.45</text>
</g>
</g>
</svg>
