<?xml version="1.0" encoding="UTF-8" standalone="no"?>
<!DOCTYPE svg PUBLIC "-//W3C//DTD SVG 1.1//EN"
 "http://www.w3.org/Graphics/SVG/1.1/DTD/svg11.dtd">
<!-- Generated by graphviz version 9.0.0 (20230911.1827)
 -->
<!-- Title: neat Pages: 1 -->
<svg width="272pt" height="169pt"
 viewBox="0.00 0.00 271.71 169.13" xmlns="http://www.w3.org/2000/svg" xmlns:xlink="http://www.w3.org/1999/xlink">
<g id="graph0" class="graph" transform="scale(1 1) rotate(0) translate(4 165.13)">
<title>neat</title>
<polygon fill="white" stroke="none" points="-4,4 -4,-165.13 267.71,-165.13 267.71,4 -4,4"/>
<!-- node0 -->
<g id="node1" class="node">
<title>node0</title>
<ellipse fill="lightblue" stroke="black" cx="20.13" cy="-85" rx="18" ry="18"/>
<text text-anchor="middle" x="20.13" y="-79.95" font-family="Times,serif" font-size="14.00">0</text>
</g>
<!-- node185 -->
<g id="node4" class="node">
<title>node185</title>
<ellipse fill="lightgray" stroke="black" cx="129.5" cy="-25" rx="24.74" ry="24.74"/>
<text text-anchor="middle" x="129.5" y="-19.95" font-family="Times,serif" font-size="14.00">185</text>
</g>
<!-- node0&#45;&gt;node185 -->
<g id="edge4" class="edge">
<title>node0&#45;&gt;node185</title>
<path fill="none" stroke="black" d="M36.06,-76.66C51.86,-67.83 77.25,-53.64 97.43,-42.36"/>
<polygon fill="black" stroke="black" points="99.08,-45.45 106.1,-37.52 95.67,-39.34 99.08,-45.45"/>
<text text-anchor="middle" x="72.51" y="-66.2" font-family="Times,serif" font-size="14.00">&#45;0.66</text>
</g>
<!-- node231 -->
<g id="node6" class="node">
<title>node231</title>
<ellipse fill="lightgray" stroke="black" cx="129.5" cy="-98" rx="24.74" ry="24.74"/>
<text text-anchor="middle" x="129.5" y="-92.95" font-family="Times,serif" font-size="14.00">231</text>
</g>
<!-- node0&#45;&gt;node231 -->
<g id="edge3" class="edge">
<title>node0&#45;&gt;node231</title>
<path fill="none" stroke="black" d="M38.38,-87.09C53.14,-88.88 74.84,-91.5 93.26,-93.73"/>
<polygon fill="black" stroke="black" points="92.64,-97.18 102.99,-94.91 93.48,-90.23 92.64,-97.18"/>
<text text-anchor="middle" x="72.51" y="-95.2" font-family="Times,serif" font-size="14.00">1.00</text>
</g>
<!-- node1 -->
<g id="node2" class="node">
<title>node1</title>
<ellipse fill="lightblue" stroke="black" cx="20.13" cy="-18" rx="18" ry="18"/>
<text text-anchor="middle" x="20.13" y="-12.95" font-family="Times,serif" font-size="14.00">1</text>
</g>
<!-- node1&#45;&gt;node185 -->
<g id="edge1" class="edge">
<title>node1&#45;&gt;node185</title>
<path fill="none" stroke="black" d="M38.43,-17.89C51.68,-17.92 70.4,-18.24 86.76,-19.5 88.95,-19.67 91.2,-19.87 93.46,-20.1"/>
<polygon fill="black" stroke="black" points="92.87,-23.56 103.21,-21.24 93.68,-16.6 92.87,-23.56"/>
<text text-anchor="middle" x="72.51" y="-23.2" font-family="Times,serif" font-size="14.00">1.42</text>
</g>
<!-- node21 -->
<g id="node3" class="node">
<title>node21</title>
<ellipse fill="lightgreen" stroke="black" cx="20.13" cy="-141" rx="20.13" ry="20.13"/>
<text text-anchor="middle" x="20.13" y="-135.95" font-family="Times,serif" font-size="14.00">21</text>
</g>
<!-- node202 -->
<g id="node5" class="node">
<title>node202</title>
<ellipse fill="lightgray" stroke="black" cx="238.97" cy="-25" rx="24.74" ry="24.74"/>
<text text-anchor="middle" x="238.97" y="-19.95" font-family="Times,serif" font-size="14.00">202</text>
</g>
<!-- node185&#45;&gt;node202 -->
<g id="edge2" class="edge">
<title>node185&#45;&gt;node202</title>
<path fill="none" stroke="black" d="M154.62,-25C168.72,-25 186.79,-25 202.49,-25"/>
<polygon fill="black" stroke="black" points="202.42,-28.5 212.42,-25 202.42,-21.5 202.42,-28.5"/>
<text text-anchor="middle" x="184.24" y="-28.2" font-family="Times,serif" font-size="14.00">1.00</text>
</g>
</g>
</svg>
