<?xml version="1.0" encoding="UTF-8" standalone="no"?>
<!DOCTYPE svg PUBLIC "-//W3C//DTD SVG 1.1//EN"
 "http://www.w3.org/Graphics/SVG/1.1/DTD/svg11.dtd">
<!-- Generated by graphviz version 9.0.0 (20230911.1827)
 -->
<!-- Title: neat Pages: 1 -->
<svg width="372pt" height="112pt"
 viewBox="0.00 0.00 372.21 111.74" xmlns="http://www.w3.org/2000/svg" xmlns:xlink="http://www.w3.org/1999/xlink">
<g id="graph0" class="graph" transform="scale(1 1) rotate(0) translate(4 107.74)">
<title>neat</title>
<polygon fill="white" stroke="none" points="-4,4 -4,-107.74 368.21,-107.74 368.21,4 -4,4"/>
<!-- node0 -->
<g id="node1" class="node">
<title>node0</title>
<ellipse fill="lightblue" stroke="black" cx="234.71" cy="-85.74" rx="18" ry="18"/>
<text text-anchor="middle" x="234.71" y="-80.69" font-family="Times,serif" font-size="14.00">0</text>
</g>
<!-- node21 -->
<g id="node3" class="node">
<title>node21</title>
<ellipse fill="lightgreen" stroke="black" cx="344.08" cy="-55.74" rx="20.13" ry="20.13"/>
<text text-anchor="middle" x="344.08" y="-50.69" font-family="Times,serif" font-size="14.00">21</text>
</g>
<!-- node0&#45;&gt;node21 -->
<g id="edge1" class="edge">
<title>node0&#45;&gt;node21</title>
<path fill="none" stroke="black" d="M252.49,-81.05C268.76,-76.5 293.79,-69.51 313.43,-64.02"/>
<polygon fill="black" stroke="black" points="314.11,-67.47 322.8,-61.4 312.22,-60.72 314.11,-67.47"/>
<text text-anchor="middle" x="291.7" y="-75.94" font-family="Times,serif" font-size="14.00">&#45;2.49</text>
</g>
<!-- node1 -->
<g id="node2" class="node">
<title>node1</title>
<ellipse fill="lightblue" stroke="black" cx="18" cy="-24.74" rx="18" ry="18"/>
<text text-anchor="middle" x="18" y="-19.69" font-family="Times,serif" font-size="14.00">1</text>
</g>
<!-- node185 -->
<g id="node4" class="node">
<title>node185</title>
<ellipse fill="lightgray" stroke="black" cx="120.74" cy="-24.74" rx="24.74" ry="24.74"/>
<text text-anchor="middle" x="120.74" y="-19.69" font-family="Times,serif" font-size="14.00">185</text>
</g>
<!-- node1&#45;&gt;node185 -->
<g id="edge2" class="edge">
<title>node1&#45;&gt;node185</title>
<path fill="none" stroke="black" d="M36.09,-24.74C49.28,-24.74 67.98,-24.74 84.36,-24.74"/>
<polygon fill="black" stroke="black" points="84.24,-28.24 94.24,-24.74 84.24,-21.24 84.24,-28.24"/>
<text text-anchor="middle" x="66" y="-27.94" font-family="Times,serif" font-size="14.00">4.62</text>
</g>
<!-- node202 -->
<g id="node5" class="node">
<title>node202</title>
<ellipse fill="lightgray" stroke="black" cx="234.71" cy="-24.74" rx="24.74" ry="24.74"/>
<text text-anchor="middle" x="234.71" y="-19.69" font-family="Times,serif" font-size="14.00">202</text>
</g>
<!-- node185&#45;&gt;node202 -->
<g id="edge3" class="edge">
<title>node185&#45;&gt;node202</title>
<path fill="none" stroke="black" d="M145.76,-24.74C161.11,-24.74 181.28,-24.74 198.43,-24.74"/>
<polygon fill="black" stroke="black" points="198.22,-28.24 208.22,-24.74 198.22,-21.24 198.22,-28.24"/>
<text text-anchor="middle" x="177.72" y="-27.94" font-family="Times,serif" font-size="14.00">&#45;1.95</text>
</g>
<!-- node202&#45;&gt;node21 -->
<g id="edge4" class="edge">
<title>node202&#45;&gt;node21</title>
<path fill="none" stroke="black" d="M259.01,-31.46C275.1,-36.11 296.62,-42.32 313.85,-47.3"/>
<polygon fill="black" stroke="black" points="312.43,-50.53 323.01,-49.94 314.37,-43.81 312.43,-50.53"/>
<text text-anchor="middle" x="291.7" y="-48.94" font-family="Times,serif" font-size="14.00">0.80</text>
</g>
</g>
</svg>
