<?xml version="1.0" encoding="UTF-8" standalone="no"?>
<!DOCTYPE svg PUBLIC "-//W3C//DTD SVG 1.1//EN"
 "http://www.w3.org/Graphics/SVG/1.1/DTD/svg11.dtd">
<!-- Generated by graphviz version 9.0.0 (20230911.1827)
 -->
<!-- Title: neat Pages: 1 -->
<svg width="167pt" height="179pt"
 viewBox="0.00 0.00 166.95 178.74" xmlns="http://www.w3.org/2000/svg" xmlns:xlink="http://www.w3.org/1999/xlink">
<g id="graph0" class="graph" transform="scale(1 1) rotate(0) translate(4 174.74)">
<title>neat</title>
<polygon fill="white" stroke="none" points="-4,4 -4,-174.74 162.95,-174.74 162.95,4 -4,4"/>
<!-- node0 -->
<g id="node1" class="node">
<title>node0</title>
<ellipse fill="lightblue" stroke="black" cx="24.74" cy="-85" rx="18" ry="18"/>
<text text-anchor="middle" x="24.74" y="-79.95" font-family="Times,serif" font-size="14.00">0</text>
</g>
<!-- node91 -->
<g id="node3" class="node">
<title>node91</title>
<ellipse fill="lightgreen" stroke="black" cx="134.21" cy="-27" rx="20.13" ry="20.13"/>
<text text-anchor="middle" x="134.21" y="-21.95" font-family="Times,serif" font-size="14.00">91</text>
</g>
<!-- node0&#45;&gt;node91 -->
<g id="edge3" class="edge">
<title>node0&#45;&gt;node91</title>
<path fill="none" stroke="black" d="M41.14,-76.69C58.04,-67.57 85.5,-52.75 106.05,-41.66"/>
<polygon fill="black" stroke="black" points="107.6,-44.8 114.73,-36.97 104.27,-38.64 107.6,-44.8"/>
<text text-anchor="middle" x="79.47" y="-64.2" font-family="Times,serif" font-size="14.00">1.02</text>
</g>
<!-- node165 -->
<g id="node4" class="node">
<title>node165</title>
<ellipse fill="lightgray" stroke="black" cx="134.21" cy="-98" rx="24.74" ry="24.74"/>
<text text-anchor="middle" x="134.21" y="-92.95" font-family="Times,serif" font-size="14.00">165</text>
</g>
<!-- node0&#45;&gt;node165 -->
<g id="edge1" class="edge">
<title>node0&#45;&gt;node165</title>
<path fill="none" stroke="black" d="M43.01,-87.09C57.77,-88.88 79.5,-91.5 97.94,-93.73"/>
<polygon fill="black" stroke="black" points="97.33,-97.18 107.68,-94.91 98.17,-90.24 97.33,-97.18"/>
<text text-anchor="middle" x="79.47" y="-95.2" font-family="Times,serif" font-size="14.00">3.78</text>
</g>
<!-- node1 -->
<g id="node2" class="node">
<title>node1</title>
<ellipse fill="lightblue" stroke="black" cx="24.74" cy="-18" rx="18" ry="18"/>
<text text-anchor="middle" x="24.74" y="-12.95" font-family="Times,serif" font-size="14.00">1</text>
</g>
<!-- node1&#45;&gt;node91 -->
<g id="edge2" class="edge">
<title>node1&#45;&gt;node91</title>
<path fill="none" stroke="black" d="M43.08,-17.66C56.36,-17.59 75.12,-17.85 91.47,-19.5 95.21,-19.88 99.11,-20.4 102.97,-21"/>
<polygon fill="black" stroke="black" points="102.24,-24.42 112.69,-22.68 103.44,-17.53 102.24,-24.42"/>
<text text-anchor="middle" x="79.47" y="-23.2" font-family="Times,serif" font-size="14.00">0.09</text>
</g>
<!-- node190 -->
<g id="node5" class="node">
<title>node190</title>
<ellipse fill="lightgray" stroke="black" cx="24.74" cy="-146" rx="24.74" ry="24.74"/>
<text text-anchor="middle" x="24.74" y="-140.95" font-family="Times,serif" font-size="14.00">190</text>
</g>
</g>
</svg>
