<?xml version="1.0" encoding="UTF-8" standalone="no"?>
<!DOCTYPE svg PUBLIC "-//W3C//DTD SVG 1.1//EN"
 "http://www.w3.org/Graphics/SVG/1.1/DTD/svg11.dtd">
<!-- Generated by graphviz version 9.0.0 (20230911.1827)
 -->
<!-- Title: neat Pages: 1 -->
<svg width="267pt" height="107pt"
 viewBox="0.00 0.00 267.45 107.00" xmlns="http://www.w3.org/2000/svg" xmlns:xlink="http://www.w3.org/1999/xlink">
<g id="graph0" class="graph" transform="scale(1 1) rotate(0) translate(4 103)">
<title>neat</title>
<polygon fill="white" stroke="none" points="-4,4 -4,-103 263.45,-103 263.45,4 -4,4"/>
<!-- node0 -->
<g id="node1" class="node">
<title>node0</title>
<ellipse fill="lightblue" stroke="black" cx="18" cy="-81" rx="18" ry="18"/>
<text text-anchor="middle" x="18" y="-75.95" font-family="Times,serif" font-size="14.00">0</text>
</g>
<!-- node141 -->
<g id="node3" class="node">
<title>node141</title>
<ellipse fill="lightgreen" stroke="black" cx="234.71" cy="-60" rx="24.74" ry="24.74"/>
<text text-anchor="middle" x="234.71" y="-54.95" font-family="Times,serif" font-size="14.00">141</text>
</g>
<!-- node0&#45;&gt;node141 -->
<g id="edge1" class="edge">
<title>node0&#45;&gt;node141</title>
<path fill="none" stroke="black" d="M36.27,-80.62C67.49,-79.75 135.35,-77.03 191.97,-69 194.33,-68.67 196.74,-68.28 199.17,-67.85"/>
<polygon fill="black" stroke="black" points="199.8,-71.29 208.93,-65.93 198.45,-64.42 199.8,-71.29"/>
<text text-anchor="middle" x="125.24" y="-80.2" font-family="Times,serif" font-size="14.00">2.88</text>
</g>
<!-- node159 -->
<g id="node4" class="node">
<title>node159</title>
<ellipse fill="lightgray" stroke="black" cx="125.24" cy="-29" rx="24.74" ry="24.74"/>
<text text-anchor="middle" x="125.24" y="-23.95" font-family="Times,serif" font-size="14.00">159</text>
</g>
<!-- node0&#45;&gt;node159 -->
<g id="edge4" class="edge">
<title>node0&#45;&gt;node159</title>
<path fill="none" stroke="black" d="M33.72,-71.32C39.87,-67.44 47.17,-63.06 54,-59.5 65.92,-53.29 79.37,-47.23 91.29,-42.17"/>
<polygon fill="black" stroke="black" points="92.44,-45.49 100.32,-38.41 89.74,-39.02 92.44,-45.49"/>
<text text-anchor="middle" x="68.25" y="-62.2" font-family="Times,serif" font-size="14.00">&#45;0.87</text>
</g>
<!-- node1 -->
<g id="node2" class="node">
<title>node1</title>
<ellipse fill="lightblue" stroke="black" cx="18" cy="-18" rx="18" ry="18"/>
<text text-anchor="middle" x="18" y="-12.95" font-family="Times,serif" font-size="14.00">1</text>
</g>
<!-- node1&#45;&gt;node159 -->
<g id="edge2" class="edge">
<title>node1&#45;&gt;node159</title>
<path fill="none" stroke="black" d="M36.32,-17.48C49.12,-17.32 66.96,-17.57 82.5,-19.5 84.86,-19.79 87.29,-20.16 89.72,-20.58"/>
<polygon fill="black" stroke="black" points="89.01,-24.01 99.5,-22.54 90.38,-17.15 89.01,-24.01"/>
<text text-anchor="middle" x="68.25" y="-23.2" font-family="Times,serif" font-size="14.00">0.83</text>
</g>
<!-- node159&#45;&gt;node141 -->
<g id="edge3" class="edge">
<title>node159&#45;&gt;node141</title>
<path fill="none" stroke="black" d="M149.56,-35.73C164.2,-39.95 183.35,-45.47 199.67,-50.18"/>
<polygon fill="black" stroke="black" points="198.4,-53.46 208.98,-52.87 200.34,-46.73 198.4,-53.46"/>
<text text-anchor="middle" x="179.97" y="-51.2" font-family="Times,serif" font-size="14.00">0.13</text>
</g>
</g>
</svg>
