<?xml version="1.0" encoding="UTF-8" standalone="no"?>
<!DOCTYPE svg PUBLIC "-//W3C//DTD SVG 1.1//EN"
 "http://www.w3.org/Graphics/SVG/1.1/DTD/svg11.dtd">
<!-- Generated by graphviz version 9.0.0 (20230911.1827)
 -->
<!-- Title: neat Pages: 1 -->
<svg width="267pt" height="167pt"
 viewBox="0.00 0.00 267.45 166.74" xmlns="http://www.w3.org/2000/svg" xmlns:xlink="http://www.w3.org/1999/xlink">
<g id="graph0" class="graph" transform="scale(1 1) rotate(0) translate(4 162.74)">
<title>neat</title>
<polygon fill="white" stroke="none" points="-4,4 -4,-162.74 263.45,-162.74 263.45,4 -4,4"/>
<!-- node0 -->
<g id="node1" class="node">
<title>node0</title>
<ellipse fill="lightblue" stroke="black" cx="18" cy="-18" rx="18" ry="18"/>
<text text-anchor="middle" x="18" y="-12.95" font-family="Times,serif" font-size="14.00">0</text>
</g>
<!-- node148 -->
<g id="node3" class="node">
<title>node148</title>
<ellipse fill="lightgreen" stroke="black" cx="234.71" cy="-28" rx="24.74" ry="24.74"/>
<text text-anchor="middle" x="234.71" y="-22.95" font-family="Times,serif" font-size="14.00">148</text>
</g>
<!-- node0&#45;&gt;node148 -->
<g id="edge1" class="edge">
<title>node0&#45;&gt;node148</title>
<path fill="none" stroke="black" d="M36,-13.86C51.51,-10.3 75.14,-5.45 96,-3.5 117.89,-1.46 123.69,-0.53 145.47,-3.5 163.91,-6.01 183.92,-11.34 200.22,-16.4"/>
<polygon fill="black" stroke="black" points="198.82,-19.62 209.41,-19.35 200.96,-12.96 198.82,-19.62"/>
<text text-anchor="middle" x="120.74" y="-7.2" font-family="Times,serif" font-size="14.00">2.48</text>
</g>
<!-- node276 -->
<g id="node6" class="node">
<title>node276</title>
<ellipse fill="lightgray" stroke="black" cx="120.74" cy="-54" rx="24.74" ry="24.74"/>
<text text-anchor="middle" x="120.74" y="-48.95" font-family="Times,serif" font-size="14.00">276</text>
</g>
<!-- node0&#45;&gt;node276 -->
<g id="edge4" class="edge">
<title>node0&#45;&gt;node276</title>
<path fill="none" stroke="black" d="M35.19,-23.78C48.96,-28.71 69.2,-35.94 86.43,-42.1"/>
<polygon fill="black" stroke="black" points="85.19,-45.37 95.79,-45.44 87.55,-38.78 85.19,-45.37"/>
<text text-anchor="middle" x="66" y="-42.2" font-family="Times,serif" font-size="14.00">3.28</text>
</g>
<!-- node1 -->
<g id="node2" class="node">
<title>node1</title>
<ellipse fill="lightblue" stroke="black" cx="18" cy="-134" rx="18" ry="18"/>
<text text-anchor="middle" x="18" y="-128.95" font-family="Times,serif" font-size="14.00">1</text>
</g>
<!-- node218 -->
<g id="node5" class="node">
<title>node218</title>
<ellipse fill="lightgray" stroke="black" cx="120.74" cy="-134" rx="24.74" ry="24.74"/>
<text text-anchor="middle" x="120.74" y="-128.95" font-family="Times,serif" font-size="14.00">218</text>
</g>
<!-- node1&#45;&gt;node218 -->
<g id="edge2" class="edge">
<title>node1&#45;&gt;node218</title>
<path fill="none" stroke="black" d="M36.09,-134C49.28,-134 67.98,-134 84.36,-134"/>
<polygon fill="black" stroke="black" points="84.24,-137.5 94.24,-134 84.24,-130.5 84.24,-137.5"/>
<text text-anchor="middle" x="66" y="-137.2" font-family="Times,serif" font-size="14.00">0.90</text>
</g>
<!-- node179 -->
<g id="node4" class="node">
<title>node179</title>
<ellipse fill="lightgray" stroke="black" cx="234.71" cy="-121" rx="24.74" ry="24.74"/>
<text text-anchor="middle" x="234.71" y="-115.95" font-family="Times,serif" font-size="14.00">179</text>
</g>
<!-- node218&#45;&gt;node148 -->
<g id="edge6" class="edge">
<title>node218&#45;&gt;node148</title>
<path fill="none" stroke="black" d="M141.63,-120.42C162.35,-106.28 191.84,-86.13 191.97,-86 200.34,-77.83 208.21,-67.82 214.8,-58.42"/>
<polygon fill="black" stroke="black" points="217.65,-60.46 220.34,-50.21 211.85,-56.54 217.65,-60.46"/>
<text text-anchor="middle" x="177.72" y="-108.2" font-family="Times,serif" font-size="14.00">&#45;1.80</text>
</g>
<!-- node218&#45;&gt;node179 -->
<g id="edge3" class="edge">
<title>node218&#45;&gt;node179</title>
<path fill="none" stroke="black" d="M145.8,-131.29C159.36,-129.76 176.62,-127.79 191.97,-126 194.15,-125.75 196.39,-125.48 198.64,-125.22"/>
<polygon fill="black" stroke="black" points="198.86,-128.72 208.37,-124.06 198.03,-121.76 198.86,-128.72"/>
<text text-anchor="middle" x="177.72" y="-133.2" font-family="Times,serif" font-size="14.00">&#45;1.23</text>
</g>
<!-- node276&#45;&gt;node148 -->
<g id="edge7" class="edge">
<title>node276&#45;&gt;node148</title>
<path fill="none" stroke="black" d="M141.17,-39.83C147.9,-35.69 155.71,-31.7 163.47,-29.5 174.62,-26.34 187.17,-25.32 198.54,-25.29"/>
<polygon fill="black" stroke="black" points="198.26,-28.78 208.35,-25.52 198.43,-21.78 198.26,-28.78"/>
<text text-anchor="middle" x="177.72" y="-33.2" font-family="Times,serif" font-size="14.00">&#45;1.73</text>
</g>
<!-- node276&#45;&gt;node179 -->
<g id="edge5" class="edge">
<title>node276&#45;&gt;node179</title>
<path fill="none" stroke="black" d="M145.67,-55.33C159.99,-57.04 178.06,-60.9 191.97,-69.5 200.63,-74.85 208.28,-82.64 214.6,-90.56"/>
<polygon fill="black" stroke="black" points="211.73,-92.57 220.48,-98.55 217.37,-88.42 211.73,-92.57"/>
<text text-anchor="middle" x="177.72" y="-73.2" font-family="Times,serif" font-size="14.00">&#45;0.05</text>
</g>
</g>
</svg>
