<?xml version="1.0" encoding="UTF-8" standalone="no"?>
<!DOCTYPE svg PUBLIC "-//W3C//DTD SVG 1.1//EN"
 "http://www.w3.org/Graphics/SVG/1.1/DTD/svg11.dtd">
<!-- Generated by graphviz version 9.0.0 (20230911.1827)
 -->
<!-- Title: neat Pages: 1 -->
<svg width="336pt" height="864pt"
 viewBox="0.00 0.00 335.61 864.00" xmlns="http://www.w3.org/2000/svg" xmlns:xlink="http://www.w3.org/1999/xlink">
<g id="graph0" class="graph" transform="scale(1 1) rotate(0) translate(4 860)">
<title>neat</title>
<polygon fill="white" stroke="none" points="-4,4 -4,-860 331.61,-860 331.61,4 -4,4"/>
<g id="clust1" class="cluster">
<title>cluster_0</title>
<path fill="none" stroke="gray" d="M20,-8C20,-8 307.61,-8 307.61,-8 313.61,-8 319.61,-14 319.61,-20 319.61,-20 319.61,-200 319.61,-200 319.61,-206 313.61,-212 307.61,-212 307.61,-212 20,-212 20,-212 14,-212 8,-206 8,-200 8,-200 8,-20 8,-20 8,-14 14,-8 20,-8"/>
<text text-anchor="middle" x="163.81" y="-194.7" font-family="Times,serif" font-size="14.00">Test 0,0 → 0</text>
</g>
<g id="clust2" class="cluster">
<title>cluster_1</title>
<path fill="none" stroke="gray" d="M20,-220C20,-220 307.61,-220 307.61,-220 313.61,-220 319.61,-226 319.61,-232 319.61,-232 319.61,-412 319.61,-412 319.61,-418 313.61,-424 307.61,-424 307.61,-424 20,-424 20,-424 14,-424 8,-418 8,-412 8,-412 8,-232 8,-232 8,-226 14,-220 20,-220"/>
<text text-anchor="middle" x="163.81" y="-406.7" font-family="Times,serif" font-size="14.00">Test 0,1 → 1</text>
</g>
<g id="clust3" class="cluster">
<title>cluster_2</title>
<path fill="none" stroke="gray" d="M20,-432C20,-432 307.61,-432 307.61,-432 313.61,-432 319.61,-438 319.61,-444 319.61,-444 319.61,-624 319.61,-624 319.61,-630 313.61,-636 307.61,-636 307.61,-636 20,-636 20,-636 14,-636 8,-630 8,-624 8,-624 8,-444 8,-444 8,-438 14,-432 20,-432"/>
<text text-anchor="middle" x="163.81" y="-618.7" font-family="Times,serif" font-size="14.00">Test 1,0 → 1</text>
</g>
<g id="clust4" class="cluster">
<title>cluster_3</title>
<path fill="none" stroke="gray" d="M20,-644C20,-644 307.61,-644 307.61,-644 313.61,-644 319.61,-650 319.61,-656 319.61,-656 319.61,-836 319.61,-836 319.61,-842 313.61,-848 307.61,-848 307.61,-848 20,-848 20,-848 14,-848 8,-842 8,-836 8,-836 8,-656 8,-656 8,-650 14,-644 20,-644"/>
<text text-anchor="middle" x="163.81" y="-830.7" font-family="Times,serif" font-size="14.00">Test 1,1 → 0</text>
</g>
<!-- node0_0 -->
<g id="node1" class="node">
<title>node0_0</title>
<ellipse fill="lightblue" stroke="black" cx="47.9" cy="-148" rx="31.9" ry="31.9"/>
<text text-anchor="middle" x="47.9" y="-142.95" font-family="Times,serif" font-size="14.00">0.000</text>
</g>
<!-- node1_0 -->
<g id="node2" class="node">
<title>node1_0</title>
<ellipse fill="lightblue" stroke="black" cx="47.9" cy="-48" rx="31.9" ry="31.9"/>
<text text-anchor="middle" x="47.9" y="-42.95" font-family="Times,serif" font-size="14.00">0.000</text>
</g>
<!-- node120_0 -->
<g id="node3" class="node">
<title>node120_0</title>
<ellipse fill="lightgreen" stroke="black" cx="279.71" cy="-52" rx="31.9" ry="31.9"/>
<text text-anchor="middle" x="279.71" y="-46.95" font-family="Times,serif" font-size="14.00">0.500</text>
</g>
<!-- node1_0&#45;&gt;node120_0 -->
<g id="edge1" class="edge">
<title>node1_0&#45;&gt;node120_0</title>
<path fill="none" stroke="black" d="M79.9,-48.54C120.16,-49.24 190.64,-50.47 235.96,-51.26"/>
<polygon fill="black" stroke="black" points="235.9,-54.76 245.96,-51.43 236.02,-47.76 235.9,-54.76"/>
<text text-anchor="middle" x="163.81" y="-53.2" font-family="Times,serif" font-size="14.00">4.07</text>
</g>
<!-- node0_1 -->
<g id="node4" class="node">
<title>node0_1</title>
<ellipse fill="lightblue" stroke="black" cx="47.9" cy="-360" rx="31.9" ry="31.9"/>
<text text-anchor="middle" x="47.9" y="-354.95" font-family="Times,serif" font-size="14.00">0.000</text>
</g>
<!-- node1_1 -->
<g id="node5" class="node">
<title>node1_1</title>
<ellipse fill="lightblue" stroke="black" cx="47.9" cy="-260" rx="31.9" ry="31.9"/>
<text text-anchor="middle" x="47.9" y="-254.95" font-family="Times,serif" font-size="14.00">1.000</text>
</g>
<!-- node120_1 -->
<g id="node6" class="node">
<title>node120_1</title>
<ellipse fill="lightgreen" stroke="black" cx="279.71" cy="-264" rx="31.9" ry="31.9"/>
<text text-anchor="middle" x="279.71" y="-258.95" font-family="Times,serif" font-size="14.00">1.000</text>
</g>
<!-- node1_1&#45;&gt;node120_1 -->
<g id="edge2" class="edge">
<title>node1_1&#45;&gt;node120_1</title>
<path fill="none" stroke="black" d="M79.9,-260.54C120.16,-261.24 190.64,-262.47 235.96,-263.26"/>
<polygon fill="black" stroke="black" points="235.9,-266.76 245.96,-263.43 236.02,-259.76 235.9,-266.76"/>
<text text-anchor="middle" x="163.81" y="-265.2" font-family="Times,serif" font-size="14.00">4.07</text>
</g>
<!-- node0_2 -->
<g id="node7" class="node">
<title>node0_2</title>
<ellipse fill="lightblue" stroke="black" cx="47.9" cy="-572" rx="31.9" ry="31.9"/>
<text text-anchor="middle" x="47.9" y="-566.95" font-family="Times,serif" font-size="14.00">1.000</text>
</g>
<!-- node1_2 -->
<g id="node8" class="node">
<title>node1_2</title>
<ellipse fill="lightblue" stroke="black" cx="47.9" cy="-472" rx="31.9" ry="31.9"/>
<text text-anchor="middle" x="47.9" y="-466.95" font-family="Times,serif" font-size="14.00">0.000</text>
</g>
<!-- node120_2 -->
<g id="node9" class="node">
<title>node120_2</title>
<ellipse fill="lightgreen" stroke="black" cx="279.71" cy="-476" rx="31.9" ry="31.9"/>
<text text-anchor="middle" x="279.71" y="-470.95" font-family="Times,serif" font-size="14.00">0.500</text>
</g>
<!-- node1_2&#45;&gt;node120_2 -->
<g id="edge3" class="edge">
<title>node1_2&#45;&gt;node120_2</title>
<path fill="none" stroke="black" d="M79.9,-472.54C120.16,-473.24 190.64,-474.47 235.96,-475.26"/>
<polygon fill="black" stroke="black" points="235.9,-478.76 245.96,-475.43 236.02,-471.76 235.9,-478.76"/>
<text text-anchor="middle" x="163.81" y="-477.2" font-family="Times,serif" font-size="14.00">4.07</text>
</g>
<!-- node0_3 -->
<g id="node10" class="node">
<title>node0_3</title>
<ellipse fill="lightblue" stroke="black" cx="47.9" cy="-784" rx="31.9" ry="31.9"/>
<text text-anchor="middle" x="47.9" y="-778.95" font-family="Times,serif" font-size="14.00">1.000</text>
</g>
<!-- node1_3 -->
<g id="node11" class="node">
<title>node1_3</title>
<ellipse fill="lightblue" stroke="black" cx="47.9" cy="-684" rx="31.9" ry="31.9"/>
<text text-anchor="middle" x="47.9" y="-678.95" font-family="Times,serif" font-size="14.00">1.000</text>
</g>
<!-- node120_3 -->
<g id="node12" class="node">
<title>node120_3</title>
<ellipse fill="lightgreen" stroke="black" cx="279.71" cy="-688" rx="31.9" ry="31.9"/>
<text text-anchor="middle" x="279.71" y="-682.95" font-family="Times,serif" font-size="14.00">1.000</text>
</g>
<!-- node1_3&#45;&gt;node120_3 -->
<g id="edge4" class="edge">
<title>node1_3&#45;&gt;node120_3</title>
<path fill="none" stroke="black" d="M79.9,-684.54C120.16,-685.24 190.64,-686.47 235.96,-687.26"/>
<polygon fill="black" stroke="black" points="235.9,-690.76 245.96,-687.43 236.02,-683.76 235.9,-690.76"/>
<text text-anchor="middle" x="163.81" y="-689.2" font-family="Times,serif" font-size="14.00">4.07</text>
</g>
</g>
</svg>
