<?xml version="1.0" encoding="UTF-8" standalone="no"?>
<!DOCTYPE svg PUBLIC "-//W3C//DTD SVG 1.1//EN"
 "http://www.w3.org/Graphics/SVG/1.1/DTD/svg11.dtd">
<!-- Generated by graphviz version 9.0.0 (20230911.1827)
 -->
<!-- Title: neat Pages: 1 -->
<svg width="276pt" height="198pt"
 viewBox="0.00 0.00 276.21 198.47" xmlns="http://www.w3.org/2000/svg" xmlns:xlink="http://www.w3.org/1999/xlink">
<g id="graph0" class="graph" transform="scale(1 1) rotate(0) translate(4 194.47)">
<title>neat</title>
<polygon fill="white" stroke="none" points="-4,4 -4,-194.47 272.21,-194.47 272.21,4 -4,4"/>
<!-- node0 -->
<g id="node1" class="node">
<title>node0</title>
<ellipse fill="lightblue" stroke="black" cx="24.74" cy="-104.74" rx="18" ry="18"/>
<text text-anchor="middle" x="24.74" y="-99.69" font-family="Times,serif" font-size="14.00">0</text>
</g>
<!-- node188 -->
<g id="node4" class="node">
<title>node188</title>
<ellipse fill="lightgray" stroke="black" cx="138.71" cy="-91.74" rx="24.74" ry="24.74"/>
<text text-anchor="middle" x="138.71" y="-86.69" font-family="Times,serif" font-size="14.00">188</text>
</g>
<!-- node0&#45;&gt;node188 -->
<g id="edge1" class="edge">
<title>node0&#45;&gt;node188</title>
<path fill="none" stroke="black" d="M42.74,-102.76C58.6,-100.92 82.73,-98.12 102.7,-95.8"/>
<polygon fill="black" stroke="black" points="102.85,-99.31 112.38,-94.68 102.05,-92.35 102.85,-99.31"/>
<text text-anchor="middle" x="81.72" y="-102.94" font-family="Times,serif" font-size="14.00">&#45;1.01</text>
</g>
<!-- node1 -->
<g id="node2" class="node">
<title>node1</title>
<ellipse fill="lightblue" stroke="black" cx="24.74" cy="-37.74" rx="18" ry="18"/>
<text text-anchor="middle" x="24.74" y="-32.69" font-family="Times,serif" font-size="14.00">1</text>
</g>
<!-- node1&#45;&gt;node188 -->
<g id="edge3" class="edge">
<title>node1&#45;&gt;node188</title>
<path fill="none" stroke="black" d="M41.31,-45.25C57.96,-53.28 84.84,-66.24 105.99,-76.44"/>
<polygon fill="black" stroke="black" points="104.25,-79.48 114.78,-80.68 107.29,-73.18 104.25,-79.48"/>
<text text-anchor="middle" x="81.72" y="-73.94" font-family="Times,serif" font-size="14.00">&#45;0.42</text>
</g>
<!-- node283 -->
<g id="node6" class="node">
<title>node283</title>
<ellipse fill="lightgray" stroke="black" cx="138.71" cy="-24.74" rx="24.74" ry="24.74"/>
<text text-anchor="middle" x="138.71" y="-19.69" font-family="Times,serif" font-size="14.00">283</text>
</g>
<!-- node1&#45;&gt;node283 -->
<g id="edge4" class="edge">
<title>node1&#45;&gt;node283</title>
<path fill="none" stroke="black" d="M42.19,-32.19C49.79,-29.89 59,-27.48 67.47,-26.24 78.64,-24.61 90.91,-23.96 102.03,-23.79"/>
<polygon fill="black" stroke="black" points="102.02,-27.3 112.02,-23.79 102.02,-20.3 102.02,-27.3"/>
<text text-anchor="middle" x="81.72" y="-28.94" font-family="Times,serif" font-size="14.00">1.00</text>
</g>
<!-- node36 -->
<g id="node3" class="node">
<title>node36</title>
<ellipse fill="lightgreen" stroke="black" cx="248.08" cy="-57.74" rx="20.13" ry="20.13"/>
<text text-anchor="middle" x="248.08" y="-52.69" font-family="Times,serif" font-size="14.00">36</text>
</g>
<!-- node188&#45;&gt;node36 -->
<g id="edge2" class="edge">
<title>node188&#45;&gt;node36</title>
<path fill="none" stroke="black" d="M162.75,-84.44C178.82,-79.35 200.41,-72.52 217.72,-67.04"/>
<polygon fill="black" stroke="black" points="218.45,-70.47 226.93,-64.12 216.34,-63.8 218.45,-70.47"/>
<text text-anchor="middle" x="195.7" y="-80.94" font-family="Times,serif" font-size="14.00">&#45;0.63</text>
</g>
<!-- node246 -->
<g id="node5" class="node">
<title>node246</title>
<ellipse fill="lightgray" stroke="black" cx="24.74" cy="-165.74" rx="24.74" ry="24.74"/>
<text text-anchor="middle" x="24.74" y="-160.69" font-family="Times,serif" font-size="14.00">246</text>
</g>
<!-- node283&#45;&gt;node36 -->
<g id="edge5" class="edge">
<title>node283&#45;&gt;node36</title>
<path fill="none" stroke="black" d="M162.81,-31.79C176.52,-35.97 194.23,-41.4 209.95,-46.24 212.51,-47.02 215.16,-47.84 217.83,-48.67"/>
<polygon fill="black" stroke="black" points="216.54,-51.93 227.13,-51.55 218.61,-45.25 216.54,-51.93"/>
<text text-anchor="middle" x="195.7" y="-48.94" font-family="Times,serif" font-size="14.00">0.55</text>
</g>
</g>
</svg>
