<?xml version="1.0" encoding="UTF-8" standalone="no"?>
<!DOCTYPE svg PUBLIC "-//W3C//DTD SVG 1.1//EN"
 "http://www.w3.org/Graphics/SVG/1.1/DTD/svg11.dtd">
<!-- Generated by graphviz version 9.0.0 (20230911.1827)
 -->
<!-- Title: neat Pages: 1 -->
<svg width="328pt" height="154pt"
 viewBox="0.00 0.00 328.42 153.81" xmlns="http://www.w3.org/2000/svg" xmlns:xlink="http://www.w3.org/1999/xlink">
<g id="graph0" class="graph" transform="scale(1 1) rotate(0) translate(4 149.81)">
<title>neat</title>
<polygon fill="white" stroke="none" points="-4,4 -4,-149.81 324.42,-149.81 324.42,4 -4,4"/>
<!-- node0 -->
<g id="node1" class="node">
<title>node0</title>
<ellipse fill="lightblue" stroke="black" cx="31.9" cy="-113.9" rx="31.9" ry="31.9"/>
<text text-anchor="middle" x="31.9" y="-108.85" font-family="Times,serif" font-size="14.00">0.000</text>
</g>
<!-- node197 -->
<g id="node4" class="node">
<title>node197</title>
<ellipse fill="lightgray" stroke="black" cx="160.21" cy="-97.9" rx="31.9" ry="31.9"/>
<text text-anchor="middle" x="160.21" y="-92.85" font-family="Times,serif" font-size="14.00">0.104</text>
</g>
<!-- node0&#45;&gt;node197 -->
<g id="edge1" class="edge">
<title>node0&#45;&gt;node197</title>
<path fill="none" stroke="black" d="M63.8,-109.99C79.86,-107.95 99.71,-105.44 117.15,-103.23"/>
<polygon fill="black" stroke="black" points="117.21,-106.75 126.69,-102.02 116.33,-99.81 117.21,-106.75"/>
<text text-anchor="middle" x="96.06" y="-110.1" font-family="Times,serif" font-size="14.00">1.50</text>
</g>
<!-- node1 -->
<g id="node2" class="node">
<title>node1</title>
<ellipse fill="lightblue" stroke="black" cx="31.9" cy="-31.9" rx="31.9" ry="31.9"/>
<text text-anchor="middle" x="31.9" y="-26.85" font-family="Times,serif" font-size="14.00">1.000</text>
</g>
<!-- node45 -->
<g id="node3" class="node">
<title>node45</title>
<ellipse fill="lightgreen" stroke="black" cx="288.51" cy="-47.9" rx="31.9" ry="31.9"/>
<text text-anchor="middle" x="288.51" y="-42.85" font-family="Times,serif" font-size="14.00">0.711</text>
</g>
<!-- node1&#45;&gt;node45 -->
<g id="edge4" class="edge">
<title>node1&#45;&gt;node45</title>
<path fill="none" stroke="black" d="M64.03,-33.33C96.14,-34.86 147.64,-37.47 192.11,-40.4 209.62,-41.56 228.92,-43.04 245.56,-44.38"/>
<polygon fill="black" stroke="black" points="244.83,-47.83 255.08,-45.15 245.4,-40.85 244.83,-47.83"/>
<text text-anchor="middle" x="160.21" y="-43.1" font-family="Times,serif" font-size="14.00">0.35</text>
</g>
<!-- node1&#45;&gt;node197 -->
<g id="edge3" class="edge">
<title>node1&#45;&gt;node197</title>
<path fill="none" stroke="black" d="M60.62,-46.39C78.47,-55.71 101.91,-67.96 121.45,-78.17"/>
<polygon fill="black" stroke="black" points="119.73,-81.22 130.21,-82.75 122.97,-75.02 119.73,-81.22"/>
<text text-anchor="middle" x="96.06" y="-73.1" font-family="Times,serif" font-size="14.00">&#45;0.44</text>
</g>
<!-- node197&#45;&gt;node45 -->
<g id="edge2" class="edge">
<title>node197&#45;&gt;node45</title>
<path fill="none" stroke="black" d="M190.19,-86.43C207.35,-79.64 229.35,-70.93 248.08,-63.51"/>
<polygon fill="black" stroke="black" points="249.25,-66.81 257.26,-59.88 246.68,-60.3 249.25,-66.81"/>
<text text-anchor="middle" x="224.36" y="-80.1" font-family="Times,serif" font-size="14.00">&#45;1.61</text>
</g>
</g>
</svg>
