<?xml version="1.0" encoding="UTF-8" standalone="no"?>
<!DOCTYPE svg PUBLIC "-//W3C//DTD SVG 1.1//EN"
 "http://www.w3.org/Graphics/SVG/1.1/DTD/svg11.dtd">
<!-- Generated by graphviz version 9.0.0 (20230911.1827)
 -->
<!-- Title: neat Pages: 1 -->
<svg width="267pt" height="131pt"
 viewBox="0.00 0.00 267.45 130.74" xmlns="http://www.w3.org/2000/svg" xmlns:xlink="http://www.w3.org/1999/xlink">
<g id="graph0" class="graph" transform="scale(1 1) rotate(0) translate(4 126.74)">
<title>neat</title>
<polygon fill="white" stroke="none" points="-4,4 -4,-126.74 263.45,-126.74 263.45,4 -4,4"/>
<!-- node0 -->
<g id="node1" class="node">
<title>node0</title>
<ellipse fill="lightblue" stroke="black" cx="18" cy="-85" rx="18" ry="18"/>
<text text-anchor="middle" x="18" y="-79.95" font-family="Times,serif" font-size="14.00">0</text>
</g>
<!-- node91 -->
<g id="node3" class="node">
<title>node91</title>
<ellipse fill="lightgreen" stroke="black" cx="125.24" cy="-27" rx="20.13" ry="20.13"/>
<text text-anchor="middle" x="125.24" y="-21.95" font-family="Times,serif" font-size="14.00">91</text>
</g>
<!-- node0&#45;&gt;node91 -->
<g id="edge4" class="edge">
<title>node0&#45;&gt;node91</title>
<path fill="none" stroke="black" d="M34.08,-76.69C50.53,-67.62 77.21,-52.92 97.28,-41.85"/>
<polygon fill="black" stroke="black" points="98.7,-45.07 105.77,-37.18 95.32,-38.94 98.7,-45.07"/>
<text text-anchor="middle" x="68.25" y="-68.2" font-family="Times,serif" font-size="14.00">&#45;0.39</text>
</g>
<!-- node165 -->
<g id="node4" class="node">
<title>node165</title>
<ellipse fill="lightgray" stroke="black" cx="125.24" cy="-98" rx="24.74" ry="24.74"/>
<text text-anchor="middle" x="125.24" y="-92.95" font-family="Times,serif" font-size="14.00">165</text>
</g>
<!-- node0&#45;&gt;node165 -->
<g id="edge2" class="edge">
<title>node0&#45;&gt;node165</title>
<path fill="none" stroke="black" d="M35.91,-87.09C50.21,-88.85 71.17,-91.44 89.08,-93.66"/>
<polygon fill="black" stroke="black" points="88.46,-97.11 98.81,-94.86 89.31,-90.16 88.46,-97.11"/>
<text text-anchor="middle" x="68.25" y="-96.2" font-family="Times,serif" font-size="14.00">3.00</text>
</g>
<!-- node1 -->
<g id="node2" class="node">
<title>node1</title>
<ellipse fill="lightblue" stroke="black" cx="18" cy="-18" rx="18" ry="18"/>
<text text-anchor="middle" x="18" y="-12.95" font-family="Times,serif" font-size="14.00">1</text>
</g>
<!-- node1&#45;&gt;node91 -->
<g id="edge1" class="edge">
<title>node1&#45;&gt;node91</title>
<path fill="none" stroke="black" d="M36.29,-17.69C49.09,-17.64 66.92,-17.93 82.5,-19.5 86.24,-19.88 90.14,-20.4 94,-21"/>
<polygon fill="black" stroke="black" points="93.27,-24.43 103.72,-22.68 94.46,-17.53 93.27,-24.43"/>
<text text-anchor="middle" x="68.25" y="-23.2" font-family="Times,serif" font-size="14.00">&#45;0.30</text>
</g>
<!-- node287 -->
<g id="node5" class="node">
<title>node287</title>
<ellipse fill="lightgray" stroke="black" cx="234.71" cy="-98" rx="24.74" ry="24.74"/>
<text text-anchor="middle" x="234.71" y="-92.95" font-family="Times,serif" font-size="14.00">287</text>
</g>
<!-- node165&#45;&gt;node287 -->
<g id="edge3" class="edge">
<title>node165&#45;&gt;node287</title>
<path fill="none" stroke="black" d="M150.36,-98C164.46,-98 182.53,-98 198.23,-98"/>
<polygon fill="black" stroke="black" points="198.16,-101.5 208.16,-98 198.16,-94.5 198.16,-101.5"/>
<text text-anchor="middle" x="179.97" y="-101.2" font-family="Times,serif" font-size="14.00">1.00</text>
</g>
</g>
</svg>
