<?xml version="1.0" encoding="UTF-8" standalone="no"?>
<!DOCTYPE svg PUBLIC "-//W3C//DTD SVG 1.1//EN"
 "http://www.w3.org/Graphics/SVG/1.1/DTD/svg11.dtd">
<!-- Generated by graphviz version 9.0.0 (20230911.1827)
 -->
<!-- Title: neat Pages: 1 -->
<svg width="368pt" height="105pt"
 viewBox="0.00 0.00 367.71 104.74" xmlns="http://www.w3.org/2000/svg" xmlns:xlink="http://www.w3.org/1999/xlink">
<g id="graph0" class="graph" transform="scale(1 1) rotate(0) translate(4 100.74)">
<title>neat</title>
<polygon fill="white" stroke="none" points="-4,4 -4,-100.74 363.71,-100.74 363.71,4 -4,4"/>
<!-- node0 -->
<g id="node1" class="node">
<title>node0</title>
<ellipse fill="lightblue" stroke="black" cx="18" cy="-24.74" rx="18" ry="18"/>
<text text-anchor="middle" x="18" y="-19.69" font-family="Times,serif" font-size="14.00">0</text>
</g>
<!-- node230 -->
<g id="node5" class="node">
<title>node230</title>
<ellipse fill="lightgray" stroke="black" cx="120.74" cy="-24.74" rx="24.74" ry="24.74"/>
<text text-anchor="middle" x="120.74" y="-19.69" font-family="Times,serif" font-size="14.00">230</text>
</g>
<!-- node0&#45;&gt;node230 -->
<g id="edge2" class="edge">
<title>node0&#45;&gt;node230</title>
<path fill="none" stroke="black" d="M36.09,-24.74C49.28,-24.74 67.98,-24.74 84.36,-24.74"/>
<polygon fill="black" stroke="black" points="84.24,-28.24 94.24,-24.74 84.24,-21.24 84.24,-28.24"/>
<text text-anchor="middle" x="66" y="-27.94" font-family="Times,serif" font-size="14.00">1.00</text>
</g>
<!-- node1 -->
<g id="node2" class="node">
<title>node1</title>
<ellipse fill="lightblue" stroke="black" cx="18" cy="-78.74" rx="18" ry="18"/>
<text text-anchor="middle" x="18" y="-73.69" font-family="Times,serif" font-size="14.00">1</text>
</g>
<!-- node71 -->
<g id="node3" class="node">
<title>node71</title>
<ellipse fill="lightgreen" stroke="black" cx="339.58" cy="-24.74" rx="20.13" ry="20.13"/>
<text text-anchor="middle" x="339.58" y="-19.69" font-family="Times,serif" font-size="14.00">71</text>
</g>
<!-- node182 -->
<g id="node4" class="node">
<title>node182</title>
<ellipse fill="lightgray" stroke="black" cx="234.71" cy="-24.74" rx="24.74" ry="24.74"/>
<text text-anchor="middle" x="234.71" y="-19.69" font-family="Times,serif" font-size="14.00">182</text>
</g>
<!-- node182&#45;&gt;node71 -->
<g id="edge1" class="edge">
<title>node182&#45;&gt;node71</title>
<path fill="none" stroke="black" d="M259.83,-24.74C274.22,-24.74 292.62,-24.74 308.02,-24.74"/>
<polygon fill="black" stroke="black" points="307.57,-28.24 317.57,-24.74 307.57,-21.24 307.57,-28.24"/>
<text text-anchor="middle" x="289.45" y="-27.94" font-family="Times,serif" font-size="14.00">2.82</text>
</g>
<!-- node230&#45;&gt;node182 -->
<g id="edge3" class="edge">
<title>node230&#45;&gt;node182</title>
<path fill="none" stroke="black" d="M145.76,-24.74C161.11,-24.74 181.28,-24.74 198.43,-24.74"/>
<polygon fill="black" stroke="black" points="198.22,-28.24 208.22,-24.74 198.22,-21.24 198.22,-28.24"/>
<text text-anchor="middle" x="177.72" y="-27.94" font-family="Times,serif" font-size="14.00">&#45;1.05</text>
</g>
</g>
</svg>
