<?xml version="1.0" encoding="UTF-8" standalone="no"?>
<!DOCTYPE svg PUBLIC "-//W3C//DTD SVG 1.1//EN"
 "http://www.w3.org/Graphics/SVG/1.1/DTD/svg11.dtd">
<!-- Generated by graphviz version 9.0.0 (20230911.1827)
 -->
<!-- Title: neat Pages: 1 -->
<svg width="324pt" height="236pt"
 viewBox="0.00 0.00 323.92 235.81" xmlns="http://www.w3.org/2000/svg" xmlns:xlink="http://www.w3.org/1999/xlink">
<g id="graph0" class="graph" transform="scale(1 1) rotate(0) translate(4 231.81)">
<title>neat</title>
<polygon fill="white" stroke="none" points="-4,4 -4,-231.81 319.92,-231.81 319.92,4 -4,4"/>
<!-- node0 -->
<g id="node1" class="node">
<title>node0</title>
<ellipse fill="lightblue" stroke="black" cx="31.9" cy="-133.9" rx="31.9" ry="31.9"/>
<text text-anchor="middle" x="31.9" y="-128.85" font-family="Times,serif" font-size="14.00">0.000</text>
</g>
<!-- node169 -->
<g id="node4" class="node">
<title>node169</title>
<ellipse fill="lightgray" stroke="black" cx="155.71" cy="-195.9" rx="31.9" ry="31.9"/>
<text text-anchor="middle" x="155.71" y="-190.85" font-family="Times,serif" font-size="14.00">0.500</text>
</g>
<!-- node0&#45;&gt;node169 -->
<g id="edge1" class="edge">
<title>node0&#45;&gt;node169</title>
<path fill="none" stroke="black" d="M60.85,-148.13C77.4,-156.55 98.61,-167.35 116.68,-176.55"/>
<polygon fill="black" stroke="black" points="115.05,-179.64 125.54,-181.06 118.22,-173.4 115.05,-179.64"/>
<text text-anchor="middle" x="93.81" y="-173.1" font-family="Times,serif" font-size="14.00">0.38</text>
</g>
<!-- node260 -->
<g id="node5" class="node">
<title>node260</title>
<ellipse fill="lightgray" stroke="black" cx="155.71" cy="-113.9" rx="31.9" ry="31.9"/>
<text text-anchor="middle" x="155.71" y="-108.85" font-family="Times,serif" font-size="14.00">0.500</text>
</g>
<!-- node0&#45;&gt;node260 -->
<g id="edge3" class="edge">
<title>node0&#45;&gt;node260</title>
<path fill="none" stroke="black" d="M63.64,-128.86C78.5,-126.42 96.56,-123.45 112.67,-120.81"/>
<polygon fill="black" stroke="black" points="113.19,-124.27 122.49,-119.19 112.05,-117.36 113.19,-124.27"/>
<text text-anchor="middle" x="93.81" y="-128.1" font-family="Times,serif" font-size="14.00">1.00</text>
</g>
<!-- node1 -->
<g id="node2" class="node">
<title>node1</title>
<ellipse fill="lightblue" stroke="black" cx="155.71" cy="-31.9" rx="31.9" ry="31.9"/>
<text text-anchor="middle" x="155.71" y="-26.85" font-family="Times,serif" font-size="14.00">1.000</text>
</g>
<!-- node118 -->
<g id="node3" class="node">
<title>node118</title>
<ellipse fill="lightgreen" stroke="black" cx="284.01" cy="-51.9" rx="31.9" ry="31.9"/>
<text text-anchor="middle" x="284.01" y="-46.85" font-family="Times,serif" font-size="14.00">0.808</text>
</g>
<!-- node1&#45;&gt;node118 -->
<g id="edge4" class="edge">
<title>node1&#45;&gt;node118</title>
<path fill="none" stroke="black" d="M187.61,-36.8C203.66,-39.34 223.52,-42.48 240.95,-45.24"/>
<polygon fill="black" stroke="black" points="240.08,-48.65 250.5,-46.75 241.17,-41.73 240.08,-48.65"/>
<text text-anchor="middle" x="219.86" y="-46.1" font-family="Times,serif" font-size="14.00">1.24</text>
</g>
<!-- node169&#45;&gt;node118 -->
<g id="edge2" class="edge">
<title>node169&#45;&gt;node118</title>
<path fill="none" stroke="black" d="M177.56,-172.12C198.59,-148.15 231.19,-110.98 254.58,-84.32"/>
<polygon fill="black" stroke="black" points="257.16,-86.68 261.13,-76.85 251.9,-82.06 257.16,-86.68"/>
<text text-anchor="middle" x="219.86" y="-139.1" font-family="Times,serif" font-size="14.00">&#45;1.89</text>
</g>
</g>
</svg>
