<?xml version="1.0" encoding="UTF-8" standalone="no"?>
<!DOCTYPE svg PUBLIC "-//W3C//DTD SVG 1.1//EN"
 "http://www.w3.org/Graphics/SVG/1.1/DTD/svg11.dtd">
<!-- Generated by graphviz version 9.0.0 (20230911.1827)
 -->
<!-- Title: neat Pages: 1 -->
<svg width="258pt" height="163pt"
 viewBox="0.00 0.00 258.24 162.87" xmlns="http://www.w3.org/2000/svg" xmlns:xlink="http://www.w3.org/1999/xlink">
<g id="graph0" class="graph" transform="scale(1 1) rotate(0) translate(4 158.87)">
<title>neat</title>
<polygon fill="white" stroke="none" points="-4,4 -4,-158.87 254.24,-158.87 254.24,4 -4,4"/>
<!-- node0 -->
<g id="node1" class="node">
<title>node0</title>
<ellipse fill="lightblue" stroke="black" cx="18" cy="-96.13" rx="18" ry="18"/>
<text text-anchor="middle" x="18" y="-91.08" font-family="Times,serif" font-size="14.00">0</text>
</g>
<!-- node182 -->
<g id="node4" class="node">
<title>node182</title>
<ellipse fill="lightgray" stroke="black" cx="125.24" cy="-63.13" rx="24.74" ry="24.74"/>
<text text-anchor="middle" x="125.24" y="-58.08" font-family="Times,serif" font-size="14.00">182</text>
</g>
<!-- node0&#45;&gt;node182 -->
<g id="edge2" class="edge">
<title>node0&#45;&gt;node182</title>
<path fill="none" stroke="black" d="M35.44,-90.97C50.09,-86.38 71.99,-79.51 90.38,-73.75"/>
<polygon fill="black" stroke="black" points="91.33,-77.12 99.83,-70.79 89.24,-70.44 91.33,-77.12"/>
<text text-anchor="middle" x="68.25" y="-87.33" font-family="Times,serif" font-size="14.00">&#45;0.25</text>
</g>
<!-- node209 -->
<g id="node5" class="node">
<title>node209</title>
<ellipse fill="lightgray" stroke="black" cx="125.24" cy="-130.13" rx="24.74" ry="24.74"/>
<text text-anchor="middle" x="125.24" y="-125.08" font-family="Times,serif" font-size="14.00">209</text>
</g>
<!-- node0&#45;&gt;node209 -->
<g id="edge3" class="edge">
<title>node0&#45;&gt;node209</title>
<path fill="none" stroke="black" d="M35.44,-101.44C50.09,-106.18 71.99,-113.25 90.38,-119.19"/>
<polygon fill="black" stroke="black" points="89.24,-122.5 99.83,-122.25 91.39,-115.84 89.24,-122.5"/>
<text text-anchor="middle" x="68.25" y="-119.33" font-family="Times,serif" font-size="14.00">1.00</text>
</g>
<!-- node1 -->
<g id="node2" class="node">
<title>node1</title>
<ellipse fill="lightblue" stroke="black" cx="18" cy="-33.13" rx="18" ry="18"/>
<text text-anchor="middle" x="18" y="-28.08" font-family="Times,serif" font-size="14.00">1</text>
</g>
<!-- node71 -->
<g id="node3" class="node">
<title>node71</title>
<ellipse fill="lightgreen" stroke="black" cx="230.11" cy="-20.13" rx="20.13" ry="20.13"/>
<text text-anchor="middle" x="230.11" y="-15.08" font-family="Times,serif" font-size="14.00">71</text>
</g>
<!-- node1&#45;&gt;node71 -->
<g id="edge1" class="edge">
<title>node1&#45;&gt;node71</title>
<path fill="none" stroke="black" d="M35.63,-27.66C51.94,-22.61 77.62,-15.46 100.5,-12.63 133.99,-8.48 172.68,-11.83 198.81,-15.28"/>
<polygon fill="black" stroke="black" points="197.97,-18.7 208.36,-16.63 198.95,-11.76 197.97,-18.7"/>
<text text-anchor="middle" x="125.24" y="-16.33" font-family="Times,serif" font-size="14.00">3.56</text>
</g>
<!-- node1&#45;&gt;node182 -->
<g id="edge5" class="edge">
<title>node1&#45;&gt;node182</title>
<path fill="none" stroke="black" d="M36.14,-36.41C49.01,-39.02 67,-43.01 82.5,-47.63 85.39,-48.49 88.36,-49.45 91.33,-50.46"/>
<polygon fill="black" stroke="black" points="89.87,-53.65 100.47,-53.71 92.22,-47.06 89.87,-53.65"/>
<text text-anchor="middle" x="68.25" y="-50.33" font-family="Times,serif" font-size="14.00">0.89</text>
</g>
<!-- node209&#45;&gt;node71 -->
<g id="edge4" class="edge">
<title>node209&#45;&gt;node71</title>
<path fill="none" stroke="black" d="M142.76,-112.46C160.46,-93.54 188.58,-63.47 207.89,-42.81"/>
<polygon fill="black" stroke="black" points="210.27,-45.4 214.54,-35.71 205.15,-40.62 210.27,-45.4"/>
<text text-anchor="middle" x="179.97" y="-87.33" font-family="Times,serif" font-size="14.00">2.16</text>
</g>
</g>
</svg>
