<?xml version="1.0" encoding="UTF-8" standalone="no"?>
<!DOCTYPE svg PUBLIC "-//W3C//DTD SVG 1.1//EN"
 "http://www.w3.org/Graphics/SVG/1.1/DTD/svg11.dtd">
<!-- Generated by graphviz version 9.0.0 (20230911.1827)
 -->
<!-- Title: neat Pages: 1 -->
<svg width="576pt" height="864pt"
 viewBox="0.00 0.00 576.42 864.00" xmlns="http://www.w3.org/2000/svg" xmlns:xlink="http://www.w3.org/1999/xlink">
<g id="graph0" class="graph" transform="scale(1 1) rotate(0) translate(4 860)">
<title>neat</title>
<polygon fill="white" stroke="none" points="-4,4 -4,-860 572.42,-860 572.42,4 -4,4"/>
<g id="clust1" class="cluster">
<title>cluster_0</title>
<path fill="none" stroke="gray" d="M20,-8C20,-8 548.42,-8 548.42,-8 554.42,-8 560.42,-14 560.42,-20 560.42,-20 560.42,-200 560.42,-200 560.42,-206 554.42,-212 548.42,-212 548.42,-212 20,-212 20,-212 14,-212 8,-206 8,-200 8,-200 8,-20 8,-20 8,-14 14,-8 20,-8"/>
<text text-anchor="middle" x="284.21" y="-194.7" font-family="Times,serif" font-size="14.00">Test 0,0 → 0</text>
</g>
<g id="clust2" class="cluster">
<title>cluster_1</title>
<path fill="none" stroke="gray" d="M20,-220C20,-220 548.42,-220 548.42,-220 554.42,-220 560.42,-226 560.42,-232 560.42,-232 560.42,-412 560.42,-412 560.42,-418 554.42,-424 548.42,-424 548.42,-424 20,-424 20,-424 14,-424 8,-418 8,-412 8,-412 8,-232 8,-232 8,-226 14,-220 20,-220"/>
<text text-anchor="middle" x="284.21" y="-406.7" font-family="Times,serif" font-size="14.00">Test 0,1 → 1</text>
</g>
<g id="clust3" class="cluster">
<title>cluster_2</title>
<path fill="none" stroke="gray" d="M20,-432C20,-432 548.42,-432 548.42,-432 554.42,-432 560.42,-438 560.42,-444 560.42,-444 560.42,-624 560.42,-624 560.42,-630 554.42,-636 548.42,-636 548.42,-636 20,-636 20,-636 14,-636 8,-630 8,-624 8,-624 8,-444 8,-444 8,-438 14,-432 20,-432"/>
<text text-anchor="middle" x="284.21" y="-618.7" font-family="Times,serif" font-size="14.00">Test 1,0 → 1</text>
</g>
<g id="clust4" class="cluster">
<title>cluster_3</title>
<path fill="none" stroke="gray" d="M20,-644C20,-644 548.42,-644 548.42,-644 554.42,-644 560.42,-650 560.42,-656 560.42,-656 560.42,-836 560.42,-836 560.42,-842 554.42,-848 548.42,-848 548.42,-848 20,-848 20,-848 14,-848 8,-842 8,-836 8,-836 8,-656 8,-656 8,-650 14,-644 20,-644"/>
<text text-anchor="middle" x="284.21" y="-830.7" font-family="Times,serif" font-size="14.00">Test 1,1 → 0</text>
</g>
<!-- node0_0 -->
<g id="node1" class="node">
<title>node0_0</title>
<ellipse fill="lightblue" stroke="black" cx="47.9" cy="-148" rx="31.9" ry="31.9"/>
<text text-anchor="middle" x="47.9" y="-142.95" font-family="Times,serif" font-size="14.00">0.000</text>
</g>
<!-- node105_0 -->
<g id="node3" class="node">
<title>node105_0</title>
<ellipse fill="lightgreen" stroke="black" cx="520.51" cy="-120" rx="31.9" ry="31.9"/>
<text text-anchor="middle" x="520.51" y="-114.95" font-family="Times,serif" font-size="14.00">0.001</text>
</g>
<!-- node0_0&#45;&gt;node105_0 -->
<g id="edge1" class="edge">
<title>node0_0&#45;&gt;node105_0</title>
<path fill="none" stroke="black" d="M80.15,-146.14C162.14,-141.26 383.59,-128.09 477.02,-122.53"/>
<polygon fill="black" stroke="black" points="477,-126.04 486.77,-121.95 476.58,-119.05 477,-126.04"/>
<text text-anchor="middle" x="284.21" y="-138.2" font-family="Times,serif" font-size="14.00">&#45;1.02</text>
</g>
<!-- node166_0 -->
<g id="node4" class="node">
<title>node166_0</title>
<ellipse fill="lightgray" stroke="black" cx="284.21" cy="-52" rx="31.9" ry="31.9"/>
<text text-anchor="middle" x="284.21" y="-46.95" font-family="Times,serif" font-size="14.00">0.500</text>
</g>
<!-- node0_0&#45;&gt;node166_0 -->
<g id="edge4" class="edge">
<title>node0_0&#45;&gt;node166_0</title>
<path fill="none" stroke="black" d="M77.63,-136.23C119.35,-119.14 196.84,-87.39 243.84,-68.13"/>
<polygon fill="black" stroke="black" points="244.92,-71.47 252.84,-64.44 242.26,-64.99 244.92,-71.47"/>
<text text-anchor="middle" x="166.06" y="-108.2" font-family="Times,serif" font-size="14.00">0.62</text>
</g>
<!-- node1_0 -->
<g id="node2" class="node">
<title>node1_0</title>
<ellipse fill="lightblue" stroke="black" cx="47.9" cy="-48" rx="31.9" ry="31.9"/>
<text text-anchor="middle" x="47.9" y="-42.95" font-family="Times,serif" font-size="14.00">0.000</text>
</g>
<!-- node1_0&#45;&gt;node166_0 -->
<g id="edge2" class="edge">
<title>node1_0&#45;&gt;node166_0</title>
<path fill="none" stroke="black" d="M80.02,-48.53C121.24,-49.23 194.15,-50.48 240.5,-51.27"/>
<polygon fill="black" stroke="black" points="240.39,-54.77 250.45,-51.44 240.51,-47.77 240.39,-54.77"/>
<text text-anchor="middle" x="166.06" y="-53.2" font-family="Times,serif" font-size="14.00">&#45;1.44</text>
</g>
<!-- node166_0&#45;&gt;node105_0 -->
<g id="edge3" class="edge">
<title>node166_0&#45;&gt;node105_0</title>
<path fill="none" stroke="black" d="M315.36,-60.75C356.92,-72.81 431.95,-94.59 478.56,-108.12"/>
<polygon fill="black" stroke="black" points="477.44,-111.44 488.02,-110.86 479.4,-104.71 477.44,-111.44"/>
<text text-anchor="middle" x="402.36" y="-93.2" font-family="Times,serif" font-size="14.00">&#45;2.78</text>
</g>
<!-- node0_1 -->
<g id="node5" class="node">
<title>node0_1</title>
<ellipse fill="lightblue" stroke="black" cx="47.9" cy="-360" rx="31.9" ry="31.9"/>
<text text-anchor="middle" x="47.9" y="-354.95" font-family="Times,serif" font-size="14.00">0.000</text>
</g>
<!-- node105_1 -->
<g id="node7" class="node">
<title>node105_1</title>
<ellipse fill="lightgreen" stroke="black" cx="520.51" cy="-332" rx="31.9" ry="31.9"/>
<text text-anchor="middle" x="520.51" y="-326.95" font-family="Times,serif" font-size="14.00">0.497</text>
</g>
<!-- node0_1&#45;&gt;node105_1 -->
<g id="edge5" class="edge">
<title>node0_1&#45;&gt;node105_1</title>
<path fill="none" stroke="black" d="M80.15,-358.14C162.14,-353.26 383.59,-340.09 477.02,-334.53"/>
<polygon fill="black" stroke="black" points="477,-338.04 486.77,-333.95 476.58,-331.05 477,-338.04"/>
<text text-anchor="middle" x="284.21" y="-350.2" font-family="Times,serif" font-size="14.00">&#45;1.02</text>
</g>
<!-- node166_1 -->
<g id="node8" class="node">
<title>node166_1</title>
<ellipse fill="lightgray" stroke="black" cx="284.21" cy="-264" rx="31.9" ry="31.9"/>
<text text-anchor="middle" x="284.21" y="-258.95" font-family="Times,serif" font-size="14.00">0.001</text>
</g>
<!-- node0_1&#45;&gt;node166_1 -->
<g id="edge8" class="edge">
<title>node0_1&#45;&gt;node166_1</title>
<path fill="none" stroke="black" d="M77.63,-348.23C119.35,-331.14 196.84,-299.39 243.84,-280.13"/>
<polygon fill="black" stroke="black" points="244.92,-283.47 252.84,-276.44 242.26,-276.99 244.92,-283.47"/>
<text text-anchor="middle" x="166.06" y="-320.2" font-family="Times,serif" font-size="14.00">0.62</text>
</g>
<!-- node1_1 -->
<g id="node6" class="node">
<title>node1_1</title>
<ellipse fill="lightblue" stroke="black" cx="47.9" cy="-260" rx="31.9" ry="31.9"/>
<text text-anchor="middle" x="47.9" y="-254.95" font-family="Times,serif" font-size="14.00">1.000</text>
</g>
<!-- node1_1&#45;&gt;node166_1 -->
<g id="edge6" class="edge">
<title>node1_1&#45;&gt;node166_1</title>
<path fill="none" stroke="black" d="M80.02,-260.53C121.24,-261.23 194.15,-262.48 240.5,-263.27"/>
<polygon fill="black" stroke="black" points="240.39,-266.77 250.45,-263.44 240.51,-259.77 240.39,-266.77"/>
<text text-anchor="middle" x="166.06" y="-265.2" font-family="Times,serif" font-size="14.00">&#45;1.44</text>
</g>
<!-- node166_1&#45;&gt;node105_1 -->
<g id="edge7" class="edge">
<title>node166_1&#45;&gt;node105_1</title>
<path fill="none" stroke="black" d="M315.36,-272.75C356.92,-284.81 431.95,-306.59 478.56,-320.12"/>
<polygon fill="black" stroke="black" points="477.44,-323.44 488.02,-322.86 479.4,-316.71 477.44,-323.44"/>
<text text-anchor="middle" x="402.36" y="-305.2" font-family="Times,serif" font-size="14.00">&#45;2.78</text>
</g>
<!-- node0_2 -->
<g id="node9" class="node">
<title>node0_2</title>
<ellipse fill="lightblue" stroke="black" cx="47.9" cy="-572" rx="31.9" ry="31.9"/>
<text text-anchor="middle" x="47.9" y="-566.95" font-family="Times,serif" font-size="14.00">1.000</text>
</g>
<!-- node105_2 -->
<g id="node11" class="node">
<title>node105_2</title>
<ellipse fill="lightgreen" stroke="black" cx="520.51" cy="-544" rx="31.9" ry="31.9"/>
<text text-anchor="middle" x="520.51" y="-538.95" font-family="Times,serif" font-size="14.00">0.000</text>
</g>
<!-- node0_2&#45;&gt;node105_2 -->
<g id="edge9" class="edge">
<title>node0_2&#45;&gt;node105_2</title>
<path fill="none" stroke="black" d="M80.15,-570.14C162.14,-565.26 383.59,-552.09 477.02,-546.53"/>
<polygon fill="black" stroke="black" points="477,-550.04 486.77,-545.95 476.58,-543.05 477,-550.04"/>
<text text-anchor="middle" x="284.21" y="-562.2" font-family="Times,serif" font-size="14.00">&#45;1.02</text>
</g>
<!-- node166_2 -->
<g id="node12" class="node">
<title>node166_2</title>
<ellipse fill="lightgray" stroke="black" cx="284.21" cy="-476" rx="31.9" ry="31.9"/>
<text text-anchor="middle" x="284.21" y="-470.95" font-family="Times,serif" font-size="14.00">0.953</text>
</g>
<!-- node0_2&#45;&gt;node166_2 -->
<g id="edge12" class="edge">
<title>node0_2&#45;&gt;node166_2</title>
<path fill="none" stroke="black" d="M77.63,-560.23C119.35,-543.14 196.84,-511.39 243.84,-492.13"/>
<polygon fill="black" stroke="black" points="244.92,-495.47 252.84,-488.44 242.26,-488.99 244.92,-495.47"/>
<text text-anchor="middle" x="166.06" y="-532.2" font-family="Times,serif" font-size="14.00">0.62</text>
</g>
<!-- node1_2 -->
<g id="node10" class="node">
<title>node1_2</title>
<ellipse fill="lightblue" stroke="black" cx="47.9" cy="-472" rx="31.9" ry="31.9"/>
<text text-anchor="middle" x="47.9" y="-466.95" font-family="Times,serif" font-size="14.00">0.000</text>
</g>
<!-- node1_2&#45;&gt;node166_2 -->
<g id="edge10" class="edge">
<title>node1_2&#45;&gt;node166_2</title>
<path fill="none" stroke="black" d="M80.02,-472.53C121.24,-473.23 194.15,-474.48 240.5,-475.27"/>
<polygon fill="black" stroke="black" points="240.39,-478.77 250.45,-475.44 240.51,-471.77 240.39,-478.77"/>
<text text-anchor="middle" x="166.06" y="-477.2" font-family="Times,serif" font-size="14.00">&#45;1.44</text>
</g>
<!-- node166_2&#45;&gt;node105_2 -->
<g id="edge11" class="edge">
<title>node166_2&#45;&gt;node105_2</title>
<path fill="none" stroke="black" d="M315.36,-484.75C356.92,-496.81 431.95,-518.59 478.56,-532.12"/>
<polygon fill="black" stroke="black" points="477.44,-535.44 488.02,-534.86 479.4,-528.71 477.44,-535.44"/>
<text text-anchor="middle" x="402.36" y="-517.2" font-family="Times,serif" font-size="14.00">&#45;2.78</text>
</g>
<!-- node0_3 -->
<g id="node13" class="node">
<title>node0_3</title>
<ellipse fill="lightblue" stroke="black" cx="47.9" cy="-784" rx="31.9" ry="31.9"/>
<text text-anchor="middle" x="47.9" y="-778.95" font-family="Times,serif" font-size="14.00">1.000</text>
</g>
<!-- node105_3 -->
<g id="node15" class="node">
<title>node105_3</title>
<ellipse fill="lightgreen" stroke="black" cx="520.51" cy="-756" rx="31.9" ry="31.9"/>
<text text-anchor="middle" x="520.51" y="-750.95" font-family="Times,serif" font-size="14.00">0.005</text>
</g>
<!-- node0_3&#45;&gt;node105_3 -->
<g id="edge13" class="edge">
<title>node0_3&#45;&gt;node105_3</title>
<path fill="none" stroke="black" d="M80.15,-782.14C162.14,-777.26 383.59,-764.09 477.02,-758.53"/>
<polygon fill="black" stroke="black" points="477,-762.04 486.77,-757.95 476.58,-755.05 477,-762.04"/>
<text text-anchor="middle" x="284.21" y="-774.2" font-family="Times,serif" font-size="14.00">&#45;1.02</text>
</g>
<!-- node166_3 -->
<g id="node16" class="node">
<title>node166_3</title>
<ellipse fill="lightgray" stroke="black" cx="284.21" cy="-688" rx="31.9" ry="31.9"/>
<text text-anchor="middle" x="284.21" y="-682.95" font-family="Times,serif" font-size="14.00">0.017</text>
</g>
<!-- node0_3&#45;&gt;node166_3 -->
<g id="edge16" class="edge">
<title>node0_3&#45;&gt;node166_3</title>
<path fill="none" stroke="black" d="M77.63,-772.23C119.35,-755.14 196.84,-723.39 243.84,-704.13"/>
<polygon fill="black" stroke="black" points="244.92,-707.47 252.84,-700.44 242.26,-700.99 244.92,-707.47"/>
<text text-anchor="middle" x="166.06" y="-744.2" font-family="Times,serif" font-size="14.00">0.62</text>
</g>
<!-- node1_3 -->
<g id="node14" class="node">
<title>node1_3</title>
<ellipse fill="lightblue" stroke="black" cx="47.9" cy="-684" rx="31.9" ry="31.9"/>
<text text-anchor="middle" x="47.9" y="-678.95" font-family="Times,serif" font-size="14.00">1.000</text>
</g>
<!-- node1_3&#45;&gt;node166_3 -->
<g id="edge14" class="edge">
<title>node1_3&#45;&gt;node166_3</title>
<path fill="none" stroke="black" d="M80.02,-684.53C121.24,-685.23 194.15,-686.48 240.5,-687.27"/>
<polygon fill="black" stroke="black" points="240.39,-690.77 250.45,-687.44 240.51,-683.77 240.39,-690.77"/>
<text text-anchor="middle" x="166.06" y="-689.2" font-family="Times,serif" font-size="14.00">&#45;1.44</text>
</g>
<!-- node166_3&#45;&gt;node105_3 -->
<g id="edge15" class="edge">
<title>node166_3&#45;&gt;node105_3</title>
<path fill="none" stroke="black" d="M315.36,-696.75C356.92,-708.81 431.95,-730.59 478.56,-744.12"/>
<polygon fill="black" stroke="black" points="477.44,-747.44 488.02,-746.86 479.4,-740.71 477.44,-747.44"/>
<text text-anchor="middle" x="402.36" y="-729.2" font-family="Times,serif" font-size="14.00">&#45;2.78</text>
</g>
</g>
</svg>
