<?xml version="1.0" encoding="UTF-8" standalone="no"?>
<!DOCTYPE svg PUBLIC "-//W3C//DTD SVG 1.1//EN"
 "http://www.w3.org/Graphics/SVG/1.1/DTD/svg11.dtd">
<!-- Generated by graphviz version 9.0.0 (20230911.1827)
 -->
<!-- Title: neat Pages: 1 -->
<svg width="267pt" height="156pt"
 viewBox="0.00 0.00 267.21 156.13" xmlns="http://www.w3.org/2000/svg" xmlns:xlink="http://www.w3.org/1999/xlink">
<g id="graph0" class="graph" transform="scale(1 1) rotate(0) translate(4 152.13)">
<title>neat</title>
<polygon fill="white" stroke="none" points="-4,4 -4,-152.13 263.21,-152.13 263.21,4 -4,4"/>
<!-- node0 -->
<g id="node1" class="node">
<title>node0</title>
<ellipse fill="lightblue" stroke="black" cx="20.13" cy="-18" rx="18" ry="18"/>
<text text-anchor="middle" x="20.13" y="-12.95" font-family="Times,serif" font-size="14.00">0</text>
</g>
<!-- node1 -->
<g id="node2" class="node">
<title>node1</title>
<ellipse fill="lightblue" stroke="black" cx="20.13" cy="-72" rx="18" ry="18"/>
<text text-anchor="middle" x="20.13" y="-66.95" font-family="Times,serif" font-size="14.00">1</text>
</g>
<!-- node263 -->
<g id="node4" class="node">
<title>node263</title>
<ellipse fill="lightgray" stroke="black" cx="125" cy="-72" rx="24.74" ry="24.74"/>
<text text-anchor="middle" x="125" y="-66.95" font-family="Times,serif" font-size="14.00">263</text>
</g>
<!-- node1&#45;&gt;node263 -->
<g id="edge2" class="edge">
<title>node1&#45;&gt;node263</title>
<path fill="none" stroke="black" d="M38.58,-72C52.27,-72 71.78,-72 88.7,-72"/>
<polygon fill="black" stroke="black" points="88.38,-75.5 98.38,-72 88.38,-68.5 88.38,-75.5"/>
<text text-anchor="middle" x="70.26" y="-75.2" font-family="Times,serif" font-size="14.00">0.19</text>
</g>
<!-- node36 -->
<g id="node3" class="node">
<title>node36</title>
<ellipse fill="lightgreen" stroke="black" cx="20.13" cy="-128" rx="20.13" ry="20.13"/>
<text text-anchor="middle" x="20.13" y="-122.95" font-family="Times,serif" font-size="14.00">36</text>
</g>
<!-- node279 -->
<g id="node5" class="node">
<title>node279</title>
<ellipse fill="lightgray" stroke="black" cx="234.47" cy="-72" rx="24.74" ry="24.74"/>
<text text-anchor="middle" x="234.47" y="-66.95" font-family="Times,serif" font-size="14.00">279</text>
</g>
<!-- node263&#45;&gt;node279 -->
<g id="edge1" class="edge">
<title>node263&#45;&gt;node279</title>
<path fill="none" stroke="black" d="M150.12,-72C164.22,-72 182.29,-72 197.99,-72"/>
<polygon fill="black" stroke="black" points="197.92,-75.5 207.92,-72 197.92,-68.5 197.92,-75.5"/>
<text text-anchor="middle" x="179.74" y="-75.2" font-family="Times,serif" font-size="14.00">1.00</text>
</g>
</g>
</svg>
