<?xml version="1.0" encoding="UTF-8" standalone="no"?>
<!DOCTYPE svg PUBLIC "-//W3C//DTD SVG 1.1//EN"
 "http://www.w3.org/Graphics/SVG/1.1/DTD/svg11.dtd">
<!-- Generated by graphviz version 9.0.0 (20230911.1827)
 -->
<!-- Title: neat Pages: 1 -->
<svg width="324pt" height="154pt"
 viewBox="0.00 0.00 323.92 153.81" xmlns="http://www.w3.org/2000/svg" xmlns:xlink="http://www.w3.org/1999/xlink">
<g id="graph0" class="graph" transform="scale(1 1) rotate(0) translate(4 149.81)">
<title>neat</title>
<polygon fill="white" stroke="none" points="-4,4 -4,-149.81 319.92,-149.81 319.92,4 -4,4"/>
<!-- node0 -->
<g id="node1" class="node">
<title>node0</title>
<ellipse fill="lightblue" stroke="black" cx="31.9" cy="-113.9" rx="31.9" ry="31.9"/>
<text text-anchor="middle" x="31.9" y="-108.85" font-family="Times,serif" font-size="14.00">0.000</text>
</g>
<!-- node194 -->
<g id="node5" class="node">
<title>node194</title>
<ellipse fill="lightgray" stroke="black" cx="155.71" cy="-113.9" rx="31.9" ry="31.9"/>
<text text-anchor="middle" x="155.71" y="-108.85" font-family="Times,serif" font-size="14.00">0.500</text>
</g>
<!-- node0&#45;&gt;node194 -->
<g id="edge3" class="edge">
<title>node0&#45;&gt;node194</title>
<path fill="none" stroke="black" d="M64.27,-113.9C78.9,-113.9 96.54,-113.9 112.34,-113.9"/>
<polygon fill="black" stroke="black" points="111.93,-117.4 121.93,-113.9 111.93,-110.4 111.93,-117.4"/>
<text text-anchor="middle" x="93.81" y="-117.1" font-family="Times,serif" font-size="14.00">1.89</text>
</g>
<!-- node1 -->
<g id="node2" class="node">
<title>node1</title>
<ellipse fill="lightblue" stroke="black" cx="155.71" cy="-31.9" rx="31.9" ry="31.9"/>
<text text-anchor="middle" x="155.71" y="-26.85" font-family="Times,serif" font-size="14.00">1.000</text>
</g>
<!-- node61 -->
<g id="node3" class="node">
<title>node61</title>
<ellipse fill="lightgreen" stroke="black" cx="284.01" cy="-31.9" rx="31.9" ry="31.9"/>
<text text-anchor="middle" x="284.01" y="-26.85" font-family="Times,serif" font-size="14.00">0.066</text>
</g>
<!-- node1&#45;&gt;node61 -->
<g id="edge1" class="edge">
<title>node1&#45;&gt;node61</title>
<path fill="none" stroke="black" d="M187.93,-31.9C203.72,-31.9 223.12,-31.9 240.27,-31.9"/>
<polygon fill="black" stroke="black" points="240.2,-35.4 250.2,-31.9 240.2,-28.4 240.2,-35.4"/>
<text text-anchor="middle" x="219.86" y="-35.1" font-family="Times,serif" font-size="14.00">&#45;0.54</text>
</g>
<!-- node179 -->
<g id="node4" class="node">
<title>node179</title>
<ellipse fill="lightgray" stroke="black" cx="284.01" cy="-113.9" rx="31.9" ry="31.9"/>
<text text-anchor="middle" x="284.01" y="-108.85" font-family="Times,serif" font-size="14.00">0.003</text>
</g>
<!-- node1&#45;&gt;node179 -->
<g id="edge2" class="edge">
<title>node1&#45;&gt;node179</title>
<path fill="none" stroke="black" d="M182.88,-48.89C201.51,-60.99 226.77,-77.39 247.25,-90.69"/>
<polygon fill="black" stroke="black" points="245.31,-93.6 255.61,-96.11 249.13,-87.73 245.31,-93.6"/>
<text text-anchor="middle" x="219.86" y="-83.1" font-family="Times,serif" font-size="14.00">&#45;1.19</text>
</g>
<!-- node194&#45;&gt;node179 -->
<g id="edge4" class="edge">
<title>node194&#45;&gt;node179</title>
<path fill="none" stroke="black" d="M187.93,-113.9C203.72,-113.9 223.12,-113.9 240.27,-113.9"/>
<polygon fill="black" stroke="black" points="240.2,-117.4 250.2,-113.9 240.2,-110.4 240.2,-117.4"/>
<text text-anchor="middle" x="219.86" y="-117.1" font-family="Times,serif" font-size="14.00">0.10</text>
</g>
</g>
</svg>
