<?xml version="1.0" encoding="UTF-8" standalone="no"?>
<!DOCTYPE svg PUBLIC "-//W3C//DTD SVG 1.1//EN"
 "http://www.w3.org/Graphics/SVG/1.1/DTD/svg11.dtd">
<!-- Generated by graphviz version 9.0.0 (20230911.1827)
 -->
<!-- Title: neat Pages: 1 -->
<svg width="267pt" height="137pt"
 viewBox="0.00 0.00 267.45 137.47" xmlns="http://www.w3.org/2000/svg" xmlns:xlink="http://www.w3.org/1999/xlink">
<g id="graph0" class="graph" transform="scale(1 1) rotate(0) translate(4 133.47)">
<title>neat</title>
<polygon fill="white" stroke="none" points="-4,4 -4,-133.47 263.45,-133.47 263.45,4 -4,4"/>
<!-- node0 -->
<g id="node1" class="node">
<title>node0</title>
<ellipse fill="lightblue" stroke="black" cx="120.74" cy="-94.74" rx="18" ry="18"/>
<text text-anchor="middle" x="120.74" y="-89.69" font-family="Times,serif" font-size="14.00">0</text>
</g>
<!-- node148 -->
<g id="node3" class="node">
<title>node148</title>
<ellipse fill="lightgreen" stroke="black" cx="234.71" cy="-104.74" rx="24.74" ry="24.74"/>
<text text-anchor="middle" x="234.71" y="-99.69" font-family="Times,serif" font-size="14.00">148</text>
</g>
<!-- node0&#45;&gt;node148 -->
<g id="edge1" class="edge">
<title>node0&#45;&gt;node148</title>
<path fill="none" stroke="black" d="M138.74,-96.26C154.52,-97.67 178.51,-99.81 198.42,-101.59"/>
<polygon fill="black" stroke="black" points="198.11,-105.07 208.38,-102.47 198.73,-98.1 198.11,-105.07"/>
<text text-anchor="middle" x="177.72" y="-103.94" font-family="Times,serif" font-size="14.00">1.40</text>
</g>
<!-- node179 -->
<g id="node4" class="node">
<title>node179</title>
<ellipse fill="lightgray" stroke="black" cx="234.71" cy="-31.74" rx="24.74" ry="24.74"/>
<text text-anchor="middle" x="234.71" y="-26.69" font-family="Times,serif" font-size="14.00">179</text>
</g>
<!-- node0&#45;&gt;node179 -->
<g id="edge4" class="edge">
<title>node0&#45;&gt;node179</title>
<path fill="none" stroke="black" d="M136.84,-86.24C153.67,-76.77 181.33,-61.21 202.79,-49.13"/>
<polygon fill="black" stroke="black" points="204.44,-52.22 211.44,-44.27 201.01,-46.12 204.44,-52.22"/>
<text text-anchor="middle" x="177.72" y="-73.94" font-family="Times,serif" font-size="14.00">0.38</text>
</g>
<!-- node1 -->
<g id="node2" class="node">
<title>node1</title>
<ellipse fill="lightblue" stroke="black" cx="18" cy="-24.74" rx="18" ry="18"/>
<text text-anchor="middle" x="18" y="-19.69" font-family="Times,serif" font-size="14.00">1</text>
</g>
<!-- node218 -->
<g id="node5" class="node">
<title>node218</title>
<ellipse fill="lightgray" stroke="black" cx="120.74" cy="-24.74" rx="24.74" ry="24.74"/>
<text text-anchor="middle" x="120.74" y="-19.69" font-family="Times,serif" font-size="14.00">218</text>
</g>
<!-- node1&#45;&gt;node218 -->
<g id="edge2" class="edge">
<title>node1&#45;&gt;node218</title>
<path fill="none" stroke="black" d="M36.09,-24.74C49.28,-24.74 67.98,-24.74 84.36,-24.74"/>
<polygon fill="black" stroke="black" points="84.24,-28.24 94.24,-24.74 84.24,-21.24 84.24,-28.24"/>
<text text-anchor="middle" x="66" y="-27.94" font-family="Times,serif" font-size="14.00">1.00</text>
</g>
<!-- node218&#45;&gt;node179 -->
<g id="edge3" class="edge">
<title>node218&#45;&gt;node179</title>
<path fill="none" stroke="black" d="M145.82,-24.6C159.4,-24.69 176.65,-25.07 191.97,-26.24 194.16,-26.4 196.41,-26.61 198.67,-26.84"/>
<polygon fill="black" stroke="black" points="198.08,-30.29 208.42,-27.97 198.89,-23.34 198.08,-30.29"/>
<text text-anchor="middle" x="177.72" y="-29.94" font-family="Times,serif" font-size="14.00">&#45;0.13</text>
</g>
</g>
</svg>
