<?xml version="1.0" encoding="UTF-8" standalone="no"?>
<!DOCTYPE svg PUBLIC "-//W3C//DTD SVG 1.1//EN"
 "http://www.w3.org/Graphics/SVG/1.1/DTD/svg11.dtd">
<!-- Generated by graphviz version 9.0.0 (20230911.1827)
 -->
<!-- Title: neat Pages: 1 -->
<svg width="263pt" height="112pt"
 viewBox="0.00 0.00 262.74 111.74" xmlns="http://www.w3.org/2000/svg" xmlns:xlink="http://www.w3.org/1999/xlink">
<g id="graph0" class="graph" transform="scale(1 1) rotate(0) translate(4 107.74)">
<title>neat</title>
<polygon fill="white" stroke="none" points="-4,4 -4,-107.74 258.74,-107.74 258.74,4 -4,4"/>
<!-- node0 -->
<g id="node1" class="node">
<title>node0</title>
<ellipse fill="lightblue" stroke="black" cx="18" cy="-79" rx="18" ry="18"/>
<text text-anchor="middle" x="18" y="-73.95" font-family="Times,serif" font-size="14.00">0</text>
</g>
<!-- node188 -->
<g id="node4" class="node">
<title>node188</title>
<ellipse fill="lightgray" stroke="black" cx="125.24" cy="-79" rx="24.74" ry="24.74"/>
<text text-anchor="middle" x="125.24" y="-73.95" font-family="Times,serif" font-size="14.00">188</text>
</g>
<!-- node0&#45;&gt;node188 -->
<g id="edge2" class="edge">
<title>node0&#45;&gt;node188</title>
<path fill="none" stroke="black" d="M36.38,-79C50.58,-79 71.12,-79 88.77,-79"/>
<polygon fill="black" stroke="black" points="88.63,-82.5 98.63,-79 88.63,-75.5 88.63,-82.5"/>
<text text-anchor="middle" x="68.25" y="-82.2" font-family="Times,serif" font-size="14.00">&#45;1.40</text>
</g>
<!-- node1 -->
<g id="node2" class="node">
<title>node1</title>
<ellipse fill="lightblue" stroke="black" cx="125.24" cy="-18" rx="18" ry="18"/>
<text text-anchor="middle" x="125.24" y="-12.95" font-family="Times,serif" font-size="14.00">1</text>
</g>
<!-- node36 -->
<g id="node3" class="node">
<title>node36</title>
<ellipse fill="lightgreen" stroke="black" cx="234.61" cy="-38" rx="20.13" ry="20.13"/>
<text text-anchor="middle" x="234.61" y="-32.95" font-family="Times,serif" font-size="14.00">36</text>
</g>
<!-- node1&#45;&gt;node36 -->
<g id="edge1" class="edge">
<title>node1&#45;&gt;node36</title>
<path fill="none" stroke="black" d="M143.32,-20.49C157.58,-22.64 178.41,-25.96 196.47,-29.5 198.81,-29.96 201.22,-30.45 203.63,-30.97"/>
<polygon fill="black" stroke="black" points="202.77,-34.36 213.29,-33.12 204.29,-27.53 202.77,-34.36"/>
<text text-anchor="middle" x="182.22" y="-33.2" font-family="Times,serif" font-size="14.00">&#45;0.75</text>
</g>
<!-- node188&#45;&gt;node36 -->
<g id="edge3" class="edge">
<title>node188&#45;&gt;node36</title>
<path fill="none" stroke="black" d="M148.75,-70.41C165.07,-64.17 187.27,-55.69 204.87,-48.97"/>
<polygon fill="black" stroke="black" points="205.89,-52.33 213.99,-45.49 203.4,-45.79 205.89,-52.33"/>
<text text-anchor="middle" x="182.22" y="-65.2" font-family="Times,serif" font-size="14.00">&#45;0.09</text>
</g>
</g>
</svg>
