<?xml version="1.0" encoding="UTF-8" standalone="no"?>
<!DOCTYPE svg PUBLIC "-//W3C//DTD SVG 1.1//EN"
 "http://www.w3.org/Graphics/SVG/1.1/DTD/svg11.dtd">
<!-- Generated by graphviz version 9.0.0 (20230911.1827)
 -->
<!-- Title: neat Pages: 1 -->
<svg width="263pt" height="108pt"
 viewBox="0.00 0.00 262.95 107.74" xmlns="http://www.w3.org/2000/svg" xmlns:xlink="http://www.w3.org/1999/xlink">
<g id="graph0" class="graph" transform="scale(1 1) rotate(0) translate(4 103.74)">
<title>neat</title>
<polygon fill="white" stroke="none" points="-4,4 -4,-103.74 258.95,-103.74 258.95,4 -4,4"/>
<!-- node0 -->
<g id="node1" class="node">
<title>node0</title>
<ellipse fill="lightblue" stroke="black" cx="18" cy="-81.74" rx="18" ry="18"/>
<text text-anchor="middle" x="18" y="-76.69" font-family="Times,serif" font-size="14.00">0</text>
</g>
<!-- node171 -->
<g id="node4" class="node">
<title>node171</title>
<ellipse fill="lightgray" stroke="black" cx="120.74" cy="-67.74" rx="24.74" ry="24.74"/>
<text text-anchor="middle" x="120.74" y="-62.69" font-family="Times,serif" font-size="14.00">171</text>
</g>
<!-- node0&#45;&gt;node171 -->
<g id="edge2" class="edge">
<title>node0&#45;&gt;node171</title>
<path fill="none" stroke="black" d="M36.09,-79.36C49.28,-77.53 67.98,-74.93 84.36,-72.65"/>
<polygon fill="black" stroke="black" points="84.83,-76.12 94.26,-71.28 83.87,-69.19 84.83,-76.12"/>
<text text-anchor="middle" x="66" y="-79.94" font-family="Times,serif" font-size="14.00">1.00</text>
</g>
<!-- node1 -->
<g id="node2" class="node">
<title>node1</title>
<ellipse fill="lightblue" stroke="black" cx="18" cy="-18.74" rx="18" ry="18"/>
<text text-anchor="middle" x="18" y="-13.69" font-family="Times,serif" font-size="14.00">1</text>
</g>
<!-- node136 -->
<g id="node3" class="node">
<title>node136</title>
<ellipse fill="lightgreen" stroke="black" cx="230.21" cy="-24.74" rx="24.74" ry="24.74"/>
<text text-anchor="middle" x="230.21" y="-19.69" font-family="Times,serif" font-size="14.00">136</text>
</g>
<!-- node1&#45;&gt;node136 -->
<g id="edge1" class="edge">
<title>node1&#45;&gt;node136</title>
<path fill="none" stroke="black" d="M36.43,-18.3C52.04,-17.93 75.54,-17.44 96,-17.24 117.99,-17.02 123.51,-16.26 145.47,-17.24 161.47,-17.95 179.13,-19.43 194.09,-20.89"/>
<polygon fill="black" stroke="black" points="193.62,-24.36 203.92,-21.88 194.33,-17.39 193.62,-24.36"/>
<text text-anchor="middle" x="120.74" y="-19.94" font-family="Times,serif" font-size="14.00">1.81</text>
</g>
<!-- node1&#45;&gt;node171 -->
<g id="edge4" class="edge">
<title>node1&#45;&gt;node171</title>
<path fill="none" stroke="black" d="M34.74,-26.39C48.99,-33.32 70.4,-43.74 88.17,-52.38"/>
<polygon fill="black" stroke="black" points="86.24,-55.34 96.77,-56.56 89.3,-49.04 86.24,-55.34"/>
<text text-anchor="middle" x="66" y="-48.94" font-family="Times,serif" font-size="14.00">0.62</text>
</g>
<!-- node171&#45;&gt;node136 -->
<g id="edge3" class="edge">
<title>node171&#45;&gt;node136</title>
<path fill="none" stroke="black" d="M144.27,-58.72C159.31,-52.7 179.36,-44.68 196.19,-37.95"/>
<polygon fill="black" stroke="black" points="197.32,-41.27 205.31,-34.3 194.72,-34.77 197.32,-41.27"/>
<text text-anchor="middle" x="175.47" y="-52.94" font-family="Times,serif" font-size="14.00">3.80</text>
</g>
</g>
</svg>
