<?xml version="1.0" encoding="UTF-8" standalone="no"?>
<!DOCTYPE svg PUBLIC "-//W3C//DTD SVG 1.1//EN"
 "http://www.w3.org/Graphics/SVG/1.1/DTD/svg11.dtd">
<!-- Generated by graphviz version 9.0.0 (20230911.1827)
 -->
<!-- Title: neat Pages: 1 -->
<svg width="340pt" height="864pt"
 viewBox="0.00 0.00 340.11 864.00" xmlns="http://www.w3.org/2000/svg" xmlns:xlink="http://www.w3.org/1999/xlink">
<g id="graph0" class="graph" transform="scale(1 1) rotate(0) translate(4 860)">
<title>neat</title>
<polygon fill="white" stroke="none" points="-4,4 -4,-860 336.11,-860 336.11,4 -4,4"/>
<g id="clust1" class="cluster">
<title>cluster_0</title>
<path fill="none" stroke="gray" d="M20,-8C20,-8 312.11,-8 312.11,-8 318.11,-8 324.11,-14 324.11,-20 324.11,-20 324.11,-200 324.11,-200 324.11,-206 318.11,-212 312.11,-212 312.11,-212 20,-212 20,-212 14,-212 8,-206 8,-200 8,-200 8,-20 8,-20 8,-14 14,-8 20,-8"/>
<text text-anchor="middle" x="166.06" y="-194.7" font-family="Times,serif" font-size="14.00">Test 0,0 → 0</text>
</g>
<g id="clust2" class="cluster">
<title>cluster_1</title>
<path fill="none" stroke="gray" d="M20,-220C20,-220 312.11,-220 312.11,-220 318.11,-220 324.11,-226 324.11,-232 324.11,-232 324.11,-412 324.11,-412 324.11,-418 318.11,-424 312.11,-424 312.11,-424 20,-424 20,-424 14,-424 8,-418 8,-412 8,-412 8,-232 8,-232 8,-226 14,-220 20,-220"/>
<text text-anchor="middle" x="166.06" y="-406.7" font-family="Times,serif" font-size="14.00">Test 0,1 → 1</text>
</g>
<g id="clust3" class="cluster">
<title>cluster_2</title>
<path fill="none" stroke="gray" d="M20,-432C20,-432 312.11,-432 312.11,-432 318.11,-432 324.11,-438 324.11,-444 324.11,-444 324.11,-624 324.11,-624 324.11,-630 318.11,-636 312.11,-636 312.11,-636 20,-636 20,-636 14,-636 8,-630 8,-624 8,-624 8,-444 8,-444 8,-438 14,-432 20,-432"/>
<text text-anchor="middle" x="166.06" y="-618.7" font-family="Times,serif" font-size="14.00">Test 1,0 → 1</text>
</g>
<g id="clust4" class="cluster">
<title>cluster_3</title>
<path fill="none" stroke="gray" d="M20,-644C20,-644 312.11,-644 312.11,-644 318.11,-644 324.11,-650 324.11,-656 324.11,-656 324.11,-836 324.11,-836 324.11,-842 318.11,-848 312.11,-848 312.11,-848 20,-848 20,-848 14,-848 8,-842 8,-836 8,-836 8,-656 8,-656 8,-650 14,-644 20,-644"/>
<text text-anchor="middle" x="166.06" y="-830.7" font-family="Times,serif" font-size="14.00">Test 1,1 → 0</text>
</g>
<!-- node0_0 -->
<g id="node1" class="node">
<title>node0_0</title>
<ellipse fill="lightblue" stroke="black" cx="47.9" cy="-148" rx="31.9" ry="31.9"/>
<text text-anchor="middle" x="47.9" y="-142.95" font-family="Times,serif" font-size="14.00">0.000</text>
</g>
<!-- node18_0 -->
<g id="node3" class="node">
<title>node18_0</title>
<ellipse fill="lightgreen" stroke="black" cx="284.21" cy="-148" rx="31.9" ry="31.9"/>
<text text-anchor="middle" x="284.21" y="-142.95" font-family="Times,serif" font-size="14.00">0.500</text>
</g>
<!-- node0_0&#45;&gt;node18_0 -->
<g id="edge1" class="edge">
<title>node0_0&#45;&gt;node18_0</title>
<path fill="none" stroke="black" d="M80.02,-148C121.24,-148 194.15,-148 240.5,-148"/>
<polygon fill="black" stroke="black" points="240.45,-151.5 250.45,-148 240.45,-144.5 240.45,-151.5"/>
<text text-anchor="middle" x="166.06" y="-151.2" font-family="Times,serif" font-size="14.00">&#45;5.14</text>
</g>
<!-- node1_0 -->
<g id="node2" class="node">
<title>node1_0</title>
<ellipse fill="lightblue" stroke="black" cx="47.9" cy="-48" rx="31.9" ry="31.9"/>
<text text-anchor="middle" x="47.9" y="-42.95" font-family="Times,serif" font-size="14.00">0.000</text>
</g>
<!-- node0_1 -->
<g id="node4" class="node">
<title>node0_1</title>
<ellipse fill="lightblue" stroke="black" cx="47.9" cy="-360" rx="31.9" ry="31.9"/>
<text text-anchor="middle" x="47.9" y="-354.95" font-family="Times,serif" font-size="14.00">0.000</text>
</g>
<!-- node18_1 -->
<g id="node6" class="node">
<title>node18_1</title>
<ellipse fill="lightgreen" stroke="black" cx="284.21" cy="-360" rx="31.9" ry="31.9"/>
<text text-anchor="middle" x="284.21" y="-354.95" font-family="Times,serif" font-size="14.00">0.500</text>
</g>
<!-- node0_1&#45;&gt;node18_1 -->
<g id="edge2" class="edge">
<title>node0_1&#45;&gt;node18_1</title>
<path fill="none" stroke="black" d="M80.02,-360C121.24,-360 194.15,-360 240.5,-360"/>
<polygon fill="black" stroke="black" points="240.45,-363.5 250.45,-360 240.45,-356.5 240.45,-363.5"/>
<text text-anchor="middle" x="166.06" y="-363.2" font-family="Times,serif" font-size="14.00">&#45;5.14</text>
</g>
<!-- node1_1 -->
<g id="node5" class="node">
<title>node1_1</title>
<ellipse fill="lightblue" stroke="black" cx="47.9" cy="-260" rx="31.9" ry="31.9"/>
<text text-anchor="middle" x="47.9" y="-254.95" font-family="Times,serif" font-size="14.00">1.000</text>
</g>
<!-- node0_2 -->
<g id="node7" class="node">
<title>node0_2</title>
<ellipse fill="lightblue" stroke="black" cx="47.9" cy="-572" rx="31.9" ry="31.9"/>
<text text-anchor="middle" x="47.9" y="-566.95" font-family="Times,serif" font-size="14.00">1.000</text>
</g>
<!-- node18_2 -->
<g id="node9" class="node">
<title>node18_2</title>
<ellipse fill="lightgreen" stroke="black" cx="284.21" cy="-572" rx="31.9" ry="31.9"/>
<text text-anchor="middle" x="284.21" y="-566.95" font-family="Times,serif" font-size="14.00">0.000</text>
</g>
<!-- node0_2&#45;&gt;node18_2 -->
<g id="edge3" class="edge">
<title>node0_2&#45;&gt;node18_2</title>
<path fill="none" stroke="black" d="M80.02,-572C121.24,-572 194.15,-572 240.5,-572"/>
<polygon fill="black" stroke="black" points="240.45,-575.5 250.45,-572 240.45,-568.5 240.45,-575.5"/>
<text text-anchor="middle" x="166.06" y="-575.2" font-family="Times,serif" font-size="14.00">&#45;5.14</text>
</g>
<!-- node1_2 -->
<g id="node8" class="node">
<title>node1_2</title>
<ellipse fill="lightblue" stroke="black" cx="47.9" cy="-472" rx="31.9" ry="31.9"/>
<text text-anchor="middle" x="47.9" y="-466.95" font-family="Times,serif" font-size="14.00">0.000</text>
</g>
<!-- node0_3 -->
<g id="node10" class="node">
<title>node0_3</title>
<ellipse fill="lightblue" stroke="black" cx="47.9" cy="-784" rx="31.9" ry="31.9"/>
<text text-anchor="middle" x="47.9" y="-778.95" font-family="Times,serif" font-size="14.00">1.000</text>
</g>
<!-- node18_3 -->
<g id="node12" class="node">
<title>node18_3</title>
<ellipse fill="lightgreen" stroke="black" cx="284.21" cy="-784" rx="31.9" ry="31.9"/>
<text text-anchor="middle" x="284.21" y="-778.95" font-family="Times,serif" font-size="14.00">0.000</text>
</g>
<!-- node0_3&#45;&gt;node18_3 -->
<g id="edge4" class="edge">
<title>node0_3&#45;&gt;node18_3</title>
<path fill="none" stroke="black" d="M80.02,-784C121.24,-784 194.15,-784 240.5,-784"/>
<polygon fill="black" stroke="black" points="240.45,-787.5 250.45,-784 240.45,-780.5 240.45,-787.5"/>
<text text-anchor="middle" x="166.06" y="-787.2" font-family="Times,serif" font-size="14.00">&#45;5.14</text>
</g>
<!-- node1_3 -->
<g id="node11" class="node">
<title>node1_3</title>
<ellipse fill="lightblue" stroke="black" cx="47.9" cy="-684" rx="31.9" ry="31.9"/>
<text text-anchor="middle" x="47.9" y="-678.95" font-family="Times,serif" font-size="14.00">1.000</text>
</g>
</g>
</svg>
