<?xml version="1.0" encoding="UTF-8" standalone="no"?>
<!DOCTYPE svg PUBLIC "-//W3C//DTD SVG 1.1//EN"
 "http://www.w3.org/Graphics/SVG/1.1/DTD/svg11.dtd">
<!-- Generated by graphviz version 9.0.0 (20230911.1827)
 -->
<!-- Title: neat Pages: 1 -->
<svg width="448pt" height="154pt"
 viewBox="0.00 0.00 447.72 153.81" xmlns="http://www.w3.org/2000/svg" xmlns:xlink="http://www.w3.org/1999/xlink">
<g id="graph0" class="graph" transform="scale(1 1) rotate(0) translate(4 149.81)">
<title>neat</title>
<polygon fill="white" stroke="none" points="-4,4 -4,-149.81 443.72,-149.81 443.72,4 -4,4"/>
<!-- node0 -->
<g id="node1" class="node">
<title>node0</title>
<ellipse fill="lightblue" stroke="black" cx="31.9" cy="-113.9" rx="31.9" ry="31.9"/>
<text text-anchor="middle" x="31.9" y="-108.85" font-family="Times,serif" font-size="14.00">0.000</text>
</g>
<!-- node122 -->
<g id="node3" class="node">
<title>node122</title>
<ellipse fill="lightgreen" stroke="black" cx="407.82" cy="-83.9" rx="31.9" ry="31.9"/>
<text text-anchor="middle" x="407.82" y="-78.85" font-family="Times,serif" font-size="14.00">0.999</text>
</g>
<!-- node0&#45;&gt;node122 -->
<g id="edge1" class="edge">
<title>node0&#45;&gt;node122</title>
<path fill="none" stroke="black" d="M63.9,-111.87C115.96,-108.43 224.29,-101.25 315.92,-94.9 334.59,-93.61 339.33,-94.08 357.92,-91.9 360.22,-91.63 362.58,-91.33 364.96,-91.01"/>
<polygon fill="black" stroke="black" points="365.22,-94.51 374.6,-89.59 364.2,-87.58 365.22,-94.51"/>
<text text-anchor="middle" x="222.11" y="-105.1" font-family="Times,serif" font-size="14.00">1.55</text>
</g>
<!-- node152 -->
<g id="node4" class="node">
<title>node152</title>
<ellipse fill="lightgray" stroke="black" cx="160.21" cy="-53.9" rx="31.9" ry="31.9"/>
<text text-anchor="middle" x="160.21" y="-48.85" font-family="Times,serif" font-size="14.00">1.000</text>
</g>
<!-- node0&#45;&gt;node152 -->
<g id="edge3" class="edge">
<title>node0&#45;&gt;node152</title>
<path fill="none" stroke="black" d="M59.02,-96.32C66.24,-91.82 74.19,-87.19 81.81,-83.4 93.54,-77.58 106.73,-72.16 118.84,-67.6"/>
<polygon fill="black" stroke="black" points="119.99,-70.91 128.18,-64.19 117.59,-64.33 119.99,-70.91"/>
<text text-anchor="middle" x="96.06" y="-86.1" font-family="Times,serif" font-size="14.00">&#45;1.56</text>
</g>
<!-- node1 -->
<g id="node2" class="node">
<title>node1</title>
<ellipse fill="lightblue" stroke="black" cx="31.9" cy="-31.9" rx="31.9" ry="31.9"/>
<text text-anchor="middle" x="31.9" y="-26.85" font-family="Times,serif" font-size="14.00">1.000</text>
</g>
<!-- node1&#45;&gt;node152 -->
<g id="edge2" class="edge">
<title>node1&#45;&gt;node152</title>
<path fill="none" stroke="black" d="M64.01,-32.93C78.23,-33.8 95.22,-35.42 110.31,-38.4 113.1,-38.95 115.95,-39.61 118.81,-40.34"/>
<polygon fill="black" stroke="black" points="117.71,-43.66 128.29,-42.99 119.6,-36.92 117.71,-43.66"/>
<text text-anchor="middle" x="96.06" y="-42.1" font-family="Times,serif" font-size="14.00">3.29</text>
</g>
<!-- node243 -->
<g id="node5" class="node">
<title>node243</title>
<ellipse fill="lightgray" stroke="black" cx="284.01" cy="-53.9" rx="31.9" ry="31.9"/>
<text text-anchor="middle" x="284.01" y="-48.85" font-family="Times,serif" font-size="14.00">0.993</text>
</g>
<!-- node152&#45;&gt;node243 -->
<g id="edge4" class="edge">
<title>node152&#45;&gt;node243</title>
<path fill="none" stroke="black" d="M192.58,-53.9C207.21,-53.9 224.85,-53.9 240.64,-53.9"/>
<polygon fill="black" stroke="black" points="240.24,-57.4 250.24,-53.9 240.24,-50.4 240.24,-57.4"/>
<text text-anchor="middle" x="222.11" y="-57.1" font-family="Times,serif" font-size="14.00">1.00</text>
</g>
<!-- node243&#45;&gt;node122 -->
<g id="edge5" class="edge">
<title>node243&#45;&gt;node122</title>
<path fill="none" stroke="black" d="M315.44,-61.4C330.55,-65.12 349.04,-69.67 365.42,-73.71"/>
<polygon fill="black" stroke="black" points="364.35,-77.05 374.89,-76.04 366.02,-70.25 364.35,-77.05"/>
<text text-anchor="middle" x="345.92" y="-74.1" font-family="Times,serif" font-size="14.00">1.36</text>
</g>
</g>
</svg>
