<?xml version="1.0" encoding="UTF-8" standalone="no"?>
<!DOCTYPE svg PUBLIC "-//W3C//DTD SVG 1.1//EN"
 "http://www.w3.org/Graphics/SVG/1.1/DTD/svg11.dtd">
<!-- Generated by graphviz version 9.0.0 (20230911.1827)
 -->
<!-- Title: neat Pages: 1 -->
<svg width="263pt" height="139pt"
 viewBox="0.00 0.00 262.74 138.74" xmlns="http://www.w3.org/2000/svg" xmlns:xlink="http://www.w3.org/1999/xlink">
<g id="graph0" class="graph" transform="scale(1 1) rotate(0) translate(4 134.74)">
<title>neat</title>
<polygon fill="white" stroke="none" points="-4,4 -4,-134.74 258.74,-134.74 258.74,4 -4,4"/>
<!-- node0 -->
<g id="node1" class="node">
<title>node0</title>
<ellipse fill="lightblue" stroke="black" cx="18" cy="-58.74" rx="18" ry="18"/>
<text text-anchor="middle" x="18" y="-53.69" font-family="Times,serif" font-size="14.00">0</text>
</g>
<!-- node163 -->
<g id="node4" class="node">
<title>node163</title>
<ellipse fill="lightgray" stroke="black" cx="125.24" cy="-91.74" rx="24.74" ry="24.74"/>
<text text-anchor="middle" x="125.24" y="-86.69" font-family="Times,serif" font-size="14.00">163</text>
</g>
<!-- node0&#45;&gt;node163 -->
<g id="edge3" class="edge">
<title>node0&#45;&gt;node163</title>
<path fill="none" stroke="black" d="M35.44,-63.89C50.09,-68.49 71.99,-75.35 90.38,-81.12"/>
<polygon fill="black" stroke="black" points="89.24,-84.43 99.83,-84.08 91.33,-77.75 89.24,-84.43"/>
<text text-anchor="middle" x="68.25" y="-80.94" font-family="Times,serif" font-size="14.00">0.59</text>
</g>
<!-- node217 -->
<g id="node5" class="node">
<title>node217</title>
<ellipse fill="lightgray" stroke="black" cx="125.24" cy="-24.74" rx="24.74" ry="24.74"/>
<text text-anchor="middle" x="125.24" y="-19.69" font-family="Times,serif" font-size="14.00">217</text>
</g>
<!-- node0&#45;&gt;node217 -->
<g id="edge1" class="edge">
<title>node0&#45;&gt;node217</title>
<path fill="none" stroke="black" d="M35.44,-53.42C50.09,-48.69 71.99,-41.62 90.38,-35.68"/>
<polygon fill="black" stroke="black" points="91.39,-39.03 99.83,-32.62 89.24,-32.37 91.39,-39.03"/>
<text text-anchor="middle" x="68.25" y="-50.94" font-family="Times,serif" font-size="14.00">&#45;2.71</text>
</g>
<!-- node1 -->
<g id="node2" class="node">
<title>node1</title>
<ellipse fill="lightblue" stroke="black" cx="18" cy="-112.74" rx="18" ry="18"/>
<text text-anchor="middle" x="18" y="-107.69" font-family="Times,serif" font-size="14.00">1</text>
</g>
<!-- node45 -->
<g id="node3" class="node">
<title>node45</title>
<ellipse fill="lightgreen" stroke="black" cx="234.61" cy="-24.74" rx="20.13" ry="20.13"/>
<text text-anchor="middle" x="234.61" y="-19.69" font-family="Times,serif" font-size="14.00">45</text>
</g>
<!-- node217&#45;&gt;node45 -->
<g id="edge2" class="edge">
<title>node217&#45;&gt;node45</title>
<path fill="none" stroke="black" d="M150.33,-24.74C165.86,-24.74 186.18,-24.74 202.86,-24.74"/>
<polygon fill="black" stroke="black" points="202.73,-28.24 212.73,-24.74 202.73,-21.24 202.73,-28.24"/>
<text text-anchor="middle" x="182.22" y="-27.94" font-family="Times,serif" font-size="14.00">&#45;0.24</text>
</g>
</g>
</svg>
