<?xml version="1.0" encoding="UTF-8" standalone="no"?>
<!DOCTYPE svg PUBLIC "-//W3C//DTD SVG 1.1//EN"
 "http://www.w3.org/Graphics/SVG/1.1/DTD/svg11.dtd">
<!-- Generated by graphviz version 9.0.0 (20230911.1827)
 -->
<!-- Title: neat Pages: 1 -->
<svg width="319pt" height="188pt"
 viewBox="0.00 0.00 319.42 187.81" xmlns="http://www.w3.org/2000/svg" xmlns:xlink="http://www.w3.org/1999/xlink">
<g id="graph0" class="graph" transform="scale(1 1) rotate(0) translate(4 183.81)">
<title>neat</title>
<polygon fill="white" stroke="none" points="-4,4 -4,-183.81 315.42,-183.81 315.42,4 -4,4"/>
<!-- node0 -->
<g id="node1" class="node">
<title>node0</title>
<ellipse fill="lightblue" stroke="black" cx="31.9" cy="-147.9" rx="31.9" ry="31.9"/>
<text text-anchor="middle" x="31.9" y="-142.85" font-family="Times,serif" font-size="14.00">0.000</text>
</g>
<!-- node73 -->
<g id="node3" class="node">
<title>node73</title>
<ellipse fill="lightgreen" stroke="black" cx="279.51" cy="-113.9" rx="31.9" ry="31.9"/>
<text text-anchor="middle" x="279.51" y="-108.85" font-family="Times,serif" font-size="14.00">0.983</text>
</g>
<!-- node0&#45;&gt;node73 -->
<g id="edge4" class="edge">
<title>node0&#45;&gt;node73</title>
<path fill="none" stroke="black" d="M63.52,-153.84C95.01,-158.89 145.29,-164 187.61,-154.9 206.08,-150.93 225.31,-142.9 241.31,-134.99"/>
<polygon fill="black" stroke="black" points="242.67,-138.22 249.97,-130.54 239.47,-132 242.67,-138.22"/>
<text text-anchor="middle" x="155.71" y="-163.1" font-family="Times,serif" font-size="14.00">&#45;0.99</text>
</g>
<!-- node166 -->
<g id="node4" class="node">
<title>node166</title>
<ellipse fill="lightgray" stroke="black" cx="155.71" cy="-113.9" rx="31.9" ry="31.9"/>
<text text-anchor="middle" x="155.71" y="-108.85" font-family="Times,serif" font-size="14.00">0.500</text>
</g>
<!-- node0&#45;&gt;node166 -->
<g id="edge2" class="edge">
<title>node0&#45;&gt;node166</title>
<path fill="none" stroke="black" d="M63.01,-139.5C78.24,-135.25 96.95,-130.03 113.49,-125.41"/>
<polygon fill="black" stroke="black" points="114.37,-128.8 123.07,-122.74 112.49,-122.05 114.37,-128.8"/>
<text text-anchor="middle" x="93.81" y="-137.1" font-family="Times,serif" font-size="14.00">0.11</text>
</g>
<!-- node1 -->
<g id="node2" class="node">
<title>node1</title>
<ellipse fill="lightblue" stroke="black" cx="155.71" cy="-31.9" rx="31.9" ry="31.9"/>
<text text-anchor="middle" x="155.71" y="-26.85" font-family="Times,serif" font-size="14.00">1.000</text>
</g>
<!-- node1&#45;&gt;node73 -->
<g id="edge1" class="edge">
<title>node1&#45;&gt;node73</title>
<path fill="none" stroke="black" d="M182.84,-49.49C200.42,-61.33 223.81,-77.08 243.07,-90.04"/>
<polygon fill="black" stroke="black" points="240.92,-92.81 251.17,-95.5 244.83,-87.01 240.92,-92.81"/>
<text text-anchor="middle" x="217.61" y="-83.1" font-family="Times,serif" font-size="14.00">0.78</text>
</g>
<!-- node166&#45;&gt;node73 -->
<g id="edge3" class="edge">
<title>node166&#45;&gt;node73</title>
<path fill="none" stroke="black" d="M188.08,-113.9C202.71,-113.9 220.35,-113.9 236.14,-113.9"/>
<polygon fill="black" stroke="black" points="235.74,-117.4 245.74,-113.9 235.74,-110.4 235.74,-117.4"/>
<text text-anchor="middle" x="217.61" y="-117.1" font-family="Times,serif" font-size="14.00">0.09</text>
</g>
</g>
</svg>
