<?xml version="1.0" encoding="UTF-8" standalone="no"?>
<!DOCTYPE svg PUBLIC "-//W3C//DTD SVG 1.1//EN"
 "http://www.w3.org/Graphics/SVG/1.1/DTD/svg11.dtd">
<!-- Generated by graphviz version 9.0.0 (20230911.1827)
 -->
<!-- Title: neat Pages: 1 -->
<svg width="340pt" height="884pt"
 viewBox="0.00 0.00 340.11 884.00" xmlns="http://www.w3.org/2000/svg" xmlns:xlink="http://www.w3.org/1999/xlink">
<g id="graph0" class="graph" transform="scale(1 1) rotate(0) translate(4 880)">
<title>neat</title>
<polygon fill="white" stroke="none" points="-4,4 -4,-880 336.11,-880 336.11,4 -4,4"/>
<g id="clust1" class="cluster">
<title>cluster_0</title>
<path fill="none" stroke="gray" d="M20,-8C20,-8 312.11,-8 312.11,-8 318.11,-8 324.11,-14 324.11,-20 324.11,-20 324.11,-205 324.11,-205 324.11,-211 318.11,-217 312.11,-217 312.11,-217 20,-217 20,-217 14,-217 8,-211 8,-205 8,-205 8,-20 8,-20 8,-14 14,-8 20,-8"/>
<text text-anchor="middle" x="166.06" y="-199.7" font-family="Times,serif" font-size="14.00">Test 0,0 → 0</text>
</g>
<g id="clust2" class="cluster">
<title>cluster_1</title>
<path fill="none" stroke="gray" d="M20,-225C20,-225 312.11,-225 312.11,-225 318.11,-225 324.11,-231 324.11,-237 324.11,-237 324.11,-422 324.11,-422 324.11,-428 318.11,-434 312.11,-434 312.11,-434 20,-434 20,-434 14,-434 8,-428 8,-422 8,-422 8,-237 8,-237 8,-231 14,-225 20,-225"/>
<text text-anchor="middle" x="166.06" y="-416.7" font-family="Times,serif" font-size="14.00">Test 0,1 → 1</text>
</g>
<g id="clust3" class="cluster">
<title>cluster_2</title>
<path fill="none" stroke="gray" d="M20,-442C20,-442 312.11,-442 312.11,-442 318.11,-442 324.11,-448 324.11,-454 324.11,-454 324.11,-639 324.11,-639 324.11,-645 318.11,-651 312.11,-651 312.11,-651 20,-651 20,-651 14,-651 8,-645 8,-639 8,-639 8,-454 8,-454 8,-448 14,-442 20,-442"/>
<text text-anchor="middle" x="166.06" y="-633.7" font-family="Times,serif" font-size="14.00">Test 1,0 → 1</text>
</g>
<g id="clust4" class="cluster">
<title>cluster_3</title>
<path fill="none" stroke="gray" d="M20,-659C20,-659 312.11,-659 312.11,-659 318.11,-659 324.11,-665 324.11,-671 324.11,-671 324.11,-856 324.11,-856 324.11,-862 318.11,-868 312.11,-868 312.11,-868 20,-868 20,-868 14,-868 8,-862 8,-856 8,-856 8,-671 8,-671 8,-665 14,-659 20,-659"/>
<text text-anchor="middle" x="166.06" y="-850.7" font-family="Times,serif" font-size="14.00">Test 1,1 → 0</text>
</g>
<!-- node0_0 -->
<g id="node1" class="node">
<title>node0_0</title>
<ellipse fill="lightblue" stroke="black" cx="47.9" cy="-152" rx="31.9" ry="31.9"/>
<text text-anchor="middle" x="47.9" y="-146.95" font-family="Times,serif" font-size="14.00">0.000</text>
</g>
<!-- node105_0 -->
<g id="node3" class="node">
<title>node105_0</title>
<ellipse fill="lightgreen" stroke="black" cx="284.21" cy="-153" rx="31.9" ry="31.9"/>
<text text-anchor="middle" x="284.21" y="-147.95" font-family="Times,serif" font-size="14.00">0.500</text>
</g>
<!-- node0_0&#45;&gt;node105_0 -->
<g id="edge1" class="edge">
<title>node0_0&#45;&gt;node105_0</title>
<path fill="none" stroke="black" d="M80.02,-152.13C121.24,-152.31 194.15,-152.62 240.5,-152.82"/>
<polygon fill="black" stroke="black" points="240.44,-156.32 250.45,-152.86 240.47,-149.32 240.44,-156.32"/>
<text text-anchor="middle" x="166.06" y="-155.2" font-family="Times,serif" font-size="14.00">1.58</text>
</g>
<!-- node166_0 -->
<g id="node4" class="node">
<title>node166_0</title>
<ellipse fill="lightgray" stroke="black" cx="284.21" cy="-52" rx="31.9" ry="31.9"/>
<text text-anchor="middle" x="284.21" y="-46.95" font-family="Times,serif" font-size="14.00">0.500</text>
</g>
<!-- node0_0&#45;&gt;node166_0 -->
<g id="edge3" class="edge">
<title>node0_0&#45;&gt;node166_0</title>
<path fill="none" stroke="black" d="M77.63,-139.74C119.47,-121.88 197.26,-88.68 244.23,-68.64"/>
<polygon fill="black" stroke="black" points="245.39,-71.94 253.22,-64.8 242.65,-65.51 245.39,-71.94"/>
<text text-anchor="middle" x="166.06" y="-110.2" font-family="Times,serif" font-size="14.00">1.39</text>
</g>
<!-- node1_0 -->
<g id="node2" class="node">
<title>node1_0</title>
<ellipse fill="lightblue" stroke="black" cx="47.9" cy="-52" rx="31.9" ry="31.9"/>
<text text-anchor="middle" x="47.9" y="-46.95" font-family="Times,serif" font-size="14.00">0.000</text>
</g>
<!-- node1_0&#45;&gt;node166_0 -->
<g id="edge2" class="edge">
<title>node1_0&#45;&gt;node166_0</title>
<path fill="none" stroke="black" d="M79.97,-50.67C100.38,-49.86 127.68,-48.91 151.81,-48.5 181.49,-48 214.93,-48.91 240.65,-49.93"/>
<polygon fill="black" stroke="black" points="240.23,-53.41 250.37,-50.33 240.53,-46.42 240.23,-53.41"/>
<text text-anchor="middle" x="166.06" y="-51.2" font-family="Times,serif" font-size="14.00">&#45;1.87</text>
</g>
<!-- node0_1 -->
<g id="node5" class="node">
<title>node0_1</title>
<ellipse fill="lightblue" stroke="black" cx="47.9" cy="-369" rx="31.9" ry="31.9"/>
<text text-anchor="middle" x="47.9" y="-363.95" font-family="Times,serif" font-size="14.00">0.000</text>
</g>
<!-- node105_1 -->
<g id="node7" class="node">
<title>node105_1</title>
<ellipse fill="lightgreen" stroke="black" cx="284.21" cy="-370" rx="31.9" ry="31.9"/>
<text text-anchor="middle" x="284.21" y="-364.95" font-family="Times,serif" font-size="14.00">0.500</text>
</g>
<!-- node0_1&#45;&gt;node105_1 -->
<g id="edge4" class="edge">
<title>node0_1&#45;&gt;node105_1</title>
<path fill="none" stroke="black" d="M80.02,-369.13C121.24,-369.31 194.15,-369.62 240.5,-369.82"/>
<polygon fill="black" stroke="black" points="240.44,-373.32 250.45,-369.86 240.47,-366.32 240.44,-373.32"/>
<text text-anchor="middle" x="166.06" y="-372.2" font-family="Times,serif" font-size="14.00">1.58</text>
</g>
<!-- node166_1 -->
<g id="node8" class="node">
<title>node166_1</title>
<ellipse fill="lightgray" stroke="black" cx="284.21" cy="-269" rx="31.9" ry="31.9"/>
<text text-anchor="middle" x="284.21" y="-263.95" font-family="Times,serif" font-size="14.00">0.000</text>
</g>
<!-- node0_1&#45;&gt;node166_1 -->
<g id="edge6" class="edge">
<title>node0_1&#45;&gt;node166_1</title>
<path fill="none" stroke="black" d="M77.63,-356.74C119.47,-338.88 197.26,-305.68 244.23,-285.64"/>
<polygon fill="black" stroke="black" points="245.39,-288.94 253.22,-281.8 242.65,-282.51 245.39,-288.94"/>
<text text-anchor="middle" x="166.06" y="-327.2" font-family="Times,serif" font-size="14.00">1.39</text>
</g>
<!-- node1_1 -->
<g id="node6" class="node">
<title>node1_1</title>
<ellipse fill="lightblue" stroke="black" cx="47.9" cy="-269" rx="31.9" ry="31.9"/>
<text text-anchor="middle" x="47.9" y="-263.95" font-family="Times,serif" font-size="14.00">1.000</text>
</g>
<!-- node1_1&#45;&gt;node166_1 -->
<g id="edge5" class="edge">
<title>node1_1&#45;&gt;node166_1</title>
<path fill="none" stroke="black" d="M79.97,-267.67C100.38,-266.86 127.68,-265.91 151.81,-265.5 181.49,-265 214.93,-265.91 240.65,-266.93"/>
<polygon fill="black" stroke="black" points="240.23,-270.41 250.37,-267.33 240.53,-263.42 240.23,-270.41"/>
<text text-anchor="middle" x="166.06" y="-268.2" font-family="Times,serif" font-size="14.00">&#45;1.87</text>
</g>
<!-- node0_2 -->
<g id="node9" class="node">
<title>node0_2</title>
<ellipse fill="lightblue" stroke="black" cx="47.9" cy="-586" rx="31.9" ry="31.9"/>
<text text-anchor="middle" x="47.9" y="-580.95" font-family="Times,serif" font-size="14.00">1.000</text>
</g>
<!-- node105_2 -->
<g id="node11" class="node">
<title>node105_2</title>
<ellipse fill="lightgreen" stroke="black" cx="284.21" cy="-587" rx="31.9" ry="31.9"/>
<text text-anchor="middle" x="284.21" y="-581.95" font-family="Times,serif" font-size="14.00">1.000</text>
</g>
<!-- node0_2&#45;&gt;node105_2 -->
<g id="edge7" class="edge">
<title>node0_2&#45;&gt;node105_2</title>
<path fill="none" stroke="black" d="M80.02,-586.13C121.24,-586.31 194.15,-586.62 240.5,-586.82"/>
<polygon fill="black" stroke="black" points="240.44,-590.32 250.45,-586.86 240.47,-583.32 240.44,-590.32"/>
<text text-anchor="middle" x="166.06" y="-589.2" font-family="Times,serif" font-size="14.00">1.58</text>
</g>
<!-- node166_2 -->
<g id="node12" class="node">
<title>node166_2</title>
<ellipse fill="lightgray" stroke="black" cx="284.21" cy="-486" rx="31.9" ry="31.9"/>
<text text-anchor="middle" x="284.21" y="-480.95" font-family="Times,serif" font-size="14.00">0.999</text>
</g>
<!-- node0_2&#45;&gt;node166_2 -->
<g id="edge9" class="edge">
<title>node0_2&#45;&gt;node166_2</title>
<path fill="none" stroke="black" d="M77.63,-573.74C119.47,-555.88 197.26,-522.68 244.23,-502.64"/>
<polygon fill="black" stroke="black" points="245.39,-505.94 253.22,-498.8 242.65,-499.51 245.39,-505.94"/>
<text text-anchor="middle" x="166.06" y="-544.2" font-family="Times,serif" font-size="14.00">1.39</text>
</g>
<!-- node1_2 -->
<g id="node10" class="node">
<title>node1_2</title>
<ellipse fill="lightblue" stroke="black" cx="47.9" cy="-486" rx="31.9" ry="31.9"/>
<text text-anchor="middle" x="47.9" y="-480.95" font-family="Times,serif" font-size="14.00">0.000</text>
</g>
<!-- node1_2&#45;&gt;node166_2 -->
<g id="edge8" class="edge">
<title>node1_2&#45;&gt;node166_2</title>
<path fill="none" stroke="black" d="M79.97,-484.67C100.38,-483.86 127.68,-482.91 151.81,-482.5 181.49,-482 214.93,-482.91 240.65,-483.93"/>
<polygon fill="black" stroke="black" points="240.23,-487.41 250.37,-484.33 240.53,-480.42 240.23,-487.41"/>
<text text-anchor="middle" x="166.06" y="-485.2" font-family="Times,serif" font-size="14.00">&#45;1.87</text>
</g>
<!-- node0_3 -->
<g id="node13" class="node">
<title>node0_3</title>
<ellipse fill="lightblue" stroke="black" cx="47.9" cy="-803" rx="31.9" ry="31.9"/>
<text text-anchor="middle" x="47.9" y="-797.95" font-family="Times,serif" font-size="14.00">1.000</text>
</g>
<!-- node105_3 -->
<g id="node15" class="node">
<title>node105_3</title>
<ellipse fill="lightgreen" stroke="black" cx="284.21" cy="-804" rx="31.9" ry="31.9"/>
<text text-anchor="middle" x="284.21" y="-798.95" font-family="Times,serif" font-size="14.00">1.000</text>
</g>
<!-- node0_3&#45;&gt;node105_3 -->
<g id="edge10" class="edge">
<title>node0_3&#45;&gt;node105_3</title>
<path fill="none" stroke="black" d="M80.02,-803.13C121.24,-803.31 194.15,-803.62 240.5,-803.82"/>
<polygon fill="black" stroke="black" points="240.44,-807.32 250.45,-803.86 240.47,-800.32 240.44,-807.32"/>
<text text-anchor="middle" x="166.06" y="-806.2" font-family="Times,serif" font-size="14.00">1.58</text>
</g>
<!-- node166_3 -->
<g id="node16" class="node">
<title>node166_3</title>
<ellipse fill="lightgray" stroke="black" cx="284.21" cy="-703" rx="31.9" ry="31.9"/>
<text text-anchor="middle" x="284.21" y="-697.95" font-family="Times,serif" font-size="14.00">0.089</text>
</g>
<!-- node0_3&#45;&gt;node166_3 -->
<g id="edge12" class="edge">
<title>node0_3&#45;&gt;node166_3</title>
<path fill="none" stroke="black" d="M77.63,-790.74C119.47,-772.88 197.26,-739.68 244.23,-719.64"/>
<polygon fill="black" stroke="black" points="245.39,-722.94 253.22,-715.8 242.65,-716.51 245.39,-722.94"/>
<text text-anchor="middle" x="166.06" y="-761.2" font-family="Times,serif" font-size="14.00">1.39</text>
</g>
<!-- node1_3 -->
<g id="node14" class="node">
<title>node1_3</title>
<ellipse fill="lightblue" stroke="black" cx="47.9" cy="-703" rx="31.9" ry="31.9"/>
<text text-anchor="middle" x="47.9" y="-697.95" font-family="Times,serif" font-size="14.00">1.000</text>
</g>
<!-- node1_3&#45;&gt;node166_3 -->
<g id="edge11" class="edge">
<title>node1_3&#45;&gt;node166_3</title>
<path fill="none" stroke="black" d="M79.97,-701.67C100.38,-700.86 127.68,-699.91 151.81,-699.5 181.49,-699 214.93,-699.91 240.65,-700.93"/>
<polygon fill="black" stroke="black" points="240.23,-704.41 250.37,-701.33 240.53,-697.42 240.23,-704.41"/>
<text text-anchor="middle" x="166.06" y="-702.2" font-family="Times,serif" font-size="14.00">&#45;1.87</text>
</g>
</g>
</svg>
