<?xml version="1.0" encoding="UTF-8" standalone="no"?>
<!DOCTYPE svg PUBLIC "-//W3C//DTD SVG 1.1//EN"
 "http://www.w3.org/Graphics/SVG/1.1/DTD/svg11.dtd">
<!-- Generated by graphviz version 9.0.0 (20230911.1827)
 -->
<!-- Title: neat Pages: 1 -->
<svg width="491pt" height="206pt"
 viewBox="0.00 0.00 490.90 205.50" xmlns="http://www.w3.org/2000/svg" xmlns:xlink="http://www.w3.org/1999/xlink">
<g id="graph0" class="graph" transform="scale(1 1) rotate(0) translate(4 201.5)">
<title>neat</title>
<polygon fill="white" stroke="none" points="-4,4 -4,-201.5 486.9,-201.5 486.9,4 -4,4"/>
<!-- node0 -->
<g id="node1" class="node">
<title>node0</title>
<ellipse fill="lightblue" stroke="black" cx="18" cy="-18" rx="18" ry="18"/>
<text text-anchor="middle" x="18" y="-12.95" font-family="Times,serif" font-size="14.00">0</text>
</g>
<!-- node270 -->
<g id="node6" class="node">
<title>node270</title>
<ellipse fill="lightgray" stroke="black" cx="125.24" cy="-29" rx="24.74" ry="24.74"/>
<text text-anchor="middle" x="125.24" y="-23.95" font-family="Times,serif" font-size="14.00">270</text>
</g>
<!-- node0&#45;&gt;node270 -->
<g id="edge7" class="edge">
<title>node0&#45;&gt;node270</title>
<path fill="none" stroke="black" d="M36.32,-17.48C49.12,-17.32 66.96,-17.57 82.5,-19.5 84.86,-19.79 87.29,-20.16 89.72,-20.58"/>
<polygon fill="black" stroke="black" points="89.01,-24.01 99.5,-22.54 90.38,-17.15 89.01,-24.01"/>
<text text-anchor="middle" x="68.25" y="-23.2" font-family="Times,serif" font-size="14.00">1.00</text>
</g>
<!-- node1 -->
<g id="node2" class="node">
<title>node1</title>
<ellipse fill="lightblue" stroke="black" cx="18" cy="-112" rx="18" ry="18"/>
<text text-anchor="middle" x="18" y="-106.95" font-family="Times,serif" font-size="14.00">1</text>
</g>
<!-- node136 -->
<g id="node3" class="node">
<title>node136</title>
<ellipse fill="lightgreen" stroke="black" cx="458.16" cy="-128" rx="24.74" ry="24.74"/>
<text text-anchor="middle" x="458.16" y="-122.95" font-family="Times,serif" font-size="14.00">136</text>
</g>
<!-- node1&#45;&gt;node136 -->
<g id="edge1" class="edge">
<title>node1&#45;&gt;node136</title>
<path fill="none" stroke="black" d="M30.04,-125.63C47.66,-145.74 84.26,-181 124.24,-181 124.24,-181 124.24,-181 349.69,-181 379.14,-181 408.89,-164.79 429.6,-150.3"/>
<polygon fill="black" stroke="black" points="431.5,-153.24 437.5,-144.51 427.36,-147.6 431.5,-153.24"/>
<text text-anchor="middle" x="239.21" y="-184.2" font-family="Times,serif" font-size="14.00">2.47</text>
</g>
<!-- node171 -->
<g id="node4" class="node">
<title>node171</title>
<ellipse fill="lightgray" stroke="black" cx="348.69" cy="-128" rx="24.74" ry="24.74"/>
<text text-anchor="middle" x="348.69" y="-122.95" font-family="Times,serif" font-size="14.00">171</text>
</g>
<!-- node1&#45;&gt;node171 -->
<g id="edge3" class="edge">
<title>node1&#45;&gt;node171</title>
<path fill="none" stroke="black" d="M36.05,-114.78C41.74,-115.62 48.13,-116.46 54,-117 74.6,-118.91 79.83,-118.18 100.5,-119 175.86,-121.99 264.15,-125.11 312.17,-126.78"/>
<polygon fill="black" stroke="black" points="311.85,-130.27 321.96,-127.12 312.09,-123.28 311.85,-130.27"/>
<text text-anchor="middle" x="182.22" y="-125.2" font-family="Times,serif" font-size="14.00">2.49</text>
</g>
<!-- node233 -->
<g id="node5" class="node">
<title>node233</title>
<ellipse fill="lightgray" stroke="black" cx="239.21" cy="-76" rx="24.74" ry="24.74"/>
<text text-anchor="middle" x="239.21" y="-70.95" font-family="Times,serif" font-size="14.00">233</text>
</g>
<!-- node1&#45;&gt;node233 -->
<g id="edge6" class="edge">
<title>node1&#45;&gt;node233</title>
<path fill="none" stroke="black" d="M36.2,-109.18C72.12,-103.28 155.69,-89.55 203.32,-81.73"/>
<polygon fill="black" stroke="black" points="203.82,-85.2 213.12,-80.12 202.68,-78.29 203.82,-85.2"/>
<text text-anchor="middle" x="125.24" y="-101.2" font-family="Times,serif" font-size="14.00">&#45;2.12</text>
</g>
<!-- node1&#45;&gt;node270 -->
<g id="edge9" class="edge">
<title>node1&#45;&gt;node270</title>
<path fill="none" stroke="black" d="M26.54,-95.97C32.6,-84.54 42.07,-69.48 54,-59.5 64.46,-50.75 77.82,-44.12 90.07,-39.31"/>
<polygon fill="black" stroke="black" points="91.26,-42.6 99.48,-35.91 88.88,-36.02 91.26,-42.6"/>
<text text-anchor="middle" x="68.25" y="-63.2" font-family="Times,serif" font-size="14.00">&#45;0.24</text>
</g>
<!-- node171&#45;&gt;node136 -->
<g id="edge2" class="edge">
<title>node171&#45;&gt;node136</title>
<path fill="none" stroke="black" d="M373.81,-128C387.91,-128 405.98,-128 421.68,-128"/>
<polygon fill="black" stroke="black" points="421.61,-131.5 431.61,-128 421.61,-124.5 421.61,-131.5"/>
<text text-anchor="middle" x="403.42" y="-131.2" font-family="Times,serif" font-size="14.00">1.88</text>
</g>
<!-- node233&#45;&gt;node136 -->
<g id="edge5" class="edge">
<title>node233&#45;&gt;node136</title>
<path fill="none" stroke="black" d="M263.85,-72.59C290.9,-69.52 336.27,-66.94 373.42,-77.5 393.57,-83.23 413.75,-95.17 429.25,-106"/>
<polygon fill="black" stroke="black" points="426.88,-108.6 437.03,-111.64 430.99,-102.94 426.88,-108.6"/>
<text text-anchor="middle" x="348.69" y="-80.2" font-family="Times,serif" font-size="14.00">1.57</text>
</g>
<!-- node233&#45;&gt;node171 -->
<g id="edge4" class="edge">
<title>node233&#45;&gt;node171</title>
<path fill="none" stroke="black" d="M262.69,-85.06C275.51,-90.4 291.8,-97.47 305.95,-104.5 309.67,-106.35 313.53,-108.37 317.32,-110.42"/>
<polygon fill="black" stroke="black" points="315.34,-113.33 325.79,-115.12 318.74,-107.21 315.34,-113.33"/>
<text text-anchor="middle" x="293.95" y="-107.2" font-family="Times,serif" font-size="14.00">0.64</text>
</g>
<!-- node270&#45;&gt;node233 -->
<g id="edge8" class="edge">
<title>node270&#45;&gt;node233</title>
<path fill="none" stroke="black" d="M148.63,-38.4C164.88,-45.22 187.12,-54.55 205.37,-62.22"/>
<polygon fill="black" stroke="black" points="203.89,-65.39 214.46,-66.03 206.6,-58.93 203.89,-65.39"/>
<text text-anchor="middle" x="182.22" y="-62.2" font-family="Times,serif" font-size="14.00">&#45;2.12</text>
</g>
</g>
</svg>
