<?xml version="1.0" encoding="UTF-8" standalone="no"?>
<!DOCTYPE svg PUBLIC "-//W3C//DTD SVG 1.1//EN"
 "http://www.w3.org/Graphics/SVG/1.1/DTD/svg11.dtd">
<!-- Generated by graphviz version 9.0.0 (20230911.1827)
 -->
<!-- Title: neat Pages: 1 -->
<svg width="368pt" height="110pt"
 viewBox="0.00 0.00 367.71 109.50" xmlns="http://www.w3.org/2000/svg" xmlns:xlink="http://www.w3.org/1999/xlink">
<g id="graph0" class="graph" transform="scale(1 1) rotate(0) translate(4 105.5)">
<title>neat</title>
<polygon fill="white" stroke="none" points="-4,4 -4,-105.5 363.71,-105.5 363.71,4 -4,4"/>
<!-- node0 -->
<g id="node1" class="node">
<title>node0</title>
<ellipse fill="lightblue" stroke="black" cx="18" cy="-81" rx="18" ry="18"/>
<text text-anchor="middle" x="18" y="-75.95" font-family="Times,serif" font-size="14.00">0</text>
</g>
<!-- node45 -->
<g id="node3" class="node">
<title>node45</title>
<ellipse fill="lightgreen" stroke="black" cx="339.58" cy="-64" rx="20.13" ry="20.13"/>
<text text-anchor="middle" x="339.58" y="-58.95" font-family="Times,serif" font-size="14.00">45</text>
</g>
<!-- node0&#45;&gt;node45 -->
<g id="edge1" class="edge">
<title>node0&#45;&gt;node45</title>
<path fill="none" stroke="black" d="M36.33,-82.22C80.74,-85.02 202.1,-90.49 301.45,-75 303.99,-74.6 306.59,-74.08 309.19,-73.48"/>
<polygon fill="black" stroke="black" points="310.1,-76.86 318.83,-70.87 308.27,-70.1 310.1,-76.86"/>
<text text-anchor="middle" x="175.47" y="-88.2" font-family="Times,serif" font-size="14.00">0.91</text>
</g>
<!-- node167 -->
<g id="node4" class="node">
<title>node167</title>
<ellipse fill="lightgray" stroke="black" cx="120.74" cy="-37" rx="24.74" ry="24.74"/>
<text text-anchor="middle" x="120.74" y="-31.95" font-family="Times,serif" font-size="14.00">167</text>
</g>
<!-- node0&#45;&gt;node167 -->
<g id="edge5" class="edge">
<title>node0&#45;&gt;node167</title>
<path fill="none" stroke="black" d="M33.58,-71.04C39.71,-67.12 47.03,-62.78 54,-59.5 64.02,-54.78 75.3,-50.55 85.66,-47.07"/>
<polygon fill="black" stroke="black" points="86.55,-50.46 94.99,-44.06 84.4,-43.8 86.55,-50.46"/>
<text text-anchor="middle" x="66" y="-62.2" font-family="Times,serif" font-size="14.00">1.64</text>
</g>
<!-- node1 -->
<g id="node2" class="node">
<title>node1</title>
<ellipse fill="lightblue" stroke="black" cx="18" cy="-18" rx="18" ry="18"/>
<text text-anchor="middle" x="18" y="-12.95" font-family="Times,serif" font-size="14.00">1</text>
</g>
<!-- node1&#45;&gt;node167 -->
<g id="edge2" class="edge">
<title>node1&#45;&gt;node167</title>
<path fill="none" stroke="black" d="M36.24,-16.77C48.11,-16.33 64.17,-16.54 78,-19.5 81.17,-20.18 84.4,-21.09 87.59,-22.15"/>
<polygon fill="black" stroke="black" points="86.13,-25.34 96.72,-25.62 88.62,-18.8 86.13,-25.34"/>
<text text-anchor="middle" x="66" y="-23.2" font-family="Times,serif" font-size="14.00">0.92</text>
</g>
<!-- node220 -->
<g id="node5" class="node">
<title>node220</title>
<ellipse fill="lightgray" stroke="black" cx="230.21" cy="-37" rx="24.74" ry="24.74"/>
<text text-anchor="middle" x="230.21" y="-31.95" font-family="Times,serif" font-size="14.00">220</text>
</g>
<!-- node167&#45;&gt;node220 -->
<g id="edge3" class="edge">
<title>node167&#45;&gt;node220</title>
<path fill="none" stroke="black" d="M145.86,-37C159.96,-37 178.03,-37 193.73,-37"/>
<polygon fill="black" stroke="black" points="193.66,-40.5 203.66,-37 193.66,-33.5 193.66,-40.5"/>
<text text-anchor="middle" x="175.47" y="-40.2" font-family="Times,serif" font-size="14.00">1.00</text>
</g>
<!-- node220&#45;&gt;node45 -->
<g id="edge4" class="edge">
<title>node220&#45;&gt;node45</title>
<path fill="none" stroke="black" d="M254.51,-42.86C270.34,-46.84 291.44,-52.15 308.54,-56.44"/>
<polygon fill="black" stroke="black" points="307.6,-59.82 318.15,-58.86 309.31,-53.03 307.6,-59.82"/>
<text text-anchor="middle" x="287.2" y="-57.2" font-family="Times,serif" font-size="14.00">&#45;0.98</text>
</g>
</g>
</svg>
