<?xml version="1.0" encoding="UTF-8" standalone="no"?>
<!DOCTYPE svg PUBLIC "-//W3C//DTD SVG 1.1//EN"
 "http://www.w3.org/Graphics/SVG/1.1/DTD/svg11.dtd">
<!-- Generated by graphviz version 9.0.0 (20230911.1827)
 -->
<!-- Title: neat Pages: 1 -->
<svg width="324pt" height="154pt"
 viewBox="0.00 0.00 323.92 153.81" xmlns="http://www.w3.org/2000/svg" xmlns:xlink="http://www.w3.org/1999/xlink">
<g id="graph0" class="graph" transform="scale(1 1) rotate(0) translate(4 149.81)">
<title>neat</title>
<polygon fill="white" stroke="none" points="-4,4 -4,-149.81 319.92,-149.81 319.92,4 -4,4"/>
<!-- node0 -->
<g id="node1" class="node">
<title>node0</title>
<ellipse fill="lightblue" stroke="black" cx="31.9" cy="-113.9" rx="31.9" ry="31.9"/>
<text text-anchor="middle" x="31.9" y="-108.85" font-family="Times,serif" font-size="14.00">0.000</text>
</g>
<!-- node186 -->
<g id="node4" class="node">
<title>node186</title>
<ellipse fill="lightgray" stroke="black" cx="160.21" cy="-97.9" rx="31.9" ry="31.9"/>
<text text-anchor="middle" x="160.21" y="-92.85" font-family="Times,serif" font-size="14.00">0.005</text>
</g>
<!-- node0&#45;&gt;node186 -->
<g id="edge2" class="edge">
<title>node0&#45;&gt;node186</title>
<path fill="none" stroke="black" d="M63.8,-109.99C79.86,-107.95 99.71,-105.44 117.15,-103.23"/>
<polygon fill="black" stroke="black" points="117.21,-106.75 126.69,-102.02 116.33,-99.81 117.21,-106.75"/>
<text text-anchor="middle" x="96.06" y="-110.1" font-family="Times,serif" font-size="14.00">2.77</text>
</g>
<!-- node1 -->
<g id="node2" class="node">
<title>node1</title>
<ellipse fill="lightblue" stroke="black" cx="31.9" cy="-31.9" rx="31.9" ry="31.9"/>
<text text-anchor="middle" x="31.9" y="-26.85" font-family="Times,serif" font-size="14.00">1.000</text>
</g>
<!-- node42 -->
<g id="node3" class="node">
<title>node42</title>
<ellipse fill="lightgreen" stroke="black" cx="284.01" cy="-47.9" rx="31.9" ry="31.9"/>
<text text-anchor="middle" x="284.01" y="-42.85" font-family="Times,serif" font-size="14.00">0.000</text>
</g>
<!-- node1&#45;&gt;node42 -->
<g id="edge1" class="edge">
<title>node1&#45;&gt;node42</title>
<path fill="none" stroke="black" d="M64.04,-33.3C96.14,-34.8 147.65,-37.38 192.11,-40.4 207.97,-41.48 225.38,-42.87 240.67,-44.15"/>
<polygon fill="black" stroke="black" points="240.13,-47.62 250.39,-44.98 240.72,-40.64 240.13,-47.62"/>
<text text-anchor="middle" x="160.21" y="-43.1" font-family="Times,serif" font-size="14.00">&#45;2.48</text>
</g>
<!-- node1&#45;&gt;node186 -->
<g id="edge4" class="edge">
<title>node1&#45;&gt;node186</title>
<path fill="none" stroke="black" d="M60.62,-46.39C78.47,-55.71 101.91,-67.96 121.45,-78.17"/>
<polygon fill="black" stroke="black" points="119.73,-81.22 130.21,-82.75 122.97,-75.02 119.73,-81.22"/>
<text text-anchor="middle" x="96.06" y="-73.1" font-family="Times,serif" font-size="14.00">&#45;1.06</text>
</g>
<!-- node186&#45;&gt;node42 -->
<g id="edge3" class="edge">
<title>node186&#45;&gt;node42</title>
<path fill="none" stroke="black" d="M190.07,-86.05C206.04,-79.5 226.11,-71.26 243.5,-64.12"/>
<polygon fill="black" stroke="black" points="244.61,-67.45 252.53,-60.41 241.95,-60.97 244.61,-67.45"/>
<text text-anchor="middle" x="222.11" y="-80.1" font-family="Times,serif" font-size="14.00">0.08</text>
</g>
</g>
</svg>
