<?xml version="1.0" encoding="UTF-8" standalone="no"?>
<!DOCTYPE svg PUBLIC "-//W3C//DTD SVG 1.1//EN"
 "http://www.w3.org/Graphics/SVG/1.1/DTD/svg11.dtd">
<!-- Generated by graphviz version 9.0.0 (20230911.1827)
 -->
<!-- Title: neat Pages: 1 -->
<svg width="267pt" height="112pt"
 viewBox="0.00 0.00 267.45 111.74" xmlns="http://www.w3.org/2000/svg" xmlns:xlink="http://www.w3.org/1999/xlink">
<g id="graph0" class="graph" transform="scale(1 1) rotate(0) translate(4 107.74)">
<title>neat</title>
<polygon fill="white" stroke="none" points="-4,4 -4,-107.74 263.45,-107.74 263.45,4 -4,4"/>
<!-- node0 -->
<g id="node1" class="node">
<title>node0</title>
<ellipse fill="lightblue" stroke="black" cx="120.74" cy="-85.74" rx="18" ry="18"/>
<text text-anchor="middle" x="120.74" y="-80.69" font-family="Times,serif" font-size="14.00">0</text>
</g>
<!-- node148 -->
<g id="node3" class="node">
<title>node148</title>
<ellipse fill="lightgreen" stroke="black" cx="234.71" cy="-55.74" rx="24.74" ry="24.74"/>
<text text-anchor="middle" x="234.71" y="-50.69" font-family="Times,serif" font-size="14.00">148</text>
</g>
<!-- node0&#45;&gt;node148 -->
<g id="edge1" class="edge">
<title>node0&#45;&gt;node148</title>
<path fill="none" stroke="black" d="M138.26,-81.31C154.3,-77.01 179.14,-70.36 199.46,-64.91"/>
<polygon fill="black" stroke="black" points="200.28,-68.32 209.04,-62.35 198.47,-61.56 200.28,-68.32"/>
<text text-anchor="middle" x="177.72" y="-76.94" font-family="Times,serif" font-size="14.00">0.36</text>
</g>
<!-- node1 -->
<g id="node2" class="node">
<title>node1</title>
<ellipse fill="lightblue" stroke="black" cx="18" cy="-24.74" rx="18" ry="18"/>
<text text-anchor="middle" x="18" y="-19.69" font-family="Times,serif" font-size="14.00">1</text>
</g>
<!-- node179 -->
<g id="node4" class="node">
<title>node179</title>
<ellipse fill="lightgray" stroke="black" cx="120.74" cy="-24.74" rx="24.74" ry="24.74"/>
<text text-anchor="middle" x="120.74" y="-19.69" font-family="Times,serif" font-size="14.00">179</text>
</g>
<!-- node1&#45;&gt;node179 -->
<g id="edge2" class="edge">
<title>node1&#45;&gt;node179</title>
<path fill="none" stroke="black" d="M36.09,-24.74C49.28,-24.74 67.98,-24.74 84.36,-24.74"/>
<polygon fill="black" stroke="black" points="84.24,-28.24 94.24,-24.74 84.24,-21.24 84.24,-28.24"/>
<text text-anchor="middle" x="66" y="-27.94" font-family="Times,serif" font-size="14.00">2.36</text>
</g>
<!-- node179&#45;&gt;node148 -->
<g id="edge3" class="edge">
<title>node179&#45;&gt;node148</title>
<path fill="none" stroke="black" d="M144.94,-31.16C160.7,-35.52 181.82,-41.37 199.51,-46.27"/>
<polygon fill="black" stroke="black" points="198.51,-49.62 209.08,-48.92 200.38,-42.88 198.51,-49.62"/>
<text text-anchor="middle" x="177.72" y="-47.94" font-family="Times,serif" font-size="14.00">&#45;1.01</text>
</g>
</g>
</svg>
