<?xml version="1.0" encoding="UTF-8" standalone="no"?>
<!DOCTYPE svg PUBLIC "-//W3C//DTD SVG 1.1//EN"
 "http://www.w3.org/Graphics/SVG/1.1/DTD/svg11.dtd">
<!-- Generated by graphviz version 9.0.0 (20230911.1827)
 -->
<!-- Title: neat Pages: 1 -->
<svg width="258pt" height="185pt"
 viewBox="0.00 0.00 258.24 184.74" xmlns="http://www.w3.org/2000/svg" xmlns:xlink="http://www.w3.org/1999/xlink">
<g id="graph0" class="graph" transform="scale(1 1) rotate(0) translate(4 180.74)">
<title>neat</title>
<polygon fill="white" stroke="none" points="-4,4 -4,-180.74 254.24,-180.74 254.24,4 -4,4"/>
<!-- node0 -->
<g id="node1" class="node">
<title>node0</title>
<ellipse fill="lightblue" stroke="black" cx="18" cy="-158.74" rx="18" ry="18"/>
<text text-anchor="middle" x="18" y="-153.69" font-family="Times,serif" font-size="14.00">0</text>
</g>
<!-- node188 -->
<g id="node4" class="node">
<title>node188</title>
<ellipse fill="lightgray" stroke="black" cx="120.74" cy="-144.74" rx="24.74" ry="24.74"/>
<text text-anchor="middle" x="120.74" y="-139.69" font-family="Times,serif" font-size="14.00">188</text>
</g>
<!-- node0&#45;&gt;node188 -->
<g id="edge2" class="edge">
<title>node0&#45;&gt;node188</title>
<path fill="none" stroke="black" d="M36.09,-156.36C49.28,-154.53 67.98,-151.93 84.36,-149.65"/>
<polygon fill="black" stroke="black" points="84.83,-153.12 94.26,-148.28 83.87,-146.19 84.83,-153.12"/>
<text text-anchor="middle" x="66" y="-156.94" font-family="Times,serif" font-size="14.00">3.54</text>
</g>
<!-- node1 -->
<g id="node2" class="node">
<title>node1</title>
<ellipse fill="lightblue" stroke="black" cx="18" cy="-95.74" rx="18" ry="18"/>
<text text-anchor="middle" x="18" y="-90.69" font-family="Times,serif" font-size="14.00">1</text>
</g>
<!-- node36 -->
<g id="node3" class="node">
<title>node36</title>
<ellipse fill="lightgreen" stroke="black" cx="230.11" cy="-85.74" rx="20.13" ry="20.13"/>
<text text-anchor="middle" x="230.11" y="-80.69" font-family="Times,serif" font-size="14.00">36</text>
</g>
<!-- node1&#45;&gt;node36 -->
<g id="edge1" class="edge">
<title>node1&#45;&gt;node36</title>
<path fill="none" stroke="black" d="M36.19,-94.92C71.66,-93.23 153.34,-89.34 198.21,-87.21"/>
<polygon fill="black" stroke="black" points="198.22,-90.71 208.04,-86.74 197.89,-83.72 198.22,-90.71"/>
<text text-anchor="middle" x="120.74" y="-95.94" font-family="Times,serif" font-size="14.00">&#45;1.20</text>
</g>
<!-- node1&#45;&gt;node188 -->
<g id="edge4" class="edge">
<title>node1&#45;&gt;node188</title>
<path fill="none" stroke="black" d="M34.74,-103.39C48.99,-110.32 70.4,-120.74 88.17,-129.38"/>
<polygon fill="black" stroke="black" points="86.24,-132.34 96.77,-133.56 89.3,-126.04 86.24,-132.34"/>
<text text-anchor="middle" x="66" y="-125.94" font-family="Times,serif" font-size="14.00">1.25</text>
</g>
<!-- node188&#45;&gt;node36 -->
<g id="edge3" class="edge">
<title>node188&#45;&gt;node36</title>
<path fill="none" stroke="black" d="M142.95,-133.08C159.81,-123.82 183.51,-110.79 201.79,-100.75"/>
<polygon fill="black" stroke="black" points="203.43,-103.84 210.5,-95.96 200.06,-97.71 203.43,-103.84"/>
<text text-anchor="middle" x="177.72" y="-122.94" font-family="Times,serif" font-size="14.00">0.46</text>
</g>
<!-- node246 -->
<g id="node5" class="node">
<title>node246</title>
<ellipse fill="lightgray" stroke="black" cx="120.74" cy="-24.74" rx="24.74" ry="24.74"/>
<text text-anchor="middle" x="120.74" y="-19.69" font-family="Times,serif" font-size="14.00">246</text>
</g>
<!-- node246&#45;&gt;node36 -->
<g id="edge5" class="edge">
<title>node246&#45;&gt;node36</title>
<path fill="none" stroke="black" d="M144.35,-32.71C158.52,-38.14 176.89,-46.02 191.97,-55.24 196.71,-58.13 201.49,-61.58 205.97,-65.1"/>
<polygon fill="black" stroke="black" points="203.54,-67.63 213.48,-71.3 208,-62.24 203.54,-67.63"/>
<text text-anchor="middle" x="177.72" y="-58.94" font-family="Times,serif" font-size="14.00">&#45;0.24</text>
</g>
</g>
</svg>
