<?xml version="1.0" encoding="UTF-8" standalone="no"?>
<!DOCTYPE svg PUBLIC "-//W3C//DTD SVG 1.1//EN"
 "http://www.w3.org/Graphics/SVG/1.1/DTD/svg11.dtd">
<!-- Generated by graphviz version 9.0.0 (20230911.1827)
 -->
<!-- Title: neat Pages: 1 -->
<svg width="276pt" height="233pt"
 viewBox="0.00 0.00 276.42 232.74" xmlns="http://www.w3.org/2000/svg" xmlns:xlink="http://www.w3.org/1999/xlink">
<g id="graph0" class="graph" transform="scale(1 1) rotate(0) translate(4 228.74)">
<title>neat</title>
<polygon fill="white" stroke="none" points="-4,4 -4,-228.74 272.42,-228.74 272.42,4 -4,4"/>
<!-- node0 -->
<g id="node1" class="node">
<title>node0</title>
<ellipse fill="lightblue" stroke="black" cx="24.74" cy="-18" rx="18" ry="18"/>
<text text-anchor="middle" x="24.74" y="-12.95" font-family="Times,serif" font-size="14.00">0</text>
</g>
<!-- node1 -->
<g id="node2" class="node">
<title>node1</title>
<ellipse fill="lightblue" stroke="black" cx="24.74" cy="-72" rx="18" ry="18"/>
<text text-anchor="middle" x="24.74" y="-66.95" font-family="Times,serif" font-size="14.00">1</text>
</g>
<!-- node285 -->
<g id="node6" class="node">
<title>node285</title>
<ellipse fill="lightgray" stroke="black" cx="134.21" cy="-72" rx="24.74" ry="24.74"/>
<text text-anchor="middle" x="134.21" y="-66.95" font-family="Times,serif" font-size="14.00">285</text>
</g>
<!-- node1&#45;&gt;node285 -->
<g id="edge2" class="edge">
<title>node1&#45;&gt;node285</title>
<path fill="none" stroke="black" d="M43.01,-72C57.7,-72 79.3,-72 97.67,-72"/>
<polygon fill="black" stroke="black" points="97.66,-75.5 107.66,-72 97.66,-68.5 97.66,-75.5"/>
<text text-anchor="middle" x="79.47" y="-75.2" font-family="Times,serif" font-size="14.00">1.00</text>
</g>
<!-- node136 -->
<g id="node3" class="node">
<title>node136</title>
<ellipse fill="lightgreen" stroke="black" cx="24.74" cy="-133" rx="24.74" ry="24.74"/>
<text text-anchor="middle" x="24.74" y="-127.95" font-family="Times,serif" font-size="14.00">136</text>
</g>
<!-- node171 -->
<g id="node4" class="node">
<title>node171</title>
<ellipse fill="lightgray" stroke="black" cx="24.74" cy="-200" rx="24.74" ry="24.74"/>
<text text-anchor="middle" x="24.74" y="-194.95" font-family="Times,serif" font-size="14.00">171</text>
</g>
<!-- node243 -->
<g id="node5" class="node">
<title>node243</title>
<ellipse fill="lightgray" stroke="black" cx="243.69" cy="-72" rx="24.74" ry="24.74"/>
<text text-anchor="middle" x="243.69" y="-66.95" font-family="Times,serif" font-size="14.00">243</text>
</g>
<!-- node285&#45;&gt;node243 -->
<g id="edge1" class="edge">
<title>node285&#45;&gt;node243</title>
<path fill="none" stroke="black" d="M159.33,-72C173.44,-72 191.5,-72 207.2,-72"/>
<polygon fill="black" stroke="black" points="207.13,-75.5 217.13,-72 207.13,-68.5 207.13,-75.5"/>
<text text-anchor="middle" x="188.95" y="-75.2" font-family="Times,serif" font-size="14.00">0.52</text>
</g>
</g>
</svg>
