<?xml version="1.0" encoding="UTF-8" standalone="no"?>
<!DOCTYPE svg PUBLIC "-//W3C//DTD SVG 1.1//EN"
 "http://www.w3.org/Graphics/SVG/1.1/DTD/svg11.dtd">
<!-- Generated by graphviz version 9.0.0 (20230911.1827)
 -->
<!-- Title: neat Pages: 1 -->
<svg width="572pt" height="1264pt"
 viewBox="0.00 0.00 571.92 1264.00" xmlns="http://www.w3.org/2000/svg" xmlns:xlink="http://www.w3.org/1999/xlink">
<g id="graph0" class="graph" transform="scale(1 1) rotate(0) translate(4 1260)">
<title>neat</title>
<polygon fill="white" stroke="none" points="-4,4 -4,-1260 567.92,-1260 567.92,4 -4,4"/>
<g id="clust1" class="cluster">
<title>cluster_0</title>
<path fill="none" stroke="gray" d="M20,-8C20,-8 543.92,-8 543.92,-8 549.92,-8 555.92,-14 555.92,-20 555.92,-20 555.92,-300 555.92,-300 555.92,-306 549.92,-312 543.92,-312 543.92,-312 20,-312 20,-312 14,-312 8,-306 8,-300 8,-300 8,-20 8,-20 8,-14 14,-8 20,-8"/>
<text text-anchor="middle" x="281.96" y="-294.7" font-family="Times,serif" font-size="14.00">Test 0,0 → 0</text>
</g>
<g id="clust2" class="cluster">
<title>cluster_1</title>
<path fill="none" stroke="gray" d="M20,-320C20,-320 543.92,-320 543.92,-320 549.92,-320 555.92,-326 555.92,-332 555.92,-332 555.92,-612 555.92,-612 555.92,-618 549.92,-624 543.92,-624 543.92,-624 20,-624 20,-624 14,-624 8,-618 8,-612 8,-612 8,-332 8,-332 8,-326 14,-320 20,-320"/>
<text text-anchor="middle" x="281.96" y="-606.7" font-family="Times,serif" font-size="14.00">Test 0,1 → 1</text>
</g>
<g id="clust3" class="cluster">
<title>cluster_2</title>
<path fill="none" stroke="gray" d="M20,-632C20,-632 543.92,-632 543.92,-632 549.92,-632 555.92,-638 555.92,-644 555.92,-644 555.92,-924 555.92,-924 555.92,-930 549.92,-936 543.92,-936 543.92,-936 20,-936 20,-936 14,-936 8,-930 8,-924 8,-924 8,-644 8,-644 8,-638 14,-632 20,-632"/>
<text text-anchor="middle" x="281.96" y="-918.7" font-family="Times,serif" font-size="14.00">Test 1,0 → 1</text>
</g>
<g id="clust4" class="cluster">
<title>cluster_3</title>
<path fill="none" stroke="gray" d="M20,-944C20,-944 543.92,-944 543.92,-944 549.92,-944 555.92,-950 555.92,-956 555.92,-956 555.92,-1236 555.92,-1236 555.92,-1242 549.92,-1248 543.92,-1248 543.92,-1248 20,-1248 20,-1248 14,-1248 8,-1242 8,-1236 8,-1236 8,-956 8,-956 8,-950 14,-944 20,-944"/>
<text text-anchor="middle" x="281.96" y="-1230.7" font-family="Times,serif" font-size="14.00">Test 1,1 → 0</text>
</g>
<!-- node0_0 -->
<g id="node1" class="node">
<title>node0_0</title>
<ellipse fill="lightblue" stroke="black" cx="47.9" cy="-197" rx="31.9" ry="31.9"/>
<text text-anchor="middle" x="47.9" y="-191.95" font-family="Times,serif" font-size="14.00">0.000</text>
</g>
<!-- node164_0 -->
<g id="node4" class="node">
<title>node164_0</title>
<ellipse fill="lightgray" stroke="black" cx="279.71" cy="-148" rx="31.9" ry="31.9"/>
<text text-anchor="middle" x="279.71" y="-142.95" font-family="Times,serif" font-size="14.00">0.500</text>
</g>
<!-- node0_0&#45;&gt;node164_0 -->
<g id="edge2" class="edge">
<title>node0_0&#45;&gt;node164_0</title>
<path fill="none" stroke="black" d="M79.42,-190.49C119.85,-181.87 191.36,-166.63 236.82,-156.93"/>
<polygon fill="black" stroke="black" points="237.54,-160.36 246.59,-154.85 236.08,-153.51 237.54,-160.36"/>
<text text-anchor="middle" x="163.81" y="-176.2" font-family="Times,serif" font-size="14.00">1.00</text>
</g>
<!-- node188_0 -->
<g id="node5" class="node">
<title>node188_0</title>
<ellipse fill="lightgray" stroke="black" cx="279.71" cy="-248" rx="31.9" ry="31.9"/>
<text text-anchor="middle" x="279.71" y="-242.95" font-family="Times,serif" font-size="14.00">0.500</text>
</g>
<!-- node0_0&#45;&gt;node188_0 -->
<g id="edge3" class="edge">
<title>node0_0&#45;&gt;node188_0</title>
<path fill="none" stroke="black" d="M79.42,-203.77C119.94,-212.76 191.66,-228.68 237.11,-238.77"/>
<polygon fill="black" stroke="black" points="236.07,-242.12 246.59,-240.87 237.58,-235.29 236.07,-242.12"/>
<text text-anchor="middle" x="163.81" y="-227.2" font-family="Times,serif" font-size="14.00">1.00</text>
</g>
<!-- node1_0 -->
<g id="node2" class="node">
<title>node1_0</title>
<ellipse fill="lightblue" stroke="black" cx="279.71" cy="-48" rx="31.9" ry="31.9"/>
<text text-anchor="middle" x="279.71" y="-42.95" font-family="Times,serif" font-size="14.00">0.000</text>
</g>
<!-- node121_0 -->
<g id="node3" class="node">
<title>node121_0</title>
<ellipse fill="lightgreen" stroke="black" cx="516.01" cy="-167" rx="31.9" ry="31.9"/>
<text text-anchor="middle" x="516.01" y="-161.95" font-family="Times,serif" font-size="14.00">0.116</text>
</g>
<!-- node1_0&#45;&gt;node121_0 -->
<g id="edge1" class="edge">
<title>node1_0&#45;&gt;node121_0</title>
<path fill="none" stroke="black" d="M308.51,-62.12C350.43,-83.41 429.94,-123.79 477.13,-147.76"/>
<polygon fill="black" stroke="black" points="475.4,-150.81 485.9,-152.21 478.57,-144.57 475.4,-150.81"/>
<text text-anchor="middle" x="397.86" y="-117.2" font-family="Times,serif" font-size="14.00">0.62</text>
</g>
<!-- node188_0&#45;&gt;node121_0 -->
<g id="edge4" class="edge">
<title>node188_0&#45;&gt;node121_0</title>
<path fill="none" stroke="black" d="M310.38,-237.74C352.11,-223.32 428.23,-197 474.94,-180.85"/>
<polygon fill="black" stroke="black" points="475.84,-184.25 484.15,-177.67 473.55,-177.63 475.84,-184.25"/>
<text text-anchor="middle" x="397.86" y="-215.2" font-family="Times,serif" font-size="14.00">&#45;0.83</text>
</g>
<!-- node0_1 -->
<g id="node6" class="node">
<title>node0_1</title>
<ellipse fill="lightblue" stroke="black" cx="47.9" cy="-509" rx="31.9" ry="31.9"/>
<text text-anchor="middle" x="47.9" y="-503.95" font-family="Times,serif" font-size="14.00">0.000</text>
</g>
<!-- node164_1 -->
<g id="node9" class="node">
<title>node164_1</title>
<ellipse fill="lightgray" stroke="black" cx="279.71" cy="-460" rx="31.9" ry="31.9"/>
<text text-anchor="middle" x="279.71" y="-454.95" font-family="Times,serif" font-size="14.00">0.500</text>
</g>
<!-- node0_1&#45;&gt;node164_1 -->
<g id="edge6" class="edge">
<title>node0_1&#45;&gt;node164_1</title>
<path fill="none" stroke="black" d="M79.42,-502.49C119.85,-493.87 191.36,-478.63 236.82,-468.93"/>
<polygon fill="black" stroke="black" points="237.54,-472.36 246.59,-466.85 236.08,-465.51 237.54,-472.36"/>
<text text-anchor="middle" x="163.81" y="-488.2" font-family="Times,serif" font-size="14.00">1.00</text>
</g>
<!-- node188_1 -->
<g id="node10" class="node">
<title>node188_1</title>
<ellipse fill="lightgray" stroke="black" cx="279.71" cy="-560" rx="31.9" ry="31.9"/>
<text text-anchor="middle" x="279.71" y="-554.95" font-family="Times,serif" font-size="14.00">0.500</text>
</g>
<!-- node0_1&#45;&gt;node188_1 -->
<g id="edge7" class="edge">
<title>node0_1&#45;&gt;node188_1</title>
<path fill="none" stroke="black" d="M79.42,-515.77C119.94,-524.76 191.66,-540.68 237.11,-550.77"/>
<polygon fill="black" stroke="black" points="236.07,-554.12 246.59,-552.87 237.58,-547.29 236.07,-554.12"/>
<text text-anchor="middle" x="163.81" y="-539.2" font-family="Times,serif" font-size="14.00">1.00</text>
</g>
<!-- node1_1 -->
<g id="node7" class="node">
<title>node1_1</title>
<ellipse fill="lightblue" stroke="black" cx="279.71" cy="-360" rx="31.9" ry="31.9"/>
<text text-anchor="middle" x="279.71" y="-354.95" font-family="Times,serif" font-size="14.00">1.000</text>
</g>
<!-- node121_1 -->
<g id="node8" class="node">
<title>node121_1</title>
<ellipse fill="lightgreen" stroke="black" cx="516.01" cy="-479" rx="31.9" ry="31.9"/>
<text text-anchor="middle" x="516.01" y="-473.95" font-family="Times,serif" font-size="14.00">0.735</text>
</g>
<!-- node1_1&#45;&gt;node121_1 -->
<g id="edge5" class="edge">
<title>node1_1&#45;&gt;node121_1</title>
<path fill="none" stroke="black" d="M308.51,-374.12C350.43,-395.41 429.94,-435.79 477.13,-459.76"/>
<polygon fill="black" stroke="black" points="475.4,-462.81 485.9,-464.21 478.57,-456.57 475.4,-462.81"/>
<text text-anchor="middle" x="397.86" y="-429.2" font-family="Times,serif" font-size="14.00">0.62</text>
</g>
<!-- node188_1&#45;&gt;node121_1 -->
<g id="edge8" class="edge">
<title>node188_1&#45;&gt;node121_1</title>
<path fill="none" stroke="black" d="M310.38,-549.74C352.11,-535.32 428.23,-509 474.94,-492.85"/>
<polygon fill="black" stroke="black" points="475.84,-496.25 484.15,-489.67 473.55,-489.63 475.84,-496.25"/>
<text text-anchor="middle" x="397.86" y="-527.2" font-family="Times,serif" font-size="14.00">&#45;0.83</text>
</g>
<!-- node0_2 -->
<g id="node11" class="node">
<title>node0_2</title>
<ellipse fill="lightblue" stroke="black" cx="47.9" cy="-821" rx="31.9" ry="31.9"/>
<text text-anchor="middle" x="47.9" y="-815.95" font-family="Times,serif" font-size="14.00">1.000</text>
</g>
<!-- node164_2 -->
<g id="node14" class="node">
<title>node164_2</title>
<ellipse fill="lightgray" stroke="black" cx="279.71" cy="-772" rx="31.9" ry="31.9"/>
<text text-anchor="middle" x="279.71" y="-766.95" font-family="Times,serif" font-size="14.00">0.993</text>
</g>
<!-- node0_2&#45;&gt;node164_2 -->
<g id="edge10" class="edge">
<title>node0_2&#45;&gt;node164_2</title>
<path fill="none" stroke="black" d="M79.42,-814.49C119.85,-805.87 191.36,-790.63 236.82,-780.93"/>
<polygon fill="black" stroke="black" points="237.54,-784.36 246.59,-778.85 236.08,-777.51 237.54,-784.36"/>
<text text-anchor="middle" x="163.81" y="-800.2" font-family="Times,serif" font-size="14.00">1.00</text>
</g>
<!-- node188_2 -->
<g id="node15" class="node">
<title>node188_2</title>
<ellipse fill="lightgray" stroke="black" cx="279.71" cy="-872" rx="31.9" ry="31.9"/>
<text text-anchor="middle" x="279.71" y="-866.95" font-family="Times,serif" font-size="14.00">0.993</text>
</g>
<!-- node0_2&#45;&gt;node188_2 -->
<g id="edge11" class="edge">
<title>node0_2&#45;&gt;node188_2</title>
<path fill="none" stroke="black" d="M79.42,-827.77C119.94,-836.76 191.66,-852.68 237.11,-862.77"/>
<polygon fill="black" stroke="black" points="236.07,-866.12 246.59,-864.87 237.58,-859.29 236.07,-866.12"/>
<text text-anchor="middle" x="163.81" y="-851.2" font-family="Times,serif" font-size="14.00">1.00</text>
</g>
<!-- node1_2 -->
<g id="node12" class="node">
<title>node1_2</title>
<ellipse fill="lightblue" stroke="black" cx="279.71" cy="-672" rx="31.9" ry="31.9"/>
<text text-anchor="middle" x="279.71" y="-666.95" font-family="Times,serif" font-size="14.00">0.000</text>
</g>
<!-- node121_2 -->
<g id="node13" class="node">
<title>node121_2</title>
<ellipse fill="lightgreen" stroke="black" cx="516.01" cy="-791" rx="31.9" ry="31.9"/>
<text text-anchor="middle" x="516.01" y="-785.95" font-family="Times,serif" font-size="14.00">0.017</text>
</g>
<!-- node1_2&#45;&gt;node121_2 -->
<g id="edge9" class="edge">
<title>node1_2&#45;&gt;node121_2</title>
<path fill="none" stroke="black" d="M308.51,-686.12C350.43,-707.41 429.94,-747.79 477.13,-771.76"/>
<polygon fill="black" stroke="black" points="475.4,-774.81 485.9,-776.21 478.57,-768.57 475.4,-774.81"/>
<text text-anchor="middle" x="397.86" y="-741.2" font-family="Times,serif" font-size="14.00">0.62</text>
</g>
<!-- node188_2&#45;&gt;node121_2 -->
<g id="edge12" class="edge">
<title>node188_2&#45;&gt;node121_2</title>
<path fill="none" stroke="black" d="M310.38,-861.74C352.11,-847.32 428.23,-821 474.94,-804.85"/>
<polygon fill="black" stroke="black" points="475.84,-808.25 484.15,-801.67 473.55,-801.63 475.84,-808.25"/>
<text text-anchor="middle" x="397.86" y="-839.2" font-family="Times,serif" font-size="14.00">&#45;0.83</text>
</g>
<!-- node0_3 -->
<g id="node16" class="node">
<title>node0_3</title>
<ellipse fill="lightblue" stroke="black" cx="47.9" cy="-1133" rx="31.9" ry="31.9"/>
<text text-anchor="middle" x="47.9" y="-1127.95" font-family="Times,serif" font-size="14.00">1.000</text>
</g>
<!-- node164_3 -->
<g id="node19" class="node">
<title>node164_3</title>
<ellipse fill="lightgray" stroke="black" cx="279.71" cy="-1084" rx="31.9" ry="31.9"/>
<text text-anchor="middle" x="279.71" y="-1078.95" font-family="Times,serif" font-size="14.00">0.993</text>
</g>
<!-- node0_3&#45;&gt;node164_3 -->
<g id="edge14" class="edge">
<title>node0_3&#45;&gt;node164_3</title>
<path fill="none" stroke="black" d="M79.42,-1126.49C119.85,-1117.87 191.36,-1102.63 236.82,-1092.93"/>
<polygon fill="black" stroke="black" points="237.54,-1096.36 246.59,-1090.85 236.08,-1089.51 237.54,-1096.36"/>
<text text-anchor="middle" x="163.81" y="-1112.2" font-family="Times,serif" font-size="14.00">1.00</text>
</g>
<!-- node188_3 -->
<g id="node20" class="node">
<title>node188_3</title>
<ellipse fill="lightgray" stroke="black" cx="279.71" cy="-1184" rx="31.9" ry="31.9"/>
<text text-anchor="middle" x="279.71" y="-1178.95" font-family="Times,serif" font-size="14.00">0.993</text>
</g>
<!-- node0_3&#45;&gt;node188_3 -->
<g id="edge15" class="edge">
<title>node0_3&#45;&gt;node188_3</title>
<path fill="none" stroke="black" d="M79.42,-1139.77C119.94,-1148.76 191.66,-1164.68 237.11,-1174.77"/>
<polygon fill="black" stroke="black" points="236.07,-1178.12 246.59,-1176.87 237.58,-1171.29 236.07,-1178.12"/>
<text text-anchor="middle" x="163.81" y="-1163.2" font-family="Times,serif" font-size="14.00">1.00</text>
</g>
<!-- node1_3 -->
<g id="node17" class="node">
<title>node1_3</title>
<ellipse fill="lightblue" stroke="black" cx="279.71" cy="-984" rx="31.9" ry="31.9"/>
<text text-anchor="middle" x="279.71" y="-978.95" font-family="Times,serif" font-size="14.00">1.000</text>
</g>
<!-- node121_3 -->
<g id="node18" class="node">
<title>node121_3</title>
<ellipse fill="lightgreen" stroke="black" cx="516.01" cy="-1103" rx="31.9" ry="31.9"/>
<text text-anchor="middle" x="516.01" y="-1097.95" font-family="Times,serif" font-size="14.00">0.273</text>
</g>
<!-- node1_3&#45;&gt;node121_3 -->
<g id="edge13" class="edge">
<title>node1_3&#45;&gt;node121_3</title>
<path fill="none" stroke="black" d="M308.51,-998.12C350.43,-1019.41 429.94,-1059.79 477.13,-1083.76"/>
<polygon fill="black" stroke="black" points="475.4,-1086.81 485.9,-1088.21 478.57,-1080.57 475.4,-1086.81"/>
<text text-anchor="middle" x="397.86" y="-1053.2" font-family="Times,serif" font-size="14.00">0.62</text>
</g>
<!-- node188_3&#45;&gt;node121_3 -->
<g id="edge16" class="edge">
<title>node188_3&#45;&gt;node121_3</title>
<path fill="none" stroke="black" d="M310.38,-1173.74C352.11,-1159.32 428.23,-1133 474.94,-1116.85"/>
<polygon fill="black" stroke="black" points="475.84,-1120.25 484.15,-1113.67 473.55,-1113.63 475.84,-1120.25"/>
<text text-anchor="middle" x="397.86" y="-1151.2" font-family="Times,serif" font-size="14.00">&#45;0.83</text>
</g>
</g>
</svg>
