<?xml version="1.0" encoding="UTF-8" standalone="no"?>
<!DOCTYPE svg PUBLIC "-//W3C//DTD SVG 1.1//EN"
 "http://www.w3.org/Graphics/SVG/1.1/DTD/svg11.dtd">
<!-- Generated by graphviz version 9.0.0 (20230911.1827)
 -->
<!-- Title: neat Pages: 1 -->
<svg width="572pt" height="154pt"
 viewBox="0.00 0.00 571.53 153.81" xmlns="http://www.w3.org/2000/svg" xmlns:xlink="http://www.w3.org/1999/xlink">
<g id="graph0" class="graph" transform="scale(1 1) rotate(0) translate(4 149.81)">
<title>neat</title>
<polygon fill="white" stroke="none" points="-4,4 -4,-149.81 567.53,-149.81 567.53,4 -4,4"/>
<!-- node0 -->
<g id="node1" class="node">
<title>node0</title>
<ellipse fill="lightblue" stroke="black" cx="403.32" cy="-113.9" rx="31.9" ry="31.9"/>
<text text-anchor="middle" x="403.32" y="-108.85" font-family="Times,serif" font-size="14.00">0.000</text>
</g>
<!-- node129 -->
<g id="node3" class="node">
<title>node129</title>
<ellipse fill="lightgreen" stroke="black" cx="531.62" cy="-72.9" rx="31.9" ry="31.9"/>
<text text-anchor="middle" x="531.62" y="-67.85" font-family="Times,serif" font-size="14.00">0.000</text>
</g>
<!-- node0&#45;&gt;node129 -->
<g id="edge1" class="edge">
<title>node0&#45;&gt;node129</title>
<path fill="none" stroke="black" d="M433.93,-104.29C450.6,-98.88 471.65,-92.05 489.86,-86.14"/>
<polygon fill="black" stroke="black" points="490.89,-89.48 499.32,-83.06 488.73,-82.82 490.89,-89.48"/>
<text text-anchor="middle" x="467.47" y="-100.1" font-family="Times,serif" font-size="14.00">0.51</text>
</g>
<!-- node1 -->
<g id="node2" class="node">
<title>node1</title>
<ellipse fill="lightblue" stroke="black" cx="31.9" cy="-31.9" rx="31.9" ry="31.9"/>
<text text-anchor="middle" x="31.9" y="-26.85" font-family="Times,serif" font-size="14.00">1.000</text>
</g>
<!-- node214 -->
<g id="node6" class="node">
<title>node214</title>
<ellipse fill="lightgray" stroke="black" cx="155.71" cy="-31.9" rx="31.9" ry="31.9"/>
<text text-anchor="middle" x="155.71" y="-26.85" font-family="Times,serif" font-size="14.00">0.993</text>
</g>
<!-- node1&#45;&gt;node214 -->
<g id="edge4" class="edge">
<title>node1&#45;&gt;node214</title>
<path fill="none" stroke="black" d="M64.27,-31.9C78.9,-31.9 96.54,-31.9 112.34,-31.9"/>
<polygon fill="black" stroke="black" points="111.93,-35.4 121.93,-31.9 111.93,-28.4 111.93,-35.4"/>
<text text-anchor="middle" x="93.81" y="-35.1" font-family="Times,serif" font-size="14.00">1.00</text>
</g>
<!-- node171 -->
<g id="node4" class="node">
<title>node171</title>
<ellipse fill="lightgray" stroke="black" cx="279.51" cy="-31.9" rx="31.9" ry="31.9"/>
<text text-anchor="middle" x="279.51" y="-26.85" font-family="Times,serif" font-size="14.00">0.500</text>
</g>
<!-- node189 -->
<g id="node5" class="node">
<title>node189</title>
<ellipse fill="lightgray" stroke="black" cx="403.32" cy="-31.9" rx="31.9" ry="31.9"/>
<text text-anchor="middle" x="403.32" y="-26.85" font-family="Times,serif" font-size="14.00">0.974</text>
</g>
<!-- node171&#45;&gt;node189 -->
<g id="edge2" class="edge">
<title>node171&#45;&gt;node189</title>
<path fill="none" stroke="black" d="M311.88,-31.9C326.52,-31.9 344.15,-31.9 359.95,-31.9"/>
<polygon fill="black" stroke="black" points="359.54,-35.4 369.54,-31.9 359.54,-28.4 359.54,-35.4"/>
<text text-anchor="middle" x="341.42" y="-35.1" font-family="Times,serif" font-size="14.00">1.47</text>
</g>
<!-- node189&#45;&gt;node129 -->
<g id="edge3" class="edge">
<title>node189&#45;&gt;node129</title>
<path fill="none" stroke="black" d="M433.93,-41.52C450.6,-46.93 471.65,-53.76 489.86,-59.67"/>
<polygon fill="black" stroke="black" points="488.73,-62.98 499.32,-62.74 490.89,-56.32 488.73,-62.98"/>
<text text-anchor="middle" x="467.47" y="-60.1" font-family="Times,serif" font-size="14.00">&#45;1.98</text>
</g>
<!-- node214&#45;&gt;node171 -->
<g id="edge5" class="edge">
<title>node214&#45;&gt;node171</title>
<path fill="none" stroke="black" d="M188.08,-31.9C202.71,-31.9 220.35,-31.9 236.14,-31.9"/>
<polygon fill="black" stroke="black" points="235.74,-35.4 245.74,-31.9 235.74,-28.4 235.74,-35.4"/>
<text text-anchor="middle" x="217.61" y="-35.1" font-family="Times,serif" font-size="14.00">1.00</text>
</g>
</g>
</svg>
