<?xml version="1.0" encoding="UTF-8" standalone="no"?>
<!DOCTYPE svg PUBLIC "-//W3C//DTD SVG 1.1//EN"
 "http://www.w3.org/Graphics/SVG/1.1/DTD/svg11.dtd">
<!-- Generated by graphviz version 9.0.0 (20230911.1827)
 -->
<!-- Title: neat Pages: 1 -->
<svg width="324pt" height="154pt"
 viewBox="0.00 0.00 323.92 153.81" xmlns="http://www.w3.org/2000/svg" xmlns:xlink="http://www.w3.org/1999/xlink">
<g id="graph0" class="graph" transform="scale(1 1) rotate(0) translate(4 149.81)">
<title>neat</title>
<polygon fill="white" stroke="none" points="-4,4 -4,-149.81 319.92,-149.81 319.92,4 -4,4"/>
<!-- node0 -->
<g id="node1" class="node">
<title>node0</title>
<ellipse fill="lightblue" stroke="black" cx="31.9" cy="-113.9" rx="31.9" ry="31.9"/>
<text text-anchor="middle" x="31.9" y="-108.85" font-family="Times,serif" font-size="14.00">0.000</text>
</g>
<!-- node186 -->
<g id="node4" class="node">
<title>node186</title>
<ellipse fill="lightgray" stroke="black" cx="160.21" cy="-113.9" rx="31.9" ry="31.9"/>
<text text-anchor="middle" x="160.21" y="-108.85" font-family="Times,serif" font-size="14.00">0.500</text>
</g>
<!-- node0&#45;&gt;node186 -->
<g id="edge1" class="edge">
<title>node0&#45;&gt;node186</title>
<path fill="none" stroke="black" d="M64.12,-113.9C79.91,-113.9 99.31,-113.9 116.47,-113.9"/>
<polygon fill="black" stroke="black" points="116.39,-117.4 126.39,-113.9 116.39,-110.4 116.39,-117.4"/>
<text text-anchor="middle" x="96.06" y="-117.1" font-family="Times,serif" font-size="14.00">3.01</text>
</g>
<!-- node279 -->
<g id="node5" class="node">
<title>node279</title>
<ellipse fill="lightgray" stroke="black" cx="160.21" cy="-31.9" rx="31.9" ry="31.9"/>
<text text-anchor="middle" x="160.21" y="-26.85" font-family="Times,serif" font-size="14.00">0.993</text>
</g>
<!-- node0&#45;&gt;node279 -->
<g id="edge4" class="edge">
<title>node0&#45;&gt;node279</title>
<path fill="none" stroke="black" d="M59.07,-96.91C77.7,-84.82 102.96,-68.42 123.45,-55.12"/>
<polygon fill="black" stroke="black" points="125.32,-58.08 131.8,-49.7 121.51,-52.21 125.32,-58.08"/>
<text text-anchor="middle" x="96.06" y="-84.1" font-family="Times,serif" font-size="14.00">&#45;0.26</text>
</g>
<!-- node1 -->
<g id="node2" class="node">
<title>node1</title>
<ellipse fill="lightblue" stroke="black" cx="31.9" cy="-31.9" rx="31.9" ry="31.9"/>
<text text-anchor="middle" x="31.9" y="-26.85" font-family="Times,serif" font-size="14.00">1.000</text>
</g>
<!-- node1&#45;&gt;node279 -->
<g id="edge3" class="edge">
<title>node1&#45;&gt;node279</title>
<path fill="none" stroke="black" d="M64.12,-31.9C79.91,-31.9 99.31,-31.9 116.47,-31.9"/>
<polygon fill="black" stroke="black" points="116.39,-35.4 126.39,-31.9 116.39,-28.4 116.39,-35.4"/>
<text text-anchor="middle" x="96.06" y="-35.1" font-family="Times,serif" font-size="14.00">1.00</text>
</g>
<!-- node42 -->
<g id="node3" class="node">
<title>node42</title>
<ellipse fill="lightgreen" stroke="black" cx="284.01" cy="-113.9" rx="31.9" ry="31.9"/>
<text text-anchor="middle" x="284.01" y="-108.85" font-family="Times,serif" font-size="14.00">0.998</text>
</g>
<!-- node186&#45;&gt;node42 -->
<g id="edge2" class="edge">
<title>node186&#45;&gt;node42</title>
<path fill="none" stroke="black" d="M192.58,-113.9C207.21,-113.9 224.85,-113.9 240.64,-113.9"/>
<polygon fill="black" stroke="black" points="240.24,-117.4 250.24,-113.9 240.24,-110.4 240.24,-117.4"/>
<text text-anchor="middle" x="222.11" y="-117.1" font-family="Times,serif" font-size="14.00">2.59</text>
</g>
</g>
</svg>
