<?xml version="1.0" encoding="UTF-8" standalone="no"?>
<!DOCTYPE svg PUBLIC "-//W3C//DTD SVG 1.1//EN"
 "http://www.w3.org/Graphics/SVG/1.1/DTD/svg11.dtd">
<!-- Generated by graphviz version 9.0.0 (20230911.1827)
 -->
<!-- Title: neat Pages: 1 -->
<svg width="443pt" height="154pt"
 viewBox="0.00 0.00 443.22 153.81" xmlns="http://www.w3.org/2000/svg" xmlns:xlink="http://www.w3.org/1999/xlink">
<g id="graph0" class="graph" transform="scale(1 1) rotate(0) translate(4 149.81)">
<title>neat</title>
<polygon fill="white" stroke="none" points="-4,4 -4,-149.81 439.22,-149.81 439.22,4 -4,4"/>
<!-- node0 -->
<g id="node1" class="node">
<title>node0</title>
<ellipse fill="lightblue" stroke="black" cx="279.51" cy="-113.9" rx="31.9" ry="31.9"/>
<text text-anchor="middle" x="279.51" y="-108.85" font-family="Times,serif" font-size="14.00">0.000</text>
</g>
<!-- node122 -->
<g id="node3" class="node">
<title>node122</title>
<ellipse fill="lightgreen" stroke="black" cx="403.32" cy="-72.9" rx="31.9" ry="31.9"/>
<text text-anchor="middle" x="403.32" y="-67.85" font-family="Times,serif" font-size="14.00">0.994</text>
</g>
<!-- node0&#45;&gt;node122 -->
<g id="edge1" class="edge">
<title>node0&#45;&gt;node122</title>
<path fill="none" stroke="black" d="M310.31,-103.87C325.91,-98.62 345.23,-92.12 362.13,-86.43"/>
<polygon fill="black" stroke="black" points="363.03,-89.82 371.4,-83.31 360.8,-83.18 363.03,-89.82"/>
<text text-anchor="middle" x="341.42" y="-100.1" font-family="Times,serif" font-size="14.00">1.58</text>
</g>
<!-- node1 -->
<g id="node2" class="node">
<title>node1</title>
<ellipse fill="lightblue" stroke="black" cx="31.9" cy="-31.9" rx="31.9" ry="31.9"/>
<text text-anchor="middle" x="31.9" y="-26.85" font-family="Times,serif" font-size="14.00">1.000</text>
</g>
<!-- node242 -->
<g id="node5" class="node">
<title>node242</title>
<ellipse fill="lightgray" stroke="black" cx="155.71" cy="-31.9" rx="31.9" ry="31.9"/>
<text text-anchor="middle" x="155.71" y="-26.85" font-family="Times,serif" font-size="14.00">0.993</text>
</g>
<!-- node1&#45;&gt;node242 -->
<g id="edge3" class="edge">
<title>node1&#45;&gt;node242</title>
<path fill="none" stroke="black" d="M64.27,-31.9C78.9,-31.9 96.54,-31.9 112.34,-31.9"/>
<polygon fill="black" stroke="black" points="111.93,-35.4 121.93,-31.9 111.93,-28.4 111.93,-35.4"/>
<text text-anchor="middle" x="93.81" y="-35.1" font-family="Times,serif" font-size="14.00">1.00</text>
</g>
<!-- node152 -->
<g id="node4" class="node">
<title>node152</title>
<ellipse fill="lightgray" stroke="black" cx="279.51" cy="-31.9" rx="31.9" ry="31.9"/>
<text text-anchor="middle" x="279.51" y="-26.85" font-family="Times,serif" font-size="14.00">0.500</text>
</g>
<!-- node152&#45;&gt;node122 -->
<g id="edge2" class="edge">
<title>node152&#45;&gt;node122</title>
<path fill="none" stroke="black" d="M310.31,-41.93C325.91,-47.18 345.23,-53.69 362.13,-59.38"/>
<polygon fill="black" stroke="black" points="360.8,-62.62 371.4,-62.49 363.03,-55.99 360.8,-62.62"/>
<text text-anchor="middle" x="341.42" y="-60.1" font-family="Times,serif" font-size="14.00">2.06</text>
</g>
<!-- node242&#45;&gt;node152 -->
<g id="edge4" class="edge">
<title>node242&#45;&gt;node152</title>
<path fill="none" stroke="black" d="M188.08,-31.9C202.71,-31.9 220.35,-31.9 236.14,-31.9"/>
<polygon fill="black" stroke="black" points="235.74,-35.4 245.74,-31.9 235.74,-28.4 235.74,-35.4"/>
<text text-anchor="middle" x="217.61" y="-35.1" font-family="Times,serif" font-size="14.00">1.64</text>
</g>
</g>
</svg>
