<?xml version="1.0" encoding="UTF-8" standalone="no"?>
<!DOCTYPE svg PUBLIC "-//W3C//DTD SVG 1.1//EN"
 "http://www.w3.org/Graphics/SVG/1.1/DTD/svg11.dtd">
<!-- Generated by graphviz version 9.0.0 (20230911.1827)
 -->
<!-- Title: neat Pages: 1 -->
<svg width="158pt" height="98pt"
 viewBox="0.00 0.00 157.97 98.00" xmlns="http://www.w3.org/2000/svg" xmlns:xlink="http://www.w3.org/1999/xlink">
<g id="graph0" class="graph" transform="scale(1 1) rotate(0) translate(4 94)">
<title>neat</title>
<polygon fill="white" stroke="none" points="-4,4 -4,-94 153.97,-94 153.97,4 -4,4"/>
<!-- node0 -->
<g id="node1" class="node">
<title>node0</title>
<ellipse fill="lightblue" stroke="black" cx="18" cy="-72" rx="18" ry="18"/>
<text text-anchor="middle" x="18" y="-66.95" font-family="Times,serif" font-size="14.00">0</text>
</g>
<!-- node117 -->
<g id="node3" class="node">
<title>node117</title>
<ellipse fill="lightgreen" stroke="black" cx="125.24" cy="-45" rx="24.74" ry="24.74"/>
<text text-anchor="middle" x="125.24" y="-39.95" font-family="Times,serif" font-size="14.00">117</text>
</g>
<!-- node0&#45;&gt;node117 -->
<g id="edge1" class="edge">
<title>node0&#45;&gt;node117</title>
<path fill="none" stroke="black" d="M35.91,-67.66C50.47,-63.93 71.93,-58.42 90.05,-53.77"/>
<polygon fill="black" stroke="black" points="90.81,-57.19 99.63,-51.31 89.07,-50.41 90.81,-57.19"/>
<text text-anchor="middle" x="68.25" y="-65.2" font-family="Times,serif" font-size="14.00">&#45;1.68</text>
</g>
<!-- node1 -->
<g id="node2" class="node">
<title>node1</title>
<ellipse fill="lightblue" stroke="black" cx="18" cy="-18" rx="18" ry="18"/>
<text text-anchor="middle" x="18" y="-12.95" font-family="Times,serif" font-size="14.00">1</text>
</g>
<!-- node1&#45;&gt;node117 -->
<g id="edge2" class="edge">
<title>node1&#45;&gt;node117</title>
<path fill="none" stroke="black" d="M35.91,-22.34C50.47,-26.07 71.93,-31.58 90.05,-36.23"/>
<polygon fill="black" stroke="black" points="89.07,-39.59 99.63,-38.69 90.81,-32.81 89.07,-39.59"/>
<text text-anchor="middle" x="68.25" y="-37.2" font-family="Times,serif" font-size="14.00">1.72</text>
</g>
</g>
</svg>
