<?xml version="1.0" encoding="UTF-8" standalone="no"?>
<!DOCTYPE svg PUBLIC "-//W3C//DTD SVG 1.1//EN"
 "http://www.w3.org/Graphics/SVG/1.1/DTD/svg11.dtd">
<!-- Generated by graphviz version 9.0.0 (20230911.1827)
 -->
<!-- Title: neat Pages: 1 -->
<svg width="158pt" height="131pt"
 viewBox="0.00 0.00 157.97 131.13" xmlns="http://www.w3.org/2000/svg" xmlns:xlink="http://www.w3.org/1999/xlink">
<g id="graph0" class="graph" transform="scale(1 1) rotate(0) translate(4 127.13)">
<title>neat</title>
<polygon fill="white" stroke="none" points="-4,4 -4,-127.13 153.97,-127.13 153.97,4 -4,4"/>
<!-- node0 -->
<g id="node1" class="node">
<title>node0</title>
<ellipse fill="lightblue" stroke="black" cx="18" cy="-18" rx="18" ry="18"/>
<text text-anchor="middle" x="18" y="-12.95" font-family="Times,serif" font-size="14.00">0</text>
</g>
<!-- node1 -->
<g id="node2" class="node">
<title>node1</title>
<ellipse fill="lightblue" stroke="black" cx="18" cy="-72" rx="18" ry="18"/>
<text text-anchor="middle" x="18" y="-66.95" font-family="Times,serif" font-size="14.00">1</text>
</g>
<!-- node91 -->
<g id="node3" class="node">
<title>node91</title>
<ellipse fill="lightgreen" stroke="black" cx="125.24" cy="-103" rx="20.13" ry="20.13"/>
<text text-anchor="middle" x="125.24" y="-97.95" font-family="Times,serif" font-size="14.00">91</text>
</g>
<!-- node1&#45;&gt;node91 -->
<g id="edge1" class="edge">
<title>node1&#45;&gt;node91</title>
<path fill="none" stroke="black" d="M35.44,-76.84C51.22,-81.49 75.41,-88.62 94.55,-94.26"/>
<polygon fill="black" stroke="black" points="93.39,-97.56 103.97,-97.03 95.37,-90.85 93.39,-97.56"/>
<text text-anchor="middle" x="68.25" y="-93.2" font-family="Times,serif" font-size="14.00">&#45;0.61</text>
</g>
<!-- node165 -->
<g id="node4" class="node">
<title>node165</title>
<ellipse fill="lightgray" stroke="black" cx="125.24" cy="-40" rx="24.74" ry="24.74"/>
<text text-anchor="middle" x="125.24" y="-34.95" font-family="Times,serif" font-size="14.00">165</text>
</g>
<!-- node1&#45;&gt;node165 -->
<g id="edge2" class="edge">
<title>node1&#45;&gt;node165</title>
<path fill="none" stroke="black" d="M35.44,-67C50.09,-62.55 71.99,-55.89 90.38,-50.3"/>
<polygon fill="black" stroke="black" points="91.28,-53.68 99.82,-47.42 89.24,-46.98 91.28,-53.68"/>
<text text-anchor="middle" x="68.25" y="-64.2" font-family="Times,serif" font-size="14.00">&#45;0.93</text>
</g>
</g>
</svg>
