<?xml version="1.0" encoding="UTF-8" standalone="no"?>
<!DOCTYPE svg PUBLIC "-//W3C//DTD SVG 1.1//EN"
 "http://www.w3.org/Graphics/SVG/1.1/DTD/svg11.dtd">
<!-- Generated by graphviz version 9.0.0 (20230911.1827)
 -->
<!-- Title: neat Pages: 1 -->
<svg width="196pt" height="195pt"
 viewBox="0.00 0.00 195.61 194.81" xmlns="http://www.w3.org/2000/svg" xmlns:xlink="http://www.w3.org/1999/xlink">
<g id="graph0" class="graph" transform="scale(1 1) rotate(0) translate(4 190.81)">
<title>neat</title>
<polygon fill="white" stroke="none" points="-4,4 -4,-190.81 191.61,-190.81 191.61,4 -4,4"/>
<!-- node0 -->
<g id="node1" class="node">
<title>node0</title>
<ellipse fill="lightblue" stroke="black" cx="31.9" cy="-72.9" rx="31.9" ry="31.9"/>
<text text-anchor="middle" x="31.9" y="-67.85" font-family="Times,serif" font-size="14.00">0.000</text>
</g>
<!-- node61 -->
<g id="node3" class="node">
<title>node61</title>
<ellipse fill="lightgreen" stroke="black" cx="155.71" cy="-113.9" rx="31.9" ry="31.9"/>
<text text-anchor="middle" x="155.71" y="-108.85" font-family="Times,serif" font-size="14.00">0.500</text>
</g>
<!-- node0&#45;&gt;node61 -->
<g id="edge2" class="edge">
<title>node0&#45;&gt;node61</title>
<path fill="none" stroke="black" d="M62.7,-82.93C78.3,-88.18 97.62,-94.69 114.52,-100.38"/>
<polygon fill="black" stroke="black" points="113.19,-103.62 123.78,-103.49 115.42,-96.99 113.19,-103.62"/>
<text text-anchor="middle" x="93.81" y="-100.1" font-family="Times,serif" font-size="14.00">0.84</text>
</g>
<!-- node168 -->
<g id="node4" class="node">
<title>node168</title>
<ellipse fill="lightgray" stroke="black" cx="155.71" cy="-31.9" rx="31.9" ry="31.9"/>
<text text-anchor="middle" x="155.71" y="-26.85" font-family="Times,serif" font-size="14.00">0.500</text>
</g>
<!-- node0&#45;&gt;node168 -->
<g id="edge1" class="edge">
<title>node0&#45;&gt;node168</title>
<path fill="none" stroke="black" d="M62.7,-62.87C78.3,-57.62 97.62,-51.12 114.52,-45.43"/>
<polygon fill="black" stroke="black" points="115.42,-48.82 123.78,-42.31 113.19,-42.18 115.42,-48.82"/>
<text text-anchor="middle" x="93.81" y="-60.1" font-family="Times,serif" font-size="14.00">0.39</text>
</g>
<!-- node1 -->
<g id="node2" class="node">
<title>node1</title>
<ellipse fill="lightblue" stroke="black" cx="31.9" cy="-154.9" rx="31.9" ry="31.9"/>
<text text-anchor="middle" x="31.9" y="-149.85" font-family="Times,serif" font-size="14.00">1.000</text>
</g>
</g>
</svg>
