<?xml version="1.0" encoding="UTF-8" standalone="no"?>
<!DOCTYPE svg PUBLIC "-//W3C//DTD SVG 1.1//EN"
 "http://www.w3.org/Graphics/SVG/1.1/DTD/svg11.dtd">
<!-- Generated by graphviz version 9.0.0 (20230911.1827)
 -->
<!-- Title: neat Pages: 1 -->
<svg width="368pt" height="149pt"
 viewBox="0.00 0.00 367.71 149.13" xmlns="http://www.w3.org/2000/svg" xmlns:xlink="http://www.w3.org/1999/xlink">
<g id="graph0" class="graph" transform="scale(1 1) rotate(0) translate(4 145.13)">
<title>neat</title>
<polygon fill="white" stroke="none" points="-4,4 -4,-145.13 363.71,-145.13 363.71,4 -4,4"/>
<!-- node0 -->
<g id="node1" class="node">
<title>node0</title>
<ellipse fill="lightblue" stroke="black" cx="18" cy="-123.13" rx="18" ry="18"/>
<text text-anchor="middle" x="18" y="-118.08" font-family="Times,serif" font-size="14.00">0</text>
</g>
<!-- node254 -->
<g id="node5" class="node">
<title>node254</title>
<ellipse fill="lightgray" stroke="black" cx="125.24" cy="-109.13" rx="24.74" ry="24.74"/>
<text text-anchor="middle" x="125.24" y="-104.08" font-family="Times,serif" font-size="14.00">254</text>
</g>
<!-- node0&#45;&gt;node254 -->
<g id="edge4" class="edge">
<title>node0&#45;&gt;node254</title>
<path fill="none" stroke="black" d="M35.91,-120.88C50.21,-118.98 71.17,-116.19 89.08,-113.81"/>
<polygon fill="black" stroke="black" points="89.36,-117.3 98.81,-112.51 88.44,-110.36 89.36,-117.3"/>
<text text-anchor="middle" x="68.25" y="-121.33" font-family="Times,serif" font-size="14.00">1.26</text>
</g>
<!-- node1 -->
<g id="node2" class="node">
<title>node1</title>
<ellipse fill="lightblue" stroke="black" cx="18" cy="-50.13" rx="18" ry="18"/>
<text text-anchor="middle" x="18" y="-45.08" font-family="Times,serif" font-size="14.00">1</text>
</g>
<!-- node71 -->
<g id="node3" class="node">
<title>node71</title>
<ellipse fill="lightgreen" stroke="black" cx="339.58" cy="-20.13" rx="20.13" ry="20.13"/>
<text text-anchor="middle" x="339.58" y="-15.08" font-family="Times,serif" font-size="14.00">71</text>
</g>
<!-- node1&#45;&gt;node71 -->
<g id="edge1" class="edge">
<title>node1&#45;&gt;node71</title>
<path fill="none" stroke="black" d="M36.04,-47.04C69.33,-41.14 145.4,-28.43 209.97,-23.13 243.41,-20.39 281.89,-19.83 307.98,-19.84"/>
<polygon fill="black" stroke="black" points="307.84,-23.34 317.86,-19.87 307.87,-16.34 307.84,-23.34"/>
<text text-anchor="middle" x="179.97" y="-31.33" font-family="Times,serif" font-size="14.00">2.40</text>
</g>
<!-- node182 -->
<g id="node4" class="node">
<title>node182</title>
<ellipse fill="lightgray" stroke="black" cx="234.71" cy="-57.13" rx="24.74" ry="24.74"/>
<text text-anchor="middle" x="234.71" y="-52.08" font-family="Times,serif" font-size="14.00">182</text>
</g>
<!-- node1&#45;&gt;node182 -->
<g id="edge3" class="edge">
<title>node1&#45;&gt;node182</title>
<path fill="none" stroke="black" d="M36.21,-50.69C71.27,-51.84 151.6,-54.45 198.3,-55.98"/>
<polygon fill="black" stroke="black" points="198.05,-59.47 208.16,-56.3 198.28,-52.47 198.05,-59.47"/>
<text text-anchor="middle" x="125.24" y="-58.33" font-family="Times,serif" font-size="14.00">0.58</text>
</g>
<!-- node1&#45;&gt;node254 -->
<g id="edge6" class="edge">
<title>node1&#45;&gt;node254</title>
<path fill="none" stroke="black" d="M34.08,-58.58C49.4,-67.17 73.58,-80.73 93.04,-91.64"/>
<polygon fill="black" stroke="black" points="91.24,-94.65 101.68,-96.48 94.67,-88.54 91.24,-94.65"/>
<text text-anchor="middle" x="68.25" y="-87.33" font-family="Times,serif" font-size="14.00">&#45;1.38</text>
</g>
<!-- node182&#45;&gt;node71 -->
<g id="edge2" class="edge">
<title>node182&#45;&gt;node71</title>
<path fill="none" stroke="black" d="M258.54,-48.92C273.64,-43.49 293.57,-36.32 309.76,-30.5"/>
<polygon fill="black" stroke="black" points="310.62,-33.91 318.84,-27.23 308.25,-27.32 310.62,-33.91"/>
<text text-anchor="middle" x="289.45" y="-45.33" font-family="Times,serif" font-size="14.00">1.83</text>
</g>
<!-- node254&#45;&gt;node182 -->
<g id="edge5" class="edge">
<title>node254&#45;&gt;node182</title>
<path fill="none" stroke="black" d="M147.99,-98.61C163.43,-91.14 184.41,-80.99 201.75,-72.6"/>
<polygon fill="black" stroke="black" points="203.16,-75.8 210.63,-68.3 200.11,-69.5 203.16,-75.8"/>
<text text-anchor="middle" x="179.97" y="-90.33" font-family="Times,serif" font-size="14.00">1.00</text>
</g>
</g>
</svg>
