<?xml version="1.0" encoding="UTF-8" standalone="no"?>
<!DOCTYPE svg PUBLIC "-//W3C//DTD SVG 1.1//EN"
 "http://www.w3.org/Graphics/SVG/1.1/DTD/svg11.dtd">
<!-- Generated by graphviz version 9.0.0 (20230911.1827)
 -->
<!-- Title: neat Pages: 1 -->
<svg width="281pt" height="172pt"
 viewBox="0.00 0.00 280.92 172.47" xmlns="http://www.w3.org/2000/svg" xmlns:xlink="http://www.w3.org/1999/xlink">
<g id="graph0" class="graph" transform="scale(1 1) rotate(0) translate(4 168.47)">
<title>neat</title>
<polygon fill="white" stroke="none" points="-4,4 -4,-168.47 276.92,-168.47 276.92,4 -4,4"/>
<!-- node0 -->
<g id="node1" class="node">
<title>node0</title>
<ellipse fill="lightblue" stroke="black" cx="24.74" cy="-24.74" rx="18" ry="18"/>
<text text-anchor="middle" x="24.74" y="-19.69" font-family="Times,serif" font-size="14.00">0</text>
</g>
<!-- node243 -->
<g id="node5" class="node">
<title>node243</title>
<ellipse fill="lightgray" stroke="black" cx="134.21" cy="-24.74" rx="24.74" ry="24.74"/>
<text text-anchor="middle" x="134.21" y="-19.69" font-family="Times,serif" font-size="14.00">243</text>
</g>
<!-- node0&#45;&gt;node243 -->
<g id="edge1" class="edge">
<title>node0&#45;&gt;node243</title>
<path fill="none" stroke="black" d="M43.01,-24.74C57.7,-24.74 79.3,-24.74 97.67,-24.74"/>
<polygon fill="black" stroke="black" points="97.66,-28.24 107.66,-24.74 97.66,-21.24 97.66,-28.24"/>
<text text-anchor="middle" x="79.47" y="-27.94" font-family="Times,serif" font-size="14.00">1.00</text>
</g>
<!-- node1 -->
<g id="node2" class="node">
<title>node1</title>
<ellipse fill="lightblue" stroke="black" cx="24.74" cy="-78.74" rx="18" ry="18"/>
<text text-anchor="middle" x="24.74" y="-73.69" font-family="Times,serif" font-size="14.00">1</text>
</g>
<!-- node136 -->
<g id="node3" class="node">
<title>node136</title>
<ellipse fill="lightgreen" stroke="black" cx="24.74" cy="-139.74" rx="24.74" ry="24.74"/>
<text text-anchor="middle" x="24.74" y="-134.69" font-family="Times,serif" font-size="14.00">136</text>
</g>
<!-- node171 -->
<g id="node4" class="node">
<title>node171</title>
<ellipse fill="lightgray" stroke="black" cx="248.19" cy="-24.74" rx="24.74" ry="24.74"/>
<text text-anchor="middle" x="248.19" y="-19.69" font-family="Times,serif" font-size="14.00">171</text>
</g>
<!-- node243&#45;&gt;node171 -->
<g id="edge2" class="edge">
<title>node243&#45;&gt;node171</title>
<path fill="none" stroke="black" d="M159.23,-24.74C174.58,-24.74 194.76,-24.74 211.91,-24.74"/>
<polygon fill="black" stroke="black" points="211.69,-28.24 221.69,-24.74 211.69,-21.24 211.69,-28.24"/>
<text text-anchor="middle" x="191.2" y="-27.94" font-family="Times,serif" font-size="14.00">&#45;0.66</text>
</g>
</g>
</svg>
