<?xml version="1.0" encoding="UTF-8" standalone="no"?>
<!DOCTYPE svg PUBLIC "-//W3C//DTD SVG 1.1//EN"
 "http://www.w3.org/Graphics/SVG/1.1/DTD/svg11.dtd">
<!-- Generated by graphviz version 9.0.0 (20230911.1827)
 -->
<!-- Title: neat Pages: 1 -->
<svg width="572pt" height="1216pt"
 viewBox="0.00 0.00 571.92 1216.00" xmlns="http://www.w3.org/2000/svg" xmlns:xlink="http://www.w3.org/1999/xlink">
<g id="graph0" class="graph" transform="scale(1 1) rotate(0) translate(4 1212)">
<title>neat</title>
<polygon fill="white" stroke="none" points="-4,4 -4,-1212 567.92,-1212 567.92,4 -4,4"/>
<g id="clust1" class="cluster">
<title>cluster_0</title>
<path fill="none" stroke="gray" d="M20,-8C20,-8 543.92,-8 543.92,-8 549.92,-8 555.92,-14 555.92,-20 555.92,-20 555.92,-288 555.92,-288 555.92,-294 549.92,-300 543.92,-300 543.92,-300 20,-300 20,-300 14,-300 8,-294 8,-288 8,-288 8,-20 8,-20 8,-14 14,-8 20,-8"/>
<text text-anchor="middle" x="281.96" y="-282.7" font-family="Times,serif" font-size="14.00">Test 0,0 → 0</text>
</g>
<g id="clust2" class="cluster">
<title>cluster_1</title>
<path fill="none" stroke="gray" d="M20,-308C20,-308 543.92,-308 543.92,-308 549.92,-308 555.92,-314 555.92,-320 555.92,-320 555.92,-588 555.92,-588 555.92,-594 549.92,-600 543.92,-600 543.92,-600 20,-600 20,-600 14,-600 8,-594 8,-588 8,-588 8,-320 8,-320 8,-314 14,-308 20,-308"/>
<text text-anchor="middle" x="281.96" y="-582.7" font-family="Times,serif" font-size="14.00">Test 0,1 → 1</text>
</g>
<g id="clust3" class="cluster">
<title>cluster_2</title>
<path fill="none" stroke="gray" d="M20,-608C20,-608 543.92,-608 543.92,-608 549.92,-608 555.92,-614 555.92,-620 555.92,-620 555.92,-888 555.92,-888 555.92,-894 549.92,-900 543.92,-900 543.92,-900 20,-900 20,-900 14,-900 8,-894 8,-888 8,-888 8,-620 8,-620 8,-614 14,-608 20,-608"/>
<text text-anchor="middle" x="281.96" y="-882.7" font-family="Times,serif" font-size="14.00">Test 1,0 → 1</text>
</g>
<g id="clust4" class="cluster">
<title>cluster_3</title>
<path fill="none" stroke="gray" d="M20,-908C20,-908 543.92,-908 543.92,-908 549.92,-908 555.92,-914 555.92,-920 555.92,-920 555.92,-1188 555.92,-1188 555.92,-1194 549.92,-1200 543.92,-1200 543.92,-1200 20,-1200 20,-1200 14,-1200 8,-1194 8,-1188 8,-1188 8,-920 8,-920 8,-914 14,-908 20,-908"/>
<text text-anchor="middle" x="281.96" y="-1182.7" font-family="Times,serif" font-size="14.00">Test 1,1 → 0</text>
</g>
<!-- node0_0 -->
<g id="node1" class="node">
<title>node0_0</title>
<ellipse fill="lightblue" stroke="black" cx="47.9" cy="-236" rx="31.9" ry="31.9"/>
<text text-anchor="middle" x="47.9" y="-230.95" font-family="Times,serif" font-size="14.00">0.000</text>
</g>
<!-- node175_0 -->
<g id="node5" class="node">
<title>node175_0</title>
<ellipse fill="lightgray" stroke="black" cx="279.71" cy="-236" rx="31.9" ry="31.9"/>
<text text-anchor="middle" x="279.71" y="-230.95" font-family="Times,serif" font-size="14.00">0.500</text>
</g>
<!-- node0_0&#45;&gt;node175_0 -->
<g id="edge3" class="edge">
<title>node0_0&#45;&gt;node175_0</title>
<path fill="none" stroke="black" d="M79.9,-236C120.16,-236 190.64,-236 235.96,-236"/>
<polygon fill="black" stroke="black" points="235.96,-239.5 245.96,-236 235.96,-232.5 235.96,-239.5"/>
<text text-anchor="middle" x="163.81" y="-239.2" font-family="Times,serif" font-size="14.00">1.00</text>
</g>
<!-- node1_0 -->
<g id="node2" class="node">
<title>node1_0</title>
<ellipse fill="lightblue" stroke="black" cx="47.9" cy="-136" rx="31.9" ry="31.9"/>
<text text-anchor="middle" x="47.9" y="-130.95" font-family="Times,serif" font-size="14.00">0.000</text>
</g>
<!-- node100_0 -->
<g id="node3" class="node">
<title>node100_0</title>
<ellipse fill="lightgreen" stroke="black" cx="516.01" cy="-152" rx="31.9" ry="31.9"/>
<text text-anchor="middle" x="516.01" y="-146.95" font-family="Times,serif" font-size="14.00">0.640</text>
</g>
<!-- node1_0&#45;&gt;node100_0 -->
<g id="edge1" class="edge">
<title>node1_0&#45;&gt;node100_0</title>
<path fill="none" stroke="black" d="M80.21,-137.07C161.56,-139.87 379.7,-147.36 472.4,-150.54"/>
<polygon fill="black" stroke="black" points="472.22,-154.03 482.33,-150.88 472.46,-147.04 472.22,-154.03"/>
<text text-anchor="middle" x="279.71" y="-147.2" font-family="Times,serif" font-size="14.00">&#45;2.00</text>
</g>
<!-- node1_0&#45;&gt;node175_0 -->
<g id="edge5" class="edge">
<title>node1_0&#45;&gt;node175_0</title>
<path fill="none" stroke="black" d="M77.54,-148.46C118.42,-166.25 193.63,-198.98 239.61,-218.99"/>
<polygon fill="black" stroke="black" points="238.11,-222.15 248.68,-222.93 240.91,-215.73 238.11,-222.15"/>
<text text-anchor="middle" x="163.81" y="-191.2" font-family="Times,serif" font-size="14.00">1.93</text>
</g>
<!-- node174_0 -->
<g id="node4" class="node">
<title>node174_0</title>
<ellipse fill="lightgray" stroke="black" cx="279.71" cy="-48" rx="31.9" ry="31.9"/>
<text text-anchor="middle" x="279.71" y="-42.95" font-family="Times,serif" font-size="14.00">0.500</text>
</g>
<!-- node174_0&#45;&gt;node100_0 -->
<g id="edge2" class="edge">
<title>node174_0&#45;&gt;node100_0</title>
<path fill="none" stroke="black" d="M309.44,-60.75C351.27,-79.32 429.07,-113.85 476.03,-134.7"/>
<polygon fill="black" stroke="black" points="474.47,-137.83 485.03,-138.69 477.31,-131.44 474.47,-137.83"/>
<text text-anchor="middle" x="397.86" y="-109.2" font-family="Times,serif" font-size="14.00">&#45;1.69</text>
</g>
<!-- node175_0&#45;&gt;node100_0 -->
<g id="edge4" class="edge">
<title>node175_0&#45;&gt;node100_0</title>
<path fill="none" stroke="black" d="M309.91,-225.53C351.48,-210.63 427.85,-183.25 474.76,-166.43"/>
<polygon fill="black" stroke="black" points="475.79,-169.78 484.02,-163.11 473.43,-163.19 475.79,-169.78"/>
<text text-anchor="middle" x="397.86" y="-202.2" font-family="Times,serif" font-size="14.00">1.93</text>
</g>
<!-- node0_1 -->
<g id="node6" class="node">
<title>node0_1</title>
<ellipse fill="lightblue" stroke="black" cx="47.9" cy="-536" rx="31.9" ry="31.9"/>
<text text-anchor="middle" x="47.9" y="-530.95" font-family="Times,serif" font-size="14.00">0.000</text>
</g>
<!-- node175_1 -->
<g id="node10" class="node">
<title>node175_1</title>
<ellipse fill="lightgray" stroke="black" cx="279.71" cy="-536" rx="31.9" ry="31.9"/>
<text text-anchor="middle" x="279.71" y="-530.95" font-family="Times,serif" font-size="14.00">1.000</text>
</g>
<!-- node0_1&#45;&gt;node175_1 -->
<g id="edge8" class="edge">
<title>node0_1&#45;&gt;node175_1</title>
<path fill="none" stroke="black" d="M79.9,-536C120.16,-536 190.64,-536 235.96,-536"/>
<polygon fill="black" stroke="black" points="235.96,-539.5 245.96,-536 235.96,-532.5 235.96,-539.5"/>
<text text-anchor="middle" x="163.81" y="-539.2" font-family="Times,serif" font-size="14.00">1.00</text>
</g>
<!-- node1_1 -->
<g id="node7" class="node">
<title>node1_1</title>
<ellipse fill="lightblue" stroke="black" cx="47.9" cy="-436" rx="31.9" ry="31.9"/>
<text text-anchor="middle" x="47.9" y="-430.95" font-family="Times,serif" font-size="14.00">1.000</text>
</g>
<!-- node100_1 -->
<g id="node8" class="node">
<title>node100_1</title>
<ellipse fill="lightgreen" stroke="black" cx="516.01" cy="-452" rx="31.9" ry="31.9"/>
<text text-anchor="middle" x="516.01" y="-446.95" font-family="Times,serif" font-size="14.00">0.011</text>
</g>
<!-- node1_1&#45;&gt;node100_1 -->
<g id="edge6" class="edge">
<title>node1_1&#45;&gt;node100_1</title>
<path fill="none" stroke="black" d="M80.21,-437.07C161.56,-439.87 379.7,-447.36 472.4,-450.54"/>
<polygon fill="black" stroke="black" points="472.22,-454.03 482.33,-450.88 472.46,-447.04 472.22,-454.03"/>
<text text-anchor="middle" x="279.71" y="-447.2" font-family="Times,serif" font-size="14.00">&#45;2.00</text>
</g>
<!-- node1_1&#45;&gt;node175_1 -->
<g id="edge10" class="edge">
<title>node1_1&#45;&gt;node175_1</title>
<path fill="none" stroke="black" d="M77.54,-448.46C118.42,-466.25 193.63,-498.98 239.61,-518.99"/>
<polygon fill="black" stroke="black" points="238.11,-522.15 248.68,-522.93 240.91,-515.73 238.11,-522.15"/>
<text text-anchor="middle" x="163.81" y="-491.2" font-family="Times,serif" font-size="14.00">1.93</text>
</g>
<!-- node174_1 -->
<g id="node9" class="node">
<title>node174_1</title>
<ellipse fill="lightgray" stroke="black" cx="279.71" cy="-348" rx="31.9" ry="31.9"/>
<text text-anchor="middle" x="279.71" y="-342.95" font-family="Times,serif" font-size="14.00">0.500</text>
</g>
<!-- node174_1&#45;&gt;node100_1 -->
<g id="edge7" class="edge">
<title>node174_1&#45;&gt;node100_1</title>
<path fill="none" stroke="black" d="M309.44,-360.75C351.27,-379.32 429.07,-413.85 476.03,-434.7"/>
<polygon fill="black" stroke="black" points="474.47,-437.83 485.03,-438.69 477.31,-431.44 474.47,-437.83"/>
<text text-anchor="middle" x="397.86" y="-409.2" font-family="Times,serif" font-size="14.00">&#45;1.69</text>
</g>
<!-- node175_1&#45;&gt;node100_1 -->
<g id="edge9" class="edge">
<title>node175_1&#45;&gt;node100_1</title>
<path fill="none" stroke="black" d="M309.91,-525.53C351.48,-510.63 427.85,-483.25 474.76,-466.43"/>
<polygon fill="black" stroke="black" points="475.79,-469.78 484.02,-463.11 473.43,-463.19 475.79,-469.78"/>
<text text-anchor="middle" x="397.86" y="-502.2" font-family="Times,serif" font-size="14.00">1.93</text>
</g>
<!-- node0_2 -->
<g id="node11" class="node">
<title>node0_2</title>
<ellipse fill="lightblue" stroke="black" cx="47.9" cy="-836" rx="31.9" ry="31.9"/>
<text text-anchor="middle" x="47.9" y="-830.95" font-family="Times,serif" font-size="14.00">1.000</text>
</g>
<!-- node175_2 -->
<g id="node15" class="node">
<title>node175_2</title>
<ellipse fill="lightgray" stroke="black" cx="279.71" cy="-836" rx="31.9" ry="31.9"/>
<text text-anchor="middle" x="279.71" y="-830.95" font-family="Times,serif" font-size="14.00">0.993</text>
</g>
<!-- node0_2&#45;&gt;node175_2 -->
<g id="edge13" class="edge">
<title>node0_2&#45;&gt;node175_2</title>
<path fill="none" stroke="black" d="M79.9,-836C120.16,-836 190.64,-836 235.96,-836"/>
<polygon fill="black" stroke="black" points="235.96,-839.5 245.96,-836 235.96,-832.5 235.96,-839.5"/>
<text text-anchor="middle" x="163.81" y="-839.2" font-family="Times,serif" font-size="14.00">1.00</text>
</g>
<!-- node1_2 -->
<g id="node12" class="node">
<title>node1_2</title>
<ellipse fill="lightblue" stroke="black" cx="47.9" cy="-736" rx="31.9" ry="31.9"/>
<text text-anchor="middle" x="47.9" y="-730.95" font-family="Times,serif" font-size="14.00">0.000</text>
</g>
<!-- node100_2 -->
<g id="node13" class="node">
<title>node100_2</title>
<ellipse fill="lightgreen" stroke="black" cx="516.01" cy="-752" rx="31.9" ry="31.9"/>
<text text-anchor="middle" x="516.01" y="-746.95" font-family="Times,serif" font-size="14.00">0.995</text>
</g>
<!-- node1_2&#45;&gt;node100_2 -->
<g id="edge11" class="edge">
<title>node1_2&#45;&gt;node100_2</title>
<path fill="none" stroke="black" d="M80.21,-737.07C161.56,-739.87 379.7,-747.36 472.4,-750.54"/>
<polygon fill="black" stroke="black" points="472.22,-754.03 482.33,-750.88 472.46,-747.04 472.22,-754.03"/>
<text text-anchor="middle" x="279.71" y="-747.2" font-family="Times,serif" font-size="14.00">&#45;2.00</text>
</g>
<!-- node1_2&#45;&gt;node175_2 -->
<g id="edge15" class="edge">
<title>node1_2&#45;&gt;node175_2</title>
<path fill="none" stroke="black" d="M77.54,-748.46C118.42,-766.25 193.63,-798.98 239.61,-818.99"/>
<polygon fill="black" stroke="black" points="238.11,-822.15 248.68,-822.93 240.91,-815.73 238.11,-822.15"/>
<text text-anchor="middle" x="163.81" y="-791.2" font-family="Times,serif" font-size="14.00">1.93</text>
</g>
<!-- node174_2 -->
<g id="node14" class="node">
<title>node174_2</title>
<ellipse fill="lightgray" stroke="black" cx="279.71" cy="-648" rx="31.9" ry="31.9"/>
<text text-anchor="middle" x="279.71" y="-642.95" font-family="Times,serif" font-size="14.00">0.500</text>
</g>
<!-- node174_2&#45;&gt;node100_2 -->
<g id="edge12" class="edge">
<title>node174_2&#45;&gt;node100_2</title>
<path fill="none" stroke="black" d="M309.44,-660.75C351.27,-679.32 429.07,-713.85 476.03,-734.7"/>
<polygon fill="black" stroke="black" points="474.47,-737.83 485.03,-738.69 477.31,-731.44 474.47,-737.83"/>
<text text-anchor="middle" x="397.86" y="-709.2" font-family="Times,serif" font-size="14.00">&#45;1.69</text>
</g>
<!-- node175_2&#45;&gt;node100_2 -->
<g id="edge14" class="edge">
<title>node175_2&#45;&gt;node100_2</title>
<path fill="none" stroke="black" d="M309.91,-825.53C351.48,-810.63 427.85,-783.25 474.76,-766.43"/>
<polygon fill="black" stroke="black" points="475.79,-769.78 484.02,-763.11 473.43,-763.19 475.79,-769.78"/>
<text text-anchor="middle" x="397.86" y="-802.2" font-family="Times,serif" font-size="14.00">1.93</text>
</g>
<!-- node0_3 -->
<g id="node16" class="node">
<title>node0_3</title>
<ellipse fill="lightblue" stroke="black" cx="47.9" cy="-1136" rx="31.9" ry="31.9"/>
<text text-anchor="middle" x="47.9" y="-1130.95" font-family="Times,serif" font-size="14.00">1.000</text>
</g>
<!-- node175_3 -->
<g id="node20" class="node">
<title>node175_3</title>
<ellipse fill="lightgray" stroke="black" cx="279.71" cy="-1136" rx="31.9" ry="31.9"/>
<text text-anchor="middle" x="279.71" y="-1130.95" font-family="Times,serif" font-size="14.00">1.000</text>
</g>
<!-- node0_3&#45;&gt;node175_3 -->
<g id="edge18" class="edge">
<title>node0_3&#45;&gt;node175_3</title>
<path fill="none" stroke="black" d="M79.9,-1136C120.16,-1136 190.64,-1136 235.96,-1136"/>
<polygon fill="black" stroke="black" points="235.96,-1139.5 245.96,-1136 235.96,-1132.5 235.96,-1139.5"/>
<text text-anchor="middle" x="163.81" y="-1139.2" font-family="Times,serif" font-size="14.00">1.00</text>
</g>
<!-- node1_3 -->
<g id="node17" class="node">
<title>node1_3</title>
<ellipse fill="lightblue" stroke="black" cx="47.9" cy="-1036" rx="31.9" ry="31.9"/>
<text text-anchor="middle" x="47.9" y="-1030.95" font-family="Times,serif" font-size="14.00">1.000</text>
</g>
<!-- node100_3 -->
<g id="node18" class="node">
<title>node100_3</title>
<ellipse fill="lightgreen" stroke="black" cx="516.01" cy="-1052" rx="31.9" ry="31.9"/>
<text text-anchor="middle" x="516.01" y="-1046.95" font-family="Times,serif" font-size="14.00">0.011</text>
</g>
<!-- node1_3&#45;&gt;node100_3 -->
<g id="edge16" class="edge">
<title>node1_3&#45;&gt;node100_3</title>
<path fill="none" stroke="black" d="M80.21,-1037.07C161.56,-1039.87 379.7,-1047.36 472.4,-1050.54"/>
<polygon fill="black" stroke="black" points="472.22,-1054.03 482.33,-1050.88 472.46,-1047.04 472.22,-1054.03"/>
<text text-anchor="middle" x="279.71" y="-1047.2" font-family="Times,serif" font-size="14.00">&#45;2.00</text>
</g>
<!-- node1_3&#45;&gt;node175_3 -->
<g id="edge20" class="edge">
<title>node1_3&#45;&gt;node175_3</title>
<path fill="none" stroke="black" d="M77.54,-1048.46C118.42,-1066.25 193.63,-1098.98 239.61,-1118.99"/>
<polygon fill="black" stroke="black" points="238.11,-1122.15 248.68,-1122.93 240.91,-1115.73 238.11,-1122.15"/>
<text text-anchor="middle" x="163.81" y="-1091.2" font-family="Times,serif" font-size="14.00">1.93</text>
</g>
<!-- node174_3 -->
<g id="node19" class="node">
<title>node174_3</title>
<ellipse fill="lightgray" stroke="black" cx="279.71" cy="-948" rx="31.9" ry="31.9"/>
<text text-anchor="middle" x="279.71" y="-942.95" font-family="Times,serif" font-size="14.00">0.500</text>
</g>
<!-- node174_3&#45;&gt;node100_3 -->
<g id="edge17" class="edge">
<title>node174_3&#45;&gt;node100_3</title>
<path fill="none" stroke="black" d="M309.44,-960.75C351.27,-979.32 429.07,-1013.85 476.03,-1034.7"/>
<polygon fill="black" stroke="black" points="474.47,-1037.83 485.03,-1038.69 477.31,-1031.44 474.47,-1037.83"/>
<text text-anchor="middle" x="397.86" y="-1009.2" font-family="Times,serif" font-size="14.00">&#45;1.69</text>
</g>
<!-- node175_3&#45;&gt;node100_3 -->
<g id="edge19" class="edge">
<title>node175_3&#45;&gt;node100_3</title>
<path fill="none" stroke="black" d="M309.91,-1125.53C351.48,-1110.63 427.85,-1083.25 474.76,-1066.43"/>
<polygon fill="black" stroke="black" points="475.79,-1069.78 484.02,-1063.11 473.43,-1063.19 475.79,-1069.78"/>
<text text-anchor="middle" x="397.86" y="-1102.2" font-family="Times,serif" font-size="14.00">1.93</text>
</g>
</g>
</svg>
