<?xml version="1.0" encoding="UTF-8" standalone="no"?>
<!DOCTYPE svg PUBLIC "-//W3C//DTD SVG 1.1//EN"
 "http://www.w3.org/Graphics/SVG/1.1/DTD/svg11.dtd">
<!-- Generated by graphviz version 9.0.0 (20230911.1827)
 -->
<!-- Title: neat Pages: 1 -->
<svg width="263pt" height="112pt"
 viewBox="0.00 0.00 262.95 111.74" xmlns="http://www.w3.org/2000/svg" xmlns:xlink="http://www.w3.org/1999/xlink">
<g id="graph0" class="graph" transform="scale(1 1) rotate(0) translate(4 107.74)">
<title>neat</title>
<polygon fill="white" stroke="none" points="-4,4 -4,-107.74 258.95,-107.74 258.95,4 -4,4"/>
<!-- node0 -->
<g id="node1" class="node">
<title>node0</title>
<ellipse fill="lightblue" stroke="black" cx="18" cy="-79" rx="18" ry="18"/>
<text text-anchor="middle" x="18" y="-73.95" font-family="Times,serif" font-size="14.00">0</text>
</g>
<!-- node171 -->
<g id="node4" class="node">
<title>node171</title>
<ellipse fill="lightgray" stroke="black" cx="120.74" cy="-79" rx="24.74" ry="24.74"/>
<text text-anchor="middle" x="120.74" y="-73.95" font-family="Times,serif" font-size="14.00">171</text>
</g>
<!-- node0&#45;&gt;node171 -->
<g id="edge2" class="edge">
<title>node0&#45;&gt;node171</title>
<path fill="none" stroke="black" d="M36.09,-79C49.28,-79 67.98,-79 84.36,-79"/>
<polygon fill="black" stroke="black" points="84.24,-82.5 94.24,-79 84.24,-75.5 84.24,-82.5"/>
<text text-anchor="middle" x="66" y="-82.2" font-family="Times,serif" font-size="14.00">0.47</text>
</g>
<!-- node1 -->
<g id="node2" class="node">
<title>node1</title>
<ellipse fill="lightblue" stroke="black" cx="120.74" cy="-18" rx="18" ry="18"/>
<text text-anchor="middle" x="120.74" y="-12.95" font-family="Times,serif" font-size="14.00">1</text>
</g>
<!-- node136 -->
<g id="node3" class="node">
<title>node136</title>
<ellipse fill="lightgreen" stroke="black" cx="230.21" cy="-38" rx="24.74" ry="24.74"/>
<text text-anchor="middle" x="230.21" y="-32.95" font-family="Times,serif" font-size="14.00">136</text>
</g>
<!-- node1&#45;&gt;node136 -->
<g id="edge1" class="edge">
<title>node1&#45;&gt;node136</title>
<path fill="none" stroke="black" d="M138.79,-20.85C152.07,-23.1 170.97,-26.38 187.47,-29.5 189.8,-29.94 192.2,-30.4 194.62,-30.88"/>
<polygon fill="black" stroke="black" points="193.86,-34.3 204.35,-32.82 195.23,-27.43 193.86,-34.3"/>
<text text-anchor="middle" x="175.47" y="-33.2" font-family="Times,serif" font-size="14.00">3.60</text>
</g>
<!-- node171&#45;&gt;node136 -->
<g id="edge3" class="edge">
<title>node171&#45;&gt;node136</title>
<path fill="none" stroke="black" d="M144.27,-70.41C159.31,-64.66 179.36,-57.02 196.19,-50.6"/>
<polygon fill="black" stroke="black" points="197.2,-53.96 205.3,-47.12 194.71,-47.42 197.2,-53.96"/>
<text text-anchor="middle" x="175.47" y="-65.2" font-family="Times,serif" font-size="14.00">0.17</text>
</g>
</g>
</svg>
