<?xml version="1.0" encoding="UTF-8" standalone="no"?>
<!DOCTYPE svg PUBLIC "-//W3C//DTD SVG 1.1//EN"
 "http://www.w3.org/Graphics/SVG/1.1/DTD/svg11.dtd">
<!-- Generated by graphviz version 9.0.0 (20230911.1827)
 -->
<!-- Title: neat Pages: 1 -->
<svg width="167pt" height="166pt"
 viewBox="0.00 0.00 166.95 165.74" xmlns="http://www.w3.org/2000/svg" xmlns:xlink="http://www.w3.org/1999/xlink">
<g id="graph0" class="graph" transform="scale(1 1) rotate(0) translate(4 161.74)">
<title>neat</title>
<polygon fill="white" stroke="none" points="-4,4 -4,-161.74 162.95,-161.74 162.95,4 -4,4"/>
<!-- node0 -->
<g id="node1" class="node">
<title>node0</title>
<ellipse fill="lightblue" stroke="black" cx="24.74" cy="-85.74" rx="18" ry="18"/>
<text text-anchor="middle" x="24.74" y="-80.69" font-family="Times,serif" font-size="14.00">0</text>
</g>
<!-- node105 -->
<g id="node3" class="node">
<title>node105</title>
<ellipse fill="lightgreen" stroke="black" cx="134.21" cy="-54.74" rx="24.74" ry="24.74"/>
<text text-anchor="middle" x="134.21" y="-49.69" font-family="Times,serif" font-size="14.00">105</text>
</g>
<!-- node0&#45;&gt;node105 -->
<g id="edge2" class="edge">
<title>node0&#45;&gt;node105</title>
<path fill="none" stroke="black" d="M42.53,-80.89C57.66,-76.53 80.36,-69.98 99.27,-64.53"/>
<polygon fill="black" stroke="black" points="100.06,-67.94 108.7,-61.81 98.12,-61.22 100.06,-67.94"/>
<text text-anchor="middle" x="79.47" y="-75.94" font-family="Times,serif" font-size="14.00">1.01</text>
</g>
<!-- node1 -->
<g id="node2" class="node">
<title>node1</title>
<ellipse fill="lightblue" stroke="black" cx="24.74" cy="-139.74" rx="18" ry="18"/>
<text text-anchor="middle" x="24.74" y="-134.69" font-family="Times,serif" font-size="14.00">1</text>
</g>
<!-- node161 -->
<g id="node4" class="node">
<title>node161</title>
<ellipse fill="lightgray" stroke="black" cx="24.74" cy="-24.74" rx="24.74" ry="24.74"/>
<text text-anchor="middle" x="24.74" y="-19.69" font-family="Times,serif" font-size="14.00">161</text>
</g>
<!-- node161&#45;&gt;node105 -->
<g id="edge1" class="edge">
<title>node161&#45;&gt;node105</title>
<path fill="none" stroke="black" d="M49.06,-31.25C63.7,-35.34 82.85,-40.68 99.17,-45.24"/>
<polygon fill="black" stroke="black" points="97.91,-48.52 108.48,-47.83 99.79,-41.77 97.91,-48.52"/>
<text text-anchor="middle" x="79.47" y="-45.94" font-family="Times,serif" font-size="14.00">1.09</text>
</g>
</g>
</svg>
