<?xml version="1.0" encoding="UTF-8" standalone="no"?>
<!DOCTYPE svg PUBLIC "-//W3C//DTD SVG 1.1//EN"
 "http://www.w3.org/Graphics/SVG/1.1/DTD/svg11.dtd">
<!-- Generated by graphviz version 9.0.0 (20230911.1827)
 -->
<!-- Title: neat Pages: 1 -->
<svg width="153pt" height="98pt"
 viewBox="0.00 0.00 153.47 98.00" xmlns="http://www.w3.org/2000/svg" xmlns:xlink="http://www.w3.org/1999/xlink">
<g id="graph0" class="graph" transform="scale(1 1) rotate(0) translate(4 94)">
<title>neat</title>
<polygon fill="white" stroke="none" points="-4,4 -4,-94 149.47,-94 149.47,4 -4,4"/>
<!-- node0 -->
<g id="node1" class="node">
<title>node0</title>
<ellipse fill="lightblue" stroke="black" cx="18" cy="-72" rx="18" ry="18"/>
<text text-anchor="middle" x="18" y="-66.95" font-family="Times,serif" font-size="14.00">0</text>
</g>
<!-- node138 -->
<g id="node3" class="node">
<title>node138</title>
<ellipse fill="lightgreen" stroke="black" cx="120.74" cy="-45" rx="24.74" ry="24.74"/>
<text text-anchor="middle" x="120.74" y="-39.95" font-family="Times,serif" font-size="14.00">138</text>
</g>
<!-- node0&#45;&gt;node138 -->
<g id="edge1" class="edge">
<title>node0&#45;&gt;node138</title>
<path fill="none" stroke="black" d="M35.63,-67.54C49.3,-63.88 69.08,-58.58 86.03,-54.03"/>
<polygon fill="black" stroke="black" points="86.45,-57.54 95.21,-51.57 84.64,-50.78 86.45,-57.54"/>
<text text-anchor="middle" x="66" y="-65.2" font-family="Times,serif" font-size="14.00">3.77</text>
</g>
<!-- node1 -->
<g id="node2" class="node">
<title>node1</title>
<ellipse fill="lightblue" stroke="black" cx="18" cy="-18" rx="18" ry="18"/>
<text text-anchor="middle" x="18" y="-12.95" font-family="Times,serif" font-size="14.00">1</text>
</g>
<!-- node1&#45;&gt;node138 -->
<g id="edge2" class="edge">
<title>node1&#45;&gt;node138</title>
<path fill="none" stroke="black" d="M35.63,-22.46C49.3,-26.12 69.08,-31.42 86.03,-35.97"/>
<polygon fill="black" stroke="black" points="84.64,-39.22 95.21,-38.43 86.45,-32.46 84.64,-39.22"/>
<text text-anchor="middle" x="66" y="-37.2" font-family="Times,serif" font-size="14.00">2.33</text>
</g>
</g>
</svg>
