<?xml version="1.0" encoding="UTF-8" standalone="no"?>
<!DOCTYPE svg PUBLIC "-//W3C//DTD SVG 1.1//EN"
 "http://www.w3.org/Graphics/SVG/1.1/DTD/svg11.dtd">
<!-- Generated by graphviz version 9.0.0 (20230911.1827)
 -->
<!-- Title: neat Pages: 1 -->
<svg width="200pt" height="154pt"
 viewBox="0.00 0.00 200.11 153.81" xmlns="http://www.w3.org/2000/svg" xmlns:xlink="http://www.w3.org/1999/xlink">
<g id="graph0" class="graph" transform="scale(1 1) rotate(0) translate(4 149.81)">
<title>neat</title>
<polygon fill="white" stroke="none" points="-4,4 -4,-149.81 196.11,-149.81 196.11,4 -4,4"/>
<!-- node0 -->
<g id="node1" class="node">
<title>node0</title>
<ellipse fill="lightblue" stroke="black" cx="31.9" cy="-113.9" rx="31.9" ry="31.9"/>
<text text-anchor="middle" x="31.9" y="-108.85" font-family="Times,serif" font-size="14.00">0.000</text>
</g>
<!-- node122 -->
<g id="node3" class="node">
<title>node122</title>
<ellipse fill="lightgreen" stroke="black" cx="160.21" cy="-72.9" rx="31.9" ry="31.9"/>
<text text-anchor="middle" x="160.21" y="-67.85" font-family="Times,serif" font-size="14.00">0.019</text>
</g>
<!-- node0&#45;&gt;node122 -->
<g id="edge1" class="edge">
<title>node0&#45;&gt;node122</title>
<path fill="none" stroke="black" d="M62.52,-104.29C79.18,-98.88 100.24,-92.05 118.44,-86.14"/>
<polygon fill="black" stroke="black" points="119.47,-89.48 127.9,-83.06 117.31,-82.82 119.47,-89.48"/>
<text text-anchor="middle" x="96.06" y="-100.1" font-family="Times,serif" font-size="14.00">2.90</text>
</g>
<!-- node1 -->
<g id="node2" class="node">
<title>node1</title>
<ellipse fill="lightblue" stroke="black" cx="31.9" cy="-31.9" rx="31.9" ry="31.9"/>
<text text-anchor="middle" x="31.9" y="-26.85" font-family="Times,serif" font-size="14.00">1.000</text>
</g>
<!-- node1&#45;&gt;node122 -->
<g id="edge2" class="edge">
<title>node1&#45;&gt;node122</title>
<path fill="none" stroke="black" d="M62.52,-41.52C79.18,-46.93 100.24,-53.76 118.44,-59.67"/>
<polygon fill="black" stroke="black" points="117.31,-62.98 127.9,-62.74 119.47,-56.32 117.31,-62.98"/>
<text text-anchor="middle" x="96.06" y="-60.1" font-family="Times,serif" font-size="14.00">&#45;0.81</text>
</g>
</g>
</svg>
