<?xml version="1.0" encoding="UTF-8" standalone="no"?>
<!DOCTYPE svg PUBLIC "-//W3C//DTD SVG 1.1//EN"
 "http://www.w3.org/Graphics/SVG/1.1/DTD/svg11.dtd">
<!-- Generated by graphviz version 9.0.0 (20230911.1827)
 -->
<!-- Title: neat Pages: 1 -->
<svg width="258pt" height="136pt"
 viewBox="0.00 0.00 258.24 135.74" xmlns="http://www.w3.org/2000/svg" xmlns:xlink="http://www.w3.org/1999/xlink">
<g id="graph0" class="graph" transform="scale(1 1) rotate(0) translate(4 131.74)">
<title>neat</title>
<polygon fill="white" stroke="none" points="-4,4 -4,-131.74 254.24,-131.74 254.24,4 -4,4"/>
<!-- node0 -->
<g id="node1" class="node">
<title>node0</title>
<ellipse fill="lightblue" stroke="black" cx="18" cy="-55.74" rx="18" ry="18"/>
<text text-anchor="middle" x="18" y="-50.69" font-family="Times,serif" font-size="14.00">0</text>
</g>
<!-- node45 -->
<g id="node3" class="node">
<title>node45</title>
<ellipse fill="lightgreen" stroke="black" cx="230.11" cy="-55.74" rx="20.13" ry="20.13"/>
<text text-anchor="middle" x="230.11" y="-50.69" font-family="Times,serif" font-size="14.00">45</text>
</g>
<!-- node0&#45;&gt;node45 -->
<g id="edge1" class="edge">
<title>node0&#45;&gt;node45</title>
<path fill="none" stroke="black" d="M35.14,-61.94C40.99,-63.88 47.7,-65.77 54,-66.74 114.61,-76.04 131.29,-75.54 191.97,-66.74 194.52,-66.37 197.12,-65.87 199.73,-65.28"/>
<polygon fill="black" stroke="black" points="200.62,-68.66 209.37,-62.68 198.8,-61.9 200.62,-68.66"/>
<text text-anchor="middle" x="120.74" y="-75.94" font-family="Times,serif" font-size="14.00">0.91</text>
</g>
<!-- node167 -->
<g id="node4" class="node">
<title>node167</title>
<ellipse fill="lightgray" stroke="black" cx="120.74" cy="-24.74" rx="24.74" ry="24.74"/>
<text text-anchor="middle" x="120.74" y="-19.69" font-family="Times,serif" font-size="14.00">167</text>
</g>
<!-- node0&#45;&gt;node167 -->
<g id="edge3" class="edge">
<title>node0&#45;&gt;node167</title>
<path fill="none" stroke="black" d="M35.63,-50.62C49.3,-46.41 69.08,-40.33 86.03,-35.11"/>
<polygon fill="black" stroke="black" points="86.69,-38.57 95.22,-32.28 84.64,-31.88 86.69,-38.57"/>
<text text-anchor="middle" x="66" y="-48.94" font-family="Times,serif" font-size="14.00">0.88</text>
</g>
<!-- node1 -->
<g id="node2" class="node">
<title>node1</title>
<ellipse fill="lightblue" stroke="black" cx="18" cy="-109.74" rx="18" ry="18"/>
<text text-anchor="middle" x="18" y="-104.69" font-family="Times,serif" font-size="14.00">1</text>
</g>
<!-- node167&#45;&gt;node45 -->
<g id="edge2" class="edge">
<title>node167&#45;&gt;node45</title>
<path fill="none" stroke="black" d="M145.03,-31.46C161.12,-36.11 182.64,-42.32 199.88,-47.3"/>
<polygon fill="black" stroke="black" points="198.46,-50.53 209.04,-49.94 200.4,-43.81 198.46,-50.53"/>
<text text-anchor="middle" x="177.72" y="-48.94" font-family="Times,serif" font-size="14.00">&#45;1.37</text>
</g>
</g>
</svg>
