<?xml version="1.0" encoding="UTF-8" standalone="no"?>
<!DOCTYPE svg PUBLIC "-//W3C//DTD SVG 1.1//EN"
 "http://www.w3.org/Graphics/SVG/1.1/DTD/svg11.dtd">
<!-- Generated by graphviz version 9.0.0 (20230911.1827)
 -->
<!-- Title: neat Pages: 1 -->
<svg width="232pt" height="792pt"
 viewBox="0.00 0.00 232.11 792.00" xmlns="http://www.w3.org/2000/svg" xmlns:xlink="http://www.w3.org/1999/xlink">
<g id="graph0" class="graph" transform="scale(1 1) rotate(0) translate(4 788)">
<title>neat</title>
<polygon fill="white" stroke="none" points="-4,4 -4,-788 228.11,-788 228.11,4 -4,4"/>
<g id="clust1" class="cluster">
<title>cluster_0</title>
<path fill="none" stroke="gray" d="M20,-8C20,-8 204.11,-8 204.11,-8 210.11,-8 216.11,-14 216.11,-20 216.11,-20 216.11,-182 216.11,-182 216.11,-188 210.11,-194 204.11,-194 204.11,-194 20,-194 20,-194 14,-194 8,-188 8,-182 8,-182 8,-20 8,-20 8,-14 14,-8 20,-8"/>
<text text-anchor="middle" x="112.06" y="-176.7" font-family="Times,serif" font-size="14.00">Test 0,0 → 0</text>
</g>
<g id="clust2" class="cluster">
<title>cluster_1</title>
<path fill="none" stroke="gray" d="M20,-202C20,-202 204.11,-202 204.11,-202 210.11,-202 216.11,-208 216.11,-214 216.11,-214 216.11,-376 216.11,-376 216.11,-382 210.11,-388 204.11,-388 204.11,-388 20,-388 20,-388 14,-388 8,-382 8,-376 8,-376 8,-214 8,-214 8,-208 14,-202 20,-202"/>
<text text-anchor="middle" x="112.06" y="-370.7" font-family="Times,serif" font-size="14.00">Test 0,1 → 1</text>
</g>
<g id="clust3" class="cluster">
<title>cluster_2</title>
<path fill="none" stroke="gray" d="M20,-396C20,-396 204.11,-396 204.11,-396 210.11,-396 216.11,-402 216.11,-408 216.11,-408 216.11,-570 216.11,-570 216.11,-576 210.11,-582 204.11,-582 204.11,-582 20,-582 20,-582 14,-582 8,-576 8,-570 8,-570 8,-408 8,-408 8,-402 14,-396 20,-396"/>
<text text-anchor="middle" x="112.06" y="-564.7" font-family="Times,serif" font-size="14.00">Test 1,0 → 1</text>
</g>
<g id="clust4" class="cluster">
<title>cluster_3</title>
<path fill="none" stroke="gray" d="M20,-590C20,-590 204.11,-590 204.11,-590 210.11,-590 216.11,-596 216.11,-602 216.11,-602 216.11,-764 216.11,-764 216.11,-770 210.11,-776 204.11,-776 204.11,-776 20,-776 20,-776 14,-776 8,-770 8,-764 8,-764 8,-602 8,-602 8,-596 14,-590 20,-590"/>
<text text-anchor="middle" x="112.06" y="-758.7" font-family="Times,serif" font-size="14.00">Test 1,1 → 0</text>
</g>
<!-- node0_0 -->
<g id="node1" class="node">
<title>node0_0</title>
<ellipse fill="lightblue" stroke="black" cx="47.9" cy="-130" rx="31.9" ry="31.9"/>
<text text-anchor="middle" x="47.9" y="-124.95" font-family="Times,serif" font-size="14.00">0.000</text>
</g>
<!-- node2_0 -->
<g id="node3" class="node">
<title>node2_0</title>
<ellipse fill="lightgreen" stroke="black" cx="176.21" cy="-78" rx="31.9" ry="31.9"/>
<text text-anchor="middle" x="176.21" y="-72.95" font-family="Times,serif" font-size="14.00">0.500</text>
</g>
<!-- node0_0&#45;&gt;node2_0 -->
<g id="edge1" class="edge">
<title>node0_0&#45;&gt;node2_0</title>
<path fill="none" stroke="black" d="M77.88,-118.07C95.05,-111 117.04,-101.95 135.77,-94.24"/>
<polygon fill="black" stroke="black" points="137.05,-97.49 144.97,-90.45 134.39,-91.02 137.05,-97.49"/>
<text text-anchor="middle" x="112.06" y="-111.2" font-family="Times,serif" font-size="14.00">&#45;0.44</text>
</g>
<!-- node1_0 -->
<g id="node2" class="node">
<title>node1_0</title>
<ellipse fill="lightblue" stroke="black" cx="47.9" cy="-48" rx="31.9" ry="31.9"/>
<text text-anchor="middle" x="47.9" y="-42.95" font-family="Times,serif" font-size="14.00">0.000</text>
</g>
<!-- node1_0&#45;&gt;node2_0 -->
<g id="edge2" class="edge">
<title>node1_0&#45;&gt;node2_0</title>
<path fill="none" stroke="black" d="M79.48,-55.26C95.77,-59.13 116.04,-63.95 133.73,-68.15"/>
<polygon fill="black" stroke="black" points="132.9,-71.55 143.44,-70.45 134.52,-64.74 132.9,-71.55"/>
<text text-anchor="middle" x="112.06" y="-68.2" font-family="Times,serif" font-size="14.00">0.66</text>
</g>
<!-- node0_1 -->
<g id="node4" class="node">
<title>node0_1</title>
<ellipse fill="lightblue" stroke="black" cx="47.9" cy="-324" rx="31.9" ry="31.9"/>
<text text-anchor="middle" x="47.9" y="-318.95" font-family="Times,serif" font-size="14.00">0.000</text>
</g>
<!-- node2_1 -->
<g id="node6" class="node">
<title>node2_1</title>
<ellipse fill="lightgreen" stroke="black" cx="176.21" cy="-272" rx="31.9" ry="31.9"/>
<text text-anchor="middle" x="176.21" y="-266.95" font-family="Times,serif" font-size="14.00">0.961</text>
</g>
<!-- node0_1&#45;&gt;node2_1 -->
<g id="edge3" class="edge">
<title>node0_1&#45;&gt;node2_1</title>
<path fill="none" stroke="black" d="M77.88,-312.07C95.05,-305 117.04,-295.95 135.77,-288.24"/>
<polygon fill="black" stroke="black" points="137.05,-291.49 144.97,-284.45 134.39,-285.02 137.05,-291.49"/>
<text text-anchor="middle" x="112.06" y="-305.2" font-family="Times,serif" font-size="14.00">&#45;0.44</text>
</g>
<!-- node1_1 -->
<g id="node5" class="node">
<title>node1_1</title>
<ellipse fill="lightblue" stroke="black" cx="47.9" cy="-242" rx="31.9" ry="31.9"/>
<text text-anchor="middle" x="47.9" y="-236.95" font-family="Times,serif" font-size="14.00">1.000</text>
</g>
<!-- node1_1&#45;&gt;node2_1 -->
<g id="edge4" class="edge">
<title>node1_1&#45;&gt;node2_1</title>
<path fill="none" stroke="black" d="M79.48,-249.26C95.77,-253.13 116.04,-257.95 133.73,-262.15"/>
<polygon fill="black" stroke="black" points="132.9,-265.55 143.44,-264.45 134.52,-258.74 132.9,-265.55"/>
<text text-anchor="middle" x="112.06" y="-262.2" font-family="Times,serif" font-size="14.00">0.66</text>
</g>
<!-- node0_2 -->
<g id="node7" class="node">
<title>node0_2</title>
<ellipse fill="lightblue" stroke="black" cx="47.9" cy="-518" rx="31.9" ry="31.9"/>
<text text-anchor="middle" x="47.9" y="-512.95" font-family="Times,serif" font-size="14.00">1.000</text>
</g>
<!-- node2_2 -->
<g id="node9" class="node">
<title>node2_2</title>
<ellipse fill="lightgreen" stroke="black" cx="176.21" cy="-466" rx="31.9" ry="31.9"/>
<text text-anchor="middle" x="176.21" y="-460.95" font-family="Times,serif" font-size="14.00">0.105</text>
</g>
<!-- node0_2&#45;&gt;node2_2 -->
<g id="edge5" class="edge">
<title>node0_2&#45;&gt;node2_2</title>
<path fill="none" stroke="black" d="M77.88,-506.07C95.05,-499 117.04,-489.95 135.77,-482.24"/>
<polygon fill="black" stroke="black" points="137.05,-485.49 144.97,-478.45 134.39,-479.02 137.05,-485.49"/>
<text text-anchor="middle" x="112.06" y="-499.2" font-family="Times,serif" font-size="14.00">&#45;0.44</text>
</g>
<!-- node1_2 -->
<g id="node8" class="node">
<title>node1_2</title>
<ellipse fill="lightblue" stroke="black" cx="47.9" cy="-436" rx="31.9" ry="31.9"/>
<text text-anchor="middle" x="47.9" y="-430.95" font-family="Times,serif" font-size="14.00">0.000</text>
</g>
<!-- node1_2&#45;&gt;node2_2 -->
<g id="edge6" class="edge">
<title>node1_2&#45;&gt;node2_2</title>
<path fill="none" stroke="black" d="M79.48,-443.26C95.77,-447.13 116.04,-451.95 133.73,-456.15"/>
<polygon fill="black" stroke="black" points="132.9,-459.55 143.44,-458.45 134.52,-452.74 132.9,-459.55"/>
<text text-anchor="middle" x="112.06" y="-456.2" font-family="Times,serif" font-size="14.00">0.66</text>
</g>
<!-- node0_3 -->
<g id="node10" class="node">
<title>node0_3</title>
<ellipse fill="lightblue" stroke="black" cx="47.9" cy="-712" rx="31.9" ry="31.9"/>
<text text-anchor="middle" x="47.9" y="-706.95" font-family="Times,serif" font-size="14.00">1.000</text>
</g>
<!-- node2_3 -->
<g id="node12" class="node">
<title>node2_3</title>
<ellipse fill="lightgreen" stroke="black" cx="176.21" cy="-660" rx="31.9" ry="31.9"/>
<text text-anchor="middle" x="176.21" y="-654.95" font-family="Times,serif" font-size="14.00">0.745</text>
</g>
<!-- node0_3&#45;&gt;node2_3 -->
<g id="edge7" class="edge">
<title>node0_3&#45;&gt;node2_3</title>
<path fill="none" stroke="black" d="M77.88,-700.07C95.05,-693 117.04,-683.95 135.77,-676.24"/>
<polygon fill="black" stroke="black" points="137.05,-679.49 144.97,-672.45 134.39,-673.02 137.05,-679.49"/>
<text text-anchor="middle" x="112.06" y="-693.2" font-family="Times,serif" font-size="14.00">&#45;0.44</text>
</g>
<!-- node1_3 -->
<g id="node11" class="node">
<title>node1_3</title>
<ellipse fill="lightblue" stroke="black" cx="47.9" cy="-630" rx="31.9" ry="31.9"/>
<text text-anchor="middle" x="47.9" y="-624.95" font-family="Times,serif" font-size="14.00">1.000</text>
</g>
<!-- node1_3&#45;&gt;node2_3 -->
<g id="edge8" class="edge">
<title>node1_3&#45;&gt;node2_3</title>
<path fill="none" stroke="black" d="M79.48,-637.26C95.77,-641.13 116.04,-645.95 133.73,-650.15"/>
<polygon fill="black" stroke="black" points="132.9,-653.55 143.44,-652.45 134.52,-646.74 132.9,-653.55"/>
<text text-anchor="middle" x="112.06" y="-650.2" font-family="Times,serif" font-size="14.00">0.66</text>
</g>
</g>
</svg>
