<?xml version="1.0" encoding="UTF-8" standalone="no"?>
<!DOCTYPE svg PUBLIC "-//W3C//DTD SVG 1.1//EN"
 "http://www.w3.org/Graphics/SVG/1.1/DTD/svg11.dtd">
<!-- Generated by graphviz version 9.0.0 (20230911.1827)
 -->
<!-- Title: neat Pages: 1 -->
<svg width="372pt" height="165pt"
 viewBox="0.00 0.00 372.21 165.24" xmlns="http://www.w3.org/2000/svg" xmlns:xlink="http://www.w3.org/1999/xlink">
<g id="graph0" class="graph" transform="scale(1 1) rotate(0) translate(4 161.24)">
<title>neat</title>
<polygon fill="white" stroke="none" points="-4,4 -4,-161.24 368.21,-161.24 368.21,4 -4,4"/>
<!-- node0 -->
<g id="node1" class="node">
<title>node0</title>
<ellipse fill="lightblue" stroke="black" cx="18" cy="-135.74" rx="18" ry="18"/>
<text text-anchor="middle" x="18" y="-130.69" font-family="Times,serif" font-size="14.00">0</text>
</g>
<!-- node45 -->
<g id="node3" class="node">
<title>node45</title>
<ellipse fill="lightgreen" stroke="black" cx="344.08" cy="-118.74" rx="20.13" ry="20.13"/>
<text text-anchor="middle" x="344.08" y="-113.69" font-family="Times,serif" font-size="14.00">45</text>
</g>
<!-- node0&#45;&gt;node45 -->
<g id="edge1" class="edge">
<title>node0&#45;&gt;node45</title>
<path fill="none" stroke="black" d="M36.3,-137.19C81.2,-140.59 204.95,-147.56 305.95,-130.74 308.6,-130.3 311.32,-129.7 314.02,-129.02"/>
<polygon fill="black" stroke="black" points="314.79,-132.44 323.39,-126.24 312.8,-125.73 314.79,-132.44"/>
<text text-anchor="middle" x="179.97" y="-143.94" font-family="Times,serif" font-size="14.00">1.64</text>
</g>
<!-- node167 -->
<g id="node4" class="node">
<title>node167</title>
<ellipse fill="lightgray" stroke="black" cx="125.24" cy="-81.74" rx="24.74" ry="24.74"/>
<text text-anchor="middle" x="125.24" y="-76.69" font-family="Times,serif" font-size="14.00">167</text>
</g>
<!-- node0&#45;&gt;node167 -->
<g id="edge3" class="edge">
<title>node0&#45;&gt;node167</title>
<path fill="none" stroke="black" d="M33.76,-126.14C39.92,-122.27 47.21,-117.88 54,-114.24 66.06,-107.77 79.64,-101.31 91.62,-95.87"/>
<polygon fill="black" stroke="black" points="93,-99.08 100.7,-91.81 90.14,-92.69 93,-99.08"/>
<text text-anchor="middle" x="68.25" y="-116.94" font-family="Times,serif" font-size="14.00">2.21</text>
</g>
<!-- node1 -->
<g id="node2" class="node">
<title>node1</title>
<ellipse fill="lightblue" stroke="black" cx="18" cy="-72.74" rx="18" ry="18"/>
<text text-anchor="middle" x="18" y="-67.69" font-family="Times,serif" font-size="14.00">1</text>
</g>
<!-- node1&#45;&gt;node167 -->
<g id="edge2" class="edge">
<title>node1&#45;&gt;node167</title>
<path fill="none" stroke="black" d="M36.29,-72.43C49.09,-72.37 66.92,-72.66 82.5,-74.24 84.7,-74.46 86.95,-74.73 89.22,-75.04"/>
<polygon fill="black" stroke="black" points="88.57,-78.48 98.99,-76.58 89.66,-71.57 88.57,-78.48"/>
<text text-anchor="middle" x="68.25" y="-77.94" font-family="Times,serif" font-size="14.00">&#45;1.35</text>
</g>
<!-- node239 -->
<g id="node5" class="node">
<title>node239</title>
<ellipse fill="lightgray" stroke="black" cx="234.71" cy="-91.74" rx="24.74" ry="24.74"/>
<text text-anchor="middle" x="234.71" y="-86.69" font-family="Times,serif" font-size="14.00">239</text>
</g>
<!-- node167&#45;&gt;node239 -->
<g id="edge4" class="edge">
<title>node167&#45;&gt;node239</title>
<path fill="none" stroke="black" d="M150.36,-83.98C164.46,-85.29 182.53,-86.97 198.23,-88.44"/>
<polygon fill="black" stroke="black" points="197.88,-91.92 208.17,-89.36 198.53,-84.95 197.88,-91.92"/>
<text text-anchor="middle" x="179.97" y="-90.94" font-family="Times,serif" font-size="14.00">0.83</text>
</g>
<!-- node271 -->
<g id="node6" class="node">
<title>node271</title>
<ellipse fill="lightgray" stroke="black" cx="234.71" cy="-24.74" rx="24.74" ry="24.74"/>
<text text-anchor="middle" x="234.71" y="-19.69" font-family="Times,serif" font-size="14.00">271</text>
</g>
<!-- node167&#45;&gt;node271 -->
<g id="edge6" class="edge">
<title>node167&#45;&gt;node271</title>
<path fill="none" stroke="black" d="M147.73,-70.34C163.4,-62.03 184.87,-50.64 202.44,-41.32"/>
<polygon fill="black" stroke="black" points="203.73,-44.6 210.92,-36.82 200.45,-38.42 203.73,-44.6"/>
<text text-anchor="middle" x="179.97" y="-61.94" font-family="Times,serif" font-size="14.00">1.00</text>
</g>
<!-- node239&#45;&gt;node45 -->
<g id="edge5" class="edge">
<title>node239&#45;&gt;node45</title>
<path fill="none" stroke="black" d="M259.01,-97.6C274.84,-101.58 295.94,-106.88 313.04,-111.18"/>
<polygon fill="black" stroke="black" points="312.1,-114.56 322.65,-113.6 313.81,-107.77 312.1,-114.56"/>
<text text-anchor="middle" x="291.7" y="-112.94" font-family="Times,serif" font-size="14.00">&#45;0.74</text>
</g>
</g>
</svg>
