<?xml version="1.0" encoding="UTF-8" standalone="no"?>
<!DOCTYPE svg PUBLIC "-//W3C//DTD SVG 1.1//EN"
 "http://www.w3.org/Graphics/SVG/1.1/DTD/svg11.dtd">
<!-- Generated by graphviz version 9.0.0 (20230911.1827)
 -->
<!-- Title: neat Pages: 1 -->
<svg width="328pt" height="188pt"
 viewBox="0.00 0.00 328.42 187.81" xmlns="http://www.w3.org/2000/svg" xmlns:xlink="http://www.w3.org/1999/xlink">
<g id="graph0" class="graph" transform="scale(1 1) rotate(0) translate(4 183.81)">
<title>neat</title>
<polygon fill="white" stroke="none" points="-4,4 -4,-183.81 324.42,-183.81 324.42,4 -4,4"/>
<!-- node0 -->
<g id="node1" class="node">
<title>node0</title>
<ellipse fill="lightblue" stroke="black" cx="31.9" cy="-65.9" rx="31.9" ry="31.9"/>
<text text-anchor="middle" x="31.9" y="-60.85" font-family="Times,serif" font-size="14.00">0.000</text>
</g>
<!-- node129 -->
<g id="node3" class="node">
<title>node129</title>
<ellipse fill="lightgreen" stroke="black" cx="288.51" cy="-65.9" rx="31.9" ry="31.9"/>
<text text-anchor="middle" x="288.51" y="-60.85" font-family="Times,serif" font-size="14.00">0.000</text>
</g>
<!-- node0&#45;&gt;node129 -->
<g id="edge1" class="edge">
<title>node0&#45;&gt;node129</title>
<path fill="none" stroke="black" d="M63.59,-71.7C69.61,-72.62 75.89,-73.42 81.81,-73.9 151.27,-79.55 169.15,-79.55 238.61,-73.9 240.92,-73.71 243.29,-73.48 245.67,-73.2"/>
<polygon fill="black" stroke="black" points="245.88,-76.71 255.32,-71.9 244.95,-69.77 245.88,-76.71"/>
<text text-anchor="middle" x="160.21" y="-81.1" font-family="Times,serif" font-size="14.00">0.51</text>
</g>
<!-- node171 -->
<g id="node4" class="node">
<title>node171</title>
<ellipse fill="lightgray" stroke="black" cx="160.21" cy="-31.9" rx="31.9" ry="31.9"/>
<text text-anchor="middle" x="160.21" y="-26.85" font-family="Times,serif" font-size="14.00">0.500</text>
</g>
<!-- node0&#45;&gt;node171 -->
<g id="edge3" class="edge">
<title>node0&#45;&gt;node171</title>
<path fill="none" stroke="black" d="M63.16,-57.76C79.64,-53.32 100.27,-47.77 118.18,-42.95"/>
<polygon fill="black" stroke="black" points="118.99,-46.35 127.74,-40.37 117.17,-39.59 118.99,-46.35"/>
<text text-anchor="middle" x="96.06" y="-56.1" font-family="Times,serif" font-size="14.00">&#45;1.55</text>
</g>
<!-- node1 -->
<g id="node2" class="node">
<title>node1</title>
<ellipse fill="lightblue" stroke="black" cx="31.9" cy="-147.9" rx="31.9" ry="31.9"/>
<text text-anchor="middle" x="31.9" y="-142.85" font-family="Times,serif" font-size="14.00">1.000</text>
</g>
<!-- node171&#45;&gt;node129 -->
<g id="edge2" class="edge">
<title>node171&#45;&gt;node129</title>
<path fill="none" stroke="black" d="M191.46,-40.05C207.94,-44.48 228.57,-50.04 246.48,-54.86"/>
<polygon fill="black" stroke="black" points="245.48,-58.21 256.05,-57.43 247.3,-51.45 245.48,-58.21"/>
<text text-anchor="middle" x="224.36" y="-56.1" font-family="Times,serif" font-size="14.00">&#45;4.75</text>
</g>
</g>
</svg>
