<?xml version="1.0" encoding="UTF-8" standalone="no"?>
<!DOCTYPE svg PUBLIC "-//W3C//DTD SVG 1.1//EN"
 "http://www.w3.org/Graphics/SVG/1.1/DTD/svg11.dtd">
<!-- Generated by graphviz version 9.0.0 (20230911.1827)
 -->
<!-- Title: neat Pages: 1 -->
<svg width="267pt" height="136pt"
 viewBox="0.00 0.00 267.45 135.74" xmlns="http://www.w3.org/2000/svg" xmlns:xlink="http://www.w3.org/1999/xlink">
<g id="graph0" class="graph" transform="scale(1 1) rotate(0) translate(4 131.74)">
<title>neat</title>
<polygon fill="white" stroke="none" points="-4,4 -4,-131.74 263.45,-131.74 263.45,4 -4,4"/>
<!-- node0 -->
<g id="node1" class="node">
<title>node0</title>
<ellipse fill="lightblue" stroke="black" cx="18" cy="-55.74" rx="18" ry="18"/>
<text text-anchor="middle" x="18" y="-50.69" font-family="Times,serif" font-size="14.00">0</text>
</g>
<!-- node141 -->
<g id="node3" class="node">
<title>node141</title>
<ellipse fill="lightgreen" stroke="black" cx="234.71" cy="-55.74" rx="24.74" ry="24.74"/>
<text text-anchor="middle" x="234.71" y="-50.69" font-family="Times,serif" font-size="14.00">141</text>
</g>
<!-- node0&#45;&gt;node141 -->
<g id="edge1" class="edge">
<title>node0&#45;&gt;node141</title>
<path fill="none" stroke="black" d="M35.14,-61.94C40.99,-63.88 47.7,-65.77 54,-66.74 76.32,-70.16 103.41,-75 191.97,-64.74 194.33,-64.46 196.76,-64.12 199.19,-63.72"/>
<polygon fill="black" stroke="black" points="199.79,-67.17 208.96,-61.87 198.48,-60.29 199.79,-67.17"/>
<text text-anchor="middle" x="125.24" y="-73.94" font-family="Times,serif" font-size="14.00">3.11</text>
</g>
<!-- node159 -->
<g id="node4" class="node">
<title>node159</title>
<ellipse fill="lightgray" stroke="black" cx="125.24" cy="-24.74" rx="24.74" ry="24.74"/>
<text text-anchor="middle" x="125.24" y="-19.69" font-family="Times,serif" font-size="14.00">159</text>
</g>
<!-- node0&#45;&gt;node159 -->
<g id="edge3" class="edge">
<title>node0&#45;&gt;node159</title>
<path fill="none" stroke="black" d="M35.44,-50.89C50.09,-46.58 71.99,-40.13 90.38,-34.71"/>
<polygon fill="black" stroke="black" points="91.22,-38.11 99.82,-31.93 89.24,-31.4 91.22,-38.11"/>
<text text-anchor="middle" x="68.25" y="-48.94" font-family="Times,serif" font-size="14.00">&#45;2.46</text>
</g>
<!-- node1 -->
<g id="node2" class="node">
<title>node1</title>
<ellipse fill="lightblue" stroke="black" cx="18" cy="-109.74" rx="18" ry="18"/>
<text text-anchor="middle" x="18" y="-104.69" font-family="Times,serif" font-size="14.00">1</text>
</g>
<!-- node159&#45;&gt;node141 -->
<g id="edge2" class="edge">
<title>node159&#45;&gt;node141</title>
<path fill="none" stroke="black" d="M149.56,-31.46C164.2,-35.69 183.35,-41.21 199.67,-45.92"/>
<polygon fill="black" stroke="black" points="198.4,-49.2 208.98,-48.6 200.34,-42.47 198.4,-49.2"/>
<text text-anchor="middle" x="179.97" y="-46.94" font-family="Times,serif" font-size="14.00">1.93</text>
</g>
</g>
</svg>
