<?xml version="1.0" encoding="UTF-8" standalone="no"?>
<!DOCTYPE svg PUBLIC "-//W3C//DTD SVG 1.1//EN"
 "http://www.w3.org/Graphics/SVG/1.1/DTD/svg11.dtd">
<!-- Generated by graphviz version 9.0.0 (20230911.1827)
 -->
<!-- Title: neat Pages: 1 -->
<svg width="162pt" height="166pt"
 viewBox="0.00 0.00 162.24 166.00" xmlns="http://www.w3.org/2000/svg" xmlns:xlink="http://www.w3.org/1999/xlink">
<g id="graph0" class="graph" transform="scale(1 1) rotate(0) translate(4 162)">
<title>neat</title>
<polygon fill="white" stroke="none" points="-4,4 -4,-162 158.24,-162 158.24,4 -4,4"/>
<!-- node0 -->
<g id="node1" class="node">
<title>node0</title>
<ellipse fill="lightblue" stroke="black" cx="24.74" cy="-18" rx="18" ry="18"/>
<text text-anchor="middle" x="24.74" y="-12.95" font-family="Times,serif" font-size="14.00">0</text>
</g>
<!-- node1 -->
<g id="node2" class="node">
<title>node1</title>
<ellipse fill="lightblue" stroke="black" cx="24.74" cy="-140" rx="18" ry="18"/>
<text text-anchor="middle" x="24.74" y="-134.95" font-family="Times,serif" font-size="14.00">1</text>
</g>
<!-- node91 -->
<g id="node3" class="node">
<title>node91</title>
<ellipse fill="lightgreen" stroke="black" cx="134.11" cy="-109" rx="20.13" ry="20.13"/>
<text text-anchor="middle" x="134.11" y="-103.95" font-family="Times,serif" font-size="14.00">91</text>
</g>
<!-- node1&#45;&gt;node91 -->
<g id="edge1" class="edge">
<title>node1&#45;&gt;node91</title>
<path fill="none" stroke="black" d="M42.51,-135.16C58.78,-130.46 83.82,-123.23 103.45,-117.56"/>
<polygon fill="black" stroke="black" points="104.19,-120.99 112.83,-114.86 102.25,-114.27 104.19,-120.99"/>
<text text-anchor="middle" x="81.72" y="-130.2" font-family="Times,serif" font-size="14.00">&#45;1.58</text>
</g>
<!-- node165 -->
<g id="node4" class="node">
<title>node165</title>
<ellipse fill="lightgray" stroke="black" cx="24.74" cy="-79" rx="24.74" ry="24.74"/>
<text text-anchor="middle" x="24.74" y="-73.95" font-family="Times,serif" font-size="14.00">165</text>
</g>
<!-- node165&#45;&gt;node91 -->
<g id="edge2" class="edge">
<title>node165&#45;&gt;node91</title>
<path fill="none" stroke="black" d="M49.03,-85.51C65.12,-90 86.64,-96.02 103.88,-100.83"/>
<polygon fill="black" stroke="black" points="102.46,-104.07 113.03,-103.39 104.34,-97.33 102.46,-104.07"/>
<text text-anchor="middle" x="81.72" y="-102.2" font-family="Times,serif" font-size="14.00">0.43</text>
</g>
</g>
</svg>
