<?xml version="1.0" encoding="UTF-8" standalone="no"?>
<!DOCTYPE svg PUBLIC "-//W3C//DTD SVG 1.1//EN"
 "http://www.w3.org/Graphics/SVG/1.1/DTD/svg11.dtd">
<!-- Generated by graphviz version 9.0.0 (20230911.1827)
 -->
<!-- Title: neat Pages: 1 -->
<svg width="572pt" height="884pt"
 viewBox="0.00 0.00 571.92 884.00" xmlns="http://www.w3.org/2000/svg" xmlns:xlink="http://www.w3.org/1999/xlink">
<g id="graph0" class="graph" transform="scale(1 1) rotate(0) translate(4 880)">
<title>neat</title>
<polygon fill="white" stroke="none" points="-4,4 -4,-880 567.92,-880 567.92,4 -4,4"/>
<g id="clust1" class="cluster">
<title>cluster_0</title>
<path fill="none" stroke="gray" d="M20,-8C20,-8 543.92,-8 543.92,-8 549.92,-8 555.92,-14 555.92,-20 555.92,-20 555.92,-205 555.92,-205 555.92,-211 549.92,-217 543.92,-217 543.92,-217 20,-217 20,-217 14,-217 8,-211 8,-205 8,-205 8,-20 8,-20 8,-14 14,-8 20,-8"/>
<text text-anchor="middle" x="281.96" y="-199.7" font-family="Times,serif" font-size="14.00">Test 0,0 → 0</text>
</g>
<g id="clust2" class="cluster">
<title>cluster_1</title>
<path fill="none" stroke="gray" d="M20,-225C20,-225 543.92,-225 543.92,-225 549.92,-225 555.92,-231 555.92,-237 555.92,-237 555.92,-422 555.92,-422 555.92,-428 549.92,-434 543.92,-434 543.92,-434 20,-434 20,-434 14,-434 8,-428 8,-422 8,-422 8,-237 8,-237 8,-231 14,-225 20,-225"/>
<text text-anchor="middle" x="281.96" y="-416.7" font-family="Times,serif" font-size="14.00">Test 0,1 → 1</text>
</g>
<g id="clust3" class="cluster">
<title>cluster_2</title>
<path fill="none" stroke="gray" d="M20,-442C20,-442 543.92,-442 543.92,-442 549.92,-442 555.92,-448 555.92,-454 555.92,-454 555.92,-639 555.92,-639 555.92,-645 549.92,-651 543.92,-651 543.92,-651 20,-651 20,-651 14,-651 8,-645 8,-639 8,-639 8,-454 8,-454 8,-448 14,-442 20,-442"/>
<text text-anchor="middle" x="281.96" y="-633.7" font-family="Times,serif" font-size="14.00">Test 1,0 → 1</text>
</g>
<g id="clust4" class="cluster">
<title>cluster_3</title>
<path fill="none" stroke="gray" d="M20,-659C20,-659 543.92,-659 543.92,-659 549.92,-659 555.92,-665 555.92,-671 555.92,-671 555.92,-856 555.92,-856 555.92,-862 549.92,-868 543.92,-868 543.92,-868 20,-868 20,-868 14,-868 8,-862 8,-856 8,-856 8,-671 8,-671 8,-665 14,-659 20,-659"/>
<text text-anchor="middle" x="281.96" y="-850.7" font-family="Times,serif" font-size="14.00">Test 1,1 → 0</text>
</g>
<!-- node0_0 -->
<g id="node1" class="node">
<title>node0_0</title>
<ellipse fill="lightblue" stroke="black" cx="47.9" cy="-152" rx="31.9" ry="31.9"/>
<text text-anchor="middle" x="47.9" y="-146.95" font-family="Times,serif" font-size="14.00">0.000</text>
</g>
<!-- node166_0 -->
<g id="node4" class="node">
<title>node166_0</title>
<ellipse fill="lightgray" stroke="black" cx="279.71" cy="-53" rx="31.9" ry="31.9"/>
<text text-anchor="middle" x="279.71" y="-47.95" font-family="Times,serif" font-size="14.00">0.500</text>
</g>
<!-- node0_0&#45;&gt;node166_0 -->
<g id="edge3" class="edge">
<title>node0_0&#45;&gt;node166_0</title>
<path fill="none" stroke="black" d="M77.54,-139.66C118.42,-122.05 193.63,-89.65 239.61,-69.84"/>
<polygon fill="black" stroke="black" points="240.88,-73.11 248.68,-65.94 238.11,-66.68 240.88,-73.11"/>
<text text-anchor="middle" x="163.81" y="-108.2" font-family="Times,serif" font-size="14.00">3.65</text>
</g>
<!-- node192_0 -->
<g id="node5" class="node">
<title>node192_0</title>
<ellipse fill="lightgray" stroke="black" cx="279.71" cy="-153" rx="31.9" ry="31.9"/>
<text text-anchor="middle" x="279.71" y="-147.95" font-family="Times,serif" font-size="14.00">0.500</text>
</g>
<!-- node0_0&#45;&gt;node192_0 -->
<g id="edge4" class="edge">
<title>node0_0&#45;&gt;node192_0</title>
<path fill="none" stroke="black" d="M79.9,-152.13C120.16,-152.31 190.64,-152.62 235.96,-152.81"/>
<polygon fill="black" stroke="black" points="235.94,-156.31 245.96,-152.86 235.97,-149.31 235.94,-156.31"/>
<text text-anchor="middle" x="163.81" y="-155.2" font-family="Times,serif" font-size="14.00">1.00</text>
</g>
<!-- node1_0 -->
<g id="node2" class="node">
<title>node1_0</title>
<ellipse fill="lightblue" stroke="black" cx="47.9" cy="-52" rx="31.9" ry="31.9"/>
<text text-anchor="middle" x="47.9" y="-46.95" font-family="Times,serif" font-size="14.00">0.000</text>
</g>
<!-- node1_0&#45;&gt;node166_0 -->
<g id="edge1" class="edge">
<title>node1_0&#45;&gt;node166_0</title>
<path fill="none" stroke="black" d="M80.19,-50.28C105.87,-49.07 143.19,-47.79 175.81,-48.5 195.7,-48.93 217.74,-49.84 236.3,-50.73"/>
<polygon fill="black" stroke="black" points="235.98,-54.22 246.14,-51.21 236.32,-47.22 235.98,-54.22"/>
<text text-anchor="middle" x="163.81" y="-51.2" font-family="Times,serif" font-size="14.00">3.21</text>
</g>
<!-- node105_0 -->
<g id="node3" class="node">
<title>node105_0</title>
<ellipse fill="lightgreen" stroke="black" cx="516.01" cy="-108" rx="31.9" ry="31.9"/>
<text text-anchor="middle" x="516.01" y="-102.95" font-family="Times,serif" font-size="14.00">0.014</text>
</g>
<!-- node166_0&#45;&gt;node105_0 -->
<g id="edge2" class="edge">
<title>node166_0&#45;&gt;node105_0</title>
<path fill="none" stroke="black" d="M310.86,-60.08C352.31,-69.81 427.04,-87.35 473.68,-98.3"/>
<polygon fill="black" stroke="black" points="472.6,-101.64 483.13,-100.52 474.2,-94.82 472.6,-101.64"/>
<text text-anchor="middle" x="397.86" y="-86.2" font-family="Times,serif" font-size="14.00">&#45;2.79</text>
</g>
<!-- node192_0&#45;&gt;node105_0 -->
<g id="edge5" class="edge">
<title>node192_0&#45;&gt;node105_0</title>
<path fill="none" stroke="black" d="M311.34,-147.12C352.74,-139.17 426.7,-124.96 473.18,-116.03"/>
<polygon fill="black" stroke="black" points="473.73,-119.49 482.89,-114.17 472.41,-112.62 473.73,-119.49"/>
<text text-anchor="middle" x="397.86" y="-136.2" font-family="Times,serif" font-size="14.00">1.05</text>
</g>
<!-- node0_1 -->
<g id="node6" class="node">
<title>node0_1</title>
<ellipse fill="lightblue" stroke="black" cx="47.9" cy="-369" rx="31.9" ry="31.9"/>
<text text-anchor="middle" x="47.9" y="-363.95" font-family="Times,serif" font-size="14.00">0.000</text>
</g>
<!-- node166_1 -->
<g id="node9" class="node">
<title>node166_1</title>
<ellipse fill="lightgray" stroke="black" cx="279.71" cy="-270" rx="31.9" ry="31.9"/>
<text text-anchor="middle" x="279.71" y="-264.95" font-family="Times,serif" font-size="14.00">1.000</text>
</g>
<!-- node0_1&#45;&gt;node166_1 -->
<g id="edge8" class="edge">
<title>node0_1&#45;&gt;node166_1</title>
<path fill="none" stroke="black" d="M77.54,-356.66C118.42,-339.05 193.63,-306.65 239.61,-286.84"/>
<polygon fill="black" stroke="black" points="240.88,-290.11 248.68,-282.94 238.11,-283.68 240.88,-290.11"/>
<text text-anchor="middle" x="163.81" y="-325.2" font-family="Times,serif" font-size="14.00">3.65</text>
</g>
<!-- node192_1 -->
<g id="node10" class="node">
<title>node192_1</title>
<ellipse fill="lightgray" stroke="black" cx="279.71" cy="-370" rx="31.9" ry="31.9"/>
<text text-anchor="middle" x="279.71" y="-364.95" font-family="Times,serif" font-size="14.00">0.500</text>
</g>
<!-- node0_1&#45;&gt;node192_1 -->
<g id="edge9" class="edge">
<title>node0_1&#45;&gt;node192_1</title>
<path fill="none" stroke="black" d="M79.9,-369.13C120.16,-369.31 190.64,-369.62 235.96,-369.81"/>
<polygon fill="black" stroke="black" points="235.94,-373.31 245.96,-369.86 235.97,-366.31 235.94,-373.31"/>
<text text-anchor="middle" x="163.81" y="-372.2" font-family="Times,serif" font-size="14.00">1.00</text>
</g>
<!-- node1_1 -->
<g id="node7" class="node">
<title>node1_1</title>
<ellipse fill="lightblue" stroke="black" cx="47.9" cy="-269" rx="31.9" ry="31.9"/>
<text text-anchor="middle" x="47.9" y="-263.95" font-family="Times,serif" font-size="14.00">1.000</text>
</g>
<!-- node1_1&#45;&gt;node166_1 -->
<g id="edge6" class="edge">
<title>node1_1&#45;&gt;node166_1</title>
<path fill="none" stroke="black" d="M80.19,-267.28C105.87,-266.07 143.19,-264.79 175.81,-265.5 195.7,-265.93 217.74,-266.84 236.3,-267.73"/>
<polygon fill="black" stroke="black" points="235.98,-271.22 246.14,-268.21 236.32,-264.22 235.98,-271.22"/>
<text text-anchor="middle" x="163.81" y="-268.2" font-family="Times,serif" font-size="14.00">3.21</text>
</g>
<!-- node105_1 -->
<g id="node8" class="node">
<title>node105_1</title>
<ellipse fill="lightgreen" stroke="black" cx="516.01" cy="-325" rx="31.9" ry="31.9"/>
<text text-anchor="middle" x="516.01" y="-319.95" font-family="Times,serif" font-size="14.00">0.000</text>
</g>
<!-- node166_1&#45;&gt;node105_1 -->
<g id="edge7" class="edge">
<title>node166_1&#45;&gt;node105_1</title>
<path fill="none" stroke="black" d="M310.86,-277.08C352.31,-286.81 427.04,-304.35 473.68,-315.3"/>
<polygon fill="black" stroke="black" points="472.6,-318.64 483.13,-317.52 474.2,-311.82 472.6,-318.64"/>
<text text-anchor="middle" x="397.86" y="-303.2" font-family="Times,serif" font-size="14.00">&#45;2.79</text>
</g>
<!-- node192_1&#45;&gt;node105_1 -->
<g id="edge10" class="edge">
<title>node192_1&#45;&gt;node105_1</title>
<path fill="none" stroke="black" d="M311.34,-364.12C352.74,-356.17 426.7,-341.96 473.18,-333.03"/>
<polygon fill="black" stroke="black" points="473.73,-336.49 482.89,-331.17 472.41,-329.62 473.73,-336.49"/>
<text text-anchor="middle" x="397.86" y="-353.2" font-family="Times,serif" font-size="14.00">1.05</text>
</g>
<!-- node0_2 -->
<g id="node11" class="node">
<title>node0_2</title>
<ellipse fill="lightblue" stroke="black" cx="47.9" cy="-586" rx="31.9" ry="31.9"/>
<text text-anchor="middle" x="47.9" y="-580.95" font-family="Times,serif" font-size="14.00">1.000</text>
</g>
<!-- node166_2 -->
<g id="node14" class="node">
<title>node166_2</title>
<ellipse fill="lightgray" stroke="black" cx="279.71" cy="-487" rx="31.9" ry="31.9"/>
<text text-anchor="middle" x="279.71" y="-481.95" font-family="Times,serif" font-size="14.00">1.000</text>
</g>
<!-- node0_2&#45;&gt;node166_2 -->
<g id="edge13" class="edge">
<title>node0_2&#45;&gt;node166_2</title>
<path fill="none" stroke="black" d="M77.54,-573.66C118.42,-556.05 193.63,-523.65 239.61,-503.84"/>
<polygon fill="black" stroke="black" points="240.88,-507.11 248.68,-499.94 238.11,-500.68 240.88,-507.11"/>
<text text-anchor="middle" x="163.81" y="-542.2" font-family="Times,serif" font-size="14.00">3.65</text>
</g>
<!-- node192_2 -->
<g id="node15" class="node">
<title>node192_2</title>
<ellipse fill="lightgray" stroke="black" cx="279.71" cy="-587" rx="31.9" ry="31.9"/>
<text text-anchor="middle" x="279.71" y="-581.95" font-family="Times,serif" font-size="14.00">0.993</text>
</g>
<!-- node0_2&#45;&gt;node192_2 -->
<g id="edge14" class="edge">
<title>node0_2&#45;&gt;node192_2</title>
<path fill="none" stroke="black" d="M79.9,-586.13C120.16,-586.31 190.64,-586.62 235.96,-586.81"/>
<polygon fill="black" stroke="black" points="235.94,-590.31 245.96,-586.86 235.97,-583.31 235.94,-590.31"/>
<text text-anchor="middle" x="163.81" y="-589.2" font-family="Times,serif" font-size="14.00">1.00</text>
</g>
<!-- node1_2 -->
<g id="node12" class="node">
<title>node1_2</title>
<ellipse fill="lightblue" stroke="black" cx="47.9" cy="-486" rx="31.9" ry="31.9"/>
<text text-anchor="middle" x="47.9" y="-480.95" font-family="Times,serif" font-size="14.00">0.000</text>
</g>
<!-- node1_2&#45;&gt;node166_2 -->
<g id="edge11" class="edge">
<title>node1_2&#45;&gt;node166_2</title>
<path fill="none" stroke="black" d="M80.19,-484.28C105.87,-483.07 143.19,-481.79 175.81,-482.5 195.7,-482.93 217.74,-483.84 236.3,-484.73"/>
<polygon fill="black" stroke="black" points="235.98,-488.22 246.14,-485.21 236.32,-481.22 235.98,-488.22"/>
<text text-anchor="middle" x="163.81" y="-485.2" font-family="Times,serif" font-size="14.00">3.21</text>
</g>
<!-- node105_2 -->
<g id="node13" class="node">
<title>node105_2</title>
<ellipse fill="lightgreen" stroke="black" cx="516.01" cy="-542" rx="31.9" ry="31.9"/>
<text text-anchor="middle" x="516.01" y="-536.95" font-family="Times,serif" font-size="14.00">0.000</text>
</g>
<!-- node166_2&#45;&gt;node105_2 -->
<g id="edge12" class="edge">
<title>node166_2&#45;&gt;node105_2</title>
<path fill="none" stroke="black" d="M310.86,-494.08C352.31,-503.81 427.04,-521.35 473.68,-532.3"/>
<polygon fill="black" stroke="black" points="472.6,-535.64 483.13,-534.52 474.2,-528.82 472.6,-535.64"/>
<text text-anchor="middle" x="397.86" y="-520.2" font-family="Times,serif" font-size="14.00">&#45;2.79</text>
</g>
<!-- node192_2&#45;&gt;node105_2 -->
<g id="edge15" class="edge">
<title>node192_2&#45;&gt;node105_2</title>
<path fill="none" stroke="black" d="M311.34,-581.12C352.74,-573.17 426.7,-558.96 473.18,-550.03"/>
<polygon fill="black" stroke="black" points="473.73,-553.49 482.89,-548.17 472.41,-546.62 473.73,-553.49"/>
<text text-anchor="middle" x="397.86" y="-570.2" font-family="Times,serif" font-size="14.00">1.05</text>
</g>
<!-- node0_3 -->
<g id="node16" class="node">
<title>node0_3</title>
<ellipse fill="lightblue" stroke="black" cx="47.9" cy="-803" rx="31.9" ry="31.9"/>
<text text-anchor="middle" x="47.9" y="-797.95" font-family="Times,serif" font-size="14.00">1.000</text>
</g>
<!-- node166_3 -->
<g id="node19" class="node">
<title>node166_3</title>
<ellipse fill="lightgray" stroke="black" cx="279.71" cy="-704" rx="31.9" ry="31.9"/>
<text text-anchor="middle" x="279.71" y="-698.95" font-family="Times,serif" font-size="14.00">1.000</text>
</g>
<!-- node0_3&#45;&gt;node166_3 -->
<g id="edge18" class="edge">
<title>node0_3&#45;&gt;node166_3</title>
<path fill="none" stroke="black" d="M77.54,-790.66C118.42,-773.05 193.63,-740.65 239.61,-720.84"/>
<polygon fill="black" stroke="black" points="240.88,-724.11 248.68,-716.94 238.11,-717.68 240.88,-724.11"/>
<text text-anchor="middle" x="163.81" y="-759.2" font-family="Times,serif" font-size="14.00">3.65</text>
</g>
<!-- node192_3 -->
<g id="node20" class="node">
<title>node192_3</title>
<ellipse fill="lightgray" stroke="black" cx="279.71" cy="-804" rx="31.9" ry="31.9"/>
<text text-anchor="middle" x="279.71" y="-798.95" font-family="Times,serif" font-size="14.00">0.993</text>
</g>
<!-- node0_3&#45;&gt;node192_3 -->
<g id="edge19" class="edge">
<title>node0_3&#45;&gt;node192_3</title>
<path fill="none" stroke="black" d="M79.9,-803.13C120.16,-803.31 190.64,-803.62 235.96,-803.81"/>
<polygon fill="black" stroke="black" points="235.94,-807.31 245.96,-803.86 235.97,-800.31 235.94,-807.31"/>
<text text-anchor="middle" x="163.81" y="-806.2" font-family="Times,serif" font-size="14.00">1.00</text>
</g>
<!-- node1_3 -->
<g id="node17" class="node">
<title>node1_3</title>
<ellipse fill="lightblue" stroke="black" cx="47.9" cy="-703" rx="31.9" ry="31.9"/>
<text text-anchor="middle" x="47.9" y="-697.95" font-family="Times,serif" font-size="14.00">1.000</text>
</g>
<!-- node1_3&#45;&gt;node166_3 -->
<g id="edge16" class="edge">
<title>node1_3&#45;&gt;node166_3</title>
<path fill="none" stroke="black" d="M80.19,-701.28C105.87,-700.07 143.19,-698.79 175.81,-699.5 195.7,-699.93 217.74,-700.84 236.3,-701.73"/>
<polygon fill="black" stroke="black" points="235.98,-705.22 246.14,-702.21 236.32,-698.22 235.98,-705.22"/>
<text text-anchor="middle" x="163.81" y="-702.2" font-family="Times,serif" font-size="14.00">3.21</text>
</g>
<!-- node105_3 -->
<g id="node18" class="node">
<title>node105_3</title>
<ellipse fill="lightgreen" stroke="black" cx="516.01" cy="-759" rx="31.9" ry="31.9"/>
<text text-anchor="middle" x="516.01" y="-753.95" font-family="Times,serif" font-size="14.00">0.000</text>
</g>
<!-- node166_3&#45;&gt;node105_3 -->
<g id="edge17" class="edge">
<title>node166_3&#45;&gt;node105_3</title>
<path fill="none" stroke="black" d="M310.86,-711.08C352.31,-720.81 427.04,-738.35 473.68,-749.3"/>
<polygon fill="black" stroke="black" points="472.6,-752.64 483.13,-751.52 474.2,-745.82 472.6,-752.64"/>
<text text-anchor="middle" x="397.86" y="-737.2" font-family="Times,serif" font-size="14.00">&#45;2.79</text>
</g>
<!-- node192_3&#45;&gt;node105_3 -->
<g id="edge20" class="edge">
<title>node192_3&#45;&gt;node105_3</title>
<path fill="none" stroke="black" d="M311.34,-798.12C352.74,-790.17 426.7,-775.96 473.18,-767.03"/>
<polygon fill="black" stroke="black" points="473.73,-770.49 482.89,-765.17 472.41,-763.62 473.73,-770.49"/>
<text text-anchor="middle" x="397.86" y="-787.2" font-family="Times,serif" font-size="14.00">1.05</text>
</g>
</g>
</svg>
