<?xml version="1.0" encoding="UTF-8" standalone="no"?>
<!DOCTYPE svg PUBLIC "-//W3C//DTD SVG 1.1//EN"
 "http://www.w3.org/Graphics/SVG/1.1/DTD/svg11.dtd">
<!-- Generated by graphviz version 9.0.0 (20230911.1827)
 -->
<!-- Title: neat Pages: 1 -->
<svg width="267pt" height="233pt"
 viewBox="0.00 0.00 267.21 232.74" xmlns="http://www.w3.org/2000/svg" xmlns:xlink="http://www.w3.org/1999/xlink">
<g id="graph0" class="graph" transform="scale(1 1) rotate(0) translate(4 228.74)">
<title>neat</title>
<polygon fill="white" stroke="none" points="-4,4 -4,-228.74 263.21,-228.74 263.21,4 -4,4"/>
<!-- node0 -->
<g id="node1" class="node">
<title>node0</title>
<ellipse fill="lightblue" stroke="black" cx="24.74" cy="-18" rx="18" ry="18"/>
<text text-anchor="middle" x="24.74" y="-12.95" font-family="Times,serif" font-size="14.00">0</text>
</g>
<!-- node1 -->
<g id="node2" class="node">
<title>node1</title>
<ellipse fill="lightblue" stroke="black" cx="24.74" cy="-72" rx="18" ry="18"/>
<text text-anchor="middle" x="24.74" y="-66.95" font-family="Times,serif" font-size="14.00">1</text>
</g>
<!-- node45 -->
<g id="node3" class="node">
<title>node45</title>
<ellipse fill="lightgreen" stroke="black" cx="239.08" cy="-133" rx="20.13" ry="20.13"/>
<text text-anchor="middle" x="239.08" y="-127.95" font-family="Times,serif" font-size="14.00">45</text>
</g>
<!-- node163 -->
<g id="node4" class="node">
<title>node163</title>
<ellipse fill="lightgray" stroke="black" cx="24.74" cy="-200" rx="24.74" ry="24.74"/>
<text text-anchor="middle" x="24.74" y="-194.95" font-family="Times,serif" font-size="14.00">163</text>
</g>
<!-- node217 -->
<g id="node5" class="node">
<title>node217</title>
<ellipse fill="lightgray" stroke="black" cx="24.74" cy="-133" rx="24.74" ry="24.74"/>
<text text-anchor="middle" x="24.74" y="-127.95" font-family="Times,serif" font-size="14.00">217</text>
</g>
<!-- node274 -->
<g id="node6" class="node">
<title>node274</title>
<ellipse fill="lightgray" stroke="black" cx="134.21" cy="-133" rx="24.74" ry="24.74"/>
<text text-anchor="middle" x="134.21" y="-127.95" font-family="Times,serif" font-size="14.00">274</text>
</g>
<!-- node217&#45;&gt;node274 -->
<g id="edge2" class="edge">
<title>node217&#45;&gt;node274</title>
<path fill="none" stroke="black" d="M49.86,-133C63.96,-133 82.03,-133 97.73,-133"/>
<polygon fill="black" stroke="black" points="97.66,-136.5 107.66,-133 97.66,-129.5 97.66,-136.5"/>
<text text-anchor="middle" x="79.47" y="-136.2" font-family="Times,serif" font-size="14.00">1.00</text>
</g>
<!-- node274&#45;&gt;node45 -->
<g id="edge1" class="edge">
<title>node274&#45;&gt;node45</title>
<path fill="none" stroke="black" d="M159.33,-133C173.72,-133 192.12,-133 207.52,-133"/>
<polygon fill="black" stroke="black" points="207.07,-136.5 217.07,-133 207.07,-129.5 207.07,-136.5"/>
<text text-anchor="middle" x="188.95" y="-136.2" font-family="Times,serif" font-size="14.00">2.67</text>
</g>
</g>
</svg>
