<?xml version="1.0" encoding="UTF-8" standalone="no"?>
<!DOCTYPE svg PUBLIC "-//W3C//DTD SVG 1.1//EN"
 "http://www.w3.org/Graphics/SVG/1.1/DTD/svg11.dtd">
<!-- Generated by graphviz version 9.0.0 (20230911.1827)
 -->
<!-- Title: neat Pages: 1 -->
<svg width="272pt" height="127pt"
 viewBox="0.00 0.00 271.95 127.47" xmlns="http://www.w3.org/2000/svg" xmlns:xlink="http://www.w3.org/1999/xlink">
<g id="graph0" class="graph" transform="scale(1 1) rotate(0) translate(4 123.47)">
<title>neat</title>
<polygon fill="white" stroke="none" points="-4,4 -4,-123.47 267.95,-123.47 267.95,4 -4,4"/>
<!-- node0 -->
<g id="node1" class="node">
<title>node0</title>
<ellipse fill="lightblue" stroke="black" cx="18" cy="-94.74" rx="18" ry="18"/>
<text text-anchor="middle" x="18" y="-89.69" font-family="Times,serif" font-size="14.00">0</text>
</g>
<!-- node171 -->
<g id="node4" class="node">
<title>node171</title>
<ellipse fill="lightgray" stroke="black" cx="125.24" cy="-87.74" rx="24.74" ry="24.74"/>
<text text-anchor="middle" x="125.24" y="-82.69" font-family="Times,serif" font-size="14.00">171</text>
</g>
<!-- node0&#45;&gt;node171 -->
<g id="edge2" class="edge">
<title>node0&#45;&gt;node171</title>
<path fill="none" stroke="black" d="M36.38,-93.58C50.58,-92.64 71.12,-91.27 88.77,-90.1"/>
<polygon fill="black" stroke="black" points="88.88,-93.6 98.63,-89.44 88.42,-86.61 88.88,-93.6"/>
<text text-anchor="middle" x="68.25" y="-94.94" font-family="Times,serif" font-size="14.00">&#45;0.57</text>
</g>
<!-- node1 -->
<g id="node2" class="node">
<title>node1</title>
<ellipse fill="lightblue" stroke="black" cx="18" cy="-31.74" rx="18" ry="18"/>
<text text-anchor="middle" x="18" y="-26.69" font-family="Times,serif" font-size="14.00">1</text>
</g>
<!-- node136 -->
<g id="node3" class="node">
<title>node136</title>
<ellipse fill="lightgreen" stroke="black" cx="239.21" cy="-24.74" rx="24.74" ry="24.74"/>
<text text-anchor="middle" x="239.21" y="-19.69" font-family="Times,serif" font-size="14.00">136</text>
</g>
<!-- node1&#45;&gt;node136 -->
<g id="edge1" class="edge">
<title>node1&#45;&gt;node136</title>
<path fill="none" stroke="black" d="M36.2,-31.19C72.02,-30.04 155.26,-27.39 202.95,-25.86"/>
<polygon fill="black" stroke="black" points="202.87,-29.37 212.75,-25.55 202.64,-22.37 202.87,-29.37"/>
<text text-anchor="middle" x="125.24" y="-32.94" font-family="Times,serif" font-size="14.00">1.27</text>
</g>
<!-- node1&#45;&gt;node171 -->
<g id="edge3" class="edge">
<title>node1&#45;&gt;node171</title>
<path fill="none" stroke="black" d="M34.53,-40C49.77,-48.11 73.47,-60.72 92.68,-70.94"/>
<polygon fill="black" stroke="black" points="91,-74.01 101.47,-75.62 94.29,-67.83 91,-74.01"/>
<text text-anchor="middle" x="68.25" y="-67.94" font-family="Times,serif" font-size="14.00">&#45;0.29</text>
</g>
<!-- node171&#45;&gt;node136 -->
<g id="edge5" class="edge">
<title>node171&#45;&gt;node136</title>
<path fill="none" stroke="black" d="M147.3,-75.89C164.19,-66.38 188.14,-52.91 207.22,-42.17"/>
<polygon fill="black" stroke="black" points="208.93,-45.23 215.93,-37.28 205.49,-39.13 208.93,-45.23"/>
<text text-anchor="middle" x="182.22" y="-65.94" font-family="Times,serif" font-size="14.00">&#45;1.06</text>
</g>
<!-- node222 -->
<g id="node5" class="node">
<title>node222</title>
<ellipse fill="lightgray" stroke="black" cx="239.21" cy="-94.74" rx="24.74" ry="24.74"/>
<text text-anchor="middle" x="239.21" y="-89.69" font-family="Times,serif" font-size="14.00">222</text>
</g>
<!-- node171&#45;&gt;node222 -->
<g id="edge4" class="edge">
<title>node171&#45;&gt;node222</title>
<path fill="none" stroke="black" d="M150.26,-89.24C165.61,-90.2 185.78,-91.46 202.93,-92.53"/>
<polygon fill="black" stroke="black" points="202.52,-96.01 212.72,-93.14 202.96,-89.03 202.52,-96.01"/>
<text text-anchor="middle" x="182.22" y="-94.94" font-family="Times,serif" font-size="14.00">1.00</text>
</g>
</g>
</svg>
