<?xml version="1.0" encoding="UTF-8" standalone="no"?>
<!DOCTYPE svg PUBLIC "-//W3C//DTD SVG 1.1//EN"
 "http://www.w3.org/Graphics/SVG/1.1/DTD/svg11.dtd">
<!-- Generated by graphviz version 9.0.0 (20230911.1827)
 -->
<!-- Title: neat Pages: 1 -->
<svg width="267pt" height="159pt"
 viewBox="0.00 0.00 267.45 159.24" xmlns="http://www.w3.org/2000/svg" xmlns:xlink="http://www.w3.org/1999/xlink">
<g id="graph0" class="graph" transform="scale(1 1) rotate(0) translate(4 155.24)">
<title>neat</title>
<polygon fill="white" stroke="none" points="-4,4 -4,-155.24 263.45,-155.24 263.45,4 -4,4"/>
<!-- node0 -->
<g id="node1" class="node">
<title>node0</title>
<ellipse fill="lightblue" stroke="black" cx="18" cy="-129.74" rx="18" ry="18"/>
<text text-anchor="middle" x="18" y="-124.69" font-family="Times,serif" font-size="14.00">0</text>
</g>
<!-- node141 -->
<g id="node3" class="node">
<title>node141</title>
<ellipse fill="lightgreen" stroke="black" cx="234.71" cy="-91.74" rx="24.74" ry="24.74"/>
<text text-anchor="middle" x="234.71" y="-86.69" font-family="Times,serif" font-size="14.00">141</text>
</g>
<!-- node0&#45;&gt;node141 -->
<g id="edge1" class="edge">
<title>node0&#45;&gt;node141</title>
<path fill="none" stroke="black" d="M35.99,-133.84C41.68,-135.02 48.08,-136.15 54,-136.74 64.61,-137.79 67.37,-137.6 78,-136.74 129.6,-132.56 143.7,-131.43 191.97,-112.74 195.38,-111.42 198.88,-109.92 202.33,-108.33"/>
<polygon fill="black" stroke="black" points="203.57,-111.62 211.05,-104.11 200.52,-105.32 203.57,-111.62"/>
<text text-anchor="middle" x="120.74" y="-137.94" font-family="Times,serif" font-size="14.00">&#45;1.15</text>
</g>
<!-- node211 -->
<g id="node5" class="node">
<title>node211</title>
<ellipse fill="lightgray" stroke="black" cx="120.74" cy="-91.74" rx="24.74" ry="24.74"/>
<text text-anchor="middle" x="120.74" y="-86.69" font-family="Times,serif" font-size="14.00">211</text>
</g>
<!-- node0&#45;&gt;node211 -->
<g id="edge6" class="edge">
<title>node0&#45;&gt;node211</title>
<path fill="none" stroke="black" d="M35.19,-123.63C49.09,-118.39 69.59,-110.65 86.92,-104.12"/>
<polygon fill="black" stroke="black" points="87.67,-107.57 95.79,-100.77 85.2,-101.02 87.67,-107.57"/>
<text text-anchor="middle" x="66" y="-118.94" font-family="Times,serif" font-size="14.00">1.20</text>
</g>
<!-- node1 -->
<g id="node2" class="node">
<title>node1</title>
<ellipse fill="lightblue" stroke="black" cx="18" cy="-62.74" rx="18" ry="18"/>
<text text-anchor="middle" x="18" y="-57.69" font-family="Times,serif" font-size="14.00">1</text>
</g>
<!-- node159 -->
<g id="node4" class="node">
<title>node159</title>
<ellipse fill="lightgray" stroke="black" cx="120.74" cy="-24.74" rx="24.74" ry="24.74"/>
<text text-anchor="middle" x="120.74" y="-19.69" font-family="Times,serif" font-size="14.00">159</text>
</g>
<!-- node1&#45;&gt;node159 -->
<g id="edge2" class="edge">
<title>node1&#45;&gt;node159</title>
<path fill="none" stroke="black" d="M35.19,-56.63C49.09,-51.39 69.59,-43.65 86.92,-37.12"/>
<polygon fill="black" stroke="black" points="87.67,-40.57 95.79,-33.77 85.2,-34.02 87.67,-40.57"/>
<text text-anchor="middle" x="66" y="-51.94" font-family="Times,serif" font-size="14.00">0.83</text>
</g>
<!-- node1&#45;&gt;node211 -->
<g id="edge4" class="edge">
<title>node1&#45;&gt;node211</title>
<path fill="none" stroke="black" d="M35.63,-67.53C49.3,-71.46 69.08,-77.16 86.03,-82.03"/>
<polygon fill="black" stroke="black" points="84.64,-85.27 95.22,-84.68 86.57,-78.55 84.64,-85.27"/>
<text text-anchor="middle" x="66" y="-81.94" font-family="Times,serif" font-size="14.00">3.20</text>
</g>
<!-- node159&#45;&gt;node141 -->
<g id="edge3" class="edge">
<title>node159&#45;&gt;node141</title>
<path fill="none" stroke="black" d="M142.54,-37.18C159.58,-47.38 183.95,-61.96 203.21,-73.49"/>
<polygon fill="black" stroke="black" points="201.35,-76.45 211.73,-78.58 204.94,-70.44 201.35,-76.45"/>
<text text-anchor="middle" x="177.72" y="-68.94" font-family="Times,serif" font-size="14.00">&#45;3.49</text>
</g>
<!-- node211&#45;&gt;node141 -->
<g id="edge5" class="edge">
<title>node211&#45;&gt;node141</title>
<path fill="none" stroke="black" d="M145.76,-91.74C161.11,-91.74 181.28,-91.74 198.43,-91.74"/>
<polygon fill="black" stroke="black" points="198.22,-95.24 208.22,-91.74 198.22,-88.24 198.22,-95.24"/>
<text text-anchor="middle" x="177.72" y="-94.94" font-family="Times,serif" font-size="14.00">&#45;2.50</text>
</g>
</g>
</svg>
