<?xml version="1.0" encoding="UTF-8" standalone="no"?>
<!DOCTYPE svg PUBLIC "-//W3C//DTD SVG 1.1//EN"
 "http://www.w3.org/Graphics/SVG/1.1/DTD/svg11.dtd">
<!-- Generated by graphviz version 9.0.0 (20230911.1827)
 -->
<!-- Title: neat Pages: 1 -->
<svg width="328pt" height="236pt"
 viewBox="0.00 0.00 328.42 235.81" xmlns="http://www.w3.org/2000/svg" xmlns:xlink="http://www.w3.org/1999/xlink">
<g id="graph0" class="graph" transform="scale(1 1) rotate(0) translate(4 231.81)">
<title>neat</title>
<polygon fill="white" stroke="none" points="-4,4 -4,-231.81 324.42,-231.81 324.42,4 -4,4"/>
<!-- node0 -->
<g id="node1" class="node">
<title>node0</title>
<ellipse fill="lightblue" stroke="black" cx="31.9" cy="-31.9" rx="31.9" ry="31.9"/>
<text text-anchor="middle" x="31.9" y="-26.85" font-family="Times,serif" font-size="14.00">0.000</text>
</g>
<!-- node252 -->
<g id="node6" class="node">
<title>node252</title>
<ellipse fill="lightgray" stroke="black" cx="160.21" cy="-31.9" rx="31.9" ry="31.9"/>
<text text-anchor="middle" x="160.21" y="-26.85" font-family="Times,serif" font-size="14.00">0.500</text>
</g>
<!-- node0&#45;&gt;node252 -->
<g id="edge2" class="edge">
<title>node0&#45;&gt;node252</title>
<path fill="none" stroke="black" d="M64.12,-31.9C79.91,-31.9 99.31,-31.9 116.47,-31.9"/>
<polygon fill="black" stroke="black" points="116.39,-35.4 126.39,-31.9 116.39,-28.4 116.39,-35.4"/>
<text text-anchor="middle" x="96.06" y="-35.1" font-family="Times,serif" font-size="14.00">1.00</text>
</g>
<!-- node1 -->
<g id="node2" class="node">
<title>node1</title>
<ellipse fill="lightblue" stroke="black" cx="31.9" cy="-113.9" rx="31.9" ry="31.9"/>
<text text-anchor="middle" x="31.9" y="-108.85" font-family="Times,serif" font-size="14.00">1.000</text>
</g>
<!-- node118 -->
<g id="node3" class="node">
<title>node118</title>
<ellipse fill="lightgreen" stroke="black" cx="160.21" cy="-195.9" rx="31.9" ry="31.9"/>
<text text-anchor="middle" x="160.21" y="-190.85" font-family="Times,serif" font-size="14.00">0.000</text>
</g>
<!-- node169 -->
<g id="node4" class="node">
<title>node169</title>
<ellipse fill="lightgray" stroke="black" cx="31.9" cy="-195.9" rx="31.9" ry="31.9"/>
<text text-anchor="middle" x="31.9" y="-190.85" font-family="Times,serif" font-size="14.00">0.500</text>
</g>
<!-- node169&#45;&gt;node118 -->
<g id="edge1" class="edge">
<title>node169&#45;&gt;node118</title>
<path fill="none" stroke="black" d="M64.12,-195.9C79.91,-195.9 99.31,-195.9 116.47,-195.9"/>
<polygon fill="black" stroke="black" points="116.39,-199.4 126.39,-195.9 116.39,-192.4 116.39,-199.4"/>
<text text-anchor="middle" x="96.06" y="-199.1" font-family="Times,serif" font-size="14.00">&#45;6.35</text>
</g>
<!-- node228 -->
<g id="node5" class="node">
<title>node228</title>
<ellipse fill="lightgray" stroke="black" cx="288.51" cy="-31.9" rx="31.9" ry="31.9"/>
<text text-anchor="middle" x="288.51" y="-26.85" font-family="Times,serif" font-size="14.00">0.500</text>
</g>
<!-- node252&#45;&gt;node228 -->
<g id="edge3" class="edge">
<title>node252&#45;&gt;node228</title>
<path fill="none" stroke="black" d="M192.43,-31.9C208.22,-31.9 227.62,-31.9 244.77,-31.9"/>
<polygon fill="black" stroke="black" points="244.7,-35.4 254.7,-31.9 244.7,-28.4 244.7,-35.4"/>
<text text-anchor="middle" x="224.36" y="-35.1" font-family="Times,serif" font-size="14.00">&#45;0.48</text>
</g>
</g>
</svg>
