<?xml version="1.0" encoding="UTF-8" standalone="no"?>
<!DOCTYPE svg PUBLIC "-//W3C//DTD SVG 1.1//EN"
 "http://www.w3.org/Graphics/SVG/1.1/DTD/svg11.dtd">
<!-- Generated by graphviz version 9.0.0 (20230911.1827)
 -->
<!-- Title: neat Pages: 1 -->
<svg width="263pt" height="107pt"
 viewBox="0.00 0.00 262.74 107.00" xmlns="http://www.w3.org/2000/svg" xmlns:xlink="http://www.w3.org/1999/xlink">
<g id="graph0" class="graph" transform="scale(1 1) rotate(0) translate(4 103)">
<title>neat</title>
<polygon fill="white" stroke="none" points="-4,4 -4,-103 258.74,-103 258.74,4 -4,4"/>
<!-- node0 -->
<g id="node1" class="node">
<title>node0</title>
<ellipse fill="lightblue" stroke="black" cx="18" cy="-81" rx="18" ry="18"/>
<text text-anchor="middle" x="18" y="-75.95" font-family="Times,serif" font-size="14.00">0</text>
</g>
<!-- node45 -->
<g id="node3" class="node">
<title>node45</title>
<ellipse fill="lightgreen" stroke="black" cx="234.61" cy="-60" rx="20.13" ry="20.13"/>
<text text-anchor="middle" x="234.61" y="-54.95" font-family="Times,serif" font-size="14.00">45</text>
</g>
<!-- node0&#45;&gt;node45 -->
<g id="edge1" class="edge">
<title>node0&#45;&gt;node45</title>
<path fill="none" stroke="black" d="M36.26,-81.08C68.13,-80.97 138.29,-79.54 196.47,-70 198.84,-69.61 201.28,-69.14 203.71,-68.6"/>
<polygon fill="black" stroke="black" points="204.55,-72 213.41,-66.2 202.86,-65.21 204.55,-72"/>
<text text-anchor="middle" x="125.24" y="-82.2" font-family="Times,serif" font-size="14.00">&#45;1.16</text>
</g>
<!-- node167 -->
<g id="node4" class="node">
<title>node167</title>
<ellipse fill="lightgray" stroke="black" cx="125.24" cy="-29" rx="24.74" ry="24.74"/>
<text text-anchor="middle" x="125.24" y="-23.95" font-family="Times,serif" font-size="14.00">167</text>
</g>
<!-- node0&#45;&gt;node167 -->
<g id="edge4" class="edge">
<title>node0&#45;&gt;node167</title>
<path fill="none" stroke="black" d="M33.72,-71.32C39.87,-67.44 47.17,-63.06 54,-59.5 65.92,-53.29 79.37,-47.23 91.29,-42.17"/>
<polygon fill="black" stroke="black" points="92.44,-45.49 100.32,-38.41 89.74,-39.02 92.44,-45.49"/>
<text text-anchor="middle" x="68.25" y="-62.2" font-family="Times,serif" font-size="14.00">0.11</text>
</g>
<!-- node1 -->
<g id="node2" class="node">
<title>node1</title>
<ellipse fill="lightblue" stroke="black" cx="18" cy="-18" rx="18" ry="18"/>
<text text-anchor="middle" x="18" y="-12.95" font-family="Times,serif" font-size="14.00">1</text>
</g>
<!-- node1&#45;&gt;node167 -->
<g id="edge2" class="edge">
<title>node1&#45;&gt;node167</title>
<path fill="none" stroke="black" d="M36.32,-17.48C49.12,-17.32 66.96,-17.57 82.5,-19.5 84.86,-19.79 87.29,-20.16 89.72,-20.58"/>
<polygon fill="black" stroke="black" points="89.01,-24.01 99.5,-22.54 90.38,-17.15 89.01,-24.01"/>
<text text-anchor="middle" x="68.25" y="-23.2" font-family="Times,serif" font-size="14.00">&#45;1.59</text>
</g>
<!-- node167&#45;&gt;node45 -->
<g id="edge3" class="edge">
<title>node167&#45;&gt;node45</title>
<path fill="none" stroke="black" d="M149.53,-35.73C165.62,-40.37 187.14,-46.58 204.38,-51.56"/>
<polygon fill="black" stroke="black" points="202.96,-54.79 213.54,-54.21 204.9,-48.07 202.96,-54.79"/>
<text text-anchor="middle" x="182.22" y="-52.2" font-family="Times,serif" font-size="14.00">&#45;3.61</text>
</g>
</g>
</svg>
