<?xml version="1.0" encoding="UTF-8" standalone="no"?>
<!DOCTYPE svg PUBLIC "-//W3C//DTD SVG 1.1//EN"
 "http://www.w3.org/Graphics/SVG/1.1/DTD/svg11.dtd">
<!-- Generated by graphviz version 9.0.0 (20230911.1827)
 -->
<!-- Title: neat Pages: 1 -->
<svg width="377pt" height="172pt"
 viewBox="0.00 0.00 376.69 172.47" xmlns="http://www.w3.org/2000/svg" xmlns:xlink="http://www.w3.org/1999/xlink">
<g id="graph0" class="graph" transform="scale(1 1) rotate(0) translate(4 168.47)">
<title>neat</title>
<polygon fill="white" stroke="none" points="-4,4 -4,-168.47 372.69,-168.47 372.69,4 -4,4"/>
<!-- node0 -->
<g id="node1" class="node">
<title>node0</title>
<ellipse fill="lightblue" stroke="black" cx="24.74" cy="-24.74" rx="18" ry="18"/>
<text text-anchor="middle" x="24.74" y="-19.69" font-family="Times,serif" font-size="14.00">0</text>
</g>
<!-- node261 -->
<g id="node6" class="node">
<title>node261</title>
<ellipse fill="lightgray" stroke="black" cx="134.21" cy="-24.74" rx="24.74" ry="24.74"/>
<text text-anchor="middle" x="134.21" y="-19.69" font-family="Times,serif" font-size="14.00">261</text>
</g>
<!-- node0&#45;&gt;node261 -->
<g id="edge3" class="edge">
<title>node0&#45;&gt;node261</title>
<path fill="none" stroke="black" d="M43.01,-24.74C57.7,-24.74 79.3,-24.74 97.67,-24.74"/>
<polygon fill="black" stroke="black" points="97.66,-28.24 107.66,-24.74 97.66,-21.24 97.66,-28.24"/>
<text text-anchor="middle" x="79.47" y="-27.94" font-family="Times,serif" font-size="14.00">1.00</text>
</g>
<!-- node1 -->
<g id="node2" class="node">
<title>node1</title>
<ellipse fill="lightblue" stroke="black" cx="24.74" cy="-78.74" rx="18" ry="18"/>
<text text-anchor="middle" x="24.74" y="-73.69" font-family="Times,serif" font-size="14.00">1</text>
</g>
<!-- node45 -->
<g id="node3" class="node">
<title>node45</title>
<ellipse fill="lightgreen" stroke="black" cx="348.56" cy="-24.74" rx="20.13" ry="20.13"/>
<text text-anchor="middle" x="348.56" y="-19.69" font-family="Times,serif" font-size="14.00">45</text>
</g>
<!-- node163 -->
<g id="node4" class="node">
<title>node163</title>
<ellipse fill="lightgray" stroke="black" cx="24.74" cy="-139.74" rx="24.74" ry="24.74"/>
<text text-anchor="middle" x="24.74" y="-134.69" font-family="Times,serif" font-size="14.00">163</text>
</g>
<!-- node217 -->
<g id="node5" class="node">
<title>node217</title>
<ellipse fill="lightgray" stroke="black" cx="243.69" cy="-24.74" rx="24.74" ry="24.74"/>
<text text-anchor="middle" x="243.69" y="-19.69" font-family="Times,serif" font-size="14.00">217</text>
</g>
<!-- node217&#45;&gt;node45 -->
<g id="edge2" class="edge">
<title>node217&#45;&gt;node45</title>
<path fill="none" stroke="black" d="M268.81,-24.74C283.19,-24.74 301.59,-24.74 316.99,-24.74"/>
<polygon fill="black" stroke="black" points="316.55,-28.24 326.55,-24.74 316.55,-21.24 316.55,-28.24"/>
<text text-anchor="middle" x="298.42" y="-27.94" font-family="Times,serif" font-size="14.00">2.15</text>
</g>
<!-- node261&#45;&gt;node217 -->
<g id="edge1" class="edge">
<title>node261&#45;&gt;node217</title>
<path fill="none" stroke="black" d="M159.33,-24.74C173.44,-24.74 191.5,-24.74 207.2,-24.74"/>
<polygon fill="black" stroke="black" points="207.13,-28.24 217.13,-24.74 207.13,-21.24 207.13,-28.24"/>
<text text-anchor="middle" x="188.95" y="-27.94" font-family="Times,serif" font-size="14.00">0.28</text>
</g>
</g>
</svg>
