<?xml version="1.0" encoding="UTF-8" standalone="no"?>
<!DOCTYPE svg PUBLIC "-//W3C//DTD SVG 1.1//EN"
 "http://www.w3.org/Graphics/SVG/1.1/DTD/svg11.dtd">
<!-- Generated by graphviz version 9.0.0 (20230911.1827)
 -->
<!-- Title: neat Pages: 1 -->
<svg width="363pt" height="143pt"
 viewBox="0.00 0.00 363.21 142.74" xmlns="http://www.w3.org/2000/svg" xmlns:xlink="http://www.w3.org/1999/xlink">
<g id="graph0" class="graph" transform="scale(1 1) rotate(0) translate(4 138.74)">
<title>neat</title>
<polygon fill="white" stroke="none" points="-4,4 -4,-138.74 359.21,-138.74 359.21,4 -4,4"/>
<!-- node0 -->
<g id="node1" class="node">
<title>node0</title>
<ellipse fill="lightblue" stroke="black" cx="18" cy="-110" rx="18" ry="18"/>
<text text-anchor="middle" x="18" y="-104.95" font-family="Times,serif" font-size="14.00">0</text>
</g>
<!-- node273 -->
<g id="node5" class="node">
<title>node273</title>
<ellipse fill="lightgray" stroke="black" cx="120.74" cy="-110" rx="24.74" ry="24.74"/>
<text text-anchor="middle" x="120.74" y="-104.95" font-family="Times,serif" font-size="14.00">273</text>
</g>
<!-- node0&#45;&gt;node273 -->
<g id="edge3" class="edge">
<title>node0&#45;&gt;node273</title>
<path fill="none" stroke="black" d="M36.09,-110C49.28,-110 67.98,-110 84.36,-110"/>
<polygon fill="black" stroke="black" points="84.24,-113.5 94.24,-110 84.24,-106.5 84.24,-113.5"/>
<text text-anchor="middle" x="66" y="-113.2" font-family="Times,serif" font-size="14.00">1.00</text>
</g>
<!-- node1 -->
<g id="node2" class="node">
<title>node1</title>
<ellipse fill="lightblue" stroke="black" cx="230.21" cy="-18" rx="18" ry="18"/>
<text text-anchor="middle" x="230.21" y="-12.95" font-family="Times,serif" font-size="14.00">1</text>
</g>
<!-- node81 -->
<g id="node3" class="node">
<title>node81</title>
<ellipse fill="lightgreen" stroke="black" cx="335.08" cy="-79" rx="20.13" ry="20.13"/>
<text text-anchor="middle" x="335.08" y="-73.95" font-family="Times,serif" font-size="14.00">81</text>
</g>
<!-- node1&#45;&gt;node81 -->
<g id="edge1" class="edge">
<title>node1&#45;&gt;node81</title>
<path fill="none" stroke="black" d="M245.95,-26.74C261.96,-36.23 287.87,-51.6 307.46,-63.22"/>
<polygon fill="black" stroke="black" points="305.63,-66.2 316.02,-68.29 309.2,-60.18 305.63,-66.2"/>
<text text-anchor="middle" x="284.95" y="-59.2" font-family="Times,serif" font-size="14.00">1.54</text>
</g>
<!-- node152 -->
<g id="node4" class="node">
<title>node152</title>
<ellipse fill="lightgray" stroke="black" cx="230.21" cy="-79" rx="24.74" ry="24.74"/>
<text text-anchor="middle" x="230.21" y="-73.95" font-family="Times,serif" font-size="14.00">152</text>
</g>
<!-- node152&#45;&gt;node81 -->
<g id="edge2" class="edge">
<title>node152&#45;&gt;node81</title>
<path fill="none" stroke="black" d="M255.33,-79C269.72,-79 288.12,-79 303.52,-79"/>
<polygon fill="black" stroke="black" points="303.07,-82.5 313.07,-79 303.07,-75.5 303.07,-82.5"/>
<text text-anchor="middle" x="284.95" y="-82.2" font-family="Times,serif" font-size="14.00">1.57</text>
</g>
<!-- node273&#45;&gt;node81 -->
<g id="edge5" class="edge">
<title>node273&#45;&gt;node81</title>
<path fill="none" stroke="black" d="M145.02,-115.27C151.01,-116.4 157.45,-117.43 163.47,-118 174.09,-119.01 176.82,-118.39 187.47,-118 236.75,-116.18 251.68,-119.54 296.95,-100 300.42,-98.5 303.98,-96.77 307.45,-94.95"/>
<polygon fill="black" stroke="black" points="309.09,-98.05 316.14,-90.14 305.7,-91.92 309.09,-98.05"/>
<text text-anchor="middle" x="230.21" y="-120.2" font-family="Times,serif" font-size="14.00">0.09</text>
</g>
<!-- node273&#45;&gt;node152 -->
<g id="edge4" class="edge">
<title>node273&#45;&gt;node152</title>
<path fill="none" stroke="black" d="M145.06,-103.27C159.7,-99.05 178.85,-93.53 195.17,-88.82"/>
<polygon fill="black" stroke="black" points="195.84,-92.27 204.48,-86.13 193.9,-85.54 195.84,-92.27"/>
<text text-anchor="middle" x="175.47" y="-100.2" font-family="Times,serif" font-size="14.00">0.94</text>
</g>
</g>
</svg>
