<?xml version="1.0" encoding="UTF-8" standalone="no"?>
<!DOCTYPE svg PUBLIC "-//W3C//DTD SVG 1.1//EN"
 "http://www.w3.org/Graphics/SVG/1.1/DTD/svg11.dtd">
<!-- Generated by graphviz version 9.0.0 (20230911.1827)
 -->
<!-- Title: neat Pages: 1 -->
<svg width="267pt" height="191pt"
 viewBox="0.00 0.00 267.45 191.47" xmlns="http://www.w3.org/2000/svg" xmlns:xlink="http://www.w3.org/1999/xlink">
<g id="graph0" class="graph" transform="scale(1 1) rotate(0) translate(4 187.47)">
<title>neat</title>
<polygon fill="white" stroke="none" points="-4,4 -4,-187.47 263.45,-187.47 263.45,4 -4,4"/>
<!-- node0 -->
<g id="node1" class="node">
<title>node0</title>
<ellipse fill="lightblue" stroke="black" cx="18" cy="-128.74" rx="18" ry="18"/>
<text text-anchor="middle" x="18" y="-123.69" font-family="Times,serif" font-size="14.00">0</text>
</g>
<!-- node159 -->
<g id="node4" class="node">
<title>node159</title>
<ellipse fill="lightgray" stroke="black" cx="120.74" cy="-91.74" rx="24.74" ry="24.74"/>
<text text-anchor="middle" x="120.74" y="-86.69" font-family="Times,serif" font-size="14.00">159</text>
</g>
<!-- node0&#45;&gt;node159 -->
<g id="edge7" class="edge">
<title>node0&#45;&gt;node159</title>
<path fill="none" stroke="black" d="M35.19,-122.79C48.96,-117.73 69.2,-110.3 86.43,-103.97"/>
<polygon fill="black" stroke="black" points="87.61,-107.27 95.79,-100.53 85.2,-100.7 87.61,-107.27"/>
<text text-anchor="middle" x="66" y="-118.94" font-family="Times,serif" font-size="14.00">1.96</text>
</g>
<!-- node297 -->
<g id="node6" class="node">
<title>node297</title>
<ellipse fill="lightgray" stroke="black" cx="120.74" cy="-158.74" rx="24.74" ry="24.74"/>
<text text-anchor="middle" x="120.74" y="-153.69" font-family="Times,serif" font-size="14.00">297</text>
</g>
<!-- node0&#45;&gt;node297 -->
<g id="edge5" class="edge">
<title>node0&#45;&gt;node297</title>
<path fill="none" stroke="black" d="M35.63,-133.69C49.3,-137.76 69.08,-143.65 86.03,-148.7"/>
<polygon fill="black" stroke="black" points="84.64,-151.94 95.22,-151.44 86.63,-145.23 84.64,-151.94"/>
<text text-anchor="middle" x="66" y="-147.94" font-family="Times,serif" font-size="14.00">1.00</text>
</g>
<!-- node1 -->
<g id="node2" class="node">
<title>node1</title>
<ellipse fill="lightblue" stroke="black" cx="18" cy="-61.74" rx="18" ry="18"/>
<text text-anchor="middle" x="18" y="-56.69" font-family="Times,serif" font-size="14.00">1</text>
</g>
<!-- node1&#45;&gt;node159 -->
<g id="edge1" class="edge">
<title>node1&#45;&gt;node159</title>
<path fill="none" stroke="black" d="M35.84,-66.25C47.67,-69.47 63.84,-73.97 78,-78.24 80.58,-79.02 83.25,-79.84 85.93,-80.68"/>
<polygon fill="black" stroke="black" points="84.79,-83.99 95.38,-83.69 86.92,-77.32 84.79,-83.99"/>
<text text-anchor="middle" x="66" y="-81.94" font-family="Times,serif" font-size="14.00">0.49</text>
</g>
<!-- node275 -->
<g id="node5" class="node">
<title>node275</title>
<ellipse fill="lightgray" stroke="black" cx="120.74" cy="-24.74" rx="24.74" ry="24.74"/>
<text text-anchor="middle" x="120.74" y="-19.69" font-family="Times,serif" font-size="14.00">275</text>
</g>
<!-- node1&#45;&gt;node275 -->
<g id="edge3" class="edge">
<title>node1&#45;&gt;node275</title>
<path fill="none" stroke="black" d="M35.19,-55.79C48.96,-50.73 69.2,-43.3 86.43,-36.97"/>
<polygon fill="black" stroke="black" points="87.61,-40.27 95.79,-33.53 85.2,-33.7 87.61,-40.27"/>
<text text-anchor="middle" x="66" y="-51.94" font-family="Times,serif" font-size="14.00">1.31</text>
</g>
<!-- node141 -->
<g id="node3" class="node">
<title>node141</title>
<ellipse fill="lightgreen" stroke="black" cx="234.71" cy="-91.74" rx="24.74" ry="24.74"/>
<text text-anchor="middle" x="234.71" y="-86.69" font-family="Times,serif" font-size="14.00">141</text>
</g>
<!-- node159&#45;&gt;node141 -->
<g id="edge2" class="edge">
<title>node159&#45;&gt;node141</title>
<path fill="none" stroke="black" d="M145.76,-91.74C161.11,-91.74 181.28,-91.74 198.43,-91.74"/>
<polygon fill="black" stroke="black" points="198.22,-95.24 208.22,-91.74 198.22,-88.24 198.22,-95.24"/>
<text text-anchor="middle" x="177.72" y="-94.94" font-family="Times,serif" font-size="14.00">&#45;2.67</text>
</g>
<!-- node275&#45;&gt;node141 -->
<g id="edge4" class="edge">
<title>node275&#45;&gt;node141</title>
<path fill="none" stroke="black" d="M142.54,-37.18C159.58,-47.38 183.95,-61.96 203.21,-73.49"/>
<polygon fill="black" stroke="black" points="201.35,-76.45 211.73,-78.58 204.94,-70.44 201.35,-76.45"/>
<text text-anchor="middle" x="177.72" y="-69.94" font-family="Times,serif" font-size="14.00">&#45;0.13</text>
</g>
<!-- node297&#45;&gt;node141 -->
<g id="edge6" class="edge">
<title>node297&#45;&gt;node141</title>
<path fill="none" stroke="black" d="M142.54,-146.29C159.58,-136.09 183.95,-121.51 203.21,-109.99"/>
<polygon fill="black" stroke="black" points="204.94,-113.03 211.73,-104.89 201.35,-107.02 204.94,-113.03"/>
<text text-anchor="middle" x="177.72" y="-135.94" font-family="Times,serif" font-size="14.00">5.10</text>
</g>
</g>
</svg>
