<?xml version="1.0" encoding="UTF-8" standalone="no"?>
<!DOCTYPE svg PUBLIC "-//W3C//DTD SVG 1.1//EN"
 "http://www.w3.org/Graphics/SVG/1.1/DTD/svg11.dtd">
<!-- Generated by graphviz version 9.0.0 (20230911.1827)
 -->
<!-- Title: neat Pages: 1 -->
<svg width="258pt" height="112pt"
 viewBox="0.00 0.00 258.24 111.74" xmlns="http://www.w3.org/2000/svg" xmlns:xlink="http://www.w3.org/1999/xlink">
<g id="graph0" class="graph" transform="scale(1 1) rotate(0) translate(4 107.74)">
<title>neat</title>
<polygon fill="white" stroke="none" points="-4,4 -4,-107.74 254.24,-107.74 254.24,4 -4,4"/>
<!-- node0 -->
<g id="node1" class="node">
<title>node0</title>
<ellipse fill="lightblue" stroke="black" cx="18" cy="-79" rx="18" ry="18"/>
<text text-anchor="middle" x="18" y="-73.95" font-family="Times,serif" font-size="14.00">0</text>
</g>
<!-- node165 -->
<g id="node4" class="node">
<title>node165</title>
<ellipse fill="lightgray" stroke="black" cx="120.74" cy="-79" rx="24.74" ry="24.74"/>
<text text-anchor="middle" x="120.74" y="-73.95" font-family="Times,serif" font-size="14.00">165</text>
</g>
<!-- node0&#45;&gt;node165 -->
<g id="edge2" class="edge">
<title>node0&#45;&gt;node165</title>
<path fill="none" stroke="black" d="M36.09,-79C49.28,-79 67.98,-79 84.36,-79"/>
<polygon fill="black" stroke="black" points="84.24,-82.5 94.24,-79 84.24,-75.5 84.24,-82.5"/>
<text text-anchor="middle" x="66" y="-82.2" font-family="Times,serif" font-size="14.00">0.57</text>
</g>
<!-- node1 -->
<g id="node2" class="node">
<title>node1</title>
<ellipse fill="lightblue" stroke="black" cx="120.74" cy="-18" rx="18" ry="18"/>
<text text-anchor="middle" x="120.74" y="-12.95" font-family="Times,serif" font-size="14.00">1</text>
</g>
<!-- node91 -->
<g id="node3" class="node">
<title>node91</title>
<ellipse fill="lightgreen" stroke="black" cx="230.11" cy="-38" rx="20.13" ry="20.13"/>
<text text-anchor="middle" x="230.11" y="-32.95" font-family="Times,serif" font-size="14.00">91</text>
</g>
<!-- node1&#45;&gt;node91 -->
<g id="edge1" class="edge">
<title>node1&#45;&gt;node91</title>
<path fill="none" stroke="black" d="M138.82,-20.49C153.08,-22.64 173.91,-25.96 191.97,-29.5 194.31,-29.96 196.72,-30.45 199.13,-30.97"/>
<polygon fill="black" stroke="black" points="198.27,-34.36 208.79,-33.12 199.79,-27.53 198.27,-34.36"/>
<text text-anchor="middle" x="177.72" y="-33.2" font-family="Times,serif" font-size="14.00">&#45;1.80</text>
</g>
<!-- node165&#45;&gt;node91 -->
<g id="edge3" class="edge">
<title>node165&#45;&gt;node91</title>
<path fill="none" stroke="black" d="M144.25,-70.41C160.57,-64.17 182.77,-55.69 200.37,-48.97"/>
<polygon fill="black" stroke="black" points="201.39,-52.33 209.49,-45.49 198.9,-45.79 201.39,-52.33"/>
<text text-anchor="middle" x="177.72" y="-65.2" font-family="Times,serif" font-size="14.00">0.23</text>
</g>
</g>
</svg>
