<?xml version="1.0" encoding="UTF-8" standalone="no"?>
<!DOCTYPE svg PUBLIC "-//W3C//DTD SVG 1.1//EN"
 "http://www.w3.org/Graphics/SVG/1.1/DTD/svg11.dtd">
<!-- Generated by graphviz version 9.0.0 (20230911.1827)
 -->
<!-- Title: neat Pages: 1 -->
<svg width="377pt" height="112pt"
 viewBox="0.00 0.00 376.92 111.74" xmlns="http://www.w3.org/2000/svg" xmlns:xlink="http://www.w3.org/1999/xlink">
<g id="graph0" class="graph" transform="scale(1 1) rotate(0) translate(4 107.74)">
<title>neat</title>
<polygon fill="white" stroke="none" points="-4,4 -4,-107.74 372.92,-107.74 372.92,4 -4,4"/>
<!-- node0 -->
<g id="node1" class="node">
<title>node0</title>
<ellipse fill="lightblue" stroke="black" cx="230.21" cy="-85.74" rx="18" ry="18"/>
<text text-anchor="middle" x="230.21" y="-80.69" font-family="Times,serif" font-size="14.00">0</text>
</g>
<!-- node138 -->
<g id="node3" class="node">
<title>node138</title>
<ellipse fill="lightgreen" stroke="black" cx="344.19" cy="-55.74" rx="24.74" ry="24.74"/>
<text text-anchor="middle" x="344.19" y="-50.69" font-family="Times,serif" font-size="14.00">138</text>
</g>
<!-- node0&#45;&gt;node138 -->
<g id="edge1" class="edge">
<title>node0&#45;&gt;node138</title>
<path fill="none" stroke="black" d="M247.73,-81.31C263.78,-77.01 288.62,-70.36 308.93,-64.91"/>
<polygon fill="black" stroke="black" points="309.76,-68.32 318.51,-62.35 307.95,-61.56 309.76,-68.32"/>
<text text-anchor="middle" x="287.2" y="-76.94" font-family="Times,serif" font-size="14.00">&#45;0.10</text>
</g>
<!-- node1 -->
<g id="node2" class="node">
<title>node1</title>
<ellipse fill="lightblue" stroke="black" cx="18" cy="-24.74" rx="18" ry="18"/>
<text text-anchor="middle" x="18" y="-19.69" font-family="Times,serif" font-size="14.00">1</text>
</g>
<!-- node266 -->
<g id="node5" class="node">
<title>node266</title>
<ellipse fill="lightgray" stroke="black" cx="120.74" cy="-24.74" rx="24.74" ry="24.74"/>
<text text-anchor="middle" x="120.74" y="-19.69" font-family="Times,serif" font-size="14.00">266</text>
</g>
<!-- node1&#45;&gt;node266 -->
<g id="edge3" class="edge">
<title>node1&#45;&gt;node266</title>
<path fill="none" stroke="black" d="M36.09,-24.74C49.28,-24.74 67.98,-24.74 84.36,-24.74"/>
<polygon fill="black" stroke="black" points="84.24,-28.24 94.24,-24.74 84.24,-21.24 84.24,-28.24"/>
<text text-anchor="middle" x="66" y="-27.94" font-family="Times,serif" font-size="14.00">1.00</text>
</g>
<!-- node166 -->
<g id="node4" class="node">
<title>node166</title>
<ellipse fill="lightgray" stroke="black" cx="230.21" cy="-24.74" rx="24.74" ry="24.74"/>
<text text-anchor="middle" x="230.21" y="-19.69" font-family="Times,serif" font-size="14.00">166</text>
</g>
<!-- node166&#45;&gt;node138 -->
<g id="edge2" class="edge">
<title>node166&#45;&gt;node138</title>
<path fill="none" stroke="black" d="M254.41,-31.16C270.18,-35.52 291.3,-41.37 308.98,-46.27"/>
<polygon fill="black" stroke="black" points="307.99,-49.62 318.56,-48.92 309.85,-42.88 307.99,-49.62"/>
<text text-anchor="middle" x="287.2" y="-47.94" font-family="Times,serif" font-size="14.00">5.90</text>
</g>
<!-- node266&#45;&gt;node166 -->
<g id="edge4" class="edge">
<title>node266&#45;&gt;node166</title>
<path fill="none" stroke="black" d="M145.86,-24.74C159.96,-24.74 178.03,-24.74 193.73,-24.74"/>
<polygon fill="black" stroke="black" points="193.66,-28.24 203.66,-24.74 193.66,-21.24 193.66,-28.24"/>
<text text-anchor="middle" x="175.47" y="-27.94" font-family="Times,serif" font-size="14.00">0.03</text>
</g>
</g>
</svg>
