<?xml version="1.0" encoding="UTF-8" standalone="no"?>
<!DOCTYPE svg PUBLIC "-//W3C//DTD SVG 1.1//EN"
 "http://www.w3.org/Graphics/SVG/1.1/DTD/svg11.dtd">
<!-- Generated by graphviz version 9.0.0 (20230911.1827)
 -->
<!-- Title: neat Pages: 1 -->
<svg width="572pt" height="154pt"
 viewBox="0.00 0.00 571.53 153.81" xmlns="http://www.w3.org/2000/svg" xmlns:xlink="http://www.w3.org/1999/xlink">
<g id="graph0" class="graph" transform="scale(1 1) rotate(0) translate(4 149.81)">
<title>neat</title>
<polygon fill="white" stroke="none" points="-4,4 -4,-149.81 567.53,-149.81 567.53,4 -4,4"/>
<!-- node0 -->
<g id="node1" class="node">
<title>node0</title>
<ellipse fill="lightblue" stroke="black" cx="31.9" cy="-31.9" rx="31.9" ry="31.9"/>
<text text-anchor="middle" x="31.9" y="-26.85" font-family="Times,serif" font-size="14.00">0.000</text>
</g>
<!-- node1 -->
<g id="node2" class="node">
<title>node1</title>
<ellipse fill="lightblue" stroke="black" cx="31.9" cy="-113.9" rx="31.9" ry="31.9"/>
<text text-anchor="middle" x="31.9" y="-108.85" font-family="Times,serif" font-size="14.00">1.000</text>
</g>
<!-- node233 -->
<g id="node6" class="node">
<title>node233</title>
<ellipse fill="lightgray" stroke="black" cx="155.71" cy="-113.9" rx="31.9" ry="31.9"/>
<text text-anchor="middle" x="155.71" y="-108.85" font-family="Times,serif" font-size="14.00">0.993</text>
</g>
<!-- node1&#45;&gt;node233 -->
<g id="edge3" class="edge">
<title>node1&#45;&gt;node233</title>
<path fill="none" stroke="black" d="M64.27,-113.9C78.9,-113.9 96.54,-113.9 112.34,-113.9"/>
<polygon fill="black" stroke="black" points="111.93,-117.4 121.93,-113.9 111.93,-110.4 111.93,-117.4"/>
<text text-anchor="middle" x="93.81" y="-117.1" font-family="Times,serif" font-size="14.00">1.00</text>
</g>
<!-- node122 -->
<g id="node3" class="node">
<title>node122</title>
<ellipse fill="lightgreen" stroke="black" cx="531.62" cy="-113.9" rx="31.9" ry="31.9"/>
<text text-anchor="middle" x="531.62" y="-108.85" font-family="Times,serif" font-size="14.00">1.000</text>
</g>
<!-- node152 -->
<g id="node4" class="node">
<title>node152</title>
<ellipse fill="lightgray" stroke="black" cx="284.01" cy="-113.9" rx="31.9" ry="31.9"/>
<text text-anchor="middle" x="284.01" y="-108.85" font-family="Times,serif" font-size="14.00">0.500</text>
</g>
<!-- node201 -->
<g id="node5" class="node">
<title>node201</title>
<ellipse fill="lightgray" stroke="black" cx="407.82" cy="-113.9" rx="31.9" ry="31.9"/>
<text text-anchor="middle" x="407.82" y="-108.85" font-family="Times,serif" font-size="14.00">0.999</text>
</g>
<!-- node152&#45;&gt;node201 -->
<g id="edge1" class="edge">
<title>node152&#45;&gt;node201</title>
<path fill="none" stroke="black" d="M316.38,-113.9C331.02,-113.9 348.65,-113.9 364.45,-113.9"/>
<polygon fill="black" stroke="black" points="364.04,-117.4 374.04,-113.9 364.04,-110.4 364.04,-117.4"/>
<text text-anchor="middle" x="345.92" y="-117.1" font-family="Times,serif" font-size="14.00">2.94</text>
</g>
<!-- node201&#45;&gt;node122 -->
<g id="edge2" class="edge">
<title>node201&#45;&gt;node122</title>
<path fill="none" stroke="black" d="M440.19,-113.9C454.82,-113.9 472.46,-113.9 488.25,-113.9"/>
<polygon fill="black" stroke="black" points="487.85,-117.4 497.85,-113.9 487.85,-110.4 487.85,-117.4"/>
<text text-anchor="middle" x="469.72" y="-117.1" font-family="Times,serif" font-size="14.00">1.64</text>
</g>
<!-- node233&#45;&gt;node152 -->
<g id="edge4" class="edge">
<title>node233&#45;&gt;node152</title>
<path fill="none" stroke="black" d="M187.93,-113.9C203.72,-113.9 223.12,-113.9 240.27,-113.9"/>
<polygon fill="black" stroke="black" points="240.2,-117.4 250.2,-113.9 240.2,-110.4 240.2,-117.4"/>
<text text-anchor="middle" x="219.86" y="-117.1" font-family="Times,serif" font-size="14.00">&#45;2.46</text>
</g>
</g>
</svg>
