<?xml version="1.0" encoding="UTF-8" standalone="no"?>
<!DOCTYPE svg PUBLIC "-//W3C//DTD SVG 1.1//EN"
 "http://www.w3.org/Graphics/SVG/1.1/DTD/svg11.dtd">
<!-- Generated by graphviz version 9.0.0 (20230911.1827)
 -->
<!-- Title: neat Pages: 1 -->
<svg width="372pt" height="123pt"
 viewBox="0.00 0.00 372.42 123.45" xmlns="http://www.w3.org/2000/svg" xmlns:xlink="http://www.w3.org/1999/xlink">
<g id="graph0" class="graph" transform="scale(1 1) rotate(0) translate(4 119.45)">
<title>neat</title>
<polygon fill="white" stroke="none" points="-4,4 -4,-119.45 368.42,-119.45 368.42,4 -4,4"/>
<!-- node0 -->
<g id="node1" class="node">
<title>node0</title>
<ellipse fill="lightblue" stroke="black" cx="18" cy="-90.71" rx="18" ry="18"/>
<text text-anchor="middle" x="18" y="-85.66" font-family="Times,serif" font-size="14.00">0</text>
</g>
<!-- node233 -->
<g id="node5" class="node">
<title>node233</title>
<ellipse fill="lightgray" stroke="black" cx="120.74" cy="-90.71" rx="24.74" ry="24.74"/>
<text text-anchor="middle" x="120.74" y="-85.66" font-family="Times,serif" font-size="14.00">233</text>
</g>
<!-- node0&#45;&gt;node233 -->
<g id="edge4" class="edge">
<title>node0&#45;&gt;node233</title>
<path fill="none" stroke="black" d="M36.09,-90.71C49.28,-90.71 67.98,-90.71 84.36,-90.71"/>
<polygon fill="black" stroke="black" points="84.24,-94.21 94.24,-90.71 84.24,-87.21 84.24,-94.21"/>
<text text-anchor="middle" x="66" y="-93.91" font-family="Times,serif" font-size="14.00">1.00</text>
</g>
<!-- node1 -->
<g id="node2" class="node">
<title>node1</title>
<ellipse fill="lightblue" stroke="black" cx="120.74" cy="-23.71" rx="18" ry="18"/>
<text text-anchor="middle" x="120.74" y="-18.66" font-family="Times,serif" font-size="14.00">1</text>
</g>
<!-- node136 -->
<g id="node3" class="node">
<title>node136</title>
<ellipse fill="lightgreen" stroke="black" cx="339.69" cy="-54.71" rx="24.74" ry="24.74"/>
<text text-anchor="middle" x="339.69" y="-49.66" font-family="Times,serif" font-size="14.00">136</text>
</g>
<!-- node1&#45;&gt;node136 -->
<g id="edge1" class="edge">
<title>node1&#45;&gt;node136</title>
<path fill="none" stroke="black" d="M137.59,-17.22C162.83,-7.8 213.52,7.32 254.95,-4.21 275.13,-9.83 295.31,-21.76 310.8,-32.62"/>
<polygon fill="black" stroke="black" points="308.43,-35.22 318.58,-38.28 312.56,-29.56 308.43,-35.22"/>
<text text-anchor="middle" x="230.21" y="-6.91" font-family="Times,serif" font-size="14.00">4.34</text>
</g>
<!-- node171 -->
<g id="node4" class="node">
<title>node171</title>
<ellipse fill="lightgray" stroke="black" cx="230.21" cy="-54.71" rx="24.74" ry="24.74"/>
<text text-anchor="middle" x="230.21" y="-49.66" font-family="Times,serif" font-size="14.00">171</text>
</g>
<!-- node1&#45;&gt;node171 -->
<g id="edge3" class="edge">
<title>node1&#45;&gt;node171</title>
<path fill="none" stroke="black" d="M138.56,-27.93C151.88,-31.33 170.93,-36.34 187.47,-41.21 190.06,-41.97 192.74,-42.78 195.42,-43.61"/>
<polygon fill="black" stroke="black" points="194.28,-46.93 204.87,-46.61 196.4,-40.25 194.28,-46.93"/>
<text text-anchor="middle" x="175.47" y="-43.91" font-family="Times,serif" font-size="14.00">2.37</text>
</g>
<!-- node171&#45;&gt;node136 -->
<g id="edge2" class="edge">
<title>node171&#45;&gt;node136</title>
<path fill="none" stroke="black" d="M255.33,-54.71C269.44,-54.71 287.5,-54.71 303.2,-54.71"/>
<polygon fill="black" stroke="black" points="303.13,-58.21 313.13,-54.71 303.13,-51.21 303.13,-58.21"/>
<text text-anchor="middle" x="284.95" y="-57.91" font-family="Times,serif" font-size="14.00">4.43</text>
</g>
<!-- node233&#45;&gt;node136 -->
<g id="edge6" class="edge">
<title>node233&#45;&gt;node136</title>
<path fill="none" stroke="black" d="M145.51,-94.73C151.37,-95.55 157.63,-96.29 163.47,-96.71 174.11,-97.47 176.83,-97.34 187.47,-96.71 236.93,-93.79 251,-94.23 296.95,-75.71 300.34,-74.35 303.82,-72.81 307.26,-71.21"/>
<polygon fill="black" stroke="black" points="308.52,-74.49 315.98,-66.97 305.46,-68.2 308.52,-74.49"/>
<text text-anchor="middle" x="230.21" y="-97.91" font-family="Times,serif" font-size="14.00">1.30</text>
</g>
<!-- node233&#45;&gt;node171 -->
<g id="edge5" class="edge">
<title>node233&#45;&gt;node171</title>
<path fill="none" stroke="black" d="M144.53,-83.08C159.49,-78.07 179.31,-71.43 196.01,-65.83"/>
<polygon fill="black" stroke="black" points="196.65,-69.31 205.02,-62.82 194.42,-62.67 196.65,-69.31"/>
<text text-anchor="middle" x="175.47" y="-78.91" font-family="Times,serif" font-size="14.00">0.74</text>
</g>
</g>
</svg>
