<?xml version="1.0" encoding="UTF-8" standalone="no"?>
<!DOCTYPE svg PUBLIC "-//W3C//DTD SVG 1.1//EN"
 "http://www.w3.org/Graphics/SVG/1.1/DTD/svg11.dtd">
<!-- Generated by graphviz version 9.0.0 (20230911.1827)
 -->
<!-- Title: neat Pages: 1 -->
<svg width="267pt" height="137pt"
 viewBox="0.00 0.00 267.45 136.74" xmlns="http://www.w3.org/2000/svg" xmlns:xlink="http://www.w3.org/1999/xlink">
<g id="graph0" class="graph" transform="scale(1 1) rotate(0) translate(4 132.74)">
<title>neat</title>
<polygon fill="white" stroke="none" points="-4,4 -4,-132.74 263.45,-132.74 263.45,4 -4,4"/>
<!-- node0 -->
<g id="node1" class="node">
<title>node0</title>
<ellipse fill="lightblue" stroke="black" cx="18" cy="-56.74" rx="18" ry="18"/>
<text text-anchor="middle" x="18" y="-51.69" font-family="Times,serif" font-size="14.00">0</text>
</g>
<!-- node91 -->
<g id="node3" class="node">
<title>node91</title>
<ellipse fill="lightgreen" stroke="black" cx="120.74" cy="-87.74" rx="20.13" ry="20.13"/>
<text text-anchor="middle" x="120.74" y="-82.69" font-family="Times,serif" font-size="14.00">91</text>
</g>
<!-- node0&#45;&gt;node91 -->
<g id="edge3" class="edge">
<title>node0&#45;&gt;node91</title>
<path fill="none" stroke="black" d="M35.63,-61.86C50.4,-66.4 72.31,-73.14 90.07,-78.61"/>
<polygon fill="black" stroke="black" points="88.99,-81.94 99.58,-81.53 91.05,-75.25 88.99,-81.94"/>
<text text-anchor="middle" x="66" y="-76.94" font-family="Times,serif" font-size="14.00">0.20</text>
</g>
<!-- node165 -->
<g id="node4" class="node">
<title>node165</title>
<ellipse fill="lightgray" stroke="black" cx="120.74" cy="-24.74" rx="24.74" ry="24.74"/>
<text text-anchor="middle" x="120.74" y="-19.69" font-family="Times,serif" font-size="14.00">165</text>
</g>
<!-- node0&#45;&gt;node165 -->
<g id="edge1" class="edge">
<title>node0&#45;&gt;node165</title>
<path fill="none" stroke="black" d="M35.63,-51.45C49.3,-47.11 69.08,-40.83 86.03,-35.44"/>
<polygon fill="black" stroke="black" points="86.76,-38.89 95.23,-32.52 84.64,-32.22 86.76,-38.89"/>
<text text-anchor="middle" x="66" y="-48.94" font-family="Times,serif" font-size="14.00">1.94</text>
</g>
<!-- node1 -->
<g id="node2" class="node">
<title>node1</title>
<ellipse fill="lightblue" stroke="black" cx="18" cy="-110.74" rx="18" ry="18"/>
<text text-anchor="middle" x="18" y="-105.69" font-family="Times,serif" font-size="14.00">1</text>
</g>
<!-- node190 -->
<g id="node5" class="node">
<title>node190</title>
<ellipse fill="lightgray" stroke="black" cx="234.71" cy="-24.74" rx="24.74" ry="24.74"/>
<text text-anchor="middle" x="234.71" y="-19.69" font-family="Times,serif" font-size="14.00">190</text>
</g>
<!-- node165&#45;&gt;node190 -->
<g id="edge2" class="edge">
<title>node165&#45;&gt;node190</title>
<path fill="none" stroke="black" d="M145.76,-24.74C161.11,-24.74 181.28,-24.74 198.43,-24.74"/>
<polygon fill="black" stroke="black" points="198.22,-28.24 208.22,-24.74 198.22,-21.24 198.22,-28.24"/>
<text text-anchor="middle" x="177.72" y="-27.94" font-family="Times,serif" font-size="14.00">&#45;1.15</text>
</g>
</g>
</svg>
