<?xml version="1.0" encoding="UTF-8" standalone="no"?>
<!DOCTYPE svg PUBLIC "-//W3C//DTD SVG 1.1//EN"
 "http://www.w3.org/Graphics/SVG/1.1/DTD/svg11.dtd">
<!-- Generated by graphviz version 9.0.0 (20230911.1827)
 -->
<!-- Title: neat Pages: 1 -->
<svg width="158pt" height="176pt"
 viewBox="0.00 0.00 157.74 175.87" xmlns="http://www.w3.org/2000/svg" xmlns:xlink="http://www.w3.org/1999/xlink">
<g id="graph0" class="graph" transform="scale(1 1) rotate(0) translate(4 171.87)">
<title>neat</title>
<polygon fill="white" stroke="none" points="-4,4 -4,-171.87 153.74,-171.87 153.74,4 -4,4"/>
<!-- node0 -->
<g id="node1" class="node">
<title>node0</title>
<ellipse fill="lightblue" stroke="black" cx="20.13" cy="-24.74" rx="18" ry="18"/>
<text text-anchor="middle" x="20.13" y="-19.69" font-family="Times,serif" font-size="14.00">0</text>
</g>
<!-- node213 -->
<g id="node5" class="node">
<title>node213</title>
<ellipse fill="lightgray" stroke="black" cx="125" cy="-24.74" rx="24.74" ry="24.74"/>
<text text-anchor="middle" x="125" y="-19.69" font-family="Times,serif" font-size="14.00">213</text>
</g>
<!-- node0&#45;&gt;node213 -->
<g id="edge1" class="edge">
<title>node0&#45;&gt;node213</title>
<path fill="none" stroke="black" d="M38.58,-24.74C52.27,-24.74 71.78,-24.74 88.7,-24.74"/>
<polygon fill="black" stroke="black" points="88.38,-28.24 98.38,-24.74 88.38,-21.24 88.38,-28.24"/>
<text text-anchor="middle" x="70.26" y="-27.94" font-family="Times,serif" font-size="14.00">1.00</text>
</g>
<!-- node1 -->
<g id="node2" class="node">
<title>node1</title>
<ellipse fill="lightblue" stroke="black" cx="20.13" cy="-91.74" rx="18" ry="18"/>
<text text-anchor="middle" x="20.13" y="-86.69" font-family="Times,serif" font-size="14.00">1</text>
</g>
<!-- node163 -->
<g id="node4" class="node">
<title>node163</title>
<ellipse fill="lightgray" stroke="black" cx="125" cy="-91.74" rx="24.74" ry="24.74"/>
<text text-anchor="middle" x="125" y="-86.69" font-family="Times,serif" font-size="14.00">163</text>
</g>
<!-- node1&#45;&gt;node163 -->
<g id="edge2" class="edge">
<title>node1&#45;&gt;node163</title>
<path fill="none" stroke="black" d="M38.58,-91.74C52.27,-91.74 71.78,-91.74 88.7,-91.74"/>
<polygon fill="black" stroke="black" points="88.38,-95.24 98.38,-91.74 88.38,-88.24 88.38,-95.24"/>
<text text-anchor="middle" x="70.26" y="-94.94" font-family="Times,serif" font-size="14.00">0.63</text>
</g>
<!-- node45 -->
<g id="node3" class="node">
<title>node45</title>
<ellipse fill="lightgreen" stroke="black" cx="20.13" cy="-147.74" rx="20.13" ry="20.13"/>
<text text-anchor="middle" x="20.13" y="-142.69" font-family="Times,serif" font-size="14.00">45</text>
</g>
</g>
</svg>
