<?xml version="1.0" encoding="UTF-8" standalone="no"?>
<!DOCTYPE svg PUBLIC "-//W3C//DTD SVG 1.1//EN"
 "http://www.w3.org/Graphics/SVG/1.1/DTD/svg11.dtd">
<!-- Generated by graphviz version 9.0.0 (20230911.1827)
 -->
<!-- Title: neat Pages: 1 -->
<svg width="167pt" height="179pt"
 viewBox="0.00 0.00 166.95 178.74" xmlns="http://www.w3.org/2000/svg" xmlns:xlink="http://www.w3.org/1999/xlink">
<g id="graph0" class="graph" transform="scale(1 1) rotate(0) translate(4 174.74)">
<title>neat</title>
<polygon fill="white" stroke="none" points="-4,4 -4,-174.74 162.95,-174.74 162.95,4 -4,4"/>
<!-- node0 -->
<g id="node1" class="node">
<title>node0</title>
<ellipse fill="lightblue" stroke="black" cx="24.74" cy="-85" rx="18" ry="18"/>
<text text-anchor="middle" x="24.74" y="-79.95" font-family="Times,serif" font-size="14.00">0</text>
</g>
<!-- node159 -->
<g id="node4" class="node">
<title>node159</title>
<ellipse fill="lightgray" stroke="black" cx="134.21" cy="-25" rx="24.74" ry="24.74"/>
<text text-anchor="middle" x="134.21" y="-19.95" font-family="Times,serif" font-size="14.00">159</text>
</g>
<!-- node0&#45;&gt;node159 -->
<g id="edge3" class="edge">
<title>node0&#45;&gt;node159</title>
<path fill="none" stroke="black" d="M40.68,-76.66C56.5,-67.83 81.91,-53.64 102.11,-42.36"/>
<polygon fill="black" stroke="black" points="103.77,-45.45 110.79,-37.52 100.36,-39.33 103.77,-45.45"/>
<text text-anchor="middle" x="79.47" y="-63.2" font-family="Times,serif" font-size="14.00">1.12</text>
</g>
<!-- node282 -->
<g id="node5" class="node">
<title>node282</title>
<ellipse fill="lightgray" stroke="black" cx="134.21" cy="-98" rx="24.74" ry="24.74"/>
<text text-anchor="middle" x="134.21" y="-92.95" font-family="Times,serif" font-size="14.00">282</text>
</g>
<!-- node0&#45;&gt;node282 -->
<g id="edge2" class="edge">
<title>node0&#45;&gt;node282</title>
<path fill="none" stroke="black" d="M43.01,-87.09C57.77,-88.88 79.5,-91.5 97.94,-93.73"/>
<polygon fill="black" stroke="black" points="97.33,-97.18 107.68,-94.91 98.17,-90.24 97.33,-97.18"/>
<text text-anchor="middle" x="79.47" y="-95.2" font-family="Times,serif" font-size="14.00">1.00</text>
</g>
<!-- node1 -->
<g id="node2" class="node">
<title>node1</title>
<ellipse fill="lightblue" stroke="black" cx="24.74" cy="-18" rx="18" ry="18"/>
<text text-anchor="middle" x="24.74" y="-12.95" font-family="Times,serif" font-size="14.00">1</text>
</g>
<!-- node1&#45;&gt;node159 -->
<g id="edge1" class="edge">
<title>node1&#45;&gt;node159</title>
<path fill="none" stroke="black" d="M43.06,-17.88C56.33,-17.92 75.08,-18.24 91.47,-19.5 93.66,-19.67 95.91,-19.87 98.17,-20.1"/>
<polygon fill="black" stroke="black" points="97.58,-23.56 107.92,-21.24 98.39,-16.6 97.58,-23.56"/>
<text text-anchor="middle" x="79.47" y="-23.2" font-family="Times,serif" font-size="14.00">2.82</text>
</g>
<!-- node141 -->
<g id="node3" class="node">
<title>node141</title>
<ellipse fill="lightgreen" stroke="black" cx="24.74" cy="-146" rx="24.74" ry="24.74"/>
<text text-anchor="middle" x="24.74" y="-140.95" font-family="Times,serif" font-size="14.00">141</text>
</g>
</g>
</svg>
