<?xml version="1.0" encoding="UTF-8" standalone="no"?>
<!DOCTYPE svg PUBLIC "-//W3C//DTD SVG 1.1//EN"
 "http://www.w3.org/Graphics/SVG/1.1/DTD/svg11.dtd">
<!-- Generated by graphviz version 9.0.0 (20230911.1827)
 -->
<!-- Title: neat Pages: 1 -->
<svg width="254pt" height="112pt"
 viewBox="0.00 0.00 253.74 111.74" xmlns="http://www.w3.org/2000/svg" xmlns:xlink="http://www.w3.org/1999/xlink">
<g id="graph0" class="graph" transform="scale(1 1) rotate(0) translate(4 107.74)">
<title>neat</title>
<polygon fill="white" stroke="none" points="-4,4 -4,-107.74 249.74,-107.74 249.74,4 -4,4"/>
<!-- node0 -->
<g id="node1" class="node">
<title>node0</title>
<ellipse fill="lightblue" stroke="black" cx="18" cy="-79" rx="18" ry="18"/>
<text text-anchor="middle" x="18" y="-73.95" font-family="Times,serif" font-size="14.00">0</text>
</g>
<!-- node152 -->
<g id="node4" class="node">
<title>node152</title>
<ellipse fill="lightgray" stroke="black" cx="120.74" cy="-79" rx="24.74" ry="24.74"/>
<text text-anchor="middle" x="120.74" y="-73.95" font-family="Times,serif" font-size="14.00">152</text>
</g>
<!-- node0&#45;&gt;node152 -->
<g id="edge2" class="edge">
<title>node0&#45;&gt;node152</title>
<path fill="none" stroke="black" d="M36.09,-79C49.28,-79 67.98,-79 84.36,-79"/>
<polygon fill="black" stroke="black" points="84.24,-82.5 94.24,-79 84.24,-75.5 84.24,-82.5"/>
<text text-anchor="middle" x="66" y="-82.2" font-family="Times,serif" font-size="14.00">1.74</text>
</g>
<!-- node1 -->
<g id="node2" class="node">
<title>node1</title>
<ellipse fill="lightblue" stroke="black" cx="120.74" cy="-18" rx="18" ry="18"/>
<text text-anchor="middle" x="120.74" y="-12.95" font-family="Times,serif" font-size="14.00">1</text>
</g>
<!-- node81 -->
<g id="node3" class="node">
<title>node81</title>
<ellipse fill="lightgreen" stroke="black" cx="225.61" cy="-38" rx="20.13" ry="20.13"/>
<text text-anchor="middle" x="225.61" y="-32.95" font-family="Times,serif" font-size="14.00">81</text>
</g>
<!-- node1&#45;&gt;node81 -->
<g id="edge1" class="edge">
<title>node1&#45;&gt;node81</title>
<path fill="none" stroke="black" d="M138.81,-20.74C152.1,-22.93 171.01,-26.18 187.47,-29.5 189.8,-29.97 192.21,-30.48 194.63,-31"/>
<polygon fill="black" stroke="black" points="193.76,-34.39 204.28,-33.16 195.28,-27.56 193.76,-34.39"/>
<text text-anchor="middle" x="175.47" y="-33.2" font-family="Times,serif" font-size="14.00">1.54</text>
</g>
<!-- node152&#45;&gt;node81 -->
<g id="edge3" class="edge">
<title>node152&#45;&gt;node81</title>
<path fill="none" stroke="black" d="M144.31,-70C159.5,-63.95 179.64,-55.92 195.96,-49.42"/>
<polygon fill="black" stroke="black" points="197.13,-52.72 205.13,-45.76 194.54,-46.22 197.13,-52.72"/>
<text text-anchor="middle" x="175.47" y="-65.2" font-family="Times,serif" font-size="14.00">1.36</text>
</g>
</g>
</svg>
