<?xml version="1.0" encoding="UTF-8" standalone="no"?>
<!DOCTYPE svg PUBLIC "-//W3C//DTD SVG 1.1//EN"
 "http://www.w3.org/Graphics/SVG/1.1/DTD/svg11.dtd">
<!-- Generated by graphviz version 9.0.0 (20230911.1827)
 -->
<!-- Title: neat Pages: 1 -->
<svg width="328pt" height="190pt"
 viewBox="0.00 0.00 328.42 189.81" xmlns="http://www.w3.org/2000/svg" xmlns:xlink="http://www.w3.org/1999/xlink">
<g id="graph0" class="graph" transform="scale(1 1) rotate(0) translate(4 185.81)">
<title>neat</title>
<polygon fill="white" stroke="none" points="-4,4 -4,-185.81 324.42,-185.81 324.42,4 -4,4"/>
<!-- node0 -->
<g id="node1" class="node">
<title>node0</title>
<ellipse fill="lightblue" stroke="black" cx="31.9" cy="-48.9" rx="31.9" ry="31.9"/>
<text text-anchor="middle" x="31.9" y="-43.85" font-family="Times,serif" font-size="14.00">0.000</text>
</g>
<!-- node197 -->
<g id="node4" class="node">
<title>node197</title>
<ellipse fill="lightgray" stroke="black" cx="160.21" cy="-113.9" rx="31.9" ry="31.9"/>
<text text-anchor="middle" x="160.21" y="-108.85" font-family="Times,serif" font-size="14.00">0.136</text>
</g>
<!-- node0&#45;&gt;node197 -->
<g id="edge1" class="edge">
<title>node0&#45;&gt;node197</title>
<path fill="none" stroke="black" d="M63.49,-54.58C78.23,-58.1 95.81,-63.5 110.31,-71.4 116.66,-74.87 122.9,-79.27 128.7,-83.93"/>
<polygon fill="black" stroke="black" points="126.35,-86.53 136.23,-90.37 130.9,-81.21 126.35,-86.53"/>
<text text-anchor="middle" x="96.06" y="-75.1" font-family="Times,serif" font-size="14.00">&#45;1.89</text>
</g>
<!-- node221 -->
<g id="node5" class="node">
<title>node221</title>
<ellipse fill="lightgray" stroke="black" cx="160.21" cy="-31.9" rx="31.9" ry="31.9"/>
<text text-anchor="middle" x="160.21" y="-26.85" font-family="Times,serif" font-size="14.00">0.993</text>
</g>
<!-- node0&#45;&gt;node221 -->
<g id="edge4" class="edge">
<title>node0&#45;&gt;node221</title>
<path fill="none" stroke="black" d="M61.68,-36.76C68.19,-34.54 75.14,-32.56 81.81,-31.4 93.01,-29.46 105.26,-28.85 116.65,-28.92"/>
<polygon fill="black" stroke="black" points="116.52,-32.41 126.6,-29.16 116.69,-25.42 116.52,-32.41"/>
<text text-anchor="middle" x="96.06" y="-35.1" font-family="Times,serif" font-size="14.00">1.04</text>
</g>
<!-- node1 -->
<g id="node2" class="node">
<title>node1</title>
<ellipse fill="lightblue" stroke="black" cx="31.9" cy="-149.9" rx="31.9" ry="31.9"/>
<text text-anchor="middle" x="31.9" y="-144.85" font-family="Times,serif" font-size="14.00">1.000</text>
</g>
<!-- node45 -->
<g id="node3" class="node">
<title>node45</title>
<ellipse fill="lightgreen" stroke="black" cx="288.51" cy="-113.9" rx="31.9" ry="31.9"/>
<text text-anchor="middle" x="288.51" y="-108.85" font-family="Times,serif" font-size="14.00">1.000</text>
</g>
<!-- node1&#45;&gt;node45 -->
<g id="edge7" class="edge">
<title>node1&#45;&gt;node45</title>
<path fill="none" stroke="black" d="M63.81,-155.19C96.17,-159.73 148.29,-164.2 192.11,-154.9 211.97,-150.69 232.82,-142.25 249.95,-134.11"/>
<polygon fill="black" stroke="black" points="251.3,-137.35 258.73,-129.8 248.21,-131.07 251.3,-137.35"/>
<text text-anchor="middle" x="160.21" y="-163.1" font-family="Times,serif" font-size="14.00">0.72</text>
</g>
<!-- node1&#45;&gt;node197 -->
<g id="edge3" class="edge">
<title>node1&#45;&gt;node197</title>
<path fill="none" stroke="black" d="M63.05,-141.35C77.37,-137.28 94.72,-132.35 110.31,-127.9 112.88,-127.17 115.54,-126.41 118.22,-125.64"/>
<polygon fill="black" stroke="black" points="119.1,-129.03 127.76,-122.92 117.18,-122.3 119.1,-129.03"/>
<text text-anchor="middle" x="96.06" y="-138.1" font-family="Times,serif" font-size="14.00">&#45;0.38</text>
</g>
<!-- node1&#45;&gt;node221 -->
<g id="edge6" class="edge">
<title>node1&#45;&gt;node221</title>
<path fill="none" stroke="black" d="M55.82,-129.02C63.87,-121.95 73.08,-114.14 81.81,-107.4 93.95,-98.02 98.83,-98.1 110.31,-87.9 118.03,-81.04 125.7,-72.99 132.6,-65.17"/>
<polygon fill="black" stroke="black" points="134.91,-67.86 138.77,-58 129.6,-63.3 134.91,-67.86"/>
<text text-anchor="middle" x="96.06" y="-111.1" font-family="Times,serif" font-size="14.00">1.01</text>
</g>
<!-- node197&#45;&gt;node45 -->
<g id="edge2" class="edge">
<title>node197&#45;&gt;node45</title>
<path fill="none" stroke="black" d="M192.43,-113.9C208.22,-113.9 227.62,-113.9 244.77,-113.9"/>
<polygon fill="black" stroke="black" points="244.7,-117.4 254.7,-113.9 244.7,-110.4 244.7,-117.4"/>
<text text-anchor="middle" x="224.36" y="-117.1" font-family="Times,serif" font-size="14.00">&#45;0.76</text>
</g>
<!-- node221&#45;&gt;node45 -->
<g id="edge5" class="edge">
<title>node221&#45;&gt;node45</title>
<path fill="none" stroke="black" d="M187.38,-48.89C206.01,-60.99 231.27,-77.39 251.75,-90.69"/>
<polygon fill="black" stroke="black" points="249.81,-93.6 260.11,-96.11 253.63,-87.73 249.81,-93.6"/>
<text text-anchor="middle" x="224.36" y="-84.1" font-family="Times,serif" font-size="14.00">1.48</text>
</g>
</g>
</svg>
