<?xml version="1.0" encoding="UTF-8" standalone="no"?>
<!DOCTYPE svg PUBLIC "-//W3C//DTD SVG 1.1//EN"
 "http://www.w3.org/Graphics/SVG/1.1/DTD/svg11.dtd">
<!-- Generated by graphviz version 9.0.0 (20230911.1827)
 -->
<!-- Title: neat Pages: 1 -->
<svg width="144pt" height="98pt"
 viewBox="0.00 0.00 144.26 98.00" xmlns="http://www.w3.org/2000/svg" xmlns:xlink="http://www.w3.org/1999/xlink">
<g id="graph0" class="graph" transform="scale(1 1) rotate(0) translate(4 94)">
<title>neat</title>
<polygon fill="white" stroke="none" points="-4,4 -4,-94 140.26,-94 140.26,4 -4,4"/>
<!-- node0 -->
<g id="node1" class="node">
<title>node0</title>
<ellipse fill="lightblue" stroke="black" cx="18" cy="-72" rx="18" ry="18"/>
<text text-anchor="middle" x="18" y="-66.95" font-family="Times,serif" font-size="14.00">0</text>
</g>
<!-- node21 -->
<g id="node3" class="node">
<title>node21</title>
<ellipse fill="lightgreen" stroke="black" cx="116.13" cy="-45" rx="20.13" ry="20.13"/>
<text text-anchor="middle" x="116.13" y="-39.95" font-family="Times,serif" font-size="14.00">21</text>
</g>
<!-- node0&#45;&gt;node21 -->
<g id="edge1" class="edge">
<title>node0&#45;&gt;node21</title>
<path fill="none" stroke="black" d="M35.74,-67.3C49.47,-63.44 69.23,-57.89 85.6,-53.29"/>
<polygon fill="black" stroke="black" points="86.14,-56.78 94.82,-50.71 84.24,-50.04 86.14,-56.78"/>
<text text-anchor="middle" x="66" y="-64.2" font-family="Times,serif" font-size="14.00">1.90</text>
</g>
<!-- node1 -->
<g id="node2" class="node">
<title>node1</title>
<ellipse fill="lightblue" stroke="black" cx="18" cy="-18" rx="18" ry="18"/>
<text text-anchor="middle" x="18" y="-12.95" font-family="Times,serif" font-size="14.00">1</text>
</g>
<!-- node1&#45;&gt;node21 -->
<g id="edge2" class="edge">
<title>node1&#45;&gt;node21</title>
<path fill="none" stroke="black" d="M35.74,-22.7C49.47,-26.56 69.23,-32.11 85.6,-36.71"/>
<polygon fill="black" stroke="black" points="84.24,-39.96 94.82,-39.29 86.14,-33.22 84.24,-39.96"/>
<text text-anchor="middle" x="66" y="-37.2" font-family="Times,serif" font-size="14.00">1.77</text>
</g>
</g>
</svg>
