<?xml version="1.0" encoding="UTF-8" standalone="no"?>
<!DOCTYPE svg PUBLIC "-//W3C//DTD SVG 1.1//EN"
 "http://www.w3.org/Graphics/SVG/1.1/DTD/svg11.dtd">
<!-- Generated by graphviz version 9.0.0 (20230911.1827)
 -->
<!-- Title: neat Pages: 1 -->
<svg width="263pt" height="154pt"
 viewBox="0.00 0.00 262.74 154.22" xmlns="http://www.w3.org/2000/svg" xmlns:xlink="http://www.w3.org/1999/xlink">
<g id="graph0" class="graph" transform="scale(1 1) rotate(0) translate(4 150.22)">
<title>neat</title>
<polygon fill="white" stroke="none" points="-4,4 -4,-150.22 258.74,-150.22 258.74,4 -4,4"/>
<!-- node0 -->
<g id="node1" class="node">
<title>node0</title>
<ellipse fill="lightblue" stroke="black" cx="18" cy="-87.49" rx="18" ry="18"/>
<text text-anchor="middle" x="18" y="-82.44" font-family="Times,serif" font-size="14.00">0</text>
</g>
<!-- node163 -->
<g id="node4" class="node">
<title>node163</title>
<ellipse fill="lightgray" stroke="black" cx="125.24" cy="-121.49" rx="24.74" ry="24.74"/>
<text text-anchor="middle" x="125.24" y="-116.44" font-family="Times,serif" font-size="14.00">163</text>
</g>
<!-- node0&#45;&gt;node163 -->
<g id="edge2" class="edge">
<title>node0&#45;&gt;node163</title>
<path fill="none" stroke="black" d="M35.44,-92.8C50.09,-97.53 71.99,-104.61 90.38,-110.55"/>
<polygon fill="black" stroke="black" points="89.24,-113.86 99.83,-113.6 91.39,-107.2 89.24,-113.86"/>
<text text-anchor="middle" x="68.25" y="-110.69" font-family="Times,serif" font-size="14.00">2.69</text>
</g>
<!-- node206 -->
<g id="node5" class="node">
<title>node206</title>
<ellipse fill="lightgray" stroke="black" cx="125.24" cy="-54.49" rx="24.74" ry="24.74"/>
<text text-anchor="middle" x="125.24" y="-49.44" font-family="Times,serif" font-size="14.00">206</text>
</g>
<!-- node0&#45;&gt;node206 -->
<g id="edge4" class="edge">
<title>node0&#45;&gt;node206</title>
<path fill="none" stroke="black" d="M35.44,-82.33C50.09,-77.74 71.99,-70.87 90.38,-65.11"/>
<polygon fill="black" stroke="black" points="91.33,-68.47 99.83,-62.14 89.24,-61.79 91.33,-68.47"/>
<text text-anchor="middle" x="68.25" y="-78.69" font-family="Times,serif" font-size="14.00">2.43</text>
</g>
<!-- node1 -->
<g id="node2" class="node">
<title>node1</title>
<ellipse fill="lightblue" stroke="black" cx="18" cy="-24.49" rx="18" ry="18"/>
<text text-anchor="middle" x="18" y="-19.44" font-family="Times,serif" font-size="14.00">1</text>
</g>
<!-- node43 -->
<g id="node3" class="node">
<title>node43</title>
<ellipse fill="lightgreen" stroke="black" cx="234.61" cy="-54.49" rx="20.13" ry="20.13"/>
<text text-anchor="middle" x="234.61" y="-49.44" font-family="Times,serif" font-size="14.00">43</text>
</g>
<!-- node1&#45;&gt;node43 -->
<g id="edge1" class="edge">
<title>node1&#45;&gt;node43</title>
<path fill="none" stroke="black" d="M34.98,-17.68C59.91,-8.02 109.4,7.31 149.97,-3.99 171.76,-10.05 193.54,-23.5 209.41,-34.99"/>
<polygon fill="black" stroke="black" points="207.17,-37.69 217.26,-40.9 211.37,-32.09 207.17,-37.69"/>
<text text-anchor="middle" x="125.24" y="-6.69" font-family="Times,serif" font-size="14.00">2.04</text>
</g>
<!-- node1&#45;&gt;node206 -->
<g id="edge6" class="edge">
<title>node1&#45;&gt;node206</title>
<path fill="none" stroke="black" d="M36.14,-27.77C49.01,-30.38 67,-34.36 82.5,-38.99 85.39,-39.85 88.36,-40.81 91.33,-41.81"/>
<polygon fill="black" stroke="black" points="89.87,-45.01 100.47,-45.07 92.22,-38.41 89.87,-45.01"/>
<text text-anchor="middle" x="68.25" y="-41.69" font-family="Times,serif" font-size="14.00">&#45;1.67</text>
</g>
<!-- node163&#45;&gt;node43 -->
<g id="edge3" class="edge">
<title>node163&#45;&gt;node43</title>
<path fill="none" stroke="black" d="M146.69,-108.73C163.93,-97.96 188.73,-82.49 207.43,-70.82"/>
<polygon fill="black" stroke="black" points="209.19,-73.85 215.82,-65.59 205.48,-67.91 209.19,-73.85"/>
<text text-anchor="middle" x="182.22" y="-96.69" font-family="Times,serif" font-size="14.00">&#45;1.58</text>
</g>
<!-- node206&#45;&gt;node43 -->
<g id="edge5" class="edge">
<title>node206&#45;&gt;node43</title>
<path fill="none" stroke="black" d="M150.33,-54.49C165.86,-54.49 186.18,-54.49 202.86,-54.49"/>
<polygon fill="black" stroke="black" points="202.73,-57.99 212.73,-54.49 202.73,-50.99 202.73,-57.99"/>
<text text-anchor="middle" x="182.22" y="-57.69" font-family="Times,serif" font-size="14.00">&#45;1.33</text>
</g>
</g>
</svg>
