<?xml version="1.0" encoding="UTF-8" standalone="no"?>
<!DOCTYPE svg PUBLIC "-//W3C//DTD SVG 1.1//EN"
 "http://www.w3.org/Graphics/SVG/1.1/DTD/svg11.dtd">
<!-- Generated by graphviz version 9.0.0 (20230911.1827)
 -->
<!-- Title: neat Pages: 1 -->
<svg width="258pt" height="154pt"
 viewBox="0.00 0.00 258.24 154.06" xmlns="http://www.w3.org/2000/svg" xmlns:xlink="http://www.w3.org/1999/xlink">
<g id="graph0" class="graph" transform="scale(1 1) rotate(0) translate(4 150.06)">
<title>neat</title>
<polygon fill="white" stroke="none" points="-4,4 -4,-150.06 254.24,-150.06 254.24,4 -4,4"/>
<!-- node0 -->
<g id="node1" class="node">
<title>node0</title>
<ellipse fill="lightblue" stroke="black" cx="18" cy="-87.32" rx="18" ry="18"/>
<text text-anchor="middle" x="18" y="-82.27" font-family="Times,serif" font-size="14.00">0</text>
</g>
<!-- node217 -->
<g id="node4" class="node">
<title>node217</title>
<ellipse fill="lightgray" stroke="black" cx="120.74" cy="-54.32" rx="24.74" ry="24.74"/>
<text text-anchor="middle" x="120.74" y="-49.27" font-family="Times,serif" font-size="14.00">217</text>
</g>
<!-- node0&#45;&gt;node217 -->
<g id="edge2" class="edge">
<title>node0&#45;&gt;node217</title>
<path fill="none" stroke="black" d="M35.63,-81.87C49.3,-77.39 69.08,-70.91 86.03,-65.36"/>
<polygon fill="black" stroke="black" points="86.82,-68.78 95.23,-62.35 84.64,-62.13 86.82,-68.78"/>
<text text-anchor="middle" x="66" y="-79.52" font-family="Times,serif" font-size="14.00">1.00</text>
</g>
<!-- node254 -->
<g id="node5" class="node">
<title>node254</title>
<ellipse fill="lightgray" stroke="black" cx="120.74" cy="-121.32" rx="24.74" ry="24.74"/>
<text text-anchor="middle" x="120.74" y="-116.27" font-family="Times,serif" font-size="14.00">254</text>
</g>
<!-- node0&#45;&gt;node254 -->
<g id="edge4" class="edge">
<title>node0&#45;&gt;node254</title>
<path fill="none" stroke="black" d="M35.19,-92.78C48.87,-97.4 68.94,-104.17 86.08,-109.96"/>
<polygon fill="black" stroke="black" points="84.81,-113.22 95.4,-113.1 87.05,-106.59 84.81,-113.22"/>
<text text-anchor="middle" x="66" y="-109.52" font-family="Times,serif" font-size="14.00">1.00</text>
</g>
<!-- node1 -->
<g id="node2" class="node">
<title>node1</title>
<ellipse fill="lightblue" stroke="black" cx="18" cy="-24.32" rx="18" ry="18"/>
<text text-anchor="middle" x="18" y="-19.27" font-family="Times,serif" font-size="14.00">1</text>
</g>
<!-- node86 -->
<g id="node3" class="node">
<title>node86</title>
<ellipse fill="lightgreen" stroke="black" cx="230.11" cy="-54.32" rx="20.13" ry="20.13"/>
<text text-anchor="middle" x="230.11" y="-49.27" font-family="Times,serif" font-size="14.00">86</text>
</g>
<!-- node1&#45;&gt;node86 -->
<g id="edge1" class="edge">
<title>node1&#45;&gt;node86</title>
<path fill="none" stroke="black" d="M34.82,-17.45C59,-7.9 106.47,7.04 145.47,-3.82 167.26,-9.89 189.04,-23.33 204.91,-34.82"/>
<polygon fill="black" stroke="black" points="202.67,-37.52 212.76,-40.73 206.87,-31.92 202.67,-37.52"/>
<text text-anchor="middle" x="120.74" y="-7.52" font-family="Times,serif" font-size="14.00">4.05</text>
</g>
<!-- node1&#45;&gt;node217 -->
<g id="edge6" class="edge">
<title>node1&#45;&gt;node217</title>
<path fill="none" stroke="black" d="M35.92,-27.94C47.8,-30.6 63.99,-34.51 78,-38.82 80.88,-39.7 83.85,-40.68 86.81,-41.69"/>
<polygon fill="black" stroke="black" points="85.35,-44.89 95.95,-44.96 87.71,-38.3 85.35,-44.89"/>
<text text-anchor="middle" x="66" y="-42.52" font-family="Times,serif" font-size="14.00">0.83</text>
</g>
<!-- node217&#45;&gt;node86 -->
<g id="edge3" class="edge">
<title>node217&#45;&gt;node86</title>
<path fill="none" stroke="black" d="M145.83,-54.32C161.36,-54.32 181.68,-54.32 198.36,-54.32"/>
<polygon fill="black" stroke="black" points="198.23,-57.82 208.23,-54.32 198.23,-50.82 198.23,-57.82"/>
<text text-anchor="middle" x="177.72" y="-57.52" font-family="Times,serif" font-size="14.00">&#45;1.47</text>
</g>
<!-- node254&#45;&gt;node86 -->
<g id="edge5" class="edge">
<title>node254&#45;&gt;node86</title>
<path fill="none" stroke="black" d="M142.19,-108.56C159.43,-97.79 184.23,-82.32 202.93,-70.65"/>
<polygon fill="black" stroke="black" points="204.69,-73.68 211.32,-65.42 200.98,-67.74 204.69,-73.68"/>
<text text-anchor="middle" x="177.72" y="-96.52" font-family="Times,serif" font-size="14.00">&#45;3.33</text>
</g>
</g>
</svg>
