<?xml version="1.0" encoding="UTF-8" standalone="no"?>
<!DOCTYPE svg PUBLIC "-//W3C//DTD SVG 1.1//EN"
 "http://www.w3.org/Graphics/SVG/1.1/DTD/svg11.dtd">
<!-- Generated by graphviz version 9.0.0 (20230911.1827)
 -->
<!-- Title: neat Pages: 1 -->
<svg width="263pt" height="107pt"
 viewBox="0.00 0.00 262.74 107.00" xmlns="http://www.w3.org/2000/svg" xmlns:xlink="http://www.w3.org/1999/xlink">
<g id="graph0" class="graph" transform="scale(1 1) rotate(0) translate(4 103)">
<title>neat</title>
<polygon fill="white" stroke="none" points="-4,4 -4,-103 258.74,-103 258.74,4 -4,4"/>
<!-- node0 -->
<g id="node1" class="node">
<title>node0</title>
<ellipse fill="lightblue" stroke="black" cx="18" cy="-81" rx="18" ry="18"/>
<text text-anchor="middle" x="18" y="-75.95" font-family="Times,serif" font-size="14.00">0</text>
</g>
<!-- node180 -->
<g id="node4" class="node">
<title>node180</title>
<ellipse fill="lightgray" stroke="black" cx="125.24" cy="-67" rx="24.74" ry="24.74"/>
<text text-anchor="middle" x="125.24" y="-61.95" font-family="Times,serif" font-size="14.00">180</text>
</g>
<!-- node0&#45;&gt;node180 -->
<g id="edge2" class="edge">
<title>node0&#45;&gt;node180</title>
<path fill="none" stroke="black" d="M35.91,-78.75C50.21,-76.85 71.17,-74.06 89.08,-71.68"/>
<polygon fill="black" stroke="black" points="89.36,-75.17 98.81,-70.38 88.44,-68.23 89.36,-75.17"/>
<text text-anchor="middle" x="68.25" y="-79.2" font-family="Times,serif" font-size="14.00">1.97</text>
</g>
<!-- node1 -->
<g id="node2" class="node">
<title>node1</title>
<ellipse fill="lightblue" stroke="black" cx="18" cy="-18" rx="18" ry="18"/>
<text text-anchor="middle" x="18" y="-12.95" font-family="Times,serif" font-size="14.00">1</text>
</g>
<!-- node70 -->
<g id="node3" class="node">
<title>node70</title>
<ellipse fill="lightgreen" stroke="black" cx="234.61" cy="-24" rx="20.13" ry="20.13"/>
<text text-anchor="middle" x="234.61" y="-18.95" font-family="Times,serif" font-size="14.00">70</text>
</g>
<!-- node1&#45;&gt;node70 -->
<g id="edge1" class="edge">
<title>node1&#45;&gt;node70</title>
<path fill="none" stroke="black" d="M36.49,-17.59C52.99,-17.22 78.42,-16.7 100.5,-16.5 122.49,-16.3 128.01,-15.52 149.97,-16.5 167.61,-17.29 187.28,-19.01 203.11,-20.61"/>
<polygon fill="black" stroke="black" points="202.56,-24.07 212.87,-21.63 203.29,-17.1 202.56,-24.07"/>
<text text-anchor="middle" x="125.24" y="-19.2" font-family="Times,serif" font-size="14.00">1.11</text>
</g>
<!-- node1&#45;&gt;node180 -->
<g id="edge4" class="edge">
<title>node1&#45;&gt;node180</title>
<path fill="none" stroke="black" d="M34.53,-25.23C49.61,-32.25 72.95,-43.12 92.05,-52.01"/>
<polygon fill="black" stroke="black" points="90.51,-55.15 101.05,-56.2 93.46,-48.81 90.51,-55.15"/>
<text text-anchor="middle" x="68.25" y="-49.2" font-family="Times,serif" font-size="14.00">&#45;1.90</text>
</g>
<!-- node180&#45;&gt;node70 -->
<g id="edge3" class="edge">
<title>node180&#45;&gt;node70</title>
<path fill="none" stroke="black" d="M148.75,-57.99C165.07,-51.45 187.27,-42.56 204.87,-35.51"/>
<polygon fill="black" stroke="black" points="206.01,-38.82 214,-31.85 203.41,-32.32 206.01,-38.82"/>
<text text-anchor="middle" x="182.22" y="-52.2" font-family="Times,serif" font-size="14.00">&#45;3.35</text>
</g>
</g>
</svg>
