<?xml version="1.0" encoding="UTF-8" standalone="no"?>
<!DOCTYPE svg PUBLIC "-//W3C//DTD SVG 1.1//EN"
 "http://www.w3.org/Graphics/SVG/1.1/DTD/svg11.dtd">
<!-- Generated by graphviz version 9.0.0 (20230911.1827)
 -->
<!-- Title: neat Pages: 1 -->
<svg width="267pt" height="112pt"
 viewBox="0.00 0.00 267.45 111.74" xmlns="http://www.w3.org/2000/svg" xmlns:xlink="http://www.w3.org/1999/xlink">
<g id="graph0" class="graph" transform="scale(1 1) rotate(0) translate(4 107.74)">
<title>neat</title>
<polygon fill="white" stroke="none" points="-4,4 -4,-107.74 263.45,-107.74 263.45,4 -4,4"/>
<!-- node0 -->
<g id="node1" class="node">
<title>node0</title>
<ellipse fill="lightblue" stroke="black" cx="18" cy="-79" rx="18" ry="18"/>
<text text-anchor="middle" x="18" y="-73.95" font-family="Times,serif" font-size="14.00">0</text>
</g>
<!-- node166 -->
<g id="node4" class="node">
<title>node166</title>
<ellipse fill="lightgray" stroke="black" cx="120.74" cy="-79" rx="24.74" ry="24.74"/>
<text text-anchor="middle" x="120.74" y="-73.95" font-family="Times,serif" font-size="14.00">166</text>
</g>
<!-- node0&#45;&gt;node166 -->
<g id="edge2" class="edge">
<title>node0&#45;&gt;node166</title>
<path fill="none" stroke="black" d="M36.09,-79C49.28,-79 67.98,-79 84.36,-79"/>
<polygon fill="black" stroke="black" points="84.24,-82.5 94.24,-79 84.24,-75.5 84.24,-82.5"/>
<text text-anchor="middle" x="66" y="-82.2" font-family="Times,serif" font-size="14.00">2.63</text>
</g>
<!-- node1 -->
<g id="node2" class="node">
<title>node1</title>
<ellipse fill="lightblue" stroke="black" cx="120.74" cy="-18" rx="18" ry="18"/>
<text text-anchor="middle" x="120.74" y="-12.95" font-family="Times,serif" font-size="14.00">1</text>
</g>
<!-- node114 -->
<g id="node3" class="node">
<title>node114</title>
<ellipse fill="lightgreen" stroke="black" cx="234.71" cy="-38" rx="24.74" ry="24.74"/>
<text text-anchor="middle" x="234.71" y="-32.95" font-family="Times,serif" font-size="14.00">114</text>
</g>
<!-- node1&#45;&gt;node114 -->
<g id="edge1" class="edge">
<title>node1&#45;&gt;node114</title>
<path fill="none" stroke="black" d="M138.8,-20.61C153.04,-22.82 173.87,-26.17 191.97,-29.5 194.3,-29.93 196.7,-30.38 199.12,-30.85"/>
<polygon fill="black" stroke="black" points="198.37,-34.27 208.86,-32.78 199.73,-27.4 198.37,-34.27"/>
<text text-anchor="middle" x="177.72" y="-33.2" font-family="Times,serif" font-size="14.00">2.83</text>
</g>
<!-- node166&#45;&gt;node114 -->
<g id="edge3" class="edge">
<title>node166&#45;&gt;node114</title>
<path fill="none" stroke="black" d="M144.4,-70.7C160.49,-64.81 182.35,-56.81 200.41,-50.19"/>
<polygon fill="black" stroke="black" points="201.48,-53.53 209.66,-46.81 199.07,-46.96 201.48,-53.53"/>
<text text-anchor="middle" x="177.72" y="-66.2" font-family="Times,serif" font-size="14.00">&#45;4.81</text>
</g>
</g>
</svg>
