<?xml version="1.0" encoding="UTF-8" standalone="no"?>
<!DOCTYPE svg PUBLIC "-//W3C//DTD SVG 1.1//EN"
 "http://www.w3.org/Graphics/SVG/1.1/DTD/svg11.dtd">
<!-- Generated by graphviz version 9.0.0 (20230911.1827)
 -->
<!-- Title: neat Pages: 1 -->
<svg width="336pt" height="864pt"
 viewBox="0.00 0.00 335.61 864.00" xmlns="http://www.w3.org/2000/svg" xmlns:xlink="http://www.w3.org/1999/xlink">
<g id="graph0" class="graph" transform="scale(1 1) rotate(0) translate(4 860)">
<title>neat</title>
<polygon fill="white" stroke="none" points="-4,4 -4,-860 331.61,-860 331.61,4 -4,4"/>
<g id="clust1" class="cluster">
<title>cluster_0</title>
<path fill="none" stroke="gray" d="M20,-8C20,-8 307.61,-8 307.61,-8 313.61,-8 319.61,-14 319.61,-20 319.61,-20 319.61,-200 319.61,-200 319.61,-206 313.61,-212 307.61,-212 307.61,-212 20,-212 20,-212 14,-212 8,-206 8,-200 8,-200 8,-20 8,-20 8,-14 14,-8 20,-8"/>
<text text-anchor="middle" x="163.81" y="-194.7" font-family="Times,serif" font-size="14.00">Test 0,0 → 0</text>
</g>
<g id="clust2" class="cluster">
<title>cluster_1</title>
<path fill="none" stroke="gray" d="M20,-220C20,-220 307.61,-220 307.61,-220 313.61,-220 319.61,-226 319.61,-232 319.61,-232 319.61,-412 319.61,-412 319.61,-418 313.61,-424 307.61,-424 307.61,-424 20,-424 20,-424 14,-424 8,-418 8,-412 8,-412 8,-232 8,-232 8,-226 14,-220 20,-220"/>
<text text-anchor="middle" x="163.81" y="-406.7" font-family="Times,serif" font-size="14.00">Test 0,1 → 1</text>
</g>
<g id="clust3" class="cluster">
<title>cluster_2</title>
<path fill="none" stroke="gray" d="M20,-432C20,-432 307.61,-432 307.61,-432 313.61,-432 319.61,-438 319.61,-444 319.61,-444 319.61,-624 319.61,-624 319.61,-630 313.61,-636 307.61,-636 307.61,-636 20,-636 20,-636 14,-636 8,-630 8,-624 8,-624 8,-444 8,-444 8,-438 14,-432 20,-432"/>
<text text-anchor="middle" x="163.81" y="-618.7" font-family="Times,serif" font-size="14.00">Test 1,0 → 1</text>
</g>
<g id="clust4" class="cluster">
<title>cluster_3</title>
<path fill="none" stroke="gray" d="M20,-644C20,-644 307.61,-644 307.61,-644 313.61,-644 319.61,-650 319.61,-656 319.61,-656 319.61,-836 319.61,-836 319.61,-842 313.61,-848 307.61,-848 307.61,-848 20,-848 20,-848 14,-848 8,-842 8,-836 8,-836 8,-656 8,-656 8,-650 14,-644 20,-644"/>
<text text-anchor="middle" x="163.81" y="-830.7" font-family="Times,serif" font-size="14.00">Test 1,1 → 0</text>
</g>
<!-- node0_0 -->
<g id="node1" class="node">
<title>node0_0</title>
<ellipse fill="lightblue" stroke="black" cx="47.9" cy="-148" rx="31.9" ry="31.9"/>
<text text-anchor="middle" x="47.9" y="-142.95" font-family="Times,serif" font-size="14.00">0.000</text>
</g>
<!-- node46_0 -->
<g id="node3" class="node">
<title>node46_0</title>
<ellipse fill="lightgreen" stroke="black" cx="279.71" cy="-104" rx="31.9" ry="31.9"/>
<text text-anchor="middle" x="279.71" y="-98.95" font-family="Times,serif" font-size="14.00">0.500</text>
</g>
<!-- node0_0&#45;&gt;node46_0 -->
<g id="edge1" class="edge">
<title>node0_0&#45;&gt;node46_0</title>
<path fill="none" stroke="black" d="M79.42,-142.16C119.85,-134.42 191.36,-120.72 236.82,-112.02"/>
<polygon fill="black" stroke="black" points="237.42,-115.47 246.58,-110.15 236.1,-108.59 237.42,-115.47"/>
<text text-anchor="middle" x="163.81" y="-130.2" font-family="Times,serif" font-size="14.00">1.98</text>
</g>
<!-- node1_0 -->
<g id="node2" class="node">
<title>node1_0</title>
<ellipse fill="lightblue" stroke="black" cx="47.9" cy="-48" rx="31.9" ry="31.9"/>
<text text-anchor="middle" x="47.9" y="-42.95" font-family="Times,serif" font-size="14.00">0.000</text>
</g>
<!-- node1_0&#45;&gt;node46_0 -->
<g id="edge2" class="edge">
<title>node1_0&#45;&gt;node46_0</title>
<path fill="none" stroke="black" d="M79.42,-55.44C120.05,-65.34 192.06,-82.89 237.49,-93.96"/>
<polygon fill="black" stroke="black" points="236.42,-97.3 246.96,-96.26 238.07,-90.5 236.42,-97.3"/>
<text text-anchor="middle" x="163.81" y="-80.2" font-family="Times,serif" font-size="14.00">1.78</text>
</g>
<!-- node0_1 -->
<g id="node4" class="node">
<title>node0_1</title>
<ellipse fill="lightblue" stroke="black" cx="47.9" cy="-360" rx="31.9" ry="31.9"/>
<text text-anchor="middle" x="47.9" y="-354.95" font-family="Times,serif" font-size="14.00">0.000</text>
</g>
<!-- node46_1 -->
<g id="node6" class="node">
<title>node46_1</title>
<ellipse fill="lightgreen" stroke="black" cx="279.71" cy="-316" rx="31.9" ry="31.9"/>
<text text-anchor="middle" x="279.71" y="-310.95" font-family="Times,serif" font-size="14.00">1.000</text>
</g>
<!-- node0_1&#45;&gt;node46_1 -->
<g id="edge3" class="edge">
<title>node0_1&#45;&gt;node46_1</title>
<path fill="none" stroke="black" d="M79.42,-354.16C119.85,-346.42 191.36,-332.72 236.82,-324.02"/>
<polygon fill="black" stroke="black" points="237.42,-327.47 246.58,-322.15 236.1,-320.59 237.42,-327.47"/>
<text text-anchor="middle" x="163.81" y="-342.2" font-family="Times,serif" font-size="14.00">1.98</text>
</g>
<!-- node1_1 -->
<g id="node5" class="node">
<title>node1_1</title>
<ellipse fill="lightblue" stroke="black" cx="47.9" cy="-260" rx="31.9" ry="31.9"/>
<text text-anchor="middle" x="47.9" y="-254.95" font-family="Times,serif" font-size="14.00">1.000</text>
</g>
<!-- node1_1&#45;&gt;node46_1 -->
<g id="edge4" class="edge">
<title>node1_1&#45;&gt;node46_1</title>
<path fill="none" stroke="black" d="M79.42,-267.44C120.05,-277.34 192.06,-294.89 237.49,-305.96"/>
<polygon fill="black" stroke="black" points="236.42,-309.3 246.96,-308.26 238.07,-302.5 236.42,-309.3"/>
<text text-anchor="middle" x="163.81" y="-292.2" font-family="Times,serif" font-size="14.00">1.78</text>
</g>
<!-- node0_2 -->
<g id="node7" class="node">
<title>node0_2</title>
<ellipse fill="lightblue" stroke="black" cx="47.9" cy="-572" rx="31.9" ry="31.9"/>
<text text-anchor="middle" x="47.9" y="-566.95" font-family="Times,serif" font-size="14.00">1.000</text>
</g>
<!-- node46_2 -->
<g id="node9" class="node">
<title>node46_2</title>
<ellipse fill="lightgreen" stroke="black" cx="279.71" cy="-528" rx="31.9" ry="31.9"/>
<text text-anchor="middle" x="279.71" y="-522.95" font-family="Times,serif" font-size="14.00">1.000</text>
</g>
<!-- node0_2&#45;&gt;node46_2 -->
<g id="edge5" class="edge">
<title>node0_2&#45;&gt;node46_2</title>
<path fill="none" stroke="black" d="M79.42,-566.16C119.85,-558.42 191.36,-544.72 236.82,-536.02"/>
<polygon fill="black" stroke="black" points="237.42,-539.47 246.58,-534.15 236.1,-532.59 237.42,-539.47"/>
<text text-anchor="middle" x="163.81" y="-554.2" font-family="Times,serif" font-size="14.00">1.98</text>
</g>
<!-- node1_2 -->
<g id="node8" class="node">
<title>node1_2</title>
<ellipse fill="lightblue" stroke="black" cx="47.9" cy="-472" rx="31.9" ry="31.9"/>
<text text-anchor="middle" x="47.9" y="-466.95" font-family="Times,serif" font-size="14.00">0.000</text>
</g>
<!-- node1_2&#45;&gt;node46_2 -->
<g id="edge6" class="edge">
<title>node1_2&#45;&gt;node46_2</title>
<path fill="none" stroke="black" d="M79.42,-479.44C120.05,-489.34 192.06,-506.89 237.49,-517.96"/>
<polygon fill="black" stroke="black" points="236.42,-521.3 246.96,-520.26 238.07,-514.5 236.42,-521.3"/>
<text text-anchor="middle" x="163.81" y="-504.2" font-family="Times,serif" font-size="14.00">1.78</text>
</g>
<!-- node0_3 -->
<g id="node10" class="node">
<title>node0_3</title>
<ellipse fill="lightblue" stroke="black" cx="47.9" cy="-784" rx="31.9" ry="31.9"/>
<text text-anchor="middle" x="47.9" y="-778.95" font-family="Times,serif" font-size="14.00">1.000</text>
</g>
<!-- node46_3 -->
<g id="node12" class="node">
<title>node46_3</title>
<ellipse fill="lightgreen" stroke="black" cx="279.71" cy="-740" rx="31.9" ry="31.9"/>
<text text-anchor="middle" x="279.71" y="-734.95" font-family="Times,serif" font-size="14.00">1.000</text>
</g>
<!-- node0_3&#45;&gt;node46_3 -->
<g id="edge7" class="edge">
<title>node0_3&#45;&gt;node46_3</title>
<path fill="none" stroke="black" d="M79.42,-778.16C119.85,-770.42 191.36,-756.72 236.82,-748.02"/>
<polygon fill="black" stroke="black" points="237.42,-751.47 246.58,-746.15 236.1,-744.59 237.42,-751.47"/>
<text text-anchor="middle" x="163.81" y="-766.2" font-family="Times,serif" font-size="14.00">1.98</text>
</g>
<!-- node1_3 -->
<g id="node11" class="node">
<title>node1_3</title>
<ellipse fill="lightblue" stroke="black" cx="47.9" cy="-684" rx="31.9" ry="31.9"/>
<text text-anchor="middle" x="47.9" y="-678.95" font-family="Times,serif" font-size="14.00">1.000</text>
</g>
<!-- node1_3&#45;&gt;node46_3 -->
<g id="edge8" class="edge">
<title>node1_3&#45;&gt;node46_3</title>
<path fill="none" stroke="black" d="M79.42,-691.44C120.05,-701.34 192.06,-718.89 237.49,-729.96"/>
<polygon fill="black" stroke="black" points="236.42,-733.3 246.96,-732.26 238.07,-726.5 236.42,-733.3"/>
<text text-anchor="middle" x="163.81" y="-716.2" font-family="Times,serif" font-size="14.00">1.78</text>
</g>
</g>
</svg>
